<svg width="37" height="37" viewBox="0 0 37 37" fill="none" xmlns="http://www.w3.org/2000/svg">
<path d="M9.5 8.08731C9.144 8.08731 8.796 8.19291 8.5 8.39071C8.204 8.58851 7.9733 8.86961 7.837 9.19851C7.7008 9.52741 7.6652 9.88931 7.7346 10.2385C7.8041 10.5877 7.9755 10.9084 8.2272 11.1601C8.479 11.4119 8.7997 11.5833 9.1489 11.6528C9.498 11.7222 9.8599 11.6866 10.1888 11.5503C10.5178 11.4141 10.7989 11.1834 10.9967 10.8874C11.1944 10.5914 11.3 10.2433 11.3 9.88731C11.3 9.41001 11.1104 8.95211 10.7728 8.61461C10.4352 8.27701 9.9774 8.08731 9.5 8.08731ZM35.978 18.4913L18.914 1.46341C18.7462 1.28241 18.5429 1.13791 18.3169 1.03881C18.0908 0.939706 17.8468 0.888206 17.6 0.887406H6.8C6.5631 0.886006 6.3283 0.931407 6.109 1.02101C5.8897 1.11051 5.6902 1.24251 5.522 1.40941L1.022 5.89141C0.855196 6.05951 0.723197 6.259 0.633597 6.4783C0.544097 6.6976 0.498697 6.93251 0.499997 7.16931V17.9693C0.506697 18.4459 0.693096 18.9024 1.022 19.2473L18.104 36.3473C18.4489 36.6762 18.9054 36.8627 19.382 36.8693C19.6189 36.8707 19.8537 36.8253 20.073 36.7357C20.2923 36.6461 20.4918 36.5141 20.66 36.3473L35.978 21.0293C36.1448 20.8611 36.2768 20.6617 36.3664 20.4424C36.4559 20.2231 36.5013 19.9882 36.5 19.7513C36.4889 19.281 36.3027 18.8317 35.978 18.4913ZM19.382 32.5493L4.1 17.2493V7.90731L7.52 4.48741H16.844L32.144 19.7693L19.382 32.5493Z" fill="#272D30"/>
</svg>
