<svg width="32" height="27" viewBox="0 0 32 27" fill="none" xmlns="http://www.w3.org/2000/svg">
<path d="M29.44 4.90907H3.84C3.50051 4.90907 3.17497 4.77975 2.93497 4.54961C2.69486 4.31946 2.56 4.00736 2.56 3.68186C2.56 3.35636 2.69486 3.04414 2.93497 2.814C3.17497 2.58386 3.50051 2.45454 3.84 2.45454H25.6C25.9395 2.45454 26.265 2.32521 26.5051 2.09507C26.7451 1.86493 26.88 1.55282 26.88 1.22732C26.88 0.901822 26.7451 0.589606 26.5051 0.359463C26.265 0.12932 25.9395 0 25.6 0H3.84C2.82198 0.00117857 1.84588 0.389355 1.12599 1.07968C0.406095 1.76989 0.00119728 2.70568 0 3.68186V23.3181C0.00119728 24.2943 0.406095 25.2302 1.12599 25.9204C1.84588 26.6106 2.82198 26.9989 3.84 27H29.44C30.1187 26.9992 30.7694 26.7404 31.2494 26.2803C31.7293 25.8201 31.9992 25.1962 32 24.5455V7.36361C31.9992 6.71293 31.7293 6.08904 31.2494 5.62886C30.7694 5.16868 30.1187 4.90982 29.44 4.90907ZM23.68 17.7955C23.3002 17.7955 22.9291 17.6875 22.6133 17.4852C22.2976 17.2829 22.0515 16.9954 21.9062 16.659C21.7609 16.3227 21.7229 15.9525 21.7969 15.5954C21.871 15.2383 22.0539 14.9103 22.3224 14.6529C22.5909 14.3954 22.933 14.22 23.3055 14.1491C23.6779 14.078 24.064 14.1145 24.4148 14.2538C24.7656 14.3931 25.0655 14.6291 25.2764 14.9319C25.4875 15.2345 25.6 15.5905 25.6 15.9545C25.6 16.4428 25.3978 16.911 25.0377 17.2563C24.6777 17.6015 24.1893 17.7955 23.68 17.7955Z" fill="#272D30"/>
</svg>
