<svg width="86" height="86" viewBox="0 0 86 86" fill="none" xmlns="http://www.w3.org/2000/svg">
<rect x="0.767857" y="0.767857" width="84.4643" height="84.4643" rx="42.2321" fill="#EBF5FF" stroke="#DDDDDD" stroke-width="1.53571"/>
<path d="M38 55.7967L27.5 51.2972V37.4524L38 41.9518V55.7967Z" fill="#0079B3"/>
<path d="M38.896 40.431L28.8475 36.1241L38.896 31.8189L50.383 36.1241L47.6442 37.1514L41.7258 39.3722L38.896 40.431Z" fill="#0079B3"/>
<path d="M52 51.2675L39.75 55.8614V41.9798L43.25 40.6673V45.5395C43.25 45.8265 43.3918 46.0943 43.6263 46.2588C43.775 46.362 43.9483 46.4145 44.125 46.4145C44.2283 46.4145 44.3333 46.3953 44.433 46.3585L47.933 45.046C48.2743 44.9165 48.5 44.591 48.5 44.2269V38.6985L52 37.3859V51.2675Z" fill="#0079B3"/>
<path fill-rule="evenodd" clip-rule="evenodd" d="M53.1867 35.3106L53.1842 35.3083L53.1832 35.3077C53.1845 35.3085 53.1857 35.3095 53.1867 35.3106Z" fill="#0079B3"/>
<path d="M45 40.011L46.75 39.3547V43.6197L45 44.2759V40.011Z" fill="#0079B3"/>
<path d="M36.0888 50.3226L32.2989 48.7402C31.8214 48.5391 31.2624 48.7606 31.0578 49.2335C30.8531 49.7064 31.0767 50.2537 31.5599 50.4529L35.3498 52.0353C35.4692 52.0856 35.5961 52.1098 35.7193 52.1098C36.0869 52.1098 36.4375 51.8976 36.591 51.542C36.7956 51.0691 36.572 50.5218 36.0888 50.3226Z" fill="#0079B3"/>
<path d="M59 30V40.5" stroke="#0079B3" stroke-width="2.625" stroke-linecap="round" stroke-linejoin="round"/>
<path d="M64.25 35.25H53.75" stroke="#0079B3" stroke-width="2.625" stroke-linecap="round" stroke-linejoin="round"/>
</svg>
