<svg width="91" height="91" viewBox="0 0 91 91" fill="none" xmlns="http://www.w3.org/2000/svg">
<g clip-path="url(#clip0_621_3501)">
<path d="M45.5 90.8873C70.3528 90.8873 90.5 70.7401 90.5 45.8873C90.5 21.0345 70.3528 0.887299 45.5 0.887299C20.6472 0.887299 0.5 21.0345 0.5 45.8873C0.5 70.7401 20.6472 90.8873 45.5 90.8873Z" fill="#F0F4F6"/>
<path d="M35.5 35.0873C35.144 35.0873 34.796 35.1929 34.5 35.3907C34.204 35.5885 33.9733 35.8696 33.837 36.1985C33.7008 36.5274 33.6652 36.8893 33.7346 37.2385C33.8041 37.5877 33.9755 37.9084 34.2272 38.1601C34.479 38.4119 34.7997 38.5833 35.1489 38.6528C35.498 38.7222 35.8599 38.6866 36.1888 38.5503C36.5178 38.4141 36.7989 38.1834 36.9967 37.8874C37.1944 37.5914 37.3 37.2433 37.3 36.8873C37.3 36.41 37.1104 35.9521 36.7728 35.6146C36.4352 35.277 35.9774 35.0873 35.5 35.0873ZM61.978 45.4913L44.914 28.4634C44.7462 28.2824 44.5429 28.1379 44.3169 28.0388C44.0908 27.9397 43.8468 27.8882 43.6 27.8874H32.8C32.5631 27.886 32.3283 27.9314 32.109 28.021C31.8897 28.1105 31.6902 28.2425 31.522 28.4094L27.022 32.8914C26.8552 33.0595 26.7232 33.259 26.6336 33.4783C26.5441 33.6976 26.4987 33.9325 26.5 34.1693V44.9693C26.5067 45.4459 26.6931 45.9024 27.022 46.2473L44.104 63.3473C44.4489 63.6762 44.9054 63.8627 45.382 63.8693C45.6189 63.8707 45.8537 63.8253 46.073 63.7357C46.2923 63.6461 46.4918 63.5141 46.66 63.3473L61.978 48.0293C62.1448 47.8611 62.2768 47.6617 62.3664 47.4424C62.4559 47.2231 62.5013 46.9882 62.5 46.7513C62.4889 46.281 62.3027 45.8317 61.978 45.4913ZM45.382 59.5493L30.1 44.2493V34.9073L33.52 31.4874H42.844L58.144 46.7693L45.382 59.5493Z" fill="#00A353"/>
</g>
<defs>
<clipPath id="clip0_621_3501">
<rect width="91" height="91" fill="white"/>
</clipPath>
</defs>
</svg>
