<svg width="88" height="88" viewBox="0 0 88 88" fill="none" xmlns="http://www.w3.org/2000/svg">
<rect x="0.785714" y="0.785714" width="86.4286" height="86.4286" rx="43.2143" fill="#EBF5FF" stroke="#DDDDDD" stroke-width="1.57143"/>
<path d="M56.7301 36.1727H33.2101C32.8982 36.1727 32.5991 36.052 32.3786 35.8372C32.158 35.6224 32.0341 35.3311 32.0341 35.0273C32.0341 34.7235 32.158 34.4321 32.3786 34.2173C32.5991 34.0025 32.8982 33.8818 33.2101 33.8818H53.2021C53.514 33.8818 53.8131 33.7611 54.0337 33.5463C54.2542 33.3315 54.3781 33.0402 54.3781 32.7364C54.3781 32.4326 54.2542 32.1412 54.0337 31.9264C53.8131 31.7116 53.514 31.5909 53.2021 31.5909H33.2101C32.2748 31.592 31.378 31.9543 30.7166 32.5986C30.0552 33.2428 29.6832 34.1162 29.6821 35.0273V53.3545C29.6832 54.2656 30.0552 55.1391 30.7166 55.7833C31.378 56.4275 32.2748 56.7899 33.2101 56.7909H56.7301C57.3537 56.7902 57.9515 56.5486 58.3925 56.1192C58.8334 55.6897 59.0814 55.1074 59.0821 54.5V38.4636C59.0814 37.8563 58.8334 37.274 58.3925 36.8445C57.9515 36.415 57.3537 36.1734 56.7301 36.1727ZM51.4381 48.2C51.0892 48.2 50.7482 48.0992 50.4581 47.9104C50.168 47.7216 49.9419 47.4533 49.8084 47.1393C49.6749 46.8254 49.64 46.4799 49.708 46.1466C49.7761 45.8133 49.9441 45.5072 50.1908 45.2669C50.4375 45.0266 50.7518 44.8629 51.094 44.7967C51.4362 44.7304 51.7909 44.7644 52.1132 44.8944C52.4355 45.0245 52.711 45.2447 52.9048 45.5273C53.0987 45.8098 53.2021 46.142 53.2021 46.4818C53.2021 46.9375 53.0163 47.3745 52.6855 47.6968C52.3547 48.019 51.906 48.2 51.4381 48.2Z" fill="#0079B3"/>
</svg>
