<svg width="41" height="29" viewBox="0 0 41 29" fill="none" xmlns="http://www.w3.org/2000/svg">
<path d="M11 29L0 24.3397V10L11 14.6602V29Z" fill="#272D30"/>
<path d="M12.2652 13L2 8.49911L12.2652 4L24 8.49911L21.2021 9.57268L15.1561 11.8935L12.2652 13Z" fill="#272D30"/>
<path d="M26 24.2757L13 29V14.7243L16.7143 13.3746V18.3851C16.7143 18.6802 16.8648 18.9556 17.1136 19.1248C17.2714 19.2309 17.4553 19.2849 17.6429 19.2849C17.7525 19.2849 17.8639 19.2652 17.9697 19.2273L21.684 17.8776C22.0462 17.7444 22.2857 17.4096 22.2857 17.0352V11.3499L26 10V24.2757Z" fill="#272D30"/>
<path d="M19 12.6668L21 12V16.3333L19 17V12.6668Z" fill="#272D30"/>
<path d="M9.38996 22.9242L5.38996 21.0863C4.88599 20.8527 4.296 21.11 4.08006 21.6592C3.86401 22.2085 4.10001 22.8442 4.61 23.0755L8.60999 24.9135C8.73601 24.9719 8.86995 25 8.99998 25C9.38795 25 9.75799 24.7535 9.92 24.3405C10.1359 23.7912 9.89995 23.1556 9.38996 22.9242Z" fill="#272D30"/>
<path d="M33 2V13Z" fill="#272D30"/>
<path d="M33 2V13" stroke="#272D30" stroke-width="2.625" stroke-linecap="round" stroke-linejoin="round"/>
<path d="M39 7H28Z" fill="#272D30"/>
<path d="M39 7H28" stroke="#272D30" stroke-width="2.625" stroke-linecap="round" stroke-linejoin="round"/>
</svg>
