<svg width="90" height="91" viewBox="0 0 90 91" fill="none" xmlns="http://www.w3.org/2000/svg">
<g clip-path="url(#clip0_621_3494)">
<path d="M45 90.8873C69.8528 90.8873 90 70.7401 90 45.8873C90 21.0345 69.8528 0.887299 45 0.887299C20.1472 0.887299 0 21.0345 0 45.8873C0 70.7401 20.1472 90.8873 45 90.8873Z" fill="#F0F4F6"/>
<path d="M45.75 45.8123C46.475 45.0123 47.0315 44.0998 47.4195 43.0748C47.8065 42.0498 48 40.9873 48 39.8873C48 38.7873 47.8065 37.7248 47.4195 36.6998C47.0315 35.6748 46.475 34.7623 45.75 33.9623C47.25 34.1623 48.5 34.8248 49.5 35.9498C50.5 37.0748 51 38.3873 51 39.8873C51 41.3873 50.5 42.6998 49.5 43.8248C48.5 44.9498 47.25 45.6123 45.75 45.8123ZM54 57.8873V53.3873C54 52.4873 53.8 51.6313 53.4 50.8193C53 50.0063 52.475 49.2873 51.825 48.6623C53.1 49.1123 54.2815 49.6933 55.3695 50.4053C56.4565 51.1183 57 52.1123 57 53.3873V57.8873H54ZM57 47.3873V44.3873H54V41.3873H57V38.3873H60V41.3873H63V44.3873H60V47.3873H57ZM39 45.8873C37.35 45.8873 35.9375 45.2998 34.7625 44.1248C33.5875 42.9498 33 41.5373 33 39.8873C33 38.2373 33.5875 36.8248 34.7625 35.6498C35.9375 34.4748 37.35 33.8873 39 33.8873C40.65 33.8873 42.0625 34.4748 43.2375 35.6498C44.4125 36.8248 45 38.2373 45 39.8873C45 41.5373 44.4125 42.9498 43.2375 44.1248C42.0625 45.2998 40.65 45.8873 39 45.8873ZM27 57.8873V53.6873C27 52.8373 27.219 52.0558 27.657 51.3428C28.094 50.6308 28.675 50.0873 29.4 49.7123C30.95 48.9373 32.525 48.3558 34.125 47.9678C35.725 47.5808 37.35 47.3873 39 47.3873C40.65 47.3873 42.275 47.5808 43.875 47.9678C45.475 48.3558 47.05 48.9373 48.6 49.7123C49.325 50.0873 49.906 50.6308 50.343 51.3428C50.781 52.0558 51 52.8373 51 53.6873V57.8873H27ZM39 42.8873C39.825 42.8873 40.5315 42.5933 41.1195 42.0053C41.7065 41.4183 42 40.7123 42 39.8873C42 39.0623 41.7065 38.3563 41.1195 37.7693C40.5315 37.1813 39.825 36.8873 39 36.8873C38.175 36.8873 37.469 37.1813 36.882 37.7693C36.294 38.3563 36 39.0623 36 39.8873C36 40.7123 36.294 41.4183 36.882 42.0053C37.469 42.5933 38.175 42.8873 39 42.8873ZM30 54.8873H48V53.6873C48 53.4123 47.9315 53.1623 47.7945 52.9373C47.6565 52.7123 47.475 52.5373 47.25 52.4123C45.9 51.7373 44.5375 51.2308 43.1625 50.8928C41.7875 50.5558 40.4 50.3873 39 50.3873C37.6 50.3873 36.2125 50.5558 34.8375 50.8928C33.4625 51.2308 32.1 51.7373 30.75 52.4123C30.525 52.5373 30.344 52.7123 30.207 52.9373C30.069 53.1623 30 53.4123 30 53.6873V54.8873Z" fill="#00A353"/>
</g>
<defs>
<clipPath id="clip0_621_3494">
<rect width="90" height="91" fill="white"/>
</clipPath>
</defs>
</svg>
