<svg width="31" height="40" viewBox="0 0 31 40" fill="none" xmlns="http://www.w3.org/2000/svg">
<mask id="mask0_1_104" style="mask-type:alpha" maskUnits="userSpaceOnUse" x="0" y="0" width="31" height="40">
<path d="M26.1686 2H5.6558C4.8188 2 4.0161 2.3034 3.4243 2.8435C2.8325 3.3836 2.5 4.1162 2.5 4.88V35.12C2.5 35.8838 2.8325 36.6164 3.4243 37.1565C4.0161 37.6966 4.8188 38 5.6558 38H26.1686C27.0055 38 27.8082 37.6966 28.4 37.1565C28.9919 36.6164 29.3244 35.8838 29.3244 35.12V4.88C29.3244 4.1162 28.9919 3.3836 28.4 2.8435C27.8082 2.3034 27.0055 2 26.1686 2ZM8.0227 23.6C8.3336 23.6001 8.6414 23.6561 8.9287 23.7648C9.2159 23.8734 9.4768 24.0327 9.6966 24.2334C9.9164 24.4341 10.0907 24.6723 10.2096 24.9345C10.3285 25.1967 10.3896 25.4777 10.3895 25.7614C10.3894 26.0452 10.3281 26.3261 10.209 26.5883C10.0899 26.8504 9.9154 27.0885 9.6955 27.2891C9.4756 27.4897 9.2145 27.6487 8.9272 27.7572C8.6399 27.8657 8.332 27.9215 8.0211 27.9214C7.3931 27.9212 6.791 27.6934 6.3471 27.2881C5.9033 26.8827 5.654 26.3331 5.6542 25.76C5.6544 25.1869 5.9041 24.6374 6.3483 24.2324C6.7924 23.8273 7.3947 23.5998 8.0227 23.6ZM5.6558 18.56C5.656 17.9869 5.9057 17.4374 6.3498 17.0324C6.794 16.6273 7.3963 16.3998 8.0242 16.4C8.6522 16.4002 9.2543 16.628 9.6982 17.0334C10.1421 17.4387 10.3913 17.9884 10.3911 18.5614C10.3909 19.1345 10.1412 19.684 9.6971 20.0891C9.2529 20.4942 8.6506 20.7216 8.0227 20.7214C7.3947 20.7213 6.7926 20.4934 6.3487 20.0881C5.9048 19.6827 5.6556 19.1331 5.6558 18.56ZM15.9122 35.12H8.0227C7.3949 35.12 6.7929 34.8924 6.349 34.4874C5.9052 34.0823 5.6558 33.5329 5.6558 32.96C5.6558 32.3871 5.9052 31.8377 6.349 31.4327C6.7929 31.0276 7.3949 30.8 8.0227 30.8H15.9122C16.5399 30.8 17.1419 31.0276 17.5858 31.4327C18.0297 31.8377 18.279 32.3871 18.279 32.96C18.279 33.5329 18.0297 34.0823 17.5858 34.4874C17.1419 34.8924 16.5399 35.12 15.9122 35.12ZM15.9122 27.92C15.6013 27.9199 15.2934 27.8639 15.0062 27.7553C14.719 27.6466 14.458 27.4873 14.2382 27.2866C14.0185 27.0859 13.8441 26.8477 13.7252 26.5855C13.6064 26.3233 13.5452 26.0423 13.5453 25.7586C13.5454 25.4748 13.6068 25.1939 13.7259 24.9317C13.8449 24.6696 14.0194 24.4315 14.2394 24.2309C14.4593 24.0303 14.7203 23.8713 15.0076 23.7628C15.2949 23.6543 15.6028 23.5985 15.9138 23.5986C16.5417 23.5988 17.1438 23.8266 17.5877 24.2319C18.0316 24.6373 18.2808 25.1869 18.2806 25.76C18.2804 26.3331 18.0308 26.8826 17.5866 27.2876C17.1424 27.6927 16.5401 27.9202 15.9122 27.92ZM15.9122 20.72C15.2842 20.7198 14.6821 20.492 14.2382 20.0866C13.7944 19.6813 13.5451 19.1316 13.5453 18.5586C13.5455 17.9855 13.7952 17.436 14.2394 17.0309C14.6835 16.6258 15.2858 16.3984 15.9138 16.3986C16.5417 16.3988 17.1438 16.6266 17.5877 17.0319C18.0316 17.4373 18.2808 17.9869 18.2806 18.56C18.2804 19.1331 18.0308 19.6826 17.5866 20.0876C17.1424 20.4927 16.5401 20.7202 15.9122 20.72ZM23.8017 35.12C23.1738 35.1198 22.5716 34.892 22.1278 34.4866C21.6839 34.0813 21.4346 33.5316 21.4348 32.9586C21.4351 32.3855 21.6847 31.836 22.1289 31.4309C22.573 31.0258 23.1753 30.7984 23.8033 30.7986C24.1142 30.7987 24.4221 30.8546 24.7093 30.9633C24.9965 31.072 25.2574 31.2312 25.4772 31.4319C25.697 31.6326 25.8713 31.8709 25.9902 32.1331C26.1091 32.3953 26.1702 32.6763 26.1701 32.96C26.17 33.2438 26.1087 33.5247 25.9896 33.7868C25.8705 34.0489 25.696 34.2871 25.4761 34.4877C25.2562 34.6882 24.9951 34.8473 24.7078 34.9558C24.4205 35.0643 24.1126 35.1201 23.8017 35.12ZM23.8017 27.92C23.4908 27.9199 23.1829 27.8639 22.8957 27.7553C22.6085 27.6466 22.3475 27.4873 22.1278 27.2866C21.908 27.0859 21.7337 26.8477 21.6148 26.5855C21.4959 26.3233 21.4347 26.0423 21.4348 25.7586C21.4349 25.4748 21.4963 25.1939 21.6154 24.9317C21.7345 24.6696 21.9089 24.4315 22.1289 24.2309C22.3488 24.0303 22.6099 23.8713 22.8972 23.7628C23.1845 23.6543 23.4924 23.5985 23.8033 23.5986C24.4312 23.5988 25.0334 23.8266 25.4772 24.2319C25.9211 24.6373 26.1703 25.1869 26.1701 25.76C26.1699 26.3331 25.9203 26.8826 25.4761 27.2876C25.0319 27.6927 24.4296 27.9202 23.8017 27.92ZM23.8017 20.72C23.1738 20.7198 22.5716 20.492 22.1278 20.0866C21.6839 19.6813 21.4346 19.1316 21.4348 18.5586C21.4351 17.9855 21.6847 17.436 22.1289 17.0309C22.573 16.6258 23.1753 16.3984 23.8033 16.3986C24.4312 16.3988 25.0334 16.6266 25.4772 17.0319C25.9211 17.4373 26.1703 17.9869 26.1701 18.56C26.1699 19.1331 25.9203 19.6826 25.4761 20.0876C25.0319 20.4927 24.4296 20.7202 23.8017 20.72ZM26.1686 10.64C26.1686 11.4038 25.8361 12.1364 25.2442 12.6765C24.6524 13.2166 23.8497 13.52 23.0127 13.52H8.8116C7.9746 13.52 7.172 13.2166 6.5801 12.6765C5.9883 12.1364 5.6558 11.4038 5.6558 10.64V7.76C5.6558 6.9962 5.9883 6.2636 6.5801 5.7235C7.172 5.1834 7.9746 4.88 8.8116 4.88H23.0127C23.8497 4.88 24.6524 5.1834 25.2442 5.7235C25.8361 6.2636 26.1686 6.9962 26.1686 7.76V10.64Z" stroke="#272D30" stroke-width="3.04"/>
</mask>
<g mask="url(#mask0_1_104)">
<path d="M26.1686 2H5.6558C4.8188 2 4.0161 2.3034 3.4243 2.8435C2.8325 3.3836 2.5 4.1162 2.5 4.88V35.12C2.5 35.8838 2.8325 36.6164 3.4243 37.1565C4.0161 37.6966 4.8188 38 5.6558 38H26.1686C27.0055 38 27.8082 37.6966 28.4 37.1565C28.9919 36.6164 29.3244 35.8838 29.3244 35.12V4.88C29.3244 4.1162 28.9919 3.3836 28.4 2.8435C27.8082 2.3034 27.0055 2 26.1686 2ZM8.0227 23.6C8.3336 23.6001 8.6414 23.6561 8.9287 23.7648C9.2159 23.8734 9.4768 24.0327 9.6966 24.2334C9.9164 24.4341 10.0907 24.6723 10.2096 24.9345C10.3285 25.1967 10.3896 25.4777 10.3895 25.7614C10.3894 26.0452 10.3281 26.3261 10.209 26.5883C10.0899 26.8504 9.9154 27.0885 9.6955 27.2891C9.4756 27.4897 9.2145 27.6487 8.9272 27.7572C8.6399 27.8657 8.332 27.9215 8.0211 27.9214C7.3931 27.9212 6.791 27.6934 6.3471 27.2881C5.9033 26.8827 5.654 26.3331 5.6542 25.76C5.6544 25.1869 5.9041 24.6374 6.3483 24.2324C6.7924 23.8273 7.3947 23.5998 8.0227 23.6ZM5.6558 18.56C5.656 17.9869 5.9057 17.4374 6.3498 17.0324C6.794 16.6273 7.3963 16.3998 8.0242 16.4C8.6522 16.4002 9.2543 16.628 9.6982 17.0334C10.1421 17.4387 10.3913 17.9884 10.3911 18.5614C10.3909 19.1345 10.1412 19.684 9.6971 20.0891C9.2529 20.4942 8.6506 20.7216 8.0227 20.7214C7.3947 20.7213 6.7926 20.4934 6.3487 20.0881C5.9048 19.6827 5.6556 19.1331 5.6558 18.56ZM15.9122 35.12H8.0227C7.3949 35.12 6.7929 34.8924 6.349 34.4874C5.9052 34.0823 5.6558 33.5329 5.6558 32.96C5.6558 32.3871 5.9052 31.8377 6.349 31.4327C6.7929 31.0276 7.3949 30.8 8.0227 30.8H15.9122C16.5399 30.8 17.1419 31.0276 17.5858 31.4327C18.0297 31.8377 18.279 32.3871 18.279 32.96C18.279 33.5329 18.0297 34.0823 17.5858 34.4874C17.1419 34.8924 16.5399 35.12 15.9122 35.12ZM15.9122 27.92C15.6013 27.9199 15.2934 27.8639 15.0062 27.7553C14.719 27.6466 14.458 27.4873 14.2382 27.2866C14.0185 27.0859 13.8441 26.8477 13.7252 26.5855C13.6064 26.3233 13.5452 26.0423 13.5453 25.7586C13.5454 25.4748 13.6068 25.1939 13.7259 24.9317C13.8449 24.6696 14.0194 24.4315 14.2394 24.2309C14.4593 24.0303 14.7203 23.8713 15.0076 23.7628C15.2949 23.6543 15.6028 23.5985 15.9138 23.5986C16.5417 23.5988 17.1438 23.8266 17.5877 24.2319C18.0316 24.6373 18.2808 25.1869 18.2806 25.76C18.2804 26.3331 18.0308 26.8826 17.5866 27.2876C17.1424 27.6927 16.5401 27.9202 15.9122 27.92ZM15.9122 20.72C15.2842 20.7198 14.6821 20.492 14.2382 20.0866C13.7944 19.6813 13.5451 19.1316 13.5453 18.5586C13.5455 17.9855 13.7952 17.436 14.2394 17.0309C14.6835 16.6258 15.2858 16.3984 15.9138 16.3986C16.5417 16.3988 17.1438 16.6266 17.5877 17.0319C18.0316 17.4373 18.2808 17.9869 18.2806 18.56C18.2804 19.1331 18.0308 19.6826 17.5866 20.0876C17.1424 20.4927 16.5401 20.7202 15.9122 20.72ZM23.8017 35.12C23.1738 35.1198 22.5716 34.892 22.1278 34.4866C21.6839 34.0813 21.4346 33.5316 21.4348 32.9586C21.4351 32.3855 21.6847 31.836 22.1289 31.4309C22.573 31.0258 23.1753 30.7984 23.8033 30.7986C24.1142 30.7987 24.4221 30.8546 24.7093 30.9633C24.9965 31.072 25.2574 31.2312 25.4772 31.4319C25.697 31.6326 25.8713 31.8709 25.9902 32.1331C26.1091 32.3953 26.1702 32.6763 26.1701 32.96C26.17 33.2438 26.1087 33.5247 25.9896 33.7868C25.8705 34.0489 25.696 34.2871 25.4761 34.4877C25.2562 34.6882 24.9951 34.8473 24.7078 34.9558C24.4205 35.0643 24.1126 35.1201 23.8017 35.12ZM23.8017 27.92C23.4908 27.9199 23.1829 27.8639 22.8957 27.7553C22.6085 27.6466 22.3475 27.4873 22.1278 27.2866C21.908 27.0859 21.7337 26.8477 21.6148 26.5855C21.4959 26.3233 21.4347 26.0423 21.4348 25.7586C21.4349 25.4748 21.4963 25.1939 21.6154 24.9317C21.7345 24.6696 21.9089 24.4315 22.1289 24.2309C22.3488 24.0303 22.6099 23.8713 22.8972 23.7628C23.1845 23.6543 23.4924 23.5985 23.8033 23.5986C24.4312 23.5988 25.0334 23.8266 25.4772 24.2319C25.9211 24.6373 26.1703 25.1869 26.1701 25.76C26.1699 26.3331 25.9203 26.8826 25.4761 27.2876C25.0319 27.6927 24.4296 27.9202 23.8017 27.92ZM23.8017 20.72C23.1738 20.7198 22.5716 20.492 22.1278 20.0866C21.6839 19.6813 21.4346 19.1316 21.4348 18.5586C21.4351 17.9855 21.6847 17.436 22.1289 17.0309C22.573 16.6258 23.1753 16.3984 23.8033 16.3986C24.4312 16.3988 25.0334 16.6266 25.4772 17.0319C25.9211 17.4373 26.1703 17.9869 26.1701 18.56C26.1699 19.1331 25.9203 19.6826 25.4761 20.0876C25.0319 20.4927 24.4296 20.7202 23.8017 20.72ZM26.1686 10.64C26.1686 11.4038 25.8361 12.1364 25.2442 12.6765C24.6524 13.2166 23.8497 13.52 23.0127 13.52H8.8116C7.9746 13.52 7.172 13.2166 6.5801 12.6765C5.9883 12.1364 5.6558 11.4038 5.6558 10.64V7.76C5.6558 6.9962 5.9883 6.2636 6.5801 5.7235C7.172 5.1834 7.9746 4.88 8.8116 4.88H23.0127C23.8497 4.88 24.6524 5.1834 25.2442 5.7235C25.8361 6.2636 26.1686 6.9962 26.1686 7.76V10.64Z" stroke="#272D30" stroke-width="3.04"/>
</g>
</svg>
