<svg width="86" height="86" viewBox="0 0 86 86" fill="none" xmlns="http://www.w3.org/2000/svg">
<rect x="0.767857" y="0.767857" width="84.4643" height="84.4643" rx="42.2321" fill="#EBF5FF" stroke="#DDDDDD" stroke-width="1.53571"/>
<path d="M54.6666 33.4375C54.6032 33.3125 54.4763 33.1875 54.3494 33.0625L49.9718 28.6875C49.7815 28.5625 49.6546 28.4375 49.4643 28.375C49.0836 28.1875 48.703 28.0625 48.2589 28H33.6036C32.1444 28 30.939 29.1875 31.0024 30.625V55.375C31.0024 56.8125 32.2078 58 33.6036 58H52.3827C53.8419 58 55.0473 56.8125 54.9838 55.375V34.75C55.0473 34.3125 54.9204 33.875 54.6666 33.4375ZM39.6941 52.9375C38.8693 52.9375 38.2349 52.3125 38.2349 51.5C38.2349 50.6875 38.8693 50.0625 39.6941 50.0625C40.5188 50.0625 41.1533 50.6875 41.1533 51.5C41.1533 52.3125 40.5188 52.9375 39.6941 52.9375ZM46.9266 52.9375C46.1018 52.9375 45.4674 52.3125 45.4674 51.5C45.4674 50.6875 46.1018 50.0625 46.9266 50.0625C47.7513 50.0625 48.3858 50.6875 48.3858 51.5C48.3858 52.3125 47.7513 52.9375 46.9266 52.9375ZM49.7181 41.1875L47.1169 45.8125C46.8631 46.25 46.3556 46.5625 45.848 46.5625H40.4554L39.821 47.75V47.8125C39.821 47.9375 39.8844 48 40.0113 48H48.3858C48.7664 48 49.0836 48.3125 49.0836 48.6875C49.0836 49.0625 48.7664 49.375 48.3858 49.375H39.6941C38.8693 49.375 38.2349 48.75 38.2349 47.9375C38.2349 47.6875 38.2983 47.4375 38.4252 47.25L39.3769 45.5L36.7757 40.125H35.3165C34.9359 40.125 34.6186 39.8125 34.6186 39.4375C34.6186 39.0625 34.9359 38.75 35.3165 38.75H37.0929H37.1564H37.7273L38.4252 40.1875H49.0836C49.4643 40.1875 49.7815 40.5 49.7815 40.875C49.845 41 49.7815 41.0625 49.7181 41.1875ZM48.5127 34.625V30.25L52.9537 34.625H48.5127Z" fill="#00A353"/>
</svg>
