<svg width="91" height="91" viewBox="0 0 91 91" fill="none" xmlns="http://www.w3.org/2000/svg">
<g clip-path="url(#clip0_621_3489)">
<path d="M45.5 90.8873C70.3528 90.8873 90.5 70.7401 90.5 45.8873C90.5 21.0345 70.3528 0.887299 45.5 0.887299C20.6472 0.887299 0.5 21.0345 0.5 45.8873C0.5 70.7401 20.6472 90.8873 45.5 90.8873Z" fill="#F0F4F6"/>
<path d="M42.3333 38.7857C41.6305 38.7857 41.0476 39.3686 41.0476 40.0714V48.1114C41.0476 48.7114 41.3562 49.26 41.8533 49.5686L48.0933 53.4086C48.3707 53.5768 48.7035 53.628 49.0185 53.5508C49.3336 53.4737 49.6051 53.2745 49.7733 52.9972C49.9415 52.7198 49.9927 52.387 49.9156 52.0719C49.8384 51.7569 49.6392 51.4854 49.3619 51.3172L43.619 47.8714V40.0714C43.619 39.3686 43.0362 38.7857 42.3333 38.7857Z" fill="#00A353"/>
<path d="M54.6247 45.6429C54.8831 47.3468 54.7692 49.0865 54.2907 50.7421C53.8123 52.3978 52.9807 53.93 51.8532 55.2334C50.7258 56.5369 49.3292 57.5804 47.7598 58.2923C46.1903 59.0042 44.4852 59.3675 42.7618 59.3572C36.0761 59.3572 30.7618 54.0429 30.7618 47.3572C30.7618 40.6715 36.0761 35.3572 42.7618 35.3572C43.9618 35.3572 45.1104 35.5286 46.1904 35.8544V32.3229C45.0933 32.0658 43.9447 31.9286 42.7618 31.9286C34.1904 31.9286 27.3333 38.7858 27.3333 47.3572C27.3333 55.9286 34.1904 62.7858 42.7618 62.7858C44.935 62.7948 47.0854 62.3427 49.0709 61.4594C51.0565 60.5761 52.8321 59.2816 54.2805 57.6615C55.729 56.0413 56.8172 54.1324 57.4735 52.0606C58.1297 49.9889 58.339 47.8015 58.0876 45.6429H54.6247Z" fill="#00A353"/>
<path d="M61.6189 33.6429H58.1903V30.2143C58.1903 29.2714 57.4189 28.5 56.476 28.5C55.5332 28.5 54.7618 29.2714 54.7618 30.2143V33.6429H51.3332C50.3903 33.6429 49.6189 34.4143 49.6189 35.3571C49.6189 36.3 50.3903 37.0714 51.3332 37.0714H54.7618V40.5C54.7618 41.4429 55.5332 42.2143 56.476 42.2143C57.4189 42.2143 58.1903 41.4429 58.1903 40.5V37.0714H61.6189C62.5618 37.0714 63.3332 36.3 63.3332 35.3571C63.3332 34.4143 62.5618 33.6429 61.6189 33.6429Z" fill="#00A353"/>
</g>
<defs>
<clipPath id="clip0_621_3489">
<rect width="91" height="91" fill="white"/>
</clipPath>
</defs>
</svg>
