<svg width="30" height="37" viewBox="0 0 30 37" fill="none" xmlns="http://www.w3.org/2000/svg">
<path d="M29.5833 6.70625C29.504 6.55208 29.3454 6.39792 29.1868 6.24375L23.7148 0.847917C23.4769 0.69375 23.3183 0.539583 23.0804 0.4625C22.6045 0.23125 22.1288 0.0770833 21.5736 0H3.25449C1.43049 0 -0.07626 1.46458 0.00299009 3.2375V33.7625C0.00299009 35.5354 1.50974 37 3.25449 37H26.7284C28.5524 37 30.0591 35.5354 29.9798 33.7625V8.325C30.0591 7.78542 29.9005 7.24583 29.5833 6.70625ZM10.8676 30.7563C9.83662 30.7563 9.04362 29.9854 9.04362 28.9833C9.04362 27.9813 9.83662 27.2104 10.8676 27.2104C11.8985 27.2104 12.6916 27.9813 12.6916 28.9833C12.6916 29.9854 11.8985 30.7563 10.8676 30.7563ZM19.9083 30.7563C18.8773 30.7563 18.0843 29.9854 18.0843 28.9833C18.0843 27.9813 18.8773 27.2104 19.9083 27.2104C20.9391 27.2104 21.7323 27.9813 21.7323 28.9833C21.7323 29.9854 20.9391 30.7563 19.9083 30.7563ZM23.3976 16.2646L20.1461 21.9688C19.8289 22.5083 19.1945 22.8938 18.56 22.8938H11.8192L11.0262 24.3583V24.4354C11.0262 24.5896 11.1055 24.6667 11.2641 24.6667H21.7323C22.208 24.6667 22.6045 25.0521 22.6045 25.5146C22.6045 25.9771 22.208 26.3625 21.7323 26.3625H10.8676C9.83662 26.3625 9.04362 25.5917 9.04362 24.5896C9.04362 24.2813 9.12287 23.9729 9.2815 23.7417L10.4711 21.5833L7.21962 14.9542H5.39562C4.91987 14.9542 4.52324 14.5688 4.52324 14.1063C4.52324 13.6438 4.91987 13.2583 5.39562 13.2583H7.61612H7.6955H8.40912L9.2815 15.0313H22.6045C23.0804 15.0313 23.4769 15.4167 23.4769 15.8792C23.5563 16.0333 23.4769 16.1104 23.3976 16.2646ZM21.8909 8.17083V2.775L27.4421 8.17083H21.8909Z" fill="#272D30"/>
</svg>
