<svg width="37" height="35" viewBox="0 0 37 35" fill="none" xmlns="http://www.w3.org/2000/svg">
<path d="M15.3333 10.7857C14.6305 10.7857 14.0476 11.3686 14.0476 12.0714V20.1114C14.0476 20.7114 14.3562 21.26 14.8533 21.5686L21.0933 25.4086C21.3707 25.5768 21.7035 25.628 22.0185 25.5508C22.3336 25.4737 22.6051 25.2745 22.7733 24.9972C22.9415 24.7198 22.9927 24.387 22.9156 24.0719C22.8384 23.7569 22.6392 23.4854 22.3619 23.3172L16.619 19.8714V12.0714C16.619 11.3686 16.0362 10.7857 15.3333 10.7857Z" fill="#272D30"/>
<path d="M27.6247 17.6429C27.8831 19.3468 27.7692 21.0865 27.2907 22.7421C26.8123 24.3978 25.9807 25.93 24.8532 27.2334C23.7258 28.5369 22.3292 29.5804 20.7598 30.2923C19.1903 31.0042 17.4852 31.3675 15.7618 31.3572C9.07611 31.3572 3.76181 26.0429 3.76181 19.3572C3.76181 12.6715 9.07611 7.3572 15.7618 7.3572C16.9618 7.3572 18.1104 7.5286 19.1904 7.8544V4.3229C18.0933 4.0658 16.9447 3.9286 15.7618 3.9286C7.19041 3.9286 0.333313 10.7858 0.333313 19.3572C0.333313 27.9286 7.19041 34.7858 15.7618 34.7858C17.935 34.7948 20.0854 34.3427 22.0709 33.4594C24.0565 32.5761 25.8321 31.2816 27.2805 29.6615C28.729 28.0413 29.8172 26.1324 30.4735 24.0606C31.1297 21.9889 31.339 19.8015 31.0876 17.6429H27.6247Z" fill="#272D30"/>
<path d="M34.6189 5.6429H31.1903V2.2143C31.1903 1.2714 30.4189 0.5 29.476 0.5C28.5332 0.5 27.7618 1.2714 27.7618 2.2143V5.6429H24.3332C23.3903 5.6429 22.6189 6.4143 22.6189 7.3571C22.6189 8.3 23.3903 9.0714 24.3332 9.0714H27.7618V12.5C27.7618 13.4429 28.5332 14.2143 29.476 14.2143C30.4189 14.2143 31.1903 13.4429 31.1903 12.5V9.0714H34.6189C35.5618 9.0714 36.3332 8.3 36.3332 7.3571C36.3332 6.4143 35.5618 5.6429 34.6189 5.6429Z" fill="#272D30"/>
</svg>
