<svg width="38" height="25" viewBox="0 0 38 25" fill="none" xmlns="http://www.w3.org/2000/svg">
<path d="M19.7917 12.4219C20.5569 11.5885 21.1444 10.638 21.5539 9.57031C21.9624 8.5026 22.1667 7.39583 22.1667 6.25C22.1667 5.10417 21.9624 3.9974 21.5539 2.92969C21.1444 1.86198 20.5569 0.911459 19.7917 0.0781258C21.375 0.286459 22.6944 0.976562 23.75 2.14844C24.8056 3.32031 25.3333 4.6875 25.3333 6.25C25.3333 7.8125 24.8056 9.17969 23.75 10.3516C22.6944 11.5234 21.375 12.2135 19.7917 12.4219ZM28.5 25V20.3125C28.5 19.375 28.2889 18.4833 27.8667 17.6375C27.4444 16.7906 26.8903 16.0417 26.2042 15.3906C27.55 15.8594 28.7971 16.4646 29.9456 17.2063C31.093 17.949 31.6667 18.9844 31.6667 20.3125V25H28.5ZM31.6667 14.0625V10.9375H28.5V7.8125H31.6667V4.6875H34.8333V7.8125H38V10.9375H34.8333V14.0625H31.6667ZM12.6667 12.5C10.925 12.5 9.43403 11.888 8.19375 10.6641C6.95347 9.44011 6.33333 7.96875 6.33333 6.25C6.33333 4.53125 6.95347 3.0599 8.19375 1.83594C9.43403 0.61198 10.925 0 12.6667 0C14.4083 0 15.8993 0.61198 17.1396 1.83594C18.3799 3.0599 19 4.53125 19 6.25C19 7.96875 18.3799 9.44011 17.1396 10.6641C15.8993 11.888 14.4083 12.5 12.6667 12.5ZM0 25V20.625C0 19.7396 0.231166 18.9255 0.6935 18.1828C1.15478 17.4411 1.76806 16.875 2.53333 16.4844C4.16944 15.6771 5.83194 15.0714 7.52083 14.6672C9.20972 14.2641 10.925 14.0625 12.6667 14.0625C14.4083 14.0625 16.1236 14.2641 17.8125 14.6672C19.5014 15.0714 21.1639 15.6771 22.8 16.4844C23.5653 16.875 24.1786 17.4411 24.6398 18.1828C25.1022 18.9255 25.3333 19.7396 25.3333 20.625V25H0ZM12.6667 9.375C13.5375 9.375 14.2832 9.06875 14.9039 8.45625C15.5235 7.84479 15.8333 7.10937 15.8333 6.25C15.8333 5.39062 15.5235 4.65521 14.9039 4.04375C14.2832 3.43125 13.5375 3.125 12.6667 3.125C11.7958 3.125 11.0506 3.43125 10.431 4.04375C9.81033 4.65521 9.5 5.39062 9.5 6.25C9.5 7.10937 9.81033 7.84479 10.431 8.45625C11.0506 9.06875 11.7958 9.375 12.6667 9.375ZM3.16667 21.875H22.1667V20.625C22.1667 20.3385 22.0944 20.0781 21.9497 19.8438C21.8041 19.6094 21.6125 19.4271 21.375 19.2969C19.95 18.5938 18.5118 18.0661 17.0604 17.7141C15.609 17.363 14.1444 17.1875 12.6667 17.1875C11.1889 17.1875 9.72431 17.363 8.27292 17.7141C6.82153 18.0661 5.38333 18.5938 3.95833 19.2969C3.72083 19.4271 3.52978 19.6094 3.38517 19.8438C3.2395 20.0781 3.16667 20.3385 3.16667 20.625V21.875Z" fill="#272D30"/>
</svg>
