<svg width="91" height="90" viewBox="0 0 91 90" fill="none" xmlns="http://www.w3.org/2000/svg">
<g clip-path="url(#clip0_621_3480)">
<path d="M45.5 90C70.3528 90 90.5 69.8528 90.5 45C90.5 20.1472 70.3528 0 45.5 0C20.6472 0 0.5 20.1472 0.5 45C0.5 69.8528 20.6472 90 45.5 90Z" fill="#F0F4F6"/>
<mask id="mask0_621_3480" style="mask-type:alpha" maskUnits="userSpaceOnUse" x="30" y="25" width="31" height="40">
<path d="M56.1686 27H35.6558C34.8188 27 34.0161 27.3034 33.4243 27.8435C32.8325 28.3836 32.5 29.1162 32.5 29.88V60.12C32.5 60.8838 32.8325 61.6164 33.4243 62.1565C34.0161 62.6966 34.8188 63 35.6558 63H56.1686C57.0055 63 57.8082 62.6966 58.4 62.1565C58.9919 61.6164 59.3244 60.8838 59.3244 60.12V29.88C59.3244 29.1162 58.9919 28.3836 58.4 27.8435C57.8082 27.3034 57.0055 27 56.1686 27ZM38.0227 48.6C38.3336 48.6001 38.6414 48.6561 38.9287 48.7648C39.2159 48.8734 39.4768 49.0327 39.6966 49.2334C39.9164 49.4341 40.0907 49.6723 40.2096 49.9345C40.3285 50.1967 40.3896 50.4777 40.3895 50.7614C40.3894 51.0452 40.3281 51.3261 40.209 51.5883C40.0899 51.8504 39.9154 52.0885 39.6955 52.2891C39.4756 52.4897 39.2145 52.6487 38.9272 52.7572C38.6399 52.8657 38.332 52.9215 38.0211 52.9214C37.3931 52.9212 36.791 52.6934 36.3471 52.2881C35.9033 51.8827 35.654 51.3331 35.6542 50.76C35.6544 50.1869 35.9041 49.6374 36.3483 49.2324C36.7924 48.8273 37.3947 48.5998 38.0227 48.6ZM35.6558 43.56C35.656 42.9869 35.9057 42.4374 36.3498 42.0324C36.794 41.6273 37.3963 41.3998 38.0242 41.4C38.6522 41.4002 39.2543 41.628 39.6982 42.0334C40.1421 42.4387 40.3913 42.9884 40.3911 43.5614C40.3909 44.1345 40.1412 44.684 39.6971 45.0891C39.2529 45.4942 38.6506 45.7216 38.0227 45.7214C37.3947 45.7213 36.7926 45.4934 36.3487 45.0881C35.9048 44.6827 35.6556 44.1331 35.6558 43.56ZM45.9122 60.12H38.0227C37.3949 60.12 36.7929 59.8924 36.349 59.4874C35.9052 59.0823 35.6558 58.5329 35.6558 57.96C35.6558 57.3871 35.9052 56.8377 36.349 56.4327C36.7929 56.0276 37.3949 55.8 38.0227 55.8H45.9122C46.5399 55.8 47.1419 56.0276 47.5858 56.4327C48.0297 56.8377 48.279 57.3871 48.279 57.96C48.279 58.5329 48.0297 59.0823 47.5858 59.4874C47.1419 59.8924 46.5399 60.12 45.9122 60.12ZM45.9122 52.92C45.6013 52.9199 45.2934 52.8639 45.0062 52.7553C44.719 52.6466 44.458 52.4873 44.2382 52.2866C44.0185 52.0859 43.8441 51.8477 43.7252 51.5855C43.6064 51.3233 43.5452 51.0423 43.5453 50.7586C43.5454 50.4748 43.6068 50.1939 43.7259 49.9317C43.8449 49.6696 44.0194 49.4315 44.2394 49.2309C44.4593 49.0303 44.7203 48.8713 45.0076 48.7628C45.2949 48.6543 45.6028 48.5985 45.9138 48.5986C46.5417 48.5988 47.1438 48.8266 47.5877 49.2319C48.0316 49.6373 48.2808 50.1869 48.2806 50.76C48.2804 51.3331 48.0308 51.8826 47.5866 52.2876C47.1424 52.6927 46.5401 52.9202 45.9122 52.92ZM45.9122 45.72C45.2842 45.7198 44.6821 45.492 44.2382 45.0866C43.7944 44.6813 43.5451 44.1316 43.5453 43.5586C43.5455 42.9855 43.7952 42.436 44.2394 42.0309C44.6835 41.6258 45.2858 41.3984 45.9138 41.3986C46.5417 41.3988 47.1438 41.6266 47.5877 42.0319C48.0316 42.4373 48.2808 42.9869 48.2806 43.56C48.2804 44.1331 48.0308 44.6826 47.5866 45.0876C47.1424 45.4927 46.5401 45.7202 45.9122 45.72ZM53.8017 60.12C53.1738 60.1198 52.5716 59.892 52.1278 59.4866C51.6839 59.0813 51.4346 58.5316 51.4348 57.9586C51.4351 57.3855 51.6847 56.836 52.1289 56.4309C52.573 56.0258 53.1753 55.7984 53.8033 55.7986C54.1142 55.7987 54.4221 55.8546 54.7093 55.9633C54.9965 56.072 55.2574 56.2312 55.4772 56.4319C55.697 56.6326 55.8713 56.8709 55.9902 57.1331C56.1091 57.3953 56.1702 57.6763 56.1701 57.96C56.17 58.2438 56.1087 58.5247 55.9896 58.7868C55.8705 59.0489 55.696 59.2871 55.4761 59.4877C55.2562 59.6882 54.9951 59.8473 54.7078 59.9558C54.4205 60.0643 54.1126 60.1201 53.8017 60.12ZM53.8017 52.92C53.4908 52.9199 53.1829 52.8639 52.8957 52.7553C52.6085 52.6466 52.3475 52.4873 52.1278 52.2866C51.908 52.0859 51.7337 51.8477 51.6148 51.5855C51.4959 51.3233 51.4347 51.0423 51.4348 50.7586C51.4349 50.4748 51.4963 50.1939 51.6154 49.9317C51.7345 49.6696 51.9089 49.4315 52.1289 49.2309C52.3488 49.0303 52.6099 48.8713 52.8972 48.7628C53.1845 48.6543 53.4924 48.5985 53.8033 48.5986C54.4312 48.5988 55.0334 48.8266 55.4772 49.2319C55.9211 49.6373 56.1703 50.1869 56.1701 50.76C56.1699 51.3331 55.9203 51.8826 55.4761 52.2876C55.0319 52.6927 54.4296 52.9202 53.8017 52.92ZM53.8017 45.72C53.1738 45.7198 52.5716 45.492 52.1278 45.0866C51.6839 44.6813 51.4346 44.1316 51.4348 43.5586C51.4351 42.9855 51.6847 42.436 52.1289 42.0309C52.573 41.6258 53.1753 41.3984 53.8033 41.3986C54.4312 41.3988 55.0334 41.6266 55.4772 42.0319C55.9211 42.4373 56.1703 42.9869 56.1701 43.56C56.1699 44.1331 55.9203 44.6826 55.4761 45.0876C55.0319 45.4927 54.4296 45.7202 53.8017 45.72ZM56.1686 35.64C56.1686 36.4038 55.8361 37.1364 55.2442 37.6765C54.6524 38.2166 53.8497 38.52 53.0127 38.52H38.8116C37.9746 38.52 37.172 38.2166 36.5801 37.6765C35.9883 37.1364 35.6558 36.4038 35.6558 35.64V32.76C35.6558 31.9962 35.9883 31.2636 36.5801 30.7235C37.172 30.1834 37.9746 29.88 38.8116 29.88H53.0127C53.8497 29.88 54.6524 30.1834 55.2442 30.7235C55.8361 31.2636 56.1686 31.9962 56.1686 32.76V35.64Z" stroke="#00A353" stroke-width="3.04"/>
</mask>
<g mask="url(#mask0_621_3480)">
<path d="M56.1686 27H35.6558C34.8188 27 34.0161 27.3034 33.4243 27.8435C32.8325 28.3836 32.5 29.1162 32.5 29.88V60.12C32.5 60.8838 32.8325 61.6164 33.4243 62.1565C34.0161 62.6966 34.8188 63 35.6558 63H56.1686C57.0055 63 57.8082 62.6966 58.4 62.1565C58.9919 61.6164 59.3244 60.8838 59.3244 60.12V29.88C59.3244 29.1162 58.9919 28.3836 58.4 27.8435C57.8082 27.3034 57.0055 27 56.1686 27ZM38.0227 48.6C38.3336 48.6001 38.6414 48.6561 38.9287 48.7648C39.2159 48.8734 39.4768 49.0327 39.6966 49.2334C39.9164 49.4341 40.0907 49.6723 40.2096 49.9345C40.3285 50.1967 40.3896 50.4777 40.3895 50.7614C40.3894 51.0452 40.3281 51.3261 40.209 51.5883C40.0899 51.8504 39.9154 52.0885 39.6955 52.2891C39.4756 52.4897 39.2145 52.6487 38.9272 52.7572C38.6399 52.8657 38.332 52.9215 38.0211 52.9214C37.3931 52.9212 36.791 52.6934 36.3471 52.2881C35.9033 51.8827 35.654 51.3331 35.6542 50.76C35.6544 50.1869 35.9041 49.6374 36.3483 49.2324C36.7924 48.8273 37.3947 48.5998 38.0227 48.6ZM35.6558 43.56C35.656 42.9869 35.9057 42.4374 36.3498 42.0324C36.794 41.6273 37.3963 41.3998 38.0242 41.4C38.6522 41.4002 39.2543 41.628 39.6982 42.0334C40.1421 42.4387 40.3913 42.9884 40.3911 43.5614C40.3909 44.1345 40.1412 44.684 39.6971 45.0891C39.2529 45.4942 38.6506 45.7216 38.0227 45.7214C37.3947 45.7213 36.7926 45.4934 36.3487 45.0881C35.9048 44.6827 35.6556 44.1331 35.6558 43.56ZM45.9122 60.12H38.0227C37.3949 60.12 36.7929 59.8924 36.349 59.4874C35.9052 59.0823 35.6558 58.5329 35.6558 57.96C35.6558 57.3871 35.9052 56.8377 36.349 56.4327C36.7929 56.0276 37.3949 55.8 38.0227 55.8H45.9122C46.5399 55.8 47.1419 56.0276 47.5858 56.4327C48.0297 56.8377 48.279 57.3871 48.279 57.96C48.279 58.5329 48.0297 59.0823 47.5858 59.4874C47.1419 59.8924 46.5399 60.12 45.9122 60.12ZM45.9122 52.92C45.6013 52.9199 45.2934 52.8639 45.0062 52.7553C44.719 52.6466 44.458 52.4873 44.2382 52.2866C44.0185 52.0859 43.8441 51.8477 43.7252 51.5855C43.6064 51.3233 43.5452 51.0423 43.5453 50.7586C43.5454 50.4748 43.6068 50.1939 43.7259 49.9317C43.8449 49.6696 44.0194 49.4315 44.2394 49.2309C44.4593 49.0303 44.7203 48.8713 45.0076 48.7628C45.2949 48.6543 45.6028 48.5985 45.9138 48.5986C46.5417 48.5988 47.1438 48.8266 47.5877 49.2319C48.0316 49.6373 48.2808 50.1869 48.2806 50.76C48.2804 51.3331 48.0308 51.8826 47.5866 52.2876C47.1424 52.6927 46.5401 52.9202 45.9122 52.92ZM45.9122 45.72C45.2842 45.7198 44.6821 45.492 44.2382 45.0866C43.7944 44.6813 43.5451 44.1316 43.5453 43.5586C43.5455 42.9855 43.7952 42.436 44.2394 42.0309C44.6835 41.6258 45.2858 41.3984 45.9138 41.3986C46.5417 41.3988 47.1438 41.6266 47.5877 42.0319C48.0316 42.4373 48.2808 42.9869 48.2806 43.56C48.2804 44.1331 48.0308 44.6826 47.5866 45.0876C47.1424 45.4927 46.5401 45.7202 45.9122 45.72ZM53.8017 60.12C53.1738 60.1198 52.5716 59.892 52.1278 59.4866C51.6839 59.0813 51.4346 58.5316 51.4348 57.9586C51.4351 57.3855 51.6847 56.836 52.1289 56.4309C52.573 56.0258 53.1753 55.7984 53.8033 55.7986C54.1142 55.7987 54.4221 55.8546 54.7093 55.9633C54.9965 56.072 55.2574 56.2312 55.4772 56.4319C55.697 56.6326 55.8713 56.8709 55.9902 57.1331C56.1091 57.3953 56.1702 57.6763 56.1701 57.96C56.17 58.2438 56.1087 58.5247 55.9896 58.7868C55.8705 59.0489 55.696 59.2871 55.4761 59.4877C55.2562 59.6882 54.9951 59.8473 54.7078 59.9558C54.4205 60.0643 54.1126 60.1201 53.8017 60.12ZM53.8017 52.92C53.4908 52.9199 53.1829 52.8639 52.8957 52.7553C52.6085 52.6466 52.3475 52.4873 52.1278 52.2866C51.908 52.0859 51.7337 51.8477 51.6148 51.5855C51.4959 51.3233 51.4347 51.0423 51.4348 50.7586C51.4349 50.4748 51.4963 50.1939 51.6154 49.9317C51.7345 49.6696 51.9089 49.4315 52.1289 49.2309C52.3488 49.0303 52.6099 48.8713 52.8972 48.7628C53.1845 48.6543 53.4924 48.5985 53.8033 48.5986C54.4312 48.5988 55.0334 48.8266 55.4772 49.2319C55.9211 49.6373 56.1703 50.1869 56.1701 50.76C56.1699 51.3331 55.9203 51.8826 55.4761 52.2876C55.0319 52.6927 54.4296 52.9202 53.8017 52.92ZM53.8017 45.72C53.1738 45.7198 52.5716 45.492 52.1278 45.0866C51.6839 44.6813 51.4346 44.1316 51.4348 43.5586C51.4351 42.9855 51.6847 42.436 52.1289 42.0309C52.573 41.6258 53.1753 41.3984 53.8033 41.3986C54.4312 41.3988 55.0334 41.6266 55.4772 42.0319C55.9211 42.4373 56.1703 42.9869 56.1701 43.56C56.1699 44.1331 55.9203 44.6826 55.4761 45.0876C55.0319 45.4927 54.4296 45.7202 53.8017 45.72ZM56.1686 35.64C56.1686 36.4038 55.8361 37.1364 55.2442 37.6765C54.6524 38.2166 53.8497 38.52 53.0127 38.52H38.8116C37.9746 38.52 37.172 38.2166 36.5801 37.6765C35.9883 37.1364 35.6558 36.4038 35.6558 35.64V32.76C35.6558 31.9962 35.9883 31.2636 36.5801 30.7235C37.172 30.1834 37.9746 29.88 38.8116 29.88H53.0127C53.8497 29.88 54.6524 30.1834 55.2442 30.7235C55.8361 31.2636 56.1686 31.9962 56.1686 32.76V35.64Z" stroke="#00A353" stroke-width="3.04"/>
</g>
</g>
<defs>
<clipPath id="clip0_621_3480">
<rect width="91" height="90" fill="white"/>
</clipPath>
</defs>
</svg>
