<svg width="91" height="91" viewBox="0 0 91 91" fill="none" xmlns="http://www.w3.org/2000/svg">
<g clip-path="url(#clip0_621_3486)">
<path d="M45.5 90.8873C70.3528 90.8873 90.5 70.7401 90.5 45.8873C90.5 21.0345 70.3528 0.887299 45.5 0.887299C20.6472 0.887299 0.5 21.0345 0.5 45.8873C0.5 70.7401 20.6472 90.8873 45.5 90.8873Z" fill="#F0F4F6"/>
<path d="M45.6001 31.5714C44.9181 31.5714 44.2641 31.8423 43.7818 32.3246C43.2996 32.8068 43.0287 33.4609 43.0287 34.1429C43.0287 34.8248 43.2996 35.4789 43.7818 35.9611C44.2641 36.4434 44.9181 36.7143 45.6001 36.7143C46.2821 36.7143 46.9361 36.4434 47.4184 35.9611C47.9006 35.4789 48.1715 34.8248 48.1715 34.1429C48.1715 33.4609 47.9006 32.8068 47.4184 32.3246C46.9361 31.8423 46.2821 31.5714 45.6001 31.5714ZM40.4572 34.1429C40.4572 32.7789 40.9991 31.4708 41.9635 30.5063C42.928 29.5418 44.2361 29 45.6001 29C46.9641 29 48.2722 29.5418 49.2366 30.5063C50.2011 31.4708 50.743 32.7789 50.743 34.1429C50.743 35.5068 50.2011 36.8149 49.2366 37.7794C48.2722 38.7439 46.9641 39.2857 45.6001 39.2857C44.2361 39.2857 42.928 38.7439 41.9635 37.7794C40.9991 36.8149 40.4572 35.5068 40.4572 34.1429ZM57.8144 32.8571C57.3029 32.8571 56.8124 33.0603 56.4507 33.422C56.089 33.7837 55.8858 34.2742 55.8858 34.7857C55.8858 35.2972 56.089 35.7877 56.4507 36.1494C56.8124 36.5111 57.3029 36.7143 57.8144 36.7143C58.3259 36.7143 58.8164 36.5111 59.1781 36.1494C59.5398 35.7877 59.743 35.2972 59.743 34.7857C59.743 34.2742 59.5398 33.7837 59.1781 33.422C58.8164 33.0603 58.3259 32.8571 57.8144 32.8571ZM53.3144 34.7857C53.3144 34.1948 53.4308 33.6096 53.6569 33.0636C53.8831 32.5177 54.2145 32.0216 54.6324 31.6037C55.0503 31.1859 55.5463 30.8544 56.0923 30.6283C56.6383 30.4021 57.2234 30.2857 57.8144 30.2857C58.4053 30.2857 58.9905 30.4021 59.5365 30.6283C60.0824 30.8544 60.5785 31.1859 60.9964 31.6037C61.4142 32.0216 61.7457 32.5177 61.9718 33.0636C62.198 33.6096 62.3144 34.1948 62.3144 34.7857C62.3144 35.9792 61.8403 37.1238 60.9964 37.9677C60.1525 38.8116 59.0079 39.2857 57.8144 39.2857C56.6209 39.2857 55.4763 38.8116 54.6324 37.9677C53.7885 37.1238 53.3144 35.9792 53.3144 34.7857ZM31.4572 34.7857C31.4572 34.2742 31.6604 33.7837 32.0221 33.422C32.3838 33.0603 32.8743 32.8571 33.3858 32.8571C33.8973 32.8571 34.3878 33.0603 34.7495 33.422C35.1112 33.7837 35.3144 34.2742 35.3144 34.7857C35.3144 35.2972 35.1112 35.7877 34.7495 36.1494C34.3878 36.5111 33.8973 36.7143 33.3858 36.7143C32.8743 36.7143 32.3838 36.5111 32.0221 36.1494C31.6604 35.7877 31.4572 35.2972 31.4572 34.7857ZM33.3858 30.2857C32.1923 30.2857 31.0477 30.7598 30.2038 31.6037C29.3599 32.4476 28.8858 33.5922 28.8858 34.7857C28.8858 35.9792 29.3599 37.1238 30.2038 37.9677C31.0477 38.8116 32.1923 39.2857 33.3858 39.2857C34.5793 39.2857 35.7239 38.8116 36.5678 37.9677C37.4117 37.1238 37.8858 35.9792 37.8858 34.7857C37.8858 33.5922 37.4117 32.4476 36.5678 31.6037C35.7239 30.7598 34.5793 30.2857 33.3858 30.2857ZM36.1514 56.6493C35.5699 57.0326 34.8955 57.2512 34.1997 57.2821C33.504 57.313 32.8128 57.1549 32.1997 56.8247C31.5865 56.4945 31.0742 56.0044 30.7171 55.4064C30.36 54.8085 30.1715 54.125 30.1715 53.4286V45.0714C30.1715 44.9009 30.2393 44.7374 30.3598 44.6169C30.4804 44.4963 30.6439 44.4286 30.8144 44.4286H35.9971C36.1144 43.4872 36.491 42.5969 37.0848 41.8571H30.8144C29.9619 41.8571 29.1443 42.1958 28.5415 42.7986C27.9387 43.4014 27.6001 44.2189 27.6001 45.0714V53.4286C27.5998 54.5357 27.8853 55.6241 28.4292 56.5884C28.973 57.5527 29.7566 58.3602 30.7042 58.9327C31.6518 59.5052 32.7311 59.8233 33.8377 59.8562C34.9443 59.8891 36.0406 59.6357 37.0205 59.1204C36.619 58.3404 36.3265 57.5089 36.1514 56.6493ZM54.1797 59.1204C55.1596 59.6357 56.2559 59.8891 57.3625 59.8562C58.4691 59.8233 59.5484 59.5052 60.496 58.9327C61.4435 58.3602 62.2272 57.5527 62.771 56.5884C63.3149 55.6241 63.6004 54.5357 63.6001 53.4286V45.0714C63.6001 44.2189 63.2615 43.4014 62.6587 42.7986C62.0559 42.1958 61.2383 41.8571 60.3858 41.8571H54.1154C54.7087 42.5972 55.0852 43.4874 55.2031 44.4286H60.3858C60.5563 44.4286 60.7198 44.4963 60.8404 44.6169C60.9609 44.7374 61.0287 44.9009 61.0287 45.0714V53.4286C61.0287 54.125 60.8402 54.8085 60.4831 55.4064C60.126 56.0044 59.6137 56.4945 59.0005 56.8247C58.3874 57.1549 57.6962 57.313 57.0005 57.2821C56.3047 57.2512 55.6303 57.0326 55.0488 56.6493C54.8737 57.5089 54.5812 58.3404 54.1797 59.1204ZM41.1001 41.8571C40.2476 41.8571 39.43 42.1958 38.8273 42.7986C38.2245 43.4014 37.8858 44.2189 37.8858 45.0714V54.7143C37.8858 56.7602 38.6986 58.7224 40.1453 60.1691C41.592 61.6158 43.5541 62.4286 45.6001 62.4286C47.6461 62.4286 49.6082 61.6158 51.0549 60.1691C52.5016 58.7224 53.3144 56.7602 53.3144 54.7143V45.0714C53.3144 44.2189 52.9757 43.4014 52.3729 42.7986C51.7701 42.1958 50.9526 41.8571 50.1001 41.8571H41.1001ZM40.4572 45.0714C40.4572 44.9009 40.525 44.7374 40.6455 44.6169C40.7661 44.4963 40.9296 44.4286 41.1001 44.4286H50.1001C50.2706 44.4286 50.4341 44.4963 50.5547 44.6169C50.6752 44.7374 50.743 44.9009 50.743 45.0714V54.7143C50.743 56.0783 50.2011 57.3864 49.2366 58.3508C48.2722 59.3153 46.9641 59.8571 45.6001 59.8571C44.2361 59.8571 42.928 59.3153 41.9635 58.3508C40.9991 57.3864 40.4572 56.0783 40.4572 54.7143V45.0714Z" fill="#00A353"/>
</g>
<defs>
<clipPath id="clip0_621_3486">
<rect width="91" height="91" fill="white"/>
</clipPath>
</defs>
</svg>
