<svg width="37" height="34" viewBox="0 0 37 34" fill="none" xmlns="http://www.w3.org/2000/svg">
<path d="M18.6001 2.5714C17.9181 2.5714 17.2641 2.8423 16.7818 3.3246C16.2996 3.8068 16.0287 4.4609 16.0287 5.1429C16.0287 5.8248 16.2996 6.4789 16.7818 6.9611C17.2641 7.4434 17.9181 7.7143 18.6001 7.7143C19.2821 7.7143 19.9361 7.4434 20.4184 6.9611C20.9006 6.4789 21.1715 5.8248 21.1715 5.1429C21.1715 4.4609 20.9006 3.8068 20.4184 3.3246C19.9361 2.8423 19.2821 2.5714 18.6001 2.5714ZM13.4572 5.1429C13.4572 3.7789 13.9991 2.4708 14.9635 1.5063C15.928 0.5418 17.2361 0 18.6001 0C19.9641 0 21.2722 0.5418 22.2366 1.5063C23.2011 2.4708 23.743 3.7789 23.743 5.1429C23.743 6.5068 23.2011 7.8149 22.2366 8.7794C21.2722 9.7439 19.9641 10.2857 18.6001 10.2857C17.2361 10.2857 15.928 9.7439 14.9635 8.7794C13.9991 7.8149 13.4572 6.5068 13.4572 5.1429ZM30.8144 3.8571C30.3029 3.8571 29.8124 4.0603 29.4507 4.422C29.089 4.7837 28.8858 5.2742 28.8858 5.7857C28.8858 6.2972 29.089 6.7877 29.4507 7.1494C29.8124 7.5111 30.3029 7.7143 30.8144 7.7143C31.3259 7.7143 31.8164 7.5111 32.1781 7.1494C32.5398 6.7877 32.743 6.2972 32.743 5.7857C32.743 5.2742 32.5398 4.7837 32.1781 4.422C31.8164 4.0603 31.3259 3.8571 30.8144 3.8571ZM26.3144 5.7857C26.3144 5.1948 26.4308 4.6096 26.6569 4.0636C26.8831 3.5177 27.2145 3.0216 27.6324 2.6037C28.0503 2.1859 28.5463 1.8544 29.0923 1.6283C29.6383 1.4021 30.2234 1.2857 30.8144 1.2857C31.4053 1.2857 31.9905 1.4021 32.5365 1.6283C33.0824 1.8544 33.5785 2.1859 33.9964 2.6037C34.4142 3.0216 34.7457 3.5177 34.9718 4.0636C35.198 4.6096 35.3144 5.1948 35.3144 5.7857C35.3144 6.9792 34.8403 8.1238 33.9964 8.9677C33.1525 9.8116 32.0079 10.2857 30.8144 10.2857C29.6209 10.2857 28.4763 9.8116 27.6324 8.9677C26.7885 8.1238 26.3144 6.9792 26.3144 5.7857ZM4.4572 5.7857C4.4572 5.2742 4.6604 4.7837 5.0221 4.422C5.3838 4.0603 5.8743 3.8571 6.3858 3.8571C6.8973 3.8571 7.3878 4.0603 7.7495 4.422C8.1112 4.7837 8.3144 5.2742 8.3144 5.7857C8.3144 6.2972 8.1112 6.7877 7.7495 7.1494C7.3878 7.5111 6.8973 7.7143 6.3858 7.7143C5.8743 7.7143 5.3838 7.5111 5.0221 7.1494C4.6604 6.7877 4.4572 6.2972 4.4572 5.7857ZM6.3858 1.2857C5.1923 1.2857 4.0477 1.7598 3.2038 2.6037C2.3599 3.4476 1.8858 4.5922 1.8858 5.7857C1.8858 6.9792 2.3599 8.1238 3.2038 8.9677C4.0477 9.8116 5.1923 10.2857 6.3858 10.2857C7.5793 10.2857 8.7239 9.8116 9.5678 8.9677C10.4117 8.1238 10.8858 6.9792 10.8858 5.7857C10.8858 4.5922 10.4117 3.4476 9.5678 2.6037C8.7239 1.7598 7.5793 1.2857 6.3858 1.2857ZM9.1514 27.6493C8.5699 28.0326 7.8955 28.2512 7.1997 28.2821C6.504 28.313 5.8128 28.1549 5.1997 27.8247C4.5865 27.4945 4.0742 27.0044 3.7171 26.4064C3.36 25.8085 3.1715 25.125 3.1715 24.4286V16.0714C3.1715 15.9009 3.2393 15.7374 3.3598 15.6169C3.4804 15.4963 3.6439 15.4286 3.8144 15.4286H8.9971C9.1144 14.4872 9.491 13.5969 10.0848 12.8571H3.8144C2.9619 12.8571 2.1443 13.1958 1.5415 13.7986C0.938698 14.4014 0.600098 15.2189 0.600098 16.0714V24.4286C0.599798 25.5357 0.885298 26.6241 1.4292 27.5884C1.973 28.5527 2.7566 29.3602 3.7042 29.9327C4.6518 30.5052 5.7311 30.8233 6.8377 30.8562C7.9443 30.8891 9.0406 30.6357 10.0205 30.1204C9.619 29.3404 9.3265 28.5089 9.1514 27.6493ZM27.1797 30.1204C28.1596 30.6357 29.2559 30.8891 30.3625 30.8562C31.4691 30.8233 32.5484 30.5052 33.496 29.9327C34.4435 29.3602 35.2272 28.5527 35.771 27.5884C36.3149 26.6241 36.6004 25.5357 36.6001 24.4286V16.0714C36.6001 15.2189 36.2615 14.4014 35.6587 13.7986C35.0559 13.1958 34.2383 12.8571 33.3858 12.8571H27.1154C27.7087 13.5972 28.0852 14.4874 28.2031 15.4286H33.3858C33.5563 15.4286 33.7198 15.4963 33.8404 15.6169C33.9609 15.7374 34.0287 15.9009 34.0287 16.0714V24.4286C34.0287 25.125 33.8402 25.8085 33.4831 26.4064C33.126 27.0044 32.6137 27.4945 32.0005 27.8247C31.3874 28.1549 30.6962 28.313 30.0005 28.2821C29.3047 28.2512 28.6303 28.0326 28.0488 27.6493C27.8737 28.5089 27.5812 29.3404 27.1797 30.1204ZM14.1001 12.8571C13.2476 12.8571 12.43 13.1958 11.8273 13.7986C11.2245 14.4014 10.8858 15.2189 10.8858 16.0714V25.7143C10.8858 27.7602 11.6986 29.7224 13.1453 31.1691C14.592 32.6158 16.5541 33.4286 18.6001 33.4286C20.6461 33.4286 22.6082 32.6158 24.0549 31.1691C25.5016 29.7224 26.3144 27.7602 26.3144 25.7143V16.0714C26.3144 15.2189 25.9757 14.4014 25.3729 13.7986C24.7701 13.1958 23.9526 12.8571 23.1001 12.8571H14.1001ZM13.4572 16.0714C13.4572 15.9009 13.525 15.7374 13.6455 15.6169C13.7661 15.4963 13.9296 15.4286 14.1001 15.4286H23.1001C23.2706 15.4286 23.4341 15.4963 23.5547 15.6169C23.6752 15.7374 23.743 15.9009 23.743 16.0714V25.7143C23.743 27.0783 23.2011 28.3864 22.2366 29.3508C21.2722 30.3153 19.9641 30.8571 18.6001 30.8571C17.2361 30.8571 15.928 30.3153 14.9635 29.3508C13.9991 28.3864 13.4572 27.0783 13.4572 25.7143V16.0714Z" fill="#272D30"/>
</svg>
