<svg width="26" height="26" viewBox="0 0 26 26" fill="none" xmlns="http://www.w3.org/2000/svg">
<g clip-path="url(#clip0_1:32576)">
<path d="M14.6182 1.22461C14.1688 1.22623 13.8073 1.59105 13.8089 2.04036V11.7871C13.8065 12.0772 13.96 12.3477 14.2103 12.4948L22.6562 17.3698C23.0454 17.5932 23.5418 17.4584 23.7653 17.07C25.6511 13.8029 25.6511 9.77617 23.7653 6.50911C21.8778 3.24124 18.3898 1.22461 14.6182 1.22461ZM15.4339 2.8878C18.2874 3.16567 20.9093 4.80448 22.3605 7.31836C23.8124 9.83305 23.9253 12.9238 22.7383 15.5344L15.4339 11.3191V2.8878ZM11.373 3.6483C6.25184 3.6483 1.85703 7.33298 0.967345 12.3762C0.0776578 17.4194 2.94416 22.3854 7.75578 24.1371C12.5674 25.8889 17.9592 23.9299 20.5193 19.4953C20.7428 19.1061 20.6079 18.6089 20.2195 18.3862L12.1815 13.7428V4.45917C12.1815 4.0123 11.8191 3.64992 11.373 3.6483Z" fill="#0079B3"/>
</g>
<defs>
<clipPath id="clip0_1:32576">
<rect width="26" height="26" fill="white" transform="translate(0.000732422 -0.000488281)"/>
</clipPath>
</defs>
</svg>
