<svg width="33" height="32" viewBox="0 0 33 32" fill="none" xmlns="http://www.w3.org/2000/svg">
<mask id="path-1-inside-1_567_50330" fill="white">
<rect x="7.40088" y="4" width="21.6" height="24" rx="2"/>
</mask>
<rect x="7.40088" y="4" width="21.6" height="24" rx="2" stroke="#272D30" stroke-width="5" mask="url(#path-1-inside-1_567_50330)"/>
<line x1="6.25" y1="21.9453" x2="10.95" y2="21.9453" stroke="#272D30" stroke-width="2.5" stroke-linecap="round"/>
<line x1="6.25" y1="15.9463" x2="10.95" y2="15.9463" stroke="#272D30" stroke-width="2.5" stroke-linecap="round"/>
<line x1="6.25" y1="9.94629" x2="10.95" y2="9.94629" stroke="#272D30" stroke-width="2.5" stroke-linecap="round"/>
<circle cx="18.8148" cy="12.7074" r="2.35" stroke="#272D30" stroke-width="2.5"/>
<path d="M23.2647 20.748L14.0996 20.748C14.1521 20.5553 14.2169 20.3657 14.2937 20.1803C14.5324 19.604 14.8823 19.0804 15.3234 18.6393C15.7644 18.1982 16.2881 17.8483 16.8644 17.6096C17.4407 17.3709 18.0584 17.248 18.6821 17.248C19.3059 17.248 19.9236 17.3709 20.4999 17.6096C21.0762 17.8483 21.5998 18.1982 22.0409 18.6393C22.482 19.0804 22.8318 19.604 23.0706 20.1803L24.1316 19.7408L23.0706 20.1803C23.1473 20.3657 23.2121 20.5553 23.2647 20.748Z" stroke="#272D30" stroke-width="2.5"/>
</svg>
