<svg width="275" height="198" viewBox="0 0 275 198" fill="none" xmlns="http://www.w3.org/2000/svg">
<path d="M195.21 154.581H98.9494C96.9676 154.581 95.3611 156.187 95.3611 158.169V169.315C95.3611 171.296 96.9676 172.903 98.9494 172.903H195.21C197.192 172.903 198.798 171.296 198.798 169.315V158.169C198.798 156.187 197.192 154.581 195.21 154.581Z" fill="url(#paint0_linear_785:4185)"/>
<path d="M220.245 59.4515C219.721 59.2842 219.476 59.1586 219.476 59.1586C219.748 59.0616 220.015 58.9499 220.276 58.8239C224.141 56.9724 230.978 50.5233 238.175 30.8729C245.896 9.78411 257.838 16.4894 257.838 16.4894C251.608 19.4498 252.748 33.4619 243.427 49.6028C235.382 63.5417 223.372 60.5342 220.245 59.4515Z" fill="#609A3E"/>
<path d="M220.245 59.4512C219.721 59.2838 219.476 59.1583 219.476 59.1583C219.748 59.0613 220.015 58.9495 220.276 58.8236C226.244 57.2544 233.619 53.52 237.37 46.0458C240.236 40.3343 244.588 28.43 244.63 28.3097L245.205 28.5189C245.164 28.6392 240.796 40.5801 237.914 46.3021C234.038 54.043 226.37 57.903 220.245 59.4512Z" fill="url(#paint1_linear_785:4185)"/>
<path d="M248.42 63.296C229.245 73.7567 221.095 58.4422 220.478 57.2183L220.441 57.1398C221.012 57.2287 221.576 57.2967 222.126 57.3334C236.887 58.3794 245.664 41.3965 256.042 35.1985C266.785 28.7704 274.982 36.8251 274.982 36.8251C264.793 33.462 268.381 52.4325 248.42 63.296Z" fill="#609A3E"/>
<path d="M233.764 60.4608C228.967 60.6596 224.323 59.1742 220.478 57.2337L220.441 57.1553C221.012 57.2442 221.576 57.3122 222.126 57.3488C225.751 59.07 229.726 59.9275 233.738 59.8541C239.042 59.6292 243.629 57.3174 247.374 52.9814C259.248 39.2308 263.229 40.4286 263.396 40.4809L263.291 40.7686L263.197 41.0615C262.967 41.0144 259.013 40.4652 247.845 53.3842C243.974 57.8457 239.241 60.215 233.764 60.4608Z" fill="url(#paint2_linear_785:4185)"/>
<path d="M231.041 0.1026H63.1194C59.0606 0.1026 55.7703 3.3927 55.7703 7.45125V157.395C55.7703 161.454 59.0606 164.744 63.1194 164.744H231.041C235.1 164.744 238.39 161.454 238.39 157.395V7.45125C238.39 3.3927 235.1 0.1026 231.041 0.1026Z" fill="url(#paint3_linear_785:4185)"/>
<path d="M63.1194 0.652957H231.041C234.796 0.652957 237.84 3.69669 237.84 7.45125V157.395C237.84 161.15 234.796 164.193 231.041 164.193H63.1194C59.3645 164.193 56.3206 161.15 56.3206 157.395V7.45125C56.3206 3.69669 59.3645 0.652957 63.1194 0.652957Z" stroke="black" stroke-opacity="0.06" stroke-width="1.10071"/>
<path d="M95.1046 108.251C96.2085 105.203 96.3187 101.885 95.4194 98.7705C94.5201 95.6565 92.6575 92.9074 90.0988 90.9175C88.1881 89.4321 85.9531 88.4196 83.5763 87.9628C81.1995 87.506 78.7484 87.6177 76.4231 88.2889C74.0978 88.9601 71.9642 90.1717 70.1965 91.8247C68.4288 93.4778 67.0772 95.5255 66.252 97.8006C66.1369 98.1249 66.0323 98.4544 65.9382 98.7787C64.836 102.603 65.2632 106.706 67.1295 110.221C68.9959 113.736 72.1554 116.388 75.9408 117.617C79.7262 118.847 83.8412 118.557 87.417 116.809C90.9928 115.062 93.7493 111.993 95.1046 108.251ZM76.771 113.842C74.0282 112.847 71.7657 110.848 70.4411 108.249C69.1166 105.649 68.8289 102.644 69.6363 99.8404C69.7095 99.5999 69.788 99.354 69.8769 99.1082C70.6519 96.968 72.0443 95.1057 73.8779 93.7568C75.7116 92.408 77.9041 91.6333 80.1781 91.5306C82.4521 91.428 84.7055 92.002 86.6533 93.1802C88.601 94.3583 90.1555 96.0876 91.1202 98.1493C92.0848 100.211 92.4164 102.513 92.0727 104.763C91.7291 107.013 90.7258 109.11 89.1898 110.79C87.6538 112.47 85.654 113.657 83.4434 114.2C81.2328 114.743 78.9108 114.619 76.771 113.842Z" fill="#5BB9E6"/>
<path d="M74.4009 93.4115L72.3086 90.1948C74.9835 88.4572 78.1332 87.5956 81.3202 87.7296C84.5072 87.8637 87.5734 88.9867 90.093 90.9428L87.7549 93.9345C85.8584 92.4726 83.5541 91.6368 81.1613 91.5431C78.7685 91.4494 76.4059 92.1024 74.4009 93.4115Z" fill="#1A598C"/>
<path d="M69.6283 99.8399L65.9409 98.7938C66.0351 98.4695 66.1397 98.14 66.2547 97.8158C67.3888 94.6804 69.5155 92.0009 72.3115 90.1847L74.4036 93.4013C72.3084 94.763 70.7159 96.7724 69.8689 99.1233C69.78 99.3535 69.7015 99.5993 69.6283 99.8399Z" fill="#2273B5"/>
<path d="M65.3365 103.239C65.315 101.73 65.5177 100.227 65.938 98.7777L69.6254 99.8238C69.3122 100.912 69.1607 102.039 69.1756 103.171L65.3365 103.239Z" fill="#3D96E0"/>
<path d="M138.139 105.866C138.562 103.866 138.58 101.802 138.193 99.7953C137.807 97.7884 137.023 95.8789 135.888 94.1791C134.753 92.4793 133.29 91.0233 131.584 89.8968C129.879 88.7704 127.965 87.996 125.956 87.6193C123.948 87.2425 121.884 87.271 119.886 87.703C117.888 88.135 115.997 88.9619 114.323 90.135C112.649 91.3081 111.227 92.8038 110.139 94.5343C109.051 96.2648 108.321 98.1951 107.99 100.212C107.927 100.561 107.874 100.901 107.833 101.232C107.649 102.727 107.69 104.241 107.953 105.725C108.577 109.262 110.422 112.468 113.168 114.785C115.913 117.101 119.384 118.381 122.976 118.4C126.568 118.42 130.054 117.179 132.824 114.894C135.595 112.608 137.476 109.422 138.139 105.892V105.866ZM120.936 114.334C118.64 113.902 116.53 112.781 114.886 111.121C113.243 109.461 112.144 107.34 111.735 105.04C111.537 103.926 111.507 102.789 111.646 101.666C111.677 101.41 111.714 101.143 111.761 100.902C112.181 98.6652 113.256 96.603 114.848 94.9766C116.441 93.3501 118.48 92.2326 120.708 91.7652C122.936 91.2979 125.253 91.5019 127.365 92.3512C129.477 93.2006 131.289 94.6573 132.573 96.5369C133.857 98.4166 134.555 100.635 134.578 102.911C134.6 105.187 133.948 107.419 132.702 109.324C131.456 111.229 129.673 112.722 127.579 113.614C125.484 114.506 123.172 114.756 120.936 114.334Z" fill="#A292FF"/>
<path d="M115.323 94.5212L112.739 91.6811C115.101 89.5364 118.072 88.1796 121.24 87.7991C124.408 87.4186 127.616 88.0332 130.419 89.5576L128.556 92.9312C126.458 91.7827 124.054 91.3167 121.678 91.5979C119.303 91.8792 117.074 92.8936 115.302 94.5003L115.323 94.5212Z" fill="#4B59C7"/>
<path d="M111.643 101.66L107.83 101.205C107.872 100.857 107.924 100.517 107.987 100.185C108.599 96.9083 110.267 93.9216 112.736 91.6808L115.32 94.5209C113.469 96.2006 112.218 98.4397 111.758 100.897C111.711 101.153 111.674 101.404 111.643 101.66Z" fill="#6F5BE0"/>
<path d="M107.953 105.698C107.69 104.214 107.649 102.7 107.833 101.205L111.646 101.66C111.507 102.782 111.537 103.92 111.734 105.033L107.953 105.698Z" fill="#B487FE"/>
<path d="M172.656 89.484C170.877 88.5379 168.929 87.9513 166.924 87.7578C164.919 87.5644 162.895 87.7677 160.968 88.3564C159.041 88.945 157.249 89.9074 155.694 91.1886C154.139 92.4697 152.852 94.0446 151.906 95.8232C150.959 97.6018 150.373 99.5494 150.179 101.555C149.986 103.56 150.189 105.584 150.778 107.511C151.367 109.437 152.329 111.229 153.61 112.784C154.892 114.339 156.467 115.626 158.245 116.572C158.549 116.734 158.857 116.886 159.166 117.022C162.797 118.652 166.919 118.807 170.662 117.455C174.406 116.103 177.477 113.35 179.228 109.776C180.978 106.202 181.272 102.087 180.045 98.3009C178.819 94.5147 176.17 91.3533 172.656 89.484ZM175.601 108.428C174.23 111.002 171.934 112.96 169.175 113.906C166.417 114.851 163.402 114.714 160.74 113.523C160.505 113.418 160.275 113.303 160.045 113.183C158.034 112.115 156.386 110.475 155.308 108.47C154.23 106.465 153.771 104.186 153.988 101.92C154.206 99.6538 155.091 97.5035 156.531 95.7407C157.972 93.9779 159.902 92.6819 162.079 92.0165C164.256 91.3511 166.582 91.3464 168.762 92.0028C170.941 92.6593 172.877 93.9474 174.325 95.7043C175.772 97.4612 176.666 99.6078 176.893 101.873C177.12 104.138 176.671 106.419 175.601 108.428Z" fill="#5BB9E6"/>
<path d="M155.02 107.885L151.537 109.501C150.194 106.607 149.784 103.367 150.366 100.23C150.947 97.0937 152.489 94.2154 154.779 91.9947L157.452 94.7563C155.732 96.42 154.573 98.5786 154.137 100.932C153.701 103.285 154.01 105.715 155.02 107.885Z" fill="#1A598C"/>
<path d="M160.735 113.523L159.166 117.022C158.858 116.886 158.549 116.734 158.246 116.572C155.298 115.011 152.943 112.527 151.541 109.501L155.024 107.885C156.075 110.151 157.838 112.012 160.045 113.183C160.27 113.287 160.5 113.418 160.735 113.523Z" fill="#2273B5"/>
<path d="M163.494 118.247C161.998 118.054 160.539 117.642 159.164 117.023L160.733 113.524C161.763 113.986 162.856 114.295 163.976 114.439L163.494 118.247Z" fill="#3788CC"/>
<path d="M96.0253 125.663H65.3315V128.032H96.0253V125.663Z" fill="#C4C4C4"/>
<path d="M88.2996 130.689H65.3315V133.058H88.2996V130.689Z" fill="#C4C4C4"/>
<path d="M124.635 125.663H107.713V128.032H124.635V125.663Z" fill="#C4C4C4"/>
<path d="M132.836 130.689H107.713V133.058H132.836V130.689Z" fill="#C4C4C4"/>
<path d="M171.699 125.663H152.889V128.032H171.699V125.663Z" fill="#C4C4C4"/>
<path d="M174.675 130.689H152.889V133.058H174.675V130.689Z" fill="#C4C4C4"/>
<path d="M222.816 25.0934H200.496V27.332H222.816V25.0934Z" fill="#B8D6FF"/>
<path d="M226.147 32.0238H200.496V34.2624H226.147V32.0238Z" fill="#B8D6FF"/>
<path d="M213.73 38.9167H200.459V41.1553H213.73V38.9167Z" fill="#B8D6FF"/>
<path d="M220.906 45.8105H200.459V48.0491H220.906V45.8105Z" fill="#B8D6FF"/>
<path d="M162.994 141.996H65.3315V144.287H162.994V141.996Z" fill="#D94339"/>
<path d="M170.856 147.341H65.3315V149.632H170.856V147.341Z" fill="#D94339"/>
<path d="M133.802 152.687H65.3315V154.978H133.802V152.687Z" fill="white"/>
<path d="M116.185 141.996H65.3315V144.287H116.185V141.996Z" fill="#FFA347"/>
<path d="M120.275 147.341H65.3315V149.632H120.275V147.341Z" fill="#FFA347"/>
<path d="M100.984 152.687H65.3315V154.978H100.984V152.687Z" fill="#FFA347"/>
<path d="M99.491 67.2029H79.5986V69.6559H99.491V67.2029Z" fill="#D6D6D6"/>
<path d="M104.316 62.8352H74.7729V65.283H104.316V62.8352Z" fill="#D6D6D6"/>
<path d="M94.7299 29.1989C94.7299 30.2147 94.4287 31.2077 93.8643 32.0524C93.3 32.897 92.4978 33.5553 91.5593 33.9441C90.6207 34.3328 89.588 34.4346 88.5917 34.2364C87.5954 34.0382 86.6802 33.549 85.9619 32.8307C85.2436 32.1124 84.7544 31.1972 84.5562 30.2009C84.358 29.2046 84.4597 28.1718 84.8485 27.2333C85.2372 26.2948 85.8956 25.4926 86.7402 24.9283C87.5849 24.3639 88.5779 24.0627 89.5937 24.0627C90.9559 24.0627 92.2623 24.6038 93.2256 25.567C94.1888 26.5302 94.7299 27.8366 94.7299 29.1989Z" fill="url(#paint4_linear_785:4185)"/>
<path d="M98.8562 45.9413V55.7064C95.9307 57.03 92.7566 57.7146 89.5455 57.7146C86.3345 57.7146 83.1604 57.03 80.2349 55.7064V45.9413C80.2349 43.4722 81.2158 41.1041 82.9619 39.3581C84.708 37.6122 87.0762 36.6313 89.5455 36.6313C92.0149 36.6313 94.3831 37.6122 96.1292 39.3581C97.8752 41.1041 98.8562 43.4722 98.8562 45.9413Z" fill="url(#paint5_linear_785:4185)"/>
<path d="M169.533 21.604H121.687V24.6899H169.533V21.604Z" fill="#B8D6FF"/>
<path d="M193.268 21.604H174.673V24.6899H193.268V21.604Z" fill="#B8D6FF"/>
<path d="M144.153 14.5804H121.687V17.6663H144.153V14.5804Z" fill="#B8D6FF"/>
<path d="M122.387 33.619H121.984V70.1635H122.387V33.619Z" fill="#BDE1FF"/>
<path d="M132.574 33.619H132.171V70.1635H132.574V33.619Z" fill="#BDE1FF"/>
<path d="M142.758 33.619H142.355V70.1635H142.758V33.619Z" fill="#BDE1FF"/>
<path d="M152.942 33.619H152.54V70.1635H152.942V33.619Z" fill="#BDE1FF"/>
<path d="M163.116 33.619H162.714V70.1635H163.116V33.619Z" fill="#BDE1FF"/>
<path d="M173.304 33.619H172.901V70.1635H173.304V33.619Z" fill="#BDE1FF"/>
<path d="M183.488 33.619H183.085V70.1635H183.488V33.619Z" fill="#BDE1FF"/>
<path d="M193.676 33.619H193.273V70.1635H193.676V33.619Z" fill="#BDE1FF"/>
<path d="M122.19 58.0657L129.121 51.1303L132.5 54.5091L139.875 47.129L145.723 52.9766L153.208 45.492L158.334 50.6177L171.385 37.568L181.166 47.3487L187.093 41.4227L193.469 47.7985V70.1688H122.19V58.0657Z" fill="#4AAFFF"/>
<path d="M122.19 62.6582L127.735 57.114L131.234 60.6183L135.293 56.5648L142.935 64.2064L152.486 54.6505L155.918 58.0764L165.772 48.2172L174.775 57.2238L193.453 38.5462V70.169H122.19V62.6582Z" fill="#6F5BE0"/>
<path d="M126.252 30.5435H121.984V31.4483H126.252V30.5435Z" fill="#BDE1FF"/>
<path d="M135.09 30.5435H132.171V31.4483H135.09V30.5435Z" fill="#BDE1FF"/>
<path d="M145.964 30.5435H142.355V31.4483H145.964V30.5435Z" fill="#BDE1FF"/>
<path d="M155.228 30.5435H152.54V31.4483H155.228V30.5435Z" fill="#BDE1FF"/>
<path d="M164.957 30.5435H162.714V31.4483H164.957V30.5435Z" fill="#BDE1FF"/>
<path d="M177.263 30.5435H172.901V31.4483H177.263V30.5435Z" fill="#BDE1FF"/>
<path d="M186.124 30.5435H183.085V31.4483H186.124V30.5435Z" fill="#BDE1FF"/>
<path d="M195.192 30.5435H193.273V31.4483H195.192V30.5435Z" fill="#BDE1FF"/>
<path opacity="0.73" d="M250.621 82.1827H204.397C201.413 82.1827 198.994 84.6017 198.994 87.5857V153.933C198.994 156.917 201.413 159.336 204.397 159.336H250.621C253.605 159.336 256.025 156.917 256.025 153.933V87.5857C256.025 84.6017 253.605 82.1827 250.621 82.1827Z" fill="white"/>
<path d="M214.144 94.803H212.465V146.714H214.144V94.803Z" fill="#D6D6D6"/>
<path d="M223.613 94.803H221.934V146.714H223.613V94.803Z" fill="#D6D6D6"/>
<path d="M233.084 94.803H231.405V146.714H233.084V94.803Z" fill="#D6D6D6"/>
<path d="M242.549 94.803H240.87V146.714H242.549V94.803Z" fill="#D6D6D6"/>
<path d="M214.883 120.757H211.729V141.825H214.883V120.757Z" fill="url(#paint6_linear_785:4185)"/>
<path d="M224.348 103.046H221.194V124.114H224.348V103.046Z" fill="url(#paint7_linear_785:4185)"/>
<path d="M233.819 114.878H230.666V135.946H233.819V114.878Z" fill="url(#paint8_linear_785:4185)"/>
<path d="M243.281 112.435H240.127V133.509H243.281V112.435Z" fill="url(#paint9_linear_785:4185)"/>
<path d="M89.5426 58.3268C83.8382 58.3147 78.3398 56.1937 74.1051 52.372C69.8704 48.5503 67.1985 43.2978 66.6034 37.6249C66.0084 31.952 67.5323 26.2594 70.8818 21.6423C74.2314 17.0251 79.1701 13.8096 84.7478 12.6142C90.3256 11.4189 96.1484 12.3281 101.096 15.167C106.044 18.006 109.767 22.5741 111.549 27.9925C113.331 33.411 113.047 39.2971 110.751 44.5185C108.454 49.7399 104.308 53.9278 99.1096 56.2765C96.1048 57.6388 92.8418 58.3381 89.5426 58.3268ZM89.5426 13.2726C84.5348 13.2747 79.6787 14.9913 75.7821 18.1367C71.8855 21.2821 69.1834 25.6667 68.1252 30.5611C67.067 35.4555 67.7166 40.5647 69.9659 45.0386C72.2152 49.5126 75.9285 53.0816 80.4883 55.152C83.3345 56.438 86.422 57.1031 89.5453 57.1031C92.6685 57.1031 95.756 56.438 98.6022 55.152C103.162 53.0814 106.876 49.5119 109.125 45.0374C111.374 40.5629 112.024 35.4533 110.965 30.5585C109.906 25.6638 107.203 21.2792 103.305 18.1342C99.4079 14.9892 94.5509 13.2735 89.5426 13.2726Z" fill="url(#paint10_linear_785:4185)"/>
<path d="M27.2844 114.495C27.2844 114.495 31.5733 104.788 26.5992 105.604C25.25 106.841 24.095 108.274 23.1733 109.856C21.8553 112.016 19.1198 117.701 19.2192 119.663C19.3186 121.624 20.6994 123.036 22.1796 126.138C22.1796 126.138 25.2655 131.891 25.3962 132.592L28.66 130.903C28.66 130.903 25.8931 125.395 23.9527 120.552L27.2844 114.495Z" fill="#6F5BE0"/>
<path d="M2.18739 143.599L67.856 132.422L65.9557 121.259L0.287124 132.436L2.18739 143.599Z" fill="url(#paint11_linear_785:4185)"/>
<path d="M67.6201 131.084L71.1262 130.487L69.6827 122.015L66.1765 122.613L67.6201 131.084Z" fill="#2D3038"/>
<path d="M52.0951 196.748H52.9058C52.9058 196.748 52.6338 193.694 53.387 193.668C54.1402 193.642 56.0022 196.152 57.0953 196.539C58.1885 196.926 63.8948 197.256 63.9262 196.21C63.9575 195.164 61.7399 194.745 61.0495 194.447C60.3591 194.149 57.0064 190.88 56.4101 190.493C55.8139 190.106 54.7887 187.397 54.7887 187.397L51.6139 187.255C51.6139 187.255 51.4308 189.787 51.2426 191.126C51.1745 191.541 51.1308 191.961 51.1118 192.381C51.0804 193.516 52.0951 196.748 52.0951 196.748Z" fill="#EEA886"/>
<path d="M31.6377 196.147H32.3124V193.312C32.8721 193.359 34.7602 195.148 35.346 195.666C35.9318 196.184 36.7268 196.157 39.1851 196.314C41.6434 196.471 41.8787 194.996 41.4917 194.494C41.1046 193.992 39.8441 193.778 39.1851 193.448C38.5261 193.119 35.9527 190.221 35.2623 189.531C34.5719 188.84 34.1535 186.868 34.1535 186.868L31.2768 187.119C31.2804 188.234 31.177 189.346 30.9682 190.441C30.9368 190.571 30.9107 190.697 30.8741 190.822C30.4504 192.412 31.6377 196.147 31.6377 196.147Z" fill="#EEA886"/>
<path d="M42.247 131.713C42.7055 132.761 43.1003 133.835 43.4292 134.93C43.5233 135.579 46.0707 141.729 46.803 145.872C47.2424 148.351 48.4611 156.118 48.5605 157.107C48.7279 158.796 49.523 162.525 49.6433 164.251C49.7113 165.219 54.466 180.026 55.6167 187.762C54.0248 187.985 52.4067 187.937 50.8306 187.621C47.8614 181.478 45.6803 174.984 44.3393 168.294C42.948 161.469 41.724 157.834 40.6308 155.015C39.5375 152.195 33.4281 144.24 32.7847 143.346C32.1413 142.451 28.1398 137.503 31.9321 132.147C35.7244 126.792 42.247 131.713 42.247 131.713Z" fill="#1D3B54"/>
<path d="M28.5741 154.466C28.9245 156.772 28.5741 159.801 27.8365 168.232C27.099 176.663 29.1024 186.873 29.1024 186.873C31.6027 187.731 34.4848 186.873 34.4848 186.873C34.422 186.282 34.4848 166.323 34.4848 164.545C34.4848 162.766 35.0078 160.747 35.1281 158.708C35.2171 157.316 35.8657 154.748 36.5927 152.133C36.8124 151.349 37.0374 150.564 37.257 149.795C37.3826 149.366 37.5029 148.943 37.618 148.54C38.6641 144.978 40.0241 131.243 40.0241 131.243C40.0241 131.243 32.3768 125.087 28.6578 130.887C24.9387 136.688 26.8479 140.898 26.9787 141.62C27.1095 142.342 28.2288 152.159 28.5741 154.466Z" fill="#1D3B54"/>
<path d="M31.7451 142.08C31.8079 142.211 35.6156 150.663 36.5937 152.133C36.8133 151.349 37.0382 150.564 37.2579 149.795L31.7451 142.08Z" fill="#122536"/>
<path d="M31.6377 196.147H32.3124V193.312C32.8721 193.359 34.7602 195.148 35.346 195.665C35.9318 196.183 36.7268 196.157 39.1851 196.314C41.6434 196.471 41.8787 194.996 41.4917 194.494C41.1046 193.992 39.8441 193.777 39.1851 193.448C36.5699 193.589 33.348 189.891 31.8051 189.896C30.9891 189.896 30.9944 190.357 30.9682 190.419C30.9368 190.55 30.9107 190.676 30.8741 190.801C30.4504 192.412 31.6377 196.147 31.6377 196.147Z" fill="#172F42"/>
<path d="M52.092 196.748H52.9027C52.9027 196.748 52.6308 193.693 53.3839 193.667C54.1371 193.641 55.9991 196.152 57.0922 196.539C58.1854 196.926 63.8917 197.255 63.9231 196.209C63.9545 195.163 61.7368 194.745 61.0464 194.447C58.7032 194.447 54.885 191.858 53.7239 191.335C52.9412 191.024 52.0843 190.951 51.2604 191.125C51.1923 191.541 51.1487 191.96 51.1296 192.381C51.0773 193.516 52.092 196.748 52.092 196.748Z" fill="#172F42"/>
<path d="M35.5187 99.4689C35.5187 99.4689 34.2948 102.696 35.2467 105.191C35.2467 105.191 30.7748 104.903 30.6022 104.38C30.4296 103.857 30.7852 99.0191 30.1681 97.5808C29.5509 96.1424 35.5187 99.4689 35.5187 99.4689Z" fill="#EEA886"/>
<path d="M35.9716 104.104C35.9716 104.104 38.6131 105.04 39.8109 105.301C41.0088 105.563 43.5038 106.745 43.2998 111.201C43.0829 114.633 42.676 118.05 42.081 121.437C41.8467 124.493 41.9608 127.565 42.421 130.595C37.8729 131.551 33.1758 131.551 28.6277 130.595C28.6277 130.595 29.951 126.558 29.9144 125.511C29.8778 124.465 25.5102 115.867 25.3062 114.528C25.1022 113.189 24.2234 107.205 26.2215 105.856C28.2197 104.506 29.8464 104.71 30.6938 104.119C31.5412 103.528 34.711 103.675 35.9716 104.104Z" fill="#6F5BE0"/>
<path d="M25.7443 137.593C36.5719 140.47 45.1869 137.593 45.1869 137.593C44.4445 136.057 43.8473 134.454 43.4032 132.807C43.1209 131.752 42.8991 130.681 42.7389 129.601C42.2015 126.142 42.2919 122.614 43.0056 119.187C41.7555 108.904 26.1941 105.834 24.9492 109.098C23.7043 112.362 27.3658 126.358 27.5646 127.566C27.7634 128.774 25.7443 137.593 25.7443 137.593Z" fill="#6F5BE0"/>
<path d="M31.6145 86.524C33.4137 85.9068 38.2727 85.2478 39.5175 92.7115C40.7624 100.175 38.053 100.301 35.2653 100.086C32.4775 99.8719 28.1206 94.8559 27.7911 93.2868C27.4616 91.7177 26.4835 88.2814 31.6145 86.524Z" fill="#EEA886"/>
<path d="M38.5156 89.3898C38.5156 89.3898 37.0302 92.5646 35.0845 93.6682C35.0845 93.6682 33.8606 97.047 31.2193 98.4121C31.2193 98.4121 24.2106 93.7676 28.2798 88.2443C32.349 82.721 38.0606 87.1355 38.5156 89.3898Z" fill="#E8734D"/>
<path d="M35.2643 92.5693C35.1021 92.1823 34.056 91.5494 33.5801 92.6164C33.1041 93.6834 34.804 95.5559 35.2643 95.4513C35.7245 95.3467 35.8605 94.0391 35.2643 92.5693Z" fill="#EEA886"/>
<path d="M28.5181 89.1022C28.3665 88.8616 23.7219 86.712 22.7647 91.1944C21.8076 95.6768 26.5044 100.907 27.3308 103.151C28.1572 105.395 26.9595 110.657 26.9595 110.657C26.9595 110.657 29.7891 107.984 30.6207 105.18C31.5727 102.115 31.8917 94.3588 28.5181 89.1022Z" fill="#E8734D"/>
<path d="M28.2817 88.9453C29.1504 89.6847 29.721 90.7144 29.8875 91.8429C29.8875 91.8429 30.1542 90.4621 29.5789 89.6148C29.4571 89.3839 29.2674 89.196 29.0355 89.0763C28.8035 88.9565 28.5405 88.9108 28.2817 88.9453Z" fill="#E54242"/>
<path d="M43.4058 132.818C43.1236 131.762 42.9018 130.692 42.7416 129.612C42.7416 129.612 42.0302 128.095 41.7896 127.373C41.549 126.651 39.755 117.728 39.755 117.728C39.755 117.728 37.8564 126.097 43.4058 132.818Z" fill="#1D3B54"/>
<path d="M51.3776 133.335C51.3776 133.335 52.7741 134.721 53.2239 134.862C53.6737 135.003 54.5472 134.235 57.7534 133.994C58.0358 133.994 58.5275 134.229 58.4124 134.601C58.2973 134.972 56.9008 135.981 56.3202 136.138C55.7397 136.295 52.9048 137.409 51.5292 136.86C50.1537 136.311 49.2227 134.564 49.2227 134.564L51.3776 133.335Z" fill="#EEA886"/>
<path d="M40.5334 105.547C40.5334 105.547 44.2419 107.016 44.4616 112.168C44.6813 117.32 44.8801 120.014 45.0789 120.804C45.2776 121.593 45.6647 124.794 46.601 126.719C47.5373 128.644 53.448 134.491 53.448 134.491L50.5711 137.195C50.5711 137.195 42.2909 128.884 41.7835 127.368C41.2761 125.851 39.2152 115.275 39.0478 113.492C38.9171 112.053 37.0183 105.651 40.5334 105.547Z" fill="#6F5BE0"/>
<path opacity="0.3" d="M86.709 91.9108C86.709 91.9108 131.416 86.3667 140.329 133.55C144.135 126.384 145.289 118.104 143.588 110.171C141.887 102.237 137.441 95.1582 131.032 90.1814C124.623 85.2047 116.663 82.6494 108.555 82.9657C100.447 83.2821 92.7104 86.4499 86.709 91.9108Z" fill="#869AC2"/>
<path d="M109.87 76.1781C101.717 76.1781 93.7482 78.5955 86.9698 83.1245C80.1915 87.6535 74.9084 94.0908 71.7889 101.622C68.6694 109.154 67.8534 117.441 69.4442 125.436C71.0351 133.431 74.9612 140.775 80.7262 146.539C86.4912 152.303 93.836 156.227 101.832 157.817C109.828 159.407 118.115 158.59 125.647 155.47C133.178 152.349 139.615 147.066 144.144 140.287C148.672 133.509 151.089 125.54 151.088 117.388C151.086 106.458 146.743 95.9761 139.014 88.2479C131.284 80.5197 120.801 76.1781 109.87 76.1781ZM109.87 151.893C103.042 151.893 96.3673 149.868 90.6901 146.075C85.0129 142.282 80.588 136.891 77.9751 130.583C75.3621 124.275 74.6785 117.334 76.0105 110.638C77.3426 103.942 80.6306 97.7906 85.4586 92.9628C90.2867 88.1351 96.4381 84.8473 103.135 83.5154C109.832 82.1834 116.773 82.867 123.081 85.4798C129.389 88.0925 134.781 92.5171 138.574 98.1939C142.368 103.871 144.393 110.545 144.393 117.372C144.393 126.528 140.755 135.308 134.281 141.782C127.807 148.256 119.026 151.893 109.87 151.893Z" fill="#3F444F"/>
<path d="M264.812 189.044C264.812 189.044 265.146 191.303 265.188 191.659C265.23 192.015 268.912 191.455 268.912 191.455L269.21 188.767C269.21 188.767 265.272 188.725 264.812 189.044Z" fill="#5C544D"/>
<path d="M265.156 191.355C264.496 192.12 263.721 192.778 262.86 193.306C261.73 193.902 259.962 194.138 259.293 194.75C258.811 195.194 257.54 197.103 262.222 197.062C266.903 197.02 269.168 197.334 269.67 196.601C270.172 195.869 268.943 191.219 268.943 191.219C268.943 191.219 267.834 191.591 265.156 191.355Z" fill="#1C1E26"/>
<path d="M238.445 189.044C238.445 189.044 238.78 191.303 238.822 191.659C238.864 192.015 242.541 191.455 242.541 191.455L242.839 188.767C242.839 188.767 238.927 188.725 238.445 189.044Z" fill="#5C544D"/>
<path d="M238.779 191.355C238.119 192.119 237.347 192.777 236.488 193.306C235.358 193.902 231.205 194.389 230.541 195.001C230.06 195.445 229.259 197.229 235.85 197.062C240.557 196.947 242.79 197.334 243.292 196.601C243.794 195.869 242.586 191.219 242.586 191.219C242.586 191.219 241.54 191.617 238.779 191.355Z" fill="#1C1E26"/>
<path d="M263.505 130.736C263.505 130.736 265.466 136.337 265.21 141.17C264.954 146.003 266.219 151.286 266.742 156.338C267.318 161.966 269.687 175.282 269.776 178.306C269.865 181.329 269.41 190.921 269.41 190.921L264.661 191.026C264.661 191.026 260.675 167.746 259.644 165.371C258.614 162.996 253.493 146.034 253.32 144.146C253.148 142.258 263.505 130.736 263.505 130.736Z" fill="#20284D"/>
<path d="M243.555 131.729C243.555 131.729 240.94 144.967 240.605 147.943C240.27 150.92 240.035 162.248 239.862 164.095C239.689 165.941 238.717 188.269 237.796 191.015H243.864C243.864 191.015 248.519 174.801 248.519 167.102C248.519 159.403 252.118 150.407 254.44 145.339C256.762 140.271 262.077 140.15 263.505 130.751C263.505 130.736 245.49 128.748 243.555 131.729Z" fill="#20284D"/>
<path d="M255.894 86.4925C255.894 86.4925 251.108 84.7717 248.906 88.276C246.704 91.7804 246.913 98.7995 249.325 99.6625C251.736 100.526 255.355 100.076 256.59 97.879C257.824 95.6822 258.938 92.5179 258.88 90.3996C258.823 88.2813 257.149 87.1044 255.894 86.4925Z" fill="#EEA886"/>
<path d="M250.125 99.4481C250.232 100.051 250.189 100.67 250 101.253C249.681 101.844 256.015 101.859 256.015 101.859C256.353 99.8336 256.851 97.838 257.506 95.8915C258.478 93.1612 250.125 99.4481 250.125 99.4481Z" fill="#EEA886"/>
<path d="M257.506 95.8909C257.506 95.8909 257.067 96.5865 255.283 96.3198C253.5 96.053 251.319 93.7621 250.576 93.5111C249.833 93.26 249.823 92.8363 249.823 92.8363L249.357 93.4954L248.567 93.5424C248.567 93.5424 249.289 91.4974 248.201 90.6605C247.113 89.8237 249.331 84.0441 255.053 85.9532C255.053 85.9532 259.447 87.1196 259.29 89.5255C259.133 91.9315 258.489 94.6931 257.506 95.8909Z" fill="#FCCCA2"/>
<path d="M249.615 101.179C249.615 101.179 249.615 100.044 250.17 99.9346C250.724 99.8248 256.075 99.3279 256.729 99.5737V100.897C256.729 100.897 255.463 101.65 249.615 101.179Z" fill="#E2D2CA"/>
<path d="M249.937 91.9635C250.037 91.5608 251.104 90.3944 251.506 91.6393C251.909 92.8841 250.889 94.5369 250.319 94.3957C249.749 94.2544 249.681 92.9887 249.937 91.9635Z" fill="#EEA886"/>
<path d="M249.619 101.179C249.619 101.179 246.679 102.199 243.269 103.59C243.269 103.59 239.346 105.002 238.922 109.171C238.697 111.383 236.249 123.136 235.783 124.13C235.318 125.123 229.894 141.092 229.705 141.421C229.517 141.751 234.13 143.602 234.439 143.451C234.748 143.299 239.67 128.889 240.193 127.822C240.193 127.822 243.044 119.177 243.122 117.885C243.122 117.885 243.201 121.546 243.357 122.592C243.514 123.638 240.821 143.639 240.899 144.193C240.978 144.748 253.108 145.443 257.962 144.931C260.919 144.619 263.851 144.095 266.734 143.362C266.734 143.362 262.915 127.561 263.03 125.809C263.287 121.996 264.599 114.825 264.599 114.825L268.559 122.017L263.49 134.569L264.652 138.388C264.652 138.388 274.067 124.684 274.376 123.429C274.684 122.174 273.915 120.584 273.418 119.553C272.921 118.523 269.657 110.662 268.889 109.574C268.12 108.486 266.833 104.045 263.71 102.811C261.426 102.021 259.089 101.396 256.717 100.938L249.619 101.179Z" fill="#313D75"/>
<path d="M243.144 148.66L220.961 143.178L224.931 128.277L247.114 133.753L243.144 148.66Z" fill="#C4C4C4"/>
<path d="M227.783 144.67C227.783 144.67 227.15 145.658 226.92 145.941C226.69 146.223 227.49 146.396 227.83 146.113C228.17 145.831 227.783 144.67 227.783 144.67Z" fill="#C98462"/>
<path d="M232.406 148.048C232.59 147.869 232.744 147.66 232.861 147.431C232.861 147.431 232.971 146.981 233.07 146.668C233.094 146.585 233.124 146.505 233.159 146.427C233.402 146.026 233.579 145.588 233.682 145.13C233.776 144.523 234.054 141.788 234.054 141.788L232.338 141.369L230.957 141.092C230.957 141.092 227.976 143.953 227.819 144.513C227.819 144.565 227.793 144.623 227.782 144.675C227.755 145.055 227.769 145.438 227.824 145.815C227.824 145.909 227.824 146.861 228.065 147.034C228.186 147.143 228.334 147.219 228.493 147.257C228.651 147.294 228.817 147.291 228.975 147.248C229.325 147.495 229.735 147.644 230.162 147.677C230.34 147.804 230.544 147.89 230.759 147.929C230.975 147.968 231.196 147.958 231.407 147.902C231.407 147.902 232.024 148.284 232.406 148.048Z" fill="#DE9D7D"/>
<path d="M239.113 130.767C239.113 130.767 235.175 142.248 234.453 143.451C234.453 143.451 231.566 142.87 229.72 141.421L234.04 129.03L239.113 130.767Z" fill="#313D75"/>
<defs>
<linearGradient id="paint0_linear_785:4185" x1="147.082" y1="189.389" x2="147.082" y2="144.805" gradientUnits="userSpaceOnUse">
<stop stop-color="#AFCCFF"/>
<stop offset="1" stop-color="#EDFFFE"/>
</linearGradient>
<linearGradient id="paint1_linear_785:4185" x1="226.27" y1="65.1596" x2="244.871" y2="35.3271" gradientUnits="userSpaceOnUse">
<stop offset="0.01" stop-color="#3C6127"/>
<stop offset="1" stop-color="#639C38"/>
</linearGradient>
<linearGradient id="paint2_linear_785:4185" x1="179514" y1="36028" x2="180838" y2="34980.3" gradientUnits="userSpaceOnUse">
<stop offset="0.01" stop-color="#3C6127"/>
<stop offset="1" stop-color="#639C38"/>
</linearGradient>
<linearGradient id="paint3_linear_785:4185" x1="85958.3" y1="77534.5" x2="52409.7" y2="6441.77" gradientUnits="userSpaceOnUse">
<stop stop-color="#1CB3FC"/>
<stop offset="1" stop-color="#EDFFFE"/>
</linearGradient>
<linearGradient id="paint4_linear_785:4185" x1="89.5937" y1="15.6732" x2="89.5937" y2="70.6494" gradientUnits="userSpaceOnUse">
<stop stop-color="#40D5E6"/>
<stop offset="1" stop-color="#5577FF"/>
</linearGradient>
<linearGradient id="paint5_linear_785:4185" x1="4501.31" y1="2321.43" x2="4501.31" y2="4537.5" gradientUnits="userSpaceOnUse">
<stop stop-color="#40D5E6"/>
<stop offset="1" stop-color="#5577FF"/>
</linearGradient>
<linearGradient id="paint6_linear_785:4185" x1="213.304" y1="114.957" x2="213.304" y2="162.725" gradientUnits="userSpaceOnUse">
<stop stop-color="#FFC05C"/>
<stop offset="1" stop-color="#FF3857"/>
</linearGradient>
<linearGradient id="paint7_linear_785:4185" x1="1773.3" y1="6385.27" x2="1773.3" y2="8309.4" gradientUnits="userSpaceOnUse">
<stop stop-color="#FFC05C"/>
<stop offset="1" stop-color="#FF3857"/>
</linearGradient>
<linearGradient id="paint8_linear_785:4185" x1="1839.85" y1="6397.11" x2="1839.85" y2="8321.23" gradientUnits="userSpaceOnUse">
<stop stop-color="#FFC05C"/>
<stop offset="1" stop-color="#FF3857"/>
</linearGradient>
<linearGradient id="paint9_linear_785:4185" x1="1906.41" y1="6396.22" x2="1906.41" y2="8320.83" gradientUnits="userSpaceOnUse">
<stop stop-color="#FFC05C"/>
<stop offset="1" stop-color="#FF3857"/>
</linearGradient>
<linearGradient id="paint10_linear_785:4185" x1="89.5426" y1="20.0511" x2="89.5426" y2="74.4102" gradientUnits="userSpaceOnUse">
<stop stop-color="#D3DAE0"/>
<stop offset="1" stop-color="white"/>
</linearGradient>
<linearGradient id="paint11_linear_785:4185" x1="0.297713" y1="132.479" x2="67.868" y2="132.479" gradientUnits="userSpaceOnUse">
<stop stop-color="#FF9F55"/>
<stop offset="1" stop-color="#FFD255"/>
</linearGradient>
</defs>
</svg>
