<svg width="33" height="32" viewBox="0 0 33 32" fill="none" xmlns="http://www.w3.org/2000/svg">
<path d="M20.4314 24.0784H28.6662C28.6662 21.2821 27.7986 18.6004 26.2543 16.6232C24.71 14.646 22.6154 13.5352 20.4314 13.5352C19.6431 13.5352 18.1115 13.5441 17.3682 13.8221" stroke="#272D30" stroke-width="2.5"/>
<mask id="path-2-inside-1_567_50345" fill="white">
<path d="M24.3443 8.92017C24.3443 11.6375 22.1414 13.8403 19.4241 13.8403C16.7067 13.8403 14.5039 11.6375 14.5039 8.92017C14.5039 6.20284 16.7067 4 19.4241 4C22.1414 4 24.3443 6.20284 24.3443 8.92017ZM17.0429 8.92017C17.0429 10.2353 18.109 11.3014 19.4241 11.3014C20.7392 11.3014 21.8053 10.2353 21.8053 8.92017C21.8053 7.60507 20.7392 6.53896 19.4241 6.53896C18.109 6.53896 17.0429 7.60507 17.0429 8.92017Z"/>
</mask>
<path d="M24.3443 8.92017C24.3443 11.6375 22.1414 13.8403 19.4241 13.8403C16.7067 13.8403 14.5039 11.6375 14.5039 8.92017C14.5039 6.20284 16.7067 4 19.4241 4C22.1414 4 24.3443 6.20284 24.3443 8.92017ZM17.0429 8.92017C17.0429 10.2353 18.109 11.3014 19.4241 11.3014C20.7392 11.3014 21.8053 10.2353 21.8053 8.92017C21.8053 7.60507 20.7392 6.53896 19.4241 6.53896C18.109 6.53896 17.0429 7.60507 17.0429 8.92017Z" fill="#272D30" stroke="#272D30" stroke-width="5" mask="url(#path-2-inside-1_567_50345)"/>
<path d="M18.3785 21.5353C19.58 23.08 20.3616 25.127 20.5768 27.3458L5.97682 27.3458C6.19199 25.127 6.97365 23.08 8.17509 21.5353C9.59367 19.7114 11.4407 18.7754 13.2768 18.7754C15.113 18.7754 16.9599 19.7114 18.3785 21.5353Z" stroke="#272D30" stroke-width="2.5"/>
<circle cx="13.2835" cy="13.4504" r="3.67017" stroke="#272D30" stroke-width="2.5"/>
</svg>
