<?xml version="1.0" encoding="utf-8"?>
<!-- Generator: Adobe Illustrator 23.0.6, SVG Export Plug-In . SVG Version: 6.00 Build 0)  -->
<svg version="1.1" id="Ebene_1" xmlns="http://www.w3.org/2000/svg" xmlns:xlink="http://www.w3.org/1999/xlink" x="0px" y="0px"
	 viewBox="0 0 500 500" style="enable-background:new 0 0 500 500;" xml:space="preserve">
<style type="text/css">
	.st0{fill:#FFFFFF;}
	.st1{fill:#738C28;}
	.st2{fill:#3278AE;}
	.st3{fill:#F7FAFF;}
</style>
<g id="_27-cheakin" transform="translate(-48 -8)">
	<path id="Pfad_47" class="st0" d="M298,8c80.6,0,169.4,63.3,169.4,161.3c0,63.8-71.9,164.3-121.9,226.5
		c-9.4,11.6-17.9,21.9-25.1,30.3C306.8,442,298,451.5,298,451.5s-8.8-9.5-22.3-25.4c-7.2-8.5-15.7-18.7-25.1-30.3
		c-50.1-62.3-121.9-162.7-121.9-226.5C128.6,71.3,217.4,8,298,8z M419,161.2c0-66.8-54.1-121.1-121-121.1
		c-66.8,0-121.1,54.1-121.1,121c0,66.8,54.1,121.1,121,121.1l0,0h0.1C364.8,282.2,418.9,228,419,161.2z"/>
	<path id="Pfad_48" class="st1" d="M346.4,396.6c92.5,5.9,161.3,28.2,161.3,54.9c0,31.2-93.9,56.5-209.7,56.5S88.3,482.8,88.3,451.5
		c0-26.7,68.8-49,161.3-54.9l1-0.8c9.4,11.6,17.9,21.9,25.1,30.3l-1.9,1.6c-64.2,2-112.9,11.9-112.9,23.8
		c0,13.4,61.4,24.2,137.1,24.2s137.1-10.8,137.1-24.2c0-11.9-48.7-21.8-112.9-23.8l-1.9-1.6c7.2-8.5,15.7-18.7,25.1-30.3
		L346.4,396.6z"/>
	<path id="Pfad_49" class="st2" d="M344.8,396.5c-9.1,11.3-17.5,21.3-24.5,29.6l-1.3,1.5c65.7,1.8,116.1,11.8,116.1,23.9
		c0,13.4-61.4,24.2-137.1,24.2s-137.1-10.8-137.1-24.2c0-12.1,50.4-22.1,116.1-23.9l-1.3-1.5c-7-8.3-15.4-18.3-24.5-29.6
		c-93.3,5.7-162.8,28.2-162.8,55c0,31.2,93.9,56.5,209.7,56.5s209.7-25.2,209.7-56.5C507.7,424.7,438.1,402.3,344.8,396.5z"/>
	<path id="Pfad_50" class="st3" d="M434.5,453.8c-0.3,0.4-0.6,0.9-0.9,1.2C433.9,454.6,434.2,454.2,434.5,453.8z"/>
	<path id="Pfad_51" class="st3" d="M168.8,459.6c-1.1-0.5-2.1-1.1-3.1-1.8C166.7,458.5,167.8,459.1,168.8,459.6z"/>
	<path id="Pfad_52" class="st3" d="M165.2,457.5c-0.7-0.5-1.4-1-2-1.6C163.8,456.5,164.5,457,165.2,457.5z"/>
	<path id="Pfad_53" class="st3" d="M162.5,455c-0.3-0.4-0.7-0.8-0.9-1.2C161.9,454.2,162.2,454.6,162.5,455z"/>
	<path id="Pfad_54" class="st3" d="M430.3,457.8c-1,0.7-2.1,1.3-3.1,1.8C428.2,459.1,429.3,458.5,430.3,457.8z"/>
	<path id="Pfad_55" class="st3" d="M432.8,455.9c-0.6,0.6-1.3,1.1-2,1.6C431.5,457,432.2,456.5,432.8,455.9z"/>
	<g id="Gruppe_659" transform="translate(104.872 38.925)">
		<path id="Pfad_56" class="st2" d="M260.6,90.5c-0.3-0.6-0.8-1-1.4-1.3c-0.8-0.2-1.6-0.3-2.4-0.3c-0.2-1-0.2-1.9-0.6-2.4
			c-0.6-0.5-1.1-1.1-1.6-1.7c-0.4-0.7-2.1-0.4-2.8,0.7c-0.9,1.6-2.1,0.7-3,0.5c-1.4-0.3-2.4-0.2-3.2,1s-2,2.1-3.4,2.4
			c-0.4,0.1-0.7,0.6-0.9,0.9c-0.8,1-1.6,2.1-2.4,3.1c-0.1,0.1-0.1,0.1-0.2,0.1c-1,0.2-2,0.5-3,0.8c-0.4,0.2-0.8,0.5-1.1,0.8
			c0.3,0.5,0.6,0.9,0.9,1.2c0.3,0.2,0.8,0.1,1.1,0.1c-0.1,1.7-0.1,1.7-1.5,2c-0.1,0-0.2,0.1-0.4,0.1c-1.4,1.1-3.2,1.2-4.7,0.4
			c-0.5-0.1-1,0-1.4,0.2c-1.1,0.4-2.2,1.1-3.5,0.4c-0.4-0.2-0.9-0.1-1.2-0.3c-0.6-0.3-1.4-0.7-1.6-1.2c-0.1-0.9-0.1-1.9,0.1-2.8
			c0-0.8,0.3-2-0.8-2.1c-0.9-0.1-2.3,0.2-2.6,0.8c-1,1.4-1.2,3.2-0.6,4.8c0.4,0.8-0.2,2.6-0.8,2.7c-1.2,0.1-2.4,0.7-3.5-0.2
			c-0.2-0.1-0.6,0-0.9,0.1c-0.3,0.1-0.6,0.1-0.9,0.1c-1.3-0.3-2.5-0.7-4-1c-0.4-1.2-0.4-1.2-2.1-0.3l-2.6-1.5
			c-0.1-0.6-0.5-1.2-1-1.6c-0.6-0.4-1.3-0.7-2-0.7c-1.5,0-3.1,0-4.6,0.1l-1.4-0.5c-0.1-0.5-0.3-0.8-0.5-0.9c-1.1-0.4-2.4-0.5-3.5-1
			c-0.9-0.4-1.8-1-2.6-1.6c-1.3-0.9-2.7-1.9-4.3-3l2.4-3.5l-1.2-1.4c0.1-0.2,0.2-0.3,0.3-0.5l2.3-1.5c-0.3-0.2-0.6-0.5-0.8-0.8
			c-0.9-1.2-2.8-1-3.5-2.7c-0.2-0.5-1.1-0.7-1.7-1c-0.6-0.3-1.4-0.6-1.6-1.1c-0.5-1-1-1.5-2.3-1.1c0.3-2,2.4-1.9,3-3.2
			c-0.9-1.7-0.8-1.6,0.3-3c0.2-0.5,0.2-1,0-1.4c-0.6-1.5-0.2-3.3,0.9-4.5c1.1-0.7,1.9-1.9,2.2-3.2c0.2-1.5,0.6-3,0.9-4.4
			c0.2-0.8,0.1-1.5-0.8-1.8c-0.7-0.3-1.5-0.5-2.2-0.9c-1.5-0.6-3.2-0.5-4.7,0.1c-1.1,0.2-2.1,0.8-3.1,1.2c-0.5,0.2-1.2,0.3-1.4-0.6
			c-0.1-0.3-0.7-0.6-1.1-0.7c-0.8-0.3-1.8-0.4-1.8-1.6c0-0.2-0.3-0.5-0.5-0.5c-2.1-0.4-2.4-3-4.5-3.4c0,0,0-0.1-0.1-0.1
			c-0.1-1.2-1.1-0.9-1.9-1.1c-0.3-0.1-0.6-0.2-0.9-0.3h-1c-0.3,0.1-0.5,0.2-0.8,0.3c-0.8,0-1.7,0.2-2.5,0.5
			c-0.4,0.2-0.5,0.6-1.1,0.4c-1-0.5-2.2-0.1-2.7,0.9c-0.3,0.5-1,0.6-1.4,1.1c-0.4,0.4-0.6,1-0.6,1.6c0,0.3,0.8,0.6,1.2,0.8
			c0.4,0.1,0.8,0.2,1.2,0.3c-0.8,0.6-1.4,1-1.9,1.4c-0.8,0.6-0.6,1.7,0.3,1.7c1.5-0.1,1.9,1.3,3,1.8c0.2,0.1,0.3,0.5,0.5,1
			c-1.4-0.1-1.5,0.8-1.4,1.6c0.1,2.9,0.3,5.8,0.5,8.7c0.1,0.6,0.4,1.1,0.9,1.5c1,0.6,2,1.2,3,1.7c0,0.8-0.2,1.6-0.4,2.4
			c-0.5,1.1-0.1,2.5-1.3,3.4c-0.9,0.7-2.2,1.4-2.2,3c0,0.4-0.8,1-1.2,1c-0.9-0.1-1.6,0.6-1.7,1.4c-0.4,2.1-2,3.9-4.1,4.5
			c-0.5,0.2-1,0.8-1.4,1.3c-0.6,0.8-1.2,1.7-1.8,2.5c-0.2,0.2-0.7,0.3-1.1,0.3c-0.9,0.2-1.8,0.3-2.8,0.3c-0.4,0-1.1-0.1-1.2-0.4
			c-0.8-1.4-1.7-1.5-2.7-0.3c-0.8,0.9-1.7,1.7-2.6,2.5c-1,0.9-1.2,2.3-0.4,3.4c0.2,0.4,0.1,0.8,0,1.2c-0.6,1.6-0.4,2.3,1.2,2.7
			c0.8,0.1,1.3,0.9,1.2,1.6c0,0.2-0.1,0.3-0.2,0.5c-0.5,1.3-0.1,2.1,1.3,2.6c0.4,0.1,0.7,0.4,0.9,0.7c0.3,0.7,0.5,1.5,0.6,2.2
			c0,0.2-0.2,0.5-0.3,0.8c-0.2-0.2-0.4-0.3-0.6-0.5c-0.3-0.2-0.6-0.5-0.9-0.5c-0.7,0-1.4,0.3-2.1,0.6c-0.2,0.1-0.4,0.2-0.5,0.2h-0.4
			c-0.2-0.1-0.5-0.2-0.7-0.3c-1.4-0.7-3.1-0.8-4.6-0.3c-0.2,0-0.5,0.2-0.5,0.4c-0.1,0.9-0.7,0.7-1.2,0.7c-1.9,0-2.1,0.2-2,1.6
			l2.2,2.5c-1.4-0.4-1.9,0.2-2,0.9c0.5,0.6,1,1.3,1.5,2c0.4,0.9,0.8,1.7,2,1.3c0.2-0.1,0.5,0.2,0.8,0.5l-0.3,0.1
			c-0.3,0.1-0.5,0.3-0.5,0.5c-0.2,0.7,0,1.4,0.4,1.9l0.1,0.1c0.5,0.5,0.9,1.2,1.1,2l-2-1c0.1,0.5,0.4,1,0.6,1.5
			c1.7,2.1,3.6,4.1,5.3,6.2c1.1,1.3,3,1.8,4.6,1.1c0.7-0.2,1.4-0.5,2.1-0.8c1.8-0.4,3-2,2.8-3.8c-0.1-0.8,0.5-1.6,1.3-1.7
			c0,0,0,0,0.1,0c0.3,1.3,0.4,2.6,0.5,3.9c0,0.7-0.8,1.3-0.8,2c0.1,2.1-1.2,4.3,0.3,6.3c0.1,0.1-0.1,0.4-0.1,0.6
			c-0.1,0.6-0.2,1.1-0.3,1.7c0,0.8,0.2,1.7,0.2,2.5c0.1,1.1,0.1,2.2,0.2,3.3c0.2,1.9,0.5,3.9,0.8,5.8c0.1,0.6,0.2,1.2,0.2,1.7
			c0,1.2,0.2,2.4,0.6,3.5c1.1,2.9,2.5,5.7,3.7,8.5c0.5,1.1,0.9,2.2,1.2,3.3c0.5,2,0.7,4,1.2,5.9c0.7,1.8,1.6,3.6,2.7,5.2
			c1.4,3,2.5,6.1,3.1,9.3c0.4,3.1,1.8,6,4,8.3c0.7,0.7,1.5,1.5,2.6,1.1c1.2-0.5,2.7-0.9,2.9-2.6c0-1.4,1.1-2.5,2.5-2.5
			c0.5-0.1,0.9-0.2,1.4-0.4c0.2-0.1,0.6-0.3,0.5-0.5c-0.2-1.6,1.2-2.5,1.7-3.8c0.3-0.9,1.2-1.4,2.1-1.2c1,0,1.3-0.4,1.2-1.3
			c-0.1-0.5-0.1-1-0.1-1.5c0.6-0.2,1-0.9,0.9-1.6c-0.2-0.7-0.4-1.4-0.5-2.2c0-0.1,0-0.1,0-0.2c0.1-0.1,0.2-0.3,0.2-0.5
			c0-1.5,0.4-3,1.1-4.3c0.8-2.2,1.4-4.5,1.7-6.8c0.1-0.4-0.4-1-0.5-1.5c-0.2-0.4-0.3-0.9-0.4-1.4c0.2-1.8,0.4-3.6,0.7-5.4
			c0.1-0.5,0.3-1.1,0.7-1.5c0.6-0.6,1.6-0.7,2.2-0.1c0.1,0.1,0.2,0.2,0.3,0.4c0.3-0.4,0.7-0.8,1-1.2c0.5-1.3,1.9-1.9,3.2-1.5
			c1.4,0.3,2.8-1.2,2.8-2.7c0-0.4,0.1-0.7,0.4-1c0.9-0.6,1.8-1.1,2.7-1.7c0.5-0.4,1-0.8,1.5-1.2c0.4-0.4,0.8-0.8,1.2-1.1
			c2-1.1,3.8-2.7,5.1-4.6c1.6-2.6,4.2-4.5,7.2-5.2c0.6-0.2,1.1-0.6,1.6-1c0.8-0.8,1.4-1.7,2.2-2.4c0.5-0.4,0.7-1.1,0.5-1.7
			c-0.5-1.7,0.2-3.1,1.5-3.3c1.3-0.3,2.4-1,3.3-1.9c0.3-0.3,1-0.6,1.2-0.4c0.9,0.6,1.4,0.2,1.9-0.6c0.2-0.4,0.6-0.7,1-0.9
			c0.8-0.3,0.7-0.8,0.6-1.5c-0.1-0.6-0.2-1.6,0.1-1.8c0.8-0.7,0.6-1.4,0.5-2.1c-0.1-2-0.8-3.9-1.9-5.5c-0.1-0.2-0.1-0.5,0-0.7
			c1-2.1,1-2.2-1-3.2l1.7-0.5c-0.5-0.3-0.8-0.6-1.1-0.8s-0.8-0.3-1-0.5l0.8-1.7c2.4-0.1,2.5-0.2,1.4-1.9c1-0.6,1.5,1.5,2.7,0.5
			c0.9-0.6,1.4-1.7,1.2-2.7c0.2,0.5,0.3,1.1,0.3,1.7c0,1.3-0.1,2.7,0,4c0.1,0.3,0.3,0.6,0.6,0.7c0.9,0.3,1.8,0.5,2.7,0.5
			c2.4,0.1,4.9,0,7.3,0l0.1,0.4c-1,0.5-1.9,0.9-2.9,1.4c-0.4,0.2-0.7,0.6-0.8,1c-0.5,1.5,0.1,3.2,1.4,4.1l-1.3,0.3
			c0,2.5,0.5,3.4,2,3.4c0.2-0.8,0.5-1.6,0.9-2.4c0.3-0.4,0.9-0.7,1.4-0.7c0.3,0,0.8,0.5,0.9,0.9c0.6,1.6,1,3.3,1.3,5
			c0.2,1.3,0.6,1.9,2,2.1c0.3-0.4,0.9-1,0.8-1.4c-0.4-1.2-0.1-2.5,0.8-3.4c0.1-0.1,0.1-0.4,0.1-0.6c0.2-1.3,0.4-2.5,0.5-3.8
			c0-1.2,0.6-1.3,1.6-1.2c0.5,0.1,0.9-0.1,1.2-0.4c0.6-1.2,1.2-2.4,1.7-3.7c0.1-0.4,0.2-0.9,0.2-1.4s-0.1-1,0.1-1.4
			c0.9-1.5,1.4-3.2,1.5-4.9c0.1-0.8,0.5-1.5,1-2c0.7-0.7,1.4-1.4,2.2-2s1.6-1.1,2.5-1.6c0.7-0.5,1.6-0.4,2.2,0.1
			c-1-1,0.1-2.5-0.5-3.7h2l-1.1-2.2c0.3-0.2,0.6-0.5,1-0.7C260.7,91.6,260.9,91,260.6,90.5C260.7,90.7,260.7,90.6,260.6,90.5z"/>
		<path id="Pfad_57" class="st2" d="M147.2,155c0.1,0.4,0.2,0.8,0.3,1.2c1.1,2.9,2.5,5.7,3.7,8.5c0.5,1.1,0.9,2.2,1.2,3.3
			c0.5,2,0.7,4,1.2,5.9c0.7,1.8,1.6,3.6,2.7,5.2c1.4,3,2.5,6.1,3.1,9.3c0.4,3.1,1.8,6,4,8.3c0.7,0.7,1.5,1.5,2.6,1.1
			c1.2-0.5,2.7-0.9,2.9-2.6c0-1.4,1.1-2.5,2.5-2.5c0.5-0.1,0.9-0.2,1.4-0.4c0.2-0.1,0.6-0.3,0.5-0.5c-0.2-1.6,1.2-2.5,1.7-3.8
			c0.3-0.9,1.2-1.4,2.1-1.2c1,0,1.3-0.4,1.2-1.3c-0.1-0.5-0.1-1-0.1-1.5c0.6-0.2,1-0.9,0.9-1.6c-0.2-0.7-0.4-1.4-0.5-2.2
			c0-0.1,0-0.1,0-0.2c0.1-0.1,0.2-0.3,0.2-0.5c0-1.5,0.4-3,1.1-4.3c0.8-2.2,1.4-4.5,1.7-6.8c0.1-0.4-0.4-1-0.5-1.5
			c-0.2-0.4-0.3-0.9-0.4-1.4c0.2-1.8,0.4-3.6,0.7-5.4c0.1-0.5,0.3-1.1,0.7-1.5c0.6-0.6,1.6-0.7,2.2-0.1c0.1,0.1,0.2,0.2,0.3,0.4
			c0.4-0.4,0.7-0.8,1-1.2c0.5-1.3,1.9-1.9,3.2-1.5c1,0.1,1.9-0.4,2.4-1.3L147.2,155z"/>
		<path id="Pfad_58" class="st2" d="M259.3,99.2c-0.2-0.1-0.3-0.3-0.5-0.4C258.9,98.9,259.1,99.1,259.3,99.2z"/>
	</g>
</g>
</svg>
