<?xml version="1.0" encoding="utf-8"?>
<!-- Generator: Adobe Illustrator 23.0.6, SVG Export Plug-In . SVG Version: 6.00 Build 0)  -->
<svg version="1.1" id="Ebene_1" xmlns="http://www.w3.org/2000/svg" xmlns:xlink="http://www.w3.org/1999/xlink" x="0px" y="0px"
	 viewBox="0 0 500 527.2" style="enable-background:new 0 0 500 527.2;" xml:space="preserve">
<style type="text/css">
	.st0{fill:#FFFFFF;}
	.st1{fill:#3278AE;}
</style>
<g>
	<path id="Pfad_2" class="st0" d="M452.4,141.9l-7.3,2.3l-38.9,3.5l-10.9,17.5l-7.9-2.5l-30.9-27.8l-4.5-14.6l-6-15.5l-19.5-17.4
		L303.7,83l-0.5,10.5l22.4,21.9l11,12.9l-12.4,6.5l-10.1-3l-15-6.3l0.5-12.2l-19.8-8.1l-6.6,28.5l-19.9,4.5l2,15.9l25.9,5l4.5-25.5
		l21.4,3.2l9.9,5.8h16l10.9,21.9l29,29.4l-2.1,11.4l-23.4-3L307,222.7l-29,35.1l-3.8,15.4h-10.5l-19.4-9l-18.9,9l4.7,20l8.2-9.5
		l14.4-0.4l-1,17.9l12,3.5l12,13.4l19.5-5.5l22.3,3.5l25.9,7l13,1.5l21.9,24.9l42.3,24.9l-27.4,52.3l-28.9,13.4l-11,29.9l-41.8,27.9
		L307,514c109.3-26.4,186.3-124.1,186.4-236.5C493.6,229.2,479.3,182,452.4,141.9z"/>
	<path id="Pfad_3" class="st0" d="M278.1,404.7l-17.7-32.9l16.3-34l-16.3-4.9l-18.3-18.3l-40.5-9.1l-13.5-28.1v16.7h-5.9l-25.7-34.9
		c-12.5,15-22.1,24.6-23.3,25.8l-11,11l-11.3-10.7c-2.9-2.8-54.7-52.5-80.3-112.8c-58.2,121-7.4,266.2,113.6,324.4
		c33,15.9,69.2,24.1,105.9,24c10.2-0.1,20.4-0.8,30.6-2.1l-2.5-29.5c0,0,11.2-43.8,11.2-45.3C289.3,442.6,278.1,404.7,278.1,404.7z"
		/>
	<path id="Pfad_4" class="st0" d="M230.8,80.6l17.9,3l43.5-4.1l12-13.2L321.1,55l23.9,3.6l8.7-1.3C321.3,41.9,285.9,33.9,250,33.9
		c-17,0.1-33.9,1.9-50.5,5.5c12.9,14,21.8,31.3,25.7,50L230.8,80.6z M260.3,58.1l24.9-13.7l16,9.2l-23.1,17.6L256,73.4L246,67
		L260.3,58.1z"/>
	<path id="Pfad_1" class="st1" d="M191.8,253.7c0,0,89.4-89,89.4-163.3c0-49.4-40-89.4-89.4-89.4s-89.4,40-89.4,89.4
		C102.4,168.9,191.8,253.7,191.8,253.7z M145.2,90.4c0-25.7,20.8-46.6,46.6-46.6c25.7,0,46.6,20.8,46.6,46.6
		c0,25.7-20.8,46.6-46.6,46.6l0,0C166.1,137,145.2,116.1,145.2,90.4z"/>
</g>
</svg>
