<svg width="60" height="80" viewBox="0 0 60 80" fill="none" xmlns="http://www.w3.org/2000/svg">
<path d="M52.5 30C51.1193 30 50 28.8807 50 27.5V20C50 8.97 41.03 0 30 0C18.97 0 10 8.97 10 20V27.5C10 28.8807 8.88071 30 7.5 30C3.36667 30 0 33.3633 0 37.5V72.5C0 76.6367 3.36667 80 7.5 80H52.5C56.6333 80 60 76.6367 60 72.5V37.5C60 33.3633 56.6333 30 52.5 30ZM16.6667 20C16.6667 12.6467 22.6467 6.66667 30 6.66667C37.3533 6.66667 43.3333 12.6467 43.3333 20C43.3333 25.5228 38.8562 30 33.3333 30H26.6667C21.1438 30 16.6667 25.5228 16.6667 20ZM36.6667 50C36.6667 54.3034 33.3333 58.3863 33.3333 62.6897V63.3333C33.3333 65.1733 31.8433 66.6667 30 66.6667C28.1567 66.6667 26.6667 65.1733 26.6667 63.3333V62.6897C26.6667 58.3863 23.3333 54.3034 23.3333 50C23.3333 46.3233 26.3233 43.3333 30 43.3333C33.6767 43.3333 36.6667 46.3233 36.6667 50Z" fill="url(#paint0_linear)"/>
<defs>
<linearGradient id="paint0_linear" x1="0.0638449" y1="39.7751" x2="59.9528" y2="39.7751" gradientUnits="userSpaceOnUse">
<stop stop-color="#6A1370"/>
<stop offset="0.354167" stop-color="#0F2759"/>
<stop offset="0.677083" stop-color="#194B7C"/>
<stop offset="1" stop-color="#0079B3"/>
</linearGradient>
</defs>
</svg>
