<svg width="10" height="14" viewBox="0 0 10 14" fill="none" xmlns="http://www.w3.org/2000/svg">
<path d="M8.46999 5.32569H8.07619V3.75049C8.07619 2.01305 6.66324 0.600098 4.92579 0.600098C3.18835 0.600098 1.77539 2.01305 1.77539 3.75049V5.32569H1.38159C0.730512 5.32569 0.200195 5.85548 0.200195 6.50709V12.0203C0.200195 12.6719 0.730512 13.2017 1.38159 13.2017H8.46999C9.12107 13.2017 9.65139 12.6719 9.65139 12.0203V6.50709C9.65139 5.85548 9.12107 5.32569 8.46999 5.32569ZM2.82553 3.75049C2.82553 2.5922 3.76749 1.65023 4.92579 1.65023C6.08409 1.65023 7.02606 2.5922 7.02606 3.75049V5.32569H2.82553V3.75049ZM5.45086 9.38025V10.5764C5.45086 10.8662 5.21615 11.1014 4.92579 11.1014C4.63543 11.1014 4.40072 10.8662 4.40072 10.5764V9.38025C4.08831 9.19806 3.87566 8.86306 3.87566 8.47609C3.87566 7.89694 4.34664 7.42596 4.92579 7.42596C5.50494 7.42596 5.97592 7.89694 5.97592 8.47609C5.97592 8.86306 5.76327 9.19806 5.45086 9.38025Z" fill="#0079B2"/>
</svg>
