<?xml version="1.0" encoding="utf-8"?>
<!-- Generator: Adobe Illustrator 22.1.0, SVG Export Plug-In . SVG Version: 6.00 Build 0)  -->
<svg version="1.1" id="Isolationsmodus" xmlns="http://www.w3.org/2000/svg" xmlns:xlink="http://www.w3.org/1999/xlink" x="0px"
	 y="0px" viewBox="0 0 1000 1000" style="enable-background:new 0 0 1000 1000;" xml:space="preserve">
<style type="text/css">
	.st0{fill:#86BCFF;}
	.st1{fill:#B8DCFF;}
	.st2{fill:#FFFFFF;}
</style>
<g>
	<path class="st0" d="M903.7,723.3c-16.1-47-121.1-81.3-168.8-102.6c-23.4-10.4-49.9-16.8-63.8-27.4l-63.9-61.6l32.6-89.2
		c38.9-11.2,56.4-102.4,31.3-104.7c7.4-40.3,14.5-93.1,8.7-134.4v-39.2l19.8-8.6l59.8-25.9c15.6-6.8,15.6-17.8,0-24.6l-231-100
		c-15.6-6.8-41.2-6.8-56.9,0L240.6,105c-15.6,6.8-15.6,17.8,0,24.6l17.5,7.6l-1.5,11.8c-6.7,1.1-11.8,7-11.8,14
		c0,6.3,4.1,11.7,9.9,13.5l-10.6,148.8c-0.4,6.2,0.8,16.1,2.8,22l8.6,25.9c2,5.9,5.2,5.9,7.2,0l8.6-25.9c2-5.9,3.2-15.8,2.7-22
		l-10.6-148.8c5.7-1.8,9.9-7.2,9.9-13.5c0-7-5.1-12.8-11.8-14l-1.3-10.9l40.4,17.5l19.8,8.6v39.1c-5.9,41.4,1.2,94.2,8.6,134.6
		c-25.1,2.3-7,93.8,31.9,104.9l31.9,89l-63.9,61.6c-14,10.6-40.5,16.9-63.8,27.4c-47.7,21.3-152.7,55.6-168.8,102.6
		c-9.1,26.6-3.8,48.1-5.1,77.6v0.2h458.9c-0.6-4.8-1-9.6-1-14.6c0-68.2,55.5-123.7,123.7-123.7c68.2,0,123.7,55.5,123.7,123.7
		c0,4.9-0.4,9.8-1,14.6h113.3c0-0.1,0-0.2,0-0.2h0C907.6,771.4,912.8,749.9,903.7,723.3L903.7,723.3z"/>
	<path class="st1" d="M704,906.2c-4.8,1.3-9.7,2.2-14.7,2.9c-4.6,0.7-9.3,1-14.1,1.1c-0.8,0-1.7,0-2.5,0c-0.9,0-1.7,0-2.6,0
		c-4.7-0.1-9.5-0.4-14.1-1.1c-5-0.7-9.9-1.6-14.7-2.9c-16.6-4.3-31.8-12.1-45-22.4l-30.6,84.1c-1.3,3.6-0.1,5.9,2.6,5.9
		c0.8,0,1.7-0.2,2.7-0.6l34.1-12.7c1.1-0.4,2.3-0.6,3.5-0.6c3.8,0,7.6,2,9.5,5.3l17.9,31.6c1.3,2,2.7,3.1,4,3.1
		c1.5,0,2.8-1.3,3.7-3.7l15.1-41.7l13.6-37.5l13.6,37.5l15.1,41.7c1,2.5,2.4,3.7,3.8,3.7c1.3,0,2.7-1,3.9-3.1l17.9-31.6
		c1.9-3.3,5.8-5.3,9.5-5.3c1.2,0,2.3,0.2,3.5,0.6l34,12.7c1,0.4,2,0.6,2.7,0.6c2.8,0,4-2.3,2.6-5.9l-30.6-84.1
		C735.8,894.1,720.6,901.8,704,906.2L704,906.2z"/>
	<path class="st1" d="M770.7,786.5c0-54.1-43.9-98-98-98c-54.1,0-98,43.9-98,98c0,17.4,4.5,33.6,12.4,47.8c2.6,4.6,5.6,9.1,8.9,13.2
		c3,3.8,6.2,7.3,9.8,10.6c7.1,6.7,15.2,12.3,24.1,16.6c5.1,2.5,10.4,4.5,15.9,6c4.8,1.3,9.7,2.4,14.8,3c4,0.5,8,0.8,12.2,0.8
		c4.1,0,8.2-0.3,12.2-0.8c5-0.6,10-1.6,14.8-3c5.5-1.6,10.8-3.6,15.9-6c8.9-4.3,17-9.9,24.1-16.6c3.5-3.3,6.8-6.9,9.8-10.6
		c3.3-4.1,6.2-8.6,8.9-13.2C766.2,820.1,770.7,803.9,770.7,786.5L770.7,786.5z M724,815.2c-1.3,2.3-2.8,4.5-4.4,6.6
		c-4.9,6.4-10.9,11.8-18,15.8c-8.6,4.8-18.4,7.6-28.9,7.6c-10.5,0-20.4-2.8-28.9-7.6c-7-4-13.2-9.4-18-15.8
		c-1.6-2.1-3.1-4.3-4.4-6.6c-1.7-3.1-3.2-6.3-4.3-9.8c-1-3-1.8-6.2-2.3-9.4c-0.5-3.1-0.8-6.3-0.8-9.5c0-5,0.7-9.9,1.9-14.5
		c6.5-25.4,29.5-44.3,56.9-44.3c27.5,0,50.4,18.8,56.9,44.3c1.2,4.6,1.9,9.5,1.9,14.5c0,3.3-0.3,6.4-0.8,9.5
		c-0.5,3.2-1.3,6.4-2.3,9.4C727.2,808.8,725.7,812.1,724,815.2L724,815.2z"/>
	<path class="st2" d="M692.9,797.1l0.3-0.3l2.1-2.1l8.1-7.9l9-8.9l0.7-0.7l-28-4.1l-0.9-1.8L672.7,748l-11.6,23.5l-0.9,1.8l-28,4.1
		l0.7,0.7l9,8.9l8.1,7.9l2.1,2.1l0.3,0.3l-2.4,14.1l-2.4,13.7l25-13.2l25,13.2l-2.3-13.7L692.9,797.1z"/>
</g>
</svg>
