<?xml version="1.0" encoding="utf-8"?>
<!-- Generator: Adobe Illustrator 22.1.0, SVG Export Plug-In . SVG Version: 6.00 Build 0)  -->
<svg version="1.1" id="Ebene_1" xmlns="http://www.w3.org/2000/svg" xmlns:xlink="http://www.w3.org/1999/xlink" x="0px" y="0px"
	 viewBox="0 0 75 75" style="enable-background:new 0 0 75 75;" xml:space="preserve">
<g>
	<g>
		<path style="fill:#87BCFF;" d="M30.8,16.4V9.5h13.4v6.9h5.5v-8c0-2.3-1.9-4.2-4.2-4.2H29.7c-2.3,0-4.2,1.9-4.2,4.2v8H30.8z"/>
		<path style="fill:#87BCFF;" d="M71.1,16.4H3.9c-2.2,0-3.9,1.7-3.9,3.9v46.5c0,2.2,1.7,3.9,3.9,3.9h67.2c2.2,0,3.9-1.7,3.9-3.9
			V20.3C75,18.1,73.3,16.4,71.1,16.4z"/>
	</g>
	<path style="fill:#FFFFFF;" d="M75,38.9V20.3c0-2.2-1.7-3.9-3.9-3.9H3.9c-2.2,0-3.9,1.7-3.9,3.9v18.6C25,53.7,50,53.7,75,38.9z"/>
	<path style="fill:#2F87F3;" d="M40.9,45.9h-6.9c-0.5,0-0.8,0.2-0.8,0.6v7.1c0,0.3,0.3,0.6,0.8,0.6h6.9c0.5,0,0.8-0.2,0.8-0.6v-7.1
		C41.7,46.1,41.4,45.9,40.9,45.9z"/>
</g>
</svg>
