<?xml version="1.0" encoding="utf-8"?>
<!-- Generator: Adobe Illustrator 22.1.0, SVG Export Plug-In . SVG Version: 6.00 Build 0)  -->
<svg version="1.1" id="Capa_1" xmlns="http://www.w3.org/2000/svg" xmlns:xlink="http://www.w3.org/1999/xlink" x="0px" y="0px"
	 viewBox="0 0 62.6 53" style="enable-background:new 0 0 62.6 53;" xml:space="preserve">
<rect x="47.2" y="39" style="fill:#65B1EF;" width="14.5" height="7.4"/>
<g>
	<g>
		<path style="fill:#0F5DAA;" d="M22.3,8.8V3.9H32v4.9h3.9V3.1c0-1.7-1.3-3-3-3H21.5c-1.7,0-3,1.3-3,3v5.7
			C18.5,8.8,22.3,8.8,22.3,8.8z"/>
		<path style="fill:#75B5EF;" d="M51.3,8.8H2.9c-1.6,0-2.8,1.2-2.8,2.8v33.5c0,1.6,1.2,2.8,2.8,2.8h48.4c1.6,0,2.8-1.2,2.8-2.8V11.6
			C54.1,10.1,52.9,8.8,51.3,8.8z"/>
	</g>
	<path style="fill:#0079B3;" d="M54.1,25V11.6c0-1.6-1.2-2.8-2.8-2.8H2.9c-1.6,0-2.8,1.2-2.8,2.8V25C18.1,35.7,36.1,35.7,54.1,25z"
		/>
	<path style="fill:#FFFFFF;" d="M29.6,30.1h-4.9c-0.3,0-0.6,0.2-0.6,0.4v5.1c0,0.2,0.2,0.4,0.6,0.4h4.9c0.3,0,0.6-0.2,0.6-0.4v-5.1
		C30.2,30.2,29.9,30.1,29.6,30.1z"/>
</g>
<g>
	<path style="fill:#FFFFFF;" d="M54.3,50.6c-3.1-0.1-5.1-1.6-5.1-2.6V35.7c0-1,2-2.5,5.1-2.6v-4c-5.1,0.1-9.1,3-9.1,6.6V48
		c0,3.7,4,6.5,9.1,6.6C54.3,54.6,54.3,50.6,54.3,50.6z"/>
</g>
<g>
	<path style="fill:#FFFFFF;" d="M54.1,50.6c3.1-0.1,5.1-1.6,5.1-2.6V35.7c0-1-2-2.5-5.1-2.6v-4c5.1,0.1,9.1,3,9.1,6.6V48
		c0,3.7-4,6.5-9.1,6.6V50.6z"/>
</g>
<g id="XMLID_78_">
	<path id="XMLID_121_" style="fill:#B0D7F4;" d="M61.8,36c0,2.5-3.3,4.6-7.3,4.6s-7.3-2.1-7.3-4.6s3.3-4.6,7.3-4.6
		S61.8,33.4,61.8,36"/>
	<path id="XMLID_120_" style="fill:#3997DE;" d="M54.5,49.8c-4,0-7.3-2.1-7.3-4.6v3.1c0,2.5,3.3,4.6,7.3,4.6s7.3-2.1,7.3-4.6v-3.1
		C61.8,47.7,58.5,49.8,54.5,49.8"/>
	<path id="XMLID_119_" style="fill:#65B1EF;" d="M54.5,46.7c-4,0-7.3-2.1-7.3-4.6v3.1c0,2.5,3.3,4.6,7.3,4.6s7.3-2.1,7.3-4.6v-3.1
		C61.8,44.7,58.5,46.7,54.5,46.7"/>
	<path id="XMLID_118_" style="fill:#3997DE;" d="M54.5,43.6c-4,0-7.3-2.1-7.3-4.7v3.2c0,2.6,3.3,4.7,7.3,4.7s7.3-2.1,7.3-4.7v-3.3
		C61.8,41.5,58.5,43.6,54.5,43.6"/>
	<path id="XMLID_117_" style="fill:#65B1EF;" d="M54.5,40.6c-4,0-7.3-2.1-7.3-4.6v3c0,2.5,3.3,4.6,7.3,4.6s7.3-2.1,7.3-4.6v-3
		C61.8,38.5,58.5,40.6,54.5,40.6"/>
</g>
</svg>
