<?xml version="1.0" encoding="utf-8"?>
<!-- Generator: Adobe Illustrator 22.1.0, SVG Export Plug-In . SVG Version: 6.00 Build 0)  -->
<svg version="1.1" id="Capa_1" xmlns="http://www.w3.org/2000/svg" xmlns:xlink="http://www.w3.org/1999/xlink" x="0px" y="0px"
	 viewBox="0 0 54.2 53" style="enable-background:new 0 0 54.2 53;" xml:space="preserve">
<g>
	<g>
		<path style="fill:#0F5DAA;" d="M22.3,8.8V3.9H32v4.9h3.9V3.1c0-1.7-1.3-3-3-3H21.5c-1.7,0-3,1.3-3,3v5.7H22.3z"/>
		<path style="fill:#75B5EF;" d="M51.3,8.8H2.9c-1.6,0-2.8,1.2-2.8,2.8v33.5c0,1.6,1.2,2.8,2.8,2.8h48.4c1.6,0,2.8-1.2,2.8-2.8V11.6
			C54.1,10.1,52.9,8.8,51.3,8.8z"/>
	</g>
	<path style="fill:#0079B3;" d="M54.1,25V11.6c0-1.6-1.2-2.8-2.8-2.8H2.9c-1.6,0-2.8,1.2-2.8,2.8V25C18.1,35.7,36.1,35.7,54.1,25z"
		/>
	<path style="fill:#FFFFFF;" d="M29.6,30.1h-4.9c-0.3,0-0.6,0.2-0.6,0.4v5.1c0,0.2,0.2,0.4,0.6,0.4h4.9c0.3,0,0.6-0.2,0.6-0.4v-5.1
		C30.2,30.2,29.9,30.1,29.6,30.1z"/>
</g>
</svg>
