<svg xmlns="http://www.w3.org/2000/svg" viewBox="0 0 70.817 52.868">
  <g id="icon" transform="translate(-1433 -465.129)">
    <g id="business_3" transform="translate(1432.901 465.03)">
      <g id="Gruppe_27" data-name="Gruppe 27" transform="translate(0.099 0.099)">
        <g id="Gruppe_26" data-name="Gruppe 26" transform="translate(0 0)">
          <path id="Pfad_113" data-name="Pfad 113" d="M22.186,8.539V3.786h9.409V8.539h3.783V3.01A2.858,2.858,0,0,0,32.467.1H21.41A2.858,2.858,0,0,0,18.5,3.01V8.539Z" transform="translate(-0.651 -0.099)" fill="#0f5daa"/>
          <path id="Pfad_114" data-name="Pfad 114" d="M49.76,8.8H2.816A2.652,2.652,0,0,0,.1,11.516V44.01a2.652,2.652,0,0,0,2.716,2.719H49.76a2.652,2.652,0,0,0,2.716-2.716v-32.5A2.711,2.711,0,0,0,49.76,8.8Z" transform="translate(-0.099 -0.36)" fill="#74b5ef"/>
        </g>
        <path id="Pfad_115" data-name="Pfad 115" d="M52.479,24.514v-13A2.652,2.652,0,0,0,49.76,8.8H2.816A2.652,2.652,0,0,0,.1,11.516v13q26.189,15.568,52.38,0Z" transform="translate(-0.099 -0.36)" fill="#0378b2"/>
        <path id="Pfad_116" data-name="Pfad 116" d="M29.435,30.1H24.682c-.291,0-.582.194-.582.391v4.947c0,.194.194.391.582.391h4.753c.291,0,.582-.194.582-.391V30.491C30.017,30.2,29.726,30.1,29.435,30.1Z" transform="translate(-0.82 -1)" fill="#fff"/>
      </g>
      <g id="Gruppe_28" data-name="Gruppe 28" transform="translate(34.925 19.306)">
        <path id="Pfad_117" data-name="Pfad 117" d="M54.781,21.9c-3.88,0-7.081,2.033-7.081,4.462v3.007a3.128,3.128,0,0,0,.776,2.033,9.224,9.224,0,0,0-3.395-.582C41.2,30.82,38,32.853,38,35.282V47.217c0,2.424,3.2,4.462,7.081,4.462a9.468,9.468,0,0,0,4.849-1.261,9.468,9.468,0,0,0,4.849,1.261c3.88,0,7.081-2.033,7.081-4.462V26.168c0-2.327-3.2-4.268-7.078-4.268ZM52.162,34.8ZM51.968,34.319ZM51.774,33.737ZM50.8,32.67ZM49.447,31.8a.095.095,0,0,1-.1-.1ZM50.126,32.189ZM51.968,48.38ZM52.064,47.8Z" transform="translate(-36.062 -19.96)" fill="#fff"/>
        <path id="Pfad_118" data-name="Pfad 118" d="M54.721,53.559a13.1,13.1,0,0,1-4.849-.97,11.41,11.41,0,0,1-4.849.97c-5.044,0-9.021-2.815-9.021-6.4V35.228c0-3.589,3.977-6.4,9.021-6.4H45.7V26.3c0-3.589,3.977-6.4,9.021-6.4s9.021,2.815,9.021,6.4V47.157c0,3.589-3.974,6.4-9.019,6.4Zm-4.656-5.24.776.485a8.2,8.2,0,0,0,3.88.97c3.1,0,5.141-1.455,5.141-2.522V26.3c0-1.067-2.033-2.522-5.141-2.522S49.58,25.234,49.58,26.3v3.007a1,1,0,0,0,.391.776l.1-.194.194.1-.1.291.776.873.485-.582-.485.582.485.679.582-.776.194.194-.679.679.97,1.164.873-.485.1.1-.97.582.391.485.776-.391.1.194-.776.291.391.485.582-.1v.195h-.485l.679.873-1.94-.679h-.194l-1.843.391v-.1l1.843-.391-.582-.194-1.366.488v-.1l1.164-.485-.485-.194-.873.485.776-.485-.679-.194v.1h-.485l.1.194.1-.1h-.194l-.582-.485.1-.1-.391-.1h-.194l-.679-.194a8.415,8.415,0,0,0-2.716-.485c-3.1,0-5.141,1.455-5.141,2.522V47.157c0,1.067,2.033,2.522,5.141,2.522a7.213,7.213,0,0,0,3.88-.97l.97-.582.194.194h3.783v.391l-.194.391-1.843-.776H50.065ZM50.066,30.277Zm1.843,18.042-1.746-.776Zm2.033-.1-2.815-.679-.964-.193.776.1-.679-.194v-.1l1.552.391,2.231.391Z" transform="translate(-36.003 -19.9)" fill="#fff"/>
      </g>
    </g>
    <g id="XMLID_78_" transform="translate(1469.764 486.663)">
      <g id="Gruppe_683" data-name="Gruppe 683" transform="translate(0 8.924)">
        <path id="XMLID_121_" d="M52.162,35.962c0,2.424-3.2,4.462-7.081,4.462S38,38.387,38,35.962,41.2,31.5,45.081,31.5s7.081,1.94,7.081,4.462" transform="translate(-38 -31.5)" fill="#b0d7f4"/>
        <path id="XMLID_120_" d="M45.081,49.662C41.2,49.662,38,47.624,38,45.2v3.007c0,2.424,3.2,4.462,7.081,4.462s7.081-1.94,7.081-4.462V45.2c0,2.424-3.2,4.462-7.081,4.462" transform="translate(-38 -31.911)" fill="#3997de"/>
        <path id="XMLID_119_" d="M45.081,46.562C41.2,46.562,38,44.524,38,42.1v3.007c0,2.424,3.2,4.462,7.081,4.462s7.081-2.033,7.081-4.462V42.1c0,2.522-3.2,4.462-7.081,4.462" transform="translate(-38 -31.818)" fill="#65b1ef"/>
        <path id="XMLID_118_" d="M45.081,43.559C41.2,43.559,38,41.525,38,39.1V42.1c0,2.424,3.2,4.462,7.081,4.462s7.081-2.033,7.081-4.462V39c0,2.522-3.2,4.559-7.081,4.559" transform="translate(-38 -31.725)" fill="#3997de"/>
        <path id="XMLID_117_" d="M45.081,40.562C41.2,40.562,38,38.524,38,36.1v2.91c0,2.424,3.2,4.462,7.081,4.462s7.081-2.033,7.081-4.462V36.1c0,2.424-3.2,4.462-7.081,4.462" transform="translate(-38 -31.638)" fill="#65b1ef"/>
      </g>
      <path id="XMLID_116_" d="M62.162,26.762c0,2.424-3.2,4.462-7.081,4.462S48,29.284,48,26.762,51.2,22.3,55.081,22.3s7.081,2.033,7.081,4.462" transform="translate(-38.3 -22.3)" fill="#b0d7f4"/>
      <path id="XMLID_114_" d="M55.156,49.562a8.968,8.968,0,0,1-2.815-.391,3.884,3.884,0,0,1-1.84,2.137,8.75,8.75,0,0,0,4.656,1.261c3.88,0,7.081-2.033,7.081-4.462V45.1c0,2.424-3.2,4.462-7.081,4.462" transform="translate(-38.375 -22.984)" fill="#65b1ef"/>
      <path id="XMLID_113_" d="M55.206,46.562a10.818,10.818,0,0,1-2.619-.291v1.843a3.475,3.475,0,0,1-.391,1.067,14.994,14.994,0,0,0,3.007.391c3.88,0,7.081-2.033,7.081-4.462V42.1c0,2.522-3.2,4.462-7.081,4.462" transform="translate(-38.426 -22.894)" fill="#3997de"/>
      <path id="XMLID_112_" d="M55.219,43.559a10.818,10.818,0,0,1-2.619-.291v3.005a10.818,10.818,0,0,0,2.619.291c3.88,0,7.081-2.033,7.081-4.462V39c0,2.522-3.2,4.559-7.081,4.559" transform="translate(-38.438 -22.801)" fill="#65b1ef"/>
      <path id="XMLID_111_" d="M55.219,40.462a10.818,10.818,0,0,1-2.619-.291v3.007a10.818,10.818,0,0,0,2.619.291c3.88,0,7.081-2.033,7.081-4.462V36c0,2.424-3.2,4.462-7.081,4.462" transform="translate(-38.438 -22.711)" fill="#3997de"/>
      <path id="XMLID_110_" d="M55.219,37.459a10.818,10.818,0,0,1-2.619-.291v2.91a10.818,10.818,0,0,0,2.619.291c3.88,0,7.081-2.033,7.081-4.462V32.9c0,2.522-3.2,4.559-7.081,4.559" transform="translate(-38.438 -22.618)" fill="#65b1ef"/>
      <path id="XMLID_109_" d="M55.195,33.459c-1.261,0-2.424.776-3.395.391a3.128,3.128,0,0,1,.776,2.033v1.164a10.818,10.818,0,0,0,2.619.291c3.88,0,7.081-2.033,7.081-4.462V28.9c0,2.619-3.2,5.529-7.081,5.529" transform="translate(-38.414 -22.498)" fill="#3997de"/>
      <path id="XMLID_108_" d="M55.081,31.362C51.2,31.362,48,29.324,48,26.9v3.007a3.128,3.128,0,0,0,.776,2.033,6.285,6.285,0,0,1,2.91,1.843,9.223,9.223,0,0,0,3.395.582c3.88,0,7.081-2.033,7.081-4.462v-3c0,2.424-3.2,4.462-7.081,4.462" transform="translate(-38.3 -22.438)" fill="#65b1ef"/>
      <g id="Gruppe_684" data-name="Gruppe 684" transform="translate(19.891 8.924)">
        <path id="XMLID_121_2" data-name="XMLID_121_" d="M52.162,35.962c0,2.424-3.2,4.462-7.081,4.462S38,38.387,38,35.962,41.2,31.5,45.081,31.5s7.081,1.94,7.081,4.462" transform="translate(-38 -31.5)" fill="#b0d7f4"/>
        <path id="XMLID_120_2" data-name="XMLID_120_" d="M45.081,49.662C41.2,49.662,38,47.624,38,45.2v3.007c0,2.424,3.2,4.462,7.081,4.462s7.081-1.94,7.081-4.462V45.2c0,2.424-3.2,4.462-7.081,4.462" transform="translate(-38 -31.911)" fill="#3997de"/>
        <path id="XMLID_119_2" data-name="XMLID_119_" d="M45.081,46.562C41.2,46.562,38,44.524,38,42.1v3.007c0,2.424,3.2,4.462,7.081,4.462s7.081-2.033,7.081-4.462V42.1c0,2.522-3.2,4.462-7.081,4.462" transform="translate(-38 -31.818)" fill="#65b1ef"/>
        <path id="XMLID_118_2" data-name="XMLID_118_" d="M45.081,43.559C41.2,43.559,38,41.525,38,39.1V42.1c0,2.424,3.2,4.462,7.081,4.462s7.081-2.033,7.081-4.462V39c0,2.522-3.2,4.559-7.081,4.559" transform="translate(-38 -31.725)" fill="#3997de"/>
        <path id="XMLID_117_2" data-name="XMLID_117_" d="M45.081,40.562C41.2,40.562,38,38.524,38,36.1v2.91c0,2.424,3.2,4.462,7.081,4.462s7.081-2.033,7.081-4.462V36.1c0,2.424-3.2,4.462-7.081,4.462" transform="translate(-38 -31.638)" fill="#65b1ef"/>
      </g>
    </g>
  </g>
</svg>
