<?xml version="1.0" encoding="utf-8"?>
<!-- Generator: Adobe Illustrator 22.1.0, SVG Export Plug-In . SVG Version: 6.00 Build 0)  -->
<svg version="1.1" id="Capa_1" xmlns="http://www.w3.org/2000/svg" xmlns:xlink="http://www.w3.org/1999/xlink" x="0px" y="0px"
	 viewBox="0 0 62.6 53" style="enable-background:new 0 0 62.6 53;" xml:space="preserve">
<g>
	<g>
		<path style="fill:#0F5DAA;" class="st0" d="M22.3,8.8V3.9H32v4.9h3.9V3.1c0-1.7-1.3-3-3-3H21.5c-1.7,0-3,1.3-3,3v5.7C18.5,8.8,22.3,8.8,22.3,8.8z"/>
		<path style="fill:#75B5EF;" class="st1" d="M51.3,8.8H2.9c-1.6,0-2.8,1.2-2.8,2.8v33.5c0,1.6,1.2,2.8,2.8,2.8h48.4c1.6,0,2.8-1.2,2.8-2.8V11.6
			C54.1,10.1,52.9,8.8,51.3,8.8z"/>
	</g>
	<path style="fill:#0079B3;" class="st2" d="M54.1,25V11.6c0-1.6-1.2-2.8-2.8-2.8H2.9c-1.6,0-2.8,1.2-2.8,2.8V25C18.1,35.7,36.1,35.7,54.1,25z"/>
	<path style="fill:#FFFFFF;" class="st3" d="M29.6,30.1h-4.9c-0.3,0-0.6,0.2-0.6,0.4v5.1c0,0.2,0.2,0.4,0.6,0.4h4.9c0.3,0,0.6-0.2,0.6-0.4v-5.1
		C30.2,30.2,29.9,30.1,29.6,30.1z"/>
</g>
<g>
	<path style="fill:#FFFFFF;" class="st3" d="M55.3,21.9c-4,0-7.3,2.1-7.3,4.6v3.1c0,0.8,0.3,1.5,0.8,2.1c-1-0.4-2.2-0.6-3.5-0.6c-4,0-7.3,2.1-7.3,4.6v3.1
		v3.1V45v3c0,2.5,3.3,4.6,7.3,4.6c1.9,0,3.7-0.5,5-1.3c1.3,0.8,3.1,1.3,5,1.3c4,0,7.3-2.1,7.3-4.6v-3.1v-3.1v-3.1v-3.1v-3.1v-3.1
		v-3.1C62.6,23.9,59.3,21.9,55.3,21.9z M52.6,35.2L52.6,35.2C52.5,35.1,52.5,35.1,52.6,35.2z M52.4,34.7L52.4,34.7
		C52.4,34.6,52.4,34.6,52.4,34.7z M52.2,34.1C52.1,34.1,52.1,34.1,52.2,34.1C52.1,34.1,52.1,34.1,52.2,34.1z M51.2,33L51.2,33
		L51.2,33z M49.8,32.1c0,0-0.1,0-0.1-0.1C49.7,32,49.7,32,49.8,32.1z M50.5,32.5L50.5,32.5L50.5,32.5z M52.4,49.2L52.4,49.2
		L52.4,49.2L52.4,49.2z M52.5,48.6L52.5,48.6L52.5,48.6z"/>
	<path style="fill:#FFFFFF;" class="st3" d="M55.3,54.6c-1.8,0-3.5-0.4-5-1c-1.5,0.7-3.2,1-5,1c-5.2,0-9.3-2.9-9.3-6.6V35.7c0-3.7,4.1-6.6,9.3-6.6
		c0.2,0,0.5,0,0.7,0v-2.6c0-3.7,4.1-6.6,9.3-6.6s9.3,2.9,9.3,6.6V48C64.6,51.7,60.5,54.6,55.3,54.6z M50.5,49.2l0.8,0.5
		c1.1,0.6,2.5,1,4,1c3.2,0,5.3-1.5,5.3-2.6V26.5c0-1.1-2.1-2.6-5.3-2.6S50,25.4,50,26.5v3.1c0,0.3,0.1,0.5,0.4,0.8l0,0l0.1-0.2
		l0.2,0.1l0,0l0,0l-0.1,0.3l0.8,0.9l0.5-0.6l-0.5,0.6l0.5,0.7l0.6-0.8l0.2,0.2L52,32.3l1,1.2l0.9-0.5l0.1,0.1l-1,0.6l0.4,0.5
		l0.8-0.4l0.1,0.2l-0.8,0.3l0.4,0.5l0.6-0.1v0.2H54l0.7,0.9l-2-0.7h-0.2l-1.9,0.4v-0.1l1.9-0.4l-0.6-0.2l-1.4,0.5v-0.1l1.2-0.5
		l-0.5-0.2L50.3,35l0,0l0.8-0.5l-0.7-0.2v0.1h-0.5l0.1,0.2l0.1-0.1h-0.2L49.3,34l0.1-0.1L49,33.8l0,0h-0.1l0,0h-0.1l0,0l0,0
		l-0.7-0.2c-0.9-0.3-1.8-0.5-2.8-0.5c-3.2,0-5.3,1.5-5.3,2.6V48c0,1.1,2.1,2.6,5.3,2.6c1.5,0,2.9-0.3,4-1l1-0.6L50.5,49.2h3.9v0.4
		L54.2,50l-1.9-0.8l0,0H50.5z M50.5,30.6L50.5,30.6L50.5,30.6L50.5,30.6z M52.4,49.2l-1.8-0.8L52.4,49.2z M54.5,49.1l-2.9-0.7
		l-1-0.2l0.8,0.1l-0.7-0.2V48l1.6,0.4l2.3,0.4L54.5,49.1z"/>
</g>
<g id="XMLID_78_">
	<path id="XMLID_121_" style="fill:#B0D7F4;" class="st4" d="M52.6,36.1c0,2.5-3.3,4.6-7.3,4.6S38,38.6,38,36.1s3.3-4.6,7.3-4.6S52.6,33.5,52.6,36.1"/>
	<path id="XMLID_120_" style="fill:#3997DE;" class="st5" d="M45.3,49.8c-4,0-7.3-2.1-7.3-4.6v3.1c0,2.5,3.3,4.6,7.3,4.6s7.3-2,7.3-4.6v-3.1
		C52.6,47.7,49.3,49.8,45.3,49.8"/>
	<path id="XMLID_119_" style="fill:#65B1EF;" class="st6" d="M45.3,46.7c-4,0-7.3-2.1-7.3-4.6v3.1c0,2.5,3.3,4.6,7.3,4.6s7.3-2.1,7.3-4.6v-3.1
		C52.6,44.7,49.3,46.7,45.3,46.7"/>
	<path id="XMLID_118_" style="fill:#3997DE;" class="st5" d="M45.3,43.7c-4,0-7.3-2.1-7.3-4.6v3.1c0,2.5,3.3,4.6,7.3,4.6s7.3-2.1,7.3-4.6V39
		C52.6,41.6,49.3,43.7,45.3,43.7"/>
	<path id="XMLID_117_" style="fill:#65B1EF;" class="st6" d="M45.3,40.7c-4,0-7.3-2.1-7.3-4.6v3c0,2.5,3.3,4.6,7.3,4.6s7.3-2.1,7.3-4.6v-3
		C52.6,38.6,49.3,40.7,45.3,40.7"/>
	<path id="XMLID_116_" style="fill:#B0D7F4;" class="st4" d="M62.6,26.9c0,2.5-3.3,4.6-7.3,4.6s-7.3-2-7.3-4.6s3.3-4.6,7.3-4.6S62.6,24.4,62.6,26.9"/>
	<path id="XMLID_114_" style="fill:#65B1EF;" class="st6" d="M55.3,49.7c-1,0-2-0.1-2.9-0.4c-0.3,0.9-0.9,1.6-1.9,2.2c1.3,0.8,2.9,1.3,4.8,1.3
		c4,0,7.3-2.1,7.3-4.6v-3.1C62.6,47.6,59.3,49.7,55.3,49.7"/>
	<path id="XMLID_113_" style="fill:#3997DE;" class="st5" d="M55.3,46.7c-1,0-1.9-0.1-2.7-0.3v1.9c0,0.4-0.3,0.8-0.4,1.1c0.9,0.2,2.1,0.4,3.1,0.4
		c4,0,7.3-2.1,7.3-4.6v-3.1C62.6,44.7,59.3,46.7,55.3,46.7"/>
	<path id="XMLID_112_" style="fill:#65B1EF;" class="st6" d="M55.3,43.7c-1,0-1.9-0.1-2.7-0.3v1.9v1.2c0.8,0.2,1.7,0.3,2.7,0.3c4,0,7.3-2.1,7.3-4.6V39
		C62.6,41.6,59.3,43.7,55.3,43.7"/>
	<path id="XMLID_111_" style="fill:#3997DE;" class="st5" d="M55.3,40.6c-1,0-1.9-0.1-2.7-0.3v1.9v1.2c0.8,0.2,1.7,0.3,2.7,0.3c4,0,7.3-2.1,7.3-4.6V36
		C62.6,38.5,59.3,40.6,55.3,40.6"/>
	<path id="XMLID_110_" style="fill:#65B1EF;" class="st6" d="M55.3,37.6c-1,0-1.9-0.1-2.7-0.3v1.8v1.2c0.8,0.2,1.7,0.3,2.7,0.3c4,0,7.3-2.1,7.3-4.6v-3.1
		C62.6,35.5,59.3,37.6,55.3,37.6"/>
	<path id="XMLID_109_" style="fill:#3997DE;" class="st5" d="M55.3,33.6c-1.3,0-2.5,0.8-3.5,0.4c0.5,0.6,0.8,1.3,0.8,2.1v1.2c0.8,0.2,1.7,0.3,2.7,0.3
		c4,0,7.3-2.1,7.3-4.6v-4.1c0,2.7-3.3,5.7-7.3,5.7"/>
	<path id="XMLID_108_" style="fill:#65B1EF;" class="st6" d="M55.3,31.5c-4,0-7.3-2.1-7.3-4.6V30c0,0.8,0.3,1.5,0.8,2.1c1.3,0.4,2.3,1.1,3,1.9
		c1,0.4,2.2,0.6,3.5,0.6c4,0,7.3-2.1,7.3-4.6v-3.1C62.6,29.4,59.3,31.5,55.3,31.5"/>
</g>
</svg>
