<?xml version="1.0" encoding="utf-8"?>
<!-- Generator: Adobe Illustrator 16.0.3, SVG Export Plug-In . SVG Version: 6.00 Build 0)  -->
<!DOCTYPE svg PUBLIC "-//W3C//DTD SVG 1.1//EN" "http://www.w3.org/Graphics/SVG/1.1/DTD/svg11.dtd">
<svg version="1.1" id="Ebene_1" xmlns="http://www.w3.org/2000/svg" xmlns:xlink="http://www.w3.org/1999/xlink" x="0px" y="0px"
	 width="12.916px" height="12.916px" viewBox="0 0 12.916 12.916" enable-background="new 0 0 12.916 12.916" xml:space="preserve">
<g>
	<path fill="#FFFFFF" d="M11.215,1H1.701C1.315,1,1,1.314,1,1.7v9.515c0,0.387,0.314,0.701,0.701,0.701h9.514
		c0.387,0,0.701-0.314,0.701-0.701V1.7C11.916,1.314,11.602,1,11.215,1z"/>
	<path fill="#747474" d="M11.215,0H1.701C0.762,0,0,0.761,0,1.7v9.515c0,0.939,0.761,1.701,1.701,1.701h9.514
		c0.939,0,1.701-0.762,1.701-1.701V1.7C12.916,0.761,12.154,0,11.215,0z M11.916,11.215c0,0.387-0.314,0.701-0.701,0.701H1.701
		C1.315,11.916,1,11.602,1,11.215V1.7C1,1.314,1.315,1,1.701,1h9.514c0.387,0,0.701,0.314,0.701,0.701V11.215z"/>
</g>
</svg>
