<?xml version="1.0" encoding="utf-8"?>
<!-- Generator: Adobe Illustrator 23.0.1, SVG Export Plug-In . SVG Version: 6.00 Build 0)  -->
<svg version="1.1" id="Ebene_1" xmlns="http://www.w3.org/2000/svg" xmlns:xlink="http://www.w3.org/1999/xlink" x="0px" y="0px"
	 viewBox="0 0 1000 1000" style="enable-background:new 0 0 1000 1000;" xml:space="preserve">
<style type="text/css">
	.st0{fill-rule:evenodd;clip-rule:evenodd;fill:#FFFFFF;}
	.st1{fill-rule:evenodd;clip-rule:evenodd;fill:#87BDFF;}
</style>
<g>
	<path class="st0" d="M1.1,431.6C-11,613.1,76.5,801.1,224.7,895.2H128c-7.3,0-14.5,6-14.5,13.3v38.7c0,7.3,6,13.3,13.3,13.3h613.9
		c7.3,0,13.3-6,13.3-13.3v-38.7c0-7.3-6-13.3-13.3-13.3h-97.9c43.5-27.8,81-62.8,113.6-103.9c327.5-48.3,282.8-311.8,111.2-344.4
		c0-5-0.3-10-0.6-15.2c-0.5-8.5-7.5-15.1-16-15.1l-833.9,0C8.7,416.6,1.7,423.2,1.1,431.6z M803.5,718.7
		c35.1-65.3,56.8-137.7,62.9-212.7C967.9,532.6,984.8,671.6,803.5,718.7z"/>
	<path class="st1" d="M300.9,61.4c0,84.6,138.9,239.3,7.2,304.5C357.7,241.4,199.3,188.3,300.9,61.4z"/>
	<path class="st1" d="M439.8,39.6c0,96.7,137.7,274.3,6,348C495.4,245,337.1,184.6,439.8,39.6z"/>
	<path class="st1" d="M577.6,61.4c0,84.6,138.9,239.3,7.2,304.5C633.2,241.4,474.9,188.3,577.6,61.4z"/>
</g>
</svg>
