<?xml version="1.0" encoding="utf-8"?>
<!-- Generator: Adobe Illustrator 22.1.0, SVG Export Plug-In . SVG Version: 6.00 Build 0)  -->
<svg version="1.1" id="Ebene_1" xmlns="http://www.w3.org/2000/svg" xmlns:xlink="http://www.w3.org/1999/xlink" x="0px" y="0px"
	 viewBox="0 0 1000 1000" style="enable-background:new 0 0 1000 1000;" xml:space="preserve">
<g id="XMLID_78_">
	<path id="XMLID_121_" style="fill:#B8DCFF;" d="M558.6,450.1c0,82.6-106.1,149.6-236.9,149.6s-236.9-67-236.9-149.6
		s106.1-149.6,236.9-149.6S558.6,367.5,558.6,450.1"/>
	<path id="XMLID_120_" style="fill:#FFFFFF;" d="M321.7,899c-130.8,0-236.9-67-236.9-149.6v99.7c0,82.6,106.1,149.6,236.9,149.6
		s236.9-67,236.9-149.6v-99.7C558.6,832,452.5,899,321.7,899"/>
	<path id="XMLID_119_" style="fill:#87BDFF;" d="M321.7,799.2c-130.8,0-236.9-67-236.9-149.6v99.7C84.8,832,190.8,899,321.7,899
		s236.9-67,236.9-149.6v-99.7C558.6,732.3,452.5,799.2,321.7,799.2"/>
	<path id="XMLID_118_" style="fill:#FFFFFF;" d="M321.7,699.5c-130.8,0-236.9-67-236.9-149.6v99.7c0,82.6,106.1,149.6,236.9,149.6
		s236.9-67,236.9-149.6v-99.7C558.6,632.5,452.5,699.5,321.7,699.5"/>
	<path id="XMLID_117_" style="fill:#87BDFF;" d="M321.7,599.7c-130.8,0-236.9-67-236.9-149.6v99.7c0,82.6,106.1,149.6,236.9,149.6
		s236.9-67,236.9-149.6v-99.7C558.6,532.8,452.5,599.7,321.7,599.7"/>
	<path id="XMLID_116_" style="fill:#B8DCFF;" d="M915.2,150.9c0,82.6-106.1,149.6-236.9,149.6s-236.9-67-236.9-149.6
		S547.5,1.3,678.3,1.3S915.2,68.2,915.2,150.9"/>
	<path id="XMLID_114_" style="fill:#87BDFF;" d="M678.3,899c-33.8,0-65.9-4.5-95-12.6c-11.3,27.9-34.9,52.5-67.1,71.6
		c42.4,25.2,99.3,40.7,162.1,40.7c130.8,0,236.9-67,236.9-149.6v-99.7C915.2,832,809.2,899,678.3,899"/>
	<path id="XMLID_113_" style="fill:#FFFFFF;" d="M678.3,799.2c-30.8,0-60.2-3.8-87.3-10.6v60.5c0,12.9-2.9,25.3-7.7,37.3
		c29.1,8.1,61.2,12.6,95,12.6c130.8,0,236.9-67,236.9-149.6v-99.7C915.2,732.3,809.2,799.2,678.3,799.2"/>
	<path id="XMLID_112_" style="fill:#87BDFF;" d="M678.3,699.5c-30.8,0-60.2-3.8-87.3-10.6v60.5v39.3c27,6.8,56.4,10.6,87.3,10.6
		c130.8,0,236.9-67,236.9-149.6v-99.7C915.2,632.5,809.2,699.5,678.3,699.5"/>
	<path id="XMLID_111_" style="fill:#FFFFFF;" d="M678.3,599.7c-30.8,0-60.2-3.8-87.3-10.6v60.5v39.3c27,6.8,56.4,10.6,87.3,10.6
		c130.8,0,236.9-67,236.9-149.6v-99.7C915.2,532.8,809.2,599.7,678.3,599.7"/>
	<path id="XMLID_110_" style="fill:#87BDFF;" d="M678.3,500c-30.8,0-60.2-3.8-87.3-10.6v60.5v39.3c27,6.8,56.4,10.6,87.3,10.6
		c130.8,0,236.9-67,236.9-149.6v-99.7C915.2,433,809.2,500,678.3,500"/>
	<path id="XMLID_109_" style="fill:#FFFFFF;" d="M678.3,400.3c-41.1,0-79.7-6.6-113.4-18.3c16.6,20.4,26.2,43.6,26.2,68.1v39.3
		c27,6.8,56.4,10.6,87.3,10.6c130.8,0,236.9-67,236.9-149.6v-99.7C915.2,333.3,809.2,400.3,678.3,400.3"/>
	<path id="XMLID_108_" style="fill:#87BDFF;" d="M678.3,300.5c-130.8,0-236.9-67-236.9-149.6v99.7c0,24.6,9.6,47.7,26.2,68.1
		c41.7,14.4,75.6,36.5,97.3,63.2c33.7,11.6,72.3,18.3,113.4,18.3c130.8,0,236.9-67,236.9-149.6v-99.7
		C915.2,233.5,809.2,300.5,678.3,300.5"/>
</g>
</svg>
