<svg width="1000" height="1001" viewBox="0 0 1000 1001" fill="none" xmlns="http://www.w3.org/2000/svg">
<g clip-path="url(#clip0)">
<path d="M584.4 799.904V905.504C617.1 912.404 654.7 916.704 695.4 916.704C830.8 916.704 931.9 870.804 931.9 829.804V750.804C883.7 786.804 797.8 810.104 695.4 810.104C655.5 810.004 618.1 806.404 584.4 799.904ZM584.4 651.404V757.004C617.1 763.904 654.7 768.204 695.4 768.204C830.8 768.204 931.9 722.304 931.9 681.304V602.304C883.7 638.304 797.8 661.504 695.4 661.504C655.5 661.604 618.1 658.004 584.4 651.404ZM459 305.504V365.504C525.5 384.204 575.9 416.104 583.2 460.104C616.2 467.204 654.2 471.504 695.4 471.504C830.8 471.504 931.9 425.604 931.9 384.604V305.704C883.7 341.804 797.8 365.004 695.4 365.004C593.1 364.804 507.2 341.604 459 305.504ZM459 157.104V236.004C459 277.004 560.2 322.904 695.4 322.904C830.8 322.904 931.9 276.904 931.9 236.004V157.104C883.7 193.204 797.8 216.304 695.4 216.304C593.1 216.404 507.2 193.204 459 157.104ZM310 384.204C174.6 384.204 73.6 430.204 73.6 471.104C73.6 512.004 174.7 558.004 310 558.004C445.3 558.004 546.4 512.104 546.4 471.104C546.4 430.004 445.4 384.204 310 384.204ZM584.4 503.104V608.704C617.1 615.604 654.7 619.904 695.4 619.904C830.8 619.904 931.9 573.904 931.9 533.004V454.104C883.7 490.204 797.8 513.304 695.4 513.304C655.5 513.104 618.1 509.504 584.4 503.104ZM73.6 837.304V916.304C73.6 957.404 174.7 1003.2 310 1003.2C445.3 1003.2 546.4 957.404 546.4 916.304V837.304C498.2 873.404 412.3 896.504 310 896.504C207.7 896.604 121.8 873.404 73.6 837.304ZM695.4 174.604C830.8 174.604 931.9 128.804 931.9 87.7041C931.9 46.7041 830.8 0.704102 695.4 0.704102C560.1 0.704102 459 46.7041 459 87.6041C459 128.604 560.2 174.604 695.4 174.604ZM73.6 689.004V767.904C73.6 808.904 174.7 854.804 310 854.804C445.3 854.804 546.4 808.804 546.4 767.904V689.004C498.2 725.104 412.3 748.304 310 748.304C207.7 748.104 121.8 725.004 73.6 689.004ZM73.6 540.604V619.504C73.6 660.504 174.7 706.304 310 706.304C445.3 706.304 546.4 660.304 546.4 619.504V540.604C498.2 576.704 412.4 599.904 310 599.904C207.7 599.804 121.8 576.604 73.6 540.604Z" fill="#0079B3"/>
</g>
<defs>
<clipPath id="clip0">
<rect width="1000" height="1000" fill="white" transform="translate(0 0.704102)"/>
</clipPath>
</defs>
</svg>
