<svg xmlns="http://www.w3.org/2000/svg" width="150.462" height="150.462" viewBox="0 0 150.462 150.462">
  <g id="frau" transform="translate(455.138 287.342)">
    <circle id="Ellipse_7" data-name="Ellipse 7" cx="75.231" cy="75.231" r="75.231" transform="translate(-455.138 -287.342)" fill="#cde1fa"/>
    <path id="Pfad_33" data-name="Pfad 33" d="M-344.659-177.034c-16.159-5.825-21.322-2.89-21.322-13.415,0-.5.032-1.446.091-2.412h.791c11.043.8,21.682,1.575,24.049-.08,3.781-2.642-9.307-6.712-9.307-40.887,0-17.268-11.381-29.521-28.649-29.521-.147,0-.291.009-.436.011h-.122v-.011h-.864c-.145,0-.289-.011-.436-.011-17.266.011-28.647,12.264-28.647,29.532,0,34.174-13.088,38.245-9.307,40.887,2.368,1.654,13.007.886,24.05.08h.791c.059.966.09,1.911.09,2.412,0,10.525-5.164,7.59-21.322,13.415-15.133,5.458-20.208,11.014-20.815,15.036a75.032,75.032,0,0,0,56.089,25.111A75.033,75.033,0,0,0-323.845-162C-324.452-166.019-329.527-171.576-344.659-177.034Z" fill="#fff"/>
  </g>
</svg>
