<svg xmlns="http://www.w3.org/2000/svg" width="150.462" height="150.462" viewBox="0 0 150.462 150.462">
  <g id="people" transform="translate(-8.239 39.153)">
    <circle id="Ellipse_7" data-name="Ellipse 7" cx="75.231" cy="75.231" r="75.231" transform="translate(8.239 -39.153)" fill="#cde1fa"/>
    <g id="Gruppe_2815" data-name="Gruppe 2815">
      <g id="Gruppe_2814" data-name="Gruppe 2814">
        <path id="Pfad_35" data-name="Pfad 35" d="M85.009,111.309c29.869,0,54.544-18.272,66.69-43.5a84.774,84.774,0,0,0-12.9-8.294l-4.719-2.759c0-.017-.017-.033-.017-.065V52.1a18.217,18.217,0,0,0,2.2-6.206c.682-.082,1.682-1.029,2.662-4.507,1.11-3.8.376-5.013-.62-5.26a1.307,1.307,0,0,0-.62-.539,20.786,20.786,0,0,0,.555-4.932c.931-8.117-2.759-9.734-4.54-10.043-.326-.245-.654-.487-1.029-.719l-1.992-2.533a7.935,7.935,0,0,0-6.647-2.008c-3.886.833-11.954-.082-11.954-.082a3.959,3.959,0,0,0,1.371,2.891,11.455,11.455,0,0,0-5.291,8.1c-.572,1.861-.637,4.622.212,8.572-1.241-.049-2.482.866-1.176,5.487a14.114,14.114,0,0,0,1.453,3.658,5.016,5.016,0,0,0,1.486,2.319,17.936,17.936,0,0,0,1.927,5.079V56.1a.526.526,0,0,1-.311.539c-1.094.572-3.942,2.5-8.661,5.487-3.309-2.23,3.019-4.3-.487-6.206l-5.45-3.185c0-.017-.017-.049-.017-.065V47.382a21.383,21.383,0,0,0,2.548-7.169c.779-.082,1.948-1.192,3.087-5.209,1.274-4.409.441-5.8-.719-6.092a1.515,1.515,0,0,0-.719-.62,24.046,24.046,0,0,0,.654-5.7c1.079-9.389-3.184-11.256-5.242-11.611a13.978,13.978,0,0,0-1.192-.833L93.262,7.209A9.16,9.16,0,0,0,85.568,4.89c-4.491.963-13.816-.082-13.816-.082a4.652,4.652,0,0,0,1.584,3.348,13.256,13.256,0,0,0-6.124,9.358c-.654,2.156-.751,5.341.261,9.913-1.437-.049-2.858,1-1.356,6.336A15.3,15.3,0,0,0,67.8,37.977a5.573,5.573,0,0,0,1.714,2.679,20.758,20.758,0,0,0,2.221,5.863v5.455a.6.6,0,0,1-.343.62c-6.576,3.331.783,7.222-5.127,11.627-3.446.425-5.684-.6-6.973-.768a29.329,29.329,0,0,1-3.854-1.6l-.261-.131a2.287,2.287,0,0,1-1.045-1.927V55.761a13.061,13.061,0,0,0,9.3-4.067s-2.293-1.747-1.169-13S60.873,17.579,51.825,18.412c0,0-3.92-4.719-11.726-1.747-2.679,1.012-9.864,3.593-9.5,19.172S25.062,51.5,25.062,51.5s3.037,4.426,13.391,4.344v3.9a2.288,2.288,0,0,1-1.037,1.927l-.229.131a65.261,65.261,0,0,1-9.725,3.411,33.994,33.994,0,0,0-6.124,2.27c-1.381.655-3.76,2.278-4.5,3.562C26.681,95.867,53.542,111.309,85.009,111.309Z" fill="#fff"/>
      </g>
    </g>
  </g>
</svg>
