<svg width="17" height="16" viewBox="0 0 17 16" fill="none" xmlns="http://www.w3.org/2000/svg">
<path d="M7.82488 2.94946H3.37189C3.03446 2.94946 2.71085 3.08351 2.47225 3.32211C2.23365 3.5607 2.09961 3.88431 2.09961 4.22175V13.1277C2.09961 13.4652 2.23365 13.7888 2.47225 14.0274C2.71085 14.266 3.03446 14.4 3.37189 14.4H12.2779C12.6153 14.4 12.9389 14.266 13.1775 14.0274C13.4161 13.7888 13.5501 13.4652 13.5501 13.1277V8.67473" stroke="#00A353" stroke-width="1.5" stroke-linecap="round" stroke-linejoin="round"/>
<path d="M12.5962 1.9951C12.8493 1.74203 13.1925 1.59985 13.5504 1.59985C13.9083 1.59985 14.2516 1.74203 14.5047 1.9951C14.7577 2.24817 14.8999 2.59141 14.8999 2.94931C14.8999 3.30721 14.7577 3.65045 14.5047 3.90352L8.46131 9.94687L5.91675 10.583L6.55289 8.03844L12.5962 1.9951Z" stroke="#00A353" stroke-width="1.5" stroke-linecap="round" stroke-linejoin="round"/>
</svg>
