<?xml version="1.0" encoding="utf-8"?>
<!-- Generator: Adobe Illustrator 21.1.0, SVG Export Plug-In . SVG Version: 6.00 Build 0)  -->
<svg version="1.1" id="Ebene_1" xmlns="http://www.w3.org/2000/svg" xmlns:xlink="http://www.w3.org/1999/xlink" x="0px" y="0px"
	 viewBox="0 0 1000 1000" style="enable-background:new 0 0 1000 1000;" xml:space="preserve">
<style type="text/css">
	.emailVerficiationSvg .ic0{fill:#B9D8FF;}
	.emailVerficiationSvg .ic1{fill:#FFFFFF;}
	.emailVerficiationSvg .ic2{fill:#69A8F6;}
	.emailVerficiationSvg .ic3{fill:#CEE1F4;}
	.emailVerficiationSvg .ic4{fill:#1D79F0;}
	.emailVerficiationSvg .ic5{fill:#FFFFFF;stroke:#FFFFFF;stroke-width:2;stroke-miterlimit:10;}
</style>
<g class="emailVerficiationSvg">
	<path class="ic0" d="M938.6,355.2c1.1,0-11.5-9.9-28-21.9L500.9,34.5c-16.5-12-43.6-12-60.1,0L31.1,333.3
		c-16.5,12-30.1,21.9-30.3,21.9s-0.2,16.7-0.2,37.2v478.3c0,20.5,16.7,37.2,37.2,37.2h861.6c20.4,0,37.2-16.7,37.2-37.2V392.4
		C936.6,371.9,937.5,355.2,938.6,355.2z"/>
	<path class="ic1" d="M728.5,798H212.1c-3.7,0-6.6-3-6.6-6.6V271.4c0-3.7,3-6.6,6.6-6.6h516.4c3.7,0,6.6,3,6.6,6.6v519.9
		C735.2,795.1,732.2,798,728.5,798z"/>
	<path class="ic2" d="M29.8,906.2l909.9-551l0,526.1c0,0-14,26.6-40.5,26.6S29.8,906.2,29.8,906.2z"/>
	<path class="ic2" d="M470.4,639.3L1,355.2l0,514.3c0,13.7,7,26.6,18.8,33.5c5,2.9,11.1,4.9,18.4,4.9c12.9,0,221,0,431.1,0
		L470.4,639.3z"/>
	<rect x="278" y="349.8" class="ic3" width="302.9" height="37.2"/>
	<rect x="278" y="424.2" class="ic3" width="191.9" height="37.2"/>
	<circle class="ic4" cx="814.2" cy="790" r="184.5"/>
	<path class="ic5" d="M904,715.1c3.4,0,6.8,1.3,9.4,3.9c5.2,5.2,5.2,13.6,0,18.7L790,861.1c-2.5,2.5-5.8,3.9-9.4,3.9
		c-3.5,0-6.9-1.4-9.4-3.9l-56.4-56.4c-5.2-5.2-5.2-13.6,0-18.7c2.6-2.6,6-3.9,9.4-3.9c3.4,0,6.8,1.3,9.4,3.9l47,47l114-114
		C897.2,716.4,900.6,715.1,904,715.1"/>
</g>
</svg>
