<?xml version="1.0" encoding="utf-8"?>
<!-- Generator: Adobe Illustrator 22.0.0, SVG Export Plug-In . SVG Version: 6.00 Build 0)  -->
<svg version="1.1" id="Ebene_1" xmlns="http://www.w3.org/2000/svg" xmlns:xlink="http://www.w3.org/1999/xlink" x="0px" y="0px"
	 viewBox="0 0 1000 1000" style="enable-background:new 0 0 1000 1000;" xml:space="preserve">
<style type="text/css">
	.emailVerficiationErrorSvg .ic0{fill:#FFA9A9;}
	.emailVerficiationErrorSvg .ic1{fill:#FFFFFF;}
	.emailVerficiationErrorSvg .ic2{fill:#FE6464;}
	.emailVerficiationErrorSvg .ic3{fill:#EF0000;}
	.emailVerficiationErrorSvg .ic4{fill:#FFFFFF;stroke:#FFFFFF;stroke-width:2;stroke-miterlimit:10;}
</style>
<g class="emailVerficiationErrorSvg">
	<g>
		<path class="ic0" d="M938.8,355.5c1.1,0-11.5-9.8-28-21.9L501.1,35c-16.5-12-43.5-12-60.1,0L31.4,333.6
			c-16.5,12-31.9,23.5-30.2,21.9c0.1-0.1-0.3,16.7-0.3,37.1v478c0,20.4,16.7,37.1,37.1,37.1h861.5c20.4,0,37.1-16.7,37.1-37.1v-478
			C936.7,372.2,937.6,355.5,938.8,355.5z"/>
		<path class="ic1" d="M728.7,798.7H212c-3.7,0-6.6-3-6.6-6.6V271.7c0-3.7,3-6.6,6.6-6.6h516.7c3.7,0,6.6,3,6.6,6.6V792
			C735.3,795.8,732.4,798.7,728.7,798.7z"/>
		<path class="ic2" d="M27.3,906.6L939,355.4l1,526.6c0,0-14,26.6-40.5,26.6C872.9,908.6,27.3,906.6,27.3,906.6z"/>
		<path class="ic2" d="M469.4,638.9L-0.2,355.6l0.9,514.5c0,13.7,7,26.6,18.8,33.4c5,2.9,11.1,4.9,18.4,4.9c12.9,0,221.1,0,431.4,0
			V638.9H469.4z"/>
		<rect x="278" y="350.2" class="ic0" width="303.1" height="37.2"/>
		<rect x="278" y="424.7" class="ic0" width="192.1" height="37.2"/>
		<circle class="ic3" cx="814.6" cy="790.8" r="184.6"/>
		<path class="ic4" d="M828,695.1c0-7.3-5.9-13.3-13.3-13.3c-2.3,0-4.5,0.6-6.4,1.7c-4.3,2.1-7.3,6.6-7.3,11.8l0.1,24.7l0.4,85.7
			c0,3.5,1.4,6.8,3.9,9.3s5.9,3.9,9.3,3.9l0,0c3.5,0,6.9-1.4,9.4-3.9s3.9-5.8,3.9-9.4L828,695.1z"/>
	</g>
	<circle class="ic1" cx="814.5" cy="874.2" r="19"/>
</g>
</svg>
