<?xml version="1.0" encoding="utf-8"?>
<!-- Generator: Adobe Illustrator 22.1.0, SVG Export Plug-In . SVG Version: 6.00 Build 0)  -->
<svg version="1.1" id="Ebene_1" xmlns="http://www.w3.org/2000/svg" xmlns:xlink="http://www.w3.org/1999/xlink" x="0px" y="0px"
	 viewBox="0 0 1000 1000" style="enable-background:new 0 0 1000 1000;" xml:space="preserve">
<style type="text/css">
	.st0{fill:#87BDFF;}
	.st1{fill:#1D7BF1;}
</style>
<g>
	<g>
		<path class="st0" d="M814.9,306.7c6-5.7,11.4-12,16.2-18.7c5.2-7.5,8.1-16.3,8.4-25.5c-0.3-11.9-5.8-23-15.1-30.4
			s-21.4-10.2-33.1-7.8l0,0c-9.7,2.4-20.7,12.7-27,19.4c-7-7.9-15.9-16.4-27.6-19.5c-11.6-2.5-23.8,0.4-33.1,7.8
			c-9.3,7.4-14.9,18.5-15.1,30.4c0.1,9.2,3,18.1,8.2,25.6c4.8,6.8,10.2,13,16.2,18.7l46.9,47.1c1.2,1.2,2.8,1.9,4.4,1.9
			c1.7,0,3.3-0.7,4.5-1.9C769.1,353.4,799.7,322.2,814.9,306.7L814.9,306.7z"/>
	</g>
	<g>
		<path class="st0" d="M691.9,402.2c4.1-3.9,7.8-8.2,11.1-12.8c3.6-5.1,5.6-11.2,5.7-17.5c-0.2-8.1-4-15.8-10.4-20.8
			c-6.4-5.1-14.7-7-22.7-5.3l0,0c-6.7,1.6-14.2,8.7-18.5,13.3c-4.8-5.4-10.9-11.2-18.9-13.4c-8-1.7-16.3,0.3-22.7,5.3
			c-6.4,5.1-10.2,12.7-10.4,20.9c0.1,6.3,2.1,12.4,5.6,17.5c3.3,4.6,7,8.9,11.1,12.8l32.1,32.3c0.8,0.8,1.9,1.3,3,1.3
			c1.2,0,2.3-0.5,3.1-1.3C660.5,434.3,681.5,412.8,691.9,402.2L691.9,402.2z"/>
	</g>
	<g>
		<path class="st0" d="M689.8,197.1c4.1-3.9,7.8-8.2,11.1-12.8c3.6-5.1,5.6-11.2,5.7-17.5c-0.2-8.1-4-15.8-10.4-20.8
			c-6.4-5.1-14.7-7-22.7-5.3l0,0c-6.7,1.6-14.2,8.7-18.5,13.3c-4.8-5.4-10.9-11.2-18.9-13.4c-8-1.7-16.3,0.3-22.7,5.3
			c-6.4,5.1-10.2,12.7-10.4,20.9c0.1,6.3,2.1,12.4,5.6,17.5c3.3,4.6,7,8.9,11.1,12.8l32.1,32.3c0.8,0.8,1.9,1.3,3,1.3
			c1.2,0,2.3-0.5,3.1-1.3C658.4,229.2,679.3,207.8,689.8,197.1L689.8,197.1z"/>
	</g>
</g>
<path class="st1" d="M997.7,828.5v-17.8h0.1c0-11.3-5.1-22.2-14-29c-31.6-25.2-64.8-44.9-87.7-57.4l-28.9-16.9
	c0-0.1-0.1-0.2-0.1-0.4v-28.1c7.5-12.2,11.2-25.8,13.5-38c4.2-0.5,10.3-6.3,16.3-27.6c6.8-23.3,2.3-30.7-3.8-32.2
	c-1-1.6-2.3-2.7-3.8-3.3c1.3-5.2,3.5-16.6,3.4-30.2c5.7-49.7-16.9-59.6-27.8-61.5c-2-1.5-4-3-6.3-4.4l-12.2-15.5
	c-10.6-9.3-26-15.4-40.7-12.3c-23.8,5.1-73.2-0.5-73.2-0.5c-0.5,10.3,8.4,17.7,8.4,17.7c-20.4,12.5-29.1,31.4-32.4,49.6
	c-3.5,11.4-3.9,28.3,1.3,52.5c-7.6-0.3-15.2,5.3-7.2,33.6c3.1,11,6.1,18,8.9,22.4c3.3,8.2,6.4,12.4,9.1,14.2
	c2.4,10.3,5.9,21.1,11.8,31.1v28.9c0,1.4-0.5,2.8-1.9,3.3c-6.7,3.5-30.1,15.3-59,33.6c-23.4-15.8-45.5-28.7-62.6-38l-33.4-19.5
	c0-0.1-0.1-0.3-0.1-0.4V650c8.6-14.1,12.9-29.8,15.6-43.9c4.8-0.5,11.9-7.3,18.9-31.9c7.8-27,2.7-35.5-4.4-37.3
	c-1.2-1.9-2.7-3.1-4.4-3.8c1.5-6,4.1-19.2,4-34.9c6.6-57.5-19.5-68.9-32.1-71.1c-2.3-1.7-4.6-3.5-7.3-5.1l-14-18
	c-12.3-10.8-30.1-17.8-47.1-14.2c-27.5,5.9-84.6-0.5-84.6-0.5c-0.5,11.9,9.7,20.5,9.7,20.5c-23.6,14.5-33.7,36.3-37.5,57.3
	c-4,13.2-4.6,32.7,1.6,60.7c-8.8-0.3-17.5,6.1-8.3,38.8c3.5,12.8,7.1,20.9,10.3,25.8c3.8,9.5,7.3,14.4,10.5,16.4
	c2.8,11.9,6.8,24.4,13.6,35.9v33.4c0,1.6-0.5,3.2-2.1,3.8c-11.1,5.8-62.7,31.6-114.9,71.2c-21.1,2.6-34.8-3.7-42.7-4.7
	c-8.1-2.7-16-6-23.6-9.8l-1.6-0.8c-4-2.6-6.4-7-6.4-11.8v-24.7c0,0,54.8,1.7,80.8-24.9c0,0-37.9-10.7-31-79.6
	c6.8-68.9-8.5-129.3-63.9-124.2c0,0-24-28.9-71.8-10.7c-16.4,6.2-60.4,22-58.2,117.4c2.2,95.4-33.9,95.9-33.9,95.9
	s18.6,27.1,82,26.6v23.9c0,4.8-2.4,9.2-6.4,11.8l-1.4,0.8c-19.2,8.5-39.1,15.5-59.5,20.9c-12.9,3.4-25.5,8.1-37.5,13.9
	c-14.3,6.8-24,20.5-25.6,36.2v56.5H217v0.2h780.9v-37.5H997.7z"/>
</svg>
