<?xml version="1.0" encoding="utf-8"?>
<!-- Generator: Adobe Illustrator 22.1.0, SVG Export Plug-In . SVG Version: 6.00 Build 0)  -->
<svg version="1.1" id="Ebene_1" xmlns="http://www.w3.org/2000/svg" xmlns:xlink="http://www.w3.org/1999/xlink" x="0px" y="0px"
	 viewBox="0 0 1000 1000" style="enable-background:new 0 0 1000 1000;" xml:space="preserve">
<style type="text/css">
	.st0{fill:#87BDFF;}
	.st1{fill:#1D7BF1;}
</style>
<g>
	<g>
		<path class="st0" d="M957.1,365.1c9.8-9.3,18.6-19.5,26.4-30.5c8.6-12.2,13.3-26.6,13.6-41.5c-0.4-19.4-9.5-37.6-24.7-49.6
			s-35-16.7-53.9-12.7l0,0c-15.9,3.9-33.8,20.7-44,31.6c-11.5-12.9-25.9-26.7-45-31.8c-19-4-38.8,0.6-53.9,12.7
			c-15.2,12.1-24.2,30.2-24.7,49.6c0.2,14.9,4.9,29.5,13.4,41.7c7.8,11,16.7,21.3,26.5,30.5l76.4,76.9c1.9,1.9,4.5,3,7.2,3.1
			c2.8,0,5.5-1.1,7.4-3.1C882.3,441.4,932.1,390.4,957.1,365.1L957.1,365.1z"/>
	</g>
	<g>
		<path class="st0" d="M756.4,520.9c6.7-6.4,12.8-13.4,18.1-20.9c5.9-8.4,9.1-18.3,9.3-28.5c-0.3-13.3-6.5-25.7-16.9-34
			s-24-11.4-37-8.7l0,0c-10.9,2.7-23.2,14.2-30.2,21.7c-7.9-8.9-17.8-18.3-30.9-21.8c-13-2.7-26.6,0.4-37,8.7
			c-10.4,8.3-16.6,20.7-16.9,34c0.2,10.2,3.4,20.2,9.2,28.6c5.3,7.6,11.4,14.6,18.1,20.9l52.4,52.7c1.3,1.3,3.1,2.1,4.9,2.1
			c1.9,0,3.7-0.8,5.1-2.1C705.2,573.2,739.3,538.3,756.4,520.9L756.4,520.9z"/>
	</g>
	<g>
		<path class="st0" d="M752.9,186.5c6.7-6.4,12.8-13.4,18.1-20.9c5.9-8.4,9.1-18.3,9.3-28.5c-0.3-13.3-6.5-25.7-16.9-34
			s-24-11.4-37-8.7l0,0c-10.9,2.7-23.2,14.2-30.2,21.7c-7.9-8.9-17.8-18.3-30.9-21.8c-13-2.7-26.6,0.4-37,8.7s-16.6,20.7-16.9,34
			c0.2,10.2,3.4,20.2,9.2,28.6c5.3,7.6,11.4,14.6,18.1,20.9l52.4,52.7c1.3,1.3,3.1,2.1,4.9,2.1c1.9,0,3.7-0.8,5.1-2.1
			C701.7,238.8,735.9,203.8,752.9,186.5L752.9,186.5z"/>
	</g>
	<path class="st1" d="M749,906V803.7c0-21.3-9.7-41.8-26.4-54.6c-59.5-47.5-122.2-84.7-165.3-108.3c0.5-0.4-1.7-0.4-1.3-0.8
		c-24.8-14.6-42-25.4-53.1-31c0-0.2-0.1-0.4-0.1-0.7v-52.9c14.1-23,21.1-48.6,25.5-71.7c7.9-0.9,19.3-11.9,30.8-52.1
		c12.8-44-4.6-61.7-16.1-64.6c-2-3.1,1.7-0.9-1-2c2.4-9.7,9.5-31.7,9.3-57.4c10.7-93.7-31.9-112.4-52.4-115.9
		c-3.8-2.9-7.5-5.7-11.8-8.3l-23-29.2c-20-17.5-49-29.1-76.8-23.1c-44.8,9.7-138.1-0.9-138.1-0.9c-0.9,19.3,15.8,33.4,15.8,33.4
		c-38.5,23.6-54.9,59.3-61.1,93.5c-6.6,21.6-7.4,53.3,2.5,99c-14.3-0.6-28.6,9.9-13.6,63.3c5.8,20.8,11.5,34,16.8,42.1
		c6.1,15.5,12,23.4,17.2,26.8c4.5,19.4,11.1,39.8,22.2,58.5v54.5c0,2.6-0.9,5.3-3.5,6.1c-20.2,10.5-122.3,61.6-216.4,139
		C12.6,759.9,2.9,781,2.9,803v103.7"/>
</g>
</svg>
