<?xml version="1.0" encoding="utf-8"?>
<!-- Generator: Adobe Illustrator 23.0.1, SVG Export Plug-In . SVG Version: 6.00 Build 0)  -->
<svg version="1.1" id="Isolationsmodus" xmlns="http://www.w3.org/2000/svg" xmlns:xlink="http://www.w3.org/1999/xlink" x="0px"
	 y="0px" viewBox="0 0 1000 1000" style="enable-background:new 0 0 1000 1000;" xml:space="preserve">
<style type="text/css">
	.st0{fill:#1C7BF1;}
	.st1{fill:#87BDFF;}
</style>
<g>
	<path class="st0" d="M27.4,506.3c-37.9,19.9-36.3,49,3.4,64.7l117.6,46.6c39.7,15.8,99.8,7.2,133.6-19.1l510.9-402.9
		c33.6-26.4,37.2-22.5,8,8.7L397,636.5c-29.3,31.1-20.6,69.4,19.3,84.8l13.8,5.4c39.9,15.4,104.8,41.3,144.5,57.4L705,837.1
		c39.6,16.1,82-2.9,93.2-44.1L997.1,62.1c11.2-41.3-10.6-58.8-48.4-38.9L27.4,506.3z"/>
	<path class="st1" d="M350.3,984.7c-2.3,7,80.5-119.8,80.5-119.8c23.4-35.7,10.1-78.4-29.4-94.6l-90.3-37
		c-39.5-16.2-58.5,2.8-42.1,42.3C268.9,775.7,352.6,977.6,350.3,984.7L350.3,984.7z"/>
</g>
</svg>
