<svg width="151" height="151" viewBox="0 0 151 151" fill="none" xmlns="http://www.w3.org/2000/svg">
<path d="M53.2843 118.172L30.915 130.376C29.6239 131.098 28.4177 131.963 27.3189 132.953C40.784 144.289 57.8079 150.526 75.4092 150.573C93.0104 150.619 110.067 144.472 123.592 133.208C122.39 132.168 121.069 131.274 119.656 130.546L95.7295 118.569C94.2148 117.804 92.9418 116.635 92.0521 115.19C91.1623 113.745 90.6905 112.082 90.6893 110.385V100.985C91.4936 100.081 92.2498 99.1361 92.9545 98.1531C96.1937 93.5531 98.7055 88.4818 100.402 83.1175C101.944 82.6557 103.297 81.7099 104.261 80.4199C105.225 79.1298 105.748 77.5639 105.753 75.9537V65.845C105.759 64.7763 105.537 63.7186 105.103 62.7422C104.668 61.7658 104.031 60.893 103.233 60.1819V45.8258C103.233 45.8258 106.065 23.1733 75.6254 23.1733C45.1861 23.1733 48.0176 45.8258 48.0176 45.8258V60.2668C47.2198 60.9779 46.5825 61.8507 46.148 62.8271C45.7135 63.8035 45.4918 64.8612 45.4975 65.9299V75.9537C45.5066 77.2168 45.8297 78.4578 46.4377 79.565C47.0457 80.6722 47.9194 81.6108 48.9804 82.2964C50.6585 89.1229 53.7554 95.5194 58.0697 101.07V110.244C58.0528 111.872 57.6001 113.467 56.7585 114.861C55.917 116.255 54.7174 117.399 53.2843 118.172Z" fill="#0079B3"/>
<mask id="path-2-inside-1" fill="white">
<path d="M77.0416 0.521225C61.5292 0.210971 46.3027 4.7206 33.4612 13.4284C20.6197 22.1361 10.7958 34.6131 5.34388 49.1391C-0.108031 63.6651 -0.919423 79.5247 3.02158 94.5313C6.96258 109.538 15.4619 122.952 27.3476 132.925C28.4302 131.956 29.6174 131.111 30.8871 130.405L53.2847 118.173C54.7271 117.391 55.9308 116.233 56.7684 114.822C57.6059 113.411 58.0459 111.8 58.0418 110.159V100.985C53.726 95.4291 50.6378 89.0209 48.9808 82.1835C47.913 81.5121 47.0333 80.5805 46.4241 79.476C45.8149 78.3715 45.4962 77.1304 45.4979 75.8691V65.8454C45.4922 64.7767 45.7139 63.719 46.1484 62.7426C46.5829 61.7662 47.2202 60.8934 48.018 60.1823V45.8262C48.018 45.8262 45.0449 23.1737 75.6258 23.1737C106.207 23.1737 103.234 45.8262 103.234 45.8262V60.2672C104.028 60.9798 104.661 61.8535 105.09 62.83C105.52 63.8065 105.736 64.8635 105.725 65.9303V75.9541C105.722 77.5607 105.203 79.1239 104.245 80.4135C103.286 81.7031 101.939 82.6511 100.402 83.1179C98.6883 88.4751 96.1778 93.5438 92.9549 98.1535C92.1338 99.3145 91.3409 100.306 90.6897 100.985V110.386C90.6909 112.083 91.1627 113.746 92.0525 115.19C92.9422 116.635 94.2152 117.805 95.7299 118.569L119.713 130.547C121.121 131.271 122.442 132.155 123.649 133.18C135.399 123.385 143.874 110.233 147.939 95.4868C152.005 80.7402 151.466 65.1033 146.396 50.6714C141.326 36.2395 131.966 23.7019 119.57 14.7387C107.174 5.77545 92.3355 0.81473 77.0416 0.521225Z"/>
</mask>
<path d="M77.0416 0.521225C61.5292 0.210971 46.3027 4.7206 33.4612 13.4284C20.6197 22.1361 10.7958 34.6131 5.34388 49.1391C-0.108031 63.6651 -0.919423 79.5247 3.02158 94.5313C6.96258 109.538 15.4619 122.952 27.3476 132.925C28.4302 131.956 29.6174 131.111 30.8871 130.405L53.2847 118.173C54.7271 117.391 55.9308 116.233 56.7684 114.822C57.6059 113.411 58.0459 111.8 58.0418 110.159V100.985C53.726 95.4291 50.6378 89.0209 48.9808 82.1835C47.913 81.5121 47.0333 80.5805 46.4241 79.476C45.8149 78.3715 45.4962 77.1304 45.4979 75.8691V65.8454C45.4922 64.7767 45.7139 63.719 46.1484 62.7426C46.5829 61.7662 47.2202 60.8934 48.018 60.1823V45.8262C48.018 45.8262 45.0449 23.1737 75.6258 23.1737C106.207 23.1737 103.234 45.8262 103.234 45.8262V60.2672C104.028 60.9798 104.661 61.8535 105.09 62.83C105.52 63.8065 105.736 64.8635 105.725 65.9303V75.9541C105.722 77.5607 105.203 79.1239 104.245 80.4135C103.286 81.7031 101.939 82.6511 100.402 83.1179C98.6883 88.4751 96.1778 93.5438 92.9549 98.1535C92.1338 99.3145 91.3409 100.306 90.6897 100.985V110.386C90.6909 112.083 91.1627 113.746 92.0525 115.19C92.9422 116.635 94.2152 117.805 95.7299 118.569L119.713 130.547C121.121 131.271 122.442 132.155 123.649 133.18C135.399 123.385 143.874 110.233 147.939 95.4868C152.005 80.7402 151.466 65.1033 146.396 50.6714C141.326 36.2395 131.966 23.7019 119.57 14.7387C107.174 5.77545 92.3355 0.81473 77.0416 0.521225Z" fill="white" stroke="#0079B3" stroke-width="2" mask="url(#path-2-inside-1)"/>
<path d="M148.593 114.009C144.519 111.635 139.891 112.896 136.725 114.372L127.29 118.772L111.062 110.61L101.398 111.025L114.799 124.61L106.259 128.667L97.3734 125.286L91.4245 128.06L96.8007 134.736C96.2327 135.413 95.718 136.367 96.1852 137.369C96.7955 138.678 98.5994 139.338 101.558 139.337C102.165 139.337 102.82 139.31 103.524 139.254C106.772 138.998 110.293 138.169 112.495 137.142L146.223 121.414C149.136 120.056 150.587 118.629 150.659 117.053C150.696 116.236 150.368 115.044 148.593 114.009ZM145.192 119.204L111.464 134.932C109.588 135.806 106.509 136.539 103.618 136.799C100.664 137.064 99.0842 136.731 98.5577 136.448C98.6661 136.3 98.8685 136.067 99.242 135.738L100.118 134.967L95.2761 128.954L97.4693 127.932L106.364 131.317L118.944 125.341L106.994 113.226L110.533 113.074L127.249 121.481L137.756 116.582C141.593 114.793 144.826 114.637 147.365 116.116C148.005 116.489 148.228 116.814 148.223 116.942C148.222 116.951 148.149 117.825 145.192 119.204Z" fill="#0079B3"/>
<path d="M145.108 119.229L111.38 134.957C109.504 135.832 106.424 136.565 103.534 136.824C100.58 137.089 98.9999 136.756 98.4734 136.474C98.5818 136.325 98.7842 136.092 99.1577 135.763L100.034 134.992L95.1918 128.98L97.385 127.957L106.28 131.342L118.86 125.366L106.91 113.251L110.449 113.099L127.165 121.507L137.671 116.608C141.508 114.819 144.741 114.662 147.281 116.142C147.92 116.514 148.144 116.84 148.138 116.967C148.138 116.976 148.065 117.851 145.108 119.229Z" fill="white"/>
</svg>
