<?xml version="1.0" encoding="utf-8"?>
<!-- Generator: Adobe Illustrator 22.1.0, SVG Export Plug-In . SVG Version: 6.00 Build 0)  -->
<svg version="1.1" id="Ebene_1" xmlns="http://www.w3.org/2000/svg" xmlns:xlink="http://www.w3.org/1999/xlink" x="0px" y="0px"
	 viewBox="0 0 91.7 75" style="enable-background:new 0 0 91.7 75;" xml:space="preserve">
<style type="text/css">
	.st0{fill:#FFFFFF;}
</style>
<path class="st0" d="M87.3,31H84c-0.3,0-0.6-0.3-0.6-0.6v-7c0-12.3-9.3-22.8-21.7-23.4C48.6-0.5,37.9,9.8,37.9,22.8v7.6
	c0,0.3-0.3,0.6-0.6,0.6H34c-2.4,0-4.3,1.9-4.3,4.3V38c0,0.5,0.5,1,1,1h9.5c1.3,0,2.4,1.1,2.4,2.4c0,1.3-1.1,2.4-2.4,2.4h-9.6
	c-0.5,0-1,0.5-1,1v4.8c0,0.5,0.5,1,1,1h9.6c1.3,0,2.4,1.1,2.4,2.4s-1.1,2.4-2.4,2.4h-9.6c-0.5,0-1,0.5-1,1V61c0,0.5,0.5,1,1,1h9.6
	c1.3,0,2.4,1.1,2.4,2.4s-1.1,2.4-2.4,2.4h-9.6c-0.5,0-1,0.5-1,1v2.9c0,2.4,1.9,4.3,4.3,4.3h53.4c2.4,0,4.3-1.9,4.3-4.3V35.5
	C91.6,32.9,89.7,31,87.3,31L87.3,31z M75.8,30.4c0,0.3-0.3,0.6-0.6,0.6H46.1c-0.3,0-0.6-0.3-0.6-0.6v-7.1c0-8.1,6-15,14-15.6
	c8.8-0.6,16.1,6.3,16.1,15L75.8,30.4L75.8,30.4L75.8,30.4z"/>
</svg>
