<svg xmlns="http://www.w3.org/2000/svg" viewBox="0 0 536.56 142.46"><defs><style>.cls-1,.cls-3{fill:#1274bb;}.cls-2{fill:#00a452;}.cls-3{font-size:19px;font-family:BRFirma-Light, BR Firma;font-weight:300;}.cls-4{letter-spacing:-0.01em;}.cls-5{letter-spacing:0em;}.cls-6{letter-spacing:-0.01em;}.cls-7{letter-spacing:-0.02em;}.cls-8{letter-spacing:-0.02em;}.cls-9{letter-spacing:-0.01em;}.cls-10{letter-spacing:0em;}</style></defs><g id="Layer_2" data-name="Layer 2"><g id="Layer_1-2" data-name="Layer 1"><path class="cls-1" d="M104.89,33.5V98.89c0,24.94-14.64,39.59-40.74,39.59-14.36,0-27-4.21-34.95-11.6l9.28-14.94a41,41,0,0,0,24.36,8.41c13.92,0,22-8,22-21.46V93.24c-4.2,8.26-13.34,13.19-24.5,13.19C41.24,106.43,27,91.06,27,69.31S41.38,31.47,60.52,31.47c10.59,0,20,4.78,24.22,12.9V33.5ZM66.61,49.74c-11.16,0-18.56,7.83-18.56,19.28s7.4,19.29,18.56,19.29S85.17,80.48,85.17,69,77.78,49.74,66.61,49.74Z"/><path class="cls-1" d="M172.46,52.64a48.32,48.32,0,0,0-9-.87c-12.61,0-18.27,5.94-18.27,19.86v35.82H124.61V33.5h20.16V45.68c3.62-8.56,11.6-13.63,21.46-13.63a16.15,16.15,0,0,1,6.23,1Z"/><path class="cls-1" d="M218.14,31.47c23.78,0,39.58,17.11,39.58,39s-15.8,39-39.58,39-39.44-17.26-39.44-39S194.36,31.47,218.14,31.47Zm0,18.56c-11.46,0-18.56,8.12-18.56,20.44s7.1,20.45,18.56,20.45S236.7,82.8,236.7,70.47,229.59,50,218.14,50Z"/><path class="cls-1" d="M279,51.48H265.41v-18H279V24.65C279,8.27,288.17,0,306.3,0a64.8,64.8,0,0,1,12.47,1.3V18.71a44.61,44.61,0,0,0-8.27-.87c-7.68,0-10.87,2.75-10.87,9V33.5h19.14v18H299.63v56H279Z"/><path class="cls-1" d="M331.24,1.3h20.59V107.45H331.24Z"/><path class="cls-1" d="M388.08,76.56c1.88,10.3,8.84,15.37,19.86,15.37,7.83,0,14.21-2.61,19.14-8l11.75,12.18c-7.11,8.55-18.13,13.34-31.61,13.34-23.93,0-39.88-15.23-39.88-38.72,0-22.91,15.23-39.29,37.85-39.29,21.89,0,36.39,15.08,36.39,38a62,62,0,0,1-.43,7.1Zm33.06-13.34c-.73-9.28-6.38-14.35-15.81-14.35s-15.51,5.07-17.25,14.35Z"/><path class="cls-2" d="M512.05,107.45,490,72.36l-22.18,35.09H443.47l33.35-51.62L444.48,6h23.93L490,39.88,511.62,6H535.4L503.06,55.68l33.5,51.77Z"/><text class="cls-3" transform="translate(124.56 137.58) scale(1.1 1)">fl<tspan class="cls-4" x="11.8" y="0">e</tspan><tspan class="cls-5" x="22.88" y="0">xible solutions</tspan><tspan class="cls-6" x="153" y="0"> </tspan><tspan class="cls-7" x="157.24" y="0">f</tspan><tspan x="164.04" y="0">or g</tspan><tspan class="cls-8" x="200.35" y="0">r</tspan><tspan class="cls-9" x="207.25" y="0">o</tspan><tspan x="219.03" y="0">wing busine</tspan><tspan class="cls-10" x="328.88" y="0">s</tspan><tspan x="338.44" y="0">ses</tspan></text><rect class="cls-1" x="5.7" y="98.33" width="17" height="22.79" transform="translate(-84.59 59.9) rotate(-55.86)"/></g></g></svg>