<svg xmlns="http://www.w3.org/2000/svg" viewBox="0 0 824.88 164.61"><defs><style>.cls-1{fill:#fff;}</style></defs><g id="Layer_2" data-name="Layer 2"><g id="Layer_1-2" data-name="Layer 1"><path class="cls-1" d="M393.22,39.56V105c0,24.94-14.64,39.58-40.75,39.58-14.35,0-27-4.2-34.94-11.6L326.81,118a41,41,0,0,0,24.36,8.41c13.92,0,22-8,22-21.46V99.3c-4.21,8.27-13.34,13.2-24.51,13.2-19.14,0-33.35-15.37-33.35-37.12s14.36-37.85,33.5-37.85c10.58,0,20,4.79,24.22,12.91V39.56ZM354.94,55.8c-11.17,0-18.56,7.83-18.56,19.29s7.39,19.28,18.56,19.28,18.56-7.83,18.56-19.28S366.11,55.8,354.94,55.8Z"/><path class="cls-1" d="M460.79,58.7a48.4,48.4,0,0,0-9-.87c-12.62,0-18.27,6-18.27,19.87v35.81H412.94V39.56h20.15V51.74c3.63-8.55,11.6-13.63,21.46-13.63a16,16,0,0,1,6.24,1Z"/><path class="cls-1" d="M506.46,37.53c23.78,0,39.59,17.11,39.59,39s-15.81,39-39.59,39S467,98.29,467,76.54C467,54.64,482.68,37.53,506.46,37.53Zm0,18.56c-11.45,0-18.56,8.12-18.56,20.45S495,97,506.46,97,525,88.86,525,76.54,517.92,56.09,506.46,56.09Z"/><path class="cls-1" d="M567.36,57.54H553.73v-18h13.63V30.72c0-16.39,9.14-24.65,27.26-24.65a63.94,63.94,0,0,1,12.47,1.3v17.4a44.51,44.51,0,0,0-8.26-.87c-7.69,0-10.88,2.76-10.88,9v6.67h19.14v18H588v56H567.36Z"/><path class="cls-1" d="M619.56,7.37h20.59V113.51H619.56Z"/><path class="cls-1" d="M676.4,82.63C678.29,92.92,685.25,98,696.27,98c7.83,0,14.21-2.61,19.14-8l11.74,12.18c-7.1,8.56-18.12,13.34-31.61,13.34-23.92,0-39.87-15.22-39.87-38.71,0-22.91,15.22-39.3,37.84-39.3,21.9,0,36.4,15.08,36.4,38a62.28,62.28,0,0,1-.44,7.11Zm33.06-13.34c-.72-9.28-6.38-14.36-15.8-14.36S678.14,60,676.4,69.29Z"/><path class="cls-1" d="M800.38,113.51l-22-35.09-22.19,35.09H731.79l33.35-51.62L732.81,12h23.92l21.61,33.93L799.94,12h23.78L791.39,61.75l33.49,51.76Z"/><rect class="cls-1" x="294.03" y="104.39" width="17" height="22.79" transform="translate(36.92 301.21) rotate(-55.86)"/><path id="Path_48" data-name="Path 48" class="cls-1" d="M28.3,143.46,0,122.46l14.06-22.38,28.3,21Z"/><polygon class="cls-1" points="149 2.77 150.95 2.77 163.15 26.07 175.54 2.98 206.09 2.98 178.59 48.41 209.82 99.61 177.91 99.61 162.64 71.68 149 99.61 149 2.77"/><path class="cls-1" d="M118.05,2.75v16.6A46.42,46.42,0,0,0,93.52,1.73a46.47,46.47,0,0,0-25,0,53.89,53.89,0,0,0-24,13.91C30,30.38,25.63,53.57,31.52,73.28c.87,2.91,9.73,30.93,36,38.76,4.09,1.22,18.21,5.19,33-2a43.58,43.58,0,0,0,17.75-16.12c-.09,1-.19,2.26-.25,3.7a5.61,5.61,0,0,0,0,1.61c.93.46,10-16,13-21.49,3.74-6.8,9.27-16.78,16.19-29.1Zm-46,78c-9.91-8.13-10-20.41-10-23.86s-.08-13.41,7.25-21.06C77.63,27.12,92.4,24.8,104,31c13,7,16.67,21.78,15,31.81a29.3,29.3,0,0,1-5,11.92,29.72,29.72,0,0,1-13,9.94C100.25,85,84.34,90.84,72,80.74Z"/><path class="cls-1" d="M120.64,100c.18,2.58,1,19.16-10.88,29.26-5.89,5-12.41,6.27-16.1,7-12.61,2.48-23-1.58-29.19-4a67.84,67.84,0,0,1-16.11-9L34,146.17c35.68,25.46,78.56,23.33,99.9,1.07C150,130.48,149.45,106.89,149,99.61"/></g></g></svg>