<?xml version="1.0" encoding="utf-8"?>
<!-- Generator: Adobe Illustrator 22.1.0, SVG Export Plug-In . SVG Version: 6.00 Build 0)  -->
<svg version="1.1" id="Ebene_1" xmlns="http://www.w3.org/2000/svg" xmlns:xlink="http://www.w3.org/1999/xlink" x="0px" y="0px"
	 viewBox="0 0 1000 1000" style="enable-background:new 0 0 1000 1000;" xml:space="preserve">
<style type="text/css">
	.st0{fill:#87BDFF;}
	.st1{fill:#1D7BF1;}
</style>
<g>
	<g>
		<path class="st0" d="M605.6,120.7l51.9-105.6c3-6-1.4-13.1-8.2-13.1H350.7c-6.7,0-11.1,7.1-8.2,13.1l51.9,105.6H605.6z"/>
	</g>
	<path class="st1" d="M661.9,179H547.2l37.2,74.5l-52.2,26.1L500,215.1l-32.3,64.5l-52.2-26.1l37.2-74.5H338.1
		C190.2,300.3,62.3,551.9,62.3,703.3C62.3,997,391.7,998,500,998s437.7-1,437.7-294.7C937.7,551.9,809.8,300.3,661.9,179z
		 M629.9,780.3c-24.5,16.6-57.6,28.7-95.7,28.7c-74.1,0-140.1-39-168.1-107.8c-1.9-4.7-6.4-7.8-11.5-7.8h-29.4
		c-7.1,0-12.8-5.7-12.8-12.8l0,0V655c0-7.1,5.7-12.8,12.8-12.8h26.9c-0.5-9.8-0.5-12.5-0.5-17.4c0-4.4,0-8.7,0.5-17.5h-26.9
		c-7.1,0-12.8-5.7-12.8-12.8V569c0-7.1,5.7-12.8,12.8-12.8h29.4c5.1,0,9.6-3.1,11.5-7.8c28.1-69.3,95.6-109.9,168.1-109.9
		c34.1,0,60.6,6.8,83,18.8c6,3.2,8.5,10.9,5.5,17L606.3,508c-3.2,6.5-11.1,9.4-17.7,6.4c-15.2-7.1-33.8-10.5-54.4-10.5
		c-37.1,0-72.5,16.4-92.1,52.3h105.1c7.1,0,12.8,5.7,12.8,12.8v0.1l-0.2,25.6c0,7-5.8,12.7-12.8,12.7H427.9c-1.1,7.7-1.1,12-1.1,18
		c0,3.3,0,7.1,1.1,16.9h113.6c7.1,0,12.8,5.7,12.8,12.8c0,0,0,0,0,0.1l-0.1,25.6c0,7-5.7,12.7-12.8,12.7h-97.7
		c19.1,33.3,52.9,49.1,90.5,49.1c24,0,45.1-5.8,61.5-16c6-3.7,13.8-1.9,17.5,4l20.3,32.3C637.2,768.6,635.5,776.5,629.9,780.3z"/>
</g>
</svg>
