<?xml version="1.0" encoding="utf-8"?>
<!-- Generator: Adobe Illustrator 22.1.0, SVG Export Plug-In . SVG Version: 6.00 Build 0)  -->
<svg version="1.1" id="Ebene_1" xmlns="http://www.w3.org/2000/svg" xmlns:xlink="http://www.w3.org/1999/xlink" x="0px" y="0px"
	 viewBox="0 0 1000 1000" style="enable-background:new 0 0 1000 1000;" xml:space="preserve">
<style type="text/css">
	.st0{fill:#1D7BF1;}
	.st1{fill:#87BDFF;}
</style>
<g>
	<path class="st0" d="M780.3,225.1v160.6c-42.2,23.7-84.4,47.4-126.6,71.1V322.2c0-17.7-19.9-29.3-35.3-20.3
		c-33.4,19.7-66.7,39.4-100.1,59.2c-53,31.3-106,62.6-158.9,93.9c-0.4,0.2-0.7,0.5-1.2,0.7V322.2c0-17.1-20.2-30.1-35.3-20.3
		c-34,22-67.4,45.1-102.6,65.2c-39.8,22.7-79.5,45.4-119.4,68c-24.2,13.8-48.3,27.6-72.5,41.3c-7.1,4.1-11.6,12.1-11.6,20.3v417.5
		c0,19.3-0.5,38.7,0,58.1v0.8c0,12.7,10.8,23.4,23.4,23.4h881.7c12,0,23.9,0.2,36,0h1.5c12.7,0,23.4-10.8,23.4-23.4l0-747.9
		L780.3,225.1z M197.6,808.4V685.3c0-6.3,5.4-11.2,11.7-11.2h191.1c6.3,0,11.7,4.8,11.7,11.2v123.1c0,3.7-1.4,6.7-3.5,8.5
		c-1.9,2.1-4.7,3.8-8.2,3.8H209.4C203,820.7,197.6,814.7,197.6,808.4L197.6,808.4z M802.6,808.4c0,3.7-1.4,6.7-3.5,8.5
		c-1.9,2.1-4.7,3.8-8.2,3.8H599.8c-6.3,0-11.7-6-11.7-12.3V685.3c0-6.3,5.4-11.2,11.7-11.2h191.1c6.3,0,11.7,4.8,11.7,11.2V808.4z"
		/>
	<path class="st1" d="M983.2,64.3v88.1H780.3V26.9c0-12.7,10.8-23.4,23.4-23.4h155.9c12.7-0.6,23.4,11.2,23.4,23.4v1.5v0.1
		C983.4,40.4,983.2,52.3,983.2,64.3L983.2,64.3z"/>
</g>
</svg>
