<?xml version="1.0" encoding="utf-8"?>
<!-- Generator: Adobe Illustrator 23.0.6, SVG Export Plug-In . SVG Version: 6.00 Build 0)  -->
<svg version="1.1" id="Ebene_1" xmlns="http://www.w3.org/2000/svg" xmlns:xlink="http://www.w3.org/1999/xlink" x="0px" y="0px"
	 viewBox="0 0 500 500" style="enable-background:new 0 0 500 500;" xml:space="preserve">
<style type="text/css">
	.st0{fill:#3278AE;}
	.st1{fill:#FFFFFF;}
</style>
<g>
	<path id="Pfad_5" class="st0" d="M0,492.4l193.6-126.8L0,239.7V492.4z"/>
	<path id="Pfad_6" class="st0" d="M7.4,223.2l37.2,24.2v-48.6L7.4,223.2z"/>
	<path id="Pfad_7" class="st0" d="M500,492.4V239.8L307.2,366.1L500,492.4z"/>
	<path id="Pfad_8" class="st0" d="M455.4,247.7l37.3-24.5l-37.3-24.5V247.7z"/>
	<path id="Pfad_9" class="st1" d="M348.2,89.3h76.7l-76.7-76.7V89.3z"/>
	<path id="Pfad_10" class="st0" d="M251.1,402.9L210,376.2L21,500h458L290.9,376.8L251.1,402.9z"/>
	<path id="Pfad_11" class="st1" d="M330.4,107.1V0H62.5v259L251,381.6l186.5-122.2V107.2L330.4,107.1z M197.5,229.1
		c-9.2,5.3-20.5,7.9-34.1,7.9c-15.1,0-27-4.2-35.7-12.6c-8.7-8.4-13-19.9-13-34.5c0-14.7,4.8-26.7,14.3-36s22.2-13.9,37.9-13.9
		c8.9-0.2,17.8,1.3,26.3,4.2V164c-8.1-4.4-17.3-6.6-26.5-6.3c-8-0.3-15.8,2.8-21.4,8.5c-5.7,6.2-8.7,14.4-8.3,22.8
		c0,9.6,2.5,17.1,7.4,22.4c5.2,5.4,12.5,8.3,20,7.9c4.1,0.2,8.2-0.5,12-2.1v-18.3h-18.8V182h39.9V229.1z M285.8,222.3
		c-1.9,3.5-4.7,6.5-8.1,8.6c-3.6,2.3-7.7,3.9-11.9,4.7c-4.7,1-9.5,1.4-14.3,1.4c-4.9,0-9.8-0.4-14.7-1.3c-4.2-0.7-8.3-2.1-12.1-3.9
		v-20.9c3.7,3.1,7.8,5.5,12.4,7.2c4.3,1.6,8.9,2.4,13.5,2.4c2.3,0,4.7-0.2,7-0.7c1.8-0.4,3.4-1.1,5-2c1.2-0.7,2.2-1.8,3-3
		c0.7-1.1,1-2.4,1-3.8c0-1.8-0.5-3.5-1.6-4.9c-1.2-1.6-2.6-2.9-4.3-4c-2-1.4-4.2-2.5-6.4-3.5c-2.5-1.1-5.2-2.3-8-3.5
		c-6.3-2.3-11.9-6.2-16.4-11.2c-3.6-4.5-5.5-10.2-5.4-16c-0.1-4.4,0.9-8.7,3-12.6c1.9-3.5,4.7-6.5,8-8.7c3.6-2.4,7.6-4,11.7-5
		c4.6-1.1,9.4-1.6,14.1-1.6c4.3,0,8.7,0.3,13,0.9c3.6,0.5,7.1,1.5,10.4,2.7v19.6c-1.6-1.1-3.3-2.1-5.1-2.9c-1.9-0.8-3.8-1.5-5.7-2.1
		c-1.9-0.5-3.9-0.9-5.8-1.2c-1.8-0.3-3.7-0.4-5.5-0.4c-2.2,0-4.4,0.2-6.5,0.7c-1.7,0.4-3.4,1-5,1.9c-1.3,0.7-2.3,1.8-3.1,3
		c-0.7,1.2-1.1,2.5-1.1,3.9c0,1.5,0.4,3,1.2,4.2c1,1.4,2.2,2.6,3.5,3.5c1.8,1.2,3.6,2.3,5.6,3.3c2.2,1.1,4.6,2.2,7.4,3.3
		c3.5,1.4,6.9,3.1,10.1,5c2.8,1.6,5.4,3.7,7.7,6c2.1,2.2,3.8,4.8,4.9,7.6C289.7,206.8,289.3,215.1,285.8,222.3L285.8,222.3z
		 M383.5,159.1h-26.8l-0.1,76.6h-21.2l0.1-76.6h-26.6v-17.2l74.5,0.1L383.5,159.1z"/>
</g>
</svg>
