<svg width="100%" height="100%" viewBox="0 0 91 91" fill="none" xmlns="http://www.w3.org/2000/svg">
<circle cx="45.7642" cy="45.6044" r="44.0536" fill="white" stroke="url(#paint0_linear)" stroke-width="2"/>
<g clip-path="url(#clip0)">
<path d="M62.6821 56.344C61.5355 53.9537 57.4339 50.6357 53.471 47.4299C51.2607 45.6431 49.1722 43.9538 47.8407 42.6224C47.5072 42.2864 47.0082 42.1793 46.5676 42.3375C45.7474 42.6346 45.241 42.8633 44.8418 43.041C44.2333 43.3136 44.0288 43.4061 43.2084 43.4889C42.8457 43.5254 42.5196 43.7201 42.3175 44.0219C40.5965 46.5949 38.8146 46.3758 37.6243 45.9767C37.2446 45.8501 37.1765 45.6869 37.1399 45.5312C36.8843 44.4626 38.1672 41.9748 39.8297 40.3122C43.7853 36.3542 45.8252 35.3634 50.1337 37.2889C55.0216 39.4748 59.9193 41.1861 59.968 41.2031C60.6082 41.4246 61.2971 41.0887 61.5185 40.4534C61.7376 39.818 61.4041 39.1243 60.7688 38.9028C60.72 38.8858 55.9198 37.2086 51.1293 35.064C45.5477 32.5689 42.4854 34.212 38.1111 38.5888C36.4461 40.2538 34.1846 43.6227 34.7689 46.0935C35.0195 47.1451 35.7596 47.9241 36.8598 48.2867C39.6178 49.1971 42.1347 48.3256 44.0091 45.8379C44.7832 45.7187 45.2043 45.5434 45.8372 45.2586C46.0659 45.1564 46.3337 45.0371 46.6892 44.8935C48.0816 46.2006 49.9607 47.722 51.9398 49.3213C55.5181 52.2155 59.5759 55.4969 60.4888 57.3956C60.9391 58.3327 60.4546 58.9438 60.126 59.2236C59.644 59.6375 58.9844 59.7689 58.6266 59.5181C58.2322 59.248 57.7187 59.2309 57.3121 59.4743C56.9032 59.7177 56.6744 60.1778 56.7255 60.6501C56.8082 61.4241 56.0999 61.8672 55.7932 62.0206C55.0142 62.4149 54.2012 62.3468 53.8969 62.0644C53.556 61.748 53.0668 61.6554 52.6335 61.8161C52.2003 61.9791 51.8983 62.3784 51.8545 62.8409C51.7815 63.6392 51.19 64.406 50.4183 64.7054C50.0459 64.8466 49.5055 64.9318 49.0211 64.4887C48.7193 64.2161 48.3005 64.1114 47.9087 64.2063C47.512 64.3037 47.193 64.591 47.0543 64.9731C47.0081 65.0949 46.9033 65.387 45.7641 65.387C44.9535 65.387 43.4954 64.8393 42.7823 64.367C41.9278 63.8047 36.5701 59.8077 31.9427 55.9324C31.2928 55.3847 30.1682 54.2114 29.175 53.1744C28.2938 52.2543 27.4881 51.4194 27.0743 51.0689C26.5558 50.6307 25.789 50.6964 25.3582 51.2125C24.9249 51.7261 24.9881 52.4954 25.5018 52.9287C25.8792 53.2476 26.6094 54.0191 27.4151 54.8589C28.5008 55.9933 29.6229 57.1666 30.3776 57.7995C34.9101 61.5945 40.3579 65.6913 41.4435 66.4044C42.3393 66.9935 44.2696 67.8211 45.7642 67.8211C46.9643 67.8211 47.8869 67.546 48.527 67.0082C49.3838 67.3417 50.3576 67.3441 51.2947 66.9789C52.4023 66.5505 53.3127 65.6864 53.8288 64.6397C54.7878 64.8442 55.8857 64.7005 56.8837 64.1991C57.8598 63.7075 58.5657 62.9553 58.9162 62.0765C59.885 62.1276 60.883 61.7844 61.7082 61.076C63.1056 59.8809 63.4901 58.0212 62.6821 56.344Z" fill="#0F2759"/>
<path d="M40.8958 36.1765H29.9418C29.27 36.1765 28.7247 36.7218 28.7247 37.3937C28.7247 38.0655 29.27 38.6108 29.9418 38.6108H40.8958C41.5676 38.6108 42.1129 38.0655 42.1129 37.3937C42.1129 36.7218 41.5676 36.1765 40.8958 36.1765Z" fill="#0F2759"/>
<path d="M66.2481 53.754C65.8708 53.1966 65.1162 53.0432 64.5588 53.423L61.0001 55.8133C60.4427 56.1881 60.2941 56.9452 60.669 57.5026C60.9051 57.8507 61.2898 58.0406 61.6817 58.0406C61.913 58.0406 62.1491 57.9749 62.3585 57.8337L65.9172 55.4434C66.4745 55.0684 66.623 54.3115 66.2481 53.754Z" fill="#0F2759"/>
<path d="M58.6923 59.5621C57.8209 58.8756 53.9237 54.886 51.5138 52.3739C51.0488 51.887 50.2773 51.87 49.7928 52.3374C49.3059 52.8023 49.2913 53.5739 49.7563 54.0584C50.3819 54.7107 55.9002 60.4628 57.1831 61.4755C57.4045 61.6507 57.6723 61.736 57.9352 61.736C58.2931 61.736 58.6509 61.5753 58.8943 61.271C59.3106 60.7451 59.2206 59.9783 58.6923 59.5621Z" fill="#0F2759"/>
<path d="M53.8288 62.0036C52.3706 60.8375 48.7072 56.9452 47.8795 56.0446C47.4218 55.548 46.6551 55.5188 46.1585 55.9716C45.6643 56.4267 45.6303 57.1984 46.0855 57.6926C46.1293 57.7388 50.5011 62.4588 52.3073 63.9047C52.5313 64.0824 52.8015 64.17 53.0668 64.17C53.4222 64.17 53.7775 64.0118 54.0185 63.7149C54.4374 63.189 54.3521 62.4222 53.8288 62.0036Z" fill="#0F2759"/>
<path d="M48.9847 64.4549C47.2491 62.9919 43.6976 59.2116 43.0038 58.4691C42.5438 57.9774 41.7721 57.9506 41.2828 58.4107C40.7911 58.8707 40.7667 59.6399 41.2244 60.1317C42.2224 61.2003 45.6206 64.803 47.4146 66.317C47.6434 66.5093 47.9209 66.6042 48.1984 66.6042C48.544 66.6042 48.8898 66.4558 49.1307 66.171C49.564 65.6549 49.4983 64.8881 48.9847 64.4549Z" fill="#0F2759"/>
<path d="M30.7792 34.0759C28.6931 32.0992 20.3511 31.459 17.8439 31.3106C17.4982 31.2936 17.1793 31.4079 16.9359 31.6392C16.6924 31.868 16.5537 32.1893 16.5537 32.5252V54.4331C16.5537 55.105 17.099 55.6503 17.7708 55.6503H25.0735C25.5993 55.6503 26.0666 55.3119 26.2297 54.8105C26.4073 54.2652 30.6016 41.3931 31.1541 35.0641C31.1858 34.6941 31.0494 34.3289 30.7792 34.0759ZM24.1849 53.2161H18.9879V33.83C22.8997 34.1391 27.1206 34.8109 28.6542 35.5558C28.0091 40.8867 25.0905 50.3582 24.1849 53.2161Z" fill="#0F2759"/>
<path d="M73.7577 33.7423C64.2009 33.7423 58.8992 36.1887 58.6777 36.291C58.3613 36.4394 58.1251 36.7145 58.0278 37.048C57.9304 37.3816 57.9791 37.7394 58.1616 38.0363C59.666 40.4584 64.3762 53.9098 65.2817 57.1911C65.4277 57.7193 65.9073 58.0844 66.455 58.0844H73.7577C74.4295 58.0844 74.9748 57.5391 74.9748 56.8673V34.9594C74.9748 34.2851 74.4295 33.7423 73.7577 33.7423ZM72.5406 55.6503H67.3655C66.2116 51.8918 62.8037 42.0917 60.9026 38.0412C62.7599 37.4108 66.7496 36.3275 72.5406 36.1912V55.6503Z" fill="#0F2759"/>
</g>
<defs>
<linearGradient id="paint0_linear" x1="45.7642" y1="0.550781" x2="45.7642" y2="90.6579" gradientUnits="userSpaceOnUse">
<stop stop-color="#0079B3"/>
<stop offset="0.307292" stop-color="#194B7C"/>
<stop offset="0.625" stop-color="#0F2759"/>
<stop offset="1" stop-color="#6A1370"/>
</linearGradient>
<clipPath id="clip0">
<rect width="58.4211" height="58.4211" fill="white" transform="translate(16.5537 20.3545)"/>
</clipPath>
</defs>
</svg>
