<?xml version="1.0" encoding="utf-8"?>
<!-- Generator: Adobe Illustrator 22.1.0, SVG Export Plug-In . SVG Version: 6.00 Build 0)  -->
<svg version="1.1" id="Ebene_1" xmlns="http://www.w3.org/2000/svg" xmlns:xlink="http://www.w3.org/1999/xlink" x="0px" y="0px"
	 viewBox="0 0 1000 1000" style="enable-background:new 0 0 1000 1000;" xml:space="preserve">
<g>
	<path d="M531.4,615.1h-62.8l0-383.1h62.8L531.4,615.1z M499.4,679.1c12.3,0,23.4,4.9,32,13.6c8.6,8.6,13.6,19.7,13.6,32
		c0,12.3-4.9,23.4-13.6,32c-9.9,8.6-19.7,13.6-30.8,13.6s-22.2-4.9-30.8-13.6c-9.9-8.6-13.6-19.7-13.6-32c0-12.3,4.9-23.4,13.6-32
		C476,682.8,487.1,679.1,499.4,679.1L499.4,679.1z M499.4,78.1C266.7,78.1,77,267.7,77,500.5s189.6,422.4,422.4,422.4
		s422.4-189.6,422.4-422.4S732.2,78.1,499.4,78.1z M499.4,989.5c-269.7,0-488.9-219.2-488.9-488.9S229.7,11.6,499.4,11.6
		s488.9,219.2,488.9,488.9S769.1,989.5,499.4,989.5z"/>
	<path d="M499.4,1000.6c-275.7,0-500-224.3-500-500s224.3-500,500-500c275.7,0,500,224.3,500,500S775.2,1000.6,499.4,1000.6z
		 M499.4,22.7C236,22.7,21.6,237.1,21.6,500.6C21.6,764,236,978.4,499.4,978.4c263.5,0,477.8-214.4,477.8-477.8
		C977.3,237.1,762.9,22.7,499.4,22.7z M499.4,934C260.4,934,66,739.5,66,500.5C66,261.5,260.4,67,499.4,67s433.5,194.5,433.5,433.5
		C932.9,739.5,738.5,934,499.4,934z M499.4,89.2c-226.8,0-411.3,184.5-411.3,411.3s184.5,411.3,411.3,411.3
		c226.8,0,411.3-184.5,411.3-411.3S726.2,89.2,499.4,89.2z M500.7,781.4c-13.9,0-27.9-6.1-38.6-16.8c-11-9.5-16.8-23.1-16.8-39.9
		c0-14.6,5.5-28.1,15.9-39c5.6-8.3,16.6-17.7,38.2-17.7c15.1,0,28.8,5.8,39.9,16.8c10.9,10.9,16.8,25,16.8,39.9
		c0,15-5.8,28.8-16.8,39.9C526.2,776.1,513.8,781.4,500.7,781.4z M499.4,690.2c-9.9,0-16.7,2.8-20.1,8.3l-1.6,2
		c-6.8,6.8-10.3,15.2-10.3,24.2c0,10.3,3.1,17.9,9.8,23.7c7.1,7.1,15.5,10.8,23.5,10.8c7.7,0,14.9-3.3,23.5-10.8
		c6.2-6.3,9.8-14.6,9.8-23.7c0-9.1-3.6-17.5-10.3-24.2C516.9,693.8,508.5,690.2,499.4,690.2z M542.5,626.2h-85l0-405.2h85
		L542.5,626.2z M479.7,604h40.7l0-360.9h-40.7L479.7,604z"/>
</g>
</svg>
