<?xml version="1.0" encoding="utf-8"?>
<!-- Generator: Adobe Illustrator 22.1.0, SVG Export Plug-In . SVG Version: 6.00 Build 0)  -->
<svg version="1.1" id="Ebene_1" xmlns="http://www.w3.org/2000/svg" xmlns:xlink="http://www.w3.org/1999/xlink" x="0px" y="0px"
	 viewBox="0 0 1000 1000" style="enable-background:new 0 0 1000 1000;" xml:space="preserve">
<style type="text/css">
	.st0{fill:#FFFFFF;}
	.st1{fill:#92BCF9;}
</style>
<g>
	<path class="st0" d="M765.2,175.4l-152-152c-11.6-11.6-27.2-18.1-43.6-18.1H82.4C36.9,5.3,0,42.2,0,87.7v0.1v824.5
		c0,45.5,36.9,82.4,82.4,82.5c0,0,0,0,0,0h618.4c45.5,0,82.4-36.9,82.4-82.4v-0.1V219C783.2,202.7,776.8,187,765.2,175.4z
		 M714.4,230.1l-123.2,0.4c-13.8,0-25.1-11.1-25.1-24.9c0-35.6,0-99.5,0-127.3c0-5.4,6.4-8.3,10.3-4.5
		c29.5,28.5,113.7,116,142.5,146.1C722.8,223.7,719.9,230.1,714.4,230.1z"/>
	<g>
		<path class="st1" d="M470.5,547h485.1c24.5,0,44.4,15.3,44.4,34.1c0,18.8-19.9,34.1-44.4,34.1H470.5c-24.5,0-44.4-15.3-44.4-34.1
			C426.1,562.2,446,547,470.5,547z"/>
		<path class="st1" d="M492.9,615.1h259.9V547H492.9c-25.5,0-46.2,15.3-46.2,34.1S467.4,615.1,492.9,615.1z"/>
		<path class="st1" d="M557.7,392.2c8.7,0,17.4,3.3,24.1,10c13.3,13.3,13.3,34.9,0,48.2L449.4,582.8l132.5,132.5
			c13.3,13.3,13.3,34.9,0,48.2c-13.3,13.3-34.9,13.3-48.2,0L353,582.8l180.7-180.7C540.3,395.5,549,392.2,557.7,392.2z"/>
	</g>
</g>
</svg>
