<?xml version="1.0" encoding="utf-8"?>
<!-- Generator: Adobe Illustrator 23.0.1, SVG Export Plug-In . SVG Version: 6.00 Build 0)  -->
<svg version="1.1" id="Ebene_1" xmlns="http://www.w3.org/2000/svg" xmlns:xlink="http://www.w3.org/1999/xlink" x="0px" y="0px"
	 viewBox="0 0 1000 1000" style="enable-background:new 0 0 1000 1000;" xml:space="preserve">
<style type="text/css">
	.st0{fill:#B9D8FF;}
	.st1{fill:none;stroke:#1C7BF1;stroke-width:50;stroke-miterlimit:1;stroke-dasharray:100,50;}
</style>
<g>
	<path class="st0" d="M877.5,171.9L723.9,18.2C712.2,6.6,696.4,0,679.8,0H187.5c-46,0-83.3,37.3-83.3,83.3v0.1v833.3
		c0,46,37.3,83.3,83.3,83.3l0,0h625c46,0,83.3-37.3,83.3-83.3v-0.1V216C895.8,199.4,889.2,183.6,877.5,171.9z M826.3,227.2
		l-124.5,0.4c-14,0-25.3-11.2-25.3-25.2c0-35.9,0-100.6,0-128.7c0-5.5,6.5-8.4,10.4-4.5c29.8,28.8,114.9,117.3,144,147.6
		C834.7,220.7,831.7,227.2,826.3,227.2z"/>
	<polygon class="st1" points="895.8,543 104.2,543 114.2,543 885.8,543 	"/>
</g>
</svg>
