<svg xmlns="http://www.w3.org/2000/svg" width="631.629" height="177.329" viewBox="0 0 631.629 177.329"><path d="M104.8,242.793h23.044V351.52H104.8Zm115.846,14.664c-12.988-22-49.859-16.76-68.5-3.561V351.52h22.626V268.352c12.569-8.171,34.775-5.237,34.775,10.055V351.52H232.17V278.826c0-16.759,36.871-18.855,35.613.838V351.52h22.835V278.826C290.618,239.86,237.2,232.737,220.647,257.457Zm179.108,21.159V315.9c-.209,32.053-37.709,43.156-62.639,32.682v38.337H314.072V249.5C344.868,235.67,399.755,233.366,399.755,278.616Zm-23.044-.419c0-19.063-24.721-20.53-39.6-13.826v65.152c15.083,5.027,37.919,3.981,39.6-13.618ZM451.913,243c-.419,0-.837.209-1.257.209a41.055,41.055,0,0,0-10.474,3.562c-11.732,5.864-20.112,17.178-20.112,32.679V351.52h23.045V279.874c0-14.666,19.063-19.693,31-16.132v-20.32a56.006,56.006,0,0,0-12.36-1.258C458.617,242.164,454.008,242.374,451.913,243Zm116.685,35.4v29.538h-62.01v8.59c-.418,17.807,30.586,22.207,39.386,3.98l19.272,11.1c-8.379,14.872-24.72,22.205-38.965,22.205-21.369,0-42.947-12.36-42.947-37.289V278.407c0-25.348,21.578-37.289,42.947-37.289C547.02,241.118,568.6,253.059,568.6,278.407Zm-22.206-.418c0-20.322-40.641-20.532-39.8.418v10.475h39.8Zm135.779,51.324H736.43V351.52H588.495L579.068,337.9l54.677-73.112H582.42V243H727.212l8.8,13.826Zm22.2-63.983H659.064l-47.525,63.983h44.988ZM121.579,209.6l-16.762,22.566h30.837L152.53,209.6Z" transform="translate(-104.801 -209.595)" fill="#fff"/></svg>