<?xml version="1.0" encoding="utf-8"?>
<!-- Generator: Adobe Illustrator 23.0.4, SVG Export Plug-In . SVG Version: 6.00 Build 0)  -->
<svg version="1.1" id="Ebene_1" xmlns="http://www.w3.org/2000/svg" xmlns:xlink="http://www.w3.org/1999/xlink" x="0px" y="0px"
	 viewBox="0 0 80.1 69.7" style="enable-background:new 0 0 80.1 69.7;" xml:space="preserve">
<style type="text/css">
	.st0{fill:#0079B3;}
	.st1{fill:#194B7C;}
</style>
<path class="st0" d="M44.7,49.1C44.7,49.1,44.7,49.1,44.7,49.1L44.7,49.1l7.7-7.7H8c5.8-8.5,11.5-16.8,17.4-25.3
	c0.4,0.6,0.8,1.1,1.2,1.7l4.6,6.7c1.9,2.8,3.8,5.5,5.7,8.3c1.4-1.7,2.9-3.4,4.3-5.1c0.3-0.4,0.7-0.8,1-1.3c0.2-0.3,0.4-0.5,0.7-0.8
	c3.7,4.7,7.4,9.3,11.3,14.1l6.1-6.1c0.9-0.9,2-1.4,3.2-1.6c0-7.6,0-15.3,0-22.9c0-4.6-2.5-7.1-7.1-7.1h0c-8.2,0-16.3,0-24.5,0h-25
	C2.6,1.9,0,4.5,0,8.8c0,13.3,0,26.6,0,39.9c0,4.5,2.5,7,7,7c12.3,0,24.5,0,36.8,0C42.6,53.6,42.9,50.9,44.7,49.1z M44.4,15.7
	c0.2-2.4,2.3-4.3,4.7-4.3h0c0.5,0,0.9,0.1,1.4,0.2c0.1,0,0.3,0.1,0.4,0.2c2.4,1,3.6,3.8,2.6,6.2c-0.6,1.4-1.8,2.4-3.2,2.8
	c-0.4,0.1-0.9,0.2-1.3,0.2c-0.3,0-0.6,0-0.9-0.1c-0.2,0-0.3-0.1-0.4-0.1c-1.2-0.4-2.1-1.2-2.7-2.3c-0.4-0.7-0.6-1.5-0.6-2.3
	C44.4,16,44.4,15.8,44.4,15.7z"/>
<path id="Pfad_170" class="st1" d="M68.5,47.8c0.2,0.2,0.4,0.4,0.6,0.6l7,7c0.2,0.2,0.4,0.2,0.6,0.2c0.2,0,0.4-0.1,0.6-0.2l2.4-2.4
	c0.2-0.1,0.3-0.4,0.3-0.6c0-0.2-0.1-0.3-0.3-0.4L64.2,36.4c-0.2-0.3-0.7-0.4-1-0.2c-0.1,0-0.1,0.1-0.2,0.2L47.5,51.9
	c-0.2,0.1-0.3,0.4-0.3,0.6c0,0.2,0.1,0.5,0.3,0.6l2.4,2.4c0.3,0.3,0.9,0.3,1.2,0l7.7-7.7c0.3-0.3,0.6-0.5,1-0.5c0.1,0,0.3,0,0.4,0.1
	c0.8,0.3,0.8,1.3,0.8,1.7v18.5c0,0.7,0.6,1.3,1.3,1.3c0,0,0,0,0,0h2.5c0.7,0,1.3-0.6,1.3-1.3c0,0,0,0,0,0V48.1c0-0.4,0.2-0.8,0.6-1
	C67.4,46.8,67.9,47.3,68.5,47.8L68.5,47.8z"/>
</svg>
