<?xml version="1.0" encoding="utf-8"?>
<!-- Generator: Adobe Illustrator 23.0.1, SVG Export Plug-In . SVG Version: 6.00 Build 0)  -->
<svg version="1.1" id="Ebene_1" xmlns="http://www.w3.org/2000/svg" xmlns:xlink="http://www.w3.org/1999/xlink" x="0px" y="0px"
	 viewBox="0 0 1000 1000" style="enable-background:new 0 0 1000 1000;" xml:space="preserve">
<style type="text/css">
	.st0{fill:#1C7BF1;}
	.st1{fill:#B9D8FF;}
</style>
<g>
	<path class="st0" d="M345.8,134.1L345.8,134.1h305.3h0c9.4,0,17-7.6,17-17V83.3c0-28.1-22.8-50.9-50.9-50.9h0h-60.2
		c-12-20.7-34.2-33.9-58.6-33.9l0,0l0,0c-24.3,0-46.5,13.2-58.6,33.9h-60.2h0c-28.1,0-50.9,22.8-50.9,50.9v33.9
		C328.8,126.6,336.5,134.1,345.8,134.1z"/>
	<path class="st1" d="M812.7,76.7L812.7,76.7h-41.9h0c-11.6,0-21,9.4-21,21v41.9c0,34.7-28.2,62.8-62.8,62.8H310
		c-34.7,0-62.8-28.2-62.8-62.8V97.7c0-11.6-9.4-21-21-21h0h-41.8h0c-34.7,0-62.8,28.2-62.8,62.8v347.5v448.6
		c0,34.7,28.2,62.8,62.8,62.8h246.1h0.8h134.5c0.3,0,0.6,0,0.9,0h246.1c34.7,0,62.8-28.2,62.8-62.8V487.1V139.6
		C875.6,104.9,847.4,76.7,812.7,76.7z M541,705.6H309.2v-76.8H541L541,705.6L541,705.6z M636.6,513.2v43.6H309.2v-76.4h327.4V513.2z
		"/>
</g>
</svg>
