<svg version="1.1" xmlns="http://www.w3.org/2000/svg" xmlns:xlink="http://www.w3.org/1999/xlink" x="0" y="0" viewBox="197.5 253.2 994.2 283.3" xml:space="preserve"><g><g><g><path class="invoiz" d="M224.1,321.3c-14.6,0-26.6-10.9-26.6-25.5c0-15,12-26.3,26.6-26.3c15,0,27,11.3,27,26.3 C251.1,310.4,239.1,321.3,224.1,321.3z M259,529.8c0,4.1-3.8,7.9-18,8.3c-24,0-37.9-13.5-37.9-43.5V361.4c0-4.5,2.3-6.8,6.8-6.8 h27.4c4.5,0,6.8,2.6,6.8,6.8v127.5c0,10.5,3.4,15.8,10.5,16.9c1.9,0.4,4.5,1.5,4.5,6v18H259z"/></g><g><path class="invoiz" d="M304.3,403c0-9.4-3-14.6-10.1-16.1c-2.6-0.7-5.3-1.9-5.3-7.9v-16.5c0-4.5,3.4-8.3,18-8.3 c17.6,0,31.1,9.8,32.6,27v7.1c5.6-17.6,21.8-34.9,55.1-34.9c45.8,0,64.1,31.9,64.1,71.3v64.1c0,9.8,2.6,14.6,9.4,16.5 c2.2,0.8,5.6,2.3,5.6,7.5v16.5c0,4.5-3.7,8.6-18,8.6c-24,0-37.9-13.5-37.9-43.5V427c0-22.9-11.3-38.6-34.9-38.6 c-27,0-38.3,25.9-38.3,45v96.4c0,4.5-2.3,6.8-6.4,6.8h-27.8c-4.5,0-6.4-2.6-6.4-6.8V403H304.3z"/></g><g><path class="invoiz" d="M560.9,536.5c-6.8,0-9-2.6-12-10.5L487,363.6c-1.9-4.1,1.5-7.9,6-7.9h29.6c4.5,0,6.4,2.3,7.9,6l44.3,127.9 l45-127.9c1.5-3.8,3.8-6,7.9-6h28.1c4.5,0,7.5,3.8,6,7.9L599.9,526c-3,7.9-6,10.5-12.4,10.5H560.9z"/></g><g><path class="invoiz" d="M674.1,446.1c0-57,30.8-92.6,81.8-92.6c51.4,0,82.5,35.6,82.5,92.6c0,56.6-30.8,92.6-82.5,92.6 C704.9,538.8,674.1,503.2,674.1,446.1z M798.2,446.1c0-37.9-15.8-57.8-42.4-57.8c-26.3,0-42,19.9-42,57.8s15.4,57.8,42,57.8 C783.2,503.9,798.2,484,798.2,446.1z"/></g><g><path class="invoiz" d="M899.1,321.3c-14.6,0-26.6-10.9-26.6-25.5c0-15,12-26.3,26.6-26.3c15,0,27,11.3,27,26.3 C926.1,310.4,914.1,321.3,899.1,321.3z M934,529.8c0,4.1-3.8,7.9-18,8.3c-24,0-37.9-13.5-37.9-43.5V361.4c0-4.5,2.3-6.8,6.8-6.8 h27.4c4.5,0,6.8,2.6,6.8,6.8v127.5c0,10.5,3.4,15.8,10.5,16.9c1.9,0.4,4.5,1.5,4.5,6L934,529.8L934,529.8z"/></g><g><path class="invoiz" d="M971.5,536.5c-4.5,0-6.8-2.3-6.8-6.4v-17.6c0-6.8,3.4-12,8.6-18l90.5-106.5h-92.3c-4.5,0-6.8-2.3-6.8-6.4 v-19.5c0-4.1,2.6-6.4,6.8-6.4h132.8c4.5,0,6.8,2.3,6.8,6.4v17.3c0,7.5-3.4,12-9.8,19.1l-87.4,105.8h90.4c4.5,0,6.8,2.3,6.8,6.4 v19.5c0,4.5-2.6,6.4-7.1,6.4H971.5V536.5z"/></g></g></g></svg>
