<svg id="Ebene_1" data-name="Ebene 1" xmlns="http://www.w3.org/2000/svg" viewBox="0 0 1000 1000"><defs><style>.cls-1{fill:#dcdcdc;}.cls-2{fill:#a9a9a9;}</style></defs><title>empty_state</title><path class="cls-1" d="M585.61,165.38a60.34,60.34,0,0,1,5.36-43.1,420.78,420.78,0,0,0-63.4-22.38A60.37,60.37,0,0,1,407.93,86.09a420.21,420.21,0,0,0-66.83,7.33,60.38,60.38,0,0,1-113.78,39.49,413.46,413.46,0,0,0-57,35.61,60.38,60.38,0,0,1-85.4,84.92A418.06,418.06,0,0,0,49,310.25,60.37,60.37,0,0,1,8.89,423.82a418.58,418.58,0,0,0-7.71,66.77A60.38,60.38,0,0,1,14.33,610.31a419.67,419.67,0,0,0,22,63.52A60.38,60.38,0,0,1,100.14,776a423.35,423.35,0,0,0,47.41,47.66A60.37,60.37,0,0,1,249.34,888a421.84,421.84,0,0,0,63.39,22.38,60.37,60.37,0,0,1,119.64,13.81,415.54,415.54,0,0,0,66.83-7.36A60.38,60.38,0,0,1,613,877.39a417.32,417.32,0,0,0,57-35.61,60.37,60.37,0,0,1,85.39-84.92,419.38,419.38,0,0,0,35.92-56.8,60.38,60.38,0,0,1,40.09-113.58,418.57,418.57,0,0,0,7.72-66.8A60.36,60.36,0,0,1,826,400a418.65,418.65,0,0,0-22-63.52A60.33,60.33,0,0,1,758.67,341L513.39,595.12c-1.06,1.11-2.14,2.19-3.26,3.27a129.58,129.58,0,0,1-180-186.48L585.6,165.38Z"/><circle class="cls-2" cx="766.33" cy="159.75" r="21.69"/><path class="cls-2" d="M988.94,309.4,933.49,254c-11.86-11.85-29.42-13.72-43.59-6.52l-53.58-53.58c14.07-29.64,8.6-66.38-16.24-90.35a78.54,78.54,0,0,0-108.34,0L360.9,442.68c-34.43,33.23-35.73,88.07-2.5,122.5s88.07,35.73,122.5,2.5c.74-.71,1.79-1.77,2.5-2.5L812.29,225l50,50c-7.2,14.17-5.33,31.73,6.52,43.59l55.45,55.45a37.76,37.76,0,0,0,53.41,0l11.24-11.24A37.76,37.76,0,0,0,988.94,309.4Zm-568,255.78a60,60,0,1,1,60-60A60,60,0,0,1,420.9,565.18Zm294.17-405c0-28.33,22.49-51.67,50.84-51.67a51.94,51.94,0,0,1,51.67,51.67c0,28.33-23.34,50.83-51.67,50.83A50.5,50.5,0,0,1,715.07,160.17Z"/></svg>