<svg width="14" height="14" viewBox="0 0 14 14" fill="none" xmlns="http://www.w3.org/2000/svg">
<path d="M6.55762 8.62891C6.55762 8.15267 6.6167 7.77311 6.73486 7.49023C6.85303 7.20736 7.08577 6.89762 7.43311 6.56104C7.78402 6.22087 8.00602 5.97917 8.09912 5.83594C8.24235 5.61751 8.31396 5.38118 8.31396 5.12695C8.31396 4.79036 8.22982 4.53434 8.06152 4.35889C7.89681 4.17985 7.65332 4.09033 7.33105 4.09033C7.02311 4.09033 6.77425 4.17806 6.58447 4.35352C6.39827 4.52539 6.30518 4.75993 6.30518 5.05713H5C5.00716 4.42334 5.22201 3.92204 5.64453 3.55322C6.07064 3.18441 6.63281 3 7.33105 3C8.05078 3 8.61117 3.18262 9.01221 3.54785C9.41683 3.91309 9.61914 4.42334 9.61914 5.07861C9.61914 5.66227 9.34701 6.23698 8.80273 6.80273L8.14209 7.45264C7.90576 7.72119 7.78402 8.11328 7.77686 8.62891H6.55762ZM6.46631 10.2993C6.46631 10.0881 6.53255 9.91797 6.66504 9.78906C6.79753 9.65658 6.97656 9.59033 7.20215 9.59033C7.43132 9.59033 7.61214 9.65837 7.74463 9.79443C7.87712 9.92692 7.94336 10.0952 7.94336 10.2993C7.94336 10.4963 7.87891 10.661 7.75 10.7935C7.62109 10.9259 7.43848 10.9922 7.20215 10.9922C6.96582 10.9922 6.7832 10.9259 6.6543 10.7935C6.52897 10.661 6.46631 10.4963 6.46631 10.2993Z" fill="#D94339"/>
<circle cx="7" cy="7" r="6.35" stroke="#D94339" stroke-width="1.3"/>
</svg>
