<svg width="15" height="15" viewBox="0 0 15 15" fill="none" xmlns="http://www.w3.org/2000/svg">
<path fill-rule="evenodd" clip-rule="evenodd" d="M9.23107 11.6566V7.39623C9.23107 7.13492 9.01569 6.92285 8.7503 6.92285C8.48492 6.92285 8.26953 7.13492 8.26953 7.39623V11.6566C8.26953 11.9179 8.48492 12.13 8.7503 12.13C9.01569 12.13 9.23107 11.9179 9.23107 11.6566Z" fill="#0079B3"/>
<path fill-rule="evenodd" clip-rule="evenodd" d="M6.3463 11.6566V7.39623C6.3463 7.13492 6.13092 6.92285 5.86553 6.92285C5.60015 6.92285 5.38477 7.13492 5.38477 7.39623V11.6566C5.38477 11.9179 5.60015 12.13 5.86553 12.13C6.13092 12.13 6.3463 11.9179 6.3463 11.6566Z" fill="#0079B3"/>
<path fill-rule="evenodd" clip-rule="evenodd" d="M4.90445 2.66302V2.18965C4.90445 1.40551 5.55012 0.769531 6.34675 0.769531C6.93401 0.769531 7.68257 0.769531 8.26983 0.769531C9.06647 0.769531 9.71214 1.40551 9.71214 2.18965V2.66302H11.6352C12.0177 2.66302 12.3845 2.81261 12.6552 3.07888C12.9256 3.34515 13.0775 3.70634 13.0775 4.08314V5.02989C13.0775 5.29143 12.8624 5.50326 12.5968 5.50326H11.6352V13.0772C11.6352 13.4538 11.4833 13.815 11.2129 14.0815C10.9422 14.3478 10.5754 14.4973 10.1929 14.4973H4.42368C4.04123 14.4973 3.6744 14.3478 3.40373 14.0815C3.13329 13.815 2.98137 13.4538 2.98137 13.0772V5.50326H2.01983C1.75421 5.50326 1.53906 5.29143 1.53906 5.02989C1.53906 5.02989 1.53906 4.55651 1.53906 4.08314C1.53906 3.70634 1.69099 3.34515 1.96142 3.07888C2.23209 2.81261 2.59892 2.66302 2.98137 2.66302H4.90445ZM10.6737 5.50326H3.94291V13.0772C3.94291 13.2027 3.99363 13.3231 4.08377 13.4119C4.17392 13.5007 4.29627 13.5506 4.42368 13.5506H10.1929C10.3203 13.5506 10.4427 13.5007 10.5328 13.4119C10.623 13.3231 10.6737 13.2027 10.6737 13.0772V5.50326ZM12.116 4.55651V4.08314C12.116 3.95746 12.0653 3.83699 11.9751 3.74823C11.885 3.65947 11.7626 3.60977 11.6352 3.60977C9.62392 3.60977 4.99267 3.60977 2.98137 3.60977C2.85397 3.60977 2.73161 3.65947 2.64147 3.74823C2.55132 3.83699 2.5006 3.95746 2.5006 4.08314V4.55651H12.116ZM8.7506 2.66302V2.18965C8.7506 1.92835 8.53546 1.71628 8.26983 1.71628C7.68257 1.71628 6.93401 1.71628 6.34675 1.71628C6.08113 1.71628 5.86599 1.92835 5.86599 2.18965V2.66302H8.7506Z" fill="#0079B3"/>
</svg>
