<svg width="17" height="17" viewBox="0 0 17 17" fill="none" xmlns="http://www.w3.org/2000/svg">
<path d="M7.79297 9.22262C7.79297 9.61382 8.1101 9.93095 8.5013 9.93095C8.89251 9.93095 9.20964 9.61382 9.20964 9.22262V4.97262C9.20964 4.58142 8.89251 4.26429 8.5013 4.26429C8.1101 4.26429 7.79297 4.58142 7.79297 4.97262V9.22262Z" fill="#D94339"/>
<path d="M8.5013 12.7134C8.1101 12.7134 7.79297 12.3963 7.79297 12.0051C7.79297 11.6139 8.1101 11.2968 8.5013 11.2968C8.89251 11.2968 9.20964 11.6139 9.20964 12.0051C9.20964 12.3963 8.89251 12.7134 8.5013 12.7134Z" fill="#D94339"/>
<path fill-rule="evenodd" clip-rule="evenodd" d="M8.5013 15.583C4.58929 15.583 1.41797 12.4117 1.41797 8.49967C1.41797 4.58766 4.58929 1.41634 8.5013 1.41634C12.4133 1.41634 15.5846 4.58766 15.5846 8.49967C15.5846 12.4117 12.4133 15.583 8.5013 15.583ZM2.83464 8.49967C2.83464 5.37006 5.37169 2.83301 8.5013 2.83301C11.6309 2.83301 14.168 5.37006 14.168 8.49967C14.168 11.6293 11.6309 14.1663 8.5013 14.1663C5.37169 14.1663 2.83464 11.6293 2.83464 8.49967Z" fill="#D94339"/>
</svg>
