<?xml version="1.0" encoding="utf-8"?>
<!-- Generator: Adobe Illustrator 22.1.0, SVG Export Plug-In . SVG Version: 6.00 Build 0)  -->
<svg version="1.1" id="Ebene_1" xmlns="http://www.w3.org/2000/svg" xmlns:xlink="http://www.w3.org/1999/xlink" x="0px" y="0px"
	 viewBox="0 0 75 75" style="enable-background:new 0 0 75 75;" xml:space="preserve">
<style type="text/css">
	.st0{fill:#FFFFFF;}
</style>
<path class="st0" d="M64.2,31h-3.3h-8.8h-3.8H23c-0.3,0-0.6-0.3-0.6-0.6v-7.1c0-8.1,6-15,14-15.6c3.4-0.2,6.5,0.6,9.1,2.3
	c0.6,0.4,1.3,0.2,1.7-0.3c1-1.2,2.1-2.7,3.1-3.9c0.5-0.6,0.3-1.5-0.3-1.9C46.8,1.6,42.9,0.2,38.6,0C25.5-0.5,14.8,9.8,14.8,22.8v7.6
	c0,0.3-0.3,0.6-0.6,0.6h-3.3c-2.4,0-4.3,1.9-4.3,4.3V38c0,0.5,0.4,1,1,1H17c1,0,2,0.6,2.4,1.5c0.6,1.6-0.6,3.3-2.2,3.3H7.5
	c-0.6,0-1,0.5-1,1v4.8c0,0.5,0.4,1,1,1H17c1,0,2,0.6,2.4,1.5c0.6,1.6-0.6,3.3-2.2,3.3H7.5c-0.6,0-1,0.5-1,1V61c0,0.5,0.4,1,1,1H17
	c1,0,2,0.6,2.4,1.5c0.6,1.6-0.6,3.3-2.2,3.3H7.5c-0.6,0-1,0.4-1,1v2.9c0,2.4,1.9,4.3,4.3,4.3h53.4c2.4,0,4.3-1.9,4.3-4.3V35.5
	C68.5,32.9,66.6,31,64.2,31z"/>
</svg>
