<?xml version="1.0" encoding="utf-8"?>
<!-- Generator: Adobe Illustrator 22.1.0, SVG Export Plug-In . SVG Version: 6.00 Build 0)  -->
<svg version="1.1" id="Ebene_1" xmlns="http://www.w3.org/2000/svg" xmlns:xlink="http://www.w3.org/1999/xlink" x="0px" y="0px"
	 viewBox="0 0 75 75" style="enable-background:new 0 0 75 75;" xml:space="preserve">
<g>
	<path style="fill:#87BCFF;" d="M15,34.8c1.5,0,2.7,1.2,2.7,2.6c0,1.5-1.2,2.7-2.7,2.7H7.6c-1.5,0-2.7-1.2-2.7-2.7
		c0-1.4,1.2-2.6,2.7-2.6H15z"/>
	<path style="fill:#87BCFF;" d="M15,45.7c1.5,0,2.7,1.2,2.7,2.6c0,1.5-1.2,2.7-2.7,2.7h-2.6c-1.5,0-2.7-1.2-2.7-2.7
		c0-1.4,1.2-2.6,2.7-2.6H15z"/>
	<path style="fill:#87BCFF;" d="M15,23.9c1.5,0,2.7,1.2,2.7,2.7c0,1.4-1.2,2.6-2.7,2.6H2.8c-1.4,0-2.6-1.2-2.6-2.6
		c0-1.5,1.2-2.7,2.6-2.7H15z"/>
	<path style="fill:#FFFFFF;" d="M26.1,55.8h45.8c0.8,0,1.6-0.3,2.1-0.9c0.5-0.5,0.9-1.4,0.9-2.2V29L50.4,43.7
		c-0.8,0.5-1.9,0.5-2.8,0L23.2,29v23.7c0,0.8,0.3,1.6,0.9,2.2C24.6,55.4,25.3,55.8,26.1,55.8L26.1,55.8z"/>
	<path style="fill:#FFFFFF;" d="M49,38.3l25.9-15.6v-0.5c0-0.9-0.3-1.6-0.9-2.2c-0.5-0.5-1.3-0.9-2.1-0.9H26.1
		c-0.8,0-1.6,0.3-2.1,0.9c-0.5,0.5-0.9,1.4-0.9,2.2v0.5L49,38.3z"/>
</g>
</svg>
