<?xml version="1.0" encoding="utf-8"?>
<!-- Generator: Adobe Illustrator 22.1.0, SVG Export Plug-In . SVG Version: 6.00 Build 0)  -->
<svg version="1.1" id="Ebene_1" xmlns="http://www.w3.org/2000/svg" xmlns:xlink="http://www.w3.org/1999/xlink" x="0px" y="0px"
	 viewBox="0 0 91.7 75" style="enable-background:new 0 0 91.7 75;" xml:space="preserve">
<style type="text/css">
	.st0{fill:#FFFFFF;}
</style>
<path class="st0" d="M87.3,31H86l0,0H73.8l0,0H46.1c0,0,0,0-0.1,0c-0.3,0-0.5-0.3-0.5-0.6v-7c0-12.3-9.3-22.8-21.7-23.4
	C10.7-0.5,0,9.8,0,22.8v7.6v0.1h7.6v-0.1v-7.1c0-8.1,6-15,14-15.6c8.8-0.6,16.1,6.3,16.1,15l0.2,7.7c0,0.3-0.2,0.5-0.5,0.6l0,0h-0.1
	H34c-2.4,0-4.3,1.9-4.3,4.3V38c0,0.5,0.4,1,1,1h9.4c1,0,2,0.6,2.3,1.5c0.6,1.6-0.6,3.3-2.2,3.3h-9.6c-0.5,0-1,0.4-1,1v4.8
	c0,0.5,0.4,1,1,1h9.5c1,0,2,0.6,2.3,1.5c0.6,1.6-0.6,3.3-2.2,3.3h-9.6c-0.5,0-1,0.4-1,1V61c0,0.5,0.4,1,1,1h9.5c1,0,2,0.6,2.3,1.5
	c0.6,1.6-0.6,3.3-2.2,3.3h-9.6c-0.5,0-1,0.4-1,1v2.9c0,2.4,1.9,4.3,4.3,4.3h53.4c2.4,0,4.3-1.9,4.3-4.3V35.5
	C91.6,32.9,89.7,31,87.3,31z"/>
</svg>
