<?xml version="1.0" encoding="utf-8"?>
<!-- Generator: Adobe Illustrator 22.1.0, SVG Export Plug-In . SVG Version: 6.00 Build 0)  -->
<svg version="1.1" id="Ebene_1" xmlns="http://www.w3.org/2000/svg" xmlns:xlink="http://www.w3.org/1999/xlink" x="0px" y="0px"
	 viewBox="0 0 1000 1000" style="enable-background:new 0 0 1000 1000;" xml:space="preserve">
<g>
	<path d="M494.6,175.2c10.6,4.3,25.7-3.1,33.4-16.2c7.8-13.1,17-22.4,20.5-20.6c3.5,1.8,7.4-10.5,8.6-27.3c1.2-16.9,4.4-31.1,7-31.8
		c2.6-0.7,34.3,22.4,27.7,5.2c0,0-32.5-84.8-107.5-84.4c-20,0.1-30.4,17.2-30.4,17.2c-9.6,15.7-17.6,43.7-17.8,62.1l14,66
		C464.1,157.5,484,170.9,494.6,175.2L494.6,175.2z"/>
	<path d="M481.4,955.8c-5.2,19.1,6.8,33.3,26.5,33.3h91.5c19.7,0,24.9-6,11.4-15c-13.4-9-42.7-31.7-45.1-51.3l-10-213
		c-2.4-19.6-9.2-50.9-15.1-69.8L474.6,430c-5.9-18.9-16.8-49.2-24.1-67.6l-6-14.9c-5.3-13.4-4.3-21.3,1.7-21.3
		c2.2,0,5.2,1.1,8.7,3.4l76.2,55.2c61.3,44.4,134.4,49,161.9,49c7.1,0,11.1-0.3,11.1-0.3c19.7-1.5,21-9.3,3-17.3
		c0,0-71.2-31.5-169.7-110.4c-81.7-65.3-11.4-111.5-98-147c-6.3-2.6-12.8-3.8-19.2-3.8c-61.9,0-124.6,115.6-85.8,282.6
		c0.2,0.5,0.2,1,0.3,1.4c8.3,35.2,21.1,72,39.3,111C511.6,845.1,481.4,955.8,481.4,955.8L481.4,955.8z"/>
	<path d="M309.8,284.9c-28.9,48.8-31.4,70.7-29.8,79.9c3.6,21.2,19,40.2,33.7,54c-5-26.8-7.6-53.2-7.7-78.6
		C305.9,321,307.2,302.5,309.8,284.9L309.8,284.9z"/>
	<path d="M383.8,974.2c-14.4-9-33.2-35.1-25.1-58.9L432.4,741c-16.1-50.1-39.4-110.9-73.2-183.4c-6.3-13.4-12-26.8-17.2-40.4
		l1.9,134.8c0.4,25.1-4.9,65.6-11.6,89.8l-57.2,204.5c-6.7,24.2,8.4,42.7,33.5,42.7h55.5C389.3,989.1,398.2,983.1,383.8,974.2
		L383.8,974.2z"/>
	<path d="M716.9,1000c-16.7,0-6.3-13.2-6.3-17.7l-1.8-494.6c0-6.5-2-11.5-5.6-13.7c-3.5-2.2-8.9-1.8-14.8,1.2l-30.2,15.3
		c-5.7,2.9-12.7,0.5-15.5-5.2c-2.9-5.7-0.5-12.7,5.2-15.5l33.2-16.6c11-5.5,22.2-5.7,30.6-0.5c8.5,5.2,13.4,15.3,13.4,27.6
		l-1.9,501.9C723.3,986.8,733.6,1000,716.9,1000L716.9,1000z"/>
</g>
</svg>
