<?xml version="1.0" encoding="utf-8"?>
<!-- Generator: Adobe Illustrator 23.0.1, SVG Export Plug-In . SVG Version: 6.00 Build 0)  -->
<svg version="1.1" id="Ebene_1" xmlns="http://www.w3.org/2000/svg" xmlns:xlink="http://www.w3.org/1999/xlink" x="0px" y="0px"
	 viewBox="0 0 1000 1000" style="enable-background:new 0 0 1000 1000;" xml:space="preserve">
<style type="text/css">
	.st0{fill:#87BDFF;}
	.st1{fill:#FFFFFF;}
</style>
<g>
	<path class="st0" d="M510.8,340.1c-6.1-5.7-15.6-5.7-21.7,0l-20.3,19.1c-5.4,5.1-6.5,13.1-2.8,19.5l20.2,43.8
		c2.9,4.9,8,7.8,13.6,7.8c5.7,0,10.8-2.9,13.6-7.8l20.2-43.8c3.7-6.4,2.6-14.4-2.8-19.5L510.8,340.1z"/>
	<path class="st0" d="M413.7,314.8c0,56.7-85,56.7-85,0C328.7,258.2,413.7,258.2,413.7,314.8"/>
	<path class="st0" d="M674.6,314.8c0,56.7-85,56.7-85,0C589.7,258.2,674.6,258.2,674.6,314.8"/>
	<path class="st1" d="M905.2,805.6H688.3c89.9-57.8,149.6-158.7,149.6-273.2l0-501.8c0-10.1-5.9-19.2-15.1-23.4
		c-9.2-4.1-20-2.4-27.4,4.2l-87.8,78.6C649.3,50.2,576.4,28.4,500,28.4c-74.8,0-146.4,21-204.3,59.5l-91.7-77
		c-7.7-6.3-18.2-7.8-27.2-3.6S162,20.6,162,30.6v501.8c0,114.5,59.8,215.4,149.6,273.2H94.8C42.5,805.6,0,848,0,900.2
		C0,952.6,42.5,995,94.8,995h810.4c52.2,0,94.8-42.4,94.8-94.8C1000,848,957.4,805.6,905.2,805.6L905.2,805.6z M471.3,831.4
		c0,17.5-14.2,31.9-31.9,31.9c-17.7,0-31.9-14.3-31.9-31.9v-40.8c0-17.7,14.2-32,31.9-32c17.7,0,31.9,14.3,31.9,32V831.4z
		 M592.4,831.4c0,17.5-14.2,31.9-31.9,31.9c-17.7,0-31.9-14.3-31.9-31.9v-40.8c0-17.7,14.2-32,31.9-32c17.7,0,31.9,14.3,31.9,32
		V831.4z M643.2,445.5H366.8v-0.3c-68.7-3.8-122.8-62-119.7-132.3c2.8-63.9,55.1-117.1,119-121c2.6-0.1,5.2-0.2,7.8-0.2
		c36.7,0,69.7,15.5,92.8,40.4c9,9.7,21.2,14.5,33.3,14.5c12.1,0,24.3-4.8,33.3-14.5c23.1-24.9,56.1-40.4,92.8-40.4
		c2.6,0,5.2,0.1,7.9,0.2c62.8,3.9,114.7,55.4,118.8,118.2c4.4,68.1-44.9,125.4-109.5,134.2L643.2,445.5z M914.7,938.9
		c-21.7,0-39.1-17.5-39.1-39.1c0-21.7,17.4-39.2,39.1-39.2c21.6,0,39.1,17.5,39.1,39.2C953.9,921.4,936.3,938.9,914.7,938.9z"/>
</g>
</svg>
