<?xml version="1.0" encoding="utf-8"?>
<!-- Generator: Adobe Illustrator 22.1.0, SVG Export Plug-In . SVG Version: 6.00 Build 0)  -->
<svg version="1.1" id="Ebene_1" xmlns="http://www.w3.org/2000/svg" xmlns:xlink="http://www.w3.org/1999/xlink" x="0px" y="0px"
	 viewBox="0 0 1000 1000" style="enable-background:new 0 0 1000 1000;" xml:space="preserve">
<style type="text/css">
	.st0{fill:#1680F1;}
	.st1{fill:#87BDFF;}
</style>
<g>
	<polygon class="st0" points="887.4,327.2 921.8,318.9 946.7,342.6 950.2,308.3 979.8,290.5 947.9,277.5 940.7,243.1 918.2,269.2 
		883.9,265.6 901.6,295.3 	"/>
	<path class="st1" d="M867.3,544c33.2,0,60.4-27.3,60.4-60.4c0-34.3-27.3-61.6-60.4-61.6c-33.2,0-61.6,27.3-61.6,61.6
		C805.7,516.7,833,544,867.3,544z"/>
	<ellipse class="st1" cx="759.5" cy="328.4" rx="23.7" ry="23.7"/>
	<path class="st1" d="M651.7,79.7C651.7,79.7,652.9,80.9,651.7,79.7c-3.6,0-8.3-1.2-10.6-3.6c0-1.2-1.2-2.4-1.2-2.4
		C642.3,73.8,647,76.1,651.7,79.7z M620.9,99.8c9.5,8.3,21.3,10.6,30.8,11.8c7.1,1.2,15.4,2.4,22.5,2.4c3.6,10.6,5.9,22.5,4.7,35.5
		c-1.2,24.9-10.6,52.1-28.4,74.6l24.9,19c21.3-28.4,34.3-61.6,35.5-92.4c0-11.8-1.2-24.9-4.7-36.7c36.7-2.4,72.3-14.2,103-32
		l-15.4-27.3c-29.6,17.8-63.9,27.3-98.3,29.6c-5.9-10.6-13-19-22.5-27.3c-8.3-8.3-23.7-15.4-39.1-13c-9.5,1.2-16.6,7.1-21.3,14.2
		C604.4,71.4,607.9,89.1,620.9,99.8L620.9,99.8z"/>
	<path class="st1" d="M371,496.6c-7.1,0-14.2-5.9-14.2-13s5.9-14.2,14.2-14.2c7.1,0,13,5.9,13,14.2
		C384.1,490.7,378.1,496.6,371,496.6z M371,438.5c-24.9,0-45,20.1-45,45s20.1,45,45,45s45-20.1,45-45
		C414.9,458.7,394.7,438.5,371,438.5z"/>
	<path class="st0" d="M435,295.3l5.9-30.8c-34.3-5.9-62.8-26-81.7-55.7c-19-29.6-26-63.9-19-97.1c5.9-26,20.1-48.6,42.7-63.9
		c22.5-14.2,48.6-20.1,75.8-14.2c20.1,3.6,37.9,15.4,49.7,33.2c11.8,17.8,15.4,37.9,10.6,58c-5.9,32-37.9,52.1-68.7,46.2
		c-11.8-2.4-21.3-9.5-27.3-19c-7.1-9.5-9.5-21.3-7.1-33.2c1.2-8.3,7.1-15.4,14.2-20.1s15.4-5.9,23.7-4.7l5.9-30.8
		c-16.6-3.6-33.2,0-47.4,9.5c-14.2,9.5-23.7,23.7-27.3,40.3c-3.6,20.1,0,39.1,10.6,56.9c10.6,16.6,28.4,28.4,47.4,32
		c48.6,9.5,96-21.3,106.6-71.1c5.9-28.4,0-56.9-15.4-81.7C519,25.2,494.1,7.4,465.7,2.7c-34.3-7.1-69.9,0-99.5,19
		s-49.7,49.7-55.7,84.1c-8.3,42.7,0,85.3,23.7,120.8C356.8,262.1,392.3,287,435,295.3L435,295.3z"/>
	<path class="st0" d="M756,775c-5.9,2.4-10.6,4.7-16.6,4.7c4.7-3.6,10.6-4.7,17.8-5.9C757.2,773.8,756,773.8,756,775L756,775z
		 M629.2,731.1c-20.1,20.1-56.9,22.5-101.9,8.3c-49.7-16.6-101.9-50.9-149.3-98.3c-46.2-47.4-81.7-99.5-98.3-149.3
		c-7.1-23.7-10.6-45-8.3-62.8c1.2-16.6,7.1-29.6,16.6-39.1c11.8-11.8,28.4-17.8,49.7-17.8c15.4,0,33.2,3.6,52.1,9.5
		c22.5,7.1,46.2,19,69.9,34.3l24.9,59.2l-45,71.1l84.1-7.1l53.3,65.1l14.2-61.6c16.6,23.7,29.6,47.4,39.1,69.9
		c-32,3.6-61.6,15.4-85.3,35.5l20.1,23.7c20.1-17.8,47.4-27.3,75.8-28.4c3.6,14.2,5.9,27.3,5.9,39.1
		C645.8,701.5,641.1,719.3,629.2,731.1L629.2,731.1z M509.6,452.8l-3.6-9.5l23.7,5.9l13,3.6l7.1-5.9l21.3-19l2.4,37.9l32,19
		l-14.2,5.9l-15.4,5.9L570,499l-2.4,11.8l-5.9,24.9L538,507.3l-37.9,3.6l20.1-32L509.6,452.8z M804.5,748.9
		c2.4-24.9-7.1-50.9-27.3-74.6c-27.3-33.2-68.7-55.7-112.5-60.4h-1.2c-10.6-30.8-28.4-63.9-53.3-96l63.9-24.9l-72.3-43.8l-4.7-86.4
		l-63.9,55.7l-26-7.1c-35.5-27.3-72.3-47.4-107.8-59.2c-58-19-105.4-14.2-133.9,15.4c-13,13-21.3,30.8-24.9,52.1
		C-9.3,958.7,16.8,984.7,25,993c4.7,4.7,13,7.1,24.9,7.1c91.2,0,373.1-135,547.2-222.7c21.3-2.4,39.1-11.8,53.3-24.9
		c24.9-24.9,32-62.8,22.5-107.8c30.8,5.9,60.4,23.7,79.3,47.4c13,16.6,20.1,34.3,20.1,49.7c-20.1-2.4-40.3,1.2-56.9,14.2
		c-7.1,5.9-13,14.2-13,23.7c0,7.1,1.2,14.2,5.9,19c3.6,3.6,8.3,7.1,14.2,8.3c15.4,4.7,32,2.4,47.4-5.9c9.5-5.9,17.8-14.2,23.7-23.7
		c3.6,1.2,7.1,2.4,10.6,3.6c53.3,16.6,103,37.9,150.4,66.3L970,820c-49.7-28.4-103-52.1-157.5-68.7
		C811.6,750.1,808.1,748.9,804.5,748.9L804.5,748.9z"/>
	<circle class="st1" cx="255" cy="279.8" r="23.7"/>
</g>
</svg>
