<?xml version="1.0" encoding="utf-8"?>
<!-- Generator: Adobe Illustrator 23.0.2, SVG Export Plug-In . SVG Version: 6.00 Build 0)  -->
<svg version="1.1" id="Ebene_1" xmlns="http://www.w3.org/2000/svg" xmlns:xlink="http://www.w3.org/1999/xlink" x="0px" y="0px"
	 viewBox="0 0 1000 1000" style="enable-background:new 0 0 1000 1000;" xml:space="preserve">
<style type="text/css">
	.st0{fill:#FFFFFF;}
</style>
<path class="st0" d="M855.9,413.5h-44c-4,0-8-4-8-8v-93.3c0-164-124-303.9-289.3-311.9C340-6.4,197.4,130.9,197.4,304.2v101.3
	c0,4-4,8-8,8h-44c-32,0-57.3,25.3-57.3,57.3v36c0,6.7,6.7,13.3,13.3,13.3h126.6c17.3,0,32,14.7,32,32c0,17.3-14.7,32-32,32h-128
	c-6.7,0-13.3,6.7-13.3,13.3v64c0,6.7,6.7,13.3,13.3,13.3h128c17.3,0,32,14.7,32,32s-14.7,32-32,32h-128c-6.7,0-13.3,6.7-13.3,13.3
	v61.3c0,6.7,6.7,13.3,13.3,13.3h128c17.3,0,32,14.7,32,32c0,17.3-14.7,32-32,32h-128c-6.7,0-13.3,6.7-13.3,13.3v38.7
	c0,32,25.3,57.3,57.3,57.3h711.8c32,0,57.3-25.3,57.3-57.3V473.4C913.2,438.8,887.9,413.5,855.9,413.5z M498.7,904
	c-22.8,0-41.3-18.5-41.3-41.3s18.5-41.3,41.3-41.3s41.3,18.5,41.3,41.3S521.5,904,498.7,904z M592,658.7c-4,6.7-9.3,12-14.7,17.3
	c-4,4-8,8-13.3,13.3c-6.7,5.3-10.7,9.3-14.7,14.7c-4,4-8,8-9.3,10.7c-6.7,9.3-9.3,21.3-9.3,33.3v10.7c0,8-5.3,13.3-13.3,13.3H484
	c-8,0-13.3-5.3-13.3-13.3v-18.7c-1.3-10.7,0-20,5.3-30.7c0-1.3,1.3-1.3,1.3-2.7c5.3-9.3,12-18.7,21.3-26.7l38.7-38.7
	c8-9.3,12-20,12-33.3c0-12-4-24-13.3-32c-8-8-20-13.3-33.3-13.3c-12-1.3-24,4-33.3,12c-6.7,6.7-10.7,14.7-13.3,22.7
	c-1.3,5.3-6.7,10.7-13.3,10.7h-37.3c-8,0-14.7-8-13.3-16c5.3-22.7,17.3-42.7,34.7-57.3c22.7-18.7,49.3-28,78.6-26.7
	c28-1.3,54.7,8,76,25.3c20,17.3,29.3,41.3,29.3,72C609.3,625.4,602.6,644.1,592,658.7z M694.6,413.5H306.7c-4,0-8-4-8-8v-94.6
	c0-108,80-200,186.6-208c117.3-8,214.6,84,214.6,200l2.7,102.6C702.6,409.5,698.6,413.5,694.6,413.5z"/>
</svg>
