<?xml version="1.0" encoding="utf-8"?>
<!-- Generator: Adobe Illustrator 22.1.0, SVG Export Plug-In . SVG Version: 6.00 Build 0)  -->
<svg version="1.1" id="Ebene_1" xmlns="http://www.w3.org/2000/svg" xmlns:xlink="http://www.w3.org/1999/xlink" x="0px" y="0px"
	 viewBox="0 0 75 75" style="enable-background:new 0 0 75 75;" xml:space="preserve">
<style type="text/css">
	.st0{fill:#0C0C0C;}
	.st1{fill:#FFFFFF;}
</style>
<path class="st0" d="M64.2,31h-3.3c-0.3,0-0.6-0.3-0.6-0.6v-7C60.3,11.1,51,0.6,38.6,0C25.5-0.5,14.8,9.8,14.8,22.8v7.6
	c0,0.3-0.3,0.6-0.6,0.6h-3.3c-2.4,0-4.3,1.9-4.3,4.3V38c0,0.5,0.5,1,1,1h9.5c1.3,0,2.4,1.1,2.4,2.4c0,1.3-1.1,2.4-2.4,2.4H7.5
	c-0.5,0-1,0.5-1,1v4.8c0,0.5,0.5,1,1,1h9.6c1.3,0,2.4,1.1,2.4,2.4s-1.1,2.4-2.4,2.4H7.5c-0.5,0-1,0.5-1,1V61c0,0.5,0.5,1,1,1h9.6
	c1.3,0,2.4,1.1,2.4,2.4s-1.1,2.4-2.4,2.4H7.5c-0.5,0-1,0.5-1,1v2.9c0,2.4,1.9,4.3,4.3,4.3h53.4c2.4,0,4.3-1.9,4.3-4.3V35.5
	C68.5,32.9,66.6,31,64.2,31z M52.7,30.4c0,0.3-0.3,0.6-0.6,0.6H23c-0.3,0-0.6-0.3-0.6-0.6v-7.1c0-8.1,6-15,14-15.6
	c8.8-0.6,16.1,6.3,16.1,15C52.5,22.7,52.7,30.4,52.7,30.4z"/>
<g>
	<circle class="st1" cx="37.4" cy="64.7" r="3.1"/>
	<path class="st1" d="M44.4,49.4c-0.3,0.5-0.7,0.9-1.1,1.3c-0.3,0.3-0.6,0.6-1,1c-0.5,0.4-0.8,0.7-1.1,1.1c-0.3,0.3-0.6,0.6-0.7,0.8
		c-0.5,0.7-0.7,1.6-0.7,2.5v0.8c0,0.6-0.4,1-1,1h-2.5c-0.6,0-1-0.4-1-1v-1.4c-0.1-0.8,0-1.5,0.4-2.3c0-0.1,0.1-0.1,0.1-0.2
		c0.4-0.7,0.9-1.4,1.6-2l2.9-2.9c0.6-0.7,0.9-1.5,0.9-2.5c0-0.9-0.3-1.8-1-2.4c-0.6-0.6-1.5-1-2.5-1c-0.9-0.1-1.8,0.3-2.5,0.9
		c-0.5,0.5-0.8,1.1-1,1.7c-0.1,0.4-0.5,0.8-1,0.8h-2.8c-0.6,0-1.1-0.6-1-1.2c0.4-1.7,1.3-3.2,2.6-4.3c1.7-1.4,3.7-2.1,5.9-2
		c2.1-0.1,4.1,0.6,5.7,1.9c1.5,1.3,2.2,3.1,2.2,5.4C45.7,46.9,45.2,48.3,44.4,49.4L44.4,49.4z"/>
</g>
</svg>
