<svg width="50" height="50" viewBox="0 0 50 50" fill="none" xmlns="http://www.w3.org/2000/svg">
<g clip-path="url(#clip0)">
<path d="M1.5 25C1.5 12.0213 12.0213 1.5 25 1.5C37.9787 1.5 48.5 12.0213 48.5 25C48.5 37.9787 37.9787 48.5 25 48.5C12.0213 48.5 1.5 37.9787 1.5 25Z" fill="#F15A50" stroke="#F15A50" stroke-width="3"/>
<path d="M13.1857 34.2155C12.4677 34.9333 12.4677 36.0972 13.1857 36.8151C13.9033 37.533 15.0673 37.533 15.7853 36.8151L13.1857 34.2155ZM37.3535 14.4854C37.3535 13.4702 36.5305 12.6471 35.5153 12.6471L18.9712 12.6471C17.9559 12.6471 17.1329 13.4702 17.1329 14.4854C17.1329 15.5007 17.9559 16.3237 18.9712 16.3237L33.677 16.3237L33.677 31.0296C33.677 32.0448 34.5001 32.8678 35.5153 32.8678C36.5305 32.8678 37.3535 32.0448 37.3535 31.0296L37.3535 14.4854ZM15.7853 36.8151L36.8151 15.7853L34.2155 13.1857L13.1857 34.2155L15.7853 36.8151Z" fill="white"/>
</g>
<defs>
<clipPath id="clip0">
<rect width="50" height="50" fill="white" transform="translate(50 50) rotate(-180)"/>
</clipPath>
</defs>
</svg>
