<svg width="50" height="50" viewBox="0 0 50 50" fill="none" xmlns="http://www.w3.org/2000/svg">
<path d="M48.5 25C48.5 37.9787 37.9787 48.5 25 48.5C12.0213 48.5 1.5 37.9787 1.5 25C1.5 12.0213 12.0213 1.5 25 1.5C37.9787 1.5 48.5 12.0213 48.5 25Z" fill="#0BA84A" stroke="#0BA84A" stroke-width="3"/>
<path d="M38.6752 15.785C39.3932 15.0671 39.3932 13.9032 38.6752 13.1854C37.9575 12.4675 36.7935 12.4675 36.0756 13.1854L38.6752 15.785ZM14.5073 35.515C14.5073 36.5303 15.3303 37.3534 16.3456 37.3534H32.8897C33.9049 37.3534 34.7279 36.5303 34.7279 35.515C34.7279 34.4998 33.9049 33.6768 32.8897 33.6768H18.1838V18.9709C18.1838 17.9557 17.3608 17.1327 16.3456 17.1327C15.3303 17.1327 14.5073 17.9557 14.5073 18.9709V35.515ZM36.0756 13.1854L15.0457 34.2152L17.6454 36.8148L38.6752 15.785L36.0756 13.1854Z" fill="white"/>
</svg>
