<svg xmlns="http://www.w3.org/2000/svg" viewBox="0 0 79.39 79.56"><defs><style>.a{fill:#3a71b7;}</style></defs><path class="a" d="M16.85,2,29.14,14.23a6.41,6.41,0,0,1-.17,9l-6.19,6.19.68,1.22A62,62,0,0,0,34.23,45.57,62,62,0,0,0,49.15,56.36l1.2.67,4.15-4.16,2-2a6.41,6.41,0,0,1,9-.17L77.86,63a6.41,6.41,0,0,1-.17,9L74.2,75.45l-.09-.1a20.37,20.37,0,0,1-5,2.86A21.49,21.49,0,0,1,64,79.48C50.52,81.1,38.23,75,21.55,58.27-1.51,35.21.22,16.63.32,15.83A21.12,21.12,0,0,1,1.6,10.71a20,20,0,0,1,2.85-5l-.07-.07L7.81,2.11A6.41,6.41,0,0,1,16.85,2Z" transform="translate(-0.25 -0.17)"/></svg>
