<?xml version="1.0" encoding="utf-8"?>
<!-- Generator: Adobe Illustrator 22.1.0, SVG Export Plug-In . SVG Version: 6.00 Build 0)  -->
<svg version="1.1" id="Ebene_1" xmlns="http://www.w3.org/2000/svg" xmlns:xlink="http://www.w3.org/1999/xlink" x="0px" y="0px"
	 viewBox="0 0 1000 1000" style="enable-background:new 0 0 1000 1000;" xml:space="preserve">
<style type="text/css">
	.st0{fill:#1D7BF1;}
	.st1{fill:#87BDFF;}
</style>
<g>
	<g>
		<path class="st0" d="M575.2,834.2l-0.3-0.6l-0.3-0.6c-16.6-29.4-16.6-64.6,0.6-95l93.6-160c-2.4-1.3-4.8-2.6-7.1-3.9
			c0.5-0.5-0.7,0.4-0.2,0c-27.7-16.3-48.3-29.3-60.7-35.6c0-0.3-0.2-0.5-0.2-0.8v-59.2c15.8-25.8,23.6-54.4,28.5-80.2
			c8.8-1,25.9-42.8,36.4-87.8c8-47.5-15-44.2-18.1-45.5c2.7-10.9,7.5-35.1,7.3-63.8c12-104.9-35.7-125.8-58.6-129.7
			c-4.2-3.2-8.4-6.4-13.3-9.3l-25.7-32.7C534.8,9.9,502.4-3,471.3,3.7c-50.2,10.8-154.5-1-154.5-1c-1,21.6,17.7,37.4,17.7,37.4
			c-43,26.4-61.5,66.3-68.3,104.6c-7.3,24.1-8.3,59.7,2.8,110.8c-16-0.6-32,11.1-15.2,70.9c6.4,23.3,12.9,38.1,18.8,47.2
			c3.9,4.4,13.6,20.1,19.4,23.9c5,21.8,12.2,50.6,24.7,71.6v61c0,3-1,5.9-3.9,6.9C290.2,548.8,176,605.9,70.7,692.5
			c-18.7,14.8-29.5,38.4-29.5,63v116.1l569-2.2C595.9,860.8,583.8,848.8,575.2,834.2z"/>
		<path class="st0" d="M876.2,756.3c0-23.9-10.8-46.8-29.5-61.1c-6.8-5.4-13.6-10.7-20.4-15.9l-20.9-0.9l2.3-12.9
			c-27.1-19.6-53.9-37.2-78.8-52.6l-93.7,160.2c-4.5,8.1-4.5,17.6,0,25.7c4.7,8,13.3,13.5,23.3,15.1h3.7l123,4.5l-9.3,50.5h94.4
			l6-10.2L876.2,756.3L876.2,756.3z"/>
	</g>
	<g>
		<path class="st1" d="M756.4,974.2l28.8-155.7l-123-4.5h-3.7c-9.9-1.5-18.6-7.1-23.3-15.1c-4.5-8.1-4.5-17.6,0-25.7l153.5-262.4
			c4.1-7.1,12.3-11.5,21.2-11.4h3.8c12.6,1.9,21.3,12.3,19.7,23.6l-28.1,155.5l122.9,5h3.7c10,1.5,18.6,7.1,23.3,15.1
			c4.6,8.1,4.6,17.6,0,25.7L801,986.7c-4.1,7.1-12.3,11.5-21.2,11.4H776C763.3,996.1,754.6,985.6,756.4,974.2L756.4,974.2z"/>
	</g>
</g>
</svg>
