<svg width="227" height="149" viewBox="0 0 227 149" fill="none" xmlns="http://www.w3.org/2000/svg">
<g clip-path="url(#clip0_2725_270)">
<path d="M117.7 131.088C177.333 131.088 214.695 124.593 225.676 79.0064C238.221 26.9253 180.424 54.7618 117.7 26.9253C54.9755 -0.911154 59.0077 42.6394 9.72422 79.0064C-27.959 106.813 58.0666 131.088 117.7 131.088Z" fill="#CBECF4"/>
<path d="M210.367 140.933H32.8691V141.012H210.367V140.933Z" fill="#DCF0FA"/>
<path d="M192.581 146.029H180.823V146.108H192.581V146.029Z" fill="#DCF0FA"/>
<path d="M150.452 146.892H147.367V146.971H150.452V146.892Z" fill="#DCF0FA"/>
<path d="M180.464 143.091H173.652V143.17H180.464V143.091Z" fill="#DCF0FA"/>
<path d="M66.8266 143.621H51.4943V143.7H66.8266V143.621Z" fill="#DCF0FA"/>
<path d="M72.2342 143.621H69.9871V143.7H72.2342V143.621Z" fill="#DCF0FA"/>
<path d="M112.795 144.961H79.5387V145.04H112.795V144.961Z" fill="#DCF0FA"/>
<path d="M117.002 126.813H48.456C47.919 126.812 47.4044 126.622 47.025 126.283C46.6456 125.944 46.4325 125.484 46.4325 125.005V39.0658C46.4372 38.5896 46.6523 38.1343 47.0312 37.7987C47.4101 37.4632 47.9221 37.2745 48.456 37.2737H117.002C117.54 37.2737 118.055 37.4642 118.435 37.8032C118.816 38.1423 119.029 38.6021 119.029 39.0816V125.005C119.029 125.485 118.816 125.945 118.435 126.284C118.055 126.623 117.54 126.813 117.002 126.813ZM48.456 37.337C47.9426 37.3379 47.4505 37.5204 47.0877 37.8445C46.725 38.1686 46.5213 38.6078 46.5213 39.0658V125.005C46.5213 125.463 46.725 125.902 47.0877 126.227C47.4505 126.551 47.9426 126.733 48.456 126.734H117.002C117.516 126.733 118.008 126.551 118.372 126.227C118.735 125.903 118.939 125.464 118.94 125.005V39.0658C118.939 38.6075 118.735 38.1683 118.372 37.8443C118.008 37.5203 117.516 37.3379 117.002 37.337H48.456Z" fill="#DCF0FA"/>
<path d="M193.789 126.813H125.239C124.702 126.812 124.187 126.622 123.807 126.283C123.427 125.944 123.213 125.485 123.212 125.005V39.0658C123.218 38.5893 123.433 38.134 123.813 37.7985C124.192 37.4631 124.705 37.2745 125.239 37.2737H193.789C194.322 37.2753 194.833 37.4644 195.211 37.7998C195.589 38.1353 195.804 38.5901 195.809 39.0658V125.005C195.809 125.484 195.596 125.943 195.217 126.281C194.839 126.62 194.325 126.812 193.789 126.813ZM125.239 37.337C124.725 37.3379 124.233 37.5203 123.869 37.8443C123.506 38.1683 123.302 38.6075 123.301 39.0658V125.005C123.302 125.464 123.506 125.903 123.869 126.227C124.233 126.551 124.725 126.733 125.239 126.734H193.789C194.302 126.733 194.795 126.551 195.158 126.227C195.521 125.903 195.726 125.464 195.727 125.005V39.0658C195.726 38.6075 195.521 38.1683 195.158 37.8443C194.795 37.5203 194.302 37.3379 193.789 37.337H125.239Z" fill="#DCF0FA"/>
<path d="M124.583 140.933H134.839V108.347H124.583V140.933Z" fill="#BBD0DA"/>
<path d="M126.528 140.934H124.579V137.913H128.569L126.528 140.934Z" fill="#F0F0F0"/>
<path d="M183.092 140.933H193.348V108.347H183.092V140.933Z" fill="#BBD0DA"/>
<path d="M124.584 140.137H184.798V108.342H124.584V140.137Z" fill="#F0F0F0"/>
<path d="M164.939 110.235V138.376H182.788V110.235H164.939Z" fill="#BBD0DA"/>
<path d="M172.102 111.85H175.631C176.417 111.838 177.189 111.668 177.892 111.353C178.594 111.039 179.208 110.587 179.689 110.033H168.045C168.526 110.587 169.14 111.038 169.842 111.352C170.544 111.667 171.317 111.837 172.102 111.85Z" fill="#F0F0F0"/>
<path d="M145.762 110.239V138.38H163.611V110.239H145.762Z" fill="#BBD0DA"/>
<path d="M152.74 111.85H156.272C157.055 111.835 157.824 111.664 158.523 111.35C159.223 111.035 159.834 110.585 160.312 110.033H148.686C149.166 110.587 149.78 111.038 150.481 111.353C151.183 111.667 151.955 111.837 152.74 111.85Z" fill="#F0F0F0"/>
<path d="M126.58 110.239V138.38H144.429V110.239H126.58Z" fill="#BBD0DA"/>
<path d="M133.559 111.85H137.091C137.876 111.837 138.647 111.667 139.348 111.352C140.049 111.037 140.662 110.587 141.142 110.033H129.505C129.985 110.587 130.598 111.038 131.3 111.353C132.002 111.667 132.774 111.837 133.559 111.85Z" fill="#F0F0F0"/>
<path d="M182.848 140.934H184.793V137.913H180.803L182.848 140.934Z" fill="#F0F0F0"/>
<path d="M58.4322 140.933H60.2213L60.2213 114.768H58.4322V140.933Z" fill="#BBD0DA"/>
<path d="M100.4 109.675H90.7125V114.766H100.4V109.675Z" fill="#BBD0DA"/>
<path d="M52.2345 114.769H90.7125V109.678H52.2345V114.769Z" fill="#BBD0DA"/>
<path d="M100.4 117.932H90.7125V123.024H100.4V117.932Z" fill="#BBD0DA"/>
<path d="M52.2345 123.027H90.7125V117.936H52.2345V123.027Z" fill="#BBD0DA"/>
<path d="M100.4 126.192H90.7125V131.283H100.4V126.192Z" fill="#BBD0DA"/>
<path d="M52.2345 131.283H90.7125V126.192H52.2345V131.283Z" fill="#BBD0DA"/>
<path d="M96.9102 140.933H98.6994V114.768H96.9102V140.933Z" fill="#BBD0DA"/>
<path d="M88.9233 140.933H90.7125V114.768H88.9233V140.933Z" fill="#BBD0DA"/>
<path d="M52.2379 140.933H54.0271L54.0271 114.768H52.2379V140.933Z" fill="#BBD0DA"/>
<path d="M182.305 124.495H95.8496C94.9998 124.503 94.1573 124.366 93.3767 124.091C92.5961 123.816 91.8948 123.41 91.3181 122.9C90.7415 122.389 90.3024 121.785 90.0293 121.127C89.7562 120.469 89.6552 119.772 89.7328 119.079L100.321 5.55967C100.486 4.0971 101.305 2.73573 102.622 1.73643C103.938 0.737128 105.659 0.17018 107.455 0.144221H193.91C194.76 0.135152 195.603 0.272346 196.384 0.546902C197.165 0.821458 197.867 1.22724 198.444 1.73791C199.021 2.24857 199.46 2.85272 199.733 3.51112C200.005 4.16952 200.106 4.86747 200.027 5.55967L189.439 119.079C189.273 120.542 188.453 121.903 187.137 122.902C185.821 123.901 184.101 124.468 182.305 124.495Z" fill="#6F1475"/>
<path opacity="0.5" d="M182.305 124.495H95.8496C94.9998 124.503 94.1573 124.366 93.3767 124.091C92.5961 123.816 91.8948 123.41 91.3181 122.9C90.7415 122.389 90.3024 121.785 90.0293 121.127C89.7562 120.469 89.6552 119.772 89.7328 119.079L100.321 5.55967C100.486 4.0971 101.305 2.73573 102.622 1.73643C103.938 0.737128 105.659 0.17018 107.455 0.144221H193.91C194.76 0.135152 195.603 0.272346 196.384 0.546902C197.165 0.821458 197.867 1.22724 198.444 1.73791C199.021 2.24857 199.46 2.85272 199.733 3.51112C200.005 4.16952 200.106 4.86747 200.027 5.55967L189.439 119.079C189.273 120.542 188.453 121.903 187.137 122.902C185.821 123.901 184.101 124.468 182.305 124.495Z" fill="white"/>
<path d="M181.032 124.495H94.5717C93.7219 124.503 92.8794 124.366 92.0988 124.091C91.3182 123.816 90.6169 123.41 90.0403 122.9C89.4636 122.389 89.0245 121.785 88.7514 121.127C88.4783 120.469 88.3773 119.772 88.4549 119.079L99.0489 5.55967C99.2139 4.09637 100.034 2.7344 101.351 1.735C102.669 0.735595 104.391 0.169118 106.188 0.144221H192.643C193.493 0.135152 194.336 0.272346 195.117 0.546902C195.898 0.821458 196.6 1.22724 197.177 1.73791C197.753 2.24857 198.192 2.85272 198.465 3.51112C198.738 4.16952 198.838 4.86747 198.76 5.55967L188.171 119.079C188.006 120.543 187.186 121.905 185.869 122.904C184.552 123.904 182.829 124.47 181.032 124.495Z" fill="#6F1475"/>
<path opacity="0.7" d="M181.032 124.495H94.5717C93.7219 124.503 92.8794 124.366 92.0988 124.091C91.3182 123.816 90.6169 123.41 90.0403 122.9C89.4636 122.389 89.0245 121.785 88.7514 121.127C88.4783 120.469 88.3773 119.772 88.4549 119.079L99.0489 5.55967C99.2139 4.09637 100.034 2.7344 101.351 1.735C102.669 0.735595 104.391 0.169118 106.188 0.144221H192.643C193.493 0.135152 194.336 0.272346 195.117 0.546902C195.898 0.821458 196.6 1.22724 197.177 1.73791C197.753 2.24857 198.192 2.85272 198.465 3.51112C198.738 4.16952 198.838 4.86747 198.76 5.55967L188.171 119.079C188.006 120.543 187.186 121.905 185.869 122.904C184.552 123.904 182.829 124.47 181.032 124.495Z" fill="white"/>
<path d="M94.7411 122.69C94.1743 122.697 93.612 122.607 93.091 122.424C92.5699 122.241 92.1017 121.971 91.717 121.63C91.3323 121.29 91.0396 120.887 90.858 120.448C90.6765 120.009 90.6101 119.543 90.6633 119.082L101.114 7.06805C101.221 6.09267 101.766 5.18436 102.644 4.51806C103.522 3.85175 104.67 3.47459 105.867 3.4592H192.323C192.89 3.45227 193.452 3.54308 193.973 3.72572C194.494 3.90836 194.962 4.17873 195.347 4.51922C195.732 4.8597 196.024 5.26266 196.206 5.70182C196.388 6.14099 196.454 6.60651 196.401 7.06805L185.951 119.082C185.843 120.056 185.299 120.964 184.422 121.63C183.545 122.296 182.398 122.674 181.202 122.69H94.7411Z" fill="#0F2759"/>
<path opacity="0.2" d="M180.584 22.2989H118.714C118.377 22.3026 118.044 22.2483 117.735 22.1397C117.427 22.0311 117.149 21.8706 116.921 21.6686C116.693 21.4666 116.52 21.2276 116.412 20.9672C116.305 20.7068 116.265 20.4308 116.297 20.1571C116.363 19.5802 116.687 19.0435 117.206 18.6493C117.726 18.2551 118.404 18.031 119.113 18.0197H180.984C181.32 18.0154 181.653 18.0691 181.962 18.1772C182.27 18.2853 182.548 18.4454 182.776 18.6471C183.004 18.8487 183.177 19.0875 183.285 19.3476C183.393 19.6078 183.432 19.8837 183.401 20.1571C183.338 20.7355 183.015 21.2744 182.495 21.6698C181.975 22.0653 181.294 22.2894 180.584 22.2989Z" fill="black"/>
<path opacity="0.3" d="M154.192 2.35284H144.2C144.117 2.35373 144.035 2.34039 143.959 2.3137C143.883 2.28702 143.814 2.24757 143.758 2.19791C143.702 2.14826 143.659 2.0895 143.632 2.02545C143.606 1.9614 143.596 1.89349 143.603 1.8261C143.62 1.68435 143.7 1.55254 143.827 1.45551C143.955 1.35848 144.121 1.30293 144.295 1.29935H154.293C154.375 1.29908 154.457 1.31286 154.532 1.33982C154.608 1.36678 154.675 1.40632 154.731 1.45591C154.787 1.5055 154.829 1.56404 154.855 1.62779C154.882 1.69153 154.891 1.75908 154.884 1.8261C154.87 1.96856 154.791 2.10147 154.663 2.19887C154.535 2.29628 154.367 2.35117 154.192 2.35284Z" fill="#6F1475"/>
<path d="M118.425 20.1584C118.514 19.4013 118.406 18.6374 118.109 17.9166C117.811 17.1959 117.332 16.5346 116.701 15.9758C116.069 15.417 115.301 14.9734 114.446 14.674C113.591 14.3745 112.669 14.226 111.739 14.238H174.557C175.487 14.226 176.41 14.3745 177.265 14.674C178.12 14.9734 178.888 15.417 179.519 15.9758C180.15 16.5346 180.63 17.1959 180.927 17.9166C181.224 18.6374 181.332 19.4013 181.244 20.1584H118.425Z" fill="#F0F0F0"/>
<path d="M111.758 14.2373C109.793 14.262 107.909 14.8806 106.469 15.9738C105.029 17.067 104.134 18.5574 103.958 20.1577L97.5222 89.1438C97.3474 90.7437 96.4543 92.2341 95.0151 93.3274C93.5759 94.4206 91.6926 95.0394 89.7284 95.0642H152.547C154.512 95.0395 156.396 94.4209 157.836 93.3277C159.276 92.2345 160.17 90.7441 160.346 89.1438L166.782 20.1577C166.957 18.5578 167.85 17.0674 169.289 15.9741C170.729 14.8809 172.612 14.2621 174.576 14.2373H111.758Z" fill="white"/>
<path d="M110.434 37.871C110.388 37.8762 110.318 37.8788 110.226 37.879C109.382 37.8803 108.727 37.6562 108.26 37.2067C107.794 36.752 107.56 36.0692 107.559 35.1584C107.557 34.2476 107.789 33.5666 108.254 33.1156C108.719 32.6594 109.373 32.4307 110.218 32.4293C111.067 32.428 111.725 32.6546 112.191 33.1093C112.658 33.5589 112.892 34.2391 112.893 35.1499C112.894 35.7844 112.78 36.3091 112.55 36.724C112.321 37.1388 111.988 37.4412 111.554 37.6313L112.753 38.7807L111.287 38.783L110.434 37.871ZM110.225 36.9349C110.726 36.9341 111.105 36.7902 111.36 36.5033C111.621 36.2112 111.75 35.799 111.75 35.2669L111.749 35.0366C111.748 34.5044 111.617 34.0953 111.356 33.8091C111.1 33.5179 110.721 33.3726 110.219 33.3734C109.718 33.3742 109.339 33.5207 109.084 33.8127C108.828 34.0997 108.701 34.5093 108.702 35.0414L108.702 35.2717C108.703 35.8039 108.832 36.2156 109.088 36.5069C109.344 36.793 109.723 36.9357 110.225 36.9349ZM115.978 37.8699C115.267 37.871 114.714 37.6979 114.319 37.3505C113.924 37.0032 113.727 36.4944 113.726 35.824L113.72 32.5159L114.833 32.5141L114.838 35.7685C114.839 36.1472 114.937 36.4362 115.132 36.6354C115.331 36.8296 115.613 36.9263 115.976 36.9258C116.34 36.9252 116.621 36.8275 116.82 36.6327C117.025 36.4329 117.126 36.1436 117.126 35.7649L117.121 32.5105L118.234 32.5087L118.239 35.8169C118.24 36.4872 118.041 36.9967 117.643 37.3453C117.249 37.6939 116.694 37.8687 115.978 37.8699ZM121.74 37.8607C120.895 37.862 120.24 37.6379 119.774 37.1884C119.307 36.7337 119.073 36.0509 119.072 35.1401C119.07 34.2293 119.302 33.5483 119.767 33.0973C120.232 32.6411 120.887 32.4124 121.731 32.411C122.58 32.4097 123.238 32.6364 123.705 33.091C124.171 33.5406 124.405 34.2208 124.406 35.1316C124.408 36.0425 124.176 36.726 123.711 37.1821C123.246 37.6332 122.589 37.8594 121.74 37.8607ZM121.738 36.9166C122.24 36.9158 122.618 36.7719 122.874 36.485C123.134 36.1929 123.264 35.7808 123.263 35.2486L123.263 35.0183C123.262 34.4861 123.131 34.077 122.869 33.7908C122.613 33.4996 122.234 33.3543 121.733 33.3551C121.231 33.3559 120.853 33.5024 120.597 33.7945C120.342 34.0814 120.215 34.491 120.215 35.0232L120.216 35.2534C120.217 35.7856 120.345 36.1973 120.602 36.4886C120.858 36.7747 121.237 36.9174 121.738 36.9166ZM126.509 33.455L124.882 33.4576L124.881 32.4981L129.248 32.4912L129.25 33.4507L127.622 33.4532L127.629 37.7592L126.516 37.761L126.509 33.455ZM130.914 32.4886L132.311 32.4863L134.377 37.7485L133.164 37.7504L132.786 36.7455L130.392 36.7494L130.017 37.7554L128.866 37.7573L130.914 32.4886ZM132.432 35.8174L131.931 34.4826C131.869 34.319 131.759 33.9737 131.599 33.4469L131.561 33.447C131.403 33.9743 131.293 34.3199 131.232 34.4837L130.736 35.8201L132.432 35.8174ZM135.602 33.4406L133.974 33.4432L133.973 32.4837L138.34 32.4768L138.342 33.4362L136.715 33.4388L136.721 37.7448L135.608 37.7466L135.602 33.4406ZM139.018 32.4757L140.131 32.4739L140.14 37.7394L139.027 37.7411L139.018 32.4757ZM143.635 37.8259C142.79 37.8273 142.135 37.6032 141.669 37.1536C141.202 36.6989 140.968 36.0162 140.967 35.1053C140.965 34.1945 141.197 33.5136 141.662 33.0625C142.127 32.6064 142.782 32.3776 143.626 32.3763C144.475 32.3749 145.133 32.6016 145.6 33.0563C146.066 33.5058 146.3 34.186 146.301 35.0969C146.303 36.0077 146.071 36.6912 145.606 37.1473C145.141 37.5984 144.484 37.8246 143.635 37.8259ZM143.633 36.8818C144.135 36.881 144.513 36.7372 144.768 36.4502C145.029 36.1581 145.159 35.746 145.158 35.2138L145.158 34.9835C145.157 34.4514 145.026 34.0422 144.764 33.7561C144.508 33.4648 144.129 33.3196 143.627 33.3204C143.126 33.3212 142.748 33.4676 142.492 33.7597C142.237 34.0466 142.109 34.4562 142.11 34.9884L142.111 35.2186C142.112 35.7508 142.24 36.1625 142.496 36.4538C142.753 36.74 143.132 36.8826 143.633 36.8818ZM147.129 32.4628L148.211 32.4611L150.242 35.3209C150.303 35.4078 150.406 35.579 150.55 35.8346L150.588 35.8116L150.564 35.3664L150.56 32.4574L151.642 32.4556L151.65 37.7211L150.568 37.7228L148.529 34.84C148.432 34.702 148.332 34.5333 148.229 34.3339L148.191 34.357C148.207 34.577 148.214 34.7305 148.215 34.8175L148.219 37.7265L147.137 37.7283L147.129 32.4628Z" fill="#6A1370"/>
<path d="M145.855 89.1421C145.766 89.8992 145.874 90.6631 146.171 91.3838C146.469 92.1046 146.948 92.7659 147.579 93.3247C148.21 93.8834 148.979 94.327 149.834 94.6265C150.689 94.9259 151.611 95.0745 152.541 95.0625H89.7227C88.7927 95.0745 87.87 94.9259 87.015 94.6265C86.16 94.327 85.3919 93.8834 84.7608 93.3247C84.1298 92.7659 83.65 92.1046 83.3528 91.3838C83.0556 90.6631 82.9478 89.8992 83.0363 89.1421H145.855Z" fill="#F0F0F0"/>
<path d="M109.086 87.7788C109.326 85.2583 108.357 83.2209 105.28 83.2209H153.65C156.727 83.2209 159.043 85.5238 157.462 87.7788H109.086Z" fill="#E0E0E0"/>
<path d="M145.855 89.1409C146.026 87.5386 146.918 86.0451 148.358 84.9491C149.797 83.8531 151.683 83.2326 153.649 83.2074H90.8307C88.8665 83.2323 86.9832 83.851 85.544 84.9443C84.1048 86.0375 83.2117 87.5279 83.0369 89.1279L145.855 89.1409Z" fill="#F0F0F0"/>
<path d="M175.558 106.245H103.45C103.206 106.248 102.964 106.208 102.74 106.13C102.516 106.051 102.314 105.934 102.149 105.788C101.983 105.641 101.857 105.468 101.778 105.279C101.7 105.09 101.671 104.89 101.693 104.691C101.741 104.272 101.975 103.881 102.352 103.594C102.729 103.308 103.223 103.145 103.738 103.137H175.851C176.095 103.135 176.336 103.175 176.56 103.254C176.783 103.333 176.984 103.449 177.149 103.596C177.314 103.742 177.44 103.915 177.518 104.104C177.596 104.293 177.625 104.493 177.603 104.691C177.556 105.11 177.321 105.501 176.944 105.787C176.567 106.074 176.073 106.237 175.558 106.245Z" fill="white"/>
<path d="M139.141 113.714H102.749C102.504 113.717 102.262 113.678 102.037 113.6C101.813 113.521 101.611 113.405 101.445 113.258C101.279 113.111 101.153 112.938 101.075 112.749C100.997 112.559 100.969 112.359 100.992 112.16C101.039 111.74 101.274 111.35 101.651 111.063C102.028 110.776 102.521 110.613 103.036 110.606H139.428C139.672 110.603 139.914 110.642 140.139 110.721C140.363 110.8 140.564 110.916 140.73 111.063C140.896 111.209 141.022 111.383 141.1 111.572C141.179 111.761 141.208 111.961 141.185 112.16C141.138 112.579 140.903 112.97 140.526 113.256C140.149 113.543 139.656 113.706 139.141 113.714Z" fill="white"/>
<path d="M164.337 113.714H149.596C149.351 113.717 149.109 113.678 148.884 113.6C148.66 113.521 148.458 113.405 148.292 113.258C148.126 113.111 148 112.938 147.922 112.748C147.844 112.559 147.816 112.359 147.839 112.16C147.886 111.74 148.12 111.35 148.498 111.063C148.875 110.776 149.368 110.613 149.883 110.606H164.624C164.868 110.604 165.11 110.643 165.333 110.722C165.557 110.801 165.758 110.918 165.924 111.064C166.089 111.211 166.216 111.384 166.294 111.572C166.373 111.761 166.402 111.961 166.381 112.16C166.334 112.579 166.099 112.969 165.722 113.256C165.345 113.543 164.852 113.706 164.337 113.714Z" fill="white"/>
<path d="M177.066 79.5663C177.699 80.3531 178.102 81.3125 178.275 82.4447H182.046V84.5171H178.362C178.266 86.3976 177.632 87.8559 176.462 88.8921C175.31 89.9283 173.641 90.4465 171.453 90.4465H172.173L179.34 97.2393H173.555L166.503 90.4465V86.9061H171.367C172.154 86.9061 172.787 86.7046 173.267 86.3016C173.747 85.8795 174.034 85.2846 174.13 84.5171H166.503V82.4447H173.871C173.468 81.5044 172.634 81.0343 171.367 81.0343H166.503V77.4939H182.046V79.5663H177.066Z" fill="white"/>
<path d="M159.079 44.2682H107.158L107.264 43.0928H159.19L159.079 44.2682Z" fill="#6A1370"/>
<path d="M159.079 44.2671H107.158L106.817 47.876H158.743L159.079 44.2671Z" fill="#F0F0F0"/>
<path d="M158.407 51.4834H106.481L106.146 55.0879H158.072L158.407 51.4834Z" fill="#F0F0F0"/>
<path d="M157.73 58.6897H105.809L105.474 62.2986H157.395L157.73 58.6897Z" fill="#F0F0F0"/>
<path d="M157.064 65.9028H105.138L104.802 69.5073H156.729L157.064 65.9028Z" fill="#F0F0F0"/>
<path d="M156.279 74.2937H104.352L104.464 73.1139H156.39L156.279 74.2937Z" fill="#6A1370"/>
<path d="M150.336 22.2976H161.127L160.637 27.5607H149.846L150.336 22.2976Z" fill="#F0F0F0"/>
<path d="M39.5081 63.3297L41.2226 63.9422C41.8485 64.1666 42.3973 64.5337 42.814 65.0067L43.6003 65.8938C43.8541 66.1787 43.9875 66.5341 43.9771 66.8978C43.9667 67.2616 43.8132 67.6105 43.5434 67.8834L42.7098 68.7283C42.5573 68.8833 42.3718 69.0098 42.164 69.1003C41.9563 69.1909 41.7304 69.2439 41.4996 69.256C41.2687 69.2682 41.0375 69.2394 40.8192 69.1713C40.601 69.1032 40.4 68.9971 40.228 68.8592L39.4229 68.2256C39.4229 68.2256 36.96 66.6838 36.2354 64.6435L36.709 64.221C37.0636 63.886 37.5021 63.6305 37.9886 63.4756C38.4751 63.3207 38.9958 63.2707 39.5081 63.3297Z" fill="#FFB573"/>
<path d="M44.2042 48.5096L43.6453 48.839L43.0248 49.2192C42.6128 49.4811 42.196 49.7515 41.7934 50.0261C40.9835 50.5879 40.1973 51.1666 39.4679 51.7833C38.0277 52.9371 36.7917 54.2787 35.802 55.7626C35.6836 55.94 35.5794 56.1174 35.4799 56.2991L35.4042 56.4342C35.4233 56.3773 35.4391 56.3195 35.4515 56.261C35.4676 56.1914 35.4676 56.1195 35.4515 56.0498C35.4089 55.9273 35.4042 56.2441 35.5131 56.5567C35.8035 57.368 36.1826 58.1519 36.6451 58.897C37.6207 60.5613 38.8427 62.2764 39.9983 63.9661L40.0268 64.0125C40.2559 64.3488 40.3262 64.7524 40.2224 65.1348C40.1185 65.5172 39.8489 65.8474 39.4726 66.0528C39.1824 66.2081 38.8465 66.2818 38.5086 66.2645C38.1707 66.2472 37.8465 66.1396 37.5781 65.9557C36.6316 65.2989 35.7286 64.5936 34.8737 63.8436C33.9991 63.0849 33.1737 62.2824 32.4014 61.44C31.5411 60.5192 30.811 59.5077 30.2274 58.4281C30.0525 58.0912 29.9038 57.744 29.7822 57.3889C29.626 56.927 29.5431 56.4478 29.5359 55.9653C29.5326 55.6385 29.5723 55.3124 29.6543 54.9938C29.7021 54.8119 29.7622 54.6327 29.8343 54.4573L29.9243 54.2419C30.0427 53.9504 30.1753 53.6674 30.3127 53.397C31.4191 51.244 32.9495 49.2853 34.8311 47.614C35.721 46.8027 36.6704 46.0448 37.6728 45.3456C38.1749 44.9992 38.6817 44.6613 39.2074 44.3444C39.4726 44.1839 39.7379 44.0234 40.0126 43.8713L40.4341 43.6432L40.9077 43.3982C41.6514 43.0402 42.5202 42.9489 43.3368 43.1431C44.1534 43.3372 44.856 43.8022 45.3011 44.4429C45.7461 45.0837 45.9001 45.8518 45.7314 46.5904C45.5627 47.3289 45.0842 47.9822 44.3936 48.4166L44.2042 48.5096Z" fill="#FFB573"/>
<path d="M44.262 41.8074C41.496 41.8074 38.4648 42.8762 34.5811 47.1722C34.5811 49.7364 40.6482 53.1453 40.6482 53.1453C40.6482 53.1453 50.5944 41.7863 44.262 41.8074Z" fill="#263238"/>
<path d="M23.7114 143.355C23.6616 143.354 23.6122 143.347 23.5646 143.334C22.9915 143.152 22.4515 141.851 22.4184 141.125C22.4161 141.102 22.4216 141.079 22.4344 141.06C22.4471 141.04 22.4663 141.024 22.4894 141.015C22.5114 141.002 22.5369 140.996 22.5629 140.996C22.5888 140.996 22.6143 141.002 22.6363 141.015C22.6978 141.061 24.1234 142.105 24.1898 142.806C24.1991 142.874 24.1925 142.943 24.1705 143.008C24.1485 143.073 24.1115 143.134 24.0619 143.186C24.0207 143.235 23.9681 143.276 23.9075 143.305C23.847 143.334 23.7801 143.351 23.7114 143.355ZM22.7215 141.408C22.8494 142.096 23.2899 142.992 23.6688 143.097C23.7063 143.108 23.7468 143.107 23.7838 143.095C23.8207 143.083 23.852 143.06 23.8724 143.03C23.8989 143.002 23.9185 142.97 23.9299 142.935C23.9414 142.9 23.9444 142.863 23.9387 142.827C23.8866 142.426 23.1857 141.779 22.7215 141.408Z" fill="#263238"/>
<path d="M24.6028 141.804C23.8512 141.768 23.1211 141.567 22.4762 141.221C22.4554 141.208 22.439 141.19 22.429 141.169C22.4189 141.148 22.4156 141.126 22.4194 141.103C22.4239 141.08 22.4356 141.059 22.4532 141.042C22.4709 141.024 22.4936 141.012 22.5188 141.006C22.5946 141.006 24.3802 140.583 25.0527 140.938C25.1203 140.971 25.1792 141.016 25.2258 141.071C25.2723 141.126 25.3053 141.188 25.3227 141.255C25.3468 141.333 25.3433 141.415 25.3128 141.491C25.2822 141.566 25.2261 141.632 25.1522 141.678C24.9872 141.767 24.796 141.812 24.6028 141.804ZM22.9119 141.166C23.6082 141.479 24.6833 141.69 25.0006 141.496C25.048 141.466 25.0906 141.424 25.0622 141.31C25.0537 141.274 25.036 141.24 25.0106 141.211C24.9851 141.181 24.9526 141.157 24.9154 141.141C24.5223 140.926 23.5229 141.057 22.9119 141.166Z" fill="#263238"/>
<path d="M17.5116 140.841C18.9146 139.502 20.1036 137.996 21.0449 136.367C21.0449 136.367 25.4401 137.33 24.5781 138.479C23.0104 140.528 22.2479 144.74 24.2655 146.995C25.4164 148.284 23.5977 148.499 22.371 147.946C20.4765 147.071 20.5381 146.742 19.5292 145.293C18.6767 144.055 18.3404 143.57 17.1611 143.037C16.2139 142.577 16.6875 141.715 17.5116 140.841Z" fill="#6A1370"/>
<path d="M54.7802 67.2733C54.7802 67.2733 48.4146 94.9843 43.7447 106.842C38.8473 119.269 25.3253 138.452 24.7996 139.276C22.8766 138.815 21.1621 138.215 20.0207 137.223C20.0207 137.223 26.3673 116.418 32.5528 102.922C34.921 74.746 40.0788 67.2944 40.0788 67.2944L54.7802 67.2733Z" fill="#0F2759"/>
<path opacity="0.2" d="M45.061 82.0981C44.7721 87.4587 44.5874 94.83 44.8573 103.802C46.804 98.2094 48.9211 90.6269 50.7019 83.8216C49.5131 82.4065 47.666 81.7264 45.061 82.0981Z" fill="black"/>
<path d="M45.4415 33.2933C46.1093 35.7053 46.7629 39.6296 45.6972 41.7417C45.6972 41.7417 49.6852 41.9023 54.7814 45.5436C57.1827 42.4007 54.4025 41.784 54.4025 41.784C52.2854 41.3616 52.3896 38.827 52.3943 37.0317L45.4415 33.2933Z" fill="#FFB573"/>
<path d="M44.4455 42.819C42.4563 42.6247 43.8298 39.2538 44.8623 39.5833C47.4767 40.4281 53.3402 39.4903 55.1542 40.3816C56.9682 41.273 56.5088 43.1021 56.5088 43.1021C56.5088 43.1021 46.5863 43.0302 44.4455 42.819Z" fill="#407BFF"/>
<path opacity="0.7" d="M44.4455 42.819C42.4563 42.6247 43.8298 39.2538 44.8623 39.5833C47.4767 40.4281 53.3402 39.4903 55.1542 40.3816C56.9682 41.273 56.5088 43.1021 56.5088 43.1021C56.5088 43.1021 46.5863 43.0302 44.4455 42.819Z" fill="white"/>
<path d="M56.046 29.0398C56.1123 29.3609 56.3539 29.5932 56.5907 29.5552C56.8275 29.5172 56.9649 29.2257 56.9033 28.9047C56.8417 28.5836 56.5954 28.3513 56.3586 28.3893C56.1218 28.4273 55.9987 28.7188 56.046 29.0398Z" fill="#263238"/>
<path d="M56.2552 28.4216L57.0793 28.0625C57.0793 28.0625 56.7525 28.7384 56.2552 28.4216Z" fill="#263238"/>
<path d="M56.5265 26.4627C56.5372 26.4399 56.5427 26.4155 56.5427 26.3909C56.5427 26.3662 56.5372 26.3418 56.5265 26.3191C56.511 26.27 56.4745 26.2283 56.4249 26.2031C56.3753 26.1778 56.3165 26.1709 56.2613 26.1839C55.9289 26.2563 55.6207 26.3984 55.3621 26.5982C55.1035 26.798 54.9019 27.0498 54.7741 27.3329C54.7585 27.3816 54.7639 27.4338 54.7894 27.4792C54.8148 27.5245 54.8584 27.5598 54.9115 27.5779C54.9661 27.594 55.0256 27.5901 55.0771 27.5671C55.1286 27.5442 55.1678 27.504 55.1862 27.4554C55.2891 27.2315 55.4509 27.033 55.6577 26.8764C55.8646 26.7198 56.1106 26.6098 56.375 26.5556C56.4061 26.5504 56.4357 26.5394 56.4618 26.5234C56.4879 26.5074 56.5099 26.4867 56.5265 26.4627Z" fill="#263238"/>
<path d="M56.4742 29.8225C56.8876 30.5346 57.4087 31.1927 58.0229 31.7783C57.8506 31.9148 57.6467 32.0158 57.4257 32.0742C57.2047 32.1326 56.972 32.1469 56.7441 32.1162L56.4742 29.8225Z" fill="#ED893E"/>
<path d="M43.6824 28.8754C44.7386 32.7955 45.1033 34.4725 47.694 36.158C51.6109 38.6925 56.6693 36.6902 56.925 32.5758C57.1524 28.8669 55.3905 23.0839 50.8152 22.1799C46.24 21.276 42.6262 24.9553 43.6824 28.8754Z" fill="#FFB573"/>
<path d="M52.208 29.5955C54.794 26.5456 56.4707 24.0786 55.2061 21.3793C54.1404 19.1236 51.1897 19.7826 50.7777 20.9104C42.9344 20.3148 40.1163 22.8494 41.7361 27.0398C42.7686 29.7138 38.7617 28.3071 39.7374 31.7203C40.481 34.3224 37.8429 35.3151 39.1833 36.8105C41.1157 38.9691 45.1036 36.1557 49.6552 37.7736C53.3684 39.1 58.9667 37.0935 52.208 29.5955Z" fill="#263238"/>
<path d="M51.7792 30.2118C51.9928 30.5249 52.2785 30.7941 52.6173 31.0016C52.9561 31.2092 53.3404 31.3503 53.7448 31.4157C54.7725 31.5508 55.1278 30.5201 54.692 29.5654C54.3131 28.7206 53.3232 27.6012 52.3523 27.9095C51.3814 28.2179 51.1967 29.388 51.7792 30.2118Z" fill="#FFB573"/>
<path d="M53.3095 145.938C52.483 145.848 51.7042 145.544 51.0692 145.064C51.0509 145.049 51.0378 145.029 51.0311 145.008C51.0244 144.986 51.0245 144.963 51.0313 144.942C51.0393 144.919 51.0542 144.899 51.0743 144.884C51.0945 144.869 51.119 144.86 51.145 144.857C51.2208 144.857 53.0395 144.675 53.6647 145.123C53.7269 145.164 53.7783 145.217 53.8151 145.277C53.852 145.338 53.8734 145.405 53.8778 145.474C53.8975 145.558 53.8849 145.645 53.8419 145.722C53.7989 145.798 53.7281 145.86 53.641 145.896C53.5352 145.932 53.4221 145.946 53.3095 145.938ZM51.505 145.068C52.1491 145.47 53.1769 145.82 53.5226 145.668C53.5747 145.643 53.6221 145.605 53.6126 145.491C53.6096 145.454 53.5974 145.418 53.5769 145.386C53.5564 145.354 53.5282 145.326 53.4942 145.305C53.1579 145.043 52.1301 145.034 51.505 145.068Z" fill="#263238"/>
<path d="M51.1603 145.099C51.1391 145.098 51.1184 145.093 51.0996 145.085C51.0808 145.076 51.0643 145.064 51.0513 145.049C51.0374 145.029 51.0301 145.006 51.0301 144.983C51.0301 144.96 51.0374 144.937 51.0513 144.918C51.0892 144.859 51.9986 143.431 52.7706 143.258C52.8448 143.237 52.9231 143.232 53 143.241C53.0769 143.251 53.1505 143.275 53.2158 143.313C53.3006 143.351 53.3689 143.413 53.41 143.489C53.4511 143.566 53.4628 143.652 53.4432 143.735C53.339 144.271 51.9844 144.96 51.1934 145.108L51.1603 145.099ZM52.9269 143.477H52.8322C52.387 143.579 51.7855 144.301 51.4492 144.77C52.188 144.542 53.1116 144.01 53.1779 143.672C53.1779 143.621 53.1779 143.562 53.069 143.498C53.0244 143.481 52.9755 143.473 52.9269 143.477Z" fill="#263238"/>
<path d="M56.8266 147.422C52.9902 147.156 50.4042 144.807 50.6694 142.319C50.8162 140.946 45.9 140.824 45.9 140.824C46.6767 145.078 45.7011 145.686 45.379 146.784C45.0569 147.882 45.1374 149.099 46.1557 149.12C47.373 149.15 47.9413 148.943 49.4711 148.993C51.2425 149.057 53.1559 149.116 56.3056 149.12C57.5512 149.124 58.5316 147.54 56.8266 147.422Z" fill="#6A1370"/>
<path d="M61.4192 67.2733C61.4192 67.2733 61.0829 88.2635 59.2263 102.056C57.3697 115.848 50.9852 142.9 50.9852 142.9C49.306 143.254 47.5558 143.239 45.8842 142.858C45.8842 142.858 43.8666 121.736 47.253 101.304C44.7665 79.8995 43.2083 67.2733 43.2083 67.2733H61.4192Z" fill="#0F2759"/>
<path d="M62.2879 47.8575C62.2074 49.4796 65.0776 53.2308 61.5349 55.402C62.198 56.7242 62.7568 65.6754 61.4165 67.2722C59.4604 68.5394 48.8748 68.3071 40.1032 67.2722C39.7291 64.0364 41.7278 57.3325 39.2791 46.8817C39.145 46.3095 39.1473 45.7186 39.2858 45.1472C39.4243 44.5759 39.696 44.0369 40.0833 43.5652C40.4705 43.0936 40.9646 42.6999 41.5335 42.4096C42.1024 42.1193 42.7334 41.9389 43.3855 41.8802C44.1243 41.8169 44.9058 41.7577 45.7063 41.7239C48.5019 41.5484 51.308 41.5484 54.1037 41.7239C55.0083 41.8 55.9461 41.9014 56.8412 42.0154C58.4007 42.2115 59.8225 42.9184 60.8294 43.9984C61.8364 45.0785 62.3563 46.4542 62.2879 47.8575Z" fill="#6A1370"/>
<g opacity="0.3">
<path opacity="0.3" d="M47.7813 67.9489L48.4965 67.9869C48.267 67.9139 48.0189 67.9008 47.7813 67.9489Z" fill="#263238"/>
<path opacity="0.3" d="M40.4084 60.893C40.4084 60.9436 40.4371 60.9901 40.4562 61.045C40.5174 60.6781 40.5174 60.3052 40.4562 59.9383C40.4419 60.2635 40.4275 60.5846 40.4084 60.893Z" fill="#263238"/>
</g>
<path d="M73.0478 53.6656L75.1412 51.6844L78.0445 55.3299C78.0445 55.3299 75.5959 56.876 73.2514 56.8169L72.9815 56.2804C72.7648 55.8697 72.658 55.4198 72.6696 54.966C72.6811 54.5123 72.8105 54.0671 73.0478 53.6656Z" fill="#FFB573"/>
<path d="M78.519 51.8804L79.3383 53.2533C79.5181 53.5549 79.5567 53.9077 79.4458 54.2345C79.3349 54.5614 79.0834 54.8359 78.7463 54.9979L78.0643 55.3317L75.161 51.6861L76.8234 51.2637C77.1424 51.1768 77.4853 51.1906 77.7942 51.303C78.1031 51.4153 78.3591 51.6193 78.519 51.8804Z" fill="#FFB573"/>
<path d="M62.007 46.5546L62.187 47.3614L62.3859 48.2063C62.528 48.7765 62.6654 49.351 62.8264 49.896C63.1342 51.0281 63.5037 52.139 63.8968 53.212C64.2889 54.2423 64.7638 55.246 65.3177 56.2154C65.7605 57.0127 66.346 57.7404 67.0511 58.3698L66.0471 57.9474C65.7534 57.9136 65.6966 57.9938 65.8529 57.9896C66.1017 57.9658 66.3438 57.9028 66.568 57.8038C67.2778 57.5132 67.9536 57.1609 68.5857 56.7519C69.2914 56.3295 70.0066 55.831 70.7123 55.3199C71.418 54.8088 72.1332 54.2638 72.8247 53.7612L72.9004 53.7105C73.1969 53.4945 73.5677 53.3761 73.9506 53.3752C74.3334 53.3743 74.7049 53.4909 75.0026 53.7055C75.3004 53.92 75.5063 54.2194 75.5858 54.5534C75.6653 54.8874 75.6135 55.2356 75.4391 55.5396C74.9636 56.3488 74.4337 57.1317 73.8524 57.884C73.2601 58.646 72.6147 59.374 71.92 60.0637C71.1621 60.8249 70.3051 61.5027 69.3672 62.0829C68.7795 62.4367 68.1426 62.7207 67.4727 62.9278C67.0408 63.0622 66.5924 63.1501 66.137 63.1897C65.572 63.2343 65.0027 63.1973 64.4509 63.0798C64.1285 63.0107 63.8244 62.8858 63.5558 62.7123L63.4421 62.6363C61.9873 61.6645 60.7623 60.4456 59.8378 59.0499C59.4052 58.4219 59.0168 57.7883 58.6727 57.149C58.3285 56.5097 58.0128 55.8705 57.7254 55.2312C57.1773 53.9695 56.7124 52.6803 56.333 51.3702C56.1482 50.7197 55.973 50.0734 55.8262 49.4186C55.7551 49.0891 55.6794 48.7639 55.6178 48.4302C55.5562 48.0964 55.4994 47.7838 55.4378 47.3868C55.3283 46.6278 55.5529 45.8605 56.0644 45.2462C56.576 44.6318 57.3347 44.2183 58.181 44.0925C59.0273 43.9667 59.8954 44.1384 60.6027 44.5716C61.31 45.0047 61.8015 45.6656 61.9739 46.4152L62.007 46.5546Z" fill="#FFB573"/>
<path d="M57.4607 42.1223C60.2172 42.3758 62.4196 44.0064 63.9589 49.198C62.7748 50.6595 55.3152 53.8657 55.3152 53.8657C55.3152 53.8657 51.1615 41.5436 57.4607 42.1223Z" fill="#263238"/>
</g>
<defs>
<clipPath id="clip0_2725_270">
<rect width="227" height="149" fill="white"/>
</clipPath>
</defs>
</svg>
