<?xml version="1.0" encoding="utf-8"?>
<!-- Generator: Adobe Illustrator 22.1.0, SVG Export Plug-In . SVG Version: 6.00 Build 0)  -->
<svg version="1.1" id="Ebene_1" xmlns="http://www.w3.org/2000/svg" xmlns:xlink="http://www.w3.org/1999/xlink" x="0px" y="0px"
	 viewBox="0 0 1000 1000" style="enable-background:new 0 0 1000 1000;" xml:space="preserve">
<style type="text/css">
	.st0{fill:#87BDFF;}
	.st1{fill:#1C7BF1;}
</style>
<g>
	<g>
		<path class="st0" d="M226.6,733.8L13.2,947.3c-10.9,10.9-10.9,28.6,0,39.5l0,0c10.9,10.9,28.6,10.9,39.5,0l213.4-213.4
			c10.9-10.9,10.9-28.6,0-39.5h0C255.2,722.9,237.5,722.9,226.6,733.8z"/>
		<path class="st0" d="M83.5,800.8l0.4,0.5l31.3-31.4l0,0l72.5-72.5c10.9-10.9,10.9-28.6,0-39.5l-0.1-0.1
			c-10.9-10.9-28.5-10.9-39.5-0.1L21,783.9c-11,10.9-11,28.7-0.1,39.6l0,0c10.9,10.9,28.5,10.9,39.4,0.1L83.5,800.8z"/>
		<path class="st0" d="M243.5,960.8l0.4,0.5l31.3-31.4l0,0l72.5-72.5c10.9-10.9,10.9-28.6,0-39.5l-0.1-0.1
			c-10.9-10.9-28.5-10.9-39.5-0.1L181,943.8c-11,10.9-11,28.7-0.1,39.6l0,0c10.9,10.9,28.5,10.9,39.4,0.1L243.5,960.8z"/>
	</g>
	<path class="st1" d="M993.4,6.6c-83.6-2.6-187.7-7.7-262.3,36c-90,52.7-168.4,136.3-241.7,210.8l-3.9,3.9l-162,6.4L193,393.4
		c-17.7,17.6-5.3,47.8,19.7,47.8h87.7L263.6,478c-10.9,10.9-10.9,28.6,0,39.5l25.2,25.2l-32.1,18c-16.2,9.1-19.2,31.1-6.1,44.2
		l72.9,72.9l72.9,72.9c13.1,13.1,35.1,10.1,44.2-6.1l18-32.1l25.2,25.2c10.9,10.9,28.6,10.9,39.5,0L564,697v98.4
		c0,24.9,30.1,37.4,47.7,19.8l131-131l6.4-174.9c73.3-73.3,156.9-150.4,208.3-240.4C1001.1,194.3,995.9,90.2,993.4,6.6L993.4,6.6z
		 M774.3,327.3c-15.9,15.9-36,23.3-56.1,23.3c-20.1,0-40.2-7.4-56.1-23.3c-14.8-14.8-23.3-34.9-23.3-56.1s8.5-41.2,23.3-56.1
		c14.8-14.8,34.9-23.3,56.1-23.3c21.2,0,41.2,8.5,56.1,23.3c14.8,14.8,23.3,34.9,23.3,56.1C797.5,292.4,789.1,312.5,774.3,327.3z"/>
</g>
</svg>
