<?xml version="1.0" encoding="utf-8"?>
<!-- Generator: Adobe Illustrator 16.0.3, SVG Export Plug-In . SVG Version: 6.00 Build 0)  -->
<!DOCTYPE svg PUBLIC "-//W3C//DTD SVG 1.1//EN" "http://www.w3.org/Graphics/SVG/1.1/DTD/svg11.dtd">
<svg version="1.1" id="Ebene_1" xmlns="http://www.w3.org/2000/svg" xmlns:xlink="http://www.w3.org/1999/xlink" x="0px" y="0px"
	 width="22.732px" height="22.732px" viewBox="0 0 22.732 22.732" enable-background="new 0 0 22.732 22.732" xml:space="preserve">
<path fill="#E9F2FB" d="M11.367,1.263c-5.559,0-10.104,4.547-10.104,10.104c0,5.556,4.546,10.104,10.104,10.104
	c5.557,0,10.104-4.548,10.104-10.104C21.47,5.81,16.924,1.263,11.367,1.263"/>
<g>
	<g>
		<path fill="#9AC6FC" d="M11.367,1.263c-5.559,0-10.104,4.547-10.104,10.104c0,5.556,4.546,10.104,10.104,10.104
			c5.557,0,10.104-4.548,10.104-10.104C21.47,5.81,16.924,1.263,11.367,1.263 M11.367,0c6.314,0,11.365,5.052,11.365,11.367
			c0,6.314-5.051,11.366-11.365,11.366C5.052,22.732,0,17.681,0,11.367C0,5.052,5.052,0,11.367,0z"/>
	</g>
	<g>
		<g id="prefix__Gruppe_714_1_">
			<g id="prefix__Gruppe_713_1_">
				<path id="prefix__Pfad_2_1_" fill="#529BF6" d="M15.757,14.034l-1.423-1.422c-0.295-0.282-0.761-0.273-1.044,0.02l-0.716,0.716
					l-0.142-0.076c-0.631-0.327-1.208-0.748-1.713-1.247c-0.5-0.509-0.921-1.089-1.247-1.722l-0.076-0.139l0.479-0.479l0.234-0.236
					c0.292-0.284,0.3-0.75,0.019-1.044L8.707,6.982C8.411,6.704,7.948,6.715,7.666,7.007L7.266,7.406l0.011,0.011
					C7.14,7.594,7.028,7.79,6.948,7.999c-0.075,0.189-0.126,0.389-0.15,0.59c-0.188,1.555,0.524,2.976,2.45,4.902
					c2.666,2.666,4.813,2.463,4.904,2.454c0.204-0.024,0.402-0.075,0.593-0.15c0.208-0.08,0.404-0.189,0.581-0.325l0.009,0.007
					l0.406-0.396C16.031,14.794,16.04,14.328,15.757,14.034z"/>
			</g>
		</g>
	</g>
</g>
</svg>
