<?xml version="1.0" encoding="utf-8"?>
<!-- Generator: Adobe Illustrator 16.0.3, SVG Export Plug-In . SVG Version: 6.00 Build 0)  -->
<!DOCTYPE svg PUBLIC "-//W3C//DTD SVG 1.1//EN" "http://www.w3.org/Graphics/SVG/1.1/DTD/svg11.dtd">
<svg version="1.1" id="Ebene_1" xmlns="http://www.w3.org/2000/svg" xmlns:xlink="http://www.w3.org/1999/xlink" x="0px" y="0px"
	 width="22.732px" height="22.732px" viewBox="0 0 22.732 22.732" enable-background="new 0 0 22.732 22.732" xml:space="preserve">
<path fill="#FFFFFF" d="M11.367,1.263c-5.559,0-10.104,4.547-10.104,10.104c0,5.556,4.546,10.104,10.104,10.104
	c5.557,0,10.104-4.548,10.104-10.104C21.47,5.81,16.924,1.263,11.367,1.263"/>
<g>
	<g>
		<path fill="#9AC6FC" d="M11.367,1.263c-5.559,0-10.104,4.547-10.104,10.104c0,5.556,4.546,10.104,10.104,10.104
			c5.557,0,10.104-4.548,10.104-10.104C21.47,5.81,16.924,1.263,11.367,1.263 M11.367,0c6.314,0,11.365,5.052,11.365,11.367
			c0,6.314-5.051,11.366-11.365,11.366C5.052,22.732,0,17.681,0,11.367C0,5.052,5.052,0,11.367,0z"/>
	</g>
	<g>
		<path id="cursor" fill="#529BF6" d="M16.57,11.098L7.731,7.295C7.57,7.222,7.381,7.297,7.309,7.459
			c-0.037,0.083-0.037,0.175,0,0.258l3.792,8.872c0.051,0.119,0.167,0.195,0.296,0.195H11.4c0.129,0,0.245-0.078,0.295-0.199
			l1.407-3.479l3.464-1.412c0.164-0.067,0.242-0.254,0.177-0.418c-0.03-0.079-0.094-0.142-0.172-0.175V11.098z"/>
	</g>
</g>
</svg>
