<?xml version="1.0" encoding="utf-8"?>
<!-- Generator: Adobe Illustrator 16.0.3, SVG Export Plug-In . SVG Version: 6.00 Build 0)  -->
<!DOCTYPE svg PUBLIC "-//W3C//DTD SVG 1.1//EN" "http://www.w3.org/Graphics/SVG/1.1/DTD/svg11.dtd">
<svg version="1.1" id="Ebene_1" xmlns="http://www.w3.org/2000/svg" xmlns:xlink="http://www.w3.org/1999/xlink" x="0px" y="0px"
	 width="22.732px" height="22.732px" viewBox="0 0 22.732 22.732" enable-background="new 0 0 22.732 22.732" xml:space="preserve">
<path fill="#E9F2FB" d="M11.367,1.263c-5.559,0-10.104,4.547-10.104,10.104c0,5.556,4.546,10.104,10.104,10.104
	c5.557,0,10.104-4.548,10.104-10.104C21.47,5.81,16.924,1.263,11.367,1.263"/>
<g>
	<g>
		<path fill="#9AC6FC" d="M11.367,1.263c-5.559,0-10.104,4.547-10.104,10.104c0,5.556,4.546,10.104,10.104,10.104
			c5.557,0,10.104-4.548,10.104-10.104C21.47,5.81,16.924,1.263,11.367,1.263 M11.367,0c6.314,0,11.365,5.052,11.365,11.367
			c0,6.314-5.051,11.366-11.365,11.366C5.052,22.732,0,17.681,0,11.367C0,5.052,5.052,0,11.367,0z"/>
	</g>
	<g>
		<g id="prefix__Gruppe_2546_1_">
			<path id="prefix__Pfad_3_1_" fill="#529BF6" d="M11.367,5.827c-2.484,0-4.498,2.014-4.498,4.498l0,0
				c0,2.253,2.802,5.217,3.983,6.368c0.289,0.281,0.747,0.285,1.041,0.01c1.188-1.104,3.97-3.956,3.97-6.377
				C15.863,7.841,13.851,5.828,11.367,5.827z M11.367,11.786c-1.027,0-1.86-0.832-1.86-1.857c-0.001-1.027,0.831-1.86,1.858-1.86
				c1.026,0,1.859,0.832,1.859,1.858c0,0.001,0,0.002,0,0.002C13.225,10.953,12.394,11.786,11.367,11.786z"/>
		</g>
	</g>
</g>
</svg>
