<?xml version="1.0" encoding="utf-8"?>
<!-- Generator: Adobe Illustrator 16.0.3, SVG Export Plug-In . SVG Version: 6.00 Build 0)  -->
<!DOCTYPE svg PUBLIC "-//W3C//DTD SVG 1.1//EN" "http://www.w3.org/Graphics/SVG/1.1/DTD/svg11.dtd">
<svg version="1.1" id="Ebene_1" xmlns="http://www.w3.org/2000/svg" xmlns:xlink="http://www.w3.org/1999/xlink" x="0px" y="0px"
	 width="22.732px" height="22.732px" viewBox="0 0 22.732 22.732" enable-background="new 0 0 22.732 22.732" xml:space="preserve">
<path fill="#E9F2FB" d="M11.367,1.263c-5.559,0-10.104,4.547-10.104,10.104c0,5.556,4.546,10.104,10.104,10.104
	c5.557,0,10.104-4.549,10.104-10.104C21.47,5.81,16.924,1.263,11.367,1.263"/>
<g>
	<g>
		<path fill="#9AC6FC" d="M11.367,1.263c-5.559,0-10.104,4.547-10.104,10.104c0,5.556,4.546,10.104,10.104,10.104
			c5.557,0,10.104-4.549,10.104-10.104C21.47,5.81,16.924,1.263,11.367,1.263 M11.367,0c6.314,0,11.365,5.052,11.365,11.367
			c0,6.314-5.051,11.366-11.365,11.366C5.052,22.732,0,17.681,0,11.367C0,5.052,5.052,0,11.367,0z"/>
	</g>
</g>
<path fill="#529BF6" d="M11.385,13.339c-1.089,0-1.97-0.879-1.97-1.969c0-1.089,0.88-1.97,1.97-1.97c1.089,0,1.971,0.88,1.971,1.97
	C13.356,12.46,12.474,13.339,11.385,13.339z M11.385,8.101c-3.269,0-5.238,3.269-5.238,3.269s1.969,3.268,5.238,3.268
	c3.268,0,5.239-3.268,5.239-3.268S14.653,8.101,11.385,8.101z M11.385,10.055c-0.14,0-0.265,0.029-0.377,0.07
	c0.223,0.098,0.377,0.321,0.377,0.586c0,0.363-0.294,0.657-0.657,0.657c-0.266,0-0.489-0.153-0.586-0.377
	c-0.042,0.125-0.069,0.251-0.069,0.377c0,0.726,0.586,1.313,1.313,1.313s1.313-0.587,1.313-1.313
	C12.698,10.642,12.112,10.055,11.385,10.055z"/>
</svg>
