<?xml version="1.0" encoding="utf-8"?>
<!-- Generator: Adobe Illustrator 16.0.3, SVG Export Plug-In . SVG Version: 6.00 Build 0)  -->
<!DOCTYPE svg PUBLIC "-//W3C//DTD SVG 1.1//EN" "http://www.w3.org/Graphics/SVG/1.1/DTD/svg11.dtd">
<svg version="1.1" id="Ebene_1" xmlns="http://www.w3.org/2000/svg" xmlns:xlink="http://www.w3.org/1999/xlink" x="0px" y="0px"
	 width="22.732px" height="22.732px" viewBox="0 0 22.732 22.732" enable-background="new 0 0 22.732 22.732" xml:space="preserve">
<path fill="#FFFFFF" d="M11.367,1.263c-5.559,0-10.104,4.547-10.104,10.104c0,5.556,4.546,10.103,10.104,10.103
	c5.557,0,10.103-4.547,10.103-10.103C21.47,5.81,16.924,1.263,11.367,1.263"/>
<g>
	<g>
		<path fill="#9AC6FC" d="M11.367,1.263c-5.559,0-10.104,4.547-10.104,10.104c0,5.556,4.546,10.103,10.104,10.103
			c5.557,0,10.103-4.547,10.103-10.103C21.47,5.81,16.924,1.263,11.367,1.263 M11.367,0c6.314,0,11.365,5.051,11.365,11.367
			c0,6.314-5.051,11.366-11.365,11.366C5.052,22.732,0,17.681,0,11.367C0,5.051,5.052,0,11.367,0z"/>
	</g>
	<g>
		<path id="prefix__mail_1_" fill="#529BF6" d="M14.884,14.744c-1.87,0-5.149,0.016-7.025,0.025
			c-0.778,0.006-1.414-0.623-1.42-1.402c0-0.003,0-0.006,0-0.01V8.518l0.985,0.817l3.667,3.055c0.144,0.153,0.383,0.161,0.537,0.017
			c0.005-0.005,0.011-0.011,0.017-0.017l4.512-3.761l0.138-0.106v4.807C16.294,14.111,15.662,14.742,14.884,14.744z M15.771,7.962
			l-4.403,3.671L6.961,7.962H15.771z"/>
	</g>
</g>
</svg>
