<?xml version="1.0" encoding="utf-8"?>
<!-- Generator: Adobe Illustrator 22.1.0, SVG Export Plug-In . SVG Version: 6.00 Build 0)  -->
<svg version="1.1" id="Ebene_1" xmlns="http://www.w3.org/2000/svg" xmlns:xlink="http://www.w3.org/1999/xlink" x="0px" y="0px"
	 viewBox="0 0 75 75" style="enable-background:new 0 0 75 75;" xml:space="preserve">
<g>
	<path style="fill:#FFFFFF;" d="M38.5,0.3l26,10.8c0.7,0.3,1.2,0.9,1.4,1.6C69.4,24,69.2,37,64.8,48.4
		c-4.4,11.5-13.1,21.5-26.4,26.4c-0.5,0.2-1.2,0.2-1.7,0c-13.3-4.9-22-14.9-26.4-26.4S5.7,24,9.1,12.7c0.2-0.7,0.8-1.3,1.4-1.6
		l26-10.8C37.3,0,37.9,0,38.5,0.3z M37.5,5.3v64.5c11.4-4.5,18.8-13.1,22.6-23.1s4-21.4,1.2-31.4L37.5,5.3z"/>
	<path style="fill:#87BCFF;" d="M37.6,5.3v64.5c11.4-4.5,18.7-13,22.6-23.1c3.8-10,4-21.4,1.2-31.4L37.6,5.3z"/>
</g>
</svg>
