<svg xmlns="http://www.w3.org/2000/svg" width="124.315" height="83.629" viewBox="0 0 124.315 83.629">
  <g id="semicircular-up-arrow" transform="matrix(-0.174, -0.985, 0.985, -0.174, 20.813, 184.074)">
    <path id="Pfad_35" data-name="Pfad 35" d="M165.107,51.837c-4.76-14.477-8.528-29.351-16.46-42.638-.793-1.388-3.371-1.785-3.966,0-5.751,13.684-11.7,27.169-15.469,41.448a2.5,2.5,0,0,0,4.165,2.38,94.871,94.871,0,0,1,10.709-9.321c-.4,29.351.595,63.461-34.308,72.583-15.469,3.966-6.743,6.545-6.743,6.545,17.65-2.38,32.524-10.709,40.06-27.566,6.743-15.072,6.346-33.119,5.949-49.579a65.933,65.933,0,0,0,12.3,8.726C163.322,55.605,165.9,54.019,165.107,51.837ZM147.259,38.748a1.777,1.777,0,0,0-2.38,1.19l-.2.2a31.477,31.477,0,0,0-8.528,4.363c2.975-9.717,6.941-19.236,10.709-28.557,5.156,9.717,8.131,20.228,11.5,30.54C154.795,43.508,151.423,40.533,147.259,38.748Z" transform="translate(0 0)"/>
  </g>
</svg>
