<?xml version="1.0" encoding="utf-8"?>
<!-- Generator: Adobe Illustrator 23.1.1, SVG Export Plug-In . SVG Version: 6.00 Build 0)  -->
<svg version="1.1" id="Layer_1" xmlns="http://www.w3.org/2000/svg" xmlns:xlink="http://www.w3.org/1999/xlink" x="0px" y="0px"
	 viewBox="0 0 104.7 104.7" style="enable-background:new 0 0 104.7 104.7;" xml:space="preserve">
<path id="Pfad_35" d="M67.9,25c-9.8-8.7-19-18.2-30.6-24.7c-1.2-0.7-3.3,0.1-3,1.7c1.6,12.7,3,25.2,6.3,37.5
	c0.3,1.1,1.5,1.8,2.7,1.4c0.7-0.2,1.3-0.8,1.5-1.5c1-3.9,2.4-7.8,4-11.5c12.3,22,27.7,47,5.7,68.7c-9.8,9.6-2.2,7.8-2.2,7.8
	c12.1-9.4,19.6-21.9,18-37.7c-1.5-14.1-9.5-27.4-16.9-39.4c4.2,0.9,8.6,1.3,12.9,1.2C68.2,28.6,69.4,26.3,67.9,25z M49,22.9
	c-0.8,0.1-1.4,0.9-1.3,1.7c0,0.1,0,0.1,0,0.2l-0.1,0.2c-1.8,2.1-3.3,4.4-4.5,6.9c-2-8.5-3.1-17.3-4.3-25.8c8,5,14.7,11.6,21.7,17.8
	C56.6,23.2,52.8,22.5,49,22.9z"/>
</svg>
