<?xml version="1.0" encoding="utf-8"?>
<!-- Generator: Adobe Illustrator 23.0.1, SVG Export Plug-In . SVG Version: 6.00 Build 0)  -->
<svg version="1.1" id="Isolationsmodus" xmlns="http://www.w3.org/2000/svg" xmlns:xlink="http://www.w3.org/1999/xlink" x="0px"
	 y="0px" viewBox="0 0 1000 1000" style="enable-background:new 0 0 1000 1000;" xml:space="preserve">
<style type="text/css">
	.st0{fill:#87BDFF;}
	.st1{fill:#FFFFFF;}
</style>
<g>
	<path class="st0" d="M545.2,961.6c0,21.2,17.1,38.3,38.3,38.3s38.4-17.1,38.4-38.3c0-16.6-10.5-30.7-25.3-36v-21.7l-2-3.3
		c-1.9-3.9-33.8-50.8-145.6-56.3l5.7-57.5h109.5c19.6,0,35.4-15.9,35.4-35.4s-15.9-35.4-35.4-35.4H318.8L304.3,472
		c-1.2-19.5-18-34.4-37.5-33.3c-19.5,1.2-34.4,18-33.2,37.5l16.5,277.3c1.1,18.7,16.7,33.3,35.4,33.3h110.8l5.7,57.5
		c-111.8,5.5-143.7,52.4-145.6,56.3l-2,3.3v21.2c-15.4,4.9-26.6,19.3-26.6,36.4c0,21.2,17.2,38.3,38.4,38.3
		c21.2,0,38.3-17.1,38.3-38.3c0-15.2-8.9-28.3-21.7-34.5v-14.5c7.6-8.4,37.5-36,122-40l5.3,53c-14.8,5.3-25.4,19.4-25.4,36.1
		c0,21.2,17.1,38.3,38.3,38.3s38.4-17.1,38.4-38.3c0-14.8-8.4-27.6-20.6-34l5.5-55.1c49.5,2.3,80.3,12.9,98.8,22.8
		c10.5,5.6,17,11,20.9,14.8c1,0.9,1.8,1.8,2.4,2.5v13.8C554.7,932.4,545.2,945.9,545.2,961.6L545.2,961.6z"/>
	<path class="st1" d="M566,2.8c57.2,13.3,92.7,70.5,79.4,127.7c-13.3,57.1-70.5,92.7-127.6,79.4c-57.2-13.3-92.8-70.5-79.5-127.7
		S508.8-10.5,566,2.8"/>
	<path class="st1" d="M524,561.2c-25.1-19.8-45.8-44.6-61.3-73.9c-22.9-43.3-34.5-94.3-34.8-151.4c0-21.2,1.8-35.5,2.1-38.2
		c3.2-23.3,23.3-40.8,46.8-40.8c2.1,0,4.4,0.2,6.5,0.4c12.5,1.7,23.6,8.2,31.2,18.3c7.6,10.1,10.9,22.5,9.1,35l-0.1,0.9
		c-0.1,1-0.3,2.7-0.5,4.9c-0.3,4.2-0.7,11-0.7,19.5c0,16.1,1.5,47.9,11.9,79.3c0.8,2.4,1.7,4.7,2.6,7c4.5-18.7,10-37.3,16.7-55.4
		c17.5-48.7,5.7-108.3-37.9-137.3c-43.2-29-113.2,0.4-139.5,72c-33,89.6-46.8,185.3-40.4,280.6c3.2,48.9,28.8,86.2,59.8,102.4
		c8.6,5.3,18.6,8.4,29.3,8.7c3,0.2,6,0.2,8.9,0.1H620l34.8,223.3c4.5,29.2,29.7,50,58.3,50c3,0,6.1-0.2,9.1-0.7
		c32.2-5,54.3-35.2,49.3-67.5L729,625c-3-19.1-15-34.9-31.3-43.3c-6.6,18.4-24.1,31.1-44.4,31.1l0,0c-2.5,0-5-0.2-7.5-0.6
		c-38.7-6.1-73-18.6-102.4-37.2L524,561.2"/>
	<g>
		<path class="st1" d="M449.3,300.1c-0.8,6-2,18.4-2,35.6c0.2,54,11.2,101.9,32.5,142.4c15.4,29.1,36.2,53.4,61.9,72.1
			c29.6,21.7,65.7,36.1,107.2,42.7c15.2,2.3,29.5-8.3,31.8-23.1c1.2-7.3-0.6-14.6-4.9-20.6c-4.4-6-10.8-10-18.2-11.2h0
			c-33.3-5.4-60.4-16-83.1-32.6c-27.3-20-46.5-47.6-58.7-84.3c-11.3-34-12.9-68.1-12.9-85.4c0-7.1,0.3-14.2,0.8-21
			c0.2-2.5,0.4-4.3,0.5-5.5l0.2-1.5c1-7.3-0.9-14.7-5.4-20.6c-4.5-5.9-11-9.7-18.3-10.8c-1.3-0.2-2.6-0.3-3.8-0.3
			C463.1,276.1,451.2,286.2,449.3,300.1z"/>
		<path class="st1" d="M653.1,598.2c-1.7,0-3.3-0.1-5-0.4c-42.3-6.7-79.1-21.4-109.4-43.6c-26.2-19.2-47.5-44.1-63.3-73.8
			c-21.7-41.2-32.8-89.9-33.1-144.7c0-17.5,1.3-30.2,2-36.2l0-0.1c2.4-17.6,18.9-30.6,37-28c8.7,1.2,16.4,5.7,21.7,12.7
			c5.3,7,7.5,15.6,6.3,24.3l-0.1,1.3c-0.1,1.2-0.3,2.9-0.5,5.4c-0.5,6.6-0.8,13.6-0.8,20.5c0,17,1.6,50.6,12.6,83.9
			c11.9,35.7,30.5,62.5,57,81.9c22,16.1,48.4,26.4,80.9,31.7c8.7,1.4,16.3,6,21.4,13.2c5.1,7.1,7.2,15.7,5.8,24.4
			C683.1,586.7,669,598.2,653.1,598.2z M454.2,300.8c-0.7,5.8-1.9,18-1.9,34.9c0.2,53.2,11,100.3,31.9,140.1
			c15.1,28.4,35.4,52.1,60.4,70.4c29,21.3,64.3,35.3,105,41.8c12.2,1.9,24.2-6.8,26.1-19c1-6-0.5-12-4-16.9
			c-3.6-4.9-8.9-8.2-14.9-9.1c-34.1-5.5-62-16.5-85.3-33.5c-28.2-20.7-48-49.1-60.5-86.8c-11.5-34.7-13.2-69.4-13.1-87
			c0-7.2,0.3-14.4,0.8-21.3c0.2-2.6,0.4-4.5,0.5-5.6l0.1-1.5c0.9-6.2-0.7-12.2-4.4-17.1c-3.7-4.9-9-8-15-8.8
			C467.4,279.6,455.9,288.5,454.2,300.8z"/>
	</g>
</g>
</svg>
