<?xml version="1.0" encoding="utf-8"?>
<!-- Generator: Adobe Illustrator 23.0.1, SVG Export Plug-In . SVG Version: 6.00 Build 0)  -->
<svg version="1.1" id="Ebene_1" xmlns="http://www.w3.org/2000/svg" xmlns:xlink="http://www.w3.org/1999/xlink" x="0px" y="0px"
	 viewBox="0 0 1000 1000" style="enable-background:new 0 0 1000 1000;" xml:space="preserve">
<style type="text/css">
	.st0{fill:#FFFFFF;}
	.st1{fill:#87BDFF;}
</style>
<path class="st0" d="M928.1,371.5H647.2L954.5,64.2c3.5-3.4,6.3-7.6,8.1-12.2c3.9-9.2,3.9-19.6,0-28.8c-3.8-9.2-11.1-16.5-20.3-20.3
	C937.8,1,932.9,0,928,0L556.6,0.1c-20.7,0-37.5,16.9-37.5,37.5c0,20.7,16.8,37.5,37.5,37.5h280.8L530.1,382.5
	c-3.4,3.4-6.1,7.6-8.1,12.2c-3.9,9.2-3.9,19.6,0,28.8c3.8,9.2,11,16.5,20.3,20.3c4.6,1.9,9.5,2.8,14.4,2.8l371.4-0.1
	c20.7,0,37.5-16.9,37.5-37.5C965.6,388.3,948.8,371.5,928.1,371.5L928.1,371.5z"/>
<path class="st1" d="M372.4,559H162.6l236.3-236.3c3.4-3.5,6.1-7.6,8.1-12.3c3.9-9.2,3.9-19.5,0-28.6c-3.8-9.2-11-16.6-20.3-20.3
	c-4.6-1.9-9.5-2.8-14.4-2.8H71.9c-20.7,0-37.5,16.8-37.5,37.5c0,20.7,16.9,37.5,37.5,37.5h209.8L45.5,569.9
	c-3.4,3.5-6.1,7.6-8.1,12.3c-3.9,9.2-3.9,19.5,0,28.5c3.8,9.3,11,16.6,20.3,20.4c4.6,1.9,9.5,2.8,14.4,2.8h300.5
	c20.7,0,37.5-16.9,37.5-37.5C409.9,575.9,393,559,372.4,559z"/>
<path class="st0" d="M608.7,925h-121l147.5-147.5c3.5-3.5,6.1-7.6,8.1-12.2c3.9-9.2,3.9-19.5,0-28.6c-3.8-9.2-11-16.5-20.3-20.3
	c-4.7-2-9.5-2.9-14.4-2.9H397.1c-20.7,0-37.5,16.9-37.5,37.5c0,20.7,16.9,37.5,37.5,37.5h121L370.5,935.9c-3.4,3.4-6.1,7.6-8.1,12.2
	c-3.9,9.2-3.9,19.5,0,28.6c3.9,9.2,11.1,16.5,20.3,20.3c4.6,1.9,9.5,2.9,14.4,2.9h211.6c20.7,0,37.5-16.9,37.5-37.5
	C646.2,941.8,629.4,925,608.7,925L608.7,925z"/>
</svg>
