<svg id="Ebene_1" data-name="Ebene 1" xmlns="http://www.w3.org/2000/svg" viewBox="0 0 1000 1000"><defs><style>.cls-1{fill:#a9a9a9;}.cls-2{fill:#dcdcdc;}</style></defs><title>empty_state</title><path class="cls-1" d="M912,554a10.11,10.11,0,0,0-8.59-4.77h-54a10.11,10.11,0,0,0-9.08,5.65L769.58,698.71H574.3a10.11,10.11,0,0,0-9.27,6l-44,89.44H152.38a10.12,10.12,0,0,0-10.13,10.12V852.9A10.11,10.11,0,0,0,152.38,863h81.68L175.39,985.34a10.12,10.12,0,0,0,9,14.66h54a10.15,10.15,0,0,0,9.05-5.58L310.68,863h385.5l63.23,131.4a10.12,10.12,0,0,0,9.05,5.58h54a10.13,10.13,0,0,0,9-14.66L767.76,862.85l144.74-299A10.18,10.18,0,0,0,912,554ZM743.88,751.31l-21.06,42.88H580.1L601,751.29Z"/><path class="cls-2" d="M474.85,103.19H473.8c-213.61,0-387.2,139.21-387.33,310.33a7.63,7.63,0,0,0,7.22,7.62,8.16,8.16,0,0,0,6.16-2.3,149,149,0,0,1,213.53-.46,7.62,7.62,0,0,0,10.41.44,236.21,236.21,0,0,1,150.53-57.09,236.21,236.21,0,0,1,150.54,57.09,7.62,7.62,0,0,0,10.41-.44,149,149,0,0,1,213.54.46,8.17,8.17,0,0,0,6.15,2.3,7.64,7.64,0,0,0,7.22-7.62C862,242.4,688.46,103.19,474.85,103.19Z"/><path class="cls-2" d="M474.32,1000a30.5,30.5,0,0,0,30.47-30.48V901.13a3.82,3.82,0,0,0-1.18-2.76,3.94,3.94,0,0,0-2.82-1c-26.47,0-21.11,0-52.94,0h-.19a3.79,3.79,0,0,0-3.81,3.81v68.4A30.51,30.51,0,0,0,474.32,1000Z"/><path class="cls-2" d="M501,398.32c-13.09-3.3-40.24-3.32-53.34.12-1.82.49-3.76,1.63-3.76,3.86V756.1a3.81,3.81,0,0,0,3.81,3.81H501a3.79,3.79,0,0,0,3.8-3.81V402.3C504.8,400,502.77,398.78,501,398.32Z"/><path class="cls-2" d="M474.32,0h0a30.51,30.51,0,0,0-30.47,30.48v43a3.8,3.8,0,0,0,3.82,3.81h.19c10.33-.53,18.56-.78,26.47-.78s16.14.24,26.48.78H501a3.79,3.79,0,0,0,2.63-1,3.84,3.84,0,0,0,1.18-2.76v-43A30.5,30.5,0,0,0,474.32,0Z"/></svg>