<svg id="Ebene_1" data-name="Ebene 1" xmlns="http://www.w3.org/2000/svg" viewBox="0 0 1000 1000"><defs><style>.cls-1{fill:#dcdcdc;}.cls-2{fill:#a9a9a9;}</style></defs><title>empty_state</title><path class="cls-1" d="M584.16,378a4,4,0,0,0-.9.1c-4.53,1-7.89,6.29-7.53,7.9a16.39,16.39,0,0,0,11.14,8.5,19.68,19.68,0,0,0,6.17.26,34.91,34.91,0,0,0-.71-4.1C591.41,386.75,588.86,378,584.16,378Z"/><path class="cls-1" d="M638.28,350a10,10,0,0,0-16.69,11.05c.32.48,7.62,11.92-7.87,24.06-.61.48-1.21.94-1.83,1.39,0-.12,0-.23-.08-.35-4.86-20.93-16.24-26.31-22.59-27.65-10-2.1-20.92,2.51-27.88,11.77-6.11,8.1-7.34,17.48-3.31,25.07a36.56,36.56,0,0,0,24.69,18.76,37.08,37.08,0,0,0,5.36.74c-7.66,11.47-21.44,17.28-24.94,18.61C529.79,357.4,434.33,305.71,346.2,298.13c-22.77-1.94-47.26-.86-72.83,3.23a5.11,5.11,0,0,1-4-1.12c-59.8-47.69-129.9-42-157.29-37.35a19.78,19.78,0,0,0-16.25,20.44c1.37,32.1,18.47,55.74,32.58,69.92a4.47,4.47,0,0,1,1.32,3.54,4.69,4.69,0,0,1-1.94,3.49c-27,20.15-45.92,42.8-56.28,67.31a5.89,5.89,0,0,1-4.67,3.22L22.2,437A25.7,25.7,0,0,0,0,463c.51,24,5.34,70.23,31.82,109.68A28.75,28.75,0,0,0,48.22,584.3a153.45,153.45,0,0,0,34.51,5.35,9.62,9.62,0,0,1,8,4.46c7,11.18,22.8,32.19,51.39,52.12l-14.46,51.58a33.32,33.32,0,0,0,32.09,42.3h66.6a33.35,33.35,0,0,0,33.32-33.31V690.24a397,397,0,0,0,111.06.82l-1.31,12.17a33.3,33.3,0,0,0,33.13,36.88h58.65a33.34,33.34,0,0,0,31.07-21.29,291.16,291.16,0,0,0,18.6-88.51C554,592,577.45,539.6,575.4,485.9a140.94,140.94,0,0,0-5.48-33.66C584.43,447,606.4,432.9,612,409.76a76.43,76.43,0,0,0,14.09-8.9C650,382.12,644.5,359.4,638.28,350ZM172.79,446.9a23.76,23.76,0,1,1,23.75-23.76A23.76,23.76,0,0,1,172.79,446.9Zm414.08-52.37a16.39,16.39,0,0,1-11.14-8.5c-.36-1.61,3-6.88,7.53-7.9a4,4,0,0,1,.9-.1c4.7,0,7.25,8.72,8.17,12.66a34.91,34.91,0,0,1,.71,4.1A19.68,19.68,0,0,1,586.87,394.53Z"/><path class="cls-2" d="M663.69,768.78,861,400.85l99.69,57.66a6.22,6.22,0,0,0,8.53-2.28l30.11-52c1.73-3,0-6.2-2.28-8.54L922.08,309,771.76,222a6.27,6.27,0,0,0-8.54,2.3l-48.88,84.48a6.24,6.24,0,0,0,2.28,8.54l99.2,57.37L595.73,729.46a20.07,20.07,0,0,0,7.32,27.4l33.25,19.23A20,20,0,0,0,663.69,768.78Z"/></svg>