<?xml version="1.0" encoding="utf-8"?>
<!-- Generator: Adobe Illustrator 23.0.6, SVG Export Plug-In . SVG Version: 6.00 Build 0)  -->
<svg version="1.1" id="Ebene_1" xmlns="http://www.w3.org/2000/svg" xmlns:xlink="http://www.w3.org/1999/xlink" x="0px" y="0px"
	 viewBox="0 0 500 500" style="enable-background:new 0 0 500 500;" xml:space="preserve">
<style type="text/css">
	.st0{fill:#3278AE;}
	.st1{fill:#FFFFFF;}
</style>
<g id="Gruppe_7" transform="translate(-357.272 50.21)">
	<g id="rechnungs_rockstar" transform="translate(352.247 -55.164)">
		<g id="Gruppe_656" transform="translate(5.025 136.479)">
			<path id="Pfad_29" class="st0" d="M109.8,239L4.1,344.8c-5.4,5.4-5.4,14.2,0,19.6l0,0c5.4,5.4,14.2,5.4,19.6,0l105.8-105.8
				c5.4-5.4,5.4-14.2,0-19.6l0,0C124,233.6,115.3,233.6,109.8,239C109.9,239,109.8,239,109.8,239z"/>
			<path id="Pfad_30" class="st0" d="M38.9,272.2l0.2,0.2l15.5-15.6l0,0L90.5,221c5.4-5.4,5.4-14.2,0-19.6v-0.1
				c-5.4-5.4-14.1-5.4-19.6-0.1l-63,62.6c-5.4,5.4-5.5,14.2-0.1,19.6l0,0l0,0c5.4,5.4,14.1,5.4,19.5,0.1L38.9,272.2z"/>
			<path id="Pfad_31" class="st0" d="M118.2,351.5l0.2,0.2l15.5-15.6l0,0l35.9-35.9c5.4-5.4,5.4-14.2,0-19.6l-0.1-0.1
				c-5.4-5.4-14.1-5.4-19.6-0.1l-63,62.5c-5.4,5.4-5.5,14.2-0.1,19.6l0,0l0,0c5.4,5.4,14.1,5.4,19.5,0.1L118.2,351.5z"/>
		</g>
		<path id="Pfad_32" class="st1" d="M504.2,5.8c-41.4-1.3-93-3.8-130,17.8c-44.6,26.1-83.5,67.6-119.8,104.5l-1.9,1.9l-80.3,3.2
			l-64.7,64.3c-5.4,5.4-5.5,14.2-0.1,19.6c2.6,2.6,6.1,4.1,9.8,4.1h43.5l-18.2,18.2c-5.4,5.4-5.4,14.2,0,19.6l12.5,12.5l-15.9,8.9
			c-6.7,3.7-9.1,12.2-5.3,18.9c0.6,1.1,1.4,2.1,2.3,3l36.1,36.1l36.1,36.1c5.4,5.4,14.2,5.4,19.6,0c0.9-0.9,1.7-1.9,2.3-3l8.9-15.9
			l12.5,12.5c5.4,5.4,14.2,5.4,19.6,0l20.2-20.2v48.8c0,7.7,6.2,13.9,13.8,13.9c3.7,0,7.2-1.5,9.8-4.1l64.9-64.9l3.2-86.7
			c36.3-36.3,77.8-74.5,103.2-119.2C508,98.8,505.5,47.2,504.2,5.8L504.2,5.8z M395.6,164.7c-15.3,15.4-40.1,15.4-55.5,0.1l-0.1-0.1
			c-15.4-15.4-15.4-40.3,0-55.7s40.3-15.4,55.7,0S411,149.3,395.6,164.7C395.7,164.7,395.6,164.7,395.6,164.7z"/>
	</g>
</g>
</svg>
