<?xml version="1.0" encoding="utf-8"?>
<!-- Generator: Adobe Illustrator 22.1.0, SVG Export Plug-In . SVG Version: 6.00 Build 0)  -->
<svg version="1.1" id="Ebene_1" xmlns="http://www.w3.org/2000/svg" xmlns:xlink="http://www.w3.org/1999/xlink" x="0px" y="0px"
	 viewBox="0 0 1000 1000" style="enable-background:new 0 0 1000 1000;" xml:space="preserve">
<style type="text/css">
	.st0{fill:#1D7BF1;}
	.st1{fill:none;}
	.st2{fill:#87BDFF;}
	.st3{fill:#FFFFFF;}
</style>
<g>
	<g>
		<path class="st0" d="M485.2,42.1c-0.1,0-0.1,0-0.2,0c-2.2-0.2-4.4-0.5-6.6-0.7c-0.3,0-0.6-0.1-0.8-0.1c-2-0.2-4-0.4-6.1-0.6
			c-0.4,0-0.7-0.1-1.1-0.1c-2-0.2-4.1-0.4-6.1-0.5c-0.3,0-0.6,0-0.9-0.1c-7.1-0.6-14.2-1-21.5-1.4c-0.6,0-1.2-0.1-1.8-0.1
			c-1.8-0.1-3.5-0.2-5.3-0.2c-0.8,0-1.6-0.1-2.4-0.1c-1.6-0.1-3.2-0.1-4.8-0.2c-0.9,0-1.7-0.1-2.6-0.1c-1.6,0-3.1-0.1-4.7-0.1
			c-0.9,0-1.7,0-2.6-0.1c-1.7,0-3.4-0.1-5.1-0.1c-0.8,0-1.5,0-2.3,0c-2.4,0-4.9,0-7.3,0c-2.7,0-5.3,0-8,0c-0.8,0-1.6,0-2.3,0
			c-1.9,0-3.9,0.1-5.8,0.1c-0.8,0-1.6,0-2.4,0.1c-2.3,0.1-4.6,0.1-6.9,0.2c-0.3,0-0.7,0-1,0c-2.6,0.1-5.2,0.2-7.8,0.3
			c-0.7,0-1.4,0.1-2.1,0.1c-1.9,0.1-3.8,0.2-5.7,0.3c-0.8,0-1.6,0.1-2.4,0.1c-2,0.1-4.1,0.2-6.1,0.4c-0.5,0-1,0.1-1.5,0.1
			c-2.5,0.2-5,0.4-7.5,0.5c-0.6,0-1.2,0.1-1.8,0.1c-1.9,0.2-3.8,0.3-5.7,0.5c-0.8,0.1-1.5,0.1-2.3,0.2c-1.9,0.2-3.8,0.4-5.6,0.5
			c-0.6,0.1-1.2,0.1-1.8,0.2c-2.4,0.2-4.8,0.5-7.2,0.8c-0.5,0.1-0.9,0.1-1.4,0.2c-2,0.2-3.9,0.5-5.8,0.7c-0.7,0.1-1.5,0.2-2.2,0.3
			c-1.8,0.2-3.5,0.5-5.2,0.7c-0.6,0.1-1.3,0.2-1.9,0.3c-2.3,0.3-4.6,0.7-6.9,1c-0.3,0-0.5,0.1-0.8,0.1c-2,0.3-4,0.6-6,1
			c-0.7,0.1-1.4,0.2-2.1,0.3c-1.6,0.3-3.3,0.6-4.9,0.8c-0.7,0.1-1.3,0.2-2,0.3c-2.2,0.4-4.4,0.8-6.5,1.2c0,0,0,0-0.1,0c0,0,0,0,0,0
			c-78.4,15-131.3,43.2-131.3,75.4c0.4,21.5,23.9,41.2,62.9,56.4c0,0,0,0,0,0c0,0,0,0,0,0c2.3,0.9,4.6,1.8,7,2.6
			c0.2,0.1,0.3,0.1,0.5,0.2c2.3,0.8,4.7,1.7,7.1,2.4c0,0,0,0,0.1,0h0c6.1,20.4,27.3,38.6,58,51.9c3.1,1.4,6.3,2.7,9.6,3.9
			c2.1,0.8,4.3,1.6,6.5,2.3c30.7,10.6,68.6,16.8,109.7,16.8c32.4,0,62.7-3.9,89.1-10.6c36-9.2,64.7-23.9,81.2-41.7
			c6.6-7.1,11.2-14.7,13.6-22.7c1.2-0.4,2.4-0.8,3.6-1.2c0,0,0,0,0,0c45.6-15.6,73.6-37,73.6-60.5C664.3,86.1,589.2,53.6,485.2,42.1
			z"/>
		<path class="st0" d="M403.2,305.7c-70.7,0-147.2-17.7-191.9-56c-10.5,4.3-17.3,19.2-7.4,58.9c1,4.7,2.2,9.7,3.8,15.2
			c12.1,44.2,23.7,56.5,32.7,57.4c4.8,23.3,12.2,48.5,25.8,71.4v58.3c0,1.4-0.2,2.8-0.8,3.9c-0.4,0.3-0.8,0.6-1.2,0.8
			c-9.4,4.7-33.9,16.9-65.9,35.8c0.2,0.1,0.3,0.3,0.4,0.4C153.2,578,90.6,617.1,31,666.2c-17.9,14.1-28.2,36.7-28.2,60.2v111h343.4
			l51.7-0.9l51.7,0.9h36.8c-19-38.9-29.7-82.7-29.7-128.9c0-74.5,27.7-142.5,73.3-194.3c-0.3-1-0.5-2.1-0.5-3.2v-58.3
			c13.6-22.9,21-48,25.8-71.4c9-0.9,20.6-13.3,32.7-57.4c1.5-5.5,2.8-10.5,3.8-15.2c7.9-31.5,5.2-47.4-1.5-54.7
			C545,289.3,471.5,305.7,403.2,305.7z"/>
	</g>
	<g>
		<polygon class="st1" points="880.1,546.9 860.9,566 860.9,566 		"/>
		<path class="st1" d="M911.7,595.5l14.3-14.3c1.3-1.4,2.4-3,3.4-4.6c-1,1.6-2.1,3.1-3.4,4.6L911.7,595.5z"/>
		<path class="st1" d="M722.6,498.3c0-8.3,3.5-15.7,9.2-20.9C726.1,482.6,722.6,490.1,722.6,498.3l0,34c0,0,0,0,0,0V498.3z"/>
		<path class="st1" d="M731.8,477.4c0.8-0.7,1.7-1.4,2.5-2.1C733.4,476,732.6,476.7,731.8,477.4z"/>
		<path class="st1" d="M779.5,532.3C779.5,532.3,779.5,532.3,779.5,532.3l0-34c0-7.5-3-14.4-7.8-19.5c4.8,5.1,7.8,12,7.8,19.5V532.3
			z"/>
		<path class="st1" d="M934.8,688.9c-0.8-5.2-1.8-10.3-2.9-15.4C933,678.6,934,683.7,934.8,688.9L934.8,688.9z"/>
		<path class="st1" d="M905.4,533.3c0,0-0.1,0-0.1,0c0.5,0,0.9,0,1.4,0.1C906.2,533.4,905.8,533.3,905.4,533.3z"/>
		<polygon class="st1" points="625.1,882.1 641.1,866.1 641.1,866.1 		"/>
		<path class="st1" d="M860.8,866.1C860.8,866.1,860.8,866.1,860.8,866.1l25.1,25.6c0.7,0.6,1.4,1.2,2.2,1.8
			c-0.8-0.6-1.5-1.2-2.2-1.8L860.8,866.1z"/>
		<path class="st1" d="M533.3,745.2c-4.6,0-8.9-1.1-12.8-3.1C524.4,744,528.7,745.2,533.3,745.2l34,0c1.9,12.3,5,24.3,9.3,35.9
			c-4.3-11.6-7.4-23.6-9.3-35.9H533.3z"/>
		<path class="st1" d="M567.3,688.2c3.6-24.2,11.9-47.4,24.4-68.4C579.1,640.8,570.8,664,567.3,688.2l-34,0
			c-5.7,0-10.9,1.7-15.4,4.6c4.4-2.9,9.7-4.6,15.4-4.6H567.3z"/>
		<polygon class="st1" points="641.1,566 616.8,541.7 641.1,566 		"/>
		<path class="st1" d="M661.3,553.2c3.9-2.1,7.9-4.1,11.9-6C669.2,549,665.2,551,661.3,553.2z"/>
		<path class="st1" d="M597.3,898.2c0,0,0.1,0,0.1,0c-0.5,0-1,0-1.4-0.1C596.4,898.2,596.9,898.2,597.3,898.2z"/>
		<path class="st1" d="M570.9,859.7c0.5-1.3,1-2.5,1.7-3.7C571.9,857.2,571.4,858.5,570.9,859.7z"/>
		<path class="st1" d="M905.7,899.3c0.1,0,0.1,0,0.2,0c-0.5,0-0.9,0-1.4,0C904.9,899.3,905.3,899.3,905.7,899.3z"/>
		<path class="st1" d="M597,534c-0.1,0-0.2,0-0.2,0c0.5,0,0.9,0,1.4,0C597.8,534.1,597.4,534,597,534z"/>
		<path class="st1" d="M925.8,891.2c0.1-0.1,0.2-0.2,0.3-0.3c2.5-2.7,4.4-5.9,5.6-9.2c-1.3,3.3-3.1,6.4-5.6,9.2
			C926,891.1,925.9,891.1,925.8,891.2z"/>
		<path class="st1" d="M569.7,569.2c-0.3-1.3-0.6-2.7-0.7-4C569.2,566.5,569.4,567.9,569.7,569.2z"/>
		<path class="st1" d="M698,537.8c4.2-1.3,8.5-2.4,12.9-3.3C706.6,535.5,702.3,536.6,698,537.8z"/>
		<polygon class="st1" points="576.6,542.4 576.6,542.4 576.6,542.4 		"/>
		<path class="st1" d="M798.9,536.4c5.1,1.4,10.2,2.9,15.1,4.7C809.1,539.3,804,537.8,798.9,536.4z"/>
		<path class="st1" d="M779.5,933.8c0,15.7-12.8,28.5-28.5,28.5c-15.7,0-28.5-12.8-28.5-28.5v-34c-21.4-3.2-42.3-10.4-61.3-20.8
			c19,10.4,39.8,17.6,61.3,20.8v34c0,15.7,12.8,28.5,28.5,28.5C766.7,962.2,779.5,949.5,779.5,933.8l0-34c7.3-1.1,14.6-2.7,21.7-4.7
			c-7.1,2-14.4,3.6-21.7,4.7V933.8z"/>
		<polygon class="st1" points="821.1,607.9 772.5,665.2 772.5,665.2 821.1,607.9 		"/>
		<polygon class="st1" points="772.5,767.8 776.9,822.2 772.5,767.8 		"/>
		<path class="st1" d="M778.5,842.2c8.9-2,17.6-4.8,25.8-8.6C796.1,837.4,787.4,840.3,778.5,842.2L778.5,842.2z"/>
		<path class="st1" d="M729.6,768.4L729.6,768.4L681,824.8c3.3,2.1,6.7,4.1,10.1,5.9c-3.4-1.8-6.8-3.8-10.1-5.9L729.6,768.4z"/>
		<path class="st1" d="M859.9,646.1c8.7,13.3,14.7,28,18,43.8l0,0C874.6,674.1,868.5,659.4,859.9,646.1L859.9,646.1z"/>
		<path class="st1" d="M723.6,842.8L723.6,842.8c-4.2-0.9-8.3-2.1-12.3-3.5C715.3,840.7,719.4,841.9,723.6,842.8z"/>
		<path class="st1" d="M877.2,744.1c-3.3,15-9.1,29.1-17.4,42l0,0C868.1,773.2,873.9,759.1,877.2,744.1l-16.5-1.3L877.2,744.1z"/>
		<polygon class="st1" points="802.1,695.9 854.7,691.7 802.1,695.9 		"/>
		<polygon class="st1" points="698.9,738.2 624.9,744.2 624.9,744.2 698.9,738.2 		"/>
		<polygon class="st1" points="676.1,694 700,695.9 642.2,646.1 642.2,646.1 700,695.9 		"/>
		<path class="st1" d="M681,607.3c1.6-1.1,3.3-2.1,5-3.1C684.3,605.2,682.6,606.2,681,607.3l25.2,29.8L681,607.3z"/>
		<polygon class="st1" points="729.6,664.6 728,644.7 729.6,664.6 		"/>
		<path class="st1" d="M723.6,589.3c-0.8,0.2-1.6,0.4-2.4,0.6C722,589.7,722.8,589.4,723.6,589.3L723.6,589.3z"/>
		<polygon class="st1" points="642.3,786.1 642.3,786.1 687.5,747.8 		"/>
		<path class="st1" d="M929.2,855.5c-1-1.5-2.2-2.9-3.5-4.3l-6.7-6.7l6.7,6.7C927,852.5,928.2,854,929.2,855.5z"/>
		<path class="st2" d="M968.8,688.9h-34v0h0c-0.8-5.2-1.7-10.3-2.9-15.4c-5.7-24.1-16.1-47-30.8-67.3l10.7-10.7l14.3-14.3
			c1.3-1.4,2.4-3,3.4-4.6c0.6-1,1.1-2,1.6-3c4.9-10.8,3.1-23.9-5.7-32.6c-0.2-0.2-0.5-0.4-0.7-0.6c-0.5-0.4-1-0.9-1.5-1.2
			c-0.3-0.2-0.7-0.5-1-0.7c-0.4-0.3-0.9-0.6-1.3-0.9c-0.4-0.2-0.8-0.4-1.1-0.6c-0.4-0.2-0.9-0.5-1.3-0.7c-0.4-0.2-0.8-0.3-1.2-0.5
			c-0.4-0.2-0.9-0.4-1.3-0.6c-0.4-0.2-0.8-0.3-1.2-0.4c-0.5-0.1-0.9-0.3-1.4-0.4c-0.4-0.1-0.8-0.2-1.3-0.3c-0.5-0.1-0.9-0.2-1.4-0.3
			c-0.4-0.1-0.9-0.1-1.3-0.2c-0.5-0.1-0.9-0.1-1.4-0.2c-0.4,0-0.9,0-1.3-0.1c-0.5,0-0.9-0.1-1.4-0.1c-0.5,0-1,0-1.5,0.1
			c-0.4,0-0.8,0-1.2,0.1c-0.5,0-1,0.1-1.5,0.2c-0.4,0.1-0.8,0.1-1.2,0.2c-0.5,0.1-1,0.2-1.5,0.3c-0.4,0.1-0.8,0.2-1.2,0.3
			c-0.5,0.1-1,0.3-1.4,0.5c-0.4,0.1-0.7,0.2-1.1,0.4c-0.5,0.2-1,0.4-1.4,0.7c-0.3,0.2-0.7,0.3-1,0.5c-0.5,0.3-1,0.6-1.4,0.8
			c-0.3,0.2-0.6,0.3-0.9,0.5c-0.5,0.3-1,0.7-1.5,1.1c-0.2,0.2-0.5,0.3-0.7,0.5c-0.7,0.6-1.4,1.2-2.1,1.9l-5.5,5.5L860.9,566
			c0,0,0,0,0,0l0,0c-5.3-3.9-10.8-7.5-16.5-10.8c-2-1.2-4.1-2.3-6.2-3.4c-1.6-0.8-3.1-1.6-4.7-2.4c-3.2-1.6-6.4-3-9.6-4.4
			c-1.6-0.7-3.3-1.4-4.9-2c-1.6-0.6-3.3-1.3-4.9-1.9c-5-1.8-10-3.4-15.1-4.7c-2.3-0.6-4.6-1.2-6.8-1.7c-4.2-0.9-8.4-1.7-12.6-2.4v0
			c0,0,0,0,0,0v-34c0-7.5-3-14.4-7.8-19.5c-0.7-0.7-1.4-1.4-2.2-2.1c-0.5-0.4-1-0.8-1.5-1.2c-0.5-0.3-0.9-0.7-1.4-1
			c-4.5-2.9-9.8-4.7-15.6-4.7c-4.9,0-9.5,1.2-13.5,3.4c-1.1,0.6-2.2,1.3-3.2,2c-0.9,0.6-1.7,1.3-2.5,2.1c-5.6,5.2-9.2,12.7-9.2,20.9
			v34c0,0,0,0,0,0v0c-3.9,0.6-7.8,1.3-11.7,2.2c-4.3,0.9-8.6,2.1-12.9,3.3c-4.8,1.4-9.5,3-14.1,4.8c-3.6,1.4-7.1,2.9-10.6,4.5
			c-4,1.9-8,3.9-11.9,6c-7,3.8-13.8,8.1-20.2,12.8l0,0c0,0,0,0,0,0l-24.4-24.3l0,0c0,0,0,0,0,0c-0.7-0.6-1.4-1.2-2.2-1.8
			c-0.2-0.2-0.5-0.3-0.8-0.5c-0.5-0.4-1-0.7-1.5-1c-0.3-0.2-0.7-0.4-1-0.5c-0.5-0.3-1-0.5-1.4-0.8c-0.4-0.2-0.7-0.3-1.1-0.5
			c-0.5-0.2-0.9-0.4-1.4-0.6c-0.4-0.1-0.8-0.3-1.2-0.4c-0.5-0.2-0.9-0.3-1.4-0.4c-0.4-0.1-0.8-0.2-1.2-0.3c-0.5-0.1-0.9-0.2-1.4-0.3
			c-0.4-0.1-0.8-0.1-1.3-0.2c-0.5-0.1-0.9-0.1-1.4-0.2c-0.4,0-0.8,0-1.3-0.1c-0.5,0-0.9,0-1.4,0c-0.5,0-1,0-1.5,0.1
			c-0.4,0-0.8,0-1.3,0.1c-0.5,0.1-1,0.1-1.5,0.2c-0.4,0.1-0.8,0.1-1.2,0.2c-0.5,0.1-1,0.2-1.5,0.4c-0.4,0.1-0.8,0.2-1.2,0.3
			c-0.5,0.1-1,0.3-1.5,0.5c-0.4,0.1-0.8,0.3-1.2,0.4c-0.5,0.2-1,0.4-1.4,0.7c-0.4,0.2-0.7,0.3-1.1,0.5c-0.5,0.3-1,0.6-1.4,0.8
			c-0.3,0.2-0.7,0.4-1,0.6c-0.5,0.3-1,0.7-1.5,1.1c-0.3,0.2-0.5,0.4-0.8,0.6c-0.7,0.6-1.5,1.2-2.1,1.9c0,0,0,0,0,0
			c-5.8,6.5-8.4,14.8-7.6,22.7c0.1,1.4,0.4,2.7,0.7,4c0.3,1.3,0.7,2.6,1.3,3.9c1.1,2.6,2.5,5,4.4,7.3c0.5,0.6,1.1,1.3,1.7,1.9
			l23.9,23.4c-3.3,4.6-6.5,9.3-9.3,14.2c-12.5,21-20.8,44.2-24.4,68.4h-34c-5.7,0-10.9,1.7-15.4,4.6c-7.8,5.1-13.1,13.9-13.1,23.9
			c0,8.7,4,16.5,10.2,21.8c0.4,0.4,0.9,0.7,1.3,1c0.5,0.4,1,0.8,1.6,1.1c0.8,0.5,1.7,1,2.6,1.5c3.8,2,8.2,3.1,12.8,3.1h34
			c1.9,12.3,5,24.3,9.3,35.9c5.9,15.9,14.1,31,24.4,44.9l-24.4,24.4c-0.7,0.7-1.3,1.5-1.8,2.2c-0.8,1.1-1.6,2.3-2.2,3.5
			c-0.6,1.2-1.2,2.4-1.7,3.7c-0.9,2.5-1.5,5.1-1.8,7.8c-0.1,1-0.1,2-0.1,3c0,0.9,0.1,1.8,0.2,2.7c0.7,6.3,3.4,12.4,8.2,17.2
			c0.1,0.1,0.3,0.2,0.4,0.3c0.6,0.5,1.2,1.1,1.8,1.5c0.3,0.2,0.6,0.4,0.9,0.6c0.5,0.3,0.9,0.7,1.4,1c0.3,0.2,0.7,0.4,1,0.6
			c0.5,0.3,0.9,0.5,1.4,0.8c0.4,0.2,0.7,0.3,1.1,0.5c0.5,0.2,0.9,0.4,1.4,0.6c0.4,0.1,0.8,0.3,1.2,0.4c0.5,0.2,0.9,0.3,1.4,0.5
			c0.4,0.1,0.8,0.2,1.2,0.3c0.5,0.1,1,0.2,1.4,0.3c0.4,0.1,0.8,0.1,1.2,0.2c0.5,0.1,1,0.1,1.4,0.2c0.4,0,0.8,0,1.2,0.1
			c0.5,0,1,0.1,1.4,0.1c0.5,0,0.9,0,1.4-0.1c0.4,0,0.9,0,1.3-0.1c0.5,0,0.9-0.1,1.4-0.2c0.4-0.1,0.8-0.1,1.3-0.2
			c0.5-0.1,0.9-0.2,1.4-0.3c0.4-0.1,0.8-0.2,1.2-0.3c0.5-0.1,0.9-0.3,1.4-0.5c0.4-0.1,0.8-0.3,1.2-0.4c0.5-0.2,0.9-0.4,1.3-0.6
			c0.4-0.2,0.8-0.3,1.1-0.5c0.5-0.2,0.9-0.5,1.4-0.8c0.3-0.2,0.7-0.4,1-0.6c0.5-0.3,1-0.7,1.5-1.1c0.2-0.2,0.5-0.4,0.7-0.5
			c0.7-0.6,1.4-1.2,2.1-1.9l8-8l16-16c0,0,0,0,0,0l0,0c6.4,4.7,13.2,9,20.2,12.9c19,10.4,39.8,17.6,61.3,20.8v34
			c0,15.7,12.8,28.5,28.5,28.5c15.7,0,28.5-12.8,28.5-28.5v-34c7.3-1.1,14.6-2.7,21.7-4.7c1.8-0.5,3.6-1,5.3-1.6
			c19.5-6.1,37.9-15.4,54.3-27.4l0,0c0,0,0,0,0,0l25.1,25.6c0.7,0.6,1.4,1.2,2.2,1.8c0.2,0.2,0.4,0.3,0.6,0.4
			c0.5,0.4,1.1,0.8,1.7,1.1c0.3,0.2,0.6,0.3,0.9,0.5c0.5,0.3,1,0.6,1.5,0.8c0.3,0.2,0.7,0.3,1.1,0.5c0.5,0.2,1,0.4,1.4,0.6
			c0.4,0.1,0.8,0.2,1.1,0.4c0.5,0.2,1,0.3,1.4,0.5c0.4,0.1,0.8,0.2,1.2,0.3c0.5,0.1,0.9,0.2,1.4,0.3c0.4,0.1,0.8,0.1,1.2,0.2
			c0.5,0.1,0.9,0.1,1.4,0.2c0.4,0,0.8,0,1.3,0.1c0.5,0,0.9,0,1.4,0c0.5,0,1,0,1.5-0.1c0.4,0,0.8,0,1.3-0.1c0.5,0,1-0.1,1.5-0.2
			c0.4-0.1,0.8-0.1,1.2-0.2c0.5-0.1,1-0.2,1.5-0.3c0.4-0.1,0.8-0.2,1.2-0.3c0.5-0.1,0.9-0.3,1.4-0.5c0.4-0.1,0.8-0.3,1.2-0.4
			c0.5-0.2,0.9-0.4,1.4-0.6c0.4-0.2,0.8-0.3,1.1-0.5c0.5-0.2,0.9-0.5,1.4-0.8c0.3-0.2,0.7-0.4,1.1-0.6c0.5-0.3,0.9-0.7,1.4-1
			c0.3-0.2,0.6-0.4,0.9-0.7c0.6-0.5,1.3-1.1,1.9-1.7c0.1-0.1,0.2-0.2,0.3-0.3c2.5-2.7,4.4-5.9,5.6-9.2c3.4-8.7,2.5-18.6-2.5-26.3
			c-1-1.5-2.2-2.9-3.5-4.3l-6.7-6.7l-17.9-17.9c17.8-24,29.3-51.5,33.7-80.8h34c15.7,0,28.5-12.8,28.5-28.5
			C997.2,701.6,984.5,688.9,968.8,688.9z M686,604.2c11.1-6.5,23-11.3,35.2-14.3c0.8-0.2,1.6-0.4,2.4-0.6v0c0,0,0,0,0,0l4.4,55.4
			l1.6,19.9l0,0v0l-23.3-27.5L681,607.3C682.6,606.2,684.3,605.2,686,604.2z M633.6,661.7c2-4.3,4.2-8.4,6.7-12.5
			c0.6-1.1,1.3-2.1,1.9-3.2l0,0v0l57.8,49.8l-23.9-1.9l-51.9-4.1C626.3,680.1,629.5,670.7,633.6,661.7z M642.3,786.1
			C642.3,786.1,642.3,786.1,642.3,786.1L642.3,786.1c-8.3-12.9-14.2-27-17.4-42h0c0,0,0,0,0,0l74-5.9l0,0h0l-11.3,9.6L642.3,786.1z
			 M723.6,842.8C723.6,842.8,723.6,842.8,723.6,842.8L723.6,842.8c-4.2-0.9-8.3-2.1-12.3-3.5c-6.9-2.3-13.6-5.2-20.1-8.6
			c-3.4-1.8-6.8-3.8-10.1-5.9l48.6-56.5v0l0,0L723.6,842.8z M772.5,665.2l6-75.3c14.9,3.3,29.4,9.5,42.6,18l0,0L772.5,665.2
			L772.5,665.2z M811.6,830c-1.3,0.7-2.6,1.4-3.9,2c-1.1,0.6-2.3,1.1-3.5,1.6c-8.2,3.7-16.8,6.6-25.8,8.6v0c0,0,0,0,0,0l-1.6-20
			l-4.4-54.4l0,0l0,0l48.7,56.6C818.1,826.4,814.9,828.3,811.6,830z M859.8,786.1L859.8,786.1l-56.6-47.9l57.5,4.6l16.5,1.3
			C873.9,759.1,868.1,773.2,859.8,786.1z M877.9,689.9l-23.2,1.9l-52.6,4.2l0,0h0l57.8-49.9c0,0,0,0,0,0l0,0
			C868.5,659.4,874.6,674.1,877.9,689.9L877.9,689.9z"/>
		<path class="st3" d="M698.9,738.2L698.9,738.2l-74,5.9h0c3.3,15,9.1,29.1,17.4,42l0,0l45.3-38.3L698.9,738.2z"/>
		<path class="st3" d="M778.5,589.9l-6,75.3l48.6-57.3C807.9,599.4,793.4,593.3,778.5,589.9z"/>
		<path class="st3" d="M700,695.9l-57.8-49.8l0,0c-0.7,1-1.3,2.1-1.9,3.2c-2.4,4-4.7,8.2-6.7,12.5c-4.2,9-7.4,18.4-9.5,28.2
			l51.9,4.1L700,695.9z"/>
		<path class="st3" d="M706.2,637.1l23.3,27.5v0l-1.6-19.9l-4.4-55.4c0,0,0,0,0,0c-0.8,0.2-1.6,0.4-2.4,0.6
			c-12.3,3-24.1,7.8-35.2,14.3c-1.7,1-3.4,2-5,3.1L706.2,637.1z"/>
		<path class="st3" d="M681,824.8c3.3,2.1,6.7,4.1,10.1,5.9c6.5,3.4,13.2,6.3,20.1,8.6c4.1,1.4,8.2,2.5,12.3,3.5c0,0,0,0,0,0l6-74.5
			l0,0L681,824.8z"/>
		<path class="st3" d="M772.5,767.8l4.4,54.4l1.6,20c0,0,0,0,0,0c8.9-2,17.6-4.8,25.8-8.5c1.2-0.5,2.3-1.1,3.5-1.6
			c1.3-0.6,2.6-1.3,3.9-2c3.3-1.8,6.4-3.6,9.5-5.7L772.5,767.8L772.5,767.8z"/>
		<path class="st3" d="M859.9,646.1l-57.8,49.9h0l52.6-4.2l23.2-1.9C874.6,674.1,868.5,659.4,859.9,646.1
			C859.9,646.1,859.9,646.1,859.9,646.1z"/>
		<path class="st3" d="M823.9,545c3.2,1.4,6.4,2.8,9.6,4.4C830.4,547.8,827.2,546.4,823.9,545z"/>
		<path class="st3" d="M673.2,547.2c3.5-1.6,7-3.1,10.6-4.5C680.3,544,676.7,545.6,673.2,547.2z"/>
		<path class="st3" d="M860.7,742.8l-57.5-4.6l56.6,47.9c8.3-12.9,14.2-27,17.4-42L860.7,742.8z"/>
	</g>
	<g>
		<polygon class="st3" points="490.2,136.7 403,179.3 315.9,136.7 		"/>
	</g>
</g>
</svg>
