<?xml version="1.0" encoding="utf-8"?>
<!-- Generator: Adobe Illustrator 22.1.0, SVG Export Plug-In . SVG Version: 6.00 Build 0)  -->
<svg version="1.1" id="Ebene_1" xmlns="http://www.w3.org/2000/svg" xmlns:xlink="http://www.w3.org/1999/xlink" x="0px" y="0px"
	 viewBox="0 0 1000 1000" style="enable-background:new 0 0 1000 1000;" xml:space="preserve">
<style type="text/css">
	.st0{fill:#87BDFF;}
	.st1{fill:#1D7BF1;}
</style>
<g>
	<path class="st0" d="M635.2,775.2c43.5,44.1,130.4,133,131.3,133.9c3.4,3.5,8,5.4,12.9,5.4c4.7-0.1,9.3-2,12.6-5.3l133.3-134
		c17.1-16.2,32.6-34,46.1-53.2c14.9-21.4,23-46.7,23.4-72.8c-0.8-33.8-16.5-65.5-43-86.5c-26.5-21-60.9-29.1-94-22.1
		c-33.3,9-58.5,32.9-78.5,55.5c-17.9-19-49.1-48.3-76.8-55.1l0,0c-33.1-7-67.5,1.2-94,22.2c-26.5,21-42.3,52.7-43,86.5
		c0.6,26,8.9,51.2,23.8,72.4C602.6,741.1,618.1,759,635.2,775.2L635.2,775.2z"/>
	<g>
		<path class="st1" d="M659.8,892.5c-24.4-24.9-51.2-52.2-69.9-71.2c-19.8-18.8-37.8-39.7-53.7-62.3
			c-22.3-31.8-34.6-69.2-35.5-108.1l0-1.5l0-1.5c0.7-30.7,9.2-60.2,24.3-86v-33.7c14.6-23.9,21.9-50.6,26.5-74.5
			c8.2-0.9,20.1-12.4,32-54.1c15.5-53.5,1.6-68.8-13.1-68.9c-0.7-0.4-1.5-0.8-2.3-1.1c1.6-5.6,8.1-30.4,7.7-61.3
			c10.2-94.6-32.9-114.2-54.4-118.1c-4-3-8.3-5.9-12.9-8.7l-1.2-0.3c-13.3-32.2-59.4-63.4-102.5-54.1c-46.6,10-143.5-0.9-143.5-0.9
			c-0.9,20.1,16.5,34.8,16.5,34.8c-40.2,24.7-57.5,62.1-63.8,97.9c-6.6,22.4-7.7,55,2.6,102.1c-14.7-0.4-29.3,10.8-13.8,66
			c6,21.6,11.9,35.3,17.5,43.8c6.4,16.2,12.4,24.4,17.9,28c4.7,20.2,11.6,41.4,23.2,60.8v56.7c0,2.8-0.9,5.5-3.6,6.4
			c-21,11-127.1,64-224.9,144.5c-17.4,13.7-27.4,35.6-27.4,58.5v107.9H339l0-0.2l2,0.1l38.6-147.8c-66.8-89.6,4.6-94,17.4-94
			c4.5,0,16.5,0.6,27,5.3c14.2,11.5,19.5,35.7-17.4,86.7l32.9,148.1l112.4,0.1c0,0,0,0,0,0L659.8,892.5z"/>
	</g>
</g>
</svg>
