<?xml version="1.0" encoding="utf-8"?>
<!-- Generator: Adobe Illustrator 19.2.1, SVG Export Plug-In . SVG Version: 6.00 Build 0)  -->
<svg version="1.1" id="Ebene_1" xmlns="http://www.w3.org/2000/svg" xmlns:xlink="http://www.w3.org/1999/xlink" x="0px" y="0px"
	 viewBox="0 0 1000 1000" style="enable-background:new 0 0 1000 1000;" xml:space="preserve">
<g>
	<path d="M536.6,504c-3.3-1.7-6.5-3.2-9.9-4.3l-0.4-216.3c0-1.4-1.2-2.6-2.6-2.6l-40,0.1c-1.4,0-2.6,1.2-2.6,2.6l0.4,216.1
		c-16.3,5.5-30.5,17-39.2,33.4c-18.1,34-5.1,76.3,28.9,94.3c34,18.1,76.2,5.1,94.3-28.9C583.5,564.2,570.6,522,536.6,504z"/>
	<path d="M793.2,247.9l35.3-48.6L736,132l-36.4,50.1c-50.9-26.5-107.7-43.3-167.9-47.7v-71h112.6l0-63.4L364.6,0l0,63.4h112.6v70.2
		c-59.4,3-115.7,18-166.4,42.6l-42.9-59.1l-92.5,67.2l40,55.1C123.9,318.9,66.1,435.9,66.1,566.4c0,239.3,194,433.3,433.3,433.3
		c239.3,0,433.3-194,433.3-433.3C932.8,440.4,879,327.1,793.2,247.9z M499.5,972.3c-223.8,0-405.9-182.1-405.9-405.9
		c0-223.8,182.1-405.9,405.9-405.9c223.8,0,405.9,182.1,405.9,405.9C905.3,790.2,723.3,972.3,499.5,972.3z"/>
</g>
</svg>
