<?xml version="1.0" encoding="utf-8"?>
<!-- Generator: Adobe Illustrator 22.1.0, SVG Export Plug-In . SVG Version: 6.00 Build 0)  -->
<svg version="1.1" id="Ebene_1" xmlns="http://www.w3.org/2000/svg" xmlns:xlink="http://www.w3.org/1999/xlink" x="0px" y="0px"
	 viewBox="0 0 1000 1000" style="enable-background:new 0 0 1000 1000;" xml:space="preserve">
<g>
	<g>
		<path style="fill:#FFFFFF;" d="M796.8,222V57.6H889V2.1H111v55.5h92.2V222c0,67,32.5,128.8,87.9,167.5l161.2,109.9l-161.2,111
			C236.7,648.2,203.2,711,203.2,778v164.4H111v55.5h778v-55.5h-92.2V776.9c0-67-32.5-128.8-87.9-167.5L548.7,499.5l161.2-111
			C764.4,350.8,796.8,288,796.8,222L796.8,222z"/>
	</g>
	<path style="fill:#87BDFF;" d="M258.6,223.3V58.9h482.7v164.4c0,44-19.9,84.8-52.4,113.1h-377C278.6,308.1,258.6,267.3,258.6,223.3
		L258.6,223.3z"/>
	<path style="fill:#87BDFF;" d="M678,677.7c39.8,27.2,63.9,73.3,63.9,121.5v142.4L536.6,736.4c-19.9-19.9-53.4-19.9-74.4,0
		L258.1,941.6V799.2c0-48.2,24.1-94.2,63.9-121.5l178-122.5L678,677.7z"/>
</g>
</svg>
