<svg viewBox="0 0 87 91" fill="none" xmlns="http://www.w3.org/2000/svg">
<path d="M8.73033 43.8706C8.73033 25.5014 24.1864 10.5649 43.1864 10.5649C62.1864 10.5649 77.6424 25.5014 77.6424 43.8706C77.6424 62.2397 62.1864 77.1762 43.1864 77.1762C24.1864 77.1762 8.73033 62.2397 8.73033 43.8706ZM8.45201 17.7084C8.48912 14.9995 9.62096 12.4389 11.6249 10.5463C14.6307 7.70747 18.9354 6.92817 22.6464 8.18989C17.1542 11.1958 12.4042 15.352 8.786 20.3432C8.56334 19.4897 8.45201 18.6176 8.45201 17.7084ZM75.3602 10.5463C77.3827 12.4575 78.496 14.9995 78.5331 17.7084C78.5516 18.8217 78.3661 19.9165 78.0135 20.9555C74.3954 15.7602 69.5712 11.437 63.9491 8.31977C67.7528 6.87251 72.2616 7.61469 75.3602 10.5463ZM85.2684 43.8706C85.2684 38.5454 84.2108 33.4614 82.2997 28.7856C84.8602 25.6127 86.2147 21.7163 86.1776 17.6157C86.1219 12.8471 84.1551 8.39399 80.6298 5.0727C73.6532 -1.53276 62.5389 -1.60698 55.4696 4.77583C51.5731 3.62544 47.454 2.99458 43.1864 2.99458C39.0858 2.99458 35.1151 3.56977 31.3671 4.62739C24.2977 -1.60698 13.2948 -1.49566 6.37389 5.0727C2.8485 8.39399 0.8817 12.8471 0.826036 17.6342C0.770372 21.5122 1.99498 25.2045 4.27721 28.2661C2.21764 33.0717 1.0858 38.3413 1.0858 43.8706C1.0858 55.9682 6.52233 66.8598 15.1503 74.3559L5.09361 84.5239C3.60924 86.0082 3.62779 88.4204 5.14928 89.8862C6.65221 91.352 9.06432 91.3334 10.5487 89.8491L21.4217 78.8647C27.786 82.6127 35.2264 84.7651 43.1864 84.7651C51.1464 84.7651 58.6053 82.6127 64.951 78.8647L75.8241 89.8491C77.3085 91.352 79.7206 91.3706 81.2235 89.9047C82.7264 88.4389 82.745 86.0454 81.2792 84.5424L71.204 74.3745C79.8319 66.8598 85.2684 55.9682 85.2684 43.8706Z" fill="#C6C6C6"/>
</svg>
