<?xml version="1.0" encoding="utf-8"?>
<!-- Generator: Adobe Illustrator 23.1.1, SVG Export Plug-In . SVG Version: 6.00 Build 0)  -->
<svg version="1.1" id="Layer_1" xmlns="http://www.w3.org/2000/svg" xmlns:xlink="http://www.w3.org/1999/xlink" x="0px" y="0px"
	 viewBox="0 0 95.6 125.5" style="enable-background:new 0 0 95.6 125.5;" xml:space="preserve">
<g id="to-do-list_1_" transform="translate(-61)">
	<path id="Pfad_33" d="M153.4,10.6c-2.1-2.1-4.9-3.2-7.8-3.2h-4.9v4.9c0,5.4-4.4,9.8-9.8,9.8H86.8c-5.4,0-9.8-4.4-9.8-9.8V7.4h-4.9
		c-6.1,0-11,4.9-11,11L61,114.5c0,6.1,4.9,11,11,11c0,0,0,0,0,0h73.5c6.1,0,11-4.9,11-11l0.1-96.1C156.6,15.5,155.4,12.7,153.4,10.6
		L153.4,10.6z M110,44.1h26.1c2,0,3.7,1.7,3.7,3.7c0,2-1.6,3.7-3.7,3.7H110c-2,0-3.7-1.6-3.7-3.7S108,44.1,110,44.1z M110,68.6h26.1
		c2,0,3.7,1.6,3.7,3.7s-1.6,3.7-3.7,3.7H110c-2,0-3.7-1.6-3.7-3.7S108,68.6,110,68.6z M110,93.1h26.2c2,0,3.7,1.7,3.7,3.7
		c0,2-1.6,3.7-3.7,3.7H110c-2,0-3.7-1.6-3.7-3.7S108,93.1,110,93.1z M78.8,44.3c1.4-1.4,3.8-1.4,5.2,0c0,0,0,0,0,0l2,2l8.5-8.5
		c1.4-1.4,3.8-1.4,5.2,0.1c1.4,1.4,1.4,3.7,0,5.1L88.5,54.1c-1.4,1.4-3.8,1.4-5.2,0c0,0,0,0,0,0l-4.6-4.6
		C77.3,48,77.3,45.7,78.8,44.3L78.8,44.3z M78.8,70.7c1.4-1.4,3.8-1.4,5.2,0c0,0,0,0,0,0l2,2l8.5-8.5c1.4-1.4,3.7-1.5,5.2,0
		c1.4,1.4,1.5,3.7,0,5.2c0,0,0,0,0,0L88.5,80.5c-1.4,1.4-3.8,1.4-5.2,0c0,0,0,0,0,0l-4.6-4.6C77.3,74.4,77.3,72.1,78.8,70.7
		L78.8,70.7z M78.8,95.2c1.4-1.4,3.8-1.4,5.2,0c0,0,0,0,0,0l2,2l8.5-8.5c1.4-1.4,3.7-1.5,5.2,0c1.4,1.4,1.5,3.7,0,5.2c0,0,0,0,0,0
		L88.5,105c-1.4,1.4-3.8,1.4-5.2,0c0,0,0,0,0,0l-4.6-4.6C77.3,98.9,77.3,96.6,78.8,95.2L78.8,95.2z"/>
	<path id="Pfad_34" d="M84.4,12.3c0,1.4,1.1,2.4,2.4,2.5h44.1c1.4,0,2.4-1.1,2.4-2.5V2.5c0-1.4-1.1-2.5-2.4-2.5c0,0,0,0,0,0H86.8
		c-1.4,0-2.4,1.1-2.4,2.5L84.4,12.3z"/>
</g>
</svg>
