<svg width="14" height="14" viewBox="0 0 14 14" fill="none" xmlns="http://www.w3.org/2000/svg">
<path fill-rule="evenodd" clip-rule="evenodd" d="M7.00034 13.4006C10.535 13.4006 13.4003 10.5352 13.4003 7.00059C13.4003 3.46596 10.535 0.600586 7.00034 0.600586C3.46572 0.600586 0.600342 3.46596 0.600342 7.00059C0.600342 10.5352 3.46572 13.4006 7.00034 13.4006ZM10.7532 5.10738C11.0331 4.80204 11.0125 4.32761 10.7071 4.04772C10.4018 3.76783 9.92737 3.78845 9.64748 4.09379L5.80034 8.29067L4.35321 6.71197C4.07331 6.40664 3.59889 6.38601 3.29355 6.6659C2.98821 6.9458 2.96758 7.42022 3.24748 7.72556L5.24748 9.90738C5.38953 10.0624 5.59011 10.1506 5.80034 10.1506C6.01057 10.1506 6.21115 10.0624 6.35321 9.90738L10.7532 5.10738Z" fill="#00A353"/>
</svg>
