<?xml version="1.0" encoding="utf-8"?>
<!-- Generator: Adobe Illustrator 22.1.0, SVG Export Plug-In . SVG Version: 6.00 Build 0)  -->
<svg version="1.1" id="Ebene_1" xmlns="http://www.w3.org/2000/svg" xmlns:xlink="http://www.w3.org/1999/xlink" x="0px" y="0px"
	 viewBox="0 0 1000 1000" style="enable-background:new 0 0 1000 1000;" xml:space="preserve">
<style type="text/css">
	.st0{fill:#87BDFF;}
	.st1{fill:#1D7BF1;}
</style>
<path class="st0" d="M995.4,223.6H872c-23.3,0-42.2,18.9-42.2,42.2v0.5h-8.4v-0.5H720.9l-183-42.8L373,360.1
	c-0.2,0.1-0.2,0.2-0.4,0.4c-20.4,17.7-28.7,30.9-28.7,43.6c0,14,3.6,25,11.8,33.4c7.5,7.7,21.8,14.4,46.3,16.1l218.7-121.7
	c11.2-6.3,27-2.3,33.8,8.6l138.2,227h28.7v-1.3h8.4v18.2c0,23.3,18.9,42.2,42.2,42.2h123.4c0.9,0,1.6-0.7,1.6-1.6V225.2
	C997,224.3,996.3,223.6,995.4,223.6z"/>
<path class="st1" d="M623.9,387.6l-205,113.9c-3.9,2.2-8.4,3.3-13,3.1c-37.9-1-67.3-12.7-86.4-32.2c-19.1-19.5-25.9-44.9-25.9-68.3
	c0-34,21.3-60.4,46.3-82.1l0.4-0.4l66.8-55.8l-234.9,0v0c0-23.3-18.9-42.2-42.2-42.2H6.7c-0.9,0-1.6,0.7-1.6,1.6V625
	c0,0.9,0.7,1.6,1.6,1.6h123.4c23.3,0,42.2-18.9,42.2-42.2v-16.9h33.4l112.5,168.7c10.3,20,31.4,32.6,50.9,32.4
	c17.5-0.5,36.2-11.1,50.3-25.1l-48.6-87.2c-9.2-14.7,2.4-37.4,19.6-38.5c9.3-0.7,18.8,4.2,23.6,12.2l67.6,114.5
	c13.3,24.2,56,17.4,69.4-4.1l-87.6-133.9c-9.5-14.5,1.6-37.4,18.8-38.9c9.2-0.8,18.7,3.9,23.6,11.8L591,709.6
	c16.8,21.2,56.6,18,72.5-7.5l-99.7-158.6c-9.5-14.5,1.6-37.4,18.8-38.9c9.2-0.8,18.7,3.9,23.6,11.8l96.1,152.9
	c18.6,23.9,70.2,14.9,83-16.6L623.9,387.6z"/>
</svg>
