<?xml version="1.0" encoding="utf-8"?>
<!-- Generator: Adobe Illustrator 22.1.0, SVG Export Plug-In . SVG Version: 6.00 Build 0)  -->
<svg version="1.1" id="Ebene_1" xmlns="http://www.w3.org/2000/svg" xmlns:xlink="http://www.w3.org/1999/xlink" x="0px" y="0px"
	 viewBox="0 0 1000 1000" style="enable-background:new 0 0 1000 1000;" xml:space="preserve">
<style type="text/css">
	.st0{fill:#1D7BF1;}
	.st1{fill:#87BDFF;}
</style>
<g>
	<g>
		<path class="st0" d="M206.4,149.6c-42.1,18.3-57.4,75.7-28.1,106.9c22,23.2,50.1,30.5,75.1,20.1c50.7-21.4,59.9-79.4,18.9-116.1
			C257.8,147.7,223.6,142.3,206.4,149.6L206.4,149.6z"/>
		<path class="st0" d="M11.8,166.2c-20.5,17.6,3.1,44.4,16.8,60.7c5.2,6.3,10.6,12.4,16.1,18.5c124.6,140.5,171,200.9,188.1,241.9
			c17.1,43.4,31.1,52.5,47,31.1c5.5-6.7,17.1-10.4,37.3-11c16.5-0.6,36-3.1,43.4-5.5c13.7-7.9,34.6-64.6,29.1-78.6
			c-7.9-20.8-7.1-47.2-1.6-47.2c9.2,0,41.5,26.2,41.5,33.6c0,3.7-9.8,25-22,47.6c-22,42.1-23.2,56.2-4.9,74.5
			c5.5,4.9,6.7,9.2,3.7,9.2s-9.2-4.3-13.4-9.2c-4.3-4.9-11-9.2-15.9-9.2c-14.1,0-39.1,14.1-39.1,22c0,10.4-37.3,22.6-45.2,14.7
			c-3.1-3.1-12.8-6.1-20.8-6.1c-12.2,0-14.1,2.5-11.6,12.8c1.8,7.4-5.5,38.5-17.7,72.1c-14.1,37.8-20.1,64.1-17.7,73.9
			c4.9,18.9,98.3,142.3,111.8,147.2c15.2,5.5,36-4.3,40.9-18.9c3.1-9.2-6.1-30-33.6-77l-37.3-64.1l23.2-40.3
			c12.8-22.6,26.2-41.5,30.5-42.7c3.7-1.2,31.8,46.4,65.3,113.6c59.9,118.5,69.6,130.7,94.7,117.3c23.8-12.8,20.8-27.5-35.4-171.6
			L430.5,535l31.8-48.3c46.4-69,51.3-83,37.8-106.9c-10.4-18.9-55-58-103.2-91c-35.4-23.8-73.3-23.2-99.6,2.5
			c-10.4,10.4-29.3,20.8-41.5,23.8c-43.4,9.8-61.7-1.2-142.9-83c-22.9-23.2-46.8-44.7-71.8-65.6c-3.4-2.9-7.1-5.9-11.5-6.8
			c-4.2-0.8-8.7,0.4-12.4,2.6C15.1,163.6,13.3,164.9,11.8,166.2z"/>
		<path class="st1" d="M455.5,287.6c76.3,59.3,95.3,80.6,95.3,108.7c0,18.9-21.4,63.5-52.5,110.5L477.5,538l18.3,48.3
			c9.8,26.9,21.4,50.7,25.7,53.7c47,31.8,128.2,56.8,158.2,49.5c14.1-3.7,14.7-7.9,2.5-23.8c-11-14.7-16.6-31.2-6.3-39.1
			C690,614.9,731,602.1,805.5,593c70.9-8.5,105.6-17.7,105.6-27.5c0-2.5-4.3-7.9-9.2-12.2c-14.1-11.6-11-16.5,14.1-25
			c12.2-3.7,35.4-13.4,51.3-22c42.1-20.8,38.5-39.7-12.8-66c-17.7-8.5-522.2-180.1-530.7-180.1C422,260.1,436,272.3,455.5,287.6
			L455.5,287.6z"/>
		<circle class="st0" cx="231.8" cy="211.3" r="72.1"/>
	</g>
	<path class="st0" d="M406.7,460.3L360,551.8l46.7,21.5c0,0,13.5-24.6,13.5-30.7S406.7,460.3,406.7,460.3z"/>
</g>
</svg>
