<svg xmlns="http://www.w3.org/2000/svg" xmlns:xlink="http://www.w3.org/1999/xlink" width="1000" height="1000" viewBox="0 0 1000 1000">
  <defs>
    <clipPath id="clip-upload-excel">
      <rect width="1000" height="1000"/>
    </clipPath>
  </defs>
  <g id="upload-excel" clip-path="url(#clip-upload-excel)">
    <g id="Gruppe_2969" data-name="Gruppe 2969" transform="translate(0 1.601)">
      <g id="excel" transform="translate(0 130.399)">
        <g id="Gruppe_2843" data-name="Gruppe 2843" transform="translate(0 0)">
          <g id="Gruppe_2842" data-name="Gruppe 2842" transform="translate(0)">
            <path id="Differenzmenge_1" data-name="Differenzmenge 1" d="M426.9,753.385a23.6,23.6,0,0,1-4.62-.453L20.491,677.6A25.08,25.08,0,0,1,0,652.938V100.481A25.03,25.03,0,0,1,20.491,75.821L422.278.486A23.307,23.307,0,0,1,427.023,0a24.464,24.464,0,0,1,8.415,1.5,25.117,25.117,0,0,1,7.482,4.306,24.822,24.822,0,0,1,6.711,8.651,25.3,25.3,0,0,1,2.379,10.685v75.336H778.462a25.1,25.1,0,0,1,25.111,25.111V318.057H753.351V150.7H452.01v50.223h75.335a25.112,25.112,0,1,1,0,50.223H452.01v50.224h75.335a25.111,25.111,0,1,1,0,50.222H452.01v50.223h75.335a25.112,25.112,0,1,1,0,50.224H452.01v50.223h75.335a25.112,25.112,0,1,1,0,50.223H452.01v50.224H683.235v50.224H452.01v75.335A25.114,25.114,0,0,1,426.9,753.385ZM234.543,410.258h0l73.025,83.421a25.093,25.093,0,1,0,37.768-33.047l-79.4-90.753L346.29,266.62a25.16,25.16,0,0,0,2.133-27.714,25.093,25.093,0,0,0-21.9-12.842,25.428,25.428,0,0,0-10.875,2.458,24.976,24.976,0,0,0-8.985,7.211l-74.381,95.626L169.6,259.739a25.173,25.173,0,0,0-18.944-8.6,25.087,25.087,0,0,0-18.875,41.646l69.057,78.951-70.011,90A25.143,25.143,0,0,0,135.251,497a25.2,25.2,0,0,0,26.261,2.824,24.98,24.98,0,0,0,9-7.195l64.035-82.366Z" transform="translate(0)" fill="#006fa7"/>
          </g>
        </g>
        <g id="Gruppe_2845" data-name="Gruppe 2845" transform="translate(573.188 201.544)">
          <g id="Gruppe_2844" data-name="Gruppe 2844" transform="translate(0 0)">
            <path id="Pfad_28" data-name="Pfad 28" d="M456.1,144.011H408.032a24.033,24.033,0,0,0,0,48.065H456.1a24.033,24.033,0,1,0,0-48.065Z" transform="translate(-384 -144.011)" fill="#006fa7"/>
          </g>
        </g>
        <g id="Gruppe_2847" data-name="Gruppe 2847" transform="translate(573.188 302.299)">
          <g id="Gruppe_2846" data-name="Gruppe 2846" transform="translate(0 0)">
            <path id="Pfad_29" data-name="Pfad 29" d="M456.1,208.011H408.032a24.032,24.032,0,0,0,0,48.065H456.1a24.032,24.032,0,1,0,0-48.065Z" transform="translate(-384 -208.011)" fill="#006fa7"/>
          </g>
        </g>
        <g id="Gruppe_2849" data-name="Gruppe 2849" transform="translate(573.188 403.054)">
          <g id="Gruppe_2848" data-name="Gruppe 2848" transform="translate(0 0)">
            <path id="Pfad_30" data-name="Pfad 30" d="M456.1,272.011H408.032a24.032,24.032,0,0,0,0,48.065H456.1a24.032,24.032,0,1,0,0-48.065Z" transform="translate(-384 -272.011)" fill="#006fa7"/>
          </g>
        </g>
        <g id="Gruppe_2851" data-name="Gruppe 2851" transform="translate(573.188 503.809)">
          <g id="Gruppe_2850" data-name="Gruppe 2850">
            <path id="Pfad_31" data-name="Pfad 31" d="M456.1,336.011H408.032a24.033,24.033,0,0,0,0,48.066H456.1a24.033,24.033,0,1,0,0-48.066Z" transform="translate(-384 -336.011)" fill="#006fa7"/>
          </g>
        </g>
      </g>
      <g id="Gruppe_2967" data-name="Gruppe 2967" transform="translate(1000 811.827) rotate(180)">
        <g id="Gruppe_2968" data-name="Gruppe 2968" transform="translate(0 0)">
          <path id="pfeil" d="M111.836,15.983,93.807,34.016l-90.092,90.1a12.8,12.8,0,0,0,0,18.033l12.3,12.3a12.8,12.8,0,0,0,18.033,0L100.4,88.09c4.952-4.952,9-3.269,9,3.722V310.926a12.781,12.781,0,0,0,12.753,12.753H144.2a12.781,12.781,0,0,0,12.753-12.753V91.8c0-7.024,4.046-8.707,9-3.722l66.354,66.354a12.8,12.8,0,0,0,18.033,0l12.3-12.3a12.8,12.8,0,0,0,0-18.033L172.469,34.016,154.456,15.983,142.137,3.716a12.8,12.8,0,0,0-18.033,0Zm21.5,39.493q.146.194-.194.194c-.227,0-.324-.1-.194-.194a.3.3,0,0,1,.4,0" transform="translate(266.353 323.679) rotate(180)" fill="#004372"/>
        </g>
      </g>
    </g>
  </g>
</svg>
