<svg xmlns="http://www.w3.org/2000/svg" id="ueberzeugungskuenstler" width="100.107" height="55.068" viewBox="0 0 100.107 55.068">
    <defs>
        <style>
            .cls-1{fill:#4985eb}.cls-2{fill:#fff}
        </style>
    </defs>
    <path id="Pfad_295" d="M409.655 223.06H397.2a4.255 4.255 0 0 0-4.255 4.255v.05h-.845v-.05h-10.145L363.482 223l-16.643 13.838c-.02.01-.02.02-.04.04-2.058 1.787-2.9 3.118-2.9 4.4a4.569 4.569 0 0 0 1.191 3.371 7.084 7.084 0 0 0 4.673 1.627l22.073-12.283a2.64 2.64 0 0 1 3.411.868l13.953 22.908h2.9v-.125h.847v1.837a4.254 4.254 0 0 0 4.255 4.255h12.455a.159.159 0 0 0 .162-.161v-40.354a.159.159 0 0 0-.16-.161z" class="cls-1" data-name="Pfad 295" transform="translate(-309.709 -223)"/>
    <path id="Pfad_296" d="M67.552 240.152l-20.69 11.495a2.454 2.454 0 0 1-1.311.313 12.328 12.328 0 0 1-8.719-3.253 9.684 9.684 0 0 1-2.614-6.894c0-3.431 2.15-6.1 4.673-8.286l.04-.04 6.742-5.631H21.964a4.255 4.255 0 0 0-4.254-4.256H5.261a.159.159 0 0 0-.161.161v40.35a.159.159 0 0 0 .161.161h12.455a4.255 4.255 0 0 0 4.255-4.255v-1.706h3.371L36.7 275.338a5.981 5.981 0 0 0 5.137 3.27 8.064 8.064 0 0 0 5.077-2.533l-4.914-8.8a2.677 2.677 0 0 1 1.978-3.885 2.609 2.609 0 0 1 2.378 1.231l6.822 11.556c1.343 2.443 5.652 1.752 7.008-.414l-8.841-13.515a2.677 2.677 0 0 1 1.9-3.926 2.6 2.6 0 0 1 2.378 1.191l8.6 13.139c1.7 2.14 5.712 1.817 7.317-.751l-10.053-16.016a2.677 2.677 0 0 1 1.9-3.925 2.6 2.6 0 0 1 2.378 1.191l9.7 15.432c1.877 2.413 7.085 1.5 8.377-1.676z" class="cls-2" data-name="Pfad 296" transform="translate(-5.1 -223.54)"/>
</svg>
