<svg xmlns="http://www.w3.org/2000/svg" viewBox="0 0 53 53"><defs></defs><title>user</title><g id="Ebene_2" data-name="Ebene 2"><g id="Capa_1" data-name="Capa 1"><path style="fill:#1879ee;" d="M18.61,41.55l-7.9,4.31a7,7,0,0,0-1.27.91,26.48,26.48,0,0,0,34,.09,7.07,7.07,0,0,0-1.39-.94L33.6,41.69a3.24,3.24,0,0,1-1.78-2.89V35.48a12.15,12.15,0,0,0,.8-1,19.36,19.36,0,0,0,2.63-5.31,2.65,2.65,0,0,0,1.89-2.53V23.07a2.66,2.66,0,0,0-.89-2V16s1-8-9.75-8-9.75,8-9.75,8V21.1a2.66,2.66,0,0,0-.89,2v3.54a2.69,2.69,0,0,0,1.23,2.24,17.68,17.68,0,0,0,3.21,6.63v3.24A3.22,3.22,0,0,1,18.61,41.55Z"/><path style="fill:#cde1fa;" d="M27,0A26.48,26.48,0,0,0,9.45,46.76a6.91,6.91,0,0,1,1.25-.89l7.91-4.32a3.21,3.21,0,0,0,1.68-2.83V35.48a17.57,17.57,0,0,1-3.2-6.64,2.63,2.63,0,0,1-1.23-2.23V23.07a2.66,2.66,0,0,1,.89-2V16S15.7,8,26.5,8s9.75,8,9.75,8V21.1a2.65,2.65,0,0,1,.88,2v3.54a2.65,2.65,0,0,1-1.88,2.53,19.79,19.79,0,0,1-2.63,5.31c-.29.41-.57.76-.8,1V38.8a3.24,3.24,0,0,0,1.78,2.89l8.47,4.23a7.33,7.33,0,0,1,1.39.93A26.5,26.5,0,0,0,27,0Z"/></g></g></svg>