<?xml version="1.0" encoding="utf-8"?>
<!-- Generator: Adobe Illustrator 22.1.0, SVG Export Plug-In . SVG Version: 6.00 Build 0)  -->
<svg version="1.1" id="Ebene_1" xmlns="http://www.w3.org/2000/svg" xmlns:xlink="http://www.w3.org/1999/xlink" x="0px" y="0px"
	 viewBox="0 0 1874.1 1874.1" style="enable-background:new 0 0 1874.1 1874.1;" xml:space="preserve">
<style type="text/css">
	.st0{display:none;fill:#1760EE;}
	.st1{fill:#FFFFFF;}
	.st2{fill:#828384;}
</style>
<g>
	<path class="st0" d="M940.7,2.1l-67,929.3c-2.8,38.4,29,70.5,67.4,68.1l0,0c35-2.2,61.5-32.3,59.4-67.2L944.8,2.1
		C944.7-0.5,940.9-0.6,940.7,2.1z"/>
	<circle class="st1" cx="937.1" cy="937" r="24.7"/>
	<g>
		<g>
			<path class="st2" d="M943.8,162.6c-0.3-4.6-4.3-4.6-4.7,0l-65.1,772c-2.6,36.8,29.1,67.3,67.4,64.9l0,0
				c34.7-2.3,61-31.2,58.8-64.7L943.8,162.6z"/>
		</g>
		<circle class="st1" cx="937.1" cy="937" r="24.7"/>
	</g>
</g>
</svg>
