<?xml version="1.0" encoding="utf-8"?>
<!-- Generator: Adobe Illustrator 22.1.0, SVG Export Plug-In . SVG Version: 6.00 Build 0)  -->
<svg version="1.1" id="Ebene_1" xmlns="http://www.w3.org/2000/svg" xmlns:xlink="http://www.w3.org/1999/xlink" x="0px" y="0px"
	 viewBox="0 0 1000 1000" style="enable-background:new 0 0 1000 1000;" xml:space="preserve">
<g>
	<path d="M443,938.7L500,0l57,938.7l-57-31.8L443,938.7z"/>
	<path d="M503.8,886.2c-31.5-2.1-58.8,21.6-60.9,53c-2.1,31.4,21.7,58.6,53.2,60.7c31.5,2.1,58.8-21.6,60.9-53
		C559.2,915.5,535.3,888.3,503.8,886.2z M498.3,964.9c-12.1-0.8-21.3-11.3-20.5-23.4c0.8-12.1,11.3-21.3,23.4-20.5
		c12.1,0.8,21.3,11.3,20.5,23.4C520.9,956.6,510.5,965.8,498.3,964.9z"/>
</g>
</svg>
