<?xml version="1.0" encoding="utf-8"?>
<!-- Generator: Adobe Illustrator 16.0.3, SVG Export Plug-In . SVG Version: 6.00 Build 0)  -->
<!DOCTYPE svg PUBLIC "-//W3C//DTD SVG 1.1//EN" "http://www.w3.org/Graphics/SVG/1.1/DTD/svg11.dtd">
<svg version="1.1" id="Ebene_1" xmlns="http://www.w3.org/2000/svg" xmlns:xlink="http://www.w3.org/1999/xlink" x="0px" y="0px"
	 width="63.332px" height="80px" viewBox="0 0 63.332 80" enable-background="new 0 0 63.332 80" xml:space="preserve">
<path d="M62.711,14.592L48.739,0.621C48.343,0.224,47.806,0.001,47.245,0H6.665C2.983,0-0.001,2.984-0.001,6.666v66.668
	c0,3.682,2.984,6.666,6.666,6.666h50c3.682,0,6.666-2.984,6.666-6.666V16.092C63.331,15.53,63.108,14.99,62.711,14.592z
	 M12.085,12.59h14.329v3.178H12.085V12.59z M12.085,21.363h22.153v3.178H12.085V21.363z M41.1,61.929
	c-5.294,5.3-13.881,5.304-19.181,0.009c-1.157-1.156-2.093-2.514-2.763-4.006c-0.016-0.035-0.03-0.071-0.042-0.107
	c-0.165-0.507,0.113-1.051,0.619-1.215l2.094-0.651c0.439-0.144,0.917,0.056,1.124,0.469c0.457,0.979,1.08,1.871,1.842,2.636
	c0.093,0.094,0.188,0.186,0.286,0.275c3.847,3.548,9.843,3.305,13.39-0.543c3.479-3.848,3.271-9.762-0.467-13.357
	c-3.422-3.269-8.739-3.487-12.418-0.512l2.827,1.4c0.241,0.079,0.419,0.283,0.468,0.531c0.074,0.38-0.174,0.747-0.554,0.82
	l-7.281,2.559c-0.181,0.063-0.38,0.05-0.551-0.039c-0.17-0.087-0.296-0.24-0.349-0.424l-2.168-7.453
	c-0.122-0.27-0.061-0.588,0.153-0.793l0.01-0.01l0.035-0.029c0.015-0.012,0.03-0.023,0.046-0.033c0.238-0.162,0.551-0.162,0.789,0
	l2.823,1.408l0.029-0.028c4.342-4.417,11.128-5.326,16.479-2.205l-0.002-0.003c1.005,0.586,1.93,1.299,2.753,2.121
	C46.391,48.042,46.395,56.63,41.1,61.929z M46.066,18.536V5.119c0.177-0.176,13.151,13.37,13.151,13.37L46.066,18.536z"/>
</svg>
