<svg xmlns="http://www.w3.org/2000/svg" width="77.044" height="80" viewBox="0 0 77.044 80">
    <path d="M54.88 48.424a.9.9 0 0 1-.568-.2l-6.888-5.232a.906.906 0 0 0-1.272.136L43.4 46.512a.9.9 0 0 0 .128 1.272l9.712 7.536 1.568 1.264a.9.9 0 0 0 .568.2.909.909 0 0 0 .656-.28l1.368-1.448 5.928-6.152v-8.856l-7.8 8.1a.878.878 0 0 1-.648.276z" data-name="Pfad 88"/>
    <path d="M43.536 47.776l9.712 7.544 1.568 1.264a.9.9 0 0 0 .568.2.909.909 0 0 0 .656-.28l1.376-1.448 19.376-20.128a.908.908 0 0 0-.024-1.28l-3.12-3a.91.91 0 0 0-.632-.256.922.922 0 0 0-.656.28L55.536 48.144a.909.909 0 0 1-.656.28.9.9 0 0 1-.568-.2l-6.888-5.232a.906.906 0 0 0-1.272.136L43.4 46.512a.9.9 0 0 0 .136 1.264z" data-name="Pfad 89"/>
    <path d="M44.424 41.712a3.131 3.131 0 0 1 2.432-1.16 3.165 3.165 0 0 1 1.944.672l5.944 4.52 8.576-8.92V17.272a4.969 4.969 0 0 0-1.464-3.528L49.584 1.448A5.034 5.034 0 0 0 46.048 0H6.664A6.665 6.665 0 0 0 0 6.664v66.672A6.665 6.665 0 0 0 6.664 80h50.008a6.665 6.665 0 0 0 6.664-6.664V52.112l-4.312 4.48-1.376 1.44a3.131 3.131 0 0 1-4.24.28l-1.552-1.248-9.7-7.528-.016-.016-.016-.016a3.135 3.135 0 0 1-.456-4.416zm1.36-35.824a.489.489 0 0 1 .832-.36c2.384 2.3 9.192 9.384 11.52 11.808a.5.5 0 0 1-.368.832l-9.96.04a2.014 2.014 0 0 1-2.024-2.016V5.888zM13.056 43.04h14.656v3.776H13.056zM34.08 57.256H13.056v-3.672H34.08zM13.056 36.3v-3.772h29.032V36.3z" data-name="Pfad 90"/>
</svg>
