<?xml version="1.0" encoding="utf-8"?>
<!-- Generator: Adobe Illustrator 18.1.1, SVG Export Plug-In . SVG Version: 6.00 Build 0)  -->
<svg version="1.1" id="Ebene_1" xmlns="http://www.w3.org/2000/svg" xmlns:xlink="http://www.w3.org/1999/xlink" x="0px" y="0px"
	 viewBox="209.8 113.8 31.5 43.4" enable-background="new 209.8 113.8 31.5 43.4" xml:space="preserve">
<g>
	<g>
		<path d="M241.3,157.1h-31.5v-43.4h22.3l9.2,9.2V157.1z M212.6,154.4h25.9v-30.2l-7.6-7.6h-18.3V154.4z"/>
	</g>
	<g>
		<polygon points="240.2,124.9 230.4,124.9 230.4,115.2 233.2,115.2 233.2,122.2 240.2,122.2 		"/>
	</g>
	<g>
		<path d="M226.7,137c-0.8,0-1.5,0.2-2,0.7c-0.5,0.5-0.8,1.1-1,2h3.9v1.8h-4.1v0.4v0.5v0.3h3.5v1.8h-3.4c0.4,1.6,1.4,2.4,3.1,2.4
			c0.9,0,1.8-0.2,2.7-0.6v2.5c-0.8,0.4-1.7,0.6-2.9,0.6c-1.6,0-2.9-0.4-3.9-1.3c-1.1-0.8-1.7-2-2-3.6h-1.3v-1.8h1.1
			c0-0.1-0.1-0.3-0.1-0.6v-0.5h-1.1v-1.8h1.3c0.2-1.5,0.9-2.8,2-3.7c1.1-0.9,2.4-1.4,3.9-1.4c1.2,0,2.4,0.3,3.4,0.8l-1,2.2
			c-0.4-0.2-0.8-0.4-1.3-0.5C227.6,137.1,227.2,137,226.7,137z"/>
	</g>
	<g>
		<g>
			<rect x="216.1" y="121.1" width="7.7" height="2.1"/>
		</g>
	</g>
	<g>
		<g>
			<rect x="216.1" y="125.2" width="10.5" height="2.1"/>
		</g>
	</g>
</g>
</svg>
