<?xml version="1.0" encoding="utf-8"?>
<!-- Generator: Adobe Illustrator 19.2.1, SVG Export Plug-In . SVG Version: 6.00 Build 0)  -->
<svg version="1.1" baseProfile="tiny" id="Ebene_1" xmlns="http://www.w3.org/2000/svg" xmlns:xlink="http://www.w3.org/1999/xlink"
	 x="0px" y="0px" viewBox="0 0 1000 1000" xml:space="preserve">
<path fill="#010202" d="M993.7,204.3l-198-198c-1-1-2.1-1.9-3.3-2.7c-0.5-0.3-1-0.6-1.5-0.8c-0.7-0.4-1.4-0.8-2.1-1.1
	c-0.7-0.3-1.4-0.5-2.1-0.7c-0.6-0.2-1.2-0.4-1.9-0.6c-2.8-0.6-5.6-0.6-8.4,0c-0.6,0.1-1.2,0.4-1.9,0.6c-0.7,0.2-1.4,0.4-2.1,0.7
	c-0.7,0.3-1.4,0.7-2.1,1.1c-0.5,0.3-1.1,0.5-1.6,0.8c-1.2,0.8-2.3,1.7-3.3,2.7l-198,198c-8.4,8.4-8.4,21.9,0,30.3
	c4.2,4.2,9.7,6.3,15.1,6.3s11-2.1,15.1-6.3L759.1,73.1v884.1H42.8V516.5c0-11.8-9.6-21.4-21.4-21.4S0,504.7,0,516.5v462.1
	c0,11.8,9.6,21.4,21.4,21.4h759.1c11.8,0,21.4-9.6,21.4-21.4V73.1l161.5,161.5c8.4,8.4,21.9,8.4,30.3,0
	C1002.1,226.2,1002.1,212.7,993.7,204.3z"/>
<g>
</g>
<g>
</g>
<g>
</g>
<g>
</g>
<g>
</g>
<g>
</g>
</svg>
