<svg width="190" height="189" viewBox="0 0 190 189" fill="none" xmlns="http://www.w3.org/2000/svg">
<path d="M100.326 3.47168L171.807 4.56048C180.142 5.06611 186.654 11.9648 186.686 20.3301L186.728 31.7043V31.7202L186 84.4159V84.4308V84.4456L186.012 90.2658C186.022 94.9544 184.068 99.4323 180.624 102.61L181.898 103.995L180.576 102.656L104.714 177.78C93.6346 188.751 75.7735 188.655 64.8195 177.566L11.3895 123.473C0.365336 112.312 0.548739 94.2895 11.798 83.3491L90.0383 7.25953C92.5072 5.00872 95.6825 3.69085 99.0172 3.53339L100.326 3.47168Z" fill="#C4C4C4" stroke="#C4C4C4" stroke-width="5"/>
<path d="M156.627 41.4732C160.908 41.5312 164.426 38.1042 164.485 33.8175C164.544 29.532 161.122 26.0105 156.842 25.9524C152.561 25.8943 149.043 29.3214 148.984 33.608C148.925 37.8935 152.347 41.4162 156.627 41.4732Z" fill="white"/>
<path d="M155.865 45.0936C162.143 45.5729 167.621 40.8661 168.101 34.5802C168.581 28.2942 163.882 22.8104 157.604 22.3314C151.326 21.8524 145.848 26.5602 145.368 32.845C144.888 39.131 149.588 44.6154 155.865 45.0936Z" stroke="white" stroke-width="3"/>
</svg>
