<svg width="24" height="24" viewBox="0 0 24 24" fill="none" xmlns="http://www.w3.org/2000/svg">
<path d="M11.8634 2.66L11.87 2.66709L11.8768 2.67393L21.3518 12.1289C21.4431 12.2264 21.4957 12.3538 21.5 12.4873C21.4998 12.5516 21.4872 12.6153 21.4629 12.6748C21.4381 12.7354 21.4017 12.7906 21.3557 12.8371C21.3555 12.8374 21.3552 12.8376 21.355 12.8379L12.8479 21.345C12.8476 21.3453 12.8474 21.3455 12.8471 21.3458C12.8006 21.3917 12.7454 21.4281 12.6848 21.4529C12.6245 21.4775 12.56 21.4901 12.4949 21.49C12.3587 21.4876 12.2282 21.4347 12.1288 21.3417L2.64849 11.8514C2.55552 11.7522 2.5026 11.622 2.49999 11.486V5.49H2.49999L2.49998 5.48711C2.4996 5.42131 2.51221 5.35608 2.53709 5.29516C2.56181 5.23463 2.59817 5.17954 2.64409 5.13301L5.1421 2.64499C5.14221 2.64488 5.14232 2.64477 5.14243 2.64466C5.18908 2.59848 5.24437 2.56193 5.30514 2.53711C5.36606 2.51223 5.43129 2.49961 5.4971 2.49999V2.5H5.49999H11.499C11.5674 2.50031 11.6349 2.51463 11.6975 2.54206C11.7603 2.56959 11.8168 2.60973 11.8634 2.66ZM12.1362 19.9433L12.49 20.2976L12.8438 19.9433L19.9338 12.8433L20.2871 12.4895L19.9333 12.1362L11.4333 3.64624L11.2869 3.5H11.08H5.89999H5.69288L5.54643 3.64645L3.64643 5.54645L3.49999 5.69289V5.9V11.09V11.2969L3.64622 11.4433L12.1362 19.9433ZM6.7222 6.58427C6.80443 6.52933 6.9011 6.5 6.99999 6.5C7.13259 6.5 7.25977 6.55268 7.35354 6.64645C7.44731 6.74022 7.49999 6.86739 7.49999 7C7.49999 7.09889 7.47066 7.19556 7.41572 7.27779C7.36078 7.36001 7.28269 7.4241 7.19133 7.46194C7.09996 7.49978 6.99943 7.50969 6.90244 7.49039C6.80545 7.4711 6.71636 7.42348 6.64643 7.35355C6.57651 7.28363 6.52889 7.19454 6.50959 7.09755C6.4903 7.00056 6.5002 6.90002 6.53805 6.80866C6.57589 6.7173 6.63998 6.63921 6.7222 6.58427Z" stroke="#272D30"/>
</svg>
