<svg viewBox="0 0 24 24" fill="none" xmlns="http://www.w3.org/2000/svg">
<path d="M11.8634 2.65998L11.87 2.66708L11.8768 2.67391L21.3518 12.1289C21.4431 12.2264 21.4958 12.3538 21.5 12.4873C21.4998 12.5516 21.4872 12.6153 21.4629 12.6748C21.4382 12.7354 21.4018 12.7906 21.3558 12.8371C21.3555 12.8374 21.3553 12.8376 21.355 12.8379L12.8479 21.345C12.8477 21.3452 12.8474 21.3455 12.8472 21.3457C12.8006 21.3917 12.7455 21.4281 12.6849 21.4529C12.6246 21.4775 12.56 21.4901 12.4949 21.49C12.3587 21.4876 12.2282 21.4347 12.1288 21.3416L2.64852 11.8514C2.55555 11.7521 2.50263 11.622 2.50002 11.486V5.48999H2.50003L2.50001 5.4871C2.49963 5.42129 2.51224 5.35606 2.53712 5.29514C2.56185 5.23461 2.5982 5.17953 2.64412 5.13299L5.14213 2.64498C5.14224 2.64487 5.14235 2.64475 5.14246 2.64464C5.18911 2.59846 5.2444 2.56191 5.30517 2.53709C5.36609 2.51221 5.43132 2.4996 5.49713 2.49998V2.49999H5.50002H11.4991C11.5674 2.5003 11.6349 2.51461 11.6975 2.54205C11.7603 2.56957 11.8168 2.60972 11.8634 2.65998ZM12.1363 19.9433L12.4901 20.2976L12.8438 19.9433L19.9338 12.8433L20.2871 12.4895L19.9334 12.1362L11.4334 3.64622L11.287 3.49999H11.08H5.90002H5.69291L5.54646 3.64643L3.64646 5.54643L3.50002 5.69288V5.89999V11.09V11.2969L3.64626 11.4433L12.1363 19.9433ZM6.72223 6.58425C6.80446 6.52931 6.90113 6.49999 7.00002 6.49999C7.13262 6.49999 7.2598 6.55266 7.35357 6.64643C7.44734 6.7402 7.50002 6.86738 7.50002 6.99999C7.50002 7.09888 7.47069 7.19555 7.41575 7.27777C7.36081 7.36 7.28272 7.42408 7.19136 7.46193C7.1 7.49977 6.99946 7.50967 6.90247 7.49038C6.80548 7.47109 6.71639 7.42347 6.64646 7.35354C6.57654 7.28361 6.52892 7.19452 6.50962 7.09753C6.49033 7.00054 6.50023 6.90001 6.53808 6.80864C6.57592 6.71728 6.64001 6.63919 6.72223 6.58425Z" stroke="black"/>
</svg>
