<?xml version="1.0" encoding="utf-8"?>
<!-- Generator: Adobe Illustrator 22.0.0, SVG Export Plug-In . SVG Version: 6.00 Build 0)  -->
<svg version="1.1" id="Ebene_1" xmlns="http://www.w3.org/2000/svg" xmlns:xlink="http://www.w3.org/1999/xlink" x="0px" y="0px"
	 viewBox="0 0 1000 1000" style="enable-background:new 0 0 1000 1000;" xml:space="preserve">
<g>
	<path d="M29.4,552.2C29.4,219.8,270.8,1.5,555.8,1.5c253.5,0,414.8,171,414.8,417.2c0,217.1-140.7,327.5-259.6,327.5
		c-69.1,0-122.5-31.5-133.4-92.2h-2.4c-36.4,48.5-94.6,82.5-146.8,82.5c-88.5,0-152.8-66.7-152.8-177.1
		c0-138.3,98.2-289.9,238.9-289.9c41.2,0,72.8,18.2,94.6,59.4h2.4l15.8-49.7h88.5l-52.2,255.9c-20.6,82.5,1.2,122.5,60.6,122.5
		c75.2,0,154-89.8,154-234.1c0-184.4-104.3-334.8-333.5-334.8c-212.3,0-418.4,180.7-418.4,458.5c0,238.9,160.1,362.7,357.8,362.7
		c67.9,0,137.1-20.6,190.4-49.7l32.8,77.6c-72.8,41.2-149.2,60.6-234.1,60.6C233.2,998.5,29.4,848.1,29.4,552.2z M553.4,582.5
		l31.5-178.3c-18.2-29.1-38.8-42.5-66.7-42.5c-83.7,0-134.6,107.9-134.6,189.2c0,65.5,29.1,94.6,74,94.6
		C486.7,645.5,517,627.4,553.4,582.5z"/>
</g>
</svg>
