<?xml version="1.0" encoding="utf-8"?>
<!-- Generator: Adobe Illustrator 20.1.0, SVG Export Plug-In . SVG Version: 6.00 Build 0)  -->
<svg version="1.1" id="Ebene_1" xmlns="http://www.w3.org/2000/svg" xmlns:xlink="http://www.w3.org/1999/xlink" x="0px" y="0px"
	 viewBox="0 0 1000 1000" style="enable-background:new 0 0 1000 1000;" xml:space="preserve">
<style type="text/css">
	.st0{fill:#020203;}
</style>
<g id="Ebene_2">
	<g id="Ebene_1-2">
		<path class="st0" d="M607.8,854.8l309.2-309c112.8-113.3,112.5-296.5-0.8-409.4c-3.2-3.2-6.5-6.4-9.9-9.4
			C789,23.6,611.1,30.7,502.3,143.1L64.8,580.4c-78.8,77.5-86.7,201.9-18.1,288.7c37.8,46.2,93.5,74.1,153.1,76.8
			c59.4,3.1,117.3-18.8,159.7-60.4l444.8-445.6c49.5-47.8,55.9-124.8,15.1-180.1c-45.4-58.9-129.9-69.8-188.7-24.4
			c-4.5,3.4-8.7,7.2-12.7,11.1l-423,425.2l50.6,50.6l422-423c21.2-21.9,54.9-25.8,80.6-9.5c29,19.3,36.9,58.4,17.6,87.4
			c-2.3,3.5-5,6.7-7.9,9.7L309.5,833.6c-41.9,43.5-107.1,54.7-161.2,27.8c-70-34.2-99-118.6-64.9-188.6
			c6.8-13.9,15.7-26.5,26.6-37.4l443.2-443.2c81-83.8,213-90.6,302.2-15.5c45.6,39.6,72.5,96.4,74.3,156.7
			c2,60.2-21,118.5-63.5,161.2L557.5,804.4L607.8,854.8z"/>
	</g>
</g>
</svg>
