<?xml version="1.0" encoding="utf-8"?>
<!-- Generator: Adobe Illustrator 19.0.1, SVG Export Plug-In . SVG Version: 6.00 Build 0)  -->
<svg version="1.1" id="Ebene_1" xmlns="http://www.w3.org/2000/svg" xmlns:xlink="http://www.w3.org/1999/xlink" x="0px" y="0px"
	 viewBox="0 0 1000 1000" style="enable-background:new 0 0 1000 1000;" xml:space="preserve">
<path d="M916.1,400.3c16.9,0,30.6-13.7,30.6-30.6v-82.4c0-10.2-5-19.6-13.4-25.3L573.9,18.5C556.8,6.6,533.1,0,507.2,0
	c-25.5,0-49,6.4-68.1,18.4L76.8,260.5c-9.9,6.6-15.9,17.8-15.9,29.7v72.3c0,21,17,38,38,38l61.7,0v456.3L91.1,857
	c-20.9,0.1-37.8,17.1-37.8,38v65.5c0,21,17,38,38,38H901c21,0,38-17,38-38v-65.5c0-20.9-16.9-37.9-37.8-38l-62.7-0.3V400.3
	L916.1,400.3z M889.7,906.5v42.7H110c-4.1,0-7.3-3.3-7.3-7.3v-28c0-4.1,3.3-7.3,7.3-7.3H889.7z M209.9,856.7V400.3h58v456.4H209.9z
	 M317.3,856.7V400.3h104v456.4H317.3z M470.7,856.7V400.3h58v456.4H470.7z M577.9,856.7V400.3h104v456.4H577.9z M731.3,856.7V400.3
	h58v456.4H731.3z M117.6,346.6c-4.1,0-7.3-3.3-7.3-7.3V300c0-2.5,1.2-4.7,3.3-6.1L465.9,58.9c12.4-6,27.8-9.5,41.3-9.5
	c16.9,0,31.2,3.3,39.3,9.2L897.4,296v50.6H117.6z"/>
</svg>
