<?xml version="1.0" encoding="utf-8"?>
<!-- Generator: Adobe Illustrator 22.0.0, SVG Export Plug-In . SVG Version: 6.00 Build 0)  -->
<svg version="1.1" id="Ebene_1" xmlns="http://www.w3.org/2000/svg" xmlns:xlink="http://www.w3.org/1999/xlink" x="0px" y="0px"
	 viewBox="0 0 1000 1000" style="enable-background:new 0 0 1000 1000;" xml:space="preserve">
<style type="text/css">
	.st0{fill:none;stroke:#000000;stroke-width:0.1953;stroke-miterlimit:10;}
</style>
<path d="M484.6,846.8H75c-18.6,0-28.7-22.1-16.2-35.8c44.5-48.9,109.9-152.1,108-334.3C164,201.6,236.7,119.6,399.6,54.6
	C424,44.9,443,37.5,457.6,32c-0.4-1.8-0.5-3.5-0.5-5.4c0-14.6,11.9-26.5,26.5-26.5c14.7,0,26.6,11.9,26.6,26.5c0,1.6-0.1,3-0.4,4.5
	c16,5.6,37.1,13.2,64.8,23.5c174.7,65,252.9,147,249.8,422.1c-2,181.5,67.8,284.6,115.5,333.7c13.2,13.6,3.2,36.3-15.7,36.3H484.6z"
	/>
<path class="st0" d="M484.6,846.8H75c-18.6,0-28.7-22.1-16.2-35.8c44.5-48.9,109.9-152.1,108-334.3
	C164,201.6,236.7,119.6,399.6,54.6C424,44.9,443,37.5,457.6,32c-0.4-1.8-0.5-3.5-0.5-5.4c0-14.6,11.9-26.5,26.5-26.5
	c14.7,0,26.6,11.9,26.6,26.5c0,1.6-0.1,3-0.4,4.5c16,5.6,37.1,13.2,64.8,23.5c174.7,65,252.9,147,249.8,422.1
	c-2,181.5,67.8,284.6,115.5,333.7c13.2,13.6,3.2,36.3-15.7,36.3H484.6z"/>
<path d="M575,909.4c0,49.7-40.3,90-90,90s-90-40.3-90-90"/>
<path class="st0" d="M575,909.4c0,49.7-40.3,90-90,90c-49.7,0-90-40.3-90-90"/>
</svg>
