<?xml version="1.0" encoding="utf-8"?>
<!-- Generator: Adobe Illustrator 22.1.0, SVG Export Plug-In . SVG Version: 6.00 Build 0)  -->
<svg version="1.1" id="Ebene_1" xmlns="http://www.w3.org/2000/svg" xmlns:xlink="http://www.w3.org/1999/xlink" x="0px" y="0px"
	 viewBox="0 0 1000 1000" style="enable-background:new 0 0 1000 1000;" xml:space="preserve">
<g>
	<g>
		<g>
			<path d="M498.6,990.3C227.5,990.3,6.9,769.7,6.9,498.6S227.5,6.9,498.6,6.9s491.7,220.6,491.7,491.7S769.7,990.3,498.6,990.3z
				 M498.6,78.8c-231.4,0-419.7,188.3-419.7,419.7s188.3,419.7,419.7,419.7S918.3,730,918.3,498.6S730,78.8,498.6,78.8z"/>
			<path d="M498.6,998.6c-275.7,0-500-224.3-500-500s224.3-500,500-500s500,224.3,500,500S774.3,998.6,498.6,998.6z M498.6,15.2
				C232,15.2,15.2,232,15.2,498.6C15.2,765.2,232,982,498.6,982C765.2,982,982,765.2,982,498.6C982,232,765.2,15.2,498.6,15.2z
				 M498.6,926.7c-236,0-428-192-428-428.1c0-236,192-428,428-428c236.1,0,428.1,192,428.1,428C926.6,734.6,734.6,926.7,498.6,926.7
				z M498.6,87.1c-226.9,0-411.4,184.6-411.4,411.4c0,226.9,184.6,411.5,411.4,411.5c226.9,0,411.5-184.6,411.5-411.5
				C910.1,271.7,725.5,87.1,498.6,87.1z"/>
		</g>
	</g>
	<g>
		<g>
			<path d="M426.4,704.6L262.1,561.7c-15-13-16.6-35.8-3.5-50.8c13-15,35.8-16.6,50.8-3.5l111.6,97L685,318.3
				c13.5-14.6,36.2-15.5,50.8-2c14.6,13.5,15.5,36.2,2,50.8L426.4,704.6z"/>
			<path d="M427,716.1L256.7,568c-8.9-7.7-14.3-18.5-15.1-30.3c-0.8-11.8,3-23.2,10.8-32.1c7.7-8.9,18.5-14.3,30.3-15.1
				c12.2-0.6,23.2,3,32.1,10.8l105.5,91.7L679,312.6c8-8.7,18.9-13.7,30.8-14.2c12.4,0.4,23.1,3.7,31.8,11.7
				c8.7,8,13.7,18.9,14.2,30.7S752,364,744,372.7L427,716.1z M285.7,506.9c-0.6,0-1.3,0-1.9,0.1c-7.4,0.5-14.1,3.9-19,9.5
				c-10,11.5-8.8,29,2.7,39L425.7,693l306-331.6c5-5.4,7.6-12.5,7.3-19.9s-3.4-14.2-8.9-19.2c-5.4-5-12.6-7.3-19.8-7.3
				c-7.4,0.3-14.3,3.4-19.2,8.9L421.5,616L303.9,513.7C298.8,509.3,292.4,506.9,285.7,506.9z"/>
		</g>
	</g>
</g>
</svg>
