<?xml version="1.0" encoding="utf-8"?>
<!-- Generator: Adobe Illustrator 19.1.0, SVG Export Plug-In . SVG Version: 6.00 Build 0)  -->
<svg version="1.1" id="Ebene_1" xmlns="http://www.w3.org/2000/svg" xmlns:xlink="http://www.w3.org/1999/xlink" x="0px" y="0px"
	 viewBox="0 0 1000 1000" style="enable-background:new 0 0 1000 1000;" xml:space="preserve">
<style type="text/css">
	.st0{fill:#050505;}
</style>
<path class="st0" d="M135.7,0.5H455c204.7,0,355.8,62.6,355.8,245.9c0,94.7-53.4,186.3-171.1,216.9v6.1
	c143.6,24.4,224.6,102.3,224.6,236.7c0,200.1-163.5,293.3-383.4,293.3H135.7V0.5z M438.2,414.5c140.5,0,198.5-53.5,198.5-146.6
	c0-91.6-64.1-129.8-193.9-129.8H312.9v276.5H438.2z M462.6,862.1c146.7,0,227.6-55.1,227.6-168.1c0-103.9-79.5-152.8-227.6-152.8
	H312.9v320.8H462.6z"/>
</svg>
