<svg width="573" height="724" viewBox="0 0 573 724" fill="none" xmlns="http://www.w3.org/2000/svg">
<path fill-rule="evenodd" clip-rule="evenodd" d="M0 79.9999C0 35.8171 35.8172 0 80 0H492.463C536.646 0 572.463 35.8172 572.463 80V643.962C572.463 688.145 536.646 723.962 492.463 723.962H80C35.8172 723.962 0 688.145 0 643.962V79.9999ZM354.061 368.647C353.163 367.748 352.014 367.299 350.616 367.299H324.991C323.291 359.01 320.094 351.814 315.399 345.72H350.315C351.716 345.72 352.862 345.27 353.764 344.373C354.658 343.475 355.107 342.325 355.107 340.926V325.637C355.107 324.238 354.659 323.09 353.764 322.19C352.861 321.292 351.715 320.841 350.314 320.841H225.629C224.23 320.841 223.082 321.292 222.182 322.189C221.285 323.089 220.834 324.237 220.834 325.636V345.568C220.834 346.867 221.309 347.99 222.258 348.939C223.207 349.888 224.331 350.363 225.629 350.363H247.36C268.439 350.363 281.827 356.006 287.521 367.297H225.629C224.23 367.297 223.08 367.745 222.182 368.645C221.285 369.545 220.834 370.692 220.834 372.092V387.379C220.834 388.777 221.283 389.927 222.182 390.824C223.082 391.724 224.232 392.172 225.629 392.172H289.622C287.424 400.366 282.303 406.61 274.26 410.906C266.216 415.203 255.603 417.351 242.414 417.351H225.629C224.331 417.351 223.207 417.826 222.258 418.775C221.308 419.724 220.834 420.849 220.834 422.146V441.181C220.834 442.481 221.283 443.58 222.182 444.478C241.364 464.859 266.242 493.38 296.814 530.05C297.714 531.25 298.962 531.848 300.561 531.848H329.783C331.883 531.848 333.333 530.952 334.13 529.15C335.129 527.351 334.933 525.653 333.53 524.054C304.36 488.286 281.429 461.51 264.744 443.727C281.729 441.73 295.517 436.233 306.107 427.243C316.697 418.252 323.14 406.561 325.44 392.174H350.616C352.014 392.174 353.164 391.726 354.061 390.826C354.961 389.929 355.412 388.78 355.412 387.381V372.096C355.412 370.695 354.961 369.547 354.061 368.647ZM358.357 236.139C364.41 226.052 371.471 215.46 378.532 205.877C394.672 183.18 403.247 169.562 403.247 157.456C403.247 143.334 392.655 131.733 376.01 126.185C358.862 120.637 334.147 122.655 321.538 140.308L321.033 140.812L318.511 138.29L318.118 137.927C311.554 131.862 301.588 122.655 287.745 122.655C274.126 122.655 264.039 130.725 256.978 136.777C255.969 137.786 254.456 138.795 252.943 139.803L252.943 139.803C239.829 122.15 215.114 120.133 196.452 126.185C178.799 131.733 167.703 143.838 167.703 156.952C167.703 173.464 180.609 191.961 195.587 213.429L195.948 213.947C201.496 221.512 207.044 229.582 211.584 237.148C158.624 284.055 104.152 377.869 104.152 443.438C104.152 539.269 175.773 601.308 286.231 601.308C396.69 601.308 468.311 539.269 468.311 443.438C467.807 376.86 411.821 283.046 358.357 236.139ZM285.727 556.869C190.904 556.869 154.37 523.129 154.37 443.438C154.37 385.939 194.737 309.877 241.139 269.527C251.581 270.506 259.785 270.218 269.056 269.893L269.058 269.893C274.117 269.716 279.495 269.527 285.727 269.527C292.35 269.527 297.664 269.796 302.476 270.039H302.477C310.857 270.462 317.717 270.809 327.329 269.527C374.236 309.877 416.756 392.627 416.756 450.631C416.252 530.322 380.55 556.869 285.727 556.869ZM323.777 231.244H251.097L230.131 174.638H344.044L323.777 231.244Z" fill="black"/>
</svg>
