<svg width="606" height="766" viewBox="0 0 606 766" fill="none" xmlns="http://www.w3.org/2000/svg">
<path fill-rule="evenodd" clip-rule="evenodd" d="M0 62.0215C0 28.1774 27.475 0.741394 61.3671 0.741394H544.104C577.996 0.741394 605.471 28.1774 605.471 62.0214V704.083C605.471 737.926 577.996 765.363 544.104 765.363H61.3671C27.475 765.363 0 737.927 0 704.083V62.0215ZM351.488 411.379C350.825 410.715 349.974 410.384 348.942 410.384H329.995C328.737 404.263 326.374 398.95 322.902 394.45H348.718C349.755 394.45 350.602 394.119 351.268 393.457C351.929 392.793 352.262 391.944 352.262 390.911V379.623C352.262 378.59 351.93 377.742 351.268 377.078C350.602 376.415 349.754 376.082 348.718 376.082H256.528C255.493 376.082 254.644 376.415 253.979 377.077C253.316 377.742 252.983 378.59 252.983 379.623V394.338C252.983 395.298 253.333 396.127 254.035 396.828C254.737 397.529 255.568 397.879 256.528 397.879H272.595C288.181 397.879 298.08 402.045 302.29 410.382H256.528C255.493 410.382 254.643 410.713 253.979 411.377C253.316 412.041 252.983 412.889 252.983 413.922V425.209C252.983 426.242 253.315 427.09 253.979 427.753C254.644 428.417 255.495 428.748 256.528 428.748H303.844C302.218 434.799 298.432 439.408 292.485 442.58C286.537 445.752 278.69 447.339 268.938 447.339H256.528C255.568 447.339 254.737 447.69 254.035 448.39C253.333 449.091 252.983 449.921 252.983 450.879V464.933C252.983 465.893 253.315 466.704 253.979 467.367C268.162 482.415 286.556 503.474 309.16 530.548C309.826 531.434 310.749 531.876 311.931 531.876H333.538C335.09 531.876 336.163 531.214 336.752 529.884C337.49 528.555 337.346 527.302 336.308 526.121C314.74 499.712 297.785 479.943 285.449 466.814C298.007 465.338 308.202 461.28 316.032 454.643C323.862 448.004 328.626 439.372 330.326 428.749H348.942C349.974 428.749 350.825 428.419 351.488 427.754C352.154 427.092 352.487 426.243 352.487 425.211V413.925C352.487 412.891 352.154 412.043 351.488 411.379ZM191.889 139.63C188.582 141.679 181.324 147.624 178.755 155.002C175.544 164.223 175.946 173.645 181.867 185.573C186.605 195.116 211.558 232.825 223.443 250.487C208.618 262.204 171.044 301.213 139.343 363.513C102.57 435.783 107.91 475.245 109.88 489.804L109.881 489.805C110.033 490.934 110.166 491.913 110.257 492.746C111.522 504.322 118.688 549.364 148.196 579.252C177.704 609.139 213.958 635.659 299.744 637.975C385.529 640.29 424.523 609.771 449.394 587.671C474.266 565.571 492.182 527.895 495.344 498.429C498.013 483.765 499.517 444.673 484.172 405.609C465.028 356.873 441.896 315.894 418.755 290.415L418.621 290.267C411.173 281.006 393.118 259.791 380.471 249.014L423.258 184.398C429.792 172.471 434.64 145.544 401.759 133.253C368.878 120.961 347.309 137.673 340.634 147.565C333.397 140.269 315.678 126.181 302.695 128.202C288.608 130.394 281.508 135.863 272.298 142.958H272.297C270.897 144.037 269.447 145.153 267.916 146.302C261.103 138.143 240.603 123.605 213.115 130.727C208.509 131.597 197.817 134.596 191.889 139.63ZM356.775 271.994C324.54 277.297 271.043 274.203 248.324 271.994L222.13 297.839L202.491 322.972L184.759 349.627L171.221 373.427L157.874 402.178C152.84 409.337 145.481 439.686 142.43 453.966C140.396 466.892 138.998 498.584 149.675 521.939C163.022 551.131 174.653 568.015 211.643 588.007C248.633 607.999 296.3 606.856 306.406 606.475C306.744 606.463 307.154 606.449 307.632 606.434C321.427 605.984 391.844 603.683 430.913 561.542C468.878 520.59 464.794 471.24 463.684 457.821C463.611 456.953 463.552 456.235 463.517 455.68C462.946 446.541 456.081 412.459 431.675 368.096C413.847 335.69 403.65 323.4 396.104 314.305C393.32 310.949 390.897 308.029 388.584 304.693C381.72 294.792 364.518 278.768 356.775 271.994ZM254.151 240.489C247.601 229.352 232.843 205.198 226.216 197.673C219.59 190.147 211.87 173.886 208.838 166.696C214.414 163.019 228.425 157.484 239.859 164.749C243.107 169.399 251.683 179.086 259.998 180.644C270.393 182.589 278.676 179.995 287.608 172.372C294.755 166.274 299.681 162.911 301.251 161.992C302.117 161.019 305.019 159.949 309.696 163.452C311.465 164.777 313.554 166.784 315.824 168.967L315.825 168.967C321.061 174 327.266 179.965 332.759 180.644C334.762 181.616 340.165 183.271 345.752 182.103C352.736 180.644 361.668 175.129 362.643 172.372C363.943 170.954 366.9 167.547 368.323 165.261C370.102 162.403 377.836 158.773 396.245 164.797C394.036 169.876 386.786 183.561 375.458 197.673C367.323 209.103 350.523 233.668 348.402 240.489C334.181 241.258 303.825 242.69 296.171 242.264C288.515 241.84 264.968 240.903 254.151 240.489Z" fill="white"/>
</svg>
