<?xml version="1.0" encoding="utf-8"?>
<!-- Generator: Adobe Illustrator 19.1.0, SVG Export Plug-In . SVG Version: 6.00 Build 0)  -->
<svg version="1.1" id="Ebene_1" xmlns="http://www.w3.org/2000/svg" xmlns:xlink="http://www.w3.org/1999/xlink" x="0px" y="0px"
	 viewBox="0 0 1000 1000" style="enable-background:new 0 0 1000 1000;" xml:space="preserve">
<g>
	<path d="M23.4,198.4l214.6,801l738.6-197.9L762,0.5L23.4,198.4z M261,959.7L63.1,221.4L739,40.3l197.8,738.3L261,959.7z"/>
	<path d="M450.9,867.1l119.7-32.1l-32.1-119.7l-119.7,32.1L450.9,867.1z M515.5,755.3l15.2,56.6L474,827.1l-15.2-56.6L515.5,755.3z"
		/>
	<path d="M408.3,707.9L528,675.8l-32.1-119.7l-119.7,32.1L408.3,707.9z M472.8,596.1l15.2,56.6l-56.6,15.2l-15.2-56.6L472.8,596.1z"
		/>
	<path d="M295.6,908.7l119.7-32.1L383.2,757l-119.7,32.1L295.6,908.7z M360.1,797l15.2,56.6l-56.6,15.2l-15.2-56.6L360.1,797z"/>
	<path d="M210.2,590.2l119.7-32.1l-32.1-119.7l-119.7,32.1L210.2,590.2z M274.8,478.4l15.2,56.7l-56.6,15.2l-15.2-56.7L274.8,478.4z
		"/>
	<path d="M252.9,749.5l119.7-32.1l-32.1-119.7l-119.7,32.1L252.9,749.5z M317.4,637.7l15.2,56.6L276,709.5l-15.2-56.6L317.4,637.7z"
		/>
	<path d="M563.7,666.2l119.7-32.1l-32.1-119.7l-119.7,32.1L563.7,666.2z M628.2,554.4l15.2,56.6l-56.6,15.2l-15.2-56.6L628.2,554.4z
		"/>
	<path d="M365.6,548.6l119.7-32.1l-32.1-119.7l-119.7,32.1L365.6,548.6z M430.1,436.8l15.2,56.7l-56.6,15.2L373.5,452L430.1,436.8z"
		/>
	<path d="M676.3,465.3L796,433.2L764,313.6l-119.7,32.1L676.3,465.3z M740.9,353.5l15.2,56.7l-56.6,15.2l-15.2-56.7L740.9,353.5z"/>
	<path d="M606.4,825.5l119.7-32.1L694,673.7l-119.7,32.1L606.4,825.5z M670.9,713.7l15.2,56.6l-56.6,15.2l-15.2-56.6L670.9,713.7z"
		/>
	<path d="M761.7,783.9l119.7-32.1l-74.7-278.9l-119.7,32.1L761.7,783.9z M783.6,512.8l57.9,215.9l-56.6,15.2L726.9,528L783.6,512.8z
		"/>
	<path d="M521,506.9l119.7-32.1l-32.1-119.7l-119.7,32.1L521,506.9z M585.5,395.1l15.2,56.7L544,467l-15.2-56.7L585.5,395.1z"/>
	<path d="M704.3,91.3l-585.8,157l49,182.7l585.8-157L704.3,91.3z M190.6,390.9l-32.1-119.6l522.7-140.1l32.1,119.6L190.6,390.9z"/>
	<rect x="602.6" y="179.2" transform="matrix(-0.9659 0.2588 -0.2588 -0.9659 1296.5187 246.5103)" width="58.9" height="58.9"/>
</g>
</svg>
