<?xml version="1.0" encoding="utf-8"?>
<!-- Generator: Adobe Illustrator 19.2.1, SVG Export Plug-In . SVG Version: 6.00 Build 0)  -->
<svg version="1.1" id="Ebene_1" xmlns="http://www.w3.org/2000/svg" xmlns:xlink="http://www.w3.org/1999/xlink" x="0px" y="0px"
	 viewBox="0 0 1000 1000" style="enable-background:new 0 0 1000 1000;" xml:space="preserve">
<style type="text/css">
	.st0{fill:#231F20;}
</style>
<path class="st0" d="M540.1,500L991.7,48.4c11.1-11.1,11.1-29,0-40.1c-11.1-11.1-29-11.1-40.1,0L500,459.9L48.4,8.3
	c-11.1-11.1-29-11.1-40.1,0c-11.1,11.1-11.1,29,0,40.1L459.9,500L8.3,951.6c-11.1,11.1-11.1,29,0,40.1c5.5,5.5,12.8,8.3,20.1,8.3
	s14.5-2.8,20.1-8.3L500,540.1l451.6,451.6c5.5,5.5,12.8,8.3,20.1,8.3s14.5-2.8,20.1-8.3c11.1-11.1,11.1-29,0-40.1L540.1,500z"/>
</svg>
