<?xml version="1.0" encoding="utf-8"?>
<!-- Generator: Adobe Illustrator 16.0.3, SVG Export Plug-In . SVG Version: 6.00 Build 0)  -->
<!DOCTYPE svg PUBLIC "-//W3C//DTD SVG 1.1//EN" "http://www.w3.org/Graphics/SVG/1.1/DTD/svg11.dtd">
<svg version="1.1" id="Ebene_1" xmlns="http://www.w3.org/2000/svg" xmlns:xlink="http://www.w3.org/1999/xlink" x="0px" y="0px"
	 width="24.494px" height="24.494px" viewBox="0 0 24.494 24.494" enable-background="new 0 0 24.494 24.494" xml:space="preserve">
<path fill="#010202" d="M24.063,21.964l-9.74-9.719l9.719-9.741c0.572-0.574,0.572-1.503-0.002-2.075
	c-0.574-0.573-1.504-0.572-2.076,0.002l-9.719,9.741L2.504,0.453C1.931-0.12,1.001-0.119,0.429,0.455
	C-0.144,1.029-0.143,1.958,0.431,2.53l9.741,9.719L0.453,21.99c-0.573,0.573-0.572,1.503,0.002,2.075
	c0.287,0.286,0.662,0.429,1.037,0.429c0.376,0,0.752-0.144,1.039-0.431l9.719-9.741l9.741,9.72c0.285,0.285,0.66,0.429,1.035,0.429
	c0.377,0,0.754-0.144,1.039-0.432C24.638,23.466,24.638,22.536,24.063,21.964z"/>
</svg>
