<?xml version="1.0" encoding="utf-8"?>
<!-- Generator: Adobe Illustrator 19.2.1, SVG Export Plug-In . SVG Version: 6.00 Build 0)  -->
<svg version="1.1" baseProfile="tiny" id="Ebene_1" xmlns="http://www.w3.org/2000/svg" xmlns:xlink="http://www.w3.org/1999/xlink"
	 x="0px" y="0px" viewBox="0 0 1000 1000" xml:space="preserve">
<g>
	<path fill="#231F20" d="M930.2,303c-41.8-40.3-96.2-62.6-154.1-63.4C722.6,137.3,615.6,71.8,500,71.8
		c-157.7,0-289.6,118.3-308.8,272.8c-45.4-4.1-90.5,9.5-126.3,38.7C23.6,416.7,0,466.4,0,519.5c0,36.2,11.7,155.8,162.8,174
		c0.8,0.1,1.5,0.1,2.3,0.1c9.3,0,17.3-6.9,18.5-16.4c1.2-10.2-6.1-19.5-16.3-20.7c-48.5-5.9-130-31.4-130-137
		c0-41.8,18.6-80.9,51.1-107.3c32.5-26.4,74.7-36.6,115.8-28l21.1,4.4l1.3-21.6c8.5-144.6,128.6-257.9,273.5-257.9
		c105.3,0,202.5,61.7,247.8,157.2l5.3,11.1l12.3-0.5c52.1-2,101.6,16.9,139,52.9c37.7,36.3,58.4,85.1,58.4,137.4
		c0,118.4-85.1,164.6-135.8,181.6c-9.8,3.3-15,13.8-11.7,23.6c3.3,9.8,13.9,15,23.6,11.7C899,663.9,1000,608.9,1000,467.2
		C1000,404.7,975.2,346.4,930.2,303z"/>
	<path fill="#231F20" d="M499.2,438.1c-134.3,0-243.6,109.9-243.6,245s109.3,245,243.6,245c134.3,0,243.6-109.9,243.6-245
		S633.5,438.1,499.2,438.1z M499.2,890.9c-113.8,0-206.4-93.2-206.4-207.8s92.6-207.8,206.4-207.8c113.8,0,206.3,93.2,206.3,207.8
		S613,890.9,499.2,890.9z"/>
	<path fill="#231F20" d="M605.1,578.9c-7.3-7.3-19.1-7.3-26.4,0l-81.2,81.2l-81.2-81.2c-7.3-7.3-19.1-7.3-26.4,0
		c-7.3,7.3-7.3,19.1,0,26.4l81.2,81.2L390,767.6c-7.3,7.3-7.3,19.1,0,26.4c3.6,3.6,8.4,5.5,13.2,5.5c4.8,0,9.5-1.8,13.2-5.5
		l81.2-81.2l81.2,81.2c3.6,3.6,8.4,5.5,13.2,5.5c4.8,0,9.5-1.8,13.2-5.5c7.3-7.3,7.3-19.1,0-26.4l-81.2-81.2l81.2-81.2
		C612.4,598,612.4,586.2,605.1,578.9z"/>
</g>
<g>
</g>
<g>
</g>
<g>
</g>
<g>
</g>
<g>
</g>
<g>
</g>
</svg>
