<?xml version="1.0" encoding="utf-8"?>
<!-- Generator: Adobe Illustrator 19.2.1, SVG Export Plug-In . SVG Version: 6.00 Build 0)  -->
<svg version="1.1" id="Ebene_1" xmlns="http://www.w3.org/2000/svg" xmlns:xlink="http://www.w3.org/1999/xlink" x="0px" y="0px"
	 viewBox="0 0 1000 1000" style="enable-background:new 0 0 1000 1000;" xml:space="preserve">
<style type="text/css">
	.st0{fill:#231F20;}
</style>
<g>
	<path class="st0" d="M930,306.7c-41.8-40.3-96-62.6-153.8-63.7C722.5,141,615.5,75.8,500,75.8c-157.5,0-289.3,117.8-309.2,271.9
		c-45.1-3.7-89.9,10-125.6,39C23.8,420.3,0,470.2,0,523.6c0,144.1,125.2,170.4,163.6,175c0.8,0.1,1.6,0.1,2.4,0.1
		c10,0,18.7-7.5,19.9-17.7c1.3-11-6.5-21-17.5-22.3c-47.9-5.8-128.3-31-128.3-135.2c0-41.3,18.4-79.8,50.4-105.8
		c32.1-26,73.7-36.1,114.2-27.6l22.8,4.8l1.4-23.2c8.5-143.4,127.6-255.8,271.2-255.8c104.4,0,200.8,61.2,245.7,155.9l5.7,11.9
		l13.2-0.5c51.8-1.9,100.5,16.7,137.5,52.3c37.2,35.9,57.8,84.2,57.8,135.9c0,117.1-84.2,162.8-134.4,179.7
		c-10.5,3.5-16.2,14.9-12.6,25.4c3.5,10.5,14.9,16.2,25.4,12.6c60.4-20.3,161.8-75.5,161.8-217.7C1000,408.7,975.1,350.2,930,306.7z
		"/>
	<path class="st0" d="M485.9,612.9v155.4c0,6.3,5.1,11.5,11.5,11.5c6.3,0,11.5-5.1,11.5-11.5V612.9c0-6.3-5.1-11.5-11.5-11.5
		C491.1,601.4,485.9,606.5,485.9,612.9z"/>
	<path class="st0" d="M478,836.2c0,10.7,8.7,19.4,19.4,19.4c10.7,0,19.4-8.7,19.4-19.4c0-10.7-8.7-19.4-19.4-19.4
		C486.7,816.8,478,825.5,478,836.2z"/>
	<path class="st0" d="M515.3,448.5c-3.4-6.8-10.3-11.1-17.9-11.1c-7.6,0-14.5,4.3-17.9,11.1L256.1,895.2c-3.1,6.2-2.8,13.6,0.9,19.5
		s10.1,9.5,17.1,9.5h446.6c7,0,13.4-3.6,17.1-9.5s4-13.3,0.9-19.5L515.3,448.5z M306.5,884.1l190.9-381.7l190.9,381.7H306.5z"/>
</g>
</svg>
