<?xml version="1.0" encoding="utf-8"?>
<!-- Generator: Adobe Illustrator 19.2.1, SVG Export Plug-In . SVG Version: 6.00 Build 0)  -->
<svg version="1.1" baseProfile="tiny" id="Ebene_1" xmlns="http://www.w3.org/2000/svg" xmlns:xlink="http://www.w3.org/1999/xlink"
	 x="0px" y="0px" viewBox="0 0 1000 1000" xml:space="preserve">
<g>
	<path fill="#231F20" d="M930.2,302.9c-41.8-40.3-96.2-62.6-154.1-63.5C722.6,137.2,615.6,71.8,500,71.8
		c-157.7,0-289.6,118.2-308.9,272.7c-45.3-4-90.5,9.6-126.3,38.7C23.6,416.7,0,466.4,0,519.5c0,36.2,11.7,155.9,162.9,174.1
		c0.8,0.1,1.5,0.1,2.3,0.1c9.4,0,17.4-7,18.6-16.5c1.2-10.3-6.1-19.6-16.4-20.8C118.9,650.5,37.5,625,37.5,519.5
		c0-41.8,18.6-80.9,51-107.2c32.5-26.4,74.6-36.6,115.7-28l21.3,4.5l1.3-21.7c8.5-144.5,128.6-257.8,273.3-257.8
		c105.2,0,202.4,61.7,247.6,157.1l5.3,11.2l12.3-0.4c52.2-2.1,101.5,16.8,138.9,52.9c37.6,36.3,58.3,85,58.3,137.2
		c0,118.3-85,164.4-135.7,181.5c-9.8,3.3-15.1,13.9-11.8,23.7s13.9,15.1,23.7,11.8C899,664,1000,608.9,1000,467.2
		C1000,404.7,975.2,346.3,930.2,302.9z"/>
	<path fill="#231F20" d="M499.2,438c-134.4,0-243.7,110-243.7,245.1s109.3,245.1,243.7,245.1c134.3,0,243.7-110,243.7-245.1
		S633.6,438,499.2,438z M499.2,890.7c-113.7,0-206.2-93.1-206.2-207.6s92.5-207.6,206.2-207.6c113.7,0,206.2,93.1,206.2,207.6
		S612.9,890.7,499.2,890.7z"/>
	<path fill="#231F20" d="M589.3,600.7L467.9,731.2l-51.6-52c-7.3-7.4-19.2-7.4-26.5-0.1c-7.3,7.3-7.4,19.2-0.1,26.5l65.4,65.8
		c3.5,3.5,8.3,5.5,13.3,5.5c0.1,0,0.2,0,0.3,0c5.1-0.1,9.9-2.2,13.4-6l134.7-144.8c7.1-7.6,6.6-19.4-1-26.5
		C608.2,592.6,596.3,593.1,589.3,600.7z"/>
</g>
<g>
</g>
<g>
</g>
<g>
</g>
<g>
</g>
<g>
</g>
<g>
</g>
</svg>
