<?xml version="1.0" encoding="utf-8"?>
<!-- Generator: Adobe Illustrator 19.2.1, SVG Export Plug-In . SVG Version: 6.00 Build 0)  -->
<svg version="1.1" baseProfile="tiny" id="Ebene_1" xmlns="http://www.w3.org/2000/svg" xmlns:xlink="http://www.w3.org/1999/xlink"
	 x="0px" y="0px" viewBox="0 0 1000 1000" xml:space="preserve">
<g>
	<path fill="#231F20" d="M930.2,325.2c-41.8-40.3-96.1-62.6-154-63.5C722.6,159.5,615.5,94.1,500,94.1
		c-157.7,0-289.6,118.2-308.9,272.6c-45.3-4.1-90.4,9.6-126.2,38.7C23.7,438.9,0,488.6,0,541.8c0,36.3,11.8,156,163,174.2
		c0.8,0.1,1.5,0.1,2.3,0.1c9.4,0,17.6-7.1,18.8-16.7c1.3-10.4-6.1-19.8-16.5-21c-48.4-5.8-129.7-31.4-129.7-136.6
		c0-41.7,18.6-80.7,50.9-107c32.4-26.3,74.5-36.6,115.5-28l21.5,4.5l1.3-21.9C235.5,245.1,355.4,132,500,132
		c105.1,0,202.2,61.6,247.4,156.9l5.3,11.3l12.5-0.5c52.2-2.1,101.4,16.8,138.7,52.8c37.6,36.2,58.3,84.9,58.3,137.1
		c0,118.1-84.9,164.2-135.5,181.2c-9.9,3.3-15.2,14.1-11.9,24c3.3,9.9,14.1,15.2,24,11.9c60.3-20.2,161.3-75.3,161.3-217.1
		C1000,427,975.2,368.6,930.2,325.2z"/>
	<path fill="#231F20" d="M651.3,801.8c-8.4-6.3-20.2-4.6-26.5,3.8C595.1,845.3,549.5,868,500,868c-85.3,0-154.8-68.9-155.9-154
		l33.2,33.2c3.7,3.7,8.5,5.5,13.4,5.5c4.8,0,9.7-1.8,13.4-5.5c7.4-7.4,7.4-19.4,0-26.8l-65.6-65.6c0,0,0,0,0,0L325,641.5l-13.4,13.4
		c0,0,0,0,0,0l-65.6,65.6c-7.4,7.4-7.4,19.4,0,26.8s19.4,7.4,26.8,0l33.4-33.4c1,106,87.5,192,193.8,192
		c61.6,0,118.1-28.3,155.1-77.6C661.4,820,659.7,808.1,651.3,801.8z"/>
	<path fill="#231F20" d="M727.1,676.8l-33.3,33.3c-1-106-87.5-192-193.8-192c-61.5,0-118,28.3-155.1,77.6
		c-6.3,8.4-4.6,20.2,3.8,26.5c8.3,6.3,20.2,4.6,26.5-3.8C405,578.7,450.5,556,500,556c85.3,0,154.8,68.9,155.9,154l-33.2-33.2
		c-7.4-7.4-19.4-7.4-26.8,0c-7.4,7.4-7.4,19.4,0,26.8l79,78.9l78.9-78.9c7.4-7.4,7.4-19.4,0-26.8S734.5,669.4,727.1,676.8z"/>
</g>
<g>
</g>
<g>
</g>
<g>
</g>
<g>
</g>
<g>
</g>
<g>
</g>
</svg>
