<?xml version="1.0" encoding="utf-8"?>
<!-- Generator: Adobe Illustrator 19.0.1, SVG Export Plug-In . SVG Version: 6.00 Build 0)  -->
<svg version="1.1" id="Ebene_1" xmlns="http://www.w3.org/2000/svg" xmlns:xlink="http://www.w3.org/1999/xlink" x="0px" y="0px"
	 viewBox="0 0 1000 1000" style="enable-background:new 0 0 1000 1000;" xml:space="preserve">
<g>
	<path d="M904.1,585.2c-27.6,0-54.8,22.3-89.6,50.9c-25.8,21.1-57.6,47-82.5,54.3c-2-14.2-7.8-26.8-17.2-37.6
		c-36.2-42-114.4-39.2-166.9-37.4c-9.3,0.4-15.2,0.6-20,0.6c-8.1,0-21.5-8.5-37.2-18.4l-1.5-1c-42-26.9-105.3-67.5-230.6-70.4v-55.9
		c0-14.6-11.9-26.5-26.5-26.5H26.5C11.9,443.9,0,455.8,0,470.5v370.1C0,855.1,11.9,867,26.5,867h205.6c14.6,0,26.5-11.9,26.5-26.5
		v-26.2c21.4,6.2,55.6,22.3,86,36.8c70.6,33.4,158.5,75,230.6,75C686.7,926.1,1000,773,1000,683.7
		C1000,621.1,965.1,585.2,904.1,585.2z M674.8,687.6c0.7,0.8,1.4,1.8,2.2,3.1H417.1c-14.6,0-26.5,11.9-26.5,26.5
		c0,14.6,11.9,26.5,26.5,26.5l285.3-0.1c50.5,11.3,101.3-30.2,146.8-67.2c15.1-12.4,46.6-38.1,55-38.1c30.5,0,42.9,13.2,42.9,45.5
		c0,15-53.7,60.7-140.4,108.3c-92.5,50.8-179,81.1-231.5,81.1c-60.2,0-142.5-38.9-208.6-70.1c-43.2-20.4-80.8-38.1-108.1-42.9V579.3
		c109.9,2.8,163.1,37.1,202.6,62.4c23.9,15.3,42.9,27.3,66.7,27.3c5.1,0,11.4-0.2,18.6-0.5l3.8-0.1
		C584.2,667.2,654.9,664.6,674.8,687.6z M205.6,496.9v317.1H52.9V496.9H205.6z"/>
	<path d="M643.3,209.1h123.4c37.3,0,67.6-30.3,67.6-67.6c0-37.3-30.3-67.6-67.6-67.6H643.3c-37.3,0-67.6,30.3-67.6,67.6
		C575.7,178.7,606,209.1,643.3,209.1z M628.7,141.5c0-7.9,6.7-14.6,14.6-14.6h123.4c7.9,0,14.6,6.7,14.6,14.6
		c0,8.1-6.6,14.6-14.6,14.6H643.3C635.2,156.1,628.7,149.5,628.7,141.5z"/>
	<path d="M437.7,373.6h123.4c37.3,0,67.6-30.3,67.6-67.6s-30.3-67.6-67.6-67.6H437.7c-37.3,0-67.6,30.3-67.6,67.6
		S400.4,373.6,437.7,373.6z M423,306c0-7.9,6.7-14.6,14.7-14.6h123.4c7.9,0,14.6,6.7,14.6,14.6c0,8.1-6.6,14.6-14.6,14.6H437.7
		C429.6,320.6,423,314,423,306z"/>
	<path d="M766.7,402.8H643.3c-37.3,0-67.6,30.3-67.6,67.6c0,37.3,30.3,67.6,67.6,67.6h123.4c37.3,0,67.6-30.3,67.6-67.6
		C834.3,433.2,803.9,402.8,766.7,402.8z M781.3,470.5c0,8.1-6.6,14.6-14.6,14.6H643.3c-8.1,0-14.6-6.6-14.6-14.6
		c0-7.9,6.7-14.6,14.6-14.6h123.4C774.6,455.8,781.3,462.5,781.3,470.5z"/>
</g>
</svg>
