<svg width="20" height="20" viewBox="0 0 20 20" fill="none" xmlns="http://www.w3.org/2000/svg">
<g id="coins-stacked-04-svgrepo-com 1">
<path id="Vector" d="M16.6668 4.16666C16.6668 5.54736 13.6821 6.66666 10.0002 6.66666C6.31826 6.66666 3.3335 5.54736 3.3335 4.16666M16.6668 4.16666C16.6668 2.78595 13.6821 1.66666 10.0002 1.66666C6.31826 1.66666 3.3335 2.78595 3.3335 4.16666M16.6668 4.16666V15.8333C16.6668 17.2141 13.6821 18.3333 10.0002 18.3333C6.31826 18.3333 3.3335 17.2141 3.3335 15.8333V4.16666M16.6668 8.05549C16.6668 9.43624 13.6821 10.5555 10.0002 10.5555C6.31826 10.5555 3.3335 9.43624 3.3335 8.05549M16.6668 11.9417C16.6668 13.3224 13.6821 14.4417 10.0002 14.4417C6.31826 14.4417 3.3335 13.3224 3.3335 11.9417" stroke="#D94339" stroke-width="1.5" stroke-linecap="round" stroke-linejoin="round"/>
</g>
</svg>
