<?xml version="1.0" encoding="utf-8"?>
<!-- Generator: Adobe Illustrator 19.2.0, SVG Export Plug-In . SVG Version: 6.00 Build 0)  -->
<svg version="1.1" id="Ebene_1" xmlns="http://www.w3.org/2000/svg" xmlns:xlink="http://www.w3.org/1999/xlink" x="0px" y="0px"
	 viewBox="0 0 1000 1000" style="enable-background:new 0 0 1000 1000;" xml:space="preserve">
<path d="M584.4,799.2v105.6c32.7,6.9,70.3,11.2,111,11.2c135.4,0,236.5-45.9,236.5-86.9v-79c-48.2,36-134.1,59.3-236.5,59.3
	C655.5,809.3,618.1,805.7,584.4,799.2z M584.4,650.7v105.6c32.7,6.9,70.3,11.2,111,11.2c135.4,0,236.5-45.9,236.5-86.9v-79
	c-48.2,36-134.1,59.2-236.5,59.2C655.5,660.9,618.1,657.3,584.4,650.7z M459,304.8v60c66.5,18.7,116.9,50.6,124.2,94.6
	c33,7.1,71,11.4,112.2,11.4c135.4,0,236.5-45.9,236.5-86.9v-78.9c-48.2,36.1-134.1,59.3-236.5,59.3
	C593.1,364.1,507.2,340.9,459,304.8z M459,156.4v78.9c0,41,101.2,86.9,236.4,86.9c135.4,0,236.5-46,236.5-86.9v-78.9
	c-48.2,36.1-134.1,59.2-236.5,59.2C593.1,215.7,507.2,192.5,459,156.4z M310,383.5c-135.4,0-236.4,46-236.4,86.9
	s101.1,86.9,236.4,86.9c135.3,0,236.4-45.9,236.4-86.9C546.4,429.3,445.4,383.5,310,383.5z M584.4,502.4v105.6
	c32.7,6.9,70.3,11.2,111,11.2c135.4,0,236.5-46,236.5-86.9v-78.9c-48.2,36.1-134.1,59.2-236.5,59.2
	C655.5,512.4,618.1,508.8,584.4,502.4z M73.6,836.6v79c0,41.1,101.1,86.9,236.4,86.9c135.3,0,236.4-45.8,236.4-86.9v-79
	c-48.2,36.1-134.1,59.2-236.4,59.2C207.7,895.9,121.8,872.7,73.6,836.6z M695.4,173.9c135.4,0,236.5-45.8,236.5-86.9
	C931.9,46,830.8,0,695.4,0C560.1,0,459,46,459,86.9C459,127.9,560.2,173.9,695.4,173.9z M73.6,688.3v78.9
	c0,41,101.1,86.9,236.4,86.9c135.3,0,236.4-46,236.4-86.9v-78.9c-48.2,36.1-134.1,59.3-236.4,59.3
	C207.7,747.4,121.8,724.3,73.6,688.3z M73.6,539.9v78.9c0,41,101.1,86.8,236.4,86.8c135.3,0,236.4-46,236.4-86.8v-78.9
	C498.2,576,412.4,599.2,310,599.2C207.7,599.1,121.8,575.9,73.6,539.9z"/>
</svg>
