<svg width="24" height="24" viewBox="0 0 24 24" fill="none" xmlns="http://www.w3.org/2000/svg">
<rect x="4.75" y="2.75" width="16.5" height="18.5" rx="1.25" stroke="#888787" stroke-width="1.5"/>
<line x1="2.75" y1="17.25" x2="7.25" y2="17.25" stroke="#888787" stroke-width="1.5" stroke-linecap="round"/>
<line x1="2.75" y1="12.25" x2="7.25" y2="12.25" stroke="#888787" stroke-width="1.5" stroke-linecap="round"/>
<line x1="2.75" y1="7.25" x2="7.25" y2="7.25" stroke="#888787" stroke-width="1.5" stroke-linecap="round"/>
<circle cx="13.4" cy="10" r="2.25" stroke="#888787" stroke-width="1.5"/>
<path d="M17.3265 15.3736C17.4436 15.6563 17.5296 15.9502 17.5833 16.25L9.21672 16.25C9.27047 15.9502 9.35642 15.6563 9.47354 15.3736C9.68712 14.858 10.0002 14.3894 10.3948 13.9948C10.7895 13.6001 11.258 13.2871 11.7736 13.0735C12.2893 12.8599 12.8419 12.75 13.4 12.75C13.9581 12.75 14.5108 12.8599 15.0264 13.0735C15.5421 13.2871 16.0106 13.6001 16.4052 13.9948C16.7999 14.3894 17.1129 14.858 17.3265 15.3736Z" stroke="#888787" stroke-width="1.5"/>
</svg>
