<?xml version="1.0" encoding="utf-8"?>
<!-- Generator: Adobe Illustrator 23.0.1, SVG Export Plug-In . SVG Version: 6.00 Build 0)  -->
<svg version="1.1" id="Ebene_1" xmlns="http://www.w3.org/2000/svg" xmlns:xlink="http://www.w3.org/1999/xlink" x="0px" y="0px"
	 viewBox="0 0 1000 1000" style="enable-background:new 0 0 1000 1000;" xml:space="preserve">
<g>
	<path d="M267.8,892.8c-51.2,0-89.3-58.2-89.3-108.1V142.8h-18.9c-48.7,0-88.2,38.8-88.2,86.7v683.9c0,47.9,39.5,86.6,88.2,86.6
		h537.8c48.7,0,88.2-38.8,88.2-86.6v-20.5L267.8,892.8z"/>
	<path d="M675.6,260.2V0h-373c-48.7,0-88.2,38.8-88.2,86.7v683.9c0,47.9,39.5,86.6,88.2,86.6l537.8,0c48.7,0,88.2-38.8,88.2-86.6
		V260L675.6,260.2z M720.2,30.6v183.7l178.6-0.1L720.2,30.6z"/>
</g>
</svg>
