<?xml version="1.0" encoding="utf-8"?>
<!-- Generator: Adobe Illustrator 22.1.0, SVG Export Plug-In . SVG Version: 6.00 Build 0)  -->
<svg version="1.1" id="Ebene_1" xmlns="http://www.w3.org/2000/svg" xmlns:xlink="http://www.w3.org/1999/xlink" x="0px" y="0px"
	 viewBox="0 0 1000 1000" style="enable-background:new 0 0 1000 1000;" xml:space="preserve">
<g>
	<path d="M877.8,140H122.1C54.7,140,0,194.7,0,261.1v476.8C0,805.2,54.7,860,122.1,860h755.8c67.3,0,122.1-54.7,122.1-122.1l0-476.8
		C1000,194.7,945.2,140,877.8,140L877.8,140z M122.1,203.2h755.8c32.6,0,57.9,26.3,57.9,57.9v54.7H63.2v-54.7
		C63.2,229.5,89.5,203.2,122.1,203.2L122.1,203.2z M877.8,796.8H122.1c-32.6,0-57.9-26.3-57.9-57.9V491.5h872.6v247.4
		C936.8,770.5,910.5,796.8,877.8,796.8L877.8,796.8z"/>
	<path d="M797.9,605.2c-20,0-36.8,9.5-47.4,24.2c-10.5-14.7-28.4-24.2-47.4-24.2c-33.7,0-60,27.4-60,60c0,33.7,27.4,60,60,60
		c20,0,36.8-9.5,47.4-24.2c10.5,14.7,28.4,24.2,47.4,24.2c33.7,0,60-27.4,60-60C857.9,632.6,830.5,605.2,797.9,605.2z"/>
</g>
</svg>
