<?xml version="1.0" encoding="utf-8"?>
<!-- Generator: Adobe Illustrator 19.2.1, SVG Export Plug-In . SVG Version: 6.00 Build 0)  -->
<svg version="1.1" id="Ebene_1" xmlns="http://www.w3.org/2000/svg" xmlns:xlink="http://www.w3.org/1999/xlink" x="0px" y="0px"
	 viewBox="0 0 1000 1000" style="enable-background:new 0 0 1000 1000;" xml:space="preserve">
<style type="text/css">
	.st0{fill:#010202;}
</style>
<path class="st0" d="M978.9,809.2H596.5c101.4-56.6,170.5-164.3,172.2-288h78.1c84.5,0,153.2-76.1,153.2-169.7
	c0-93.6-68.7-169.7-153.2-169.7h-78v-11.9c0-11.7-9.5-21.1-21.1-21.1H120.2c-11.7,0-21.1,9.5-21.1,21.1v346.8
	c0,125.7,69.6,235.4,172.3,292.6H21.1C9.5,809.2,0,818.6,0,830.3c0,11.7,9.5,21.1,21.1,21.1h957.8c11.7,0,21.1-9.5,21.1-21.1
	C1000,818.6,990.5,809.2,978.9,809.2z M846.8,223.9c53.4,0,111,48.8,111,127.5c0,61.6-44.6,127.5-111,127.5h-78v-255H846.8z
	 M141.3,516.5V190.8h585.3v325.7c0,161.4-131.3,292.6-292.6,292.6S141.3,677.9,141.3,516.5z"/>
</svg>
