<svg width="24" height="24" viewBox="0 0 24 24" fill="none" xmlns="http://www.w3.org/2000/svg">
<path d="M3 11.0076C2.58579 11.0076 2.25 11.3434 2.25 11.7576C2.25 12.1718 2.58579 12.5076 3 12.5076V11.0076ZM8.4 11.7576V12.5076H8.9959L9.13059 11.9271L8.4 11.7576ZM10.2 4L10.922 3.79694C10.8293 3.46729 10.525 3.2423 10.1827 3.2502C9.84033 3.2581 9.54681 3.4969 9.46941 3.83048L10.2 4ZM14.7 20L13.978 20.2031C14.0674 20.5209 14.3541 20.7428 14.6841 20.7498C15.0142 20.7568 15.31 20.5472 15.4127 20.2335L14.7 20ZM17.4 11.7576V11.0076H16.8565L16.6873 11.5241L17.4 11.7576ZM21 12.5076C21.4142 12.5076 21.75 12.1718 21.75 11.7576C21.75 11.3434 21.4142 11.0076 21 11.0076V12.5076ZM3 12.5076H8.4V11.0076H3V12.5076ZM9.13059 11.9271L10.9306 4.16952L9.46941 3.83048L7.66941 11.5881L9.13059 11.9271ZM9.47801 4.20306L13.978 20.2031L15.422 19.7969L10.922 3.79694L9.47801 4.20306ZM15.4127 20.2335L18.1127 11.991L16.6873 11.5241L13.9873 19.7665L15.4127 20.2335ZM17.4 12.5076H21V11.0076H17.4V12.5076Z" fill="#00A353"/>
</svg>