<svg id="Ebene_1" data-name="Ebene 1" xmlns="http://www.w3.org/2000/svg" viewBox="0 0 1000 1000"><path d="M908.18,0H91.82C41.32,0,0,41.32,0,91.82V908.18C0,958.68,41.32,1000,91.82,1000H908.18c50.5,0,91.82-41.32,91.82-91.82V91.82C1000,41.32,958.68,0,908.18,0ZM775.48,522.51H698.36L626.18,739.06a46,46,0,0,1-87.16,0L417.34,373.92l-39,117.2a46,46,0,0,1-43.58,31.39H224.54a45.91,45.91,0,1,1,0-91.82h77.12l72.1-216.51c12.55-37.49,74.6-37.49,87.16,0L582.6,579.36l39.09-117.29a46,46,0,0,1,43.58-31.38H775.48a45.91,45.91,0,0,1,0,91.82Z"/></svg>