<?xml version="1.0" encoding="utf-8"?>
<!-- Generator: Adobe Illustrator 19.2.1, SVG Export Plug-In . SVG Version: 6.00 Build 0)  -->
<svg version="1.1" id="Ebene_1" xmlns="http://www.w3.org/2000/svg" xmlns:xlink="http://www.w3.org/1999/xlink" x="0px" y="0px"
	 viewBox="0 0 1000 1000" style="enable-background:new 0 0 1000 1000;" xml:space="preserve">
<path d="M303.3,480.1v-32.8c0-17.5,14.8-32.4,32.4-32.4h566.7c17.6,0,32.4,14.8,32.4,32.4v32.8H303.3z M934.7,771.1
	c0,17.6-14.8,32.4-32.4,32.4H335.7c-17.6,0-32.4-14.8-32.4-32.4v-170h631.5L934.7,771.1L934.7,771.1z M902.3,366.3H335.7
	c-44.5,0-81,36.4-81,81v323.8c0,44.5,36.4,81,81,81h566.7c44.5,0,81-36.4,81-81V447.3C983.3,402.8,946.9,366.3,902.3,366.3z"/>
<polygon points="489.5,317.8 732.3,317.8 732.3,242.9 853.8,242.9 610.9,0 368,242.9 489.5,242.9 "/>
<path d="M548.9,988.2c38.5,22.3,88.4,9,110.6-29.6l33.4-57.9H397.2L548.9,988.2z"/>
<path d="M335.7,317.8h23.5L301,284.2c-38.5-22.3-88.3-9-110.6,29.6l-162,280.4c-22.3,38.6-8.9,88.3,29.6,110.6l149.7,86.5
	c-1-6.6-1.8-13.3-1.8-20.2V447.3C206.1,375.9,264.2,317.8,335.7,317.8z"/>
</svg>
