<?xml version="1.0" encoding="utf-8"?>
<!-- Generator: Adobe Illustrator 16.0.3, SVG Export Plug-In . SVG Version: 6.00 Build 0)  -->
<!DOCTYPE svg PUBLIC "-//W3C//DTD SVG 1.1//EN" "http://www.w3.org/Graphics/SVG/1.1/DTD/svg11.dtd">
<svg version="1.1" id="Ebene_1" xmlns="http://www.w3.org/2000/svg" xmlns:xlink="http://www.w3.org/1999/xlink" x="0px" y="0px"
	 width="595.221px" height="577.958px" viewBox="0 0 595.221 577.958" enable-background="new 0 0 595.221 577.958"
	 xml:space="preserve">
<path fill="#010202" d="M570.279,112.508l-81.91-85.125C471.521,9.882,448.307,0,424.02,0H77.863C34.586-0.06,0,34.586,0,77.804
	v422.292c0,42.979,34.883,77.862,77.863,77.862h439.497c42.979,0,77.861-34.884,77.861-77.862V174.417
	C595.221,151.32,586.293,129.116,570.279,112.508z M297.64,510.453c-50.182,0-90.006-39.824-90.006-88.221
	c0-50.182,39.824-90.006,90.006-90.006c50.182,0,90.006,39.824,90.006,90.006C387.646,470.688,347.822,510.453,297.64,510.453z
	 M396.279,192.038H72.684V60.54h323.596V192.038z"/>
</svg>
