<?xml version="1.0" encoding="utf-8"?>
<!-- Generator: Adobe Illustrator 19.2.1, SVG Export Plug-In . SVG Version: 6.00 Build 0)  -->
<svg version="1.1" id="Ebene_1" xmlns="http://www.w3.org/2000/svg" xmlns:xlink="http://www.w3.org/1999/xlink" x="0px" y="0px"
	 viewBox="0 0 1000 1000" style="enable-background:new 0 0 1000 1000;" xml:space="preserve">
<style type="text/css">
	.st0{fill:#231F20;}
</style>
<g>
	<path class="st0" d="M876.3,234.3L617,7.4C611.5,2.6,604.5,0,597.2,0H143.5c-16.6,0-30.1,13.5-30.1,30.1v939.8
		c0,16.6,13.5,30.1,30.1,30.1h713c16.6,0,30.1-13.5,30.1-30.1v-713C886.6,248.3,882.8,240,876.3,234.3z M627.3,96.4l149.1,130.5
		H627.3V96.4z M173.6,939.8V60.2h393.5v196.8c0,16.6,13.5,30.1,30.1,30.1h229.2v652.8H173.6z"/>
	<path class="st0" d="M243.1,324.1v578.7h513.9V324.1H243.1z M405.1,384.3v69.5H303.2v-69.5H405.1z M303.2,643.5h101.9V713H303.2
		V643.5z M465.3,643.5h231.5V713H465.3V643.5z M696.8,583.3H465.3v-69.5h231.5V583.3z M405.1,583.3H303.2v-69.5h101.9V583.3z
		 M303.2,773.1h101.9v69.5H303.2V773.1z M465.3,842.6v-69.5h231.5v69.5H465.3z M696.8,453.7H465.3v-69.5h231.5V453.7z"/>
</g>
</svg>
