<?xml version="1.0" encoding="utf-8"?>
<!-- Generator: Adobe Illustrator 19.0.1, SVG Export Plug-In . SVG Version: 6.00 Build 0)  -->
<svg version="1.1" id="Ebene_1" xmlns="http://www.w3.org/2000/svg" xmlns:xlink="http://www.w3.org/1999/xlink" x="0px" y="0px"
	 viewBox="0 0 1000 1000" style="enable-background:new 0 0 1000 1000;" xml:space="preserve">
<style type="text/css">
	.st0{fill:#1D1D1B;}
</style>
<g>
	<path class="st0" d="M882.5,166.2L725.2,8.9c-5.8-5.8-13.7-9.1-21.9-9.1H321.9c-17.1,0-30.9,13.8-30.9,30.9v765.6
		c0,17.1,13.8,30.9,30.9,30.9h538.7c17.1,0,30.9-13.8,30.9-30.9V188.1C891.6,179.9,888.3,172,882.5,166.2z M738.2,91.8l60.2,60.6
		h-60.2V91.8z M841.7,777.5H340.8V49.7H688v113c0,21.8,17.7,39.5,39.5,39.5h114.3V777.5z"/>
	<path class="st0" d="M431,172h110.8c10,0,18-6.6,18-14.8v-11.3c0-8.2-8.1-14.8-18-14.8H431c-10,0-18,6.6-18,14.8v11.3
		C413,165.4,421.1,172,431,172z"/>
	<path class="st0" d="M595.2,203.2H431c-10,0-18,6.6-18,14.8v11.3c0,8.2,8.1,14.8,18,14.8h164.1c10,0,18-6.6,18-14.8V218
		C613.2,209.9,605.1,203.2,595.2,203.2z"/>
	<path class="st0" d="M249.5,86.4h-18.9c-17.1,0-30.9,13.8-30.9,30.9V883c0,17.1,13.8,30.9,30.9,30.9h538.7
		c17.1,0,30.9-13.8,30.9-30.9V864H249.5V86.4z"/>
	<path class="st0" d="M158.3,172.6h-18.9c-17.1,0-30.9,13.8-30.9,30.9v765.6c0,17.1,13.8,30.9,30.9,30.9h538.7
		c17.1,0,30.9-13.8,30.9-30.9v-18.9H158.3V172.6z"/>
</g>
</svg>
