<?xml version="1.0" encoding="utf-8"?>
<!-- Generator: Adobe Illustrator 19.2.1, SVG Export Plug-In . SVG Version: 6.00 Build 0)  -->
<svg version="1.1" id="Ebene_1" xmlns="http://www.w3.org/2000/svg" xmlns:xlink="http://www.w3.org/1999/xlink" x="0px" y="0px"
	 viewBox="0 0 1000 1000" style="enable-background:new 0 0 1000 1000;" xml:space="preserve">
<style type="text/css">
	.st0{fill:#231F20;}
</style>
<g>
	<path class="st0" d="M777.5,436.4L585.1,268.1c-3.6-3.1-8.2-4.9-12.9-4.9H235.4c-10.9,0-19.6,8.8-19.6,19.6v697.5
		c0,10.8,8.8,19.6,19.6,19.6h529.1c10.9,0,19.6-8.8,19.6-19.6V451.2C784.2,445.6,781.8,440.2,777.5,436.4z M591.8,326.1l120.5,105.4
		H591.8V326.1z M255.1,960.7V302.5h297.4v148.7c0,10.9,8.8,19.6,19.6,19.6h172.8v489.8H255.1z"/>
	<path class="st0" d="M312,503.7v424.1h376V503.7H312z M432.3,543v56.9h-81V543H432.3z M648.7,696.1H471.5v-56.9h177.2V696.1z
		 M432.3,696.1h-81v-56.9h81V696.1z M351.3,735.4h81v153.1h-81V735.4z M471.5,888.6V735.4h177.2v153.1H471.5z M648.7,599.9H471.5
		V543h177.2V599.9z"/>
	<path class="st0" d="M493.9,225.6c0.3,0.3,0.6,0.4,1,0.7c0.5,0.4,0.9,0.7,1.4,1c0.6,0.4,1.2,0.7,1.8,1c0.5,0.2,0.9,0.5,1.5,0.7
		c0.7,0.3,1.4,0.5,2.2,0.7c0.4,0.1,0.9,0.3,1.3,0.4c1.2,0.2,2.5,0.4,3.7,0.4c1.3,0,2.5-0.1,3.8-0.4c0.5-0.1,1-0.3,1.5-0.4
		c0.7-0.2,1.4-0.4,2.1-0.6c0.6-0.2,1.1-0.5,1.6-0.8c0.6-0.3,1.1-0.6,1.7-0.9c0.6-0.4,1.1-0.8,1.6-1.3c0.4-0.3,0.8-0.6,1.1-0.9
		l72.7-68.9c7.9-7.5,8.2-19.9,0.7-27.8c-7.5-7.9-19.9-8.2-27.8-0.7L526.4,165V19.6c0-10.9-8.8-19.6-19.6-19.6
		c-10.9,0-19.6,8.8-19.6,19.6v148.2l-47.5-40.9c-8.2-7.1-20.6-6.2-27.7,2.1c-7.1,8.2-6.2,20.6,2.1,27.7L493.9,225.6z"/>
</g>
</svg>
