<?xml version="1.0" encoding="utf-8"?>
<!-- Generator: Adobe Illustrator 18.1.1, SVG Export Plug-In . SVG Version: 6.00 Build 0)  -->
<svg version="1.1" id="Ebene_1" xmlns="http://www.w3.org/2000/svg" xmlns:xlink="http://www.w3.org/1999/xlink" x="0px" y="0px"
	 viewBox="0 0 1000 1000" enable-background="new 0 0 1000 1000" xml:space="preserve">
<g>
	<g>
		<path d="M862.7,999.5H136.9V-0.5h513.8l212,212V999.5z M201.4,937.3h596.8V241.4L623.1,66.3H201.4L201.4,937.3L201.4,937.3z"/>
	</g>
	<g>
		<polygon points="837.4,257.6 611.6,257.6 611.6,34.1 676.1,34.1 676.1,195.3 837.4,195.3 		"/>
	</g>
	<g>
		<path d="M526.3,536.4c-18.4,0-34.6,4.6-46.1,16.1c-11.5,11.5-18.4,25.3-23,46.1H547V640h-94.5v9.2v11.5v6.9h80.6v41.5h-78.3
			c9.2,36.9,32.3,55.3,71.4,55.3c20.7,0,41.5-4.6,62.2-13.8v57.6c-18.4,9.2-39.2,13.8-66.8,13.8c-36.9,0-66.8-9.2-89.9-30
			c-25.3-18.4-39.2-46.1-46.1-82.9h-30v-41.5h25.3c0-2.3-2.3-6.9-2.3-13.8v-11.5h-25.3v-41.5h30c4.6-34.6,20.7-64.5,46.1-85.3
			s55.3-32.3,89.9-32.3c27.6,0,55.3,6.9,78.3,18.4l-23,50.7c-9.2-4.6-18.4-9.2-30-11.5C547,538.7,537.8,536.4,526.3,536.4z"/>
	</g>
	<g>
		<g>
			<rect x="282.1" y="170" width="177.4" height="48.4"/>
		</g>
	</g>
	<g>
		<g>
			<rect x="282.1" y="264.5" width="241.9" height="48.4"/>
		</g>
	</g>
</g>
</svg>
