<?xml version="1.0" encoding="utf-8"?>
<!-- Generator: Adobe Illustrator 19.2.1, SVG Export Plug-In . SVG Version: 6.00 Build 0)  -->
<svg version="1.1" id="Ebene_1" xmlns="http://www.w3.org/2000/svg" xmlns:xlink="http://www.w3.org/1999/xlink" x="0px" y="0px"
	 viewBox="0 0 1000 1000" style="enable-background:new 0 0 1000 1000;" xml:space="preserve">
<style type="text/css">
	.st0{fill:#231F20;}
</style>
<g>
	<path class="st0" d="M778.1,434.8L585.7,266.4c-3.7-3.3-8.5-5.1-13.5-5.1H235.4c-11.3,0-20.5,9.2-20.5,20.5v697.7
		c0,11.3,9.2,20.5,20.5,20.5h529.3c11.3,0,20.5-9.2,20.5-20.5V450.2C785.1,444.3,782.6,438.7,778.1,434.8z M592.7,327L710,429.7
		H592.7V327z M255.9,959V302.3h295.8v147.9c0,11.3,9.2,20.5,20.5,20.5h171.9V959H255.9z"/>
	<path class="st0" d="M311.1,501.9v425.9h377.8V501.9H311.1z M431.4,542.9v55.2h-79.3v-55.2H431.4z M647.9,694.3H472.4v-55.2h175.5
		V694.3z M431.4,694.3h-79.3v-55.2h79.3V694.3z M352.1,735.4h79.3v151.4h-79.3V735.4z M472.4,886.8V735.4h175.5v151.4H472.4z
		 M647.9,598.1H472.4v-55.2h175.5V598.1z"/>
	<path class="st0" d="M426.8,109.9c4.7,0,9.5-1.6,13.4-5l46-39.7v146.4c0,11.3,9.2,20.5,20.5,20.5c11.3,0,20.5-9.2,20.5-20.5V68.2
		l38.1,36.1c8.2,7.8,21.2,7.4,29-0.8c7.8-8.2,7.4-21.2-0.8-29L520.9,5.6c-0.4-0.4-0.9-0.7-1.4-1.1c-0.5-0.4-0.9-0.8-1.5-1.1
		c-0.7-0.4-1.4-0.8-2.1-1.1c-0.5-0.2-0.9-0.5-1.3-0.7c-1.2-0.5-2.4-0.9-3.6-1.1c-0.1,0-0.3,0-0.4-0.1C509.4,0.2,508.2,0,507,0
		c-0.1,0-0.1,0-0.2,0c-0.4,0-0.7,0.1-1.1,0.1c-0.9,0-1.7,0.1-2.6,0.3c-0.6,0.1-1.1,0.3-1.6,0.4c-0.7,0.2-1.4,0.4-2.1,0.6
		c-0.6,0.2-1.1,0.5-1.6,0.8c-0.6,0.3-1.2,0.6-1.8,1c-0.5,0.3-1.1,0.7-1.6,1.1c-0.3,0.2-0.7,0.4-1,0.7l-79.9,68.9
		c-8.6,7.4-9.6,20.3-2.2,28.9C415.3,107.5,421.1,109.9,426.8,109.9z"/>
</g>
</svg>
