<?xml version="1.0" encoding="utf-8"?>
<!-- Generator: Adobe Illustrator 19.2.1, SVG Export Plug-In . SVG Version: 6.00 Build 0)  -->
<svg version="1.1" id="Ebene_1" xmlns="http://www.w3.org/2000/svg" xmlns:xlink="http://www.w3.org/1999/xlink" x="0px" y="0px"
	 viewBox="0 0 1000 1000" style="enable-background:new 0 0 1000 1000;" xml:space="preserve">
<style type="text/css">
	.st0{fill:#1D1D1B;}
	.st1{fill-rule:evenodd;clip-rule:evenodd;fill:#1D1D1B;}
</style>
<g>
	<path class="st0" d="M768.9,995.2l-90.1-86.7l-90.6,85.9l-90-85.7l-88.2,86.2l-89-86.3l-91.7,86.6L113.8,875.6V4.5h772.3v871.2
		L768.9,995.2z M497.7,826.7l90.6,86.3l90.8-86.1l88.6,85.3l59.4-60.5V63.5H172.8v788.2l58.4,60.5l90.3-85.4l88.3,85.7L497.7,826.7z
		"/>
</g>
<rect x="298.7" y="597.1" class="st0" width="400.8" height="45.5"/>
<rect x="298.7" y="695" class="st0" width="267.2" height="45.5"/>
<g>
	<path class="st1" d="M458,218.5c-21.3,18.5-34.4,43.7-39.3,75.6h-26.2v34.8h22.9l-0.4,10.4c0,5.1,0.3,9.2,0.8,12.2h-23.4v35.2h27
		c5.4,31,18.5,55.2,39.3,72.7c20.8,17.6,47.3,26.2,79.6,26.2c23.4,0,42.6-3.9,57.9-11.7v-50.6c-17.4,7.5-35.5,11.2-54.3,11.2
		c-35.6,0-56.7-16-63.5-48h66.8v-35.2h-70.1l-0.4-6.5v-9.3l0.4-6.9h82.6v-34.8h-79.6c3-17.4,9.7-30.8,20.1-40.1
		c10.4-9.3,23.6-14,39.7-14c8.5,0,16.8,1.1,24.7,3.4c7.9,2.3,16.4,5.5,25.5,9.6l19.4-45.8c-21.6-10.8-44.8-16.2-69.5-16.2
		C506,190.7,479.4,200,458,218.5z"/>
</g>
</svg>
