<?xml version="1.0" encoding="utf-8"?>
<!-- Generator: Adobe Illustrator 19.2.1, SVG Export Plug-In . SVG Version: 6.00 Build 0)  -->
<svg version="1.1" id="Ebene_1" xmlns="http://www.w3.org/2000/svg" xmlns:xlink="http://www.w3.org/1999/xlink" x="0px" y="0px"
	 viewBox="0 0 1000 1000" style="enable-background:new 0 0 1000 1000;" xml:space="preserve">
<style type="text/css">
	.st0{fill:#231F20;}
</style>
<g>
	<path class="st0" d="M489.5,749.8c7.3,7.3,16.9,11,26.5,11c9.6,0,19.2-3.7,26.5-11l159.5-159.5c14.6-14.6,14.6-38.3,0-52.9
		c-14.6-14.6-38.3-14.6-52.9,0l-95.6,95.6V37.4C553.4,16.8,536.6,0,516,0c-20.7,0-37.4,16.8-37.4,37.4V633l-95.6-95.6
		c-14.6-14.6-38.3-14.6-52.9,0c-14.6,14.6-14.6,38.3,0,52.9L489.5,749.8z"/>
	<path class="st0" d="M962.6,925.1H37.4C16.8,925.1,0,941.9,0,962.6c0,20.7,16.8,37.4,37.4,37.4h925.1c20.7,0,37.4-16.8,37.4-37.4
		C1000,941.9,983.2,925.1,962.6,925.1z"/>
</g>
</svg>
