<?xml version="1.0" encoding="utf-8"?>
<!-- Generator: Adobe Illustrator 16.0.3, SVG Export Plug-In . SVG Version: 6.00 Build 0)  -->
<!DOCTYPE svg PUBLIC "-//W3C//DTD SVG 1.1//EN" "http://www.w3.org/Graphics/SVG/1.1/DTD/svg11.dtd">
<svg version="1.1" id="Ebene_1" xmlns="http://www.w3.org/2000/svg" xmlns:xlink="http://www.w3.org/1999/xlink" x="0px" y="0px"
	 width="7.426px" height="8.998px" viewBox="0 0 7.426 8.998" enable-background="new 0 0 7.426 8.998" xml:space="preserve">
<g>
	<path fill="#3C71B7" d="M2.794,6.779l0.421,0.422l0.288,0.285c0.119,0.117,0.304,0.117,0.422,0l0.287-0.285l0.421-0.422l2.11-2.108
		c0.114-0.118,0.114-0.305,0-0.421L6.454,3.961c-0.118-0.114-0.304-0.114-0.421,0L4.482,5.512C4.365,5.629,4.27,5.589,4.27,5.426
		V0.298C4.269,0.134,4.136,0.001,3.971,0H3.455C3.29,0.002,3.159,0.134,3.157,0.298v5.129c0,0.164-0.096,0.204-0.212,0.088
		L1.394,3.961c-0.118-0.114-0.306-0.114-0.422,0L0.683,4.25c-0.114,0.116-0.114,0.303,0,0.421L2.794,6.779z M3.715,6.272
		c0.003,0,0.007,0,0.003,0.006c-0.002,0.001-0.006,0.001-0.009,0C3.709,6.278,3.709,6.272,3.715,6.272z"/>
	<rect y="8.323" fill="#3C71B7" width="7.426" height="0.675"/>
</g>
</svg>
