<?xml version="1.0" encoding="utf-8"?>
<!-- Generator: Adobe Illustrator 18.1.1, SVG Export Plug-In . SVG Version: 6.00 Build 0)  -->
<svg version="1.1" id="Ebene_1" xmlns="http://www.w3.org/2000/svg" xmlns:xlink="http://www.w3.org/1999/xlink" x="0px" y="0px"
	 viewBox="0 0 1000 1000" enable-background="new 0 0 1000 1000" xml:space="preserve">
<path d="M759.5,774.3V367.8c0-8.9-4.4-20.9-11.9-28.2L565.1,157.2c-4.4-6-14.9-11.9-26.6-11.9H312.8V75.5h333.8v145.4
	c0,20.9,17.9,38.5,38.5,38.5h145.4v513.2L759.5,774.3L759.5,774.3z M164.4,921.1V223.9h335.2v145.2c0,20.9,16.3,38.5,38.5,38.5H682
	v513.2H164.4V921.1z M896,192.7c-4.4-4.4-182.4-182.4-182.4-182.4c-3-3-13.3-11.9-28.2-11.9H272.9c-20.9,0-38.5,17.9-38.5,38.5
	v109.7H124.5c-20.9,0-38.5,17.9-38.5,38.5v777.5c0,20.9,17.9,38.5,38.5,38.5h594.9c20.9,0,38.5-17.9,38.5-38.5V852.8h109.9
	c20.9,0,38.5-17.9,38.5-38.5c0,0,0-590.5,0-591.9C907.7,213.4,903.3,200.1,896,192.7z"/>
</svg>
