<svg width="20" height="20" viewBox="0 0 20 20" fill="none" xmlns="http://www.w3.org/2000/svg">
<path d="M9.20931 3.66479H3.99096C3.59553 3.66479 3.2163 3.82188 2.93669 4.10149C2.65708 4.38109 2.5 4.76033 2.5 5.15575V15.5924C2.5 15.9879 2.65708 16.3671 2.93669 16.6467C3.2163 16.9263 3.59553 17.0834 3.99096 17.0834H14.4277C14.8231 17.0834 15.2023 16.9263 15.4819 16.6467C15.7615 16.3671 15.9186 15.9879 15.9186 15.5924V10.3741" stroke="#00A353" stroke-width="1.8" stroke-linecap="round" stroke-linejoin="round"/>
<path d="M14.8002 2.54655C15.0967 2.24999 15.499 2.08337 15.9184 2.08337C16.3378 2.08337 16.74 2.24999 17.0366 2.54655C17.3332 2.84312 17.4998 3.24536 17.4998 3.66477C17.4998 4.08419 17.3332 4.48642 17.0366 4.78299L9.95457 11.865L6.97266 12.6105L7.71813 9.6286L14.8002 2.54655Z" fill="#00A353" stroke="#00A353" stroke-width="1.8" stroke-linecap="round" stroke-linejoin="round"/>
</svg>
