<?xml version="1.0" encoding="utf-8"?>
<!-- Generator: Adobe Illustrator 24.2.3, SVG Export Plug-In . SVG Version: 6.00 Build 0)  -->
<svg version="1.1" id="Ebene_1" xmlns="http://www.w3.org/2000/svg" xmlns:xlink="http://www.w3.org/1999/xlink" x="0px" y="0px"
	 viewBox="0 0 15 15" style="enable-background:new 0 0 15 15;" xml:space="preserve">
<path class="st0" d="M7.5,15C3.4,15,0,11.6,0,7.5S3.4,0,7.5,0S15,3.4,15,7.5S11.6,15,7.5,15z M7.5,1C3.9,1,1,3.9,1,7.5
	S3.9,14,7.5,14S14,11.1,14,7.5S11.1,1,7.5,1z"/>
<g id="edit" transform="translate(387.167 330.167)">
	<path id="Pfad_376" class="st0" d="M-376.3-324.4l-4,4l-1.6-1.6l4-4"/>
	<path id="Pfad_377" class="st0" d="M-382.4-321.6l-0.6,2.2l2.2-0.6L-382.4-321.6z"/>
</g>
</svg>
