<?xml version="1.0" encoding="utf-8"?>
<!-- Generator: Adobe Illustrator 22.0.0, SVG Export Plug-In . SVG Version: 6.00 Build 0)  -->
<svg version="1.1" id="Ebene_1" xmlns="http://www.w3.org/2000/svg" xmlns:xlink="http://www.w3.org/1999/xlink" x="0px" y="0px"
	 viewBox="0 0 1000 1000" style="enable-background:new 0 0 1000 1000;" xml:space="preserve">
<g>
	<path d="M230.6,640.1h-95.1v-84.5l86-6c-1.5-15.1-1.5-30.2-1.5-46.8c0-15.1,0-30.2,1.5-43.8h-86v-84.5l95.1-6
		C271.3,136,416.3,1.6,615.4,1.6c90.6,0,178.2,45.3,235.4,117.7l-98.1,95.1c-39.2-45.3-84.5-77-141.8-77
		c-108.7,0-181.2,84.5-205.3,229.4h353.2V459H396.7c-1.5,12.1-1.5,24.2-1.5,37.7c0,18.1,0,34.7,1.5,51.3h301.8v92.1H407.2
		c27.1,140.4,98,221.9,200.7,221.9c64.9,0,113.1-33.2,158.5-95.1l98.1,90.6c-69.5,89-156.9,140.3-267.1,140.3
		C413.2,997.8,271.3,871,230.6,640.1z"/>
</g>
</svg>
