<svg width="54" height="47" viewBox="0 0 54 47" fill="none" xmlns="http://www.w3.org/2000/svg">
<path d="M37.7421 9.00391C38.5015 9.71641 39.3184 10.6967 39.632 11.0978L41.5723 8.74235C38.9648 5.71202 35.6948 3.23136 32.0443 1.86419C28.3939 0.497015 24.7997 0.257433 23.3057 0.285622C21.8117 0.313811 18.5559 0.51115 14.9617 1.94879C12.0865 3.09891 9.49775 4.99322 8.56281 5.79661C7.59499 6.6047 5.29288 8.82694 3.82704 11.2512C1.99475 14.2815 1.68471 15.6346 1.02227 17.8334C0.359822 20.0321 0.27514 22.8087 0.317424 25.0921C0.351251 26.9187 1.28994 30.3634 1.75505 31.8574C2.51616 33.873 4.94606 38.6256 8.57682 41.5122C13.1153 45.1204 16.6953 45.9379 17.7806 46.2339C18.8658 46.5299 22.8687 47.2205 26.0118 46.8822C29.1549 46.544 33.2282 45.2332 35.8639 43.4995C38.4996 41.7659 39.8667 40.4551 41.2903 38.8906C42.4291 37.639 43.3998 36.0388 43.7427 35.3952C44.969 33.6334 45.8851 30.6312 46.2234 29.405C46.494 28.424 46.759 26.6941 46.8576 25.9518L43.785 25.9659C43.7991 27.4599 42.9252 30.3211 41.9104 32.5622C40.8956 34.8032 39.6271 36.1422 38.3727 37.6362C37.1183 39.1302 33.9893 41.3854 31.5932 42.3579C29.1972 43.3304 24.7574 44.613 20.1062 43.6828C15.455 42.7525 12.9179 41.0753 10.7333 39.3416C8.98556 37.9547 7.46931 36.0423 6.92966 35.2594C6.05271 34.1469 4.13926 30.8604 3.50103 26.6144C2.86279 22.3683 3.76009 18.6561 4.28852 17.3307C4.86589 15.0174 7.50738 9.51883 13.4544 6.03079C19.4014 2.54275 25.7677 3.11876 28.2075 3.84276C33.1043 4.81886 36.7929 8.11329 37.7421 9.00391Z" fill="#0079B3"/>
<path d="M24.832 34.2596V37.2264H23.1504V34.369C21.127 34.369 19.4818 33.977 18.2148 33.1932V30.1443C18.7708 30.6274 19.5228 31.033 20.4707 31.3611C21.4277 31.6893 22.321 31.8533 23.1504 31.8533V25.7693C20.9993 24.7759 19.6048 23.8598 18.9668 23.0213C18.3379 22.1828 18.0234 21.1893 18.0234 20.0408C18.0234 18.6828 18.5065 17.5115 19.4727 16.5272C20.4388 15.5337 21.6647 14.9367 23.1504 14.7361V12.2752H24.832V14.6815C26.7461 14.7361 28.0677 14.9914 28.7969 15.4471V18.3729C27.8034 17.6437 26.4818 17.2518 24.832 17.1971V23.4998C26.8372 24.4295 28.209 25.3318 28.9473 26.2068C29.6855 27.0818 30.0547 28.0708 30.0547 29.1736C30.0547 30.5135 29.5944 31.6346 28.6738 32.5369C27.7533 33.4393 26.4727 34.0135 24.832 34.2596ZM23.1504 22.7205V17.2654C22.4668 17.4022 21.9245 17.6938 21.5234 18.1404C21.1224 18.5871 20.9219 19.1294 20.9219 19.7674C20.9219 20.4419 21.0859 20.9933 21.4141 21.4217C21.7422 21.8501 22.321 22.283 23.1504 22.7205ZM24.832 26.5076V31.7713C26.3815 31.4432 27.1562 30.6365 27.1562 29.3514C27.1562 28.2759 26.3815 27.3279 24.832 26.5076Z" fill="#0079B3"/>
<path d="M38.2861 13.5248H41.78L41.6742 25.4356H49.1912L49.1383 13.5777L52.8439 13.5248L45.3269 4.94904L38.2861 13.5248Z" fill="#0079B3"/>
</svg>
