<svg width="53" height="47" viewBox="0 0 53 47" fill="none" xmlns="http://www.w3.org/2000/svg">
<path d="M37.7421 38.253C38.5015 37.5405 39.3184 36.5602 39.632 36.1591L41.5723 38.5145C38.9648 41.5449 35.6948 44.0255 32.0443 45.3927C28.3939 46.7599 24.7997 46.9995 23.3057 46.9713C21.8117 46.9431 18.5559 46.7457 14.9617 45.3081C12.0865 44.158 9.49775 42.2637 8.56281 41.4603C7.59499 40.6522 5.29288 38.43 3.82704 36.0057C1.99475 32.9754 1.68471 31.6223 1.02227 29.4235C0.359822 27.2248 0.27514 24.4482 0.317424 22.1648C0.351251 20.3382 1.28994 16.8935 1.75505 15.3995C2.51616 13.3839 4.94606 8.63125 8.57682 5.74469C13.1153 2.13648 16.6953 1.319 17.7806 1.02301C18.8658 0.727024 22.8687 0.0363922 26.0118 0.37466C29.1549 0.712929 33.2282 2.02372 35.8639 3.75735C38.4996 5.49099 39.8667 6.80178 41.2903 8.36627C42.4291 9.61787 43.3998 11.2181 43.7427 11.8617C44.969 13.6235 45.8851 16.6257 46.2234 17.8519C46.494 18.8329 46.759 20.5628 46.8576 21.3051L43.785 21.291C43.7991 19.797 42.9252 16.9358 41.9104 14.6947C40.8956 12.4537 39.6271 11.1147 38.3727 9.62069C37.1183 8.12667 33.9893 5.87154 31.5932 4.89901C29.1972 3.92649 24.7574 2.64388 20.1062 3.57412C15.455 4.50436 12.9179 6.18162 10.7333 7.91525C8.98556 9.30215 7.46931 11.2146 6.92966 11.9975C6.05271 13.11 4.13926 16.3965 3.50103 20.6425C2.86279 24.8886 3.76009 28.6008 4.28852 29.9262C4.86589 32.2395 7.50738 37.7381 13.4544 41.2261C19.4014 44.7141 25.7677 44.1381 28.2075 43.4141C33.1043 42.438 36.7929 39.1436 37.7421 38.253Z" fill="#0079B3"/>
<path d="M24.832 34.2596V37.2264H23.1504V34.369C21.127 34.369 19.4818 33.977 18.2148 33.1932V30.1443C18.7708 30.6274 19.5228 31.033 20.4707 31.3611C21.4277 31.6893 22.321 31.8533 23.1504 31.8533V25.7693C20.9993 24.7759 19.6048 23.8598 18.9668 23.0213C18.3379 22.1828 18.0234 21.1893 18.0234 20.0408C18.0234 18.6828 18.5065 17.5115 19.4727 16.5272C20.4388 15.5337 21.6647 14.9367 23.1504 14.7361V12.2752H24.832V14.6815C26.7461 14.7361 28.0677 14.9914 28.7969 15.4471V18.3729C27.8034 17.6437 26.4818 17.2518 24.832 17.1971V23.4998C26.8372 24.4295 28.209 25.3318 28.9473 26.2068C29.6855 27.0818 30.0547 28.0708 30.0547 29.1736C30.0547 30.5135 29.5944 31.6346 28.6738 32.5369C27.7533 33.4393 26.4727 34.0135 24.832 34.2596ZM23.1504 22.7205V17.2654C22.4668 17.4022 21.9245 17.6938 21.5234 18.1404C21.1224 18.5871 20.9219 19.1294 20.9219 19.7674C20.9219 20.4419 21.0859 20.9933 21.4141 21.4217C21.7422 21.8501 22.321 22.283 23.1504 22.7205ZM24.832 26.5076V31.7713C26.3815 31.4432 27.1562 30.6365 27.1562 29.3514C27.1562 28.2759 26.3815 27.3279 24.832 26.5076Z" fill="#0079B3"/>
<path d="M38.2861 33.7321H41.78L41.6742 21.8213H49.1912L49.1383 33.6792L52.8439 33.7321L45.3269 42.3079L38.2861 33.7321Z" fill="#0079B3"/>
</svg>
