<?xml version="1.0" encoding="utf-8"?>
<!-- Generator: Adobe Illustrator 19.2.1, SVG Export Plug-In . SVG Version: 6.00 Build 0)  -->
<svg version="1.1" id="Ebene_1" xmlns="http://www.w3.org/2000/svg" xmlns:xlink="http://www.w3.org/1999/xlink" x="0px" y="0px"
	 viewBox="0 0 1000 1000" style="enable-background:new 0 0 1000 1000;" xml:space="preserve">
<style type="text/css">
	.st0{fill:#231F20;}
</style>
<g>
	<path class="st0" d="M500,669.3c24,0,43.5-19.5,43.5-43.5V43.5c0-24-19.5-43.5-43.5-43.5s-43.5,19.5-43.5,43.5v582.2
		C456.5,649.8,476,669.3,500,669.3z"/>
	<path class="st0" d="M500.1,833.7c-0.5,0-1,0.1-1.6,0.1c-45.9,0.7-82.5,38.6-81.7,84.5c0.8,45.5,37.8,81.7,83.2,81.7h1.5
		c45.9-0.8,82.5-38.7,81.7-84.5C582.3,870,545.3,833.7,500.1,833.7z"/>
</g>
</svg>
