<svg xmlns="http://www.w3.org/2000/svg" width="13.864" height="12" viewBox="0 0 13.864 12">
  <path id="Vereinigungsmenge_2" data-name="Vereinigungsmenge 2" d="M-12560.135-3257.8l-1.786,1.787-1.212-1.189,1.8-1.8-1.784-1.785,1.188-1.214,1.8,1.8,1.782-1.784,1.217,1.189-1.8,1.8,1.784,1.784-1.187,1.214Zm-6.908.492a.432.432,0,0,1-.131-.321v-4.062a1,1,0,0,0-.2-.6.011.011,0,0,0,0-.005l-3.537-4.983a.464.464,0,0,1-.037-.479.45.45,0,0,1,.406-.245h9.652a.449.449,0,0,1,.4.245.462.462,0,0,1-.036.479l-3.536,4.983s0,0,0,.005a1.012,1.012,0,0,0-.2.6v3.3a.431.431,0,0,1-.3.424l-1.987.757a.467.467,0,0,1-.177.035A.446.446,0,0,1-12567.043-3257.306Z" transform="translate(12571 3267.999)"/>
</svg>
