<?xml version="1.0" encoding="utf-8"?>
<!-- Generator: Adobe Illustrator 16.0.3, SVG Export Plug-In . SVG Version: 6.00 Build 0)  -->
<!DOCTYPE svg PUBLIC "-//W3C//DTD SVG 1.1//EN" "http://www.w3.org/Graphics/SVG/1.1/DTD/svg11.dtd">
<svg version="1.1" id="Ebene_1" xmlns="http://www.w3.org/2000/svg" xmlns:xlink="http://www.w3.org/1999/xlink" x="0px" y="0px"
	 width="595.477px" height="583.075px" viewBox="0 0 595.477 583.075" enable-background="new 0 0 595.477 583.075"
	 xml:space="preserve">
<path fill="#010202" d="M595.477,161.221H376.245c55.18-18.549,66.68-30.054,70.645-34.022
	c14.07-14.069,21.818-32.782,21.818-52.691c0-19.91-7.748-38.623-21.818-52.691C432.821,7.748,414.108,0,394.198,0
	c-19.908,0-38.621,7.748-52.691,21.817c-4.275,4.277-17.289,17.291-38.461,84.308c-1.887,5.969-3.664,11.817-5.311,17.391
	c-1.647-5.574-3.426-11.422-5.313-17.392c-21.177-67.014-34.176-80.026-38.457-84.311C239.884,7.746,221.169,0,201.269,0
	c-19.903,0-38.613,7.748-52.682,21.817C134.516,35.888,126.764,54.6,126.76,74.505c-0.004,19.916,7.75,38.631,21.822,52.689
	c3.968,3.973,15.469,15.478,70.649,34.026H0v124.213h24.803v297.641h545.871V285.435h24.803V161.221z M570.477,260.435H397.051
	v-74.213h173.426V260.435z M223.427,260.435v-74.213h148.625v74.213H223.427z M372.051,285.435v272.641H223.427V285.435H372.051z
	 M359.184,39.495C368.532,30.147,380.967,25,394.198,25c13.232,0,25.666,5.147,35.014,14.495s14.496,21.782,14.496,35.014
	c0,13.231-5.148,25.666-14.5,35.018c-13.559,13.571-70.594,32.26-114.061,44.035C326.926,110.097,345.618,53.063,359.184,39.495z
	 M151.76,74.511c0.003-13.23,5.154-25.666,14.504-35.016C175.612,30.147,188.043,25,201.269,25c13.228,0,25.668,5.149,35.019,14.49
	c13.546,13.56,32.245,70.6,44.036,114.07c-43.461-11.771-100.489-30.456-114.063-44.043
	C156.907,100.174,151.758,87.742,151.76,74.511z M25,186.221h173.427v74.213H25V186.221z M49.803,285.435h148.624v272.641H49.803
	V285.435z M545.674,558.075H397.051V285.435h148.623V558.075z"/>
</svg>
