<?xml version="1.0" encoding="utf-8"?>
<!-- Generator: Adobe Illustrator 16.0.3, SVG Export Plug-In . SVG Version: 6.00 Build 0)  -->
<!DOCTYPE svg PUBLIC "-//W3C//DTD SVG 1.1//EN" "http://www.w3.org/Graphics/SVG/1.1/DTD/svg11.dtd">
<svg version="1.1" id="Ebene_1" xmlns="http://www.w3.org/2000/svg" xmlns:xlink="http://www.w3.org/1999/xlink" x="0px" y="0px"
	 width="595.281px" height="582.879px" viewBox="0 0 595.281 582.879" enable-background="new 0 0 595.281 582.879"
	 xml:space="preserve">
<g>
	<path fill="#010202" d="M0,161.222h198.427v99.213H0V161.222z"/>
	<path fill="#010202" d="M446.709,21.802C432.645,7.738,413.969,0,394.102,0c-19.869,0-38.57,7.738-52.609,21.802
		c-16.295,16.271-32.963,65.754-43.852,103.504c-10.914-37.75-27.582-87.233-43.852-103.504C239.724,7.738,221.047,0,201.155,0
		c-19.893,0-38.569,7.738-52.633,21.802c-28.995,29.02-28.995,76.221,0,105.216c11.583,11.583,72.5,35.767,74.708,36.56v96.857
		h148.821v-96.857c2.182-0.769,63.1-25.001,74.684-36.56C475.729,98.022,475.729,50.797,446.709,21.802z M166.059,109.482
		c-19.322-19.322-19.322-50.797,0-70.144c9.4-9.375,21.852-14.535,35.097-14.535s25.696,5.159,35.097,14.535
		c13.567,13.567,32.319,72.004,44.075,116.526C236.822,143.065,179.725,123.124,166.059,109.482z M429.172,109.482
		c-13.615,13.642-70.738,33.583-114.268,46.382c11.807-44.521,30.533-102.934,44.125-116.526
		c9.35-9.375,21.826-14.535,35.072-14.535c13.244,0,25.721,5.159,35.07,14.535C448.494,58.685,448.494,90.16,429.172,109.482z"/>
	<path fill="#010202" d="M396.854,161.222h198.428v99.213H396.854V161.222z"/>
	<path fill="#010202" d="M396.854,285.238h173.623v297.641H396.854V285.238z"/>
	<path fill="#010202" d="M24.803,285.238h173.624v297.641H24.803V285.238z"/>
	<path fill="#010202" d="M223.23,285.238h148.821v297.641H223.23V285.238z"/>
</g>
</svg>
