<?xml version="1.0" encoding="UTF-8" standalone="no"?><!DOCTYPE svg PUBLIC "-//W3C//DTD SVG 1.1//EN" "http://www.w3.org/Graphics/SVG/1.1/DTD/svg11.dtd"><svg width="100%" height="100%" viewBox="0 0 51 52" version="1.1" xmlns="http://www.w3.org/2000/svg" xmlns:xlink="http://www.w3.org/1999/xlink" xml:space="preserve" xmlns:serif="http://www.serif.com/" style="fill-rule:evenodd;clip-rule:evenodd;stroke-linejoin:round;stroke-miterlimit:1.41421;"><path d="M26.198,30.705l0,-7.058l23.782,0c0.232,1.23 0.352,2.685 0.352,4.26c0,5.295 -1.447,11.843 -6.112,16.508c-4.538,4.725 -10.335,7.245 -18.015,7.245c-14.235,0 -26.205,-11.595 -26.205,-25.83c0,-14.235 11.97,-25.83 26.205,-25.83c7.875,0 13.485,3.09 17.7,7.118l-4.98,4.98c-3.023,-2.835 -7.117,-5.04 -12.727,-5.04c-10.395,0 -18.525,8.377 -18.525,18.772c0,10.395 8.13,18.773 18.525,18.773c6.742,0 10.582,-2.708 13.042,-5.168c1.995,-1.995 3.308,-4.845 3.825,-8.737l-16.867,0.007Z" style="fill:#fff;fill-rule:nonzero;"/></svg>