<svg width="16" height="16" viewBox="0 0 16 16" fill="none" xmlns="http://www.w3.org/2000/svg">
<g id="Group">
<path id="Vector" d="M5.2 7.22092L3.1 3.33203L1 7.22092" stroke="#888787" stroke-width="1.5" stroke-linecap="round" stroke-linejoin="round"/>
<path id="Vector_2" d="M3.1 9.55208C3.65695 9.55208 4.1911 9.30625 4.58492 8.86867C4.97875 8.43108 5.2 7.83759 5.2 7.21875H1C1 7.83759 1.22125 8.43108 1.61508 8.86867C2.0089 9.30625 2.54305 9.55208 3.1 9.55208Z" stroke="#888787" stroke-width="1.5" stroke-linecap="round" stroke-linejoin="round"/>
<path id="Vector_3" d="M14.9998 7.22092L12.8998 3.33203L10.7998 7.22092" stroke="#888787" stroke-width="1.5" stroke-linecap="round" stroke-linejoin="round"/>
<path id="Vector_4" d="M12.8998 9.55208C13.4568 9.55208 13.9909 9.30625 14.3847 8.86867C14.7786 8.43108 14.9998 7.83759 14.9998 7.21875H10.7998C10.7998 7.83759 11.0211 8.43108 11.4149 8.86867C11.8087 9.30625 12.3429 9.55208 12.8998 9.55208Z" stroke="#888787" stroke-width="1.5" stroke-linecap="round" stroke-linejoin="round"/>
<path id="Vector_5" d="M7.99961 1V15M3.09961 3.33333H12.8996M12.8996 15H3.09961" stroke="#888787" stroke-width="1.5" stroke-linecap="round" stroke-linejoin="round"/>
</g>
</svg>
