<?xml version="1.0" encoding="utf-8"?>
<!-- Generator: Adobe Illustrator 19.1.0, SVG Export Plug-In . SVG Version: 6.00 Build 0)  -->
<svg version="1.1" id="Ebene_1" xmlns="http://www.w3.org/2000/svg" xmlns:xlink="http://www.w3.org/1999/xlink" x="0px" y="0px"
	 viewBox="0 0 1000 1000" style="enable-background:new 0 0 1000 1000;" xml:space="preserve">
<g>
	<path d="M763.5,42.9l-720.2,193c-30.8,8.3-49.2,39.9-41,70.6l163.4,609.9c8.2,30.7,40,49,70.8,40.7l129.9-34.8
		c10.7-2.9,17-13.8,14.1-24.5L367.5,849c-2.9-10.7-13.8-17-24.5-14.2l-28.2,7.6c-12.7,3.4-25.7-4.1-29.1-16.6l-0.9-3.5
		c-3.4-12.5,4.2-25.5,16.9-28.9l125.4-33.6c12.7-3.4,25.7,4.1,29.1,16.6l0.9,3.5c3.4,12.5-4.2,25.5-16.9,28.9l-28.2,7.6
		c-10.7,2.9-17,13.8-14.1,24.5l13.1,48.8c2.9,10.7,13.8,17,24.5,14.2l322.3-86.4c10.7-2.9,17-13.8,14.1-24.5l-13.1-48.8
		c-2.9-10.7-13.8-17-24.5-14.1l-28.2,7.6c-12.7,3.4-25.7-4.1-29.1-16.6l-0.9-3.5c-3.4-12.5,4.2-25.5,16.9-28.9l125.5-33.6
		c12.7-3.4,25.7,4.1,29.1,16.6l0.9,3.5c3.4,12.5-4.2,25.5-16.9,28.9l-28.2,7.6c-10.7,2.9-17,13.8-14.1,24.5l13.1,48.8
		c2.9,10.7,13.8,17,24.5,14.1l129.9-34.8c30.8-8.3,49.2-39.9,41-70.7L834.3,83.5C826.1,52.9,794.3,34.6,763.5,42.9z M887.1,664.7
		l-0.9-3.5c-9.1-33.8-44.1-54-78.1-44.9l-125.4,33.6c-34,9.1-54.2,44-45.2,77.9l0.9,3.5c9.1,33.8,44.1,54,78.1,44.9l8.9-2.4
		l2.7,10.2l-283.7,76l-2.7-10.2l8.9-2.4c34-9.1,54.2-44,45.2-77.9l-0.9-3.5c-9.1-33.8-44.1-54-78.1-44.9l-125.4,33.6
		c-34,9.1-54.2,44-45.2,77.9l0.9,3.5c9.1,33.8,44.1,54,78,44.9l8.9-2.4l2.7,10.2l-110.6,29.6c-9.5,2.6-19.3-3-21.8-12.4L40.9,296.1
		c-2.5-9.4,3.2-19.1,12.7-21.7l720.2-193c9.5-2.5,19.3,3,21.8,12.4l163.4,610c2.5,9.4-3.2,19.1-12.7,21.6l-110.6,29.6l-2.7-10.2
		l8.9-2.4C875.9,733.5,896.1,698.5,887.1,664.7z"/>
	<rect x="576" y="409.3" transform="matrix(-0.9659 0.2588 -0.2588 -0.9659 1467.4098 665.4485)" width="227.8" height="40"/>
	<rect x="595" y="487" transform="matrix(-0.9659 0.2588 -0.2588 -0.9659 1425.1909 826.3934)" width="126.3" height="40"/>
	<rect x="514.6" y="180.2" transform="matrix(-0.9659 0.2588 -0.2588 -0.9659 1287.4215 230.9183)" width="227.8" height="40"/>
	<rect x="530.3" y="238.7" transform="matrix(-0.9659 0.2588 -0.2588 -0.9659 1333.3419 341.7798)" width="227.8" height="40"/>
	<rect x="547.6" y="303.2" transform="matrix(-0.9659 0.2588 -0.2588 -0.9659 1384.0637 464.2333)" width="227.8" height="40"/>
	<path d="M198.8,650.8l321.5-86.1l-89-332.3l-321.5,86.1L198.8,650.8z M298.8,380.8c22.6-6.1,45.9,7.4,51.9,30
		c6.1,22.6-7.4,45.9-30,51.9c-22.6,6.1-45.9-7.4-52-30C262.7,410.2,276.2,386.8,298.8,380.8z M336.5,521.7
		c41.1-11,82.3-1.1,101.7,23.5l-178,47.7C264.6,561.9,295.4,532.8,336.5,521.7z M389.3,400.4c-11.8-43.9-57-70-100.9-58.2
		c-43.9,11.8-70.1,57-58.3,100.9c7.3,27.3,28.5,48.8,54.9,57.2c-33.6,19.7-56.6,49.9-63.3,81.9l-63.1-235.4L403,281.4l63,235.3
		c-21.8-24.4-56.8-39-95.7-39.2C389,456.9,396.6,427.7,389.3,400.4z"/>
</g>
</svg>
