<svg width="261" height="261" viewBox="0 0 261 261" fill="none" xmlns="http://www.w3.org/2000/svg">
<path d="M138.625 103C146.702 103 153.25 96.4522 153.25 88.375C153.25 80.2978 146.702 73.75 138.625 73.75C130.548 73.75 124 80.2978 124 88.375C124 96.4522 130.548 103 138.625 103Z" fill="black"/>
<path d="M103 125.875L104.688 119.438C122.625 112.25 129.555 110.475 137.625 117.25C144.25 122.813 143.521 133.271 141.75 138.938C140.438 146.25 130.375 170.063 135.125 175.313C138.925 179.513 147.292 177.271 151 175.625L149.312 181.875C130.625 189.125 122.375 189.438 115.188 183.5C108.171 177.704 111.292 160.729 114.438 151.875C117.562 144.042 122.619 127.706 117.844 125.031C113.069 122.356 105.958 124.479 103 125.875Z" fill="black"/>
<path d="M130.5 257.5C200.64 257.5 257.5 200.64 257.5 130.5C257.5 60.3598 200.64 3.5 130.5 3.5C60.3598 3.5 3.5 60.3598 3.5 130.5C3.5 200.64 60.3598 257.5 130.5 257.5Z" stroke="black" stroke-width="7"/>
</svg>
