<?xml version="1.0" encoding="utf-8"?>
<!-- Generator: Adobe Illustrator 16.0.0, SVG Export Plug-In . SVG Version: 6.00 Build 0)  -->
<!DOCTYPE svg PUBLIC "-//W3C//DTD SVG 1.1//EN" "http://www.w3.org/Graphics/SVG/1.1/DTD/svg11.dtd">
<svg version="1.1" id="Ebene_1" xmlns="http://www.w3.org/2000/svg" xmlns:xlink="http://www.w3.org/1999/xlink" x="0px" y="0px"
	 width="612px" height="792px" viewBox="0 0 612 792" enable-background="new 0 0 612 792" xml:space="preserve">
<path d="M267.75,357.75h76.5v210.406h-76.5V357.75z M306,223.905c15.483,0,29.438,9.303,35.313,23.623
	c5.937,14.321,2.632,30.784-8.323,41.678c-10.954,10.955-27.417,14.198-41.677,8.323c-14.321-5.937-23.623-19.891-23.623-35.313
	C267.75,240.98,284.887,223.905,306,223.905z M306,702c81.151,0,158.998-32.252,216.403-89.597C579.748,554.998,612,477.151,612,396
	s-32.252-158.998-89.597-216.403C464.998,122.252,387.152,90,306,90c-81.15,0-158.997,32.252-216.402,89.597
	C32.253,237.002,0,314.849,0,396s32.253,158.998,89.598,216.403C147.003,669.748,224.85,702,306,702z"/>
</svg>
