<?xml version="1.0" encoding="utf-8"?>
<!-- Generator: Adobe Illustrator 19.2.1, SVG Export Plug-In . SVG Version: 6.00 Build 0)  -->
<svg version="1.1" id="Ebene_1" xmlns="http://www.w3.org/2000/svg" xmlns:xlink="http://www.w3.org/1999/xlink" x="0px" y="0px"
	 viewBox="0 0 1000 1000" style="enable-background:new 0 0 1000 1000;" xml:space="preserve">
<g class="invoizLogoSmall">
	<path style="fill:#FFFFFF;" d="M131.7,192.7c-54.5,0-99.2-40.5-99.2-95C32.5,41.9,77.2,0,131.7,0c55.9,0,100.6,41.9,100.6,97.8
		C232.2,152.2,187.5,192.7,131.7,192.7z M261.6,969.3c0,15.4-14,29.3-67,30.7c-89.4,0-141.1-50.3-141.1-162V342.2
		c0-16.8,8.4-25.1,25.1-25.1h102c16.8,0,25.1,9.8,25.1,25.1V817c0,39.1,12.6,58.7,39.1,62.8c7,1.4,16.8,5.6,16.8,22.3V969.3z"/>
	<path style="fill:#FFFFFF;" d="M590.3,994.4c-25.1,0-33.5-9.8-44.7-39.1L315.2,350.6c-7-15.4,5.6-29.3,22.3-29.3h110.3
		c16.8,0,23.7,8.4,29.3,22.3L642,819.8l167.6-476.3c5.6-14,14-22.3,29.3-22.3h104.7c16.8,0,27.9,14,22.3,29.3L735.6,955.3
		c-11.2,29.3-22.3,39.1-46.1,39.1H590.3z"/>
</g>
</svg>
