<svg width="18" height="18" viewBox="0 0 18 18" fill="none" xmlns="http://www.w3.org/2000/svg">
<g id="invoice-svgrepo-com 1">
<path id="Vector" d="M6.12012 8.40375H12.0376V9.81H6.12012V8.40375ZM6.12012 11.0588H12.0376V12.465H6.12012V11.0588ZM6.12012 5.70375H12.0376V7.11H6.12012V5.70375Z" fill="#00A353"/>
<path id="Vector_2" d="M12.7576 1.125L10.8451 0.315L9.09008 1.125L7.21133 0.315L5.44508 1.125L2.76758 0V18L5.44508 16.875L7.21133 17.6512L9.09008 16.875L10.8451 17.6512L12.7576 16.875L15.2326 18V0L12.7576 1.125ZM13.8151 15.8737L12.7801 15.4125L10.8788 16.1888L9.11258 15.3787L7.22258 16.155L5.47883 15.3787L4.18508 15.9075V2.0925L5.47883 2.62125L7.22258 1.845L9.11258 2.62125L10.8788 1.845L12.7801 2.62125L13.8151 2.16V15.8737Z" fill="#00A353"/>
</g>
</svg>
