<svg id="Ebene_1" data-name="Ebene 1" xmlns="http://www.w3.org/2000/svg" viewBox="0 0 1000 1000"><path d="M929.92,874.86c9.71,15.5,5.37,36.73-9.78,47-66,44.61-155.25,77.21-257.86,77.21-199.71,0-377.35-105-452.9-290.36a33.44,33.44,0,0,0-30.93-20.92H99.34A34.44,34.44,0,0,1,64.9,653.33V584.27a34.44,34.44,0,0,1,34.44-34.44h72.6c-1.44-26.4-1.44-33.76-1.44-46.86,0-11.87,0-23.54,1.44-47.07H99.34A34.44,34.44,0,0,1,64.9,421.46V352.4A34.44,34.44,0,0,1,99.34,318h79.07A33.44,33.44,0,0,0,209.35,297C285.17,110.23,466.88,1,662.28,1c92,0,163.36,18.43,223.57,50.61C902,60.2,908.62,80.84,900.61,97.31L856.52,188c-8.53,17.54-30,25.33-47.72,17.11-41-19-91-28.18-146.52-28.18-99.87,0-195.24,44.2-248,141H697.43a34.42,34.42,0,0,1,34.43,34.64l-.41,69.07A34.43,34.43,0,0,1,697,455.9H376c-2.86,20.67-2.86,32.33-2.86,48.5,0,8.8,0,19,2.86,45.43H682.06a34.44,34.44,0,0,1,34.44,34.59l-.31,69.07a34.44,34.44,0,0,1-34.43,34.28H418.54C469.91,777.41,561,820,662.28,820c64.68,0,121.57-15.69,165.78-43.06a34.46,34.46,0,0,1,47.27,10.85Z"/></svg>