<svg width="790" height="999" viewBox="0 0 790 999" fill="none" xmlns="http://www.w3.org/2000/svg">
<path fill-rule="evenodd" clip-rule="evenodd" d="M80.0605 0.0693359C35.8778 0.0693359 0.0605469 35.8866 0.0605469 80.0694V918.269C0.0605469 962.452 35.8778 998.269 80.0605 998.269H709.373C753.556 998.269 789.373 962.452 789.373 918.269V80.0693C789.373 35.8866 753.556 0.0693359 709.373 0.0693359H80.0605ZM173.27 758.323C215.609 797.234 270.178 822.007 326.532 832.199C336.75 832.176 364.796 824.185 369.411 799.089C375.172 767.768 345.528 752.726 329.985 749.12L329.15 748.911C328.766 748.816 328.381 748.72 327.996 748.623C308.18 743.599 288.972 736.305 270.793 726.978C253.712 717.281 237.73 705.73 223.131 692.535C208.759 678.308 195.995 662.55 185.142 645.537C175.273 628.472 167.287 610.36 161.343 591.564C156.119 572.201 153.058 552.342 152.269 532.339C152.336 512.475 154.59 492.696 158.994 473.366C163.985 455.035 170.916 437.274 179.598 420.34C189.28 403.307 200.807 387.367 213.97 372.804C228.196 358.432 243.954 345.668 260.967 334.814C278.032 324.945 296.145 316.959 314.941 311.015C334.304 305.791 354.163 302.73 374.167 301.942C394.03 302.008 413.809 304.262 433.139 308.666C451.47 313.657 469.231 320.589 486.165 329.27C503.198 338.952 519.138 350.479 533.701 363.642C548.073 377.869 560.837 393.627 571.691 410.64C581.56 427.705 589.546 445.817 595.489 464.613C600.714 483.976 603.775 503.835 604.563 523.839C604.562 524.318 604.559 524.797 604.555 525.276C599.397 518.405 594.239 511.534 589.082 504.662C582.524 495.947 572.061 491.366 561.675 489.691C550.672 487.987 539.596 492.269 530.853 498.764C522.749 504.826 517.038 516.315 515.883 526.171C514.64 537.196 518.37 548.214 524.955 556.992C527.793 560.863 530.693 564.707 533.594 568.55L533.599 568.556C553.319 594.804 573.064 621.11 592.811 647.418C593.634 648.675 594.537 649.873 595.509 651.014L595.541 651.055C600.04 657.035 606.378 661.069 613.269 663.553C615.336 664.405 617.555 665.028 619.856 665.44C620.884 665.665 621.916 665.86 622.948 666.026C629.834 667.114 637.137 665.674 643.715 662.814C643.9 662.736 644.083 662.657 644.266 662.577C645.084 662.216 645.893 661.823 646.692 661.399C649.219 660.093 651.602 658.588 653.769 656.953C657.64 654.116 661.483 651.215 665.327 648.315L665.333 648.31C692.791 627.681 720.311 607.025 747.832 586.368C756.484 579.838 761.065 569.376 762.803 558.961C764.507 547.958 760.225 536.883 753.73 528.14C747.668 520.035 736.179 514.324 726.323 513.169C715.298 511.927 704.28 515.656 695.502 522.242C692.55 524.405 689.614 526.606 686.682 528.815C686.7 524.169 686.637 519.507 686.504 514.828C685.803 487.777 680.259 461.881 672.615 436.007C665.949 413.546 656.423 392.12 644.267 372.081C630.195 348.892 614.591 327.358 594.904 308.53C575.127 289.666 554.44 273.013 530.403 259.872C516.685 252.355 502.792 245.293 488.117 239.706C473.532 234.155 458.44 230.184 443.234 226.64C416.453 220.438 389.253 219.095 361.843 220.18C334.868 221.225 308.964 226.922 283.23 234.882C257.558 242.814 234.186 254.932 211.396 269.055C188.381 283.352 168.627 301.11 150.198 320.847C131.41 340.968 116.832 363.453 103.992 387.659C90.877 412.439 82.3442 438.89 76.3295 466.266C70.4356 493.061 69.1829 520.297 70.6118 547.631C71.9721 574.467 77.879 600.504 86.0631 626.064C94.2471 651.625 106.52 675.005 120.867 697.62C135.389 720.46 153.372 740.04 173.27 758.323ZM476.61 486.2C475.354 484.948 473.749 484.325 471.799 484.329L436.04 484.408C433.643 472.846 429.16 462.814 422.589 454.325L471.312 454.217C473.267 454.213 474.866 453.582 476.12 452.328C477.366 451.071 477.989 449.465 477.985 447.514L477.938 426.179C477.934 424.226 477.304 422.625 476.052 421.373C474.79 420.123 473.189 419.497 471.234 419.502L297.246 419.885C295.293 419.89 293.692 420.522 292.44 421.777C291.191 423.035 290.565 424.638 290.569 426.591L290.631 454.404C290.635 456.216 291.3 457.783 292.627 459.104C293.955 460.426 295.524 461.084 297.336 461.08L327.66 461.013C357.074 460.949 375.774 468.782 383.754 484.52L297.389 484.71C295.436 484.715 293.833 485.344 292.583 486.602C291.334 487.861 290.708 489.463 290.712 491.416L290.759 512.748C290.764 514.7 291.393 516.302 292.651 517.551C293.909 518.805 295.515 519.426 297.465 519.422L386.763 519.225C383.721 530.667 376.594 539.394 365.383 545.414C354.171 551.435 339.368 554.465 320.965 554.506L297.543 554.558C295.73 554.562 294.164 555.228 292.842 556.555C291.52 557.882 290.862 559.453 290.866 561.263L290.925 587.825C290.929 589.64 291.559 591.171 292.816 592.422C319.645 620.803 354.449 660.526 397.222 711.602C398.482 713.273 400.226 714.104 402.457 714.099L443.234 714.01C446.165 714.003 448.185 712.748 449.291 710.231C450.68 707.718 450.401 705.348 448.439 703.122C407.624 653.299 375.543 616.007 352.206 591.244C375.901 588.404 395.123 580.691 409.875 568.114C424.624 555.535 433.579 539.2 436.743 519.118L471.876 519.041C473.826 519.036 475.429 518.407 476.679 517.149C477.932 515.894 478.557 514.289 478.553 512.338L478.506 491.008C478.501 489.053 477.869 487.452 476.61 486.2Z" fill="black"/>
<path fill-rule="evenodd" clip-rule="evenodd" d="M604.544 519.581V519.582C604.558 520.251 604.572 520.921 604.585 521.589M604.544 519.582C604.558 520.251 604.572 520.921 604.585 521.589Z" fill="black"/>
</svg>
