<svg width="790" height="999" viewBox="0 0 790 999" fill="none" xmlns="http://www.w3.org/2000/svg">
<path fill-rule="evenodd" clip-rule="evenodd" d="M80.2109 0.0693359C36.0282 0.0693359 0.210938 35.8866 0.210938 80.0694V918.269C0.210938 962.452 36.0281 998.269 80.2109 998.269H709.523C753.706 998.269 789.523 962.452 789.523 918.269V80.0693C789.523 35.8866 753.706 0.0693359 709.523 0.0693359H80.2109ZM173.42 758.323C215.759 797.234 270.328 822.007 326.682 832.199C336.9 832.176 364.946 824.185 369.562 799.089C375.322 767.768 345.678 752.726 330.136 749.12L329.763 749.027L329.3 748.911C328.916 748.816 328.532 748.72 328.146 748.623C308.33 743.599 289.122 736.305 270.943 726.978C253.863 717.281 237.88 705.73 223.281 692.535C208.91 678.308 196.145 662.55 185.292 645.537C175.423 628.472 167.437 610.36 161.494 591.564C156.269 572.201 153.208 552.342 152.42 532.339C152.486 512.475 154.74 492.696 159.144 473.366C164.135 455.035 171.067 437.274 179.748 420.34C189.43 403.307 200.957 387.367 214.12 372.804C228.347 358.432 244.104 345.668 261.118 334.814C278.183 324.945 296.295 316.959 315.092 311.015C334.455 305.791 354.314 302.73 374.317 301.942C394.181 302.008 413.959 304.262 433.29 308.666C451.62 313.657 469.381 320.589 486.315 329.27C503.349 338.952 519.288 350.479 533.851 363.642C548.223 377.869 560.988 393.627 571.841 410.64C581.71 427.705 589.696 445.817 595.64 464.613C600.864 483.976 603.925 503.835 604.714 523.839C604.712 524.318 604.709 524.797 604.705 525.276C599.548 518.405 594.39 511.534 589.232 504.662C582.674 495.947 572.212 491.366 561.825 489.691C550.822 487.987 539.747 492.269 531.004 498.764C522.899 504.826 517.188 516.315 516.033 526.171C514.791 537.196 518.52 548.214 525.106 556.992C527.943 560.863 530.844 564.707 533.744 568.55L533.749 568.556C553.469 594.804 573.215 621.11 592.961 647.418C593.784 648.675 594.688 649.873 595.66 651.014L595.691 651.055C600.191 657.035 606.529 661.069 613.419 663.553C615.486 664.405 617.705 665.028 620.006 665.44C621.035 665.665 622.067 665.86 623.098 666.026C629.985 667.114 637.288 665.674 643.865 662.814C644.05 662.736 644.234 662.657 644.416 662.577C645.234 662.216 646.044 661.823 646.842 661.399C649.369 660.093 651.752 658.588 653.919 656.953C657.79 654.116 661.634 651.215 665.477 648.315L665.483 648.31C692.941 627.681 720.462 607.025 747.983 586.368C756.635 579.838 761.215 569.376 762.953 558.961C764.658 547.958 760.375 536.883 753.881 528.14C747.818 520.035 736.33 514.324 726.474 513.169C715.449 511.927 704.431 515.656 695.652 522.242C692.7 524.405 689.764 526.606 686.833 528.815C686.851 524.169 686.787 519.507 686.655 514.828C685.953 487.777 680.41 461.881 672.766 436.007C666.1 413.546 656.574 392.12 644.418 372.081C630.345 348.892 614.741 327.358 595.055 308.53C575.277 289.666 554.59 273.013 530.553 259.872C516.836 252.355 502.942 245.293 488.267 239.706C473.683 234.155 458.59 230.184 443.384 226.64C416.604 220.438 389.404 219.095 361.994 220.18C335.018 221.225 309.115 226.922 283.38 234.882C257.709 242.814 234.336 254.932 211.546 269.055C188.532 283.352 168.777 301.11 150.348 320.847C131.561 340.968 116.982 363.453 104.142 387.659C91.0274 412.439 82.4945 438.89 76.4799 466.266C70.5859 493.061 69.3333 520.297 70.7622 547.631C72.1224 574.467 78.0294 600.504 86.2134 626.064C94.3975 651.625 106.67 675.005 121.017 697.62C135.539 720.46 153.522 740.04 173.42 758.323ZM476.761 486.2C475.505 484.948 473.899 484.325 471.95 484.329L436.191 484.408C433.794 472.846 429.31 462.814 422.739 454.325L471.463 454.217C473.418 454.213 475.016 453.582 476.271 452.328C477.516 451.071 478.14 449.465 478.135 447.514L478.088 426.179C478.084 424.226 477.454 422.625 476.203 421.373C474.941 420.123 473.34 419.497 471.385 419.502L297.396 419.885C295.443 419.89 293.843 420.522 292.59 421.777C291.341 423.035 290.715 424.638 290.72 426.591L290.781 454.404C290.785 456.216 291.451 457.783 292.778 459.104C294.105 460.426 295.675 461.084 297.487 461.08L327.81 461.013C357.225 460.949 375.924 468.782 383.905 484.52L297.539 484.71C295.586 484.715 293.984 485.344 292.733 486.602C291.484 487.861 290.858 489.463 290.863 491.416L290.91 512.748C290.914 514.7 291.544 516.302 292.801 517.551C294.059 518.805 295.666 519.426 297.616 519.422L386.913 519.225C383.871 530.667 376.744 539.394 365.533 545.414C354.322 551.435 339.519 554.465 321.115 554.506L297.693 554.558C295.881 554.562 294.314 555.228 292.993 556.555C291.671 557.882 291.013 559.453 291.017 561.263L291.075 587.825C291.079 589.64 291.709 591.171 292.966 592.422C319.795 620.803 354.599 660.526 397.372 711.602C398.632 713.273 400.376 714.104 402.607 714.099L443.385 714.01C446.315 714.003 448.336 712.748 449.442 710.231C450.83 707.718 450.552 705.348 448.589 703.122C407.775 653.299 375.694 616.007 352.356 591.244C376.051 588.404 395.274 580.691 410.025 568.114C424.774 555.535 433.729 539.2 436.894 519.118L472.026 519.041C473.976 519.036 475.579 518.407 476.829 517.149C478.083 515.894 478.707 514.289 478.703 512.338L478.656 491.008C478.652 489.053 478.02 487.452 476.761 486.2Z" fill="black"/>
</svg>
