<svg id="Ebene_1" data-name="Ebene 1" xmlns="http://www.w3.org/2000/svg" viewBox="0 0 638.26 845.42"><defs><style>.cls-1{fill-rule:evenodd;}</style></defs><title>Issue refund</title><path class="cls-1" d="M817.18,903.06H247.43a34.25,34.25,0,0,1-34.26-34.25V91.9a34.26,34.26,0,0,1,34.26-34.25H817.18A34.26,34.26,0,0,1,851.43,91.9V868.81A34.25,34.25,0,0,1,817.18,903.06ZM332.39,530c-36.45-118,48.16-232.89,166.32-246.52C644.28,266.67,698.4,416,698.4,416c5.6,11.2,9.33,54.12,9.33,54.12L692.8,451.43c-14.93-14.93-35.46-13.06-50.39,0s-9.33,35.46-9.33,35.46,46.65,67.18,67.18,91.44,46.66,7.47,46.66,7.47l26.13-20.53,52.25-39.19s9.33-3.73,14.93-22.4c5.88-19.57-8.88-39.46-28.46-42.36a36.2,36.2,0,0,0-32.53,12.47c-3.63-147-140.33-284.28-291.73-261.24-85.85,13.06-130.64,52.25-149.3,69.05s-37.33,42.92-44.79,54.12-18.66,37.33-18.66,37.33c-7.47,13.06-14.93,46.65-14.93,46.65-26.25,117,38.71,245.62,149.31,293,13.07,5.6,35.45,13.06,35.45,13.06s16.79,5.6,28,5.6a33.44,33.44,0,0,0,18.66-5.6c13.07-5.6,16.8-20.53,16.8-20.53,7.46-33.59-31.73-44.79-31.73-44.79C409.15,650.86,351.85,593,332.39,530ZM603,467.48h.22V449a5.64,5.64,0,0,0-5.83-5.83h-30.9a62.67,62.67,0,0,0-11.6-26H597a5.63,5.63,0,0,0,4.18-1.65,5.84,5.84,0,0,0,1.59-4.18V393a5.6,5.6,0,0,0-1.59-4.18,5.66,5.66,0,0,0-4.18-1.64H446.75a5.63,5.63,0,0,0-5.83,5.82v24a5.49,5.49,0,0,0,1.71,4.07,5.78,5.78,0,0,0,4.07,1.7h26.17q38.1,0,48.38,20.4H446.64a5.64,5.64,0,0,0-5.83,5.83v18.41a5.64,5.64,0,0,0,5.83,5.83h77.14c-2.64,9.84-8.86,17.37-18.53,22.54s-22.49,7.75-38.38,7.75H446.64a5.49,5.49,0,0,0-4.07,1.71,5.78,5.78,0,0,0-1.7,4.07v23a5.4,5.4,0,0,0,1.65,4q34.64,36.78,89.89,103.08a5.35,5.35,0,0,0,4.5,2.15H572.1a5.2,5.2,0,0,0,5.22-3.25,4.92,4.92,0,0,0-.71-6.15q-52.7-64.66-82.85-96.76,30.68-3.56,49.81-19.85c12.75-10.89,20.45-25,23.25-42.28h30.35a5.64,5.64,0,0,0,5.83-5.83Z" transform="translate(-213.17 -57.65)"/></svg>