<svg width="17" height="17" viewBox="0 0 17 17" fill="none" xmlns="http://www.w3.org/2000/svg">
<path d="M7.79297 7.77738C7.79297 7.38618 8.1101 7.06905 8.5013 7.06905C8.89251 7.06905 9.20964 7.38618 9.20964 7.77738V12.0274C9.20964 12.4186 8.89251 12.7357 8.5013 12.7357C8.1101 12.7357 7.79297 12.4186 7.79297 12.0274V7.77738Z" fill="#FFAA2C"/>
<path d="M8.5013 4.28656C8.1101 4.28656 7.79297 4.60369 7.79297 4.99489C7.79297 5.38609 8.1101 5.70322 8.5013 5.70322C8.89251 5.70322 9.20964 5.38609 9.20964 4.99489C9.20964 4.60369 8.89251 4.28656 8.5013 4.28656Z" fill="#FFAA2C"/>
<path fill-rule="evenodd" clip-rule="evenodd" d="M8.5013 1.41699C4.58929 1.41699 1.41797 4.58831 1.41797 8.50033C1.41797 12.4123 4.58929 15.5837 8.5013 15.5837C12.4133 15.5837 15.5846 12.4123 15.5846 8.50033C15.5846 4.58831 12.4133 1.41699 8.5013 1.41699ZM2.83464 8.50033C2.83464 11.6299 5.37169 14.167 8.5013 14.167C11.6309 14.167 14.168 11.6299 14.168 8.50033C14.168 5.37071 11.6309 2.83366 8.5013 2.83366C5.37169 2.83366 2.83464 5.37071 2.83464 8.50033Z" fill="#FFAA2C"/>
</svg>
