<svg width="15" height="15" viewBox="0 0 15 15" fill="none" xmlns="http://www.w3.org/2000/svg">
<path d="M6.75 6.73453C6.75 6.32031 7.08579 5.98453 7.5 5.98453C7.91421 5.98453 8.25 6.32031 8.25 6.73453V11.2345C8.25 11.6487 7.91421 11.9845 7.5 11.9845C7.08579 11.9845 6.75 11.6487 6.75 11.2345V6.73453Z" fill="#ADADAD"/>
<path d="M7.5 3.03836C7.08579 3.03836 6.75 3.37415 6.75 3.78836C6.75 4.20257 7.08579 4.53836 7.5 4.53836C7.91421 4.53836 8.25 4.20257 8.25 3.78836C8.25 3.37415 7.91421 3.03836 7.5 3.03836Z" fill="#ADADAD"/>
<path fill-rule="evenodd" clip-rule="evenodd" d="M7.5 0C3.35786 0 0 3.35786 0 7.5C0 11.6421 3.35786 15 7.5 15C11.6421 15 15 11.6421 15 7.5C15 3.35786 11.6421 0 7.5 0ZM1.5 7.5C1.5 10.8137 4.18629 13.5 7.5 13.5C10.8137 13.5 13.5 10.8137 13.5 7.5C13.5 4.18629 10.8137 1.5 7.5 1.5C4.18629 1.5 1.5 4.18629 1.5 7.5Z" fill="#ADADAD"/>
</svg>
