<?xml version="1.0" encoding="utf-8"?>
<!-- Generator: Adobe Illustrator 23.0.4, SVG Export Plug-In . SVG Version: 6.00 Build 0)  -->
<svg version="1.1" id="Layer_1" xmlns="http://www.w3.org/2000/svg" xmlns:xlink="http://www.w3.org/1999/xlink" x="0px" y="0px"
	 viewBox="0 0 1000 1000" style="enable-background:new 0 0 1000 1000;" xml:space="preserve">
<g>
	<g>
		<path d="M842.9,143H741h-26.7v128.5c0,23.7-19.2,42.9-42.9,42.9H328.6c-23.7,0-42.9-19.2-42.9-42.9V143H157.1
			c-23.7,0-42.9,19.2-42.9,42.9v771.3c0,23.7,19.2,42.9,42.9,42.9h685.7c23.7,0,42.9-19.2,42.9-42.9V185.8
			C885.7,162.2,866.5,143,842.9,143z M358.9,816c-8,8-19,12.5-30.3,12.5c-11.3,0-22.3-4.6-30.3-12.5c-8-8-12.5-19-12.5-30.3
			c0-11.3,4.6-22.3,12.5-30.3c8-8,19-12.5,30.3-12.5c11.3,0,22.3,4.6,30.3,12.5c8,8,12.5,19,12.5,30.3
			C371.4,797,366.9,808,358.9,816z M358.9,644.6c-8,8-19,12.5-30.3,12.5c-11.3,0-22.3-4.6-30.3-12.5c-8-8-12.5-19-12.5-30.3
			c0-11.3,4.6-22.3,12.5-30.3c8-8,19-12.5,30.3-12.5c11.3,0,22.3,4.6,30.3,12.5c8,8,12.5,19,12.5,30.3
			C371.4,625.6,366.9,636.6,358.9,644.6z M358.9,473.2c-8,8-19,12.5-30.3,12.5c-11.3,0-22.3-4.6-30.3-12.5c-8-8-12.5-19-12.5-30.3
			s4.6-22.3,12.5-30.3c8-8,19-12.5,30.3-12.5c11.3,0,22.3,4.6,30.3,12.5c8,8,12.5,19,12.5,30.3S366.9,465.2,358.9,473.2z
			 M671.4,828.6H500c-23.7,0-42.9-19.2-42.9-42.9c0-23.7,19.2-42.9,42.9-42.9h171.4c23.7,0,42.9,19.2,42.9,42.9
			C714.3,809.4,695.1,828.6,671.4,828.6z M671.4,657.1H500c-23.7,0-42.9-19.2-42.9-42.9c0-23.7,19.2-42.9,42.9-42.9h171.4
			c23.7,0,42.9,19.2,42.9,42.9C714.3,638,695.1,657.1,671.4,657.1z M671.4,485.7H500c-23.7,0-42.9-19.2-42.9-42.9S476.3,400,500,400
			h171.4c23.7,0,42.9,19.2,42.9,42.9S695.1,485.7,671.4,485.7z"/>
	</g>
</g>
<g>
	<g>
		<path d="M585.7,142.9c-23.7,0-42.9-19.2-42.9-42.9V42.9C542.9,19.2,523.6,0,500,0c-23.6,0-42.9,19.2-42.9,42.9V100
			c0,23.7-19.2,42.9-42.9,42.9h-42.9v0.1v85.6h257.1V143v-0.1H585.7z"/>
	</g>
</g>
</svg>
