<?xml version="1.0" encoding="utf-8"?>
<!-- Generator: Adobe Illustrator 22.1.0, SVG Export Plug-In . SVG Version: 6.00 Build 0)  -->
<svg version="1.1" id="Ebene_1" xmlns="http://www.w3.org/2000/svg" xmlns:xlink="http://www.w3.org/1999/xlink" x="0px" y="0px"
	 viewBox="0 0 1000 1000" style="enable-background:new 0 0 1000 1000;" xml:space="preserve">
<path d="M922.3,453.1L734.6,640.8c-103.6,103.7-271.7,103.7-375.3,0c-16.3-16.3-29.1-34.6-40.3-53.5l87.2-87.2
	c4.1-4.2,9.2-6.6,14.1-9.4c6,20.6,16.5,40.1,32.8,56.3c51.8,51.8,135.9,51.7,187.7,0l187.7-187.7c51.8-51.8,51.8-135.9,0-187.7
	c-51.7-51.8-135.9-51.8-187.7,0L574,238.4c-54.1-21.1-112.5-26.7-169.3-18.5L546.9,77.7c103.7-103.6,271.7-103.6,375.4,0
	C1025.9,181.4,1025.9,349.4,922.3,453.1L922.3,453.1z M426,761.7l-66.8,66.8c-51.8,51.7-135.9,51.7-187.7,0
	c-51.8-51.8-51.8-135.9,0-187.7l187.7-187.7c51.8-51.8,135.9-51.8,187.7,0c16.2,16.2,26.7,35.7,32.8,56.2c4.9-2.9,10-5.2,14.1-9.3
	l87.2-87.2c-11.2-19-24-37.2-40.3-53.5c-103.6-103.6-271.7-103.6-375.4,0L77.7,546.9c-103.6,103.7-103.6,271.7,0,375.4
	c103.6,103.6,271.7,103.6,375.4,0l142.2-142.2C538.5,788.4,480.1,782.7,426,761.7L426,761.7z"/>
</svg>
