<?xml version="1.0" encoding="utf-8"?>
<!-- Generator: Adobe Illustrator 22.0.1, SVG Export Plug-In . SVG Version: 6.00 Build 0)  -->
<svg version="1.1" id="Ebene_1" xmlns="http://www.w3.org/2000/svg" xmlns:xlink="http://www.w3.org/1999/xlink" x="0px" y="0px"
	 viewBox="0 0 1260 1000" style="enable-background:new 0 0 1260 1000;" xml:space="preserve">
<g>
	<g id="C9IN8X.tif">
		<path d="M1115.9,541.9H750.6v-83.5h365.7c-3.8-3.9-5.6-6-7.6-8c-29.1-29-58.2-57.9-87.2-86.9c-11.8-11.7-17.7-25.3-13.6-42.2
			c7.5-30.3,42.7-41.9,66.7-21.9c2.9,2.4,5.6,5,8.2,7.7c53.1,53.1,106.2,106.2,159.3,159.3c21.7,21.7,21.8,45.2,0.2,66.8
			c-54.2,54.2-108.5,108.5-162.7,162.8c-11.3,11.3-24.6,17.2-40.7,13.4c-32.2-7.6-43.9-45.5-20.9-69.3c27.2-28.2,55.3-55.5,83-83.1
			C1105.6,552.5,1110,548,1115.9,541.9z"/>
	</g>
	<path d="M405.9,540.8c-18.8,0.1-34.2-15.1-34.3-33.9v-18.1c0-18.8,15.3-34.1,34.2-34l346.3-0.7l-0.7-362.3
		C751.3,41.1,709.8,0,658.7,0.1L92.6,1.2C41.5,1.3,1.4,42.5,1.5,93.3l0.2,814.9c0.1,50.8,41.6,91.8,92.7,91.7l566.1-1.1
		c51.1-0.1,92.5-41.3,92.4-92.1l-0.7-366.6L405.9,540.8z"/>
</g>
</svg>
