<?xml version="1.0" encoding="utf-8"?>
<!-- Generator: Adobe Illustrator 22.1.0, SVG Export Plug-In . SVG Version: 6.00 Build 0)  -->
<svg version="1.1" id="Ebene_1" xmlns="http://www.w3.org/2000/svg" xmlns:xlink="http://www.w3.org/1999/xlink" x="0px" y="0px"
	 viewBox="0 0 1000 1000" style="enable-background:new 0 0 1000 1000;" xml:space="preserve">
<path d="M562.5,562.5h-125V218.7h125V562.5z M500,781.2c-25.3,0-48.1-15.2-57.7-38.6c-9.7-23.4-4.3-50.3,13.6-68.1
	c17.9-17.9,44.8-23.2,68.1-13.6c23.4,9.7,38.6,32.5,38.6,57.7C562.5,753.3,534.5,781.2,500,781.2z M500,0
	C367.4,0,240.2,52.7,146.4,146.4C52.7,240.2,0,367.4,0,500s52.7,259.8,146.4,353.6C240.2,947.3,367.4,1000,500,1000
	s259.8-52.7,353.6-146.4C947.3,759.8,1000,632.6,1000,500s-52.7-259.8-146.4-353.6C759.8,52.7,632.6,0,500,0z"/>
</svg>
