<svg width="18" height="18" viewBox="0 0 18 18" fill="none" xmlns="http://www.w3.org/2000/svg">
<path d="M3.48328 2.0283C3.36178 2.0607 3.21058 2.19 3.13507 2.32222C3.00036 2.56024 1.79492 5.23807 1.40072 6.17864C1.02952 7.05748 1 7.1573 1 7.51894C1.00326 8.1421 1.18723 8.58006 1.62091 8.96796C2.44861 9.7086 3.75598 9.7086 4.58368 8.96796C4.86942 8.70936 5.08291 8.3683 5.14864 8.05979C5.16838 7.95982 5.19464 7.87751 5.20442 7.87751C5.2142 7.87751 5.24063 7.95982 5.26019 8.05979C5.36865 8.55948 5.81863 9.07684 6.35407 9.31486C6.98476 9.59112 7.62866 9.59112 8.25935 9.31486C8.7948 9.07684 9.24477 8.55948 9.35323 8.05979C9.37297 7.95982 9.39923 7.87751 9.40901 7.87751C9.41879 7.87751 9.44505 7.95982 9.46478 8.05979C9.57325 8.55948 10.0232 9.07684 10.5587 9.31486C11.1894 9.59112 11.8333 9.59112 12.4639 9.31486C12.9994 9.07684 13.4494 8.55948 13.5578 8.05979C13.5776 7.95982 13.6038 7.87751 13.6136 7.87751C13.6234 7.87751 13.6496 7.95982 13.6694 8.05979C13.7351 8.36845 13.9486 8.70936 14.2343 8.96796C15.0624 9.7086 16.3698 9.7086 17.1975 8.96796C17.6311 8.57991 17.8151 8.14195 17.8184 7.51894C17.8184 7.15745 17.7888 7.05457 17.4242 6.1874C17.0167 5.22041 15.8178 2.55732 15.6831 2.32222C15.6009 2.18109 15.4531 2.06362 15.3184 2.0283C15.1774 1.99006 3.618 1.99298 3.48328 2.0283Z" fill="#272D30"/>
<path d="M4.85691 9.63259C4.46597 9.91177 3.96022 10.1088 3.43456 10.1911C3.05357 10.2528 2.51143 10.2323 2.17318 10.147C2.04172 10.1117 1.92022 10.0853 1.90048 10.0853C1.87748 10.0853 1.90194 10.7868 1.90194 12.4034L1.90122 16.8106H5.40882L9.22573 16.8164V14.1417C9.22573 11.1848 9.21252 11.3493 9.4327 11.2318C9.53447 11.1759 9.61015 11.173 11.3215 11.173C13.2891 11.173 13.2366 11.1671 13.3646 11.3582C13.4271 11.4492 13.4303 11.5257 13.4303 14.1358V16.8193L15.1484 16.8106H16.5839V14.9264V12.5073C16.5839 10.8907 16.5742 10.0853 16.5512 10.0853C16.5314 10.0853 16.4099 10.1117 16.2785 10.1441C15.431 10.3586 14.4094 10.1734 13.6309 9.65915L13.4272 9.52402L13.2268 9.65915C12.0902 10.4234 10.5858 10.4234 9.42618 9.65915L9.22247 9.52402L9.02202 9.65915C7.88867 10.4205 6.38103 10.4234 5.22485 9.66207C5.11313 9.5856 5.01788 9.52678 5.01136 9.52678C5.00793 9.52678 4.93894 9.57377 4.85691 9.63259Z" fill="#272D30"/>
</svg>
