<?xml version="1.0" encoding="utf-8"?>
<!-- Generator: Adobe Illustrator 22.1.0, SVG Export Plug-In . SVG Version: 6.00 Build 0)  -->
<svg version="1.1" id="Ebene_1" xmlns="http://www.w3.org/2000/svg" xmlns:xlink="http://www.w3.org/1999/xlink" x="0px" y="0px"
	 viewBox="0 0 1000 1000" style="enable-background:new 0 0 1000 1000;" xml:space="preserve">
<path id="_..." d="M0,502.4c1.3,61.3,52,109.9,113.3,108.6c61.3-1.3,109.9-52.1,108.6-113.3c-1.3-60.7-51.2-109.1-111.9-108.6
	C48.5,390.2-0.7,440.8,0,502.4z M389.2,502.4c1.4,61.2,52.2,109.6,113.3,108.1c61.2-1.4,109.6-52.2,108.1-113.3
	c-1.4-60.4-51-108.6-111.4-108.2C437.7,390.1,388.6,440.8,389.2,502.4L389.2,502.4z M778.5,502.4c1.4,61.2,52.2,109.6,113.3,108.1
	c61.2-1.4,109.6-52.2,108.1-113.3c-1.4-60.4-51-108.6-111.4-108.2C826.9,390.1,777.8,440.8,778.5,502.4L778.5,502.4z"/>
</svg>
