<?xml version="1.0" encoding="utf-8"?>
<!-- Generator: Adobe Illustrator 18.1.1, SVG Export Plug-In . SVG Version: 6.00 Build 0)  -->
<svg version="1.1" id="Ebene_1" xmlns="http://www.w3.org/2000/svg" xmlns:xlink="http://www.w3.org/1999/xlink" x="0px" y="0px"
	 viewBox="0 0 1000 1000" enable-background="new 0 0 1000 1000" xml:space="preserve">
<g id="lines">
	<path d="M483.3,258.9H517c2.3,0,2.3-2.3,2.3-2.3v-81.1c0-2.3-2.3-2.3-2.3-2.3h-33.7c-2.3,0-2.3,2.3-2.3,2.3v81.1
		C478.8,258.9,480.9,258.9,483.3,258.9z"/>
	<path d="M667.9,218.5l-31.6-15.8c-2.3,0-2.3,0-4.4,2.3l-38.3,72c0,2.3,0,2.3,2.3,4.4l29.3,15.8c2.3,0,2.3,0,4.4-2.3l38.3-69.9
		C670.2,222.9,670.2,220.6,667.9,218.5z"/>
	<path d="M359.8,204.5l-30.5,17.7c-1.2,2-1.2,2-0.5,5l39.2,71.7c2,1.2,2,1.2,5,0.5l29.3-15.8c1.2-2,1.2-2,0.5-5l-37.3-70.4
		C364.8,205,363,203.8,359.8,204.5z"/>
	<path d="M780.6,331.1l-18.1-29.3c-2.3-2.3-2.3-2.3-4.4,0l-65.3,45.1c-2.3,2.3-2.3,2.3-2.3,4.4l18.1,29.3c2.3,2.3,2.3,2.3,4.4,2.3
		l65.3-45.1C780.6,335.6,780.6,333.3,780.6,331.1z"/>
	<path d="M737.8,457.2l2.3,33.7c0,2.3,2.3,2.3,2.3,2.3l81.1-9c2.3,0,2.3-2.3,2.3-2.3l-2.3-33.7c0-2.3-2.3-2.3-2.3-2.3l-81.1,9
		C737.8,454.9,737.8,454.9,737.8,457.2z"/>
	<path d="M807.7,601.3L733.4,572c-2.3,0-2.3,0-2.3,2.3l-13.5,31.6c0,2.3,0,2.3,2.3,2.3l74.3,29.3c2.3,0,2.3,0,2.3-2.3l13.5-31.6
		C809.8,605.9,809.8,603.6,807.7,601.3z"/>
	<path d="M309.8,346.9l-65.3-45.1c-2.3-2.3-2.3,0-4.4,0L222,331.1c-2.3,2.3,0,2.3,2.3,4.4l65.3,45.1c2.3,2.3,2.3,0,4.4-2.3
		l18.1-29.3C309.8,349,309.8,349,309.8,346.9z"/>
	<path d="M258,491l2.3-33.7c0-2.3-2.3-2.3-2.3-2.3l-81.1-9c-2.3,0-2.3,2.3-2.3,2.3l-2.3,33.7c0,2.3,2.3,2.3,2.3,2.3l81.1,9
		C258,495.6,258,493.3,258,491z"/>
	<path d="M269.3,574.3c0-2.3-2.3-2.3-2.3-2.3l-74.3,29.3c-2.3,0-2.3,2.3-2.3,2.3l13.5,31.6c0,2.3,2.3,2.3,2.3,2.3l74.3-29.3
		c2.3,0,2.3-2.3,2.3-2.3L269.3,574.3z"/>
</g>
<g id="circle">
	<path d="M501.3,65.2c238.8,0,432.5,196,432.5,432.5s-196,432.5-432.5,432.5c-238.8,0-434.8-196-434.8-432.5S260.3,65.2,501.3,65.2
		 M501.3,2.3C226.4,2.3,3.4,225.2,3.4,500s223,497.7,497.7,497.7s495.6-223,495.6-497.7S773.8,2.3,501.3,2.3L501.3,2.3z"/>
</g>
<g id="needle">
	<path d="M501.3,418.9c-4.4,0-9,0-13.5,2.3L370.8,202.7c0-2.3-2.3-2.3-4.4-2.3l-40.6,22.5c-2.3,0-2.3,2.3-2.3,4.4l117.1,218.5
		C427,459.4,418,479.6,418,502.1c0,45.1,36,81.1,81.1,81.1s81.1-36,81.1-81.1C580.1,454.9,544.1,418.9,501.3,418.9z"/>
</g>
</svg>
