<?xml version="1.0" encoding="utf-8"?>
<!-- Generator: Adobe Illustrator 23.0.1, SVG Export Plug-In . SVG Version: 6.00 Build 0)  -->
<svg version="1.1" id="Ebene_1" xmlns="http://www.w3.org/2000/svg" xmlns:xlink="http://www.w3.org/1999/xlink" x="0px" y="0px"
	 viewBox="0 0 1000 1000" style="enable-background:new 0 0 1000 1000;" xml:space="preserve">
<path d="M987.2,470.4L868.3,351.4c-8.8-8.8-19.8-13.2-32-13.2c-12.1,0-23.1,4.4-32,13.2c-8.8,8.8-13.2,19.8-13.2,30.8
	c0,11,4.4,22,13.2,30.8l41.9,40.8H544.5V151l43,41.9c7.7,8.8,19.8,14.3,32,14.3c12.1,0,23.1-4.4,30.8-13.2
	c8.8-8.8,13.2-19.8,13.2-32c0-12.1-4.4-23.1-13.2-32L532.4,13.4c-7.7-8.8-18.7-13.2-30.8-13.2c-12.1-1.1-23.1,3.3-32,12.1
	l-119,117.8c-16.5,18.7-16.5,46.2,0,62.8c8.8,8.8,18.7,13.2,28.6,13.2c9.9,0,19.8-4.4,28.6-13.2l37.4-40.8l0,302.8H153.6l41.9-41.9
	c17.6-18.7,16.5-46.2,0-63.9c-8.8-8.8-19.8-15.4-32-15.4c-12.1,0-23.1,7.7-32,15.4L14.8,469.3C6,477,0.5,488,0.5,501.2
	c0,13.2,4.4,24.2,13.2,30.8l118.9,117.8c17.6,17.6,45.1,17.6,62.8,0c8.8-8.8,13.2-19.8,13.2-32c0-12.1-5.5-18.7-13.2-27.5L153.6,554
	h291.8v291.8L408,805.1c-8.8-8.8-17.6-13.2-28.6-13.2c-12.1,0-22,4.4-30.8,13.2c-8.8,8.8-12.1,18.7-12.1,32c0,12.1,4.4,23.1,13.2,32
	l118.9,117.8c8.8,8.8,19.8,13.2,30.8,13.2c12.1,0,23.1-4.4,32-13.2l118.9-118.9c16.5-18.7,16.5-46.2,0-63.9
	c-18.7-17.6-46.2-16.5-63.9,0l-41.9,41.9V543h303.9l-43,43c-7.7,7.7-13.2,19.8-13.2,30.8c0,12.1,4.4,23.1,12.1,32
	c7.7,8.8,19.8,14.3,32,14.3c12.1,0,23.1-4.4,30.8-12.1L985,534.3c8.8-7.7,14.3-18.7,14.3-32C1000.4,489.1,994.9,478.1,987.2,470.4
	L987.2,470.4z"/>
</svg>
