<?xml version="1.0" encoding="utf-8"?>
<!-- Generator: Adobe Illustrator 24.2.3, SVG Export Plug-In . SVG Version: 6.00 Build 0)  -->
<svg version="1.1" id="Ebene_1" xmlns="http://www.w3.org/2000/svg" xmlns:xlink="http://www.w3.org/1999/xlink" x="0px" y="0px"
	 viewBox="0 0 1000 1000" style="enable-background:new 0 0 1000 1000;" xml:space="preserve">
<style type="text/css">
	.st0{fill:#1D7BF1;}
	.st1{fill:#98C5FC;}
</style>
<path id="Pfad_231" class="st0" d="M676,909.7c-25.1-25.7-52.7-53.7-72-73.3c-20.5-19.5-39-41-55.3-64.1
	c-22.9-32.7-35.7-71.4-36.6-111.3v-3.1c0.7-31.2,9.2-61.6,25-88.5v-34.7c13.6-23.7,22.8-49.7,27.3-76.7c8.3-0.9,20.7-12.7,32.9-55.7
	c15.9-55.1,1.6-70.8-13.5-70.9c-0.8-0.4-1.5-0.8-2.4-1.1c5.5-20.6,8.2-41.8,7.9-63.1c10.5-97.4-33.9-117.6-56-121.6
	c-4.3-3.2-8.7-6.2-13.3-8.9l-1.3-0.3C499.8,96.6,457,74,413.5,80.5c-49.1,5.3-98.6,5-147.6-0.9c0.5,13.8,6.6,26.7,17,35.8
	c-35.7,22.2-59.8,59.1-65.7,100.8c-7.8,34.7-6.8,70.8,2.8,105.1c-15.1-0.4-30.2,11.1-14.2,67.9c3.7,15.8,9.8,31,18,45.1
	c3.2,11.2,9.6,21.2,18.4,28.8c4.6,22,12.6,43.1,23.7,62.6v58.2c0.4,2.8-1.1,5.5-3.7,6.6C180,632.1,102.4,681.9,30.6,739.4
	c-18.1,14.8-28.5,37-28.2,60.3v111.1h343.3v-0.2h2.1l39.7-152.2c-68.7-92.3,4.7-96.8,17.9-96.8c9.5,0,18.9,1.9,27.7,5.5
	c14.6,11.8,20.1,36.7-17.9,89.3L449.2,909h115.7L676,909.7z"/>
<path id="settings" class="st1" d="M802.3,509.4c-8.3-0.1-15.1,6.6-15.1,14.9c0,0,0,0.1,0,0.1v2.6c0.1,7.2-5.1,13.4-12.1,14.7
	c-3.4,0.6-6.8,1.2-10.2,1.9c-7,1.4-14-2.4-16.6-9l-1-2.3c-2.6-7.9-11.1-12.2-19-9.6c-7.9,2.6-12.2,11.1-9.6,19
	c0.2,0.7,0.5,1.5,0.9,2.2l1,2.4c2.9,6.6,0.5,14.3-5.5,18.2c-2.9,1.8-5.8,3.8-8.6,5.8c-5.9,4.1-13.9,3.3-19-1.9l-1.8-1.8
	c-5.7-6.1-15.2-6.4-21.2-0.8c-6.1,5.7-6.4,15.2-0.8,21.2c0.2,0.3,0.5,0.5,0.8,0.8l1.8,1.8c5.2,5,5.9,13,1.9,19
	c-2,2.8-3.9,5.7-5.7,8.6c-3.9,6-11.6,8.4-18.2,5.5l-2.4-1c-7.8-2.9-16.4,1.1-19.3,8.9c-2.7,7.3,0.7,15.5,7.8,18.8l2.4,1
	c6.6,2.7,10.4,9.7,9,16.6c-0.8,3.4-1.4,6.8-2,10.2c-1.3,7.1-7.5,12.2-14.7,12.1h-2.7c-8.3,0-15,6.7-15,15c0,8.3,6.7,15,15,15h2.6
	c7.2-0.1,13.4,5.1,14.7,12.1c0.6,3.4,1.2,6.8,1.9,10.2c1.6,7.1-2.2,14.3-8.9,17l-2.3,1c-7.8,2.8-11.9,11.4-9.1,19.2
	c2.8,7.8,11.4,11.9,19.2,9.1c0.5-0.2,0.9-0.4,1.4-0.6l2.4-1c6.6-2.8,14.3-0.5,18.2,5.5c1.8,2.9,3.7,5.8,5.7,8.7
	c4.1,5.9,3.3,13.9-1.9,19l-1.9,1.8c-6.1,5.7-6.4,15.2-0.8,21.2c5.7,6.1,15.2,6.4,21.2,0.8c0.3-0.2,0.5-0.5,0.8-0.8l1.9-1.8
	c5.1-5.1,13.1-5.9,19-1.7c2.8,2,5.7,3.9,8.7,5.8c6,3.9,8.4,11.6,5.5,18.2l-1,2.4c-3.5,7.5-0.2,16.5,7.3,20c7.5,3.5,16.5,0.2,20-7.3
	c0.2-0.4,0.3-0.8,0.5-1.1l1-2.4c2.7-6.6,9.7-10.4,16.6-9c3.4,0.8,6.8,1.4,10.2,2c7.1,1.3,12.2,7.5,12.1,14.6v2.6c0,8.3,6.7,15,15,15
	c8.3,0,15-6.7,15-15v-2.6c-0.1-7.2,5.1-13.4,12.1-14.7c3.4-0.6,6.8-1.2,10.2-1.9c7-1.4,14,2.4,16.6,9l1,2.4
	c2.8,7.8,11.4,11.9,19.2,9.1c7.8-2.8,11.9-11.4,9.1-19.2c-0.2-0.5-0.4-0.9-0.6-1.4l-0.6-2.6c-2.8-6.6-0.5-14.3,5.5-18.2
	c2.9-1.8,5.8-3.8,8.7-5.7c5.9-4.1,13.9-3.3,19,1.9l1.8,1.9c5.9,5.9,15.4,5.9,21.3,0.1s5.9-15.4,0.1-21.3c0,0,0,0-0.1-0.1l-1.8-1.9
	c-5.2-5-6-13-1.9-18.9c2-2.8,3.9-5.7,5.8-8.7c3.9-6,11.6-8.4,18.3-5.5l2.4,1c7.8,2.9,16.4-1.1,19.3-8.9c2.7-7.3-0.7-15.5-7.8-18.8
	l-2.4-0.9c-6.6-2.7-10.4-9.7-9-16.6c0.8-3.4,1.4-6.8,2-10.2c1.3-7.1,7.5-12.2,14.6-12.1h2.6c8.3,0,15-6.7,15-15c0-8.3-6.7-15-15-15
	H980c-7.2,0.1-13.4-5.1-14.7-12.1c-0.6-3.4-1.2-6.8-1.9-10.2c-1.4-7,2.4-14,9-16.6l2.4-1c7.8-2.8,11.9-11.4,9.1-19.2
	s-11.4-11.9-19.2-9.1c-0.5,0.2-0.9,0.4-1.4,0.6l-2.4,1c-6.6,2.8-14.3,0.5-18.2-5.5c-1.8-2.9-3.8-5.8-5.8-8.7
	c-4.1-5.9-3.3-13.9,1.9-18.9l1.9-1.8c5.9-5.9,5.9-15.4,0.1-21.3c-5.9-5.9-15.4-5.9-21.3-0.1c0,0,0,0-0.1,0.1l-1.8,1.9
	c-5,5.2-13,6-19,1.9c-2.8-2-5.7-3.9-8.7-5.8c-6.3-4-8.6-12-5.5-18.7l1-2.4c3.5-7.5,0.2-16.5-7.3-20c-7.5-3.5-16.5-0.2-20,7.3
	c-0.2,0.4-0.3,0.8-0.5,1.1l-1,2.3c-2.7,6.6-9.6,10.4-16.6,9c-3.4-0.8-6.8-1.4-10.2-2c-7.2-1.2-12.4-7.5-12.3-14.8v-2.6
	C817.3,516.2,810.6,509.4,802.3,509.4z M802.3,584.6c60.6,0,111.7,45.1,119.2,105.2h-93.3c-5.4-9.3-15.3-15-26-15l0,0L755.6,594
	C770.4,587.8,786.2,584.6,802.3,584.6z M729.7,609.3l46.6,80.4c-5.4,9.3-5.4,20.7,0,30l-46.6,80.9c-52.8-39.9-63.3-115.2-23.3-168
	C713,623.8,720.8,615.9,729.7,609.3L729.7,609.3z M828.3,719.9h93.2c-8.3,65.9-68.4,112.6-134.3,104.3c-10.9-1.4-21.5-4.2-31.6-8.5
	l46.6-80.8l0,0C813,734.9,822.9,729.2,828.3,719.9z"/>
</svg>
