<?xml version="1.0" encoding="utf-8"?>
<!-- Generator: Adobe Illustrator 19.2.1, SVG Export Plug-In . SVG Version: 6.00 Build 0)  -->
<svg version="1.1" id="Ebene_1" xmlns="http://www.w3.org/2000/svg" xmlns:xlink="http://www.w3.org/1999/xlink" x="0px" y="0px"
	 viewBox="0 0 1000 1000" style="enable-background:new 0 0 1000 1000;" xml:space="preserve">
<style type="text/css">
	.st0{fill:#E5E5E5;}
</style>
<path class="st0" d="M501.7,131.5C226.6,130.8,1.2,354.9,0.3,630.1c-0.2,53,7.9,104.3,23.1,152.2h363.1V596.8
	c0-9.7,7.3-18.2,17.1-18.7c10.6-0.7,19.5,7.7,19.5,18.2v199.9c0,12.5-10.1,22.6-22.6,22.6h-364c4.4,10.8,9.2,21.5,14.1,31.9
	c4.2,8.6,14.3,12.7,23.3,9.4H74c14.9-5.7,26.8-8.4,35.2-8.4c8.6,0,20.4,2.8,35.6,8.4s27.2,8.4,35.6,8.4c8.1,0,19.8-2.8,34.9-8.4
	c15.2-5.7,27-8.4,35.6-8.4c8.1,0,19.8,2.8,34.9,8.4c15.2,5.7,27,8.4,35.6,8.4c8.6,0,20.2-2.8,35.2-8.4s26.8-8.4,35.2-8.4
	c8.6,0,20.4,2.8,35.6,8.4s27.2,8.4,35.6,8.4c8.1,0,19.6-2.8,34.9-8.4c15.2-5.7,27.2-8.4,35.6-8.4c8.1,0,19.6,2.8,35.1,8.4
	c14.7,5.5,26.2,8.3,34.7,8.4c8.4-0.2,20-2.9,34.3-8.4c14.9-5.7,26.8-8.4,35.2-8.4c8.6,0,20.4,2.8,35.6,8.4
	c15.2,5.7,27.2,8.4,35.6,8.4c8.1,0,19.8-2.8,34.9-8.4c15.2-5.7,27-8.4,35.6-8.4c8.1,0,19.8,2.8,34.9,8.4c15.2,5.7,27,8.4,35.6,8.4
	c8.6,0,20.2-2.8,35.2-8.4l0.4-0.2c19.8-7.5,35.6-22.9,43.3-42.6c22.9-57.3,35.6-119.9,35.6-185.4
	C1000.7,355.8,777.5,132.2,501.7,131.5z M374.2,357.6c7.3-7.5,16.5-11.4,27.2-11.4c10.6,0,19.8,3.9,27.4,11.4
	c7.7,7.5,11.6,16.7,11.6,27.5s-3.9,20-11.6,27.7c-7.7,7.5-16.7,11.2-27.4,11.2c-10.6,0-19.6-3.9-27.2-11.2c-7.3-7.5-11-16.7-11-27.7
	C363.2,374.4,366.8,365.2,374.2,357.6z M704,812.3l-48.5-22c0,0-13.6-5.1-23.5-12.7c-8.6-6.8-25-35.2-25-35.2l-9.7,21.3l-45.5-20.7
	l58.9-129.6l22.6,10.3V370.5L506.9,497.7v7c0,10.3-8.4,18.7-18.7,18.7h-60.6c-5.5,0-10.1-1.7-13.8-4.8l-31.2-31.9l-64.8,65.5
	c-7.9,7.9-12.3,18.5-12.3,29.7v154.7c0,8.4-3.1,15.6-9.4,21.8c-6.2,6.2-13.6,9.4-21.8,9.4c-8.8,0-16.2-3.1-22.2-9.4
	c-6.1-6.2-9-13.6-9-21.8V534.6c0-13.8,5.5-26.8,15.2-36.5l73.1-72.7c5.5-5.5,11.9-8.8,19.6-9.2c14.3-0.7,25.3,10.3,27.5,12.7
	c34.7,35.2,53.8,54.2,56.9,56.9h52.7c2.4,0,4.6,0.7,7,2l140.2-140.2c2.4-2.4,4.8-2.8,7.7-1.5c3.3,0.9,4.8,3.1,4.8,6.2v277.9
	l38.4,17.4l-4,9c0,0-18.7,45.7-13.8,65.5c5.3,21.3,33.2,39.6,41.5,59.8C715.2,794.7,704,812.3,704,812.3z"/>
</svg>
