<?xml version="1.0" encoding="utf-8"?>
<!-- Generator: Adobe Illustrator 22.1.0, SVG Export Plug-In . SVG Version: 6.00 Build 0)  -->
<svg version="1.1" id="Ebene_1" xmlns="http://www.w3.org/2000/svg" xmlns:xlink="http://www.w3.org/1999/xlink" x="0px" y="0px"
	 viewBox="0 0 1000 1000" style="enable-background:new 0 0 1000 1000;" xml:space="preserve">
<path d="M500,180c-22.1,0-40,17.9-40,40v280c0,22.1,17.9,40,40,40h240c22.1,0,40-17.9,40-40s-17.9-40-40-40H540V220
	C540,197.9,522.1,180,500,180z M500,80c232.4,0,420,187.6,420,420S732.4,920,500,920S80,732.4,80,500S267.6,80,500,80z M500,0
	C224.3,0,0,224.3,0,500c0,275.6,224.3,500,500,500s500-224.4,500-500C1000,224.3,775.7,0,500,0z"/>
</svg>
