<svg id="Ebene_1" data-name="Ebene 1" xmlns="http://www.w3.org/2000/svg" viewBox="0 0 1000 1000"><path d="M811.93,1.51H188.07a83.15,83.15,0,0,0-83.18,83.18V916.5a83.16,83.16,0,0,0,83.18,83.19H811.93a83.16,83.16,0,0,0,83.18-83.19V84.69A83.15,83.15,0,0,0,811.93,1.51ZM292.05,542.19a62.39,62.39,0,1,1-62.39,62.38A62.41,62.41,0,0,1,292.05,542.19ZM229.66,396.62A62.39,62.39,0,1,1,292.05,459,62.4,62.4,0,0,1,229.66,396.62ZM500,874.91H292.05a62.39,62.39,0,1,1,0-124.77H500a62.39,62.39,0,1,1,0,124.77ZM500,667a62.39,62.39,0,1,1,62.39-62.39A62.41,62.41,0,0,1,500,667Zm0-208a62.39,62.39,0,1,1,62.39-62.39A62.41,62.41,0,0,1,500,459Zm208,415.9a62.39,62.39,0,1,1,62.39-62.38A62.41,62.41,0,0,1,708,874.91ZM708,667a62.39,62.39,0,1,1,62.39-62.39A62.41,62.41,0,0,1,708,667Zm0-208a62.39,62.39,0,1,1,62.39-62.39A62.41,62.41,0,0,1,708,459Zm62.39-208H229.66V126.28H770.34Z"/></svg>