<svg width="18" height="18" viewBox="0 0 18 18" fill="none" xmlns="http://www.w3.org/2000/svg">
<g id="invoice-svgrepo-com 1">
<path id="&#226;&#130;&#185;" d="M10.9971 9.20117L10.7945 9.8042H7L7.2026 9.20117H10.9971ZM9.15051 13L7.07815 10.8784L7.07236 10.4023H8.09986C8.35649 10.4023 8.57357 10.369 8.75109 10.3022C8.92861 10.2355 9.06368 10.1387 9.1563 10.0117C9.24891 9.88314 9.29522 9.72689 9.29522 9.54297C9.29522 9.26953 9.19875 9.05225 9.00579 8.89111C8.81283 8.72998 8.51085 8.64941 8.09986 8.64941H7L7.21129 8H8.09986C8.57839 8 8.97299 8.06429 9.28365 8.19287C9.59431 8.32145 9.82586 8.49967 9.97829 8.72754C10.1307 8.9554 10.2069 9.21826 10.2069 9.51611C10.2069 9.78141 10.1442 10.0215 10.0188 10.2363C9.89339 10.4512 9.69368 10.6261 9.41968 10.7612C9.14568 10.8963 8.78582 10.9753 8.34009 10.998L8.31404 11.0029L10.2069 12.9585V13H9.15051ZM11 8L10.7945 8.60791L7.76122 8.59326L7.96671 8H11Z" fill="#00A353"/>
<path id="Vector" d="M12.7576 1.125L10.8451 0.315L9.09008 1.125L7.21133 0.315L5.44508 1.125L2.76758 0V18L5.44508 16.875L7.21133 17.6512L9.09008 16.875L10.8451 17.6512L12.7576 16.875L15.2326 18V0L12.7576 1.125ZM13.8151 15.8737L12.7801 15.4125L10.8788 16.1888L9.11258 15.3787L7.22258 16.155L5.47883 15.3787L4.18508 15.9075V2.0925L5.47883 2.62125L7.22258 1.845L9.11258 2.62125L10.8788 1.845L12.7801 2.62125L13.8151 2.16V15.8737Z" fill="#00A353"/>
<g id="Group">
<path id="Vector_2" d="M5.41505 5.78325C5.44254 5.58625 5.63754 5.37842 5.78747 5.37628C5.79793 5.37645 5.80846 5.37213 5.81557 5.36326C5.82261 5.35889 5.82965 5.35451 5.83335 5.34111C5.8876 5.21632 5.86127 5.11719 5.7754 5.03507C5.67581 4.93927 5.51402 5.03096 5.43252 5.11494C5.22699 5.32709 5.01552 5.6962 5.02041 6.05077C4.98182 6.288 4.98477 6.5438 5.03374 6.75547C5.06648 6.8906 5.16649 6.95948 5.2709 6.97009C5.37532 6.98072 5.59077 7.02448 5.68613 6.94521C5.7815 6.86594 5.79094 6.70903 5.80351 6.57462C5.81629 6.42675 5.85203 6.14909 5.75627 6.03092C5.66045 5.91724 5.37973 6.03398 5.41505 5.78325Z" fill="#00A353"/>
<path id="Vector_3" d="M6.56544 5.80132C6.59293 5.60432 6.78793 5.39648 6.93787 5.39435C6.94832 5.39451 6.95885 5.39019 6.96596 5.38133C6.97301 5.37695 6.98004 5.37258 6.98374 5.35917C7.03799 5.23438 7.01166 5.13525 6.9258 5.05313C6.82621 4.95734 6.66441 5.04903 6.58291 5.133C6.37738 5.34516 6.16591 5.71427 6.1708 6.06884C6.13221 6.30606 6.13516 6.56187 6.18412 6.77354C6.21686 6.90867 6.31688 6.97755 6.4213 6.98816C6.52571 6.99878 6.74116 7.04254 6.83653 6.96328C6.93189 6.884 6.94133 6.7271 6.9539 6.59269C6.96668 6.44481 7.00242 6.16716 6.90667 6.04899C6.81084 5.9353 6.52664 6.05199 6.56544 5.80132Z" fill="#00A353"/>
</g>
<g id="Group_2">
<path id="Vector_4" d="M12.5881 6.20699C12.5637 6.4044 12.372 6.61527 12.2221 6.61976C12.2116 6.61976 12.2012 6.62425 12.1942 6.63322C12.1872 6.63771 12.1803 6.64219 12.1768 6.65565C12.1245 6.78128 12.1524 6.87998 12.2395 6.96074C12.3406 7.05496 12.5009 6.96074 12.5811 6.8755C12.7833 6.66014 12.9889 6.28776 12.9785 5.93331C13.0133 5.69551 13.0063 5.43978 12.9541 5.2289C12.9192 5.0943 12.8181 5.02701 12.7136 5.01803C12.609 5.00905 12.3929 4.96868 12.2988 5.04943C12.2047 5.1302 12.1977 5.28723 12.1872 5.42182C12.1768 5.56988 12.1454 5.84806 12.243 5.96471C12.3406 6.07688 12.6194 5.95574 12.5881 6.20699Z" fill="#00A353"/>
<path id="Vector_5" d="M11.4377 6.20699C11.4133 6.4044 11.2216 6.61527 11.0717 6.61976C11.0612 6.61976 11.0508 6.62425 11.0438 6.63322C11.0368 6.63771 11.0299 6.64219 11.0264 6.65565C10.9741 6.78128 11.002 6.87998 11.0891 6.96074C11.1902 7.05496 11.3505 6.96074 11.4307 6.8755C11.6329 6.66014 11.8385 6.28775 11.8281 5.93331C11.8629 5.69551 11.856 5.43978 11.8037 5.2289C11.7688 5.0943 11.6677 5.02701 11.5632 5.01803C11.4586 5.00905 11.2425 4.96868 11.1484 5.04943C11.0543 5.1302 11.0473 5.28723 11.0368 5.42182C11.0264 5.56988 10.995 5.84806 11.0926 5.96471C11.1902 6.07688 11.4725 5.95574 11.4377 6.20699Z" fill="#00A353"/>
</g>
</g>
</svg>
