<?xml version="1.0" encoding="utf-8"?>
<!-- Generator: Adobe Illustrator 24.2.0, SVG Export Plug-In . SVG Version: 6.00 Build 0)  -->
<svg version="1.1" id="Ebene_1" xmlns="http://www.w3.org/2000/svg" xmlns:xlink="http://www.w3.org/1999/xlink" x="0px" y="0px"
	 width="48px" height="48px" viewBox="0 0 48 48" style="enable-background:new 0 0 48 48;" xml:space="preserve">
<style type="text/css">
	.st0{fill:#B9C0CF;}
	.st1{display:none;}
	.st2{fill:#FFFFFF;}
</style>
<path class="st2" d="M42.7,8.8c-0.1-0.2-0.3-0.4-0.5-0.6l-6.9-7C35,1,34.8,0.8,34.5,0.7c-0.6-0.3-1.2-0.5-1.9-0.6H9.5c0,0,0,0,0,0
	c-2.3,0-4.2,1.9-4.1,4.2v39.6c0,0,0,0,0,0c0,2.3,1.9,4.2,4.1,4.2h29.6c0,0,0,0,0,0c2.3,0,4.2-1.9,4.1-4.2v-33
	C43.3,10.2,43.1,9.5,42.7,8.8z M19.1,40c-1.3,0-2.3-1-2.3-2.3c0-1.3,1-2.3,2.3-2.3c0,0,0,0,0,0c1.3,0,2.3,1,2.3,2.3
	C21.4,39,20.4,40,19.1,40z M30.5,40c-1.3,0-2.3-1-2.3-2.3c0-1.3,1-2.3,2.3-2.3c0,0,0,0,0,0c1.3,0,2.3,1,2.3,2.3
	C32.8,39,31.8,40,30.5,40z M34.9,21.2l-4.1,7.4c-0.4,0.7-1.2,1.2-2,1.2h-8.5l-1,1.9l0,0.1c0,0,0,0,0,0c0,0.2,0.1,0.3,0.3,0.3h13.2v0
	c0.6,0,1.1,0.5,1.1,1.1s-0.5,1.1-1.1,1.1v0H19.1c-1.3,0-2.3-1-2.3-2.3c0-0.4,0.1-0.8,0.3-1.1l1.5-2.8l-4.1-8.6h-2.3v0
	c-0.6,0-1.1-0.5-1.1-1.1c0-0.6,0.5-1.1,1.1-1.1h2.8c0,0,0.1,0,0.1,0H16l1.1,2.3h16.8c0.6,0,1.1,0.5,1.1,1.1
	C35.1,20.9,35,21,34.9,21.2z M33,10.7v-7l7,7H33z"/>
</svg>
