<?xml version="1.0" encoding="utf-8"?>
<!-- Generator: Adobe Illustrator 18.1.1, SVG Export Plug-In . SVG Version: 6.00 Build 0)  -->
<svg version="1.1" id="Ebene_2" xmlns="http://www.w3.org/2000/svg" xmlns:xlink="http://www.w3.org/1999/xlink" x="0px" y="0px"
	 viewBox="0 0 1000 1000" enable-background="new 0 0 1000 1000" xml:space="preserve">
<g id="marks">
	<polygon points="804.7,154 804.7,201.9 913.7,201.9 913.7,278.3 804.7,278.3 804.7,326.2 913.7,326.2 913.7,406 804.7,406 
		804.7,453.9 913.7,453.9 913.7,533.7 804.7,533.7 804.7,581.6 913.7,581.6 913.7,661.4 804.7,661.4 804.7,709.3 913.7,709.3 
		913.7,783.4 804.7,783.4 804.7,831.3 961.6,831.3 961.6,154 	"/>
</g>
<path d="M94.4,0.3v150.2H38.4v47.9h56.1v79.8H38.4v47.9h56.1V406H38.4v47.9h56.1v79.8H38.4v47.9h56.1v79.8H38.4v47.9h56.1v79.8H38.4
	v47.9h56.1v162.6h763V0.3H94.4z M793.6,64.2v871.6H158.3v-98.7H214v-47.9h-55.7v-79.8H214v-47.9h-55.7v-79.8H214v-47.9h-55.7v-79.8
	H214V406h-55.7v-79.8H214v-47.9h-55.7v-79.8H214v-47.9h-55.7V64.2H793.6z"/>
<rect x="564.5" y="55" width="65" height="899"/>
</svg>
