<?xml version="1.0" encoding="utf-8"?>
<!-- Generator: Adobe Illustrator 18.1.1, SVG Export Plug-In . SVG Version: 6.00 Build 0)  -->
<svg version="1.1" id="Ebene_1" xmlns="http://www.w3.org/2000/svg" xmlns:xlink="http://www.w3.org/1999/xlink" x="0px" y="0px"
	 viewBox="0 0 1000 1000" enable-background="new 0 0 1000 1000" xml:space="preserve">
<path d="M462.7,990.7c-23.9-20-43.9-43.9-58.8-72H150.7l0,0V81.2H512v248h248h81.2V292L558.6,0H69.3v1000h403.9
	C469.3,997.3,465.4,994.6,462.7,990.7z M572,130.7l132,137.3H572V130.7L572,130.7z"/>
<path d="M794.6,517.3c-32,0-57.3,9.3-77.3,26.6c-20,18.8-33.4,43.9-40,78.8h156.1v68H672.1l-1.2,13.4v18.8l1.2,13.4h137.3v69.1
	H678.8c13.4,62.7,54.6,93.4,123.9,93.4c37.3,0,72-8,106.6-22.7v98.8c-29.3,14.6-68,22.7-113.4,22.7c-62.7,0-114.6-17.3-156.1-52
	c-41.2-34.6-66.6-81.2-77.3-142.7h-53.4v-69.3h45.5c-1.3-5.4-1.3-13.4-1.3-23.9l1.3-20.4h-45.4v-68h52c9.3-62.7,34.6-112,77.3-148
	c41.2-36.1,93.4-54.6,156.1-54.6c48,0,93.4,10.7,136.1,32l-37.3,89.3c-17.3-8-34.6-14.6-49.3-18.8C828,520,812,517.3,794.6,517.3z"
	/>
</svg>
