<?xml version="1.0" encoding="utf-8"?>
<!-- Generator: Adobe Illustrator 23.0.1, SVG Export Plug-In . SVG Version: 6.00 Build 0)  -->
<svg version="1.1" id="Ebene_1" xmlns="http://www.w3.org/2000/svg" xmlns:xlink="http://www.w3.org/1999/xlink" x="0px" y="0px"
	 viewBox="0 0 1000 1000" style="enable-background:new 0 0 1000 1000;" xml:space="preserve">
<style type="text/css">
	.st0{fill:#FFFFFF;}
</style>
<g>
	<g>
		<path d="M397,768.5c-13.4,37-40.1,47.3-59.7,49.4C289,823,231.3,786,191.2,753C106.8,684.1,11.1,564.7,1.9,477.3
			c-19.6-181.1,116.3-332.4,311.8-354c148.2-15.4,403.4,64.8,400.3,249c-1,50.4-25.7,99.8-66.9,128.6
			c-52.5,36-114.2,42.2-157.4,91.6C445.4,641.9,418.6,706.7,397,768.5z"/>
		<path class="st0" d="M272.5,561.6c-38.1,4.1-66.9,39.1-62.8,77.2c4.1,38.1,39.1,66.9,77.2,62.8c38.1-4.1,66.9-39.1,62.8-77.2
			C345.5,586.3,310.6,557.5,272.5,561.6z"/>
		<path class="st0" d="M249.9,353.8c39.1-4.1,66.9-38.1,62.8-77.2c-4.1-39.1-38.1-66.9-77.2-62.8s-66.9,38.1-62.8,77.2
			C178.9,330.1,212.8,357.9,249.9,353.8z"/>
		<path class="st0" d="M219,464.9c-4.1-39.1-38.1-66.9-77.2-62.8S74.9,440.2,79,479.3s38.1,66.9,77.2,62.8
			C195.3,537,223.1,502,219,464.9z"/>
		<path class="st0" d="M446.4,201.5c-39.1,4.1-66.9,38.1-62.8,77.2s38.1,66.9,77.2,62.8s66.9-38.1,62.8-77.2
			C517.4,225.2,483.4,197.4,446.4,201.5z"/>
	</g>
	<g>
		<path d="M985.6,307.5c-26.8-21.6-47.3-3.1-68.9,23.7L629.5,654.3c22.6,2.1,50.4,22.6,73.1,42.2c10.3,9.3,17.5,22.6,19.6,37l1-1
			l254.2-352.9C998.9,353.8,1011.3,329.1,985.6,307.5L985.6,307.5z"/>
		<path d="M583.2,698.5c-46.3,2.1-51.4,50.4-56.6,85.4c-5.1,35-70,73.1-83.3,75.1c0,0,54.5,28.8,134.8,16.5
			c32.9-6.2,63.8-22.6,86.4-47.3c11.3-11.3,17.5-27.8,17.5-44.2c-1-16.5-8.2-31.9-19.6-43.2C637.8,720.1,606.9,697.5,583.2,698.5
			L583.2,698.5z"/>
	</g>
</g>
</svg>
