<?xml version="1.0" encoding="utf-8"?>
<!-- Generator: Adobe Illustrator 19.2.1, SVG Export Plug-In . SVG Version: 6.00 Build 0)  -->
<svg version="1.1" baseProfile="tiny" id="Ebene_1" xmlns="http://www.w3.org/2000/svg" xmlns:xlink="http://www.w3.org/1999/xlink"
	 x="0px" y="0px" viewBox="0 0 1000 1000" xml:space="preserve">
<path fill="#231F20" d="M999.8,59.9c-0.1-0.9-0.4-1.7-0.7-2.5c-0.4-1.3-0.9-2.5-1.5-3.7c-0.2-0.4-0.3-0.8-0.5-1.2
	c-0.5-0.8-1.1-1.5-1.7-2.2c-0.1-0.1-0.2-0.3-0.3-0.4c-1.3-1.4-2.8-2.6-4.4-3.6c-0.1-0.1-0.2-0.2-0.4-0.3c-0.1,0-0.2-0.1-0.3-0.1
	c-1.6-0.9-3.4-1.6-5.2-2c-0.3-0.1-0.5-0.1-0.8-0.2c-1.8-0.3-3.6-0.4-5.4-0.3c-0.2,0-0.5,0.1-0.7,0.1c-1.7,0.2-3.4,0.6-5,1.3
	L12.2,440.7C4.8,443.8,0,451,0,459s4.9,15.2,12.3,18.2l354.9,143.3v316.5c0,8.9,5.9,16.6,14.4,19c1.7,0.5,3.5,0.7,5.3,0.7
	c6.8,0,13.3-3.5,16.9-9.6l140.3-233.6l256.4,137.1c2.9,1.6,6.1,2.3,9.3,2.3c2.8,0,5.6-0.6,8.2-1.8c5.6-2.6,9.7-7.6,11-13.6
	L999.8,67.3c0.1-0.3,0-0.6,0.1-0.9c0.2-0.9,0.1-1.8,0.2-2.7C1000,62.4,1000,61.1,999.8,59.9z M382.8,584.2L71.9,458.7l813.5-335.2
	L382.8,584.2z M406.6,865.9V640l102.7,54.9L406.6,865.9z M796.2,803.6L420.7,602.9l527-483.1L796.2,803.6z"/>
<g>
</g>
<g>
</g>
<g>
</g>
<g>
</g>
<g>
</g>
<g>
</g>
</svg>
