<svg width="15" height="16" viewBox="0 0 15 16" fill="none" xmlns="http://www.w3.org/2000/svg">
<path d="M14.8559 6.38303C14.9253 6.20026 14.9434 5.99913 14.908 5.80511C14.8726 5.61108 14.7852 5.43287 14.657 5.29303L10.0736 0.29303L8.77748 1.70703L11.7961 5.00003H0.258895V7.00003H14.0089C14.1902 7.00008 14.3674 6.94149 14.5182 6.83166C14.6689 6.72184 14.7865 6.56572 14.8559 6.38303ZM0.328562 9.61703C0.259166 9.7998 0.241024 10.0009 0.276432 10.195C0.31184 10.389 0.399207 10.5672 0.527479 10.707L5.11081 15.707L6.40698 14.293L3.3884 11H14.9256V9.00003H1.17556C0.994249 8.99985 0.816968 9.05839 0.666182 9.16823C0.515396 9.27807 0.397893 9.43427 0.328562 9.61703Z" fill="#272D30"/>
</svg>
