<?xml version="1.0" encoding="utf-8"?>
<!-- Generator: Adobe Illustrator 21.1.0, SVG Export Plug-In . SVG Version: 6.00 Build 0)  -->
<svg version="1.1" id="Ebene_1" xmlns="http://www.w3.org/2000/svg" xmlns:xlink="http://www.w3.org/1999/xlink" x="0px" y="0px"
	 viewBox="0 0 1000 1000" style="enable-background:new 0 0 1000 1000;" xml:space="preserve">
<g>
	<rect x="221.4" y="0.3" width="557.2" height="216.1"/>
	<path d="M778.6,499.8c-32.2,0-58.4-26.1-58.4-58.4c0-32.2,26.2-58.4,58.4-58.4c32.2,0,58.4,26.2,58.4,58.4
		C837,473.7,810.9,499.8,778.6,499.8z M856.6,263.4H143.5c-46.4,0-84.1,37.6-84.1,84.1v357.6c0,46.5,37.7,84.1,84.1,84.1H201V676.8
		h598v112.4h57.5c46.4,0,84.1-37.6,84.1-84.1V347.5C940.7,301,903,263.4,856.6,263.4L856.6,263.4z"/>
	<path d="M699.5,833.1H300.7v-40.8h398.8V833.1z M699.5,933.2H300.7v-40.8h398.8V933.2z M241.8,717.6V1000h516.5V717.6H241.8z"/>
</g>
</svg>
