<?xml version="1.0" encoding="utf-8"?>
<!-- Generator: Adobe Illustrator 19.2.0, SVG Export Plug-In . SVG Version: 6.00 Build 0)  -->
<svg version="1.1" id="Ebene_1" xmlns="http://www.w3.org/2000/svg" xmlns:xlink="http://www.w3.org/1999/xlink" x="0px" y="0px"
	 viewBox="0 0 1000 1000" style="enable-background:new 0 0 1000 1000;" xml:space="preserve">
<polygon points="523.4,165.4 796.4,383.6 929,244.6 629.7,5.5 "/>
<path d="M594.2,326.9L471.5,229L181.1,516.3c0,0-7.1,175.8-108.2,419.1c-6.3,15.1,13.7,27.1,23.9,14.2L339,646.5
	c-21.2-27.4-22-66.8,0.6-95c26.5-33.3,75.1-38.7,108.2-12.2c33.3,26.6,38.7,75.1,12.2,108.3c-22.7,28.3-61.1,36.2-92.5,21.6
	L125.3,972.5c-10.2,12.8,5.9,29.6,19.2,20.2c214.9-152.5,384.8-198.3,384.8-198.3l216-346.9l-122.7-97.9L594.2,326.9z"/>
</svg>
