<?xml version="1.0" encoding="utf-8"?>
<!-- Generator: Adobe Illustrator 22.1.0, SVG Export Plug-In . SVG Version: 6.00 Build 0)  -->
<svg version="1.1" id="Ebene_1" xmlns="http://www.w3.org/2000/svg" xmlns:xlink="http://www.w3.org/1999/xlink" x="0px" y="0px"
	 viewBox="0 0 1000 1000" style="enable-background:new 0 0 1000 1000;" xml:space="preserve">
<path d="M997.7,828.5v-17.8h0.1c0-11.3-5.1-22.2-14-29c-31.6-25.2-64.8-44.9-87.7-57.4l-28.9-16.9
	c0-0.1-0.1-0.2-0.1-0.4v-28.1c7.5-12.2,11.2-25.8,13.5-38c4.2-0.5,10.3-6.3,16.3-27.6c6.8-23.3,2.3-30.7-3.8-32.2
	c-1-1.6-2.3-2.7-3.8-3.3c1.3-5.2,3.5-16.6,3.4-30.2c5.7-49.7-16.9-59.6-27.8-61.5c-2-1.5-4-3-6.3-4.4l-12.2-15.5
	c-10.6-9.3-26-15.4-40.7-12.3c-23.8,5.1-73.2-0.5-73.2-0.5c-0.5,10.3,8.4,17.7,8.4,17.7c-20.4,12.5-29.1,31.4-32.4,49.6
	c-3.5,11.4-3.9,28.3,1.3,52.5c-7.6-0.3-15.2,5.3-7.2,33.6c3.1,11,6.1,18,8.9,22.4c3.3,8.2,6.4,12.4,9.1,14.2
	c2.4,10.3,5.9,21.1,11.8,31.1v28.9c0,1.4-0.5,2.8-1.9,3.3c-6.7,3.5-30.1,15.3-59,33.6c-23.4-15.8-45.5-28.7-62.6-38l-33.4-19.5
	c0-0.1-0.1-0.3-0.1-0.4V650c8.6-14.1,12.9-29.8,15.6-43.9c4.8-0.5,11.9-7.3,18.9-31.9c7.8-27,2.7-35.5-4.4-37.3
	c-1.2-1.9-2.7-3.1-4.4-3.8c1.5-6,4.1-19.2,4-34.9c6.6-57.5-19.5-68.9-32.1-71.1c-2.3-1.7-4.6-3.5-7.3-5.1l-14-18
	c-12.3-10.8-30.1-17.8-47.1-14.2c-27.5,5.9-84.6-0.5-84.6-0.5c-0.5,11.9,9.7,20.5,9.7,20.5c-23.6,14.5-33.7,36.3-37.5,57.3
	c-4,13.2-4.6,32.7,1.6,60.7c-8.8-0.3-17.5,6.1-8.3,38.8c3.5,12.8,7.1,20.9,10.3,25.8c3.8,9.5,7.3,14.4,10.5,16.4
	c2.8,11.9,6.8,24.4,13.6,35.9v33.4c0,1.6-0.5,3.2-2.1,3.8c-11.1,5.8-62.7,31.6-114.9,71.2c-21.1,2.6-34.8-3.7-42.7-4.7
	c-8.1-2.7-16-6-23.6-9.8l-1.6-0.8c-4-2.6-6.4-7-6.4-11.8v-24.7c0,0,54.8,1.7,80.8-24.9c0,0-37.9-10.7-31-79.6
	c6.8-68.9-8.5-129.3-63.9-124.2c0,0-24-28.9-71.8-10.7c-16.4,6.2-60.4,22-58.2,117.4c2.2,95.4-33.9,95.9-33.9,95.9
	s18.6,27.1,82,26.6v23.9c0,4.8-2.4,9.2-6.4,11.8l-1.4,0.8c-19.2,8.5-39.1,15.5-59.5,20.9c-12.9,3.4-25.5,8.1-37.5,13.9
	c-14.3,6.8-24,20.5-25.6,36.2v56.5H217v0.2h780.9v-37.5H997.7z"/>
</svg>
