<?xml version="1.0" encoding="utf-8"?>
<!-- Generator: Adobe Illustrator 19.0.1, SVG Export Plug-In . SVG Version: 6.00 Build 0)  -->
<svg version="1.1" id="Ebene_1" xmlns="http://www.w3.org/2000/svg" xmlns:xlink="http://www.w3.org/1999/xlink" x="0px" y="0px"
	 viewBox="0 0 1000 1000" style="enable-background:new 0 0 1000 1000;" xml:space="preserve">
<g>
	<path d="M0,133.4C0,59.8,59.8,0,133.3,0c73.5,0,133.4,59.8,133.4,133.4c0,73.5-59.8,133.4-133.4,133.4C59.8,266.7,0,206.9,0,133.4z
		"/>
	<path d="M990.3,19.7l-12-12C967.7-2.9,950-2.5,938.9,8.6L8.7,938.8c-5.4,5.4-8.5,12.4-8.7,19.8c-0.2,7.5,2.5,14.5,7.7,19.7l12,12
		c5.1,5.1,12,7.7,18.9,7.7c7.4,0,14.9-2.9,20.6-8.6L989.4,59.2C1000.5,48,1000.9,30.3,990.3,19.7z"/>
	<path d="M998,864.6c0,73.5-59.8,133.4-133.4,133.4s-133.4-59.8-133.4-133.4c0-73.5,59.8-133.4,133.4-133.4S998,791.1,998,864.6z"/>
</g>
</svg>
