<?xml version="1.0" encoding="utf-8"?>
<!-- Generator: Adobe Illustrator 22.1.0, SVG Export Plug-In . SVG Version: 6.00 Build 0)  -->
<svg version="1.1" id="Ebene_1" xmlns="http://www.w3.org/2000/svg" xmlns:xlink="http://www.w3.org/1999/xlink" x="0px" y="0px"
	 viewBox="0 0 1000 1000" style="enable-background:new 0 0 1000 1000;" xml:space="preserve">
<path d="M435,49.4c-15.3,15.3-40.4,40.4-55.7,55.7L101,383.4c-15.3,15.3-15.3,40.4,0,55.7l38,38c15.3,15.3,40.4,15.3,55.7,0l205-205
	c15.3-15.3,27.8-10.1,27.8,11.5v676.9c0,21.7,17.7,39.4,39.4,39.4h68.1c21.7,0,39.4-17.7,39.4-39.4l0-676.9
	c0-21.7,12.5-26.9,27.8-11.5l205,205c15.3,15.3,40.4,15.3,55.7,0l38-38c15.3-15.3,15.3-40.4,0-55.7L622.3,105.1l-55.7-55.7l-38-37.9
	c-15.3-15.3-40.4-15.3-55.7,0L435,49.4z M501.4,171.4c0.3,0.4,0.1,0.6-0.6,0.6c-0.7,0-1-0.3-0.6-0.6
	C500.5,171.1,501.1,171.1,501.4,171.4"/>
</svg>
