<?xml version="1.0" encoding="utf-8"?>
<!-- Generator: Adobe Illustrator 19.0.1, SVG Export Plug-In . SVG Version: 6.00 Build 0)  -->
<svg version="1.1" id="Ebene_1" xmlns="http://www.w3.org/2000/svg" xmlns:xlink="http://www.w3.org/1999/xlink" x="0px" y="0px"
	 viewBox="0 0 1000 1000" style="enable-background:new 0 0 1000 1000;" xml:space="preserve">
<g>
	<path d="M277.7,351.1c-16.4,0-34.1,10.7-34.1,34.1c0,23.4,17.7,34.1,34.1,34.1c16.4,0,34.1-10.7,34.1-34.1
		C311.8,361.8,294.1,351.1,277.7,351.1z"/>
	<path d="M489.3,259c-0.1,0-0.2,0-0.3,0c-4.1,0-7.9,1.5-10.8,4.5c-2.9,3-4.4,7-4.2,11.2l0.6,12.3c0.4,7.9,6.6,14,14.5,14.2
		c35.1,0.8,123.8,9.4,189.9,71c3,2.8,6.8,4.2,10.6,4.2c3.7,0,7.3-1.3,10.1-4l8.9-8.6c3-2.9,4.7-6.9,4.7-11.1c0-4.1-1.6-7.8-4.6-10.5
		C631.5,269.5,529.6,260,489.3,259z"/>
	<path d="M999.9,413.6l-1-12.3c-0.3-4.1-2.4-7.9-5.6-10.5c-3.2-2.5-7.1-3.7-11-3.2c-17,2.2-32.2,5.8-45.2,10.7
		c-37.6-24.4-78.5-21.1-95.8-18.1C782.6,254.6,634,170.4,471,170.4c-28.2,0-56.8,2.5-84.9,7.6c-32.2-54.9-92.1-64.9-125.2-66
		c-0.2,0-0.5,0-0.7,0c-5.4,0-10.7,2.1-14.6,5.9c-4.1,4-6.6,9.4-6.6,15.1v98.7C194,258.4,142.5,298,116.3,389H54.7
		C24.7,389,0,413.1,0,443.1v164C0,637,24.6,661,54.6,661h73.1c24.3,35,56.3,65.7,94.3,90.4v100.9c0,19.9,15.8,35.8,35.7,35.8h122.1
		c10.2,0,19.8-3.8,27-11.1c7.2-7.2,11.2-16.8,11.2-27l-0.1-29.3c42.2,4.6,85.1,3.8,126.1-2.6v34.2c0,19.9,16.3,35.8,36.1,35.8h124.1
		c19.9,0,35.7-15.9,35.7-35.8V736.8c82-61.6,127.8-149,127.8-239.9c0-26.1-3-47.9-10.2-72.5l0.2,0c9.4-1.1,22.2-2.5,37.2,2.5
		c-12.2,14.6-12.4,27.7-12.6,33.4c-0.8,26.3,18.6,49.7,44.2,53.4c24.5,3.6,45.1-6.5,53.6-25.3c7.7-16.8,4.8-36.7-8.4-56.3
		c4.9-1,10-1.9,15.2-2.6C995,428.6,1000.6,421.5,999.9,413.6z M704.3,708.7l-12.3,8.5V846H590v-83.4l-21.6,5.5
		c-57.9,13.3-110,14.6-168.6,4l-30.9-5V846h-96V731.1l-17-9.7c-46-28-79.1-58.5-101.2-93.2l-8.3-13.2H47V436h99.5
		c24.1-91,73.9-142,126.5-170.2l15-8.2v-95.3c26,8.5,43.9,24.6,53.3,46.6l9.4,21.8l23.2-5.3c32.3-7.3,65.5-7.9,96.8-7.9
		c195.1,0,353.6,125.9,353.6,280.7C824.3,578.5,780.5,655.2,704.3,708.7z M942.1,470.8c-0.3,0.5-3.3,2-9.3,1.1
		c-3.9-0.5-8.1-4.9-8-10.3c0.1-4.1,2.6-8.4,7.1-12.4C941.7,460.5,943.1,468.5,942.1,470.8z"/>
</g>
</svg>
