<?xml version="1.0" encoding="utf-8"?>
<!-- Generator: Adobe Illustrator 21.1.0, SVG Export Plug-In . SVG Version: 6.00 Build 0)  -->
<svg version="1.1" id="Ebene_1" xmlns="http://www.w3.org/2000/svg" xmlns:xlink="http://www.w3.org/1999/xlink" x="0px" y="0px"
	 viewBox="0 0 1000 1000" style="enable-background:new 0 0 1000 1000;" xml:space="preserve">
<path d="M532.4,521.6h324V932h-324V521.6z M143.6,521.6h324V932h-324V521.6z M532.4,327.2c129.6,0,259.2,0,388.8,0v129.6
	c-129.6,0-259.2,0-388.8,0V327.2z M78.8,327.2c129.6,0,259.2,0,388.8,0v129.6c-129.6,0-259.2,0-388.8,0V327.2z M629.6,68
	c54.1,0,97.2,43.1,97.2,97.2c0,54.1-43.1,97.2-97.2,97.2h-97.2v-97.2C532.4,111.1,575.5,68,629.6,68z M370.4,68
	c54.1,0,97.2,43.1,97.2,97.2v97.2h-97.2c-54.1,0-97.2-43.1-97.2-97.2C273.2,111.1,316.3,68,370.4,68z M370.4,3.2
	c-89.1,0-162,72.9-162,162c0,36.4,12.3,70.1,32.7,97.2H46.4c-17,0-32.4,15.4-32.4,32.4v194.4c0,17,15.4,32.4,32.4,32.4h32.4v442.8
	c0,17,15.4,32.4,32.4,32.4h777.6c17,0,32.4-15.4,32.4-32.4V521.6h32.4c17,0,32.4-15.4,32.4-32.4V294.8c0-17-15.4-32.4-32.4-32.4
	H758.9c20.5-27.1,32.7-60.8,32.7-97.2c0-89.1-72.9-162-162-162c-52.8,0-100,26-129.6,65.5C470.4,29.2,423.2,3.2,370.4,3.2z"/>
</svg>
