<?xml version="1.0" encoding="utf-8"?>
<!-- Generator: Adobe Illustrator 20.1.0, SVG Export Plug-In . SVG Version: 6.00 Build 0)  -->
<svg version="1.1" id="Ebene_1" xmlns="http://www.w3.org/2000/svg" xmlns:xlink="http://www.w3.org/1999/xlink" x="0px" y="0px"
	 viewBox="0 0 1000 1000" style="enable-background:new 0 0 1000 1000;" xml:space="preserve">
<style type="text/css">
	.st0{fill:#020202;}
</style>
<title>Element 1</title>
<g id="Ebene_2">
	<g id="Ebene_1-2">
		<polygon class="st0" points="245.4,493.7 300.7,438.3 555,693.3 499.8,748.7 		"/>
		<path class="st0" d="M523.9,1.2L6.2,520.8l462.4,462.4l522.1-518.8V1.2H523.9z M928.1,438.2l-459,454.3L97.7,524.2L549.8,72.3
			h378.3V438.2z"/>
		<polygon class="st0" points="809.4,718.8 743,921.8 640.3,888.1 590.6,937.8 783,1001.2 905.8,626.2 903.1,624.6 		"/>
		<path class="st0" d="M754,336.1c56.5,0,102.4-45.9,102.4-102.6c0-56.7-45.8-102.6-102.3-102.6c-56.5,0-102.4,45.9-102.4,102.6
			c0,27.2,10.8,53.3,30,72.6C700.8,325.3,726.9,336.2,754,336.1z M781.1,260.6c-14.9,15-39.2,15-54.1,0.1c-15-15-15-39.3-0.1-54.3
			c14.9-15,39.2-15,54.1-0.1c0,0,0.1,0.1,0.1,0.1C796.1,221.4,796.1,245.7,781.1,260.6c0.1,0.1,0,0.1,0,0.2V260.6z"/>
	</g>
</g>
</svg>
