<svg width="16" height="16" viewBox="0 0 16 16" fill="none" xmlns="http://www.w3.org/2000/svg">
<g id="Icon / Price">
<path id="Vector" d="M8.5 12V14M8 2V3.5M1 2H15V5.78947C15 5.78947 12.76 5.78947 12.76 8C12.76 10.2105 15 10.2105 15 10.2105V14H1V10.2105C1 10.2105 3.24 10.2105 3.24 8C3.24 5.78947 1 5.78947 1 5.78947V2Z" stroke="#00A353" stroke-width="1.5" stroke-linecap="round" stroke-linejoin="round"/>
<path id="Vector_2" d="M10 6H7H7.81818C8.10751 6 8.38499 6.12041 8.58957 6.33474C8.79416 6.54906 8.90909 6.83975 8.90909 7.14286C8.90909 7.44596 8.79416 7.73665 8.58957 7.95098C8.38499 8.16531 8.10751 8.28571 7.81818 8.28571H7L8.63636 10M7 7.14286H10" stroke="#00A353" stroke-width="0.8" stroke-linecap="round" stroke-linejoin="round"/>
</g>
</svg>
