<?xml version="1.0" encoding="utf-8"?>
<!-- Generator: Adobe Illustrator 22.1.0, SVG Export Plug-In . SVG Version: 6.00 Build 0)  -->
<svg version="1.1" id="Ebene_1" xmlns="http://www.w3.org/2000/svg" xmlns:xlink="http://www.w3.org/1999/xlink" x="0px" y="0px"
	 viewBox="0 0 1000 1000" style="enable-background:new 0 0 1000 1000;" xml:space="preserve">
<path d="M717.8,636.7H280.2v218.8h437.5V636.7z M999,418v281.2c0,51.6-42.2,93.8-93.8,93.8h-62.5v93.8c0,51.6-42.2,93.8-93.8,93.8
	H249c-51.6,0-93.8-42.2-93.8-93.8V793H92.8C41.2,793-1,750.8-1,699.2V418c0-51.6,42.2-93.8,93.8-93.8h62.5V418h687.5v-93.8h62.5
	C956.8,324.2,999,366.4,999,418z M764.6,328.9H228.7V44.5c0-15.6,14.1-26.6,32.8-26.6h470.3c17.2,0,32.8,12.5,32.8,26.6V328.9z"/>
</svg>
