<svg width="16" height="15" viewBox="0 0 16 15" fill="none" xmlns="http://www.w3.org/2000/svg">
<path d="M11.2 4V1.6H4.8V4H3.2V0.8C3.2 0.573333 3.27653 0.3832 3.4296 0.2296C3.5832 0.0765333 3.77333 0 4 0H12C12.2267 0 12.4165 0.0765333 12.5696 0.2296C12.7232 0.3832 12.8 0.573333 12.8 0.8V4H11.2ZM1.6 5.6H14.4H3.2H1.6ZM12.8 7.6C13.0267 7.6 13.2165 7.5232 13.3696 7.3696C13.5232 7.21653 13.6 7.02667 13.6 6.8C13.6 6.57333 13.5232 6.3832 13.3696 6.2296C13.2165 6.07653 13.0267 6 12.8 6C12.5733 6 12.3835 6.07653 12.2304 6.2296C12.0768 6.3832 12 6.57333 12 6.8C12 7.02667 12.0768 7.21653 12.2304 7.3696C12.3835 7.5232 12.5733 7.6 12.8 7.6ZM4.8 12.8H11.2V9.6H4.8V12.8ZM4.8 14.4C4.36 14.4 3.98347 14.2435 3.6704 13.9304C3.3568 13.6168 3.2 13.24 3.2 12.8V11.2H0.8C0.573333 11.2 0.383467 11.1232 0.2304 10.9696C0.0768001 10.8165 0 10.6267 0 10.4V6.4C0 5.72 0.233333 5.15013 0.7 4.6904C1.16667 4.23013 1.73333 4 2.4 4H13.6C14.28 4 14.8501 4.23013 15.3104 4.6904C15.7701 5.15013 16 5.72 16 6.4V10.4C16 10.6267 15.9232 10.8165 15.7696 10.9696C15.6165 11.1232 15.4267 11.2 15.2 11.2H12.8V12.8C12.8 13.24 12.6435 13.6168 12.3304 13.9304C12.0168 14.2435 11.64 14.4 11.2 14.4H4.8ZM14.4 9.6V6.4C14.4 6.17333 14.3232 5.9832 14.1696 5.8296C14.0165 5.67653 13.8267 5.6 13.6 5.6H2.4C2.17333 5.6 1.9832 5.67653 1.8296 5.8296C1.67653 5.9832 1.6 6.17333 1.6 6.4V9.6H3.2V8H12.8V9.6H14.4Z" fill="#272D30"/>
</svg>
