<?xml version="1.0" encoding="utf-8"?>
<!-- Generator: Adobe Illustrator 18.1.1, SVG Export Plug-In . SVG Version: 6.00 Build 0)  -->
<svg version="1.1" id="Ebene_1" xmlns="http://www.w3.org/2000/svg" xmlns:xlink="http://www.w3.org/1999/xlink" x="0px" y="0px"
	 viewBox="310 113 43.8 44.6" enable-background="new 310 113 43.8 44.6" xml:space="preserve">
<rect x="325.8" y="131.4" transform="matrix(-0.707 0.7073 -0.7073 -0.707 657.8098 6.4341)" width="3.5" height="16.1"/>
<g>
	<g>
		<path d="M330.5,156.8L310,136.2l23.1-23.2h20.7v20.7L330.5,156.8z M314,136.2l16.6,16.6l20.5-20.3v-16.7h-16.8L314,136.2z"/>
	</g>
	<g>
		<polygon points="345.9,145.1 342.9,154.3 338.3,152.7 336.2,154.8 344.6,157.6 350.1,140.9 		"/>
	</g>
	<path d="M346.6,120.2c-0.8-0.8-2-1.3-3.2-1.3s-2.3,0.5-3.2,1.3c-1.8,1.8-1.8,4.6,0,6.4c0.8,0.8,2,1.3,3.2,1.3s2.3-0.5,3.2-1.3
		C348.3,124.8,348.3,122,346.6,120.2z M344.6,124.6c-0.6,0.6-1.8,0.6-2.4,0c-0.7-0.7-0.7-1.8,0-2.5c0.3-0.3,0.8-0.5,1.2-0.5
		c0.5,0,0.9,0.2,1.2,0.5C345.2,122.8,345.2,124,344.6,124.6z"/>
</g>
</svg>
