<svg width="20" height="20" viewBox="0 0 20 20" fill="none" xmlns="http://www.w3.org/2000/svg">
<g id="Group 427318886">
<circle id="Ellipse 66" cx="10" cy="10" r="9" stroke="#888787" stroke-width="1.5"/>
<g id="User">
<circle id="Ellipse 1" cx="10" cy="8" r="2.25" stroke="#888787" stroke-width="1.5"/>
<path id="Ellipse 72" d="M13.9265 13.3736C14.0436 13.6563 14.1296 13.9502 14.1833 14.25L5.8167 14.25C5.87045 13.9502 5.9564 13.6563 6.07351 13.3736C6.28709 12.858 6.60015 12.3894 6.9948 11.9948C7.38944 11.6001 7.85796 11.2871 8.3736 11.0735C8.88923 10.8599 9.44188 10.75 10 10.75C10.5581 10.75 11.1108 10.8599 11.6264 11.0735C12.142 11.2871 12.6106 11.6001 13.0052 11.9948C13.3999 12.3894 13.7129 12.858 13.9265 13.3736Z" stroke="#888787" stroke-width="1.5"/>
</g>
</g>
</svg>
