<?xml version="1.0" encoding="utf-8"?>
<!-- Generator: Adobe Illustrator 19.1.0, SVG Export Plug-In . SVG Version: 6.00 Build 0)  -->
<svg version="1.1" id="Ebene_1" xmlns="http://www.w3.org/2000/svg" xmlns:xlink="http://www.w3.org/1999/xlink" x="0px" y="0px"
	 viewBox="0 0 1000 1000" style="enable-background:new 0 0 1000 1000;" xml:space="preserve">
<path d="M997.1,693.6l-47.5-177.5c22.6-12,20.4-32.2,17.9-41.4L943.2,384c-2.4-9.1-10.6-27.7-36.2-26.9l-48.4-180.7
	c-7.6-28.3-35.7-45.4-63.1-38.1c-3.9,1.1-328.1,93.5-534.1,146c3.2-3.1,5.2-7.5,4.9-13.4c-0.3-8.4-0.7-16.9-1-25.3
	c55.9-2.6,111.8-5.2,167.7-7.8c24.7-1.1,25-39.6,0.3-38.4c-62.6,2.9-125.1,5.8-187.8,8.7c-10.1,0.5-19.8,8.2-19.4,19.1
	c0.6,14.5,1.2,28.9,1.7,43.4c0.4,10.5,7.6,16.5,15.6,18.2c-35.2,8.9-66.4,16.4-90.9,21.7c-22.9,5.1-50.8,5-61.3-6.3
	c-8.1-8.8-6.1-25.8-2.3-40.1c10.1-5.7,21.7-10.7,34.9-15c1.3,11.4,2.5,22.8,3.8,34.2c2.7,24.4,41.2,24.8,38.4,0.3
	c-3.7-33.1-7.4-66.2-11.1-99.3c199.6-12.4,399.2-24.8,598.7-37.1c24.7-1.5,25.1-39.9,0.3-38.4c-7.9,0.5-15.8,1-23.7,1.5l-2.2-8.3
	c-7.6-28.3-35.7-45.4-62.8-38.2l-245.2,65.7c-95.4,5.9-190.8,11.8-286.1,17.7c-9.4,0.6-20.6,8.2-19.3,19.1
	c1.6,14.7,3.3,29.3,4.9,43.9c-53.3,15.8-89.2,42.3-106.8,78.8c-22.3,46.2-6.5,91.9-2.9,101l114.6,427.9
	c13.2,49.1,38,83.8,73.9,103.1c47.7,25.5,99.4,14.9,114.9,10.7c2.7-0.7,4.4-1.2,4.5-1.3L961.8,758
	C988.8,750.7,1004.7,721.8,997.1,693.6z M675.3,101.1c6.5-1.8,13.6,3.2,15.7,11l0.2,0.8c-26,1.6-52,3.2-78,4.8L675.3,101.1z
	 M933.4,484.6c-1.2,0.7-3.4,1.7-7.4,2.8l-152.7,40.9c-4,1.1-6.5,1.3-7.8,1.3c-0.1-0.2-0.2-0.4-0.2-0.7l-24.3-90.7
	c-0.1-0.3-0.1-0.5-0.2-0.7c1.2-0.7,3.4-1.7,7.4-2.8l152.7-40.9c4-1.1,6.5-1.3,7.8-1.3c0.1,0.2,0.1,0.5,0.2,0.7l24.3,90.7
	C933.3,484.2,933.4,484.4,933.4,484.6z M951.9,720.9L306.7,893.8c-0.5,0.1-49.2,15.7-90.5-6.6c-26-14.1-44.4-40.7-54.7-79
	l-114.9-429l-0.9-2.6c-0.2-0.4-15-36.5,1.8-71c0.5-1,1-1.9,1.5-2.9c2.3,10.7,7,20,14.1,27.7c27.1,29.5,77.4,22.3,97.8,17.8
	c168.1-36.8,640.5-171.5,644.9-172.8c6.6-1.8,13.6,3.2,15.7,11l48,179.1l-130.4,34.9c-37.8,10.1-35.1,36.1-32.3,46.9l24.3,90.7
	c2.9,10.7,13.6,34.6,51.4,24.5l130.3-34.9L960,703.4C962.1,711.3,958.5,719.1,951.9,720.9z"/>
</svg>
