<?xml version="1.0" encoding="utf-8"?>
<!-- Generator: Adobe Illustrator 23.1.1, SVG Export Plug-In . SVG Version: 6.00 Build 0)  -->
<svg version="1.1" id="Ebene_1" xmlns="http://www.w3.org/2000/svg" xmlns:xlink="http://www.w3.org/1999/xlink" x="0px" y="0px"
	 viewBox="0 0 1000 1000" style="enable-background:new 0 0 1000 1000;" xml:space="preserve">
<style type="text/css">
	.st0{fill:#FFFFFF;}
</style>
<g id="angebot-2" transform="translate(0 0)">
	<path id="Pfad_88" class="st0" d="M704.5,605.3c-2.6,0-5.1-0.9-7.1-2.5l-86.1-65.4c-4.9-3.9-12-3.2-15.9,1.7L561,581.4
		c-4,4.8-3.3,11.9,1.5,15.8c0,0,0.1,0,0.1,0.1L684,691.5l19.6,15.8c4.6,3.7,11.2,3.3,15.3-1l17.1-18.1l74.1-76.9V500.6l-97.5,101.2
		C710.5,604.1,707.5,605.3,704.5,605.3z"/>
	<path id="Pfad_89" class="st0" d="M562.7,597.2l121.4,94.3l19.6,15.8c4.6,3.7,11.2,3.3,15.3-1l17.2-18.1l242.2-251.6
		c4.3-4.5,4.2-11.7-0.3-16l-39-37.5c-2.1-2.1-5-3.2-7.9-3.2c-3.1,0-6,1.3-8.2,3.5L712.7,601.8c-4.1,4.3-10.7,4.7-15.3,1l-86.1-65.4
		c-4.9-3.9-12-3.2-15.9,1.7L561,581.4C557.1,586.2,557.8,593.3,562.7,597.2z"/>
	<path id="Pfad_90" class="st0" d="M573.8,521.4c7.4-9.2,18.6-14.5,30.4-14.5c8.8,0,17.4,3,24.3,8.4l74.3,56.5L810,460.3V215.9
		c0-16.6-6.6-32.4-18.3-44.1L638.3,18.1C626.5,6.5,610.6,0,594.1,0H101.8c-46,0-83.3,37.3-83.3,83.3v833.4c0,46,37.3,83.3,83.3,83.3
		h625.1c46,0,83.3-37.3,83.3-83.3V651.4l-53.9,56l-17.2,18c-14,14.8-37.1,16.3-53,3.5l-19.4-15.6l-121.2-94.1l-0.2-0.2l-0.2-0.2
		c-16.8-13.6-19.4-38.3-5.8-55.1c0,0,0-0.1,0.1-0.1L573.8,521.4z M590.8,73.6c-0.1-3.4,2.6-6.2,6-6.3c1.7,0,3.2,0.6,4.4,1.8
		c29.8,28.7,114.9,117.3,144,147.6c2.3,2.6,2,6.5-0.5,8.8c-1.1,1-2.6,1.6-4.1,1.6l-124.5,0.5c-13.9,0.1-25.2-11.1-25.3-25
		c0-0.1,0-0.1,0-0.2V73.6L590.8,73.6z M181.7,538h183.2v47.2H181.7V538z M444.5,715.7H181.7v-45.9h262.8L444.5,715.7z M181.7,453.7
		v-47.1h362.9v47.1H181.7z"/>
</g>
</svg>
