<svg width="20" height="20" viewBox="0 0 20 20" fill="none" xmlns="http://www.w3.org/2000/svg">
<g id="receive-payment-svgrepo-com 1" clip-path="url(#clip0_1730_2679)">
<g id="Shopicon">
<path id="Vector" d="M10.6925 8.18791C11.0008 8.28207 11.3279 8.33332 11.6667 8.33332C13.5075 8.33332 15 6.84082 15 4.99999C15 3.15916 13.5075 1.66666 11.6667 1.66666C10.745 1.66666 9.91083 2.04082 9.3075 2.64541C8.99917 2.55124 8.6725 2.49999 8.33333 2.49999C6.4925 2.49999 5 3.99249 5 5.83332C5 7.67416 6.4925 9.16666 8.33333 9.16666C9.255 9.16666 10.0892 8.79249 10.6925 8.18791ZM11.6667 3.33332C12.5858 3.33332 13.3333 4.08082 13.3333 4.99999C13.3333 5.91916 12.5858 6.66666 11.6667 6.66666C10.7475 6.66666 10 5.91916 10 4.99999C10 4.08082 10.7479 3.33332 11.6667 3.33332ZM6.66667 5.83332C6.66667 4.91416 7.41417 4.16666 8.33333 4.16666C8.37 4.16666 8.40375 4.17499 8.44 4.17749C8.37292 4.44082 8.33333 4.71541 8.33333 4.99999C8.33333 5.86624 8.66667 6.65291 9.20833 7.24541C8.95333 7.40416 8.65542 7.49999 8.33333 7.49999C7.41458 7.49999 6.66667 6.75249 6.66667 5.83332Z" fill="#D94339"/>
<path id="Vector_2" d="M12.5002 10C10.0202 10 7.99476 10.7971 7.12517 11.9904C6.68767 11.6096 6.34934 11.235 6.16684 10.9992C5.33934 9.89792 3.76934 9.67375 2.66684 10.5C1.56434 11.3267 1.33976 12.8971 2.16726 14C2.29976 14.1771 5.47142 18.3333 10.0002 18.3333H18.3335V13.3333C18.3335 11.4329 15.8256 10 12.5002 10ZM3.50018 13C3.22434 12.6325 3.29934 12.1087 3.66559 11.8333C3.81559 11.7208 3.99184 11.6671 4.16601 11.6671C4.41934 11.6671 4.66893 11.7812 4.83101 11.9967C4.85309 12.0267 7.09434 15 10.0002 15H13.3335V14.1667V13.3333H10.0002C9.48809 13.3333 8.97517 13.1729 8.49601 12.9325C8.96601 12.3221 10.4273 11.6667 12.5002 11.6667C15.0435 11.6667 16.6668 12.6537 16.6668 13.3333V16.6667H15.8335H10.0002C6.29476 16.6667 3.61226 13.1496 3.50018 13Z" fill="#D94339"/>
</g>
</g>
<defs>
<clipPath id="clip0_1730_2679">
<rect width="20" height="20" fill="white"/>
</clipPath>
</defs>
</svg>
