<svg width="624" height="776" viewBox="0 0 624 776" fill="none" xmlns="http://www.w3.org/2000/svg">
<g clip-path="url(#clip0)">
<path fill-rule="evenodd" clip-rule="evenodd" d="M0 62.7638C0 28.4437 28.2911 0.621643 63.1899 0.621643H560.267C595.166 0.621643 623.457 28.4437 623.457 62.7637V713.858C623.457 748.178 595.166 776 560.267 776H63.1899C28.2911 776 0 748.178 0 713.858V62.7638ZM494.771 338.7C470.383 242.403 378.108 172.483 271.632 180.097C153.664 188.532 65.121 289.246 73.7003 405.276C82.2779 521.289 184.691 608.364 302.676 599.927C312.502 599.224 319.888 590.822 319.173 581.16C318.459 571.497 309.915 564.234 300.089 564.937C202.009 571.95 116.412 499.186 109.281 402.731C102.149 306.277 176.141 222.1 274.221 215.087C359.657 208.977 435.611 263.407 458.491 341.294L460.532 347.79L416.112 358.901L498.637 413.775L544.687 324.15L494.771 338.7ZM363.297 369.375C364.611 369.375 365.693 369.789 366.538 370.622C367.386 371.455 367.809 372.517 367.809 373.814V387.961C367.809 389.255 367.386 390.319 366.538 391.149C365.694 391.982 364.611 392.397 363.297 392.397H339.602C337.438 405.711 331.374 416.532 321.408 424.854C311.441 433.174 298.465 438.261 282.481 440.109C298.183 456.569 319.764 481.349 347.216 514.453C348.536 515.933 348.72 517.505 347.78 519.169C347.031 520.837 345.666 521.666 343.69 521.666H316.188C314.683 521.666 313.509 521.113 312.662 520.002C283.89 486.064 260.477 459.667 242.425 440.805C241.578 439.974 241.156 438.957 241.156 437.753V420.136C241.156 418.935 241.602 417.894 242.496 417.016C243.389 416.138 244.447 415.698 245.669 415.698H261.465C273.877 415.698 283.865 413.71 291.436 409.733C299.006 405.757 303.825 399.979 305.893 392.394H245.669C244.354 392.394 243.271 391.98 242.425 391.147C241.578 390.317 241.156 389.252 241.156 387.958V373.81C241.156 372.514 241.58 371.453 242.425 370.62C243.27 369.787 244.351 369.372 245.669 369.372H303.916C298.558 358.922 285.958 353.699 266.119 353.699H245.669C244.447 353.699 243.389 353.26 242.496 352.382C241.603 351.503 241.156 350.463 241.156 349.262V330.815C241.156 329.52 241.58 328.457 242.425 327.624C243.271 326.794 244.351 326.377 245.669 326.377H363.012C364.33 326.377 365.409 326.794 366.258 327.625C367.101 328.458 367.523 329.52 367.523 330.815V344.966C367.523 346.26 367.1 347.324 366.258 348.156C365.41 348.987 364.331 349.402 363.013 349.402H330.152C334.571 355.042 337.58 361.702 339.18 369.375H363.297Z" fill="white"/>
</g>
<defs>
<clipPath id="clip0">
<rect width="624" height="776" fill="white"/>
</clipPath>
</defs>
</svg>
