<svg width="574" height="724" viewBox="0 0 574 724" fill="none" xmlns="http://www.w3.org/2000/svg">
<path fill-rule="evenodd" clip-rule="evenodd" d="M58.791 0.0377197C26.7468 0.0377197 0.769775 26.0147 0.769775 58.059V665.977C0.769775 698.02 26.7468 724 58.791 724H515.209C547.254 724 573.231 698.02 573.23 665.976V58.0589C573.231 26.0147 547.254 0.0377197 515.21 0.0377197H58.791ZM342.906 351.254C344.32 351.251 345.484 351.703 346.395 352.611C347.308 353.519 347.766 354.68 347.769 356.098L347.803 371.568C347.807 372.983 347.354 374.148 346.444 375.057C345.538 375.97 344.375 376.426 342.961 376.43L317.481 376.485C315.185 391.051 308.691 402.897 297.994 412.021C287.295 421.143 273.353 426.736 256.169 428.796C273.095 446.756 296.362 473.803 325.963 509.937C327.386 511.552 327.588 513.271 326.581 515.093C325.779 516.919 324.314 517.829 322.188 517.834L292.614 517.899C290.996 517.903 289.731 517.299 288.818 516.087C257.795 479.044 232.554 450.234 213.096 429.65C212.183 428.744 211.726 427.633 211.723 426.316L211.681 407.053C211.678 405.739 212.156 404.6 213.114 403.637C214.072 402.675 215.209 402.192 216.523 402.189L233.51 402.151C246.858 402.122 257.594 399.924 265.726 395.557C273.857 391.191 279.025 384.862 281.232 376.563L216.467 376.706C215.053 376.709 213.888 376.258 212.975 375.349C212.063 374.443 211.607 373.281 211.604 371.866L211.57 356.394C211.567 354.978 212.02 353.816 212.926 352.903C213.833 351.99 214.995 351.534 216.411 351.531L279.05 351.393C273.262 339.979 259.7 334.298 238.366 334.345L216.374 334.393C215.06 334.395 213.921 333.918 212.958 332.959C211.996 332.001 211.513 330.865 211.51 329.551L211.466 309.379C211.463 307.962 211.916 306.8 212.822 305.887C213.731 304.977 214.891 304.519 216.308 304.515L342.496 304.237C343.914 304.234 345.075 304.688 345.99 305.594C346.898 306.502 347.354 307.664 347.357 309.08L347.392 324.554C347.395 325.969 346.943 327.133 346.04 328.045C345.129 328.955 343.97 329.412 342.552 329.415L307.215 329.493C311.98 335.65 315.232 342.926 316.971 351.312L342.906 351.254ZM126.392 549.972C157.099 578.193 196.676 596.16 237.548 603.552C244.959 603.536 265.299 597.74 268.647 579.539C272.825 556.823 251.325 545.913 240.053 543.297L239.557 543.174C239.331 543.118 239.105 543.062 238.879 543.005L238.61 542.938C224.238 539.293 210.307 534.004 197.122 527.239C184.735 520.206 173.143 511.829 162.555 502.259C152.132 491.94 142.874 480.512 135.003 468.173C127.845 455.796 122.053 442.66 117.743 429.028C113.953 414.985 111.733 400.582 111.162 386.073C111.21 371.667 112.844 357.323 116.038 343.303C119.658 330.008 124.686 317.127 130.982 304.845C138.004 292.492 146.364 280.931 155.911 270.369C166.229 259.946 177.658 250.688 189.997 242.816C202.373 235.659 215.509 229.867 229.142 225.556C243.185 221.767 257.588 219.547 272.096 218.975C286.503 219.023 300.848 220.658 314.867 223.852C328.161 227.472 341.042 232.499 353.324 238.795C365.678 245.817 377.238 254.177 387.8 263.724C398.224 274.042 407.482 285.471 415.353 297.81C422.511 310.187 428.303 323.323 432.614 336.955C436.403 350.998 438.623 365.401 439.195 379.909C439.193 380.257 439.191 380.604 439.188 380.951C435.512 376.053 431.835 371.155 428.158 366.256L427.966 366.001C423.211 359.68 415.622 356.358 408.09 355.143C400.11 353.907 392.077 357.013 385.736 361.723C379.858 366.12 375.715 374.453 374.878 381.601C373.977 389.597 376.682 397.588 381.458 403.954C383.517 406.763 385.622 409.553 387.727 412.341C402.028 431.376 416.347 450.454 430.668 469.533C431.266 470.447 431.924 471.319 432.631 472.149L432.651 472.175C435.913 476.51 440.508 479.435 445.503 481.237C447.006 481.856 448.619 482.31 450.291 482.608C451.035 482.772 451.783 482.912 452.528 483.033C457.522 483.821 462.816 482.778 467.585 480.705C467.721 480.648 467.856 480.59 467.989 480.531C468.584 480.269 469.171 479.983 469.752 479.676C471.584 478.728 473.311 477.638 474.882 476.452C477.691 474.393 480.48 472.289 483.269 470.184C503.152 455.246 523.08 440.288 543.009 425.329L543.103 425.26C549.378 420.524 552.7 412.935 553.961 405.382C555.197 397.402 552.091 389.37 547.38 383.028C542.984 377.151 534.651 373.009 527.503 372.171C519.507 371.27 511.516 373.975 505.15 378.75C503.009 380.32 500.879 381.916 498.753 383.518C498.766 380.149 498.72 376.768 498.624 373.374C498.115 353.755 494.094 334.973 488.551 316.208C483.716 299.918 476.807 284.378 467.991 269.845C457.784 253.026 446.468 237.409 432.189 223.753C417.845 210.072 402.842 197.994 385.408 188.463C375.46 183.012 365.383 177.89 354.74 173.838C344.163 169.812 333.216 166.932 322.188 164.361C302.765 159.863 283.038 158.889 263.158 159.676C243.594 160.434 224.807 164.566 206.142 170.339C187.524 176.091 170.573 184.881 154.044 195.123C137.352 205.493 123.026 218.372 109.659 232.686C96.0334 247.279 85.4597 263.587 76.1473 281.143C66.6358 299.114 60.4472 318.299 56.085 338.154C51.8103 357.587 50.9018 377.341 51.9381 397.165C52.9247 416.628 57.2088 435.512 63.1444 454.05C69.0801 472.588 77.9808 489.544 88.3862 505.947C98.9185 522.512 111.961 536.713 126.392 549.972Z" fill="black"/>
</svg>
