<?xml version="1.0" encoding="utf-8"?>
<!-- Generator: Adobe Illustrator 20.0.0, SVG Export Plug-In . SVG Version: 6.00 Build 0)  -->
<svg version="1.1" id="Ebene_1" xmlns="http://www.w3.org/2000/svg" xmlns:xlink="http://www.w3.org/1999/xlink" x="0px" y="0px"
	 viewBox="0 0 1000 1000" style="enable-background:new 0 0 1000 1000;" xml:space="preserve">
<path d="M226.7,407.3c-57.7,0-104.6,46.9-104.6,104.6c0,57.7,46.9,104.6,104.6,104.6s104.6-46.9,104.6-104.6
	S284.4,407.3,226.7,407.3z M229.5,572.6c-31.9,0-58-26-58-58c0-32,26-58,58-58s58,26,58,58C287.4,546.5,261.4,572.6,229.5,572.6z
	 M892,365H485.8c-47.4-70.2-127.6-116.5-218.5-116.5C122.1,248.5,3.9,366.6,3.9,511.9c0,145.2,118.2,263.4,263.4,263.4
	c90.9,0,171.1-46.3,218.5-116.5h119.4c8,0,15.8-3.2,21.5-8.9l40.9-40.9l40.9,40.9c5.7,5.7,13.4,8.9,21.5,8.9h24.5
	c8,0,15.8-3.2,21.5-8.9l40.9-40.9l40.9,40.9c5.7,5.7,13.4,8.9,21.5,8.9h24.5c8,0,15.8-3.2,21.5-8.9l62.4-62.4
	c5.7-5.7,8.9-13.4,8.9-21.5v-96.3C996.6,411.9,949.6,365,892,365z M490.1,511.3c0,9-0.7,18-1.8,26.9c-0.2,2-0.6,3.9-0.9,5.9
	c-1.1,7.4-2.5,14.8-4.4,22.1c-0.4,1.4-0.7,2.9-1.1,4.3c-5,17.8-12.1,35.1-21.4,51.3C422,688.5,350.2,733.6,267.8,733.6
	c-122.6,0-222.3-99.7-222.3-222.3c0-122.6,99.7-222.3,222.3-222.3c82.3,0,154.2,45.1,192.6,111.8c9.3,16.1,16.4,33.3,21.4,51.1
	c0.5,1.6,0.8,3.2,1.2,4.8c1.8,7.1,3.2,14.3,4.3,21.6c0.3,2.1,0.7,4.1,0.9,6.2C489.4,493.3,490.1,502.3,490.1,511.3
	C490.1,511.3,490.1,511.3,490.1,511.3z M950.1,562.2L904.3,616l-55-64.6c-11.8-13.8-32.7-13.8-44.5,0l-55,64.6l-55-64.6
	c-11.8-13.8-32.7-13.8-44.5,0l-55.3,65.1H516c0.3-0.9,0.4-1.8,0.6-2.6c1.6-5.6,3-11.3,4.4-17c0.9-3.9,1.8-7.8,2.6-11.8
	c1-5.1,2-10.2,2.8-15.4c0.8-5.3,1.5-10.6,2.1-15.9c0.4-4.1,1-8.2,1.3-12.4c0.8-9.8,1.3-19.6,1.3-29.4c0,0,0-0.1,0-0.1v0
	c0-9.9-0.5-19.8-1.3-29.6c-0.3-4.1-0.8-8-1.3-12c-0.6-5.5-1.3-11-2.2-16.4c-0.8-5-1.7-10-2.7-14.9c-0.8-4.2-1.7-8.3-2.7-12.4
	c-1.3-5.5-2.7-10.9-4.2-16.2c-0.3-1-0.5-2-0.8-3h388.7c25,0,45.3,23.9,45.3,53.2L950.1,562.2L950.1,562.2z"/>
</svg>
