<?xml version="1.0" encoding="utf-8"?>
<!-- Generator: Adobe Illustrator 18.1.1, SVG Export Plug-In . SVG Version: 6.00 Build 0)  -->
<svg version="1.1" id="Ebene_1" xmlns="http://www.w3.org/2000/svg" xmlns:xlink="http://www.w3.org/1999/xlink" x="0px" y="0px"
	 viewBox="0 0 1000 1000" enable-background="new 0 0 1000 1000" xml:space="preserve">
<path d="M940.4,560.3c0,242.7-198.3,439.5-440.9,439.5C255.4,998.4,58.6,801.5,58.6,560.3c0-218.9,167.2-405.4,383.2-434.9
	c1.4-63.6,5.9-118.3,13.3-124.2l5.9-1.4c28.1,0,281.2,159.7,282.5,190.8c0,4.4-3,10.3-11.9,19.2c-44.4,44.4-238.2,171.6-269.3,171.6
	l-4.4-1.4c-4.4-3-8.9-8.9-13.3-54.7c-1.4-17.8-3-44.4-3-73.9c-148,27.7-257.4,156.5-257.4,307.5c0,173.2,142.1,315,316.6,315
	s316.6-140.5,316.6-315c0-34.1,28.1-62.2,62.2-62.2C912.2,498.3,940.4,526.2,940.4,560.3z"/>
</svg>
