<svg xmlns="http://www.w3.org/2000/svg" width="80" height="62.622" viewBox="0 0 80 62.622">
    <defs>
        <style>
            .cls-1{fill-rule:evenodd}
        </style>
    </defs>
    <g id="bild-ersetzen" transform="translate(.2 -108.4)">
        <path id="Pfad_101" d="M36.564 108.4A26.7 26.7 0 0 1 55 115.937a20.856 20.856 0 0 0-5.177-.648c-12.065 0-21.85 10.321-21.85 23.058 0 .424.008.848.032 1.272h9.585l-18.9 18.89-18.89-18.89h8.513v-.072c0-17.2 12.649-31.147 28.251-31.147z" class="cls-1" data-name="Pfad 101"/>
        <path id="Pfad_102" d="M328.334 314.909a26.7 26.7 0 0 1-18.434-7.537 20.856 20.856 0 0 0 5.177.648c12.065 0 21.85-10.321 21.85-23.058 0-.424-.008-.848-.032-1.272h-9.585l18.89-18.89 18.89 18.89h-8.5v.072c0 17.2-12.657 31.147-28.259 31.147z" class="cls-1" data-name="Pfad 102" transform="translate(-285.289 -143.887)"/>
    </g>
</svg>
