<svg width="22" height="25" viewBox="0 0 22 25" fill="none" xmlns="http://www.w3.org/2000/svg">
<path d="M18.1053 19.1818H7.68421C7.16316 19.1818 6.71726 18.995 6.34653 18.6215C5.97516 18.2473 5.78947 17.7977 5.78947 17.2727V3.90909C5.78947 3.38409 5.97516 2.9345 6.34653 2.56032C6.71726 2.18677 7.16316 2 7.68421 2H14.3158L20 7.72727V17.2727C20 17.7977 19.8146 18.2473 19.4439 18.6215C19.0725 18.995 18.6263 19.1818 18.1053 19.1818ZM13.3684 8.68182V3.90909H7.68421V17.2727H18.1053V8.68182H13.3684ZM3.89474 23C3.37368 23 2.92779 22.8132 2.55705 22.4397C2.18568 22.0655 2 21.6159 2 21.0909V7.72727H3.89474V21.0909H14.3158V23H3.89474Z" fill="#00A353"/>
</svg>
