<?xml version="1.0" encoding="utf-8"?>
<!-- Generator: Adobe Illustrator 18.1.1, SVG Export Plug-In . SVG Version: 6.00 Build 0)  -->
<svg version="1.1" id="Ebene_1" xmlns="http://www.w3.org/2000/svg" xmlns:xlink="http://www.w3.org/1999/xlink" x="0px" y="0px"
	 viewBox="0 0 1000 1000" enable-background="new 0 0 1000 1000" xml:space="preserve">
<g>
	<g>
		<path d="M620.7,1000.1H378.8V855.4l-54-17.3l-97.2,99.4L63.5,773.3l97.2-97.2l-17.3-54H-1.3V380.2h144.7l17.3-54L63.5,229
			L227.6,64.9l97.2,99.4l54-17.3V2.3h241.9V147l54,17.3l97.2-99.4L936.1,229l-97.2,97.2l17.3,54h144.7v241.9H856.2l-17.3,54
			l97.2,97.2L771.9,937.5l-97.2-99.4l-54,17.3V1000.1z M439.3,939.6h120.9V812.2L689.8,769l82.1,84.2l77.8-77.8l-82.1-84.2
			l43.2-127.4h127.4v-121H810.8l-43.2-129.6l82.1-82.1l-77.8-77.8l-82.1,82.1l-129.6-43.2V64.9H439.3v127.4l-129.6,43.2l-82.1-82.1
			l-77.8,77.8l82.1,82.1l-43.2,129.6H61.3v121h127.4L232,691.2l-82.1,84.2l77.8,77.8l82.1-84.2l129.6,43.2V939.6z"/>
	</g>
	<g>
		<path d="M499.8,622.1c-67,0-120.9-54-120.9-121s54-121,120.9-121s120.9,54,120.9,121S566.7,622.1,499.8,622.1z M499.8,442.9
			c-32.4,0-60.5,28.1-60.5,60.5s28.1,60.5,60.5,60.5s60.5-28.1,60.5-60.5C560.3,468.8,532.2,442.9,499.8,442.9z"/>
	</g>
</g>
</svg>
