<svg id="Ebene_1" data-name="Ebene 1" xmlns="http://www.w3.org/2000/svg" viewBox="0 0 1000 1000"><path d="M500.61.74a38.43,38.43,0,0,0-38.42,38.41v6.6c0,18.37-12.93,34.75-31.06,37.67-8.8,1.42-17.51,3.07-26.11,5-17.82,4.07-35.85-6-42.84-22.89l-2.55-6a38.42,38.42,0,0,0-71,29.41l2.55,6.15C298.27,112,292.62,132,277,141.72q-11.29,7-22.06,14.7c-14.9,10.64-35.52,8.22-48.47-4.73L201.84,147a38.41,38.41,0,1,0-54.32,54.32l4.65,4.66c13,12.94,15.37,33.52,4.73,48.46q-7.67,10.79-14.71,22.06c-9.68,15.6-29.72,21.29-46.66,14.26l-6.08-2.55a38.43,38.43,0,1,0-29.49,71l6,2.48c16.87,7,27,25,23,42.84-2,8.61-3.68,17.32-5.1,26.11-2.88,18.1-19.23,31.06-37.59,31.06h-6.6a38.42,38.42,0,1,0,0,76.83h6.6c18.36,0,34.75,12.93,37.67,31.07,1.42,8.79,3.06,17.5,5,26.11,4.07,17.82-6,35.85-22.88,42.84l-6,2.55a38.42,38.42,0,1,0,29.41,71l6.15-2.55c16.94-7,37-1.38,46.67,14.18,4.69,7.52,9.56,14.91,14.7,22.13,10.65,14.9,8.22,35.52-4.72,48.47L147.52,799a38.41,38.41,0,0,0,54.32,54.32l4.73-4.65c12.94-12.95,33.49-15.44,48.39-4.8,7.22,5.14,14.61,10.09,22.14,14.78,15.55,9.68,21.28,29.72,14.25,46.67l-2.55,6.07a38.43,38.43,0,1,0,71,29.49l2.47-6c7-16.87,25-27,42.85-23,8.6,2,17.31,3.68,26.11,5.1,18,2.8,31,19.15,31,37.51v6.61a38.42,38.42,0,0,0,76.83,0V954.5c0-18.36,12.93-34.74,31.06-37.66,8.8-1.42,17.51-3.07,26.11-5,17.83-4.07,35.85,6,42.85,22.89l2.55,6a38.41,38.41,0,1,0,71-29.41L710,905.14c-7-16.95-1.37-36.95,14.18-46.67,7.53-4.69,14.91-9.56,22.14-14.71,14.9-10.64,35.52-8.22,48.47,4.73l4.65,4.73a38.41,38.41,0,1,0,54.32-54.33l-4.65-4.72c-13-12.95-15.45-33.49-4.81-48.4q7.73-10.83,14.79-22.13c9.68-15.56,29.72-21.28,46.66-14.25l6.08,2.55a38.43,38.43,0,1,0,29.49-71l-6-2.48c-16.86-7-27-25-23-42.84,2-8.6,3.68-17.31,5.1-26.11,2.8-18,19.15-31,37.51-31h6.61a38.42,38.42,0,0,0,0-76.83H955c-18.36,0-34.74-12.93-37.66-31.06-1.42-8.79-3.07-17.5-5-26.11-4.07-17.82,6-35.85,22.88-42.84l6-2.55a38.42,38.42,0,0,0-29.41-71l-6.16,2.55c-16.94,7-37,1.38-46.66-14.18-4.69-7.53-9.56-14.91-14.71-22.13C833.6,239.5,836,218.89,849,205.94l4.72-4.65A38.41,38.41,0,0,0,799.37,147l-4.65,4.72c-13,12.95-33.56,15.45-48.47,4.81-7.22-5.15-14.6-10.1-22.13-14.78C708.56,132,702.91,112,709.94,95.05L712.49,89a38.43,38.43,0,1,0-71-29.49l-2.55,6c-7,16.86-25,27-42.84,23-8.61-2-17.31-3.69-26.11-5.11C552,80.46,539,64.12,539,45.75v-6.6A38.43,38.43,0,0,0,500.61.74Zm0,192.07c156.68,0,285.75,117.35,304.69,268.9H567a76.85,76.85,0,0,0-66.4-38.41h-.08L381.39,216.82A306.22,306.22,0,0,1,500.61,192.81ZM315.06,255.53,434.13,461.71a76.19,76.19,0,0,0,0,76.68L315,744.65C241.17,688.52,193.29,600,193.29,500.13S241.2,311.66,315.06,255.53Zm252,283H805.3c-18.94,151.56-148,268.91-304.69,268.91a306.22,306.22,0,0,1-119.22-24L500.53,577h.08A76.81,76.81,0,0,0,567.08,538.54Z"/></svg>