<svg xmlns="http://www.w3.org/2000/svg" width="19.692" height="19.065" viewBox="0 0 19.692 19.065">
  <g id="house-black-silhouette-without-door" transform="translate(0 -4.89)">
    <path id="Pfad_2" data-name="Pfad 2" d="M19.446,14.192a.939.939,0,0,0-.077-1.344l-8.8-7.7a1.1,1.1,0,0,0-1.431.016L.306,13.259A.934.934,0,0,0,.264,14.6l.221.231a.966.966,0,0,0,1.325.1l.66-.591v8.653a.96.96,0,0,0,.961.961H6.873a.96.96,0,0,0,.961-.961V16.941h4.391v6.053a.908.908,0,0,0,.9.96h3.648a.96.96,0,0,0,.961-.961v-8.53l.407.357c.224.2.7.039,1.053-.354Z" transform="translate(0 0)" fill="#fff"/>
  </g>
</svg>
