<?xml version="1.0" encoding="utf-8"?>
<!-- Generator: Adobe Illustrator 22.1.0, SVG Export Plug-In . SVG Version: 6.00 Build 0)  -->
<svg version="1.1" id="Ebene_1" xmlns="http://www.w3.org/2000/svg" xmlns:xlink="http://www.w3.org/1999/xlink" x="0px" y="0px"
	 viewBox="0 0 1000 1000" style="enable-background:new 0 0 1000 1000;" xml:space="preserve">
<path d="M498.6,998.8c-275.7,0-500-224.3-500-500c0-275.7,224.3-500,500-500s500,224.3,500,500C998.6,774.5,774.3,998.8,498.6,998.8
	z M498.6,101.9c-218.9,0-396.9,178.1-396.9,396.9c0,218.9,178.1,396.9,396.9,396.9s396.9-178.1,396.9-396.9
	C895.6,280,717.5,101.9,498.6,101.9z"/>
<g>
	<path d="M330.8,498.8L330.8,498.8c0,25.8,20.9,46.8,46.8,46.8h242c25.8,0,46.8-20.9,46.8-46.8v0c0-25.8-20.9-46.8-46.8-46.8h-242
		C351.8,452.1,330.8,473,330.8,498.8z"/>
	<path d="M619.6,554.2h-242c-30.5,0-55.4-24.8-55.4-55.4s24.8-55.4,55.4-55.4h242c30.5,0,55.4,24.8,55.4,55.4
		S650.1,554.2,619.6,554.2z M377.6,460.7c-21,0-38.2,17.1-38.2,38.2c0,21,17.1,38.2,38.2,38.2h242c21.1,0,38.2-17.1,38.2-38.2
		c0-21-17.1-38.2-38.2-38.2H377.6z"/>
</g>
</svg>
