<?xml version="1.0" encoding="utf-8"?>
<!-- Generator: Adobe Illustrator 18.1.1, SVG Export Plug-In . SVG Version: 6.00 Build 0)  -->
<svg version="1.1" id="Ebene_1" xmlns="http://www.w3.org/2000/svg" xmlns:xlink="http://www.w3.org/1999/xlink" x="0px" y="0px"
	 viewBox="0 0 1000 1000" enable-background="new 0 0 1000 1000" xml:space="preserve">
<rect x="363.3" y="413.1" transform="matrix(0.707 -0.7073 0.7073 0.707 -301.8571 458.6666)" width="78.5" height="361"/>
<path d="M467.6,981.1L8,519.2L525.9-1H990v464.1L467.6,981.1z M97.7,519.2l372.2,372.2l459.6-455.2V61.8H552.8L97.7,519.2z"/>
<polygon points="812.9,718.7 745.6,925 642.5,889.1 595.4,936.2 783.8,999 907.1,624.6 "/>
<path d="M828.6,160.4c-17.9-17.9-44.8-29.1-71.7-29.1s-51.6,11.2-71.7,29.1c-40.4,40.4-40.4,103.1,0,143.5
	c17.9,17.9,44.8,29.1,71.7,29.1s51.6-11.2,71.7-29.1C866.7,263.6,866.7,200.8,828.6,160.4z M783.8,259.1
	c-13.5,13.5-40.4,13.5-53.8,0c-15.7-15.7-15.7-40.4,0-56.1c6.7-6.7,17.9-11.2,26.9-11.2c11.2,0,20.2,4.5,26.9,11.2
	C797.2,218.7,797.2,245.6,783.8,259.1z"/>
</svg>
