<svg id="tax_3_" data-name="tax (3)" xmlns="http://www.w3.org/2000/svg" width="22" height="22" viewBox="0 0 22 22">
  <path id="Pfad_65" data-name="Pfad 65" d="M18.239,9.382V.647A.647.647,0,0,0,17.592,0H.647A.647.647,0,0,0,0,.647V18A1.052,1.052,0,0,0,1.034,19.05,1.055,1.055,0,0,0,2.064,18V11.608c0-.009,0-.018,0-.027a2.29,2.29,0,0,1,2.294-2.2Zm-6.246-6.12a.647.647,0,1,1,1-.823l.97,1.179.97-1.179a.647.647,0,0,1,1,.823L14.8,4.637l1.131,1.375a.647.647,0,0,1-1,.822l-.97-1.179-.97,1.179a.647.647,0,1,1-1-.822l1.131-1.375ZM6.509,4.321a2.117,2.117,0,1,1,4.233,0v2.1a.647.647,0,1,1-1.294,0v-.5H7.8v.5a.647.647,0,0,1-1.294,0ZM3.71,7.07a.647.647,0,0,1-.647-.647V3.5H2.241a.647.647,0,1,1,0-1.294H5.179a.647.647,0,1,1,0,1.294H4.357V6.423A.647.647,0,0,1,3.71,7.07Z" fill="#afafaf"/>
  <path id="Pfad_66" data-name="Pfad 66" d="M73.276,247.5h0a1,1,0,0,0-1,.947v6.376a2.322,2.322,0,0,1-.251,1.051h2.258V248.5A1,1,0,0,0,73.276,247.5Z" transform="translate(-68.913 -236.824)" fill="#afafaf"/>
  <path id="Pfad_67" data-name="Pfad 67" d="M182.525,81.913a.822.822,0,1,0-1.645,0v.306h1.645Z" transform="translate(-173.077 -77.592)" fill="#afafaf"/>
  <path id="Pfad_68" data-name="Pfad 68" d="M163.59,247.5H149.02a2.283,2.283,0,0,1,.23,1v9.674a.647.647,0,0,0,.647.647h14.047a.647.647,0,0,0,.647-.647V248.5A1,1,0,0,0,163.59,247.5Zm-11.656,3.316h5.014a.647.647,0,0,1,0,1.294h-5.014a.647.647,0,0,1,0-1.294Zm5.046,4.787c-.031,0,.274,0-5.046,0a.647.647,0,1,1,0-1.294h5.014a.647.647,0,0,1,.031,1.293Zm5.42,0h-2.459a.647.647,0,0,1,0-1.294H162.4a.647.647,0,1,1,0,1.294Zm0-3.494h-2.459a.647.647,0,0,1,0-1.294H162.4a.647.647,0,0,1,0,1.294Z" transform="translate(-142.592 -236.824)" fill="#afafaf"/>
</svg>
