<svg xmlns="http://www.w3.org/2000/svg" data-name="Layer 1" viewBox="0 0 512 512"><path d="M218.7959,166h30a22.52586,22.52586,0,0,0,22.5-22.5v-58a22.52586,22.52586,0,0,0-22.5-22.5h-30a7.49943,7.49943,0,0,0-7.5,7.5v88A7.49943,7.49943,0,0,0,218.7959,166Zm7.5-88h22.5a7.5082,7.5082,0,0,1,7.5,7.5v58a7.5082,7.5082,0,0,1-7.5,7.5h-22.5Zm-97.0918,0h22.5v80.5a7.5,7.5,0,0,0,15,0V78h22.5a7.5,7.5,0,1,0,0-15h-60a7.5,7.5,0,0,0,0,15Zm-7.88965,133H280a7.5,7.5,0,0,0,0-15H121.31445a7.5,7.5,0,1,0,0,15ZM512,271a109.36889,109.36889,0,0,0-99.19043-108.7583V16.74023a13.4927,13.4927,0,0,0-21.00879-11.2373L373.793,17.59082a2.476,2.476,0,0,1-2.7627.00293L349.2334,2.959a17.42613,17.42613,0,0,0-19.46387.00489L307.97461,17.59668a2.4492,2.4492,0,0,1-2.74414-.00293L283.43359,2.959a17.45782,17.45782,0,0,0-19.47558.00586L242.1748,17.59668a2.4671,2.4671,0,0,1-2.75292-.002L217.63281,2.958a17.43661,17.43661,0,0,0-19.47461.01562L176.39355,17.59082a2.46338,2.46338,0,0,1-2.76367.002L151.85547,2.97656a17.436,17.436,0,0,0-19.48731-.01172L110.583,17.59766a2.46037,2.46037,0,0,1-2.751-.00293L89.833,5.50488A13.50081,13.50081,0,0,0,68.80957,16.74023V427H7.5A7.49943,7.49943,0,0,0,0,434.5v35A42.54815,42.54815,0,0,0,42.5,512H375.30957a37.60243,37.60243,0,0,0,37.5-37.62012v-1.1875c.00024-.06445.00488-.12793.00488-.19238V434.5c0-.03271-.00439-.06421-.00488-.09668v-54.645A109.36889,109.36889,0,0,0,512,271ZM42.5,497A27.53174,27.53174,0,0,1,15,469.5V442H334.81445v31a38.79529,38.79529,0,0,0,8.293,24Zm355.30957-23.80762A23.99794,23.99794,0,0,1,349.81445,473V434.5A10.58814,10.58814,0,0,0,340,427H83.80957V19.52832L99.47266,30.04883a17.40386,17.40386,0,0,0,19.47851-.00293l21.7627-14.61817a2.48412,2.48412,0,0,1,2.77636,0L165.26367,30.043a17.41275,17.41275,0,0,0,19.48828.00391L206.5166,15.42969a2.4745,2.4745,0,0,1,2.76172-.01367L231.06348,30.0498a17.4074,17.4074,0,0,0,19.47851-.0039l21.76172-14.61817a2.49337,2.49337,0,0,1,2.77539-.01074l21.78516,14.627a17.38653,17.38653,0,0,0,19.47656.00293l21.7832-14.625a2.47215,2.47215,0,0,1,2.75489-.00489L362.67285,30.0498a17.42552,17.42552,0,0,0,19.47656-.002l15.66016-10.51172V161.894a109.21873,109.21873,0,0,0,0,218.21192Zm4.9668-107.96875A94.22363,94.22363,0,1,1,497,271,94.33036,94.33036,0,0,1,402.77637,365.22363ZM316.7959,151h-23a7.5,7.5,0,0,0,0,15h23a29.5,29.5,0,0,0,0-59h-1a14.5,14.5,0,0,1,0-29h23a7.5,7.5,0,0,0,0-15h-23a29.5,29.5,0,0,0,0,59h1a14.5,14.5,0,0,1,0,29Zm130.88183,75.09863a7.50317,7.50317,0,0,0-10.60742,0L357.875,305.294a7.50058,7.50058,0,0,0,10.60742,10.60742l79.19531-79.19532A7.50137,7.50137,0,0,0,447.67773,226.09863Zm-28.99218,60.81153a22.50036,22.50036,0,0,0,31.82031,31.82031l.001-.001a22.50036,22.50036,0,0,0-31.82129-31.81933Zm21.21386,21.21289a7.4961,7.4961,0,1,1,0-10.60743A7.51084,7.51084,0,0,1,439.89941,308.12305Zm-53.0332-53.03223.001-.001a22.46087,22.46087,0,1,0-.001.001ZM365.65234,233.877a7.50024,7.50024,0,1,1,.001,10.60743A7.48169,7.48169,0,0,1,365.65234,233.877ZM121.31445,256H265a7.5,7.5,0,0,0,0-15H121.31445a7.5,7.5,0,1,0,0,15Zm-7.5,127.5a7.49944,7.49944,0,0,0,7.5,7.5H328a7.5,7.5,0,0,0,0-15H121.31445A7.49944,7.49944,0,0,0,113.81445,383.5Zm7.5-37.5H283a7.5,7.5,0,0,0,0-15H121.31445a7.5,7.5,0,1,0,0,15Zm0-45H267a7.5,7.5,0,0,0,0-15H121.31445a7.5,7.5,0,1,0,0,15Z"/></svg>