<svg width="20" height="20" viewBox="0 0 20 20" fill="none" xmlns="http://www.w3.org/2000/svg">
<path d="M10 3.62363C9.69252 3.62363 9.39764 3.74578 9.18022 3.9632C8.9628 4.18062 8.84065 4.4755 8.84065 4.78297C8.84065 5.09045 8.9628 5.38533 9.18022 5.60275C9.39764 5.82017 9.69252 5.94232 10 5.94232C10.3075 5.94232 10.6024 5.82017 10.8198 5.60275C11.0372 5.38533 11.1593 5.09045 11.1593 4.78297C11.1593 4.4755 11.0372 4.18062 10.8198 3.9632C10.6024 3.74578 10.3075 3.62363 10 3.62363ZM7.68131 4.78297C7.68131 4.16802 7.9256 3.57826 8.36044 3.14342C8.79528 2.70858 9.38504 2.46429 10 2.46429C10.6149 2.46429 11.2047 2.70858 11.6395 3.14342C12.0744 3.57826 12.3187 4.16802 12.3187 4.78297C12.3187 5.39793 12.0744 5.98769 11.6395 6.42253C11.2047 6.85737 10.6149 7.10166 10 7.10166C9.38504 7.10166 8.79528 6.85737 8.36044 6.42253C7.9256 5.98769 7.68131 5.39793 7.68131 4.78297ZM15.5069 4.2033C15.2763 4.2033 15.0551 4.29491 14.892 4.45798C14.729 4.62104 14.6374 4.8422 14.6374 5.07281C14.6374 5.30342 14.729 5.52458 14.892 5.68764C15.0551 5.85071 15.2763 5.94232 15.5069 5.94232C15.7375 5.94232 15.9586 5.85071 16.1217 5.68764C16.2848 5.52458 16.3764 5.30342 16.3764 5.07281C16.3764 4.8422 16.2848 4.62104 16.1217 4.45798C15.9586 4.29491 15.7375 4.2033 15.5069 4.2033ZM13.478 5.07281C13.478 4.80638 13.5305 4.54256 13.6325 4.2964C13.7344 4.05025 13.8839 3.8266 14.0723 3.6382C14.2606 3.4498 14.4843 3.30036 14.7305 3.1984C14.9766 3.09644 15.2404 3.04396 15.5069 3.04396C15.7733 3.04396 16.0371 3.09644 16.2833 3.1984C16.5294 3.30036 16.7531 3.4498 16.9415 3.6382C17.1299 3.8266 17.2793 4.05025 17.3813 4.2964C17.4832 4.54256 17.5357 4.80638 17.5357 5.07281C17.5357 5.61089 17.322 6.12694 16.9415 6.50742C16.561 6.8879 16.0449 7.10166 15.5069 7.10166C14.9688 7.10166 14.4527 6.8879 14.0723 6.50742C13.6918 6.12694 13.478 5.61089 13.478 5.07281ZM3.62362 5.07281C3.62362 4.8422 3.71523 4.62104 3.8783 4.45798C4.04136 4.29491 4.26252 4.2033 4.49313 4.2033C4.72374 4.2033 4.9449 4.29491 5.10796 4.45798C5.27103 4.62104 5.36263 4.8422 5.36263 5.07281C5.36263 5.30342 5.27103 5.52458 5.10796 5.68764C4.9449 5.85071 4.72374 5.94232 4.49313 5.94232C4.26252 5.94232 4.04136 5.85071 3.8783 5.68764C3.71523 5.52458 3.62362 5.30342 3.62362 5.07281ZM4.49313 3.04396C3.95505 3.04396 3.439 3.25772 3.05852 3.6382C2.67804 4.01868 2.46428 4.53473 2.46428 5.07281C2.46428 5.61089 2.67804 6.12694 3.05852 6.50742C3.439 6.8879 3.95505 7.10166 4.49313 7.10166C5.03121 7.10166 5.54726 6.8879 5.92774 6.50742C6.30822 6.12694 6.52197 5.61089 6.52197 5.07281C6.52197 4.53473 6.30822 4.01868 5.92774 3.6382C5.54726 3.25772 5.03121 3.04396 4.49313 3.04396ZM5.74 14.9301C5.47783 15.1029 5.17377 15.2015 4.86008 15.2154C4.54639 15.2293 4.23479 15.1581 3.95834 15.0092C3.68189 14.8603 3.45092 14.6393 3.28993 14.3697C3.12893 14.1002 3.04394 13.792 3.04395 13.478V9.71017C3.04395 9.6333 3.07449 9.55958 3.12884 9.50523C3.1832 9.45087 3.25692 9.42034 3.33379 9.42034H5.67044C5.72331 8.99591 5.89309 8.59453 6.16084 8.261H3.33379C2.94944 8.261 2.58084 8.41368 2.30907 8.68545C2.03729 8.95722 1.88461 9.32583 1.88461 9.71017V13.478C1.88446 13.9772 2.01322 14.4679 2.25841 14.9026C2.50359 15.3374 2.8569 15.7015 3.28411 15.9596C3.71132 16.2177 4.19795 16.3611 4.69687 16.376C5.19578 16.3908 5.69007 16.2765 6.13186 16.0442C5.95081 15.6926 5.81895 15.3177 5.74 14.9301ZM13.8681 16.0442C14.3099 16.2765 14.8042 16.3908 15.3031 16.376C15.802 16.3611 16.2887 16.2177 16.7159 15.9596C17.1431 15.7015 17.4964 15.3374 17.7416 14.9026C17.9868 14.4679 18.1155 13.9772 18.1154 13.478V9.71017C18.1154 9.32583 17.9627 8.95722 17.6909 8.68545C17.4192 8.41368 17.0505 8.261 16.6662 8.261H13.8391C14.1067 8.59467 14.2764 8.99598 14.3296 9.42034H16.6662C16.7431 9.42034 16.8168 9.45087 16.8711 9.50523C16.9255 9.55958 16.956 9.6333 16.956 9.71017V13.478C16.9561 13.792 16.8711 14.1002 16.7101 14.3697C16.5491 14.6393 16.3181 14.8603 16.0416 15.0092C15.7652 15.1581 15.4536 15.2293 15.1399 15.2154C14.8262 15.2015 14.5222 15.1029 14.26 14.9301C14.181 15.3177 14.0492 15.6926 13.8681 16.0442ZM7.97115 8.261C7.5868 8.261 7.2182 8.41368 6.94643 8.68545C6.67465 8.95722 6.52197 9.32583 6.52197 9.71017V14.0577C6.52197 14.9801 6.88841 15.8648 7.54066 16.517C8.19292 17.1693 9.07757 17.5357 10 17.5357C10.9224 17.5357 11.8071 17.1693 12.4593 16.517C13.1116 15.8648 13.478 14.9801 13.478 14.0577V9.71017C13.478 9.32583 13.3253 8.95722 13.0536 8.68545C12.7818 8.41368 12.4132 8.261 12.0288 8.261H7.97115ZM7.68131 9.71017C7.68131 9.6333 7.71185 9.55958 7.7662 9.50523C7.82056 9.45087 7.89428 9.42034 7.97115 9.42034H12.0288C12.1057 9.42034 12.1794 9.45087 12.2338 9.50523C12.2881 9.55958 12.3187 9.6333 12.3187 9.71017V14.0577C12.3187 14.6726 12.0744 15.2624 11.6395 15.6973C11.2047 16.1321 10.6149 16.3764 10 16.3764C9.38504 16.3764 8.79528 16.1321 8.36044 15.6973C7.9256 15.2624 7.68131 14.6726 7.68131 14.0577V9.71017Z" fill="#272D30"/>
</svg>
