<?xml version="1.0" encoding="utf-8"?>
<!-- Generator: Adobe Illustrator 22.1.0, SVG Export Plug-In . SVG Version: 6.00 Build 0)  -->
<svg version="1.1" id="Ebene_1" xmlns="http://www.w3.org/2000/svg" xmlns:xlink="http://www.w3.org/1999/xlink" x="0px" y="0px"
	 viewBox="0 0 1000 1000" style="enable-background:new 0 0 1000 1000;" xml:space="preserve">
<style type="text/css">
	.st0{stroke:#000000;stroke-width:0.25;stroke-miterlimit:10;}
</style>
<g>
	<g>
		<path d="M486.7,525H987c7.1,0,12.8-5.7,12.8-12.8C999.8,229.3,770.5,0,487.7,0h-1c-7.1,0-12.8,5.7-12.8,12.8v499.4
			C473.9,519.2,479.6,525,486.7,525"/>
	</g>
	<g>
		<path class="st0" d="M901.6,641.9c-67.2,176.3-249,296.5-454.1,267.8C263.8,884.1,115.9,736.1,90.4,552.4
			C62,347.8,181.4,166.5,357,99c3.4-1.3,5.6-4.5,5.6-8.1V19.2c0-6-6-10.4-11.7-8.6c-223,72.8-379,295.1-346.4,548.5
			c29.1,226,211.2,407.9,437.2,436.7C695.4,1028.1,917.8,871.6,990,648c1.8-5.7-2.6-11.7-8.6-11.7h-71.8
			C906.1,636.3,902.9,638.5,901.6,641.9"/>
	</g>
</g>
</svg>
