<?xml version="1.0" encoding="utf-8"?>
<!-- Generator: Adobe Illustrator 23.1.1, SVG Export Plug-In . SVG Version: 6.00 Build 0)  -->
<svg version="1.1" id="Ebene_1" xmlns="http://www.w3.org/2000/svg" xmlns:xlink="http://www.w3.org/1999/xlink" x="0px" y="0px"
	 viewBox="0 0 1000 974.8" style="enable-background:new 0 0 1000 974.8;" xml:space="preserve">
<style type="text/css">
	.st0{fill:#FFFFFF;}
</style>
<g id="icon" transform="translate(0)">
	<g id="Gruppe_2">
		<path id="Rechteck_14" class="st0" d="M385.9,403.4h186.3c27.5,0,49.7,22.3,49.7,49.7v472c0,27.5-22.3,49.7-49.7,49.7H385.9
			c-27.5,0-49.7-22.3-49.7-49.7v-472C336.1,425.6,358.4,403.4,385.9,403.4z"/>
		<g id="Gruppe_1">
			<path id="Rechteck_12" class="st0" d="M49.7,0h202.4l0,0v974.8l0,0H49.7C22.3,974.8,0,952.5,0,925.1V49.7C0,22.3,22.3,0,49.7,0z"
				/>
			<path id="Rechteck_13" class="st0" d="M1000,58.1v236l0,0H327.7l0,0v-236c0-27.5,22.3-49.7,49.7-49.7h572.8
				C977.7,8.4,1000,30.7,1000,58.1z"/>
			<path id="Rechteck_15" class="st0" d="M755.6,403.4h186.3c27.5,0,49.7,22.3,49.7,49.7v472c0,27.5-22.3,49.7-49.7,49.7H755.6
				c-27.5,0-49.7-22.3-49.7-49.7v-472C705.9,425.6,728.1,403.4,755.6,403.4z"/>
		</g>
	</g>
</g>
</svg>
