<?xml version="1.0" encoding="utf-8"?>
<!-- Generator: Adobe Illustrator 22.0.1, SVG Export Plug-In . SVG Version: 6.00 Build 0)  -->
<svg version="1.1" id="Ebene_1" xmlns="http://www.w3.org/2000/svg" xmlns:xlink="http://www.w3.org/1999/xlink" x="0px" y="0px"
	 viewBox="0 0 1000 1000" style="enable-background:new 0 0 1000 1000;" xml:space="preserve">
<g>
	<rect x="387.3" y="1.5" width="227.1" height="102.6"/>
	<path d="M500,126.7C259,126.7,63.8,322,63.8,562.9S259,999.1,500,999.1s436.2-195.3,436.2-436.2S741,126.7,500,126.7z M499.1,645.4
		c-43.6,0-78.9-35.3-78.9-78.9c0-30.2,17-56.4,41.9-69.7V279.5h75.9v218.1c5.2,3,10,6.6,14.3,10.7c15.8,14.4,25.7,35.2,25.7,58.2
		C578,610,542.6,645.4,499.1,645.4z"/>
	<path d="M868.3,252.8c-10.9,0-21.3-4.3-28.9-12L798.5,200c-16-16-16-41.9,0-57.8c16-16,41.9-16,57.8,0l40.9,40.9
		c16,16,16,41.9,0,57.8C889.6,248.6,879.2,252.9,868.3,252.8L868.3,252.8z"/>
</g>
</svg>
