<?xml version="1.0" encoding="utf-8"?>
<!-- Generator: Adobe Illustrator 18.1.1, SVG Export Plug-In . SVG Version: 6.00 Build 0)  -->
<svg version="1.1" id="Ebene_1" xmlns="http://www.w3.org/2000/svg" xmlns:xlink="http://www.w3.org/1999/xlink" x="0px" y="0px"
	 viewBox="0 0 1000 1000" enable-background="new 0 0 1000 1000" xml:space="preserve">
<path fill="#010101" d="M548,38.8c-1.2,0-1.2,0-2.7,0c-26.6,0-45.4,21.2-45.4,48s10.7,48,50.7,48l0,0
	c189.3,2.7,356.1,165.4,356.1,363.9c0,201.3-165.4,366.6-365.4,366.6c-192,0-350.7-143.9-365.4-334.6H260L130.7,313.4L0,530.7h80
	c14.6,240,214.6,430.5,460,430.5c253.4,0,460-207.9,460-461.2C1000,249.3,798.8,43.9,548,38.8z"/>
<path fill="#010101" d="M590.7,262.7c0-22.7-18.8-42.7-41.2-42.7h-9.3c-22.7,0-40,20-40,42.7v242.7L381.4,624.1
	c-17.3,17.3-16.1,45.4,0,62.7c16.1,17.3,45.4,17.3,62.7,0l130.7-130.7c1.2-1.2,1.2-2.7,2.7-2.7c6.6-8,12-17.3,12-29.3V262.7H590.7z"
	/>
</svg>
