<?xml version="1.0" encoding="utf-8"?>
<!-- Generator: Adobe Illustrator 19.2.1, SVG Export Plug-In . SVG Version: 6.00 Build 0)  -->
<svg version="1.1" id="Ebene_1" xmlns="http://www.w3.org/2000/svg" xmlns:xlink="http://www.w3.org/1999/xlink" x="0px" y="0px"
	 viewBox="0 0 1000 1000" style="enable-background:new 0 0 1000 1000;" xml:space="preserve">
<g>
	<path d="M541.9,507.5c-0.9-0.5-1.7-0.9-2.6-1.3l-0.4-201.6c0-4.3-1.7-8.3-4.7-11.3c-3-3-6.8-4.2-11.2-4.6l-39,0.1
		c-8.6,0-15.7,7.1-15.8,15.9l0.4,201.3c-15.6,7.5-28.3,19.7-36.5,35.1c-10.2,19.2-12.3,41.2-5.9,61.9c6.4,20.7,20.4,37.8,39.6,47.9
		c11.9,6.3,24.9,9.5,38,9.5c8,0,16-1.2,23.9-3.6c20.7-6.4,37.8-20.4,47.9-39.6C596.5,577.7,581.4,528.4,541.9,507.5z"/>
	<path d="M795,279.4l43.3-59.6l-111.7-81.1l-44.5,61.2c-38.6-18.6-80.5-31.3-124.5-37.4v-29.9h96l0-132.6L354.8,0v132.6h96v28.7
		c-43.2,5-84.4,16.5-122.6,33.5L277,124.2l-111.7,81.1l47.6,65.5c-83,77-135,187-135,309.1c0,232.8,188.8,421.6,421.6,421.6
		c232.8,0,421.6-188.8,421.6-421.6C921.1,462.3,872.8,355.9,795,279.4z M499.5,921.4c-188.2,0-341.4-153.1-341.4-341.4
		c0-188.2,153.1-341.4,341.4-341.4S840.8,391.8,840.8,580C840.8,768.2,687.7,921.4,499.5,921.4z"/>
</g>
</svg>
