<svg width="17" height="16" viewBox="0 0 17 16" fill="none" xmlns="http://www.w3.org/2000/svg">
<g id="Icon / Total stock">
<path id="Arrow 38" d="M1.75 13.3135C1.75 13.7277 2.08579 14.0635 2.5 14.0635L9.25 14.0635C9.66421 14.0635 10 13.7277 10 13.3135C10 12.8993 9.66421 12.5635 9.25 12.5635L3.25 12.5635L3.25 6.56348C3.25 6.14926 2.91421 5.81348 2.5 5.81348C2.08579 5.81348 1.75 6.14926 1.75 6.56348L1.75 13.3135ZM14.5637 1.99977C14.5637 1.58555 14.2279 1.24977 13.8137 1.24977L7.06371 1.24977C6.64949 1.24977 6.31371 1.58556 6.31371 1.99977C6.31371 2.41398 6.64949 2.74977 7.06371 2.74977H13.0637V8.74977C13.0637 9.16398 13.3995 9.49977 13.8137 9.49977C14.2279 9.49977 14.5637 9.16398 14.5637 8.74977L14.5637 1.99977ZM3.03033 13.8438L14.344 2.5301L13.2834 1.46944L1.96967 12.7831L3.03033 13.8438Z" fill="#888787"/>
</g>
</svg>
