<?xml version="1.0" encoding="utf-8"?>
<svg xmlns="http://www.w3.org/2000/svg" xmlns:xlink="http://www.w3.org/1999/xlink"
	 viewBox="0 0 1000 1000" width="1000" height="1000" x="0" y="0">
<path d="M189.9,999.3h620.4c19.3,0,34.3-15,34.3-34.3V272.1h86.2c19.3,0,34.3-15,34.3-34.3c0-9.5-4-17.8-9.5-23.3
	c-6.8-6.8-15-9.5-23.3-9.5H691.3V33.6c0-19.3-15-34.3-32.8-34.3H343.2c-19.3,0-34.3,15-34.3,34.3v171.2H69.4
	c-19.3,0-34.3,15-34.3,34.3s15,34.3,34.3,34.3h86.2v693.1C157,984.3,172.1,999.3,189.9,999.3z M376.3,66.6h247.8V205H376.3V66.6z
	 M224.2,272.1h553.5v658.8H224.2V272.1z"/>
<path d="M604.9,355.6c-19.3,0-34.3,15-34.3,34.3v426c0,19.3,15,34.3,34.3,34.3s34.3-15,34.3-34.3V388.4
	C639.2,370.6,624.1,355.6,604.9,355.6z"/>
<path d="M395.3,355.6c-19.3,0-34.3,15-34.3,34.3v426c0,19.3,15,34.3,34.3,34.3s34.3-15,34.3-34.3V388.4
	C429.7,370.6,414.6,355.6,395.3,355.6z"/>
</svg>
