<?xml version="1.0" encoding="utf-8"?>
<!-- Generator: Adobe Illustrator 19.2.0, SVG Export Plug-In . SVG Version: 6.00 Build 0)  -->
<svg version="1.1" id="Ebene_1" xmlns="http://www.w3.org/2000/svg" xmlns:xlink="http://www.w3.org/1999/xlink" x="0px" y="0px"
	 viewBox="0 0 1000 1000" style="enable-background:new 0 0 1000 1000;" xml:space="preserve">
<g>
	<path d="M887.1,1000H112.9C50.7,1000,0,949.3,0,887.1V112.9C0,50.7,50.7,0,112.9,0h774.2C949.3,0,1000,50.7,1000,112.9v774.2
		C1000,949.3,949.3,1000,887.1,1000z M112.9,53.8c-32.6,0-59.1,26.5-59.1,59.1v774.2c0,32.6,26.5,59.1,59.1,59.1h774.2
		c32.6,0,59.1-26.5,59.1-59.1V112.9c0-32.6-26.5-59.1-59.1-59.1H112.9z"/>
</g>
<g>
	<path d="M288.6,293H703l0.7,138.8h-19.8c-6.5-49.6-25.1-83.2-55.8-100.8c-17.3-9.7-43-14.9-77.3-15.8v362.5
		c0,25.3,4.4,42.1,13.3,50.4c8.9,8.3,27.3,12.4,55.3,12.4v17.5H374v-17.5c26.9,0,44.7-4.2,53.6-12.6c8.9-8.4,13.3-25.2,13.3-50.3
		V315.2c-33.6,0.9-59.3,6.2-77.3,15.8c-32.9,18-51.5,51.6-55.8,100.8H288L288.6,293z"/>
</g>
</svg>
