<?xml version="1.0" encoding="utf-8"?>
<!-- Generator: Adobe Illustrator 22.1.0, SVG Export Plug-In . SVG Version: 6.00 Build 0)  -->
<svg version="1.1" id="Ebene_1" xmlns="http://www.w3.org/2000/svg" xmlns:xlink="http://www.w3.org/1999/xlink" x="0px" y="0px"
	 viewBox="0 0 1000 1000" style="enable-background:new 0 0 1000 1000;" xml:space="preserve">
<style type="text/css">
	.st0{stroke:#000000;stroke-width:0.25;stroke-miterlimit:10;}
	.st1{stroke:#000000;stroke-width:0.5;stroke-miterlimit:10;}
</style>
<g>
	<path class="st0" d="M500,1000C224.3,1000,0,775.7,0,500S224.3,0,500,0s500,224.3,500,500S775.7,1000,500,1000z M500,73.2
		C264.6,73.2,73.2,264.6,73.2,500S264.6,926.8,500,926.8S926.8,735.4,926.8,500S735.4,73.2,500,73.2z"/>
</g>
<g>
	<g>
		<path class="st1" d="M500,597.6c-20.2,0-36.6-16.4-36.6-36.6V280.5c0-20.2,16.4-36.6,36.6-36.6s36.6,16.4,36.6,36.6V561
			C536.6,581.2,520.2,597.6,500,597.6z"/>
	</g>
	<g>
		<path class="st1" d="M500,756.1c-20.2,0-36.6-16.4-36.6-36.6s16.4-37.3,36.6-37.3s36.6,15.6,36.6,35.8v1.5
			C536.6,739.7,520.2,756.1,500,756.1z"/>
	</g>
</g>
</svg>
