<?xml version="1.0" encoding="utf-8"?>
<!-- Generator: Adobe Illustrator 22.1.0, SVG Export Plug-In . SVG Version: 6.00 Build 0)  -->
<svg version="1.1" id="Ebene_1" xmlns="http://www.w3.org/2000/svg" xmlns:xlink="http://www.w3.org/1999/xlink" x="0px" y="0px"
	 viewBox="0 0 1000 1000" style="enable-background:new 0 0 1000 1000;" xml:space="preserve">
<g>
	<path class="st0" d="M900.3,455.9l-177,176.9c-97.7,97.8-256.2,97.8-353.9,0c-15.4-15.3-27.5-32.6-38-50.5l82.2-82.2
		c3.9-3.9,8.7-6.2,13.3-8.9c5.7,19.4,15.6,37.8,30.9,53.1c48.8,48.8,128.2,48.8,176.9,0l176.9-176.9c48.8-48.8,48.8-128.2,0-177
		c-48.8-48.8-128.1-48.8-176.9,0l-62.9,63c-51-19.9-106.1-25.2-159.6-17.4l134.1-134.1c97.8-97.7,256.2-97.7,354,0
		C998,199.6,998,358.1,900.3,455.9L900.3,455.9z M432.4,746.8l-63,63c-48.8,48.8-128.2,48.8-177,0c-48.8-48.8-48.8-128.2,0-177
		l177-176.9c48.8-48.8,128.1-48.8,176.9,0c15.2,15.2,25.2,33.6,30.9,53c4.7-2.7,9.4-4.9,13.3-8.8l82.2-82.2
		c-10.5-17.9-22.6-35.1-38-50.5c-97.7-97.7-256.2-97.7-353.9,0L104,544.3c-97.7,97.8-97.7,256.2,0,354c97.7,97.7,256.2,97.7,353.9,0
		L592,764.1C538.4,772,483.4,766.6,432.4,746.8L432.4,746.8z"/>
	<path class="st1" d="M24.9,320.7c-9.3-2.8-16-8.3-20-16.4c-4.8-8.5-6.1-17.2-3.7-26.1c2.4-8.9,7.5-15.8,15.2-20.6
		c8.1-4.8,16.8-6.1,26.1-3.7h1.2l159.6,42.5c9.3,2.4,16.4,7.9,21.2,16.4c4.8,8.5,5.9,17.2,3,26.1c-2.4,9.3-7.7,16.4-15.8,21.2
		c-8.5,4.8-17.4,6.1-26.7,3.7L25.5,320.7H24.9z"/>
	<path class="st1" d="M26.7,41.5c6.9-6.4,14.9-9.7,24.3-9.7c9.7,0,18,3.2,24.9,9.7v0.6L193,158.6c6.9,6.9,10.3,15.2,10.3,24.9
		c0,9.7-3.4,17.8-10.3,24.3c-6.4,6.9-14.6,10.3-24.3,10.3c-9.7,0-18-3.5-24.9-10.3L26.7,90.7c-6.5-6.9-9.7-15-9.7-24.3
		C17,56.6,20.2,48.3,26.7,41.5L26.7,41.5z"/>
	<path class="st1" d="M279.2,5.6c8.1,4.8,13.4,11.5,15.8,20v0.6h0.6l42.5,160.2c2.8,8.9,1.8,17.6-3,26.1
		c-4.8,8.5-11.9,13.9-21.2,16.4c-9.3,2.4-18.2,1.2-26.7-3.7c-8.1-4.5-13.4-11.3-15.8-20.6L228.8,43.8c-2.4-8.9-1.2-17.4,3.7-25.5
		c4.9-8.1,11.5-13.4,20-15.8C261.8,0.1,270.7,1.2,279.2,5.6L279.2,5.6z"/>
	<path class="st1" d="M661.9,813.2c-2.8-8.9-1.8-17.6,3-26.1c4.8-8.5,11.9-13.9,21.2-16.4c9.3-2.4,18.2-1.2,26.7,3.7
		c8.1,4.8,13.4,12,15.8,21.2l43.1,160.2h-0.6c2.4,9.3,1.2,17.8-3.7,25.5c-4.5,8.1-11.3,13.4-20.6,15.8c-8.5,2.8-17,1.8-25.5-3
		c-8.5-4.5-13.9-11.1-16.4-20v-0.6L661.9,813.2z"/>
	<path class="st1" d="M831.9,782.2c9.7,0,17.8,3.3,24.3,9.7l117.8,117.1h-0.6c6.9,6.9,10.3,15.2,10.3,24.9c0,9.7-3.4,17.8-10.3,24.3
		c-6.4,6.9-14.6,10.3-24.3,10.3c-9.7,0-18-3.4-24.9-10.3L807,841.1c-6.5-6.4-9.7-14.6-9.7-24.3c0-9.7,3.2-18,9.7-24.9
		C813.8,785.5,822.1,782.2,831.9,782.2L831.9,782.2z"/>
	<path class="st1" d="M975.1,679.7c9.3,2.4,16,7.7,20,15.8c4.8,8.5,6.1,17.2,3.7,26.1c-2.4,8.9-7.5,15.8-15.2,20.6
		c-8.1,4.8-16.8,6.1-26.1,3.7h-0.6l-160.2-42.5c-9.3-2.4-16.4-7.9-21.2-16.4c-4.8-8.5-5.8-17.2-3-26.1c2.4-9.3,7.7-16.4,15.8-21.2
		c8.5-4.8,17.4-6.1,26.7-3.7L974.5,679h0.6L975.1,679.7z"/>
</g>
</svg>
