<?xml version="1.0" encoding="utf-8"?>
<!-- Generator: Adobe Illustrator 19.2.0, SVG Export Plug-In . SVG Version: 6.00 Build 0)  -->
<svg version="1.1" id="Ebene_1" xmlns="http://www.w3.org/2000/svg" xmlns:xlink="http://www.w3.org/1999/xlink" x="0px" y="0px"
	 viewBox="0 0 1000 1000" style="enable-background:new 0 0 1000 1000;" xml:space="preserve">
<path d="M360.8,441L462,339.8c2-2,4.2-3.8,6.5-5.3l1.2-0.7c2-1.2,3.8-2.2,5.8-3l1.9-0.6c2.3-0.8,4-1.3,5.7-1.6
	c0.8-0.1,1.5-0.2,2.3-0.3l1.3-0.1c2-0.2,3-0.4,4.1-0.4c1,0,2,0.1,2.9,0.2l1.8,0.2c1,0.1,2,0.2,3,0.4c1.7,0.3,3.1,0.8,4.6,1.3
	c1.6,0.4,2.3,0.7,3.1,1c1.6,0.6,3,1.5,4.6,2.4c1.3,0.7,1.8,1,2.3,1.3c2.3,1.5,4.5,3.3,6.3,5.2L620.5,441
	c7.6,7.6,11.8,17.8,11.8,28.6c0,10.8-4.2,20.9-11.8,28.6c-15.3,15.3-41.9,15.3-57.2,0L531,465.8v241.2c0,22.3-18.1,40.5-40.5,40.5
	c-22.3,0-40.5-18.2-40.5-40.5V465.8l-32.3,32.3c-15.3,15.3-41.9,15.3-57.2,0c-7.6-7.6-11.8-17.8-11.8-28.6
	C348.9,458.8,353.2,448.6,360.8,441z M911.6,437.4c0.1-3.4,0.2-6.8,0.2-10.3c0-157.5-127.6-285.1-285.1-285.1
	c-93.9,0-177.2,45.5-229.2,115.6c-23.2-9.1-48.5-14.1-74.9-14.1c-102.9,0-188.1,75.4-203.5,174C49.3,455.8,2.6,525.2,2.6,604.6
	c0,120.7,108,218.6,241.2,218.6h512.3c133.2,0,241.2-97.9,241.2-218.6C997.4,537.5,964,477.6,911.6,437.4z"/>
</svg>
