<svg width="12" height="12" viewBox="0 0 12 12" fill="none" xmlns="http://www.w3.org/2000/svg">
<path d="M6.34852 0.0696411C7.08865 0.0696411 7.79848 0.36366 8.32184 0.887017C8.84519 1.41037 9.13921 2.1202 9.13921 2.86034C9.13921 3.60048 8.84519 4.3103 8.32184 4.83366C7.79848 5.35702 7.08865 5.65104 6.34852 5.65104C5.60838 5.65104 4.89855 5.35702 4.37519 4.83366C3.85184 4.3103 3.55782 3.60048 3.55782 2.86034C3.55782 2.1202 3.85184 1.41037 4.37519 0.887017C4.89855 0.36366 5.60838 0.0696411 6.34852 0.0696411ZM6.34852 1.46499C5.97845 1.46499 5.62353 1.612 5.36186 1.87368C5.10018 2.13536 4.95317 2.49027 4.95317 2.86034C4.95317 3.23041 5.10018 3.58532 5.36186 3.847C5.62353 4.10868 5.97845 4.25569 6.34852 4.25569C6.71859 4.25569 7.0735 4.10868 7.33518 3.847C7.59685 3.58532 7.74386 3.23041 7.74386 2.86034C7.74386 2.49027 7.59685 2.13536 7.33518 1.87368C7.0735 1.612 6.71859 1.46499 6.34852 1.46499ZM6.34852 6.34871C8.21131 6.34871 11.9299 7.27662 11.9299 9.13941V11.2324H0.76712V9.13941C0.76712 7.27662 4.48572 6.34871 6.34852 6.34871ZM6.34852 7.67429C4.27642 7.67429 2.0927 8.6929 2.0927 9.13941V9.90685H10.6043V9.13941C10.6043 8.6929 8.42061 7.67429 6.34852 7.67429Z" fill="white"/>
</svg>
