<?xml version="1.0" encoding="utf-8"?>
<!-- Generator: Adobe Illustrator 19.2.0, SVG Export Plug-In . SVG Version: 6.00 Build 0)  -->
<svg version="1.1" id="Ebene_1" xmlns="http://www.w3.org/2000/svg" xmlns:xlink="http://www.w3.org/1999/xlink" x="0px" y="0px"
	 viewBox="0 0 1000 1000" style="enable-background:new 0 0 1000 1000;" xml:space="preserve">
<path d="M501.7,669.9c-103.5,0-187.1-83.6-187.1-187.1s83.6-187.1,187.1-187.1s187.1,83.6,187.1,187.1S605.2,669.9,501.7,669.9z
	 M501.7,172.3C191.2,172.3,4.1,482.8,4.1,482.8s187.1,310.5,497.6,310.5s497.6-310.5,497.6-310.5S812.2,172.3,501.7,172.3z
	 M501.7,358c-13.3,0-25.2,2.7-35.8,6.6c21.2,9.3,35.8,30.5,35.8,55.7c0,34.5-27.9,62.4-62.4,62.4c-25.2,0-46.4-14.6-55.7-35.8
	c-4,11.9-6.6,23.9-6.6,35.8c0,69,55.7,124.7,124.7,124.7s124.7-55.7,124.7-124.7S570.7,358,501.7,358z"/>
</svg>
