<svg id="Ebene_1" data-name="Ebene 1" xmlns="http://www.w3.org/2000/svg" viewBox="0 0 999.45 1000"><title>weblink</title><path d="M133.49,928.07c48.35,48.31,111.33,71.93,175.4,71.93s127-23.58,175.4-71.93l86.56-86.56L475.29,746l-86.56,86.56c-21.39,21.34-49.49,32.58-79.84,32.58s-58.49-11.24-79.84-32.58l-60.69-60.69C147,750.43,135.78,722.33,135.78,692s11.24-58.49,32.58-79.84L341.48,437.89c21.39-21.34,49.49-32.58,79.84-32.58s58.49,11.24,79.84,32.58l76.46,76.46,95.56-95.56-76.46-76.46a244.81,244.81,0,0,0-174.25-71.93c-66.36,0-128.19,24.72-175.4,71.93L72.8,516.59a247,247,0,0,0,0,349.65Z" transform="translate(-0.28)"/><path d="M927.2,482.87a247,247,0,0,0,0-349.65L866.51,72.53a247,247,0,0,0-349.65,0l-87.7,85.41,95.56,95.56,86.56-86.56c21.39-21.34,49.49-32.58,79.84-32.58s58.49,11.24,79.84,32.58l60.69,60.69C853,249,864.22,277.12,864.22,307.47S853,366,831.64,387.31L657.38,561.56c-21.39,21.34-49.49,32.58-79.84,32.58s-58.49-11.24-79.84-32.58L421.25,485.1,325.7,580.66l76.46,76.46C449.41,703.18,511.24,729,577.55,729s128.19-24.72,175.4-71.93Z" transform="translate(-0.28)"/></svg>