<?xml version="1.0" encoding="utf-8"?>
<!-- Generator: Adobe Illustrator 22.1.0, SVG Export Plug-In . SVG Version: 6.00 Build 0)  -->
<svg version="1.1" id="Ebene_1" xmlns="http://www.w3.org/2000/svg" xmlns:xlink="http://www.w3.org/1999/xlink" x="0px" y="0px"
	 viewBox="0 0 1000 1000" style="enable-background:new 0 0 1000 1000;" xml:space="preserve">
<style type="text/css">
	.st0{enable-background:new    ;}
</style>
<g class="st0">
	<path d="M832.1,951.5c-53.1,32.3-122.3,48.5-207.7,48.5c-101.2,0-183.7-27.9-247.5-83.8c-63.8-55.9-106.1-135.7-126.8-239.4h-82.3
		V548.8h64.7c-0.9-11.2-1.3-24.5-1.3-39.7c0-8.1,0.9-26.5,2.7-55.2h-66.1V327.9h85.6C278.2,224.2,325,143.7,393.8,86.2
		C462.6,28.7,548.2,0,650.7,0c75.1,0,135.5,12.4,181.4,37v175.1c-50.4-39.5-107.5-59.3-171.3-59.3c-49.5,0-93,15.9-130.5,47.8
		c-37.5,31.9-64.2,74.3-79.9,127.3h287.3v125.9H430.2c-1.8,26.5-2.7,44.9-2.7,55.2c0,12.1,0.4,25.4,1.3,39.7h308.9v127.9H449.1
		C482.8,789.9,550,846.5,650.7,846.5c63.4,0,123.8-20.2,181.4-60.6V951.5z"/>
</g>
</svg>
