<?xml version="1.0" encoding="utf-8"?>
<!-- Generator: Adobe Illustrator 21.1.0, SVG Export Plug-In . SVG Version: 6.00 Build 0)  -->
<svg version="1.1" id="Ebene_1" xmlns="http://www.w3.org/2000/svg" xmlns:xlink="http://www.w3.org/1999/xlink" x="0px" y="0px"
	 viewBox="0 0 1000 1000" style="enable-background:new 0 0 1000 1000;" xml:space="preserve">
<g>
	<path d="M190.1,654.9c-128-128-128-336.8,0-464.8c128-128,336.8-128,464.8,0c128,128,128,336.8,0,464.8
		C526.9,782.9,318.1,782.9,190.1,654.9z M979.9,872.6l-216.2-203c119.2-164.7,105.9-397.1-42.6-545.7
		c-164.7-164.7-432.4-164.7-597.2,0c-164.7,164.7-164.7,432.4,0,597.2c148.6,148.6,380.9,161.8,545.7,42.6l217.7,203
		c26.5,26.5,67.7,26.5,94.1,0C1006.4,940.2,1006.4,899.1,979.9,872.6L979.9,872.6z"/>
	<path d="M590.2,373.9H472.5V256.3c0-26.5-22.1-50-50-50c-26.5,0-50,22.1-50,50v117.7H254.8c-26.5,0-50,22.1-50,50
		c0,26.5,22.1,50,50,50h117.7v117.7c0,26.5,22.1,50,50,50c26.5,0,50-22.1,50-50V473.9h117.7c26.5,0,50-22.1,50-50
		C638.7,396,616.6,373.9,590.2,373.9z"/>
</g>
</svg>
