<?xml version="1.0" encoding="utf-8"?>
<!-- Generator: Adobe Illustrator 21.1.0, SVG Export Plug-In . SVG Version: 6.00 Build 0)  -->
<svg version="1.1" id="Ebene_1" xmlns="http://www.w3.org/2000/svg" xmlns:xlink="http://www.w3.org/1999/xlink" x="0px" y="0px"
	 viewBox="0 0 1000 1000" style="enable-background:new 0 0 1000 1000;" xml:space="preserve">
<g>
	<path d="M189.8,654.8c-128-128-128-336.9,0-465c128-128,336.9-128,465,0c128,128,128,336.9,0,465
		C526.7,782.8,317.8,782.8,189.8,654.8z M979.9,872.6L763.6,669.5C882.9,504.7,869.6,272.2,721,123.6
		c-164.8-164.8-432.6-164.8-597.4,0c-164.8,164.8-164.8,432.6,0,597.4c148.6,148.6,381.1,161.9,545.9,42.6l217.8,203.1
		c26.5,26.5,67.7,26.5,94.1,0C1006.4,940.2,1006.4,899.1,979.9,872.6L979.9,872.6z"/>
	<path d="M472.3,473.7H590c26.5,0,50-22.1,50-50c-1.4-27.9-23.5-50-50-50H472.3"/>
	<path d="M496.2,373.7H254.6c-26.5,0-50,22.1-50,50c0,26.5,22.1,50,50,50h238"/>
</g>
</svg>
