<svg width="201" height="186" viewBox="0 0 201 186" fill="none" xmlns="http://www.w3.org/2000/svg">
<path d="M97.5884 178.017C145.07 178.017 183.561 155.794 183.561 128.381C183.561 100.967 145.07 78.7444 97.5884 78.7444C50.1073 78.7444 11.6162 100.967 11.6162 128.381C11.6162 155.794 50.1073 178.017 97.5884 178.017Z" fill="#D5F9D9"/>
<path d="M72.3789 28.6302L63.6354 23.5823L63.6016 23.5641L63.5392 23.5277C59.2975 21.1273 53.4694 21.4966 47.0301 25.2129C34.0735 32.6951 23.5693 50.8895 23.5693 65.8512C23.5693 73.2839 26.17 78.5191 30.3649 80.9898L30.4299 81.0262L30.4611 81.0444L39.2046 86.0923L40.6948 82.1705C42.9781 81.5855 45.1671 80.6801 47.1965 79.4814C60.1531 72.0018 70.6573 53.8074 70.6573 38.8483C70.6807 36.5133 70.3769 34.1865 69.7548 31.9357L72.3789 28.6302Z" fill="#0079B3"/>
<path opacity="0.4" d="M23.7748 62.1904C23.6425 63.4057 23.5739 64.6271 23.5693 65.8496C23.5693 73.2823 26.17 78.5175 30.3649 80.9882L30.4299 81.0246L30.4611 81.0428L39.2046 86.0907L40.6948 82.1689C41.1838 82.0492 41.6779 81.9088 42.1772 81.7424L44.3956 74.0937L23.7748 62.1904Z" fill="#BA68C8"/>
<path d="M72.4601 66.9829C81.6216 51.1147 81.6209 33.9625 72.4584 28.6726C63.296 23.3826 48.4414 31.9581 39.2799 47.8263C30.1183 63.6946 30.1191 80.8467 39.2815 86.1367C48.444 91.4266 63.2985 82.8512 72.4601 66.9829Z" fill="#ADE5FF"/>
<path d="M73.6691 35.0314C70.7615 29.9913 64.7955 29.4243 57.7165 33.5126C45.9978 40.2744 36.0996 57.4233 36.0996 70.9624C36.0996 74.5071 36.781 77.5603 38.0709 79.7917C40.9785 84.8318 46.9445 85.3988 54.0235 81.3105C65.7422 74.5487 75.6404 57.4025 75.6404 43.8607C75.6404 40.316 74.959 37.2628 73.6717 35.0314H73.6691Z" fill="#BA68C8"/>
<path d="M73.9843 35.2193C70.6893 29.9581 64.3046 29.1493 56.9109 33.0555C44.6876 39.5208 34.7739 56.6645 35.294 70.5053C35.4318 74.1307 36.2744 77.2671 37.736 79.6077C41.0311 84.8715 47.4132 85.6803 54.8095 81.7715C67.0457 75.3088 76.9439 58.1651 76.4238 44.3216C76.2885 40.6963 75.4459 37.5599 73.9843 35.2193Z" fill="#0079B3"/>
<path d="M52.4348 80.418C47.7276 82.9068 43.4338 83.4738 40.0815 82.2046C39.154 81.4826 38.3616 80.6021 37.7409 79.6039C36.2794 77.2633 35.4367 74.1269 35.2989 70.5016C34.7788 56.6737 44.6796 39.53 56.9158 33.0517C61.6308 30.5577 65.9219 29.9985 69.2768 31.2677C70.203 31.9911 70.9952 32.8713 71.6174 33.8684C73.0764 36.209 73.919 39.3454 74.0569 42.9707C74.5692 56.8246 64.6736 73.9553 52.4348 80.418Z" fill="#FAFAFA"/>
<path opacity="0.3" d="M55.9293 57.4089L42.9883 56.5377C46.1386 50.3879 50.0396 45.7553 54.6913 42.6396L55.9293 57.4089Z" fill="#23B8FE"/>
<path d="M54.4307 36.4628C54.2836 36.5642 54.1623 36.6987 54.0764 36.8554C53.9906 37.0121 53.9427 37.1867 53.9365 37.3653V39.9061C53.9365 40.2468 54.1576 40.3925 54.4307 40.2312C54.578 40.1301 54.6996 39.9957 54.7854 39.839C54.8713 39.6822 54.919 39.5074 54.9248 39.3288V36.8009C54.9248 36.4498 54.7037 36.3042 54.4307 36.4628Z" fill="#0079B3"/>
<path d="M71.2863 46.1939C71.2745 46.3709 71.2212 46.5426 71.1309 46.6953C71.0405 46.8479 70.9156 46.9773 70.7662 47.0729L68.566 48.3472C68.2722 48.5163 68.0459 48.3966 68.0459 48.0872C68.0578 47.9102 68.111 47.7384 68.2014 47.5858C68.2917 47.4331 68.4166 47.3037 68.566 47.2081L70.7662 45.9338C71.0523 45.7595 71.2889 45.8792 71.2863 46.1939Z" fill="#0079B3"/>
<path d="M36.958 66.7248C36.9732 66.5471 37.0292 66.3753 37.1216 66.2228C37.2141 66.0703 37.3406 65.9413 37.4912 65.8458L39.6913 64.574C39.9852 64.405 40.2115 64.522 40.2115 64.8341C40.1967 65.0122 40.1405 65.1843 40.0475 65.3369C39.9545 65.4895 39.8272 65.6183 39.6757 65.7131L37.4756 66.9875C37.1947 67.1617 36.9554 67.0421 36.958 66.7248Z" fill="#0079B3"/>
<path d="M53.8151 76.4609C53.962 76.3593 54.0832 76.2249 54.169 76.0682C54.2548 75.9115 54.3028 75.737 54.3092 75.5585V73.015C54.3092 72.6769 54.0882 72.5313 53.8151 72.6899C53.6677 72.7912 53.546 72.9255 53.4597 73.0822C53.3735 73.2389 53.3251 73.4136 53.3184 73.5923V76.1332C53.3184 76.4739 53.542 76.6195 53.8151 76.4609Z" fill="#0079B3"/>
<path d="M55.4283 58.323L42.9893 56.5364H56.4062L55.4283 58.323Z" fill="#0079B3"/>
<path d="M55.9062 42.8768C55.9062 42.8768 57.0583 53.563 57.4172 56.0414C57.4541 56.185 57.4724 56.3327 57.4718 56.4809C57.4414 57.0368 57.2805 57.5776 57.0022 58.0597C56.7239 58.5418 56.3359 58.9516 55.8698 59.2559C55.4277 59.5159 55.0272 59.5341 54.7385 59.3677C54.5902 59.2819 54.0259 58.9542 53.8803 58.8736C53.5838 58.7071 53.4017 58.3534 53.4017 57.8333C53.2561 55.2638 54.2183 42.9782 54.2183 42.9782L55.0532 42.3774L55.9062 42.8768Z" fill="#045379"/>
<path d="M57.4712 56.4816C57.4408 57.0374 57.2799 57.5783 57.0016 58.0604C56.7233 58.5425 56.3353 58.9523 55.8692 59.2565C54.9849 59.7767 54.2671 59.3528 54.2671 58.3307C54.1215 55.7716 55.0708 43.4808 55.0708 43.4808L55.9056 42.8774C55.9056 42.8774 57.466 55.4569 57.4712 56.4816Z" fill="#0079B3"/>
<path d="M56.5934 56.9902C56.5801 57.2413 56.5077 57.4857 56.3821 57.7035C56.2565 57.9214 56.0812 58.1064 55.8704 58.2437C55.4699 58.4752 55.1475 58.2879 55.1475 57.825C55.161 57.5739 55.2335 57.3296 55.3591 57.1118C55.4847 56.894 55.6599 56.7089 55.8704 56.5715C56.271 56.3426 56.5934 56.5273 56.5934 56.9902Z" fill="#263238"/>
<path d="M68.8083 56.0176L66.2314 56.3276L66.2572 56.5419L68.8341 56.2319L68.8083 56.0176Z" fill="#37474F"/>
<path d="M60.1019 67.104L59.9033 67.1882L60.9156 69.5761L61.1141 69.4919L60.1019 67.104Z" fill="#37474F"/>
<path d="M47.1888 43.6795L46.9902 43.7637L48.0025 46.1515L48.2011 46.0673L47.1888 43.6795Z" fill="#37474F"/>
<path d="M42.0788 56.4642L39.502 56.7747L39.5278 56.989L42.1046 56.6785L42.0788 56.4642Z" fill="#37474F"/>
<path d="M70.5451 38.4668L68.2324 41.0598L68.3935 41.2035L70.7062 38.6105L70.5451 38.4668Z" fill="#37474F"/>
<path d="M61.2947 33.1709L60.2031 36.4695L60.4081 36.5373L61.4996 33.2387L61.2947 33.1709Z" fill="#37474F"/>
<path d="M47.822 76.4023L46.7305 79.7009L46.9354 79.7687L48.0269 76.4701L47.822 76.4023Z" fill="#37474F"/>
<path d="M39.8361 71.7515L37.5234 74.3445L37.6845 74.4882L39.9972 71.8952L39.8361 71.7515Z" fill="#37474F"/>
<path d="M53.9091 22.2352C53.8972 22.0946 53.8473 21.9599 53.7649 21.8454C53.6825 21.7309 53.5705 21.6409 53.441 21.585C53.092 21.4079 52.7062 21.3157 52.3149 21.3157C51.9236 21.3157 51.5378 21.4079 51.1888 21.585C51.0593 21.6409 50.9474 21.7309 50.8649 21.8454C50.7825 21.9599 50.7327 22.0946 50.7207 22.2352V28.3468C50.7327 28.4873 50.7825 28.622 50.8649 28.7365C50.9474 28.851 51.0593 28.941 51.1888 28.9969C51.5375 29.1736 51.9228 29.2656 52.3136 29.2656C52.7044 29.2656 53.0898 29.1736 53.4384 28.9969C53.5679 28.941 53.6799 28.851 53.7623 28.7365C53.8447 28.622 53.8946 28.4873 53.9065 28.3468L53.9091 22.2352Z" fill="#0F2759"/>
<path d="M51.1888 22.8795C51.0593 22.8236 50.9474 22.7336 50.8649 22.6191C50.7825 22.5046 50.7327 22.3699 50.7207 22.2293C50.7327 22.0887 50.7825 21.954 50.8649 21.8396C50.9474 21.7251 51.0593 21.6351 51.1888 21.5791C51.5378 21.4021 51.9236 21.3098 52.3149 21.3098C52.7062 21.3098 53.092 21.4021 53.441 21.5791C53.5705 21.6351 53.6825 21.7251 53.7649 21.8396C53.8473 21.954 53.8972 22.0887 53.9091 22.2293C53.8972 22.3699 53.8473 22.5046 53.7649 22.6191C53.6825 22.7336 53.5705 22.8236 53.441 22.8795C53.092 23.0565 52.7062 23.1488 52.3149 23.1488C51.9236 23.1488 51.5378 23.0565 51.1888 22.8795Z" fill="#37474F"/>
<path d="M56.8674 18.4908C56.8674 17.8172 56.4252 17.1436 55.5358 16.6313C53.7595 15.6066 50.878 15.6066 49.0991 16.6313C48.2123 17.1514 47.7676 17.8172 47.7676 18.4908V24.0562C47.7676 24.7272 48.2123 25.4008 49.0991 25.9131C50.878 26.9404 53.7595 26.9404 55.5358 25.9131C56.4252 25.393 56.8674 24.7272 56.8674 24.0562V18.4908Z" fill="#0079B3"/>
<path opacity="0.3" d="M49.0991 20.3477C48.2123 19.8275 47.7676 19.1618 47.7676 18.4908C47.7676 17.8198 48.2123 17.1436 49.0991 16.6313C50.878 15.6066 53.7595 15.6066 55.5358 16.6313C56.4252 17.1514 56.8674 17.8172 56.8674 18.4908C56.8674 19.1644 56.4252 19.8353 55.5358 20.3477C53.7595 21.3723 50.878 21.3723 49.0991 20.3477Z" fill="white"/>
<path opacity="0.2" d="M49.2954 20.4468V26.0175C49.4228 26.0799 49.5555 26.1423 49.6933 26.1995V20.6289C49.5567 20.5773 49.4238 20.5165 49.2954 20.4468ZM50.692 20.9358V26.5142C50.8168 26.5402 50.952 26.5636 51.0873 26.5792V21.0086C50.9541 20.9928 50.822 20.9685 50.692 20.9358ZM48.1875 19.5808V25.1541C48.3064 25.3004 48.4388 25.4354 48.5828 25.5572V19.9891C48.4337 19.8719 48.3008 19.7355 48.1875 19.5834V19.5808ZM54.8895 20.6497V26.223C55.0325 26.1657 55.1495 26.1033 55.2848 26.0409V20.4702C55.1575 20.5403 55.0254 20.6012 54.8895 20.6523V20.6497ZM55.9973 20.0255V25.5962C56.1412 25.479 56.2743 25.3494 56.3953 25.2087V19.6562C56.2774 19.7951 56.1438 19.9199 55.9973 20.0281V20.0255ZM53.4955 21.0164V26.587C53.6307 26.5714 53.7556 26.548 53.8908 26.5246V20.9358C53.7556 20.9774 53.6307 21.0008 53.4955 21.019V21.0164ZM52.1171 21.1022V26.6807H52.5124V21.1048C52.3811 21.1204 52.2484 21.1204 52.1171 21.1048V21.1022Z" fill="black"/>
<path d="M35.7309 35.759C35.6153 35.6788 35.4806 35.6305 35.3404 35.6191C35.2002 35.6077 35.0595 35.6335 34.9325 35.694C34.5715 35.846 34.2513 36.0808 33.9979 36.3794C33.7444 36.678 33.5648 37.0321 33.4735 37.413C33.4321 37.5485 33.4284 37.6927 33.4627 37.8302C33.4971 37.9676 33.5683 38.0931 33.6685 38.1932L38.329 42.1306C38.4435 42.2122 38.5778 42.2612 38.7179 42.2727C38.858 42.2841 38.9986 42.2575 39.1248 42.1957C39.4863 42.0445 39.807 41.81 40.0606 41.5112C40.3142 41.2125 40.4934 40.8579 40.5838 40.4766C40.6251 40.3411 40.6289 40.1969 40.5945 40.0594C40.5601 39.922 40.489 39.7965 40.3887 39.6964L35.7309 35.759Z" fill="#0F2759"/>
<path d="M34.4667 38.2442C34.3435 38.319 34.1999 38.3531 34.0563 38.3418C33.9126 38.3304 33.7762 38.2741 33.6663 38.1809C33.5564 38.0877 33.4786 37.9623 33.444 37.8224C33.4093 37.6826 33.4196 37.5353 33.4732 37.4016C33.5645 37.0207 33.7442 36.6666 33.9976 36.368C34.2511 36.0694 34.5712 35.8346 34.9322 35.6826C35.0554 35.6088 35.1985 35.5755 35.3416 35.5873C35.4847 35.5991 35.6205 35.6555 35.7298 35.7485C35.8392 35.8415 35.9167 35.9665 35.9513 36.1058C35.986 36.2451 35.9761 36.3918 35.9231 36.5252C35.8328 36.9062 35.6539 37.2604 35.4008 37.5592C35.1477 37.8579 34.8276 38.0926 34.4667 38.2442Z" fill="#37474F"/>
<path d="M35.421 33.5305C35.0751 33.2366 34.5341 33.1716 33.8814 33.403C32.581 33.8711 31.3119 35.3561 31.0648 36.7215C30.94 37.4055 31.0908 37.9282 31.4393 38.2221L34.3001 40.6615C34.646 40.9554 35.1869 41.0204 35.8423 40.7864C37.1426 40.3208 38.4092 38.8333 38.6562 37.4679C38.7811 36.7865 38.6302 36.2638 38.2817 35.9673L35.421 33.5305Z" fill="#0079B3"/>
<path opacity="0.3" d="M32.979 38.361C32.3263 38.5951 31.7853 38.5275 31.4394 38.2336C31.0936 37.9397 30.9401 37.4066 31.0727 36.7226C31.3328 35.3573 32.5811 33.8619 33.8893 33.4041C34.5421 33.1701 35.083 33.2377 35.4289 33.5316C35.7748 33.8255 35.9282 34.3482 35.8034 35.0322C35.5485 36.3975 34.2872 37.8825 32.979 38.361Z" fill="white"/>
<path opacity="0.2" d="M33.1195 38.2905L35.9803 40.7273C36.0687 40.6909 36.1597 40.6493 36.2403 40.6025L33.3796 38.1656C33.2959 38.2133 33.209 38.255 33.1195 38.2905ZM33.9803 37.7859L36.8567 40.228C36.9243 40.1733 36.9971 40.1135 37.0648 40.0511L34.1936 37.6143C34.1269 37.6767 34.0556 37.7341 33.9803 37.7859ZM32.1885 38.4855L35.0492 40.9223C35.1773 40.9267 35.3055 40.9171 35.4315 40.8937L32.5708 38.4569C32.4451 38.4829 32.3166 38.4925 32.1885 38.4855ZM35.6708 35.4999L38.5315 37.9368C38.5653 37.8379 38.5862 37.7443 38.6096 37.6533L35.754 35.2138C35.7328 35.311 35.705 35.4066 35.6708 35.4999ZM35.8346 34.6547L38.6954 37.0915C38.6978 36.9662 38.6891 36.8409 38.6694 36.717L35.8086 34.2854C35.8317 34.4062 35.8404 34.5293 35.8346 34.6521V34.6547ZM35.2495 36.3789L38.1102 38.8158C38.1622 38.7378 38.2091 38.6597 38.2507 38.5817L35.3899 36.1423C35.3471 36.2226 35.3002 36.3008 35.2495 36.3763V36.3789ZM34.6903 37.1279L37.5745 39.5648L37.7487 39.3593L34.8724 36.9199C34.8206 36.9958 34.7594 37.0648 34.6903 37.1253V37.1279Z" fill="black"/>
<path d="M66.8795 25.4454L69.625 27.0305L70.9058 24.812L68.1603 23.2269L66.8795 25.4454Z" fill="#0F2759"/>
<path d="M67.0378 22.668L71.6286 25.3064C71.8547 25.4364 72.1435 25.3584 72.2734 25.1322L73.6882 22.6705C73.8182 22.4443 73.7402 22.1556 73.5141 22.0256L68.9232 19.3872C68.6971 19.2572 68.4083 19.3352 68.2784 19.5614L66.8636 22.0231C66.7336 22.2493 66.8116 22.538 67.0378 22.668Z" fill="#0079B3"/>
<path opacity="0.2" d="M72.1248 21.1634L70.2393 24.4292L70.4712 24.5631L72.3567 21.2974L72.1248 21.1634Z" fill="black"/>
<path opacity="0.2" d="M73.8152 22.1551L71.9453 25.3903C71.9054 25.3806 71.867 25.3658 71.8309 25.3461L71.7061 25.2733L73.5915 22.0068L73.7164 22.0797C73.7521 22.101 73.7852 22.1263 73.8152 22.1551Z" fill="black"/>
<path opacity="0.2" d="M72.9431 21.6339L71.0576 24.8997L71.2896 25.0336L73.1751 21.7678L72.9431 21.6339Z" fill="black"/>
<path opacity="0.2" d="M67.1445 22.6073L69.0014 19.3877C69.053 19.3965 69.1024 19.415 69.1471 19.4423L69.2485 19.4995L67.363 22.7556L67.2616 22.6984C67.2182 22.6741 67.1787 22.6434 67.1445 22.6073Z" fill="black"/>
<path opacity="0.2" d="M71.2859 20.6788L69.4004 23.9446L69.6324 24.0785L71.5179 20.8127L71.2859 20.6788Z" fill="black"/>
<path opacity="0.2" d="M69.6628 19.7435L67.7773 23.0093L68.0093 23.1432L69.8948 19.8774L69.6628 19.7435Z" fill="black"/>
<path opacity="0.2" d="M70.4783 20.2123L68.5928 23.478L68.8248 23.612L70.7102 20.3462L70.4783 20.2123Z" fill="black"/>
<path d="M41.7326 146.518L22.555 135.449C21.9856 135.121 21.9856 134.59 22.555 134.261L79.3714 101.458C79.6902 101.296 80.0427 101.211 80.4003 101.211C80.7579 101.211 81.1104 101.296 81.4292 101.458L100.61 112.526C101.176 112.855 101.176 113.386 100.61 113.714L43.7904 146.518C43.4716 146.68 43.1191 146.764 42.7615 146.764C42.4039 146.764 42.0514 146.68 41.7326 146.518Z" fill="#E0E0E0"/>
<path d="M24.4056 135.069C24.2596 134.97 24.1461 134.83 24.0796 134.667C24.0131 134.503 23.9964 134.324 24.0318 134.151L33.0318 94.2723C33.1427 93.8854 33.3912 93.5523 33.7306 93.3359L87.3151 62.3983C87.4787 62.3115 87.6603 62.2644 87.8454 62.2607C88.0305 62.2571 88.2139 62.297 88.3807 62.3773C88.5268 62.4765 88.6402 62.6166 88.7067 62.7802C88.7732 62.9437 88.7899 63.1232 88.7546 63.2962L79.7475 103.164C79.6367 103.551 79.3881 103.884 79.0488 104.1L25.4537 135.042C25.293 135.127 25.1147 135.173 24.9329 135.178C24.7511 135.183 24.5707 135.146 24.4056 135.069Z" fill="#BA68C8"/>
<path opacity="0.8" d="M24.4056 135.069C24.2596 134.97 24.1461 134.83 24.0796 134.667C24.0131 134.503 23.9964 134.324 24.0318 134.151L33.0318 94.2723C33.1427 93.8854 33.3912 93.5523 33.7306 93.3359L87.3151 62.3983C87.4787 62.3115 87.6603 62.2644 87.8454 62.2607C88.0305 62.2571 88.2139 62.297 88.3807 62.3773C88.5268 62.4765 88.6402 62.6166 88.7067 62.7802C88.7732 62.9437 88.7899 63.1232 88.7546 63.2962L79.7475 103.164C79.6367 103.551 79.3881 103.884 79.0488 104.1L25.4537 135.042C25.293 135.127 25.1147 135.173 24.9329 135.178C24.7511 135.183 24.5707 135.146 24.4056 135.069Z" fill="white"/>
<path d="M34.0627 94.8708L25.0557 134.742C24.9788 135.091 25.1605 135.217 25.4645 135.043L79.0595 104.101C79.3989 103.885 79.6474 103.552 79.7583 103.165L88.7653 63.2937C88.8422 62.9443 88.6605 62.8151 88.3565 62.9898L34.7545 93.9344C34.418 94.1523 34.1721 94.4851 34.0627 94.8708Z" fill="#BA68C8"/>
<path opacity="0.6" d="M34.0627 94.8708L25.0557 134.742C24.9788 135.091 25.1605 135.217 25.4645 135.043L79.0595 104.101C79.3989 103.885 79.6474 103.552 79.7583 103.165L88.7653 63.2937C88.8422 62.9443 88.6605 62.8151 88.3565 62.9898L34.7545 93.9344C34.418 94.1523 34.1721 94.4851 34.0627 94.8708Z" fill="white"/>
<path opacity="0.05" d="M34.0627 94.8708L25.0557 134.742C24.9788 135.091 25.1605 135.217 25.4645 135.043L79.0595 104.101C79.3989 103.885 79.6474 103.552 79.7583 103.165L88.7653 63.2937C88.8422 62.9443 88.6605 62.8151 88.3565 62.9898L34.7545 93.9344C34.418 94.1523 34.1721 94.4851 34.0627 94.8708Z" fill="black"/>
<path d="M89.411 62.9717C89.2445 62.8909 89.0612 62.8504 88.8761 62.8534C88.691 62.8565 88.5092 62.903 88.3454 62.9892L34.7539 93.9339C34.5956 94.0348 34.4686 94.1779 34.3872 94.347C34.3057 94.5161 34.273 94.7045 34.2927 94.8912L41.3362 144.262C41.3688 144.451 41.4392 144.632 41.543 144.793C41.6468 144.955 41.7821 145.094 41.9406 145.202C42.1081 145.282 42.292 145.322 42.4777 145.319C42.6634 145.315 42.8456 145.268 43.0097 145.181L96.6013 114.24C96.7573 114.139 96.8827 113.998 96.964 113.831C97.0453 113.664 97.0794 113.478 97.0625 113.293L90.0155 63.8976C89.9816 63.7107 89.9107 63.5325 89.8069 63.3735C89.7031 63.2145 89.5685 63.0779 89.411 62.9717Z" fill="#BA68C8"/>
<path opacity="0.8" d="M89.411 62.9717C89.2445 62.8909 89.0612 62.8504 88.8761 62.8534C88.691 62.8565 88.5092 62.903 88.3454 62.9892L34.7539 93.9339C34.5956 94.0348 34.4686 94.1779 34.3872 94.347C34.3057 94.5161 34.273 94.7045 34.2927 94.8912L41.3362 144.262C41.3688 144.451 41.4392 144.632 41.543 144.793C41.6468 144.955 41.7821 145.094 41.9406 145.202C42.1081 145.282 42.292 145.322 42.4777 145.319C42.6634 145.315 42.8456 145.268 43.0097 145.181L96.6013 114.24C96.7573 114.139 96.8827 113.998 96.964 113.831C97.0453 113.664 97.0794 113.478 97.0625 113.293L90.0155 63.8976C89.9816 63.7107 89.9107 63.5325 89.8069 63.3735C89.7031 63.2145 89.5685 63.0779 89.411 62.9717Z" fill="white"/>
<path d="M35.3234 95.4764L42.3669 144.854C42.3688 144.928 42.391 145 42.431 145.062C42.471 145.124 42.5272 145.174 42.5936 145.206C42.66 145.238 42.734 145.251 42.8074 145.244C42.8808 145.237 42.9508 145.21 43.0098 145.165L96.6013 114.224C96.7573 114.123 96.8828 113.982 96.9641 113.815C97.0454 113.648 97.0794 113.462 97.0625 113.277L90.0155 63.8993C90.0144 63.8256 89.9928 63.7537 89.9533 63.6916C89.9137 63.6294 89.8577 63.5794 89.7914 63.5472C89.7252 63.515 89.6513 63.5018 89.578 63.509C89.5046 63.5163 89.4348 63.5438 89.3761 63.5884L35.7846 94.5435C35.6308 94.643 35.5068 94.7823 35.4256 94.9465C35.3444 95.1107 35.3091 95.2937 35.3234 95.4764Z" fill="#BA68C8"/>
<path opacity="0.95" d="M35.3234 95.4764L42.3669 144.854C42.3688 144.928 42.391 145 42.431 145.062C42.471 145.124 42.5272 145.174 42.5936 145.206C42.66 145.238 42.734 145.251 42.8074 145.244C42.8808 145.237 42.9508 145.21 43.0098 145.165L96.6013 114.224C96.7573 114.123 96.8828 113.982 96.9641 113.815C97.0454 113.648 97.0794 113.462 97.0625 113.277L90.0155 63.8993C90.0144 63.8256 89.9928 63.7537 89.9533 63.6916C89.9137 63.6294 89.8577 63.5794 89.7914 63.5472C89.7252 63.515 89.6513 63.5018 89.578 63.509C89.5046 63.5163 89.4348 63.5438 89.3761 63.5884L35.7846 94.5435C35.6308 94.643 35.5068 94.7823 35.4256 94.9465C35.3444 95.1107 35.3091 95.2937 35.3234 95.4764Z" fill="white"/>
<path d="M39.23 129.48L32.9411 133.11C32.813 133.086 32.6814 133.086 32.5533 133.11L25.1324 134.542H25.1045L38.8177 126.618L39.23 129.48Z" fill="#BA68C8"/>
<path opacity="0.5" d="M39.23 129.48L32.9411 133.11C32.813 133.086 32.6814 133.086 32.5533 133.11L25.1324 134.542H25.1045L38.8177 126.618L39.23 129.48Z" fill="white"/>
<path opacity="0.2" d="M39.23 129.48L32.9411 133.11C32.813 133.086 32.6814 133.086 32.5533 133.11L25.1324 134.542H25.1045L38.8177 126.618L39.23 129.48Z" fill="black"/>
<path d="M41.2801 143.877L33.5483 133.462C33.3981 133.284 33.1928 133.161 32.9648 133.113L39.2292 129.479L41.2801 143.877Z" fill="#BA68C8"/>
<path opacity="0.6" d="M41.2801 143.877L33.5483 133.462C33.3981 133.284 33.1928 133.161 32.9648 133.113L39.2292 129.479L41.2801 143.877Z" fill="white"/>
<path opacity="0.1" d="M41.2801 143.877L33.5483 133.462C33.3981 133.284 33.1928 133.161 32.9648 133.113L39.2292 129.479L41.2801 143.877Z" fill="black"/>
<path d="M41.0402 144.362L33.5599 134.646C33.4361 134.501 33.279 134.387 33.102 134.316C32.925 134.244 32.7334 134.216 32.5432 134.234L25.5556 135.244C25.1618 135.284 24.7645 135.213 24.4096 135.037C24.1267 134.873 24.1756 134.688 24.518 134.618L32.5537 133.07C32.7404 133.044 32.9306 133.067 33.1062 133.135C33.2818 133.204 33.4368 133.316 33.5564 133.462L42.0883 144.953C42.298 145.232 42.2351 145.33 41.9486 145.166C41.6043 144.949 41.2975 144.678 41.0402 144.362Z" fill="#BA68C8"/>
<path opacity="0.8" d="M41.0402 144.362L33.5599 134.646C33.4361 134.501 33.279 134.387 33.102 134.316C32.925 134.244 32.7334 134.216 32.5432 134.234L25.5556 135.244C25.1618 135.284 24.7645 135.213 24.4096 135.037C24.1267 134.873 24.1756 134.688 24.518 134.618L32.5537 133.07C32.7404 133.044 32.9306 133.067 33.1062 133.135C33.2818 133.204 33.4368 133.316 33.5564 133.462L42.0883 144.953C42.298 145.232 42.2351 145.33 41.9486 145.166C41.6043 144.949 41.2975 144.678 41.0402 144.362Z" fill="white"/>
<path d="M88.7717 63.0973C88.7709 62.9539 88.7348 62.8129 88.6665 62.6868C88.5983 62.5606 88.5 62.4533 88.3804 62.3741C88.2134 62.2946 88.0301 62.2551 87.8452 62.2588C87.6602 62.2624 87.4786 62.3091 87.3148 62.3951L33.7198 93.3362C33.5571 93.4397 33.415 93.5724 33.3005 93.7275C33.1754 93.8913 33.0829 94.0775 33.028 94.2761L31.7598 99.9081L32.8079 100.499L87.5 68.9215L88.7717 63.293C88.7798 63.228 88.7798 63.1623 88.7717 63.0973Z" fill="#BA68C8"/>
<path opacity="0.6" d="M88.7548 63.2937C88.8317 62.9443 88.65 62.8151 88.3461 62.9898L34.7545 93.9344C34.4154 94.1511 34.1669 94.484 34.0558 94.8708L32.791 100.499L87.4831 68.9223L88.7548 63.2937Z" fill="black"/>
<path opacity="0.5" d="M34.3311 94.325C34.2057 94.4867 34.1142 94.6721 34.0621 94.87L32.7903 100.499L31.7422 99.9081L33.0104 94.2761C33.0646 94.0772 33.1572 93.8908 33.283 93.7275L34.3311 94.325Z" fill="black"/>
<path opacity="0.2" d="M88.772 63.0977C88.7475 62.9056 88.5798 62.8567 88.3457 62.9929L34.7507 93.9306C34.5864 94.0334 34.444 94.1676 34.3315 94.3254L33.3008 93.728C33.4152 93.5728 33.5574 93.4401 33.72 93.3366L87.3151 62.399C87.4789 62.313 87.6604 62.2663 87.8454 62.2627C88.0304 62.259 88.2136 62.2985 88.3807 62.378C88.4993 62.4573 88.597 62.5642 88.6651 62.6896C88.7333 62.815 88.77 62.955 88.772 63.0977Z" fill="black"/>
<path d="M90.0889 64.3697L90.019 63.898C90.022 63.8748 90.022 63.8513 90.019 63.8281C90.0204 63.8224 90.0204 63.8164 90.019 63.8107C89.9331 63.4694 89.7241 63.172 89.432 62.9757C89.2655 62.8948 89.0823 62.8543 88.8972 62.8573C88.7121 62.8604 88.5303 62.9069 88.3664 62.9931L34.7539 93.9343C34.5901 94.034 34.4608 94.1815 34.3836 94.357C34.3027 94.5191 34.2711 94.7013 34.2928 94.8811L35.3025 101.956L36.3506 102.554L91.0462 70.9765L90.0889 64.3697Z" fill="#6A1370"/>
<path opacity="0.5" d="M36.3331 102.551L35.285 101.954L34.2928 94.8895C34.2711 94.7097 34.3027 94.5275 34.3836 94.3655L35.4317 94.9594C35.3502 95.1213 35.3175 95.3034 35.3374 95.4835L36.3331 102.551Z" fill="black"/>
<path opacity="0.3" d="M89.9987 63.7966C89.9848 63.7323 89.9549 63.6726 89.9116 63.6231C89.8684 63.5735 89.8132 63.5358 89.7514 63.5135C89.6896 63.4911 89.6231 63.4848 89.5581 63.4952C89.4932 63.5057 89.432 63.5324 89.3802 63.573L35.7852 94.5421C35.6296 94.6454 35.508 94.7925 35.4358 94.9648L34.3877 94.3709C34.4619 94.1989 34.583 94.0512 34.7371 93.9446L88.3426 62.993C88.5061 62.9062 88.6878 62.8591 88.8729 62.8555C89.058 62.8518 89.2414 62.8917 89.4082 62.972C89.699 63.1657 89.909 63.4589 89.9987 63.7966Z" fill="black"/>
<g opacity="0.2">
<path opacity="0.2" d="M40.2389 95.5303C40.2152 95.195 40.2842 94.8596 40.4382 94.5607C40.5923 94.2619 40.8255 94.0111 41.1124 93.8359C41.6819 93.5074 42.2129 93.731 42.3003 94.339C42.3238 94.6748 42.2549 95.0107 42.1009 95.31C41.9469 95.6094 41.7137 95.8608 41.4268 96.037C40.8573 96.3654 40.3263 96.1418 40.2389 95.5303Z" fill="black"/>
<path opacity="0.2" d="M47.4643 91.3582C47.4412 91.0225 47.5103 90.6867 47.6643 90.3874C47.8182 90.0881 48.0511 89.8367 48.3378 89.6602C48.9073 89.3318 49.4418 89.5589 49.5257 90.1669C49.5488 90.5026 49.4797 90.8383 49.3257 91.1376C49.1718 91.4369 48.9389 91.6884 48.6522 91.8648C48.0862 92.1933 47.5552 91.9662 47.4643 91.3582Z" fill="black"/>
<path opacity="0.2" d="M54.6862 87.2071C54.6626 86.8713 54.7316 86.5354 54.8856 86.236C55.0396 85.9367 55.2727 85.6853 55.5596 85.5091C56.1291 85.1807 56.6637 85.4078 56.7475 86.0157C56.7712 86.3511 56.7022 86.6865 56.5482 86.9854C56.3942 87.2842 56.161 87.5349 55.874 87.7102C55.3046 88.0282 54.7735 87.8011 54.6862 87.2071Z" fill="black"/>
<path opacity="0.2" d="M69.1255 78.8514C69.1023 78.5156 69.1714 78.1799 69.3254 77.8806C69.4794 77.5813 69.7123 77.3298 69.9989 77.1534C70.5684 76.825 71.103 77.0521 71.1903 77.66C71.2127 77.9961 71.1429 78.3319 70.9883 78.6311C70.8338 78.9304 70.6004 79.1817 70.3134 79.358C69.7474 79.6864 69.2163 79.4593 69.1255 78.8514Z" fill="black"/>
<path opacity="0.2" d="M76.361 74.6805C76.3374 74.3447 76.4064 74.0088 76.5604 73.7094C76.7144 73.4101 76.9475 73.1586 77.2344 72.9825C77.8039 72.6541 78.335 72.8812 78.4223 73.4891C78.446 73.8245 78.377 74.1599 78.223 74.4587C78.069 74.7576 77.8358 75.0083 77.5489 75.1836C76.9794 75.512 76.4623 75.2884 76.361 74.6805Z" fill="black"/>
<path opacity="0.2" d="M83.5798 70.5089C83.5561 70.1735 83.625 69.8381 83.7791 69.5392C83.9331 69.2404 84.1663 68.9896 84.4532 68.8144C85.0227 68.486 85.5538 68.7096 85.6411 69.3175C85.6647 69.6533 85.5957 69.9892 85.4417 70.2886C85.2877 70.5879 85.0546 70.8393 84.7677 71.0155C84.1982 71.3439 83.6636 71.1343 83.5798 70.5089Z" fill="black"/>
</g>
<path d="M42.4257 93.3543C42.4269 93.5641 42.4082 93.7735 42.3698 93.9797C42.3503 94.086 42.3247 94.1909 42.2929 94.2942C42.1651 94.7747 41.8557 95.1868 41.43 95.4436C41.1523 95.6054 40.8359 95.6887 40.5146 95.6847C40.4309 95.6914 40.3467 95.6914 40.263 95.6847C40.2513 95.6398 40.242 95.5943 40.2351 95.5484C40.2057 95.2652 40.2527 94.9793 40.3713 94.7204C40.5679 94.7512 40.7691 94.7168 40.9443 94.6226C41.0874 94.5186 41.2055 94.3841 41.2901 94.2288C41.3747 94.0735 41.4237 93.9013 41.4334 93.7247C41.4334 93.7072 41.4334 93.6932 41.4334 93.6792C41.4394 93.5768 41.4394 93.4742 41.4334 93.3718C41.3892 92.3847 41.0537 91.4328 40.4692 90.6361C40.2617 90.3493 40.0277 90.0826 39.7704 89.8396C39.5581 89.6419 39.3236 89.4696 39.0716 89.326C38.5441 89.0255 38.0584 88.9766 37.73 89.1443C37.4016 89.312 37.2164 89.7802 37.2164 90.3951C37.2206 90.6822 37.2558 90.968 37.3212 91.2476L36.5037 91.7472V91.6913C36.3802 91.2701 36.3155 90.8339 36.3115 90.3951C36.3115 89.4203 36.6609 88.6761 37.3108 88.2988C37.9606 87.9215 38.7712 87.9913 39.6167 88.4805C40.0117 88.7139 40.3716 89.002 40.6858 89.3364C40.9246 89.5881 41.142 89.8592 41.3356 90.147C41.9997 91.0891 42.3782 92.2027 42.4257 93.3543Z" fill="#FAFAFA"/>
<path d="M49.6552 89.1822C49.6555 89.3918 49.638 89.601 49.6028 89.8076C49.5838 89.9166 49.557 90.024 49.5224 90.129C49.3947 90.6078 49.085 91.0177 48.6594 91.2715C48.382 91.4338 48.0655 91.5171 47.7441 91.5126C47.6623 91.5119 47.5806 91.506 47.4995 91.4951C47.485 91.4507 47.4744 91.4051 47.4681 91.3589C47.4374 91.0759 47.4833 90.79 47.6008 90.5308C47.7974 90.5606 47.9983 90.5263 48.1738 90.433C48.3179 90.3292 48.4366 90.1942 48.5213 90.0382C48.606 89.8821 48.6544 89.709 48.6629 89.5316C48.6629 89.5316 48.6629 89.5037 48.6629 89.4897C48.669 89.3873 48.669 89.2846 48.6629 89.1822C48.5781 87.839 47.9891 86.5774 47.0139 85.65C46.8014 85.4516 46.567 85.2781 46.3151 85.1329C45.7875 84.8324 45.3019 84.766 44.9735 84.9547C44.6451 85.1434 44.4599 85.5871 44.4599 86.2055C44.4639 86.4917 44.5002 86.7765 44.5682 87.0545L43.7332 87.5541V87.4982C43.6094 87.0783 43.5447 86.6432 43.541 86.2055C43.541 85.2272 43.8904 84.4865 44.5402 84.1092C45.1901 83.7319 46.0007 83.8052 46.8497 84.2909C47.2372 84.5259 47.59 84.8141 47.8978 85.1469C48.136 85.4002 48.3533 85.6725 48.5476 85.9609C49.2225 86.904 49.6074 88.0235 49.6552 89.1822Z" fill="#FAFAFA"/>
<path d="M56.8742 85.015C56.8745 85.2245 56.857 85.4338 56.8218 85.6403C56.8024 85.7481 56.7756 85.8543 56.7414 85.9583C56.6135 86.4378 56.304 86.8488 55.8785 87.1043C55.6008 87.266 55.2844 87.3493 54.9631 87.3453C54.8816 87.3505 54.8 87.3505 54.7185 87.3453C54.704 87.3009 54.6934 87.2553 54.6871 87.2091C54.6546 86.9261 54.7006 86.6397 54.8198 86.381C55.0164 86.4103 55.2171 86.376 55.3928 86.2832C55.5371 86.1796 55.656 86.0447 55.7407 85.8886C55.8254 85.7325 55.8737 85.5592 55.8819 85.3818C55.8819 85.3818 55.8819 85.3539 55.8819 85.3399C55.8879 85.2375 55.8879 85.1348 55.8819 85.0324C55.8377 84.0453 55.5022 83.0934 54.9177 82.2968C54.7123 82.0083 54.4781 81.7414 54.2189 81.5002C54.0058 81.3026 53.7714 81.1292 53.5201 80.9831C52.9926 80.6826 52.5069 80.6337 52.1785 80.8049C51.8501 80.9761 51.6649 81.4373 51.6649 82.0557C51.6691 82.3428 51.7043 82.6286 51.7697 82.9082L50.9592 83.3903V83.3309C50.8382 82.9105 50.7747 82.4757 50.7705 82.0382C50.7705 81.06 51.1199 80.3193 51.7697 79.9419C52.4196 79.5646 53.2301 79.638 54.0757 80.1271C54.4701 80.3584 54.829 80.6455 55.1413 80.9796C55.3826 81.2321 55.6023 81.5044 55.7981 81.7937C56.4591 82.7416 56.8327 83.8601 56.8742 85.015Z" fill="#FAFAFA"/>
<path d="M71.3207 76.6846C71.3212 76.8941 71.3036 77.1034 71.2683 77.31C71.2477 77.4197 71.2208 77.5282 71.1879 77.6349C71.0578 78.1125 70.7488 78.5216 70.3249 78.7774C70.0476 78.9365 69.7328 79.0185 69.4131 79.0149C69.3301 79.0145 69.2472 79.0086 69.165 78.9975C69.1493 78.9496 69.1376 78.9005 69.1301 78.8507C69.0999 78.5716 69.1445 78.2894 69.2593 78.0332C69.4593 78.066 69.6645 78.0316 69.8428 77.9354C69.9873 77.8296 70.1062 77.6927 70.1909 77.5349C70.2755 77.3771 70.3237 77.2024 70.3319 77.0235C70.3302 77.0131 70.3302 77.0024 70.3319 76.992C70.3381 76.8896 70.3381 76.787 70.3319 76.6846C70.2461 75.3374 69.6531 74.0728 68.6724 73.1453C68.4653 72.9526 68.2381 72.7827 67.9946 72.6387C67.467 72.3348 66.9814 72.2719 66.6529 72.4571C66.3245 72.6422 66.1429 73.0929 66.1429 73.7078C66.1441 73.9903 66.1781 74.2717 66.2442 74.5464L65.3742 75.0495V75.004C65.2535 74.5824 65.19 74.1464 65.1855 73.7078C65.1855 72.7296 65.5349 71.9889 66.1848 71.6116C66.8346 71.2342 67.6452 71.3041 68.4907 71.7897C68.8784 72.0219 69.2312 72.3077 69.5388 72.6387C69.7801 72.8913 69.9998 73.1636 70.1957 73.4528C70.8767 74.3979 71.2676 75.5209 71.3207 76.6846Z" fill="#FAFAFA"/>
<path d="M78.5594 72.5098C78.559 72.7207 78.5403 72.9311 78.5035 73.1387C78.4845 73.2477 78.4577 73.3551 78.4231 73.4601C78.294 73.9382 77.9847 74.3477 77.5601 74.6026C77.2829 74.762 76.968 74.8441 76.6483 74.8402C76.5657 74.8454 76.4828 74.8454 76.4002 74.8402C76.3845 74.7911 76.3728 74.7409 76.3653 74.6899C76.335 74.4119 76.3796 74.1309 76.4945 73.8759C76.6949 73.908 76.9002 73.8723 77.078 73.7746C77.2229 73.67 77.3423 73.534 77.427 73.3766C77.5117 73.2193 77.5596 73.0447 77.5671 72.8662C77.5671 72.8662 77.5671 72.8452 77.5671 72.8312C77.5671 72.7439 77.5671 72.6426 77.5671 72.5238C77.5237 71.5333 77.1855 70.5783 76.5959 69.7811C76.3904 69.4927 76.1563 69.2258 75.8971 68.9846C75.69 68.7918 75.4628 68.622 75.2193 68.478C74.6917 68.1775 74.2061 68.1111 73.8777 68.2998C73.5493 68.4884 73.3641 68.9356 73.3641 69.5506C73.3672 69.8318 73.4012 70.1118 73.4654 70.3856L72.6199 70.8747V70.8293C72.4981 70.409 72.4334 69.9742 72.4277 69.5366C72.4277 68.5583 72.7771 67.8141 73.427 67.4403C74.0768 67.0665 74.8909 67.1293 75.7364 67.6185C76.1242 67.8504 76.4771 68.1363 76.7845 68.4675C77.0247 68.7201 77.2432 68.9924 77.4379 69.2815C78.1179 70.2256 78.5077 71.3475 78.5594 72.5098Z" fill="#FAFAFA"/>
<path d="M85.7699 68.3381C85.7696 68.549 85.7509 68.7594 85.714 68.967C85.693 69.0732 85.6662 69.1782 85.6336 69.2814C85.5069 69.7625 85.1972 70.1749 84.7707 70.4309C84.4933 70.59 84.1785 70.6721 83.8588 70.6685C83.7762 70.6736 83.6933 70.6736 83.6107 70.6685C83.5966 70.6192 83.5861 70.569 83.5793 70.5183C83.5478 70.2405 83.5912 69.9595 83.7051 69.7042C83.9054 69.7357 84.1105 69.7001 84.2885 69.6029C84.4329 69.4978 84.5519 69.3616 84.6365 69.2044C84.7212 69.0471 84.7694 68.8729 84.7777 68.6945C84.7759 68.6829 84.7759 68.6711 84.7777 68.6596C84.7896 68.5575 84.7955 68.4548 84.7951 68.3521C84.7517 67.3616 84.4135 66.4066 83.8238 65.6095C83.6193 65.3214 83.3851 65.0556 83.1251 64.8164C82.9197 64.6207 82.6922 64.4495 82.4473 64.3063C81.9197 64.0058 81.4376 63.9394 81.1092 64.1281C80.7807 64.3167 80.5956 64.7605 80.5956 65.3789C80.597 65.6613 80.631 65.9427 80.6969 66.2174L79.8269 66.717V66.6716C79.7053 66.2512 79.6407 65.8164 79.6348 65.3789C79.6348 64.4006 79.9841 63.6599 80.634 63.2826C81.2838 62.9052 82.0944 62.9716 82.9434 63.4608C83.3304 63.6926 83.6831 63.9771 83.9915 64.3063C84.232 64.5595 84.4517 64.8318 84.6484 65.1203C85.3254 66.062 85.715 67.1797 85.7699 68.3381Z" fill="#FAFAFA"/>
<path d="M37.5279 110.869L92.2165 79.3198L91.0286 70.9766L36.333 102.529L37.5279 110.869Z" fill="#BA68C8"/>
<g opacity="0.65">
<path opacity="0.65" d="M37.5279 110.867L92.2165 79.3176L91.0286 70.9744L36.333 102.527L37.5279 110.867Z" fill="white"/>
</g>
<path d="M41.8399 112.89C41.9063 113.351 42.3325 113.508 42.7937 113.239L46.8954 110.87C47.1203 110.736 47.3041 110.542 47.4272 110.311C47.5503 110.079 47.608 109.819 47.5942 109.557C47.5278 109.096 47.1016 108.938 46.6404 109.207L42.5736 111.576C42.3425 111.707 42.1519 111.898 42.0225 112.13C41.8931 112.362 41.8299 112.625 41.8399 112.89Z" fill="#0079B3"/>
<path d="M48.7614 108.894C48.8278 109.355 49.254 109.513 49.7152 109.244L53.8204 106.875C54.0455 106.74 54.2296 106.547 54.3527 106.315C54.4758 106.084 54.5334 105.823 54.5192 105.561C54.4528 105.1 54.0265 104.943 53.5654 105.212L49.4636 107.581C49.239 107.716 49.0551 107.909 48.9314 108.141C48.8078 108.372 48.749 108.632 48.7614 108.894Z" fill="#0079B3"/>
<path d="M55.686 104.897C55.7524 105.358 56.1787 105.516 56.6363 105.247L60.7416 102.881C60.9691 102.748 61.156 102.555 61.2822 102.324C61.4084 102.092 61.4691 101.831 61.4578 101.568C61.3914 101.106 60.9652 100.949 60.504 101.218L56.3988 103.587C56.1719 103.72 55.9856 103.912 55.86 104.143C55.7344 104.374 55.6742 104.635 55.686 104.897Z" fill="#0079B3"/>
<path d="M62.6069 100.901C62.6733 101.362 63.0995 101.52 63.5607 101.25L67.6624 98.8817C67.8905 98.7491 68.0779 98.5565 68.2041 98.3249C68.3304 98.0933 68.3908 97.8315 68.3787 97.568C68.3123 97.1068 67.886 96.9496 67.4249 97.2186L63.3231 99.5874C63.0953 99.7203 62.9082 99.9129 62.782 100.144C62.6557 100.376 62.5952 100.638 62.6069 100.901Z" fill="#0079B3"/>
<path d="M69.5276 96.9024C69.594 97.3636 70.0203 97.5208 70.4814 97.2518L74.5867 94.89C74.8112 94.7549 74.9948 94.5613 75.1179 94.3299C75.241 94.0985 75.2989 93.838 75.2854 93.5763C75.219 93.1151 74.7928 92.9579 74.3316 93.2269L70.2439 95.5888C70.0166 95.7222 69.8299 95.9149 69.7037 96.1463C69.5775 96.3777 69.5167 96.6391 69.5276 96.9024Z" fill="#0079B3"/>
<path d="M76.463 92.9057C76.5293 93.3669 76.9556 93.5242 77.4133 93.2551L81.5185 90.8863C81.7436 90.7518 81.9276 90.5583 82.0508 90.3268C82.1739 90.0953 82.2315 89.8345 82.2173 89.5727C82.1544 89.1115 81.7281 88.9542 81.2669 89.2233L77.1617 91.5921C76.9369 91.7269 76.7531 91.9204 76.6299 92.1519C76.5068 92.3833 76.4491 92.644 76.463 92.9057Z" fill="#0079B3"/>
<path d="M83.3735 88.9101C83.4399 89.3713 83.8661 89.5285 84.3273 89.2595L88.429 86.8907C88.6571 86.7581 88.8445 86.5656 88.9707 86.334C89.097 86.1024 89.1574 85.8406 89.1453 85.577C89.0789 85.1159 88.6526 84.9586 88.1915 85.2277L84.0897 87.5965C83.8619 87.7293 83.6748 87.922 83.5486 88.1535C83.4223 88.385 83.3618 88.6467 83.3735 88.9101Z" fill="#0079B3"/>
<g opacity="0.17">
<path opacity="0.17" d="M93.6984 112.941C93.6457 112.946 93.5931 112.932 93.5501 112.901C93.5071 112.87 93.4767 112.825 93.4643 112.773L90.1207 89.4209C90.1187 89.3963 90.1219 89.3717 90.1303 89.3485C90.1386 89.3253 90.1519 89.3042 90.1691 89.2867C90.1864 89.2691 90.2072 89.2554 90.2302 89.2466C90.2532 89.2378 90.2778 89.2341 90.3024 89.2357C90.3555 89.231 90.4086 89.2458 90.4516 89.2773C90.4947 89.3088 90.5248 89.3548 90.5365 89.4069L93.8801 112.756C93.8821 112.781 93.8789 112.805 93.8705 112.828C93.8622 112.852 93.8489 112.873 93.8317 112.89C93.8144 112.908 93.7936 112.921 93.7706 112.93C93.7476 112.939 93.723 112.943 93.6984 112.941Z" fill="#BA68C8"/>
<path opacity="0.17" d="M86.7701 116.938C86.7178 116.943 86.6657 116.929 86.6233 116.898C86.5809 116.867 86.5511 116.822 86.5395 116.771L83.1959 93.4217C83.1939 93.397 83.1971 93.3721 83.2055 93.3488C83.2138 93.3255 83.227 93.3042 83.2442 93.2863C83.2614 93.2685 83.2821 93.2545 83.3051 93.2453C83.3281 93.2361 83.3528 93.2319 83.3776 93.233C83.4301 93.2292 83.4823 93.2444 83.5246 93.2758C83.5669 93.3072 83.5966 93.3528 83.6082 93.4042L86.9447 116.753C86.9473 116.777 86.9446 116.802 86.9369 116.825C86.9291 116.847 86.9165 116.868 86.9 116.886C86.8834 116.904 86.8632 116.917 86.8407 116.926C86.8183 116.936 86.7942 116.94 86.7701 116.938Z" fill="#BA68C8"/>
<path opacity="0.17" d="M79.8453 120.938C79.7926 120.943 79.74 120.928 79.6975 120.896C79.6551 120.865 79.6256 120.819 79.6147 120.767L76.2711 97.418C76.269 97.3934 76.2723 97.3687 76.2807 97.3456C76.289 97.3224 76.3023 97.3013 76.3195 97.2837C76.3368 97.2662 76.3576 97.2525 76.3806 97.2437C76.4036 97.2349 76.4282 97.2312 76.4528 97.2328C76.5049 97.2289 76.5567 97.2436 76.5989 97.2743C76.6412 97.305 76.6711 97.3497 76.6834 97.4005L80.027 120.746C80.0301 120.771 80.0277 120.797 80.0198 120.821C80.012 120.845 79.9989 120.867 79.9815 120.885C79.9641 120.903 79.9429 120.918 79.9194 120.927C79.8958 120.936 79.8705 120.94 79.8453 120.938Z" fill="#BA68C8"/>
<path opacity="0.17" d="M72.922 124.94C72.8693 124.945 72.8167 124.93 72.7737 124.899C72.7307 124.869 72.7003 124.823 72.6879 124.772L69.3443 101.423C69.3423 101.398 69.3456 101.373 69.3539 101.35C69.3622 101.327 69.3754 101.305 69.3926 101.288C69.4098 101.27 69.4306 101.256 69.4536 101.247C69.4766 101.237 69.5013 101.233 69.526 101.234C69.579 101.23 69.6317 101.245 69.6746 101.277C69.7175 101.308 69.7478 101.354 69.7601 101.405L73.1037 124.755C73.1057 124.779 73.1025 124.804 73.0941 124.827C73.0858 124.85 73.0725 124.871 73.0553 124.889C73.038 124.906 73.0172 124.92 72.9942 124.929C72.9712 124.938 72.9466 124.941 72.922 124.94Z" fill="#BA68C8"/>
<path opacity="0.17" d="M65.9816 128.936C65.9286 128.94 65.8759 128.925 65.833 128.893C65.7901 128.862 65.7598 128.816 65.7475 128.765L62.4039 105.416C62.4019 105.391 62.4051 105.366 62.4135 105.343C62.4218 105.32 62.4351 105.299 62.4523 105.281C62.4696 105.264 62.4904 105.25 62.5134 105.241C62.5364 105.233 62.561 105.229 62.5856 105.23C62.6384 105.225 62.6914 105.239 62.7345 105.27C62.7777 105.301 62.808 105.346 62.8197 105.398L66.1633 128.747C66.1653 128.772 66.162 128.797 66.1537 128.82C66.1453 128.843 66.1322 128.865 66.115 128.883C66.0978 128.9 66.077 128.914 66.054 128.924C66.031 128.933 66.0063 128.937 65.9816 128.936Z" fill="#BA68C8"/>
<path opacity="0.17" d="M59.0713 132.933C59.0186 132.938 58.966 132.924 58.923 132.893C58.88 132.862 58.8496 132.817 58.8372 132.765L55.5006 109.413C55.4985 109.388 55.5018 109.364 55.5101 109.34C55.5185 109.317 55.5317 109.296 55.549 109.279C55.5662 109.261 55.5871 109.247 55.6101 109.239C55.6331 109.23 55.6577 109.226 55.6823 109.228C55.7354 109.223 55.7884 109.238 55.8315 109.269C55.8746 109.301 55.9047 109.347 55.9164 109.399L59.2599 132.748C59.2621 132.773 59.2587 132.799 59.25 132.822C59.2412 132.846 59.2273 132.867 59.2093 132.885C59.1913 132.903 59.1695 132.916 59.1457 132.925C59.1218 132.933 59.0964 132.936 59.0713 132.933Z" fill="#BA68C8"/>
<path opacity="0.17" d="M52.1466 136.933C52.0936 136.937 52.041 136.922 51.9981 136.89C51.9552 136.859 51.9248 136.813 51.9125 136.762L48.569 113.409C48.5669 113.384 48.5702 113.36 48.5785 113.337C48.5869 113.313 48.6001 113.292 48.6174 113.275C48.6346 113.257 48.6554 113.244 48.6784 113.235C48.7014 113.226 48.7261 113.222 48.7506 113.224C48.8034 113.218 48.8564 113.232 48.8996 113.263C48.9427 113.294 48.973 113.34 48.9847 113.392L52.3283 136.741C52.3303 136.766 52.327 136.791 52.3187 136.814C52.3104 136.838 52.2973 136.859 52.2801 136.877C52.263 136.895 52.2423 136.91 52.2193 136.919C52.1963 136.929 52.1715 136.933 52.1466 136.933Z" fill="#BA68C8"/>
<path opacity="0.17" d="M45.2183 140.93C45.1662 140.934 45.1144 140.92 45.0722 140.889C45.03 140.858 45 140.814 44.9877 140.763L41.6442 117.41C41.6421 117.386 41.6454 117.361 41.6537 117.338C41.6621 117.315 41.6753 117.294 41.6926 117.276C41.7098 117.258 41.7306 117.245 41.7536 117.236C41.7766 117.227 41.8013 117.223 41.8258 117.225C41.8781 117.22 41.9302 117.235 41.9726 117.266C42.015 117.296 42.0448 117.342 42.0564 117.393L45.4035 140.745C45.405 140.77 45.4013 140.795 45.3925 140.818C45.3838 140.841 45.3702 140.862 45.3527 140.88C45.3352 140.897 45.3141 140.911 45.291 140.92C45.2678 140.928 45.243 140.932 45.2183 140.93Z" fill="#BA68C8"/>
<path opacity="0.17" d="M42.7129 123.419C42.6767 123.42 42.6407 123.413 42.6075 123.398C42.5743 123.384 42.5447 123.362 42.5208 123.335C42.5045 123.318 42.4924 123.297 42.4854 123.274C42.4784 123.251 42.4767 123.227 42.4804 123.204C42.4841 123.18 42.4931 123.158 42.5068 123.138C42.5204 123.118 42.5384 123.102 42.5592 123.091L91.0393 95.1017C91.0865 95.0765 91.1408 95.068 91.1934 95.0775C91.246 95.087 91.2939 95.114 91.3293 95.1541C91.3461 95.1718 91.3586 95.1932 91.3657 95.2165C91.3728 95.2399 91.3744 95.2646 91.3703 95.2886C91.3663 95.3127 91.3567 95.3355 91.3422 95.3552C91.3278 95.3749 91.309 95.391 91.2873 95.4022L42.8107 123.391C42.7807 123.408 42.7472 123.417 42.7129 123.419Z" fill="#BA68C8"/>
<path opacity="0.17" d="M43.548 129.252C43.5119 129.255 43.4758 129.249 43.4424 129.235C43.4091 129.221 43.3795 129.199 43.3558 129.172C43.339 129.155 43.3265 129.134 43.3194 129.11C43.3122 129.087 43.3106 129.063 43.3147 129.039C43.3188 129.015 43.3284 128.993 43.3429 128.973C43.3573 128.954 43.3761 128.938 43.3977 128.927L91.8743 100.939C91.9212 100.912 91.9758 100.903 92.0288 100.912C92.0817 100.922 92.1297 100.95 92.1643 100.991C92.1806 101.008 92.1927 101.029 92.1996 101.052C92.2066 101.075 92.2083 101.099 92.2046 101.123C92.2009 101.146 92.1919 101.169 92.1783 101.188C92.1646 101.208 92.1467 101.224 92.1259 101.236L43.6458 129.224C43.6164 129.243 43.5825 129.252 43.548 129.252Z" fill="#BA68C8"/>
<path opacity="0.17" d="M44.3829 135.092C44.3469 135.094 44.3108 135.088 44.2775 135.074C44.2442 135.06 44.2145 135.039 44.1907 135.011C44.1739 134.994 44.1614 134.972 44.1543 134.949C44.1472 134.926 44.1456 134.901 44.1497 134.877C44.1537 134.853 44.1633 134.83 44.1777 134.81C44.1922 134.791 44.2109 134.775 44.2326 134.763L92.7092 106.771C92.7568 106.745 92.8118 106.736 92.8652 106.745C92.9186 106.755 92.9671 106.782 93.0027 106.823C93.0189 106.841 93.0307 106.862 93.0375 106.885C93.0442 106.908 93.0456 106.932 93.0415 106.956C93.0375 106.979 93.0281 107.002 93.0141 107.021C93.0001 107.041 92.9819 107.057 92.9608 107.068L44.4842 135.071C44.4527 135.086 44.4179 135.093 44.3829 135.092Z" fill="#BA68C8"/>
<path opacity="0.17" d="M45.2182 140.93C45.1821 140.932 45.1462 140.925 45.1134 140.909C45.0815 140.898 45.0532 140.878 45.0311 140.853C45.0091 140.827 44.9941 140.796 44.9876 140.763L41.6441 117.41C41.6397 117.379 41.645 117.347 41.6594 117.319C41.6738 117.291 41.6965 117.268 41.7244 117.253L90.201 89.264C90.2335 89.2474 90.2694 89.2388 90.3058 89.2388C90.3423 89.2388 90.3782 89.2474 90.4106 89.264C90.4426 89.2763 90.4709 89.2966 90.4929 89.3229C90.5149 89.3491 90.5299 89.3806 90.5364 89.4142L93.88 112.763C93.8831 112.795 93.8768 112.827 93.8619 112.855C93.8469 112.883 93.8241 112.906 93.7962 112.921L45.3196 140.902C45.289 140.921 45.2539 140.931 45.2182 140.93ZM42.0738 117.497L45.3685 140.438L93.4607 112.669L90.1766 89.7321L42.0738 117.497Z" fill="#BA68C8"/>
</g>
<g opacity="0.17">
<path opacity="0.17" d="M93.6984 112.941C93.6457 112.946 93.5931 112.932 93.5501 112.901C93.5071 112.87 93.4767 112.825 93.4643 112.773L90.1207 89.4209C90.1187 89.3963 90.1219 89.3717 90.1303 89.3485C90.1386 89.3253 90.1519 89.3042 90.1691 89.2867C90.1864 89.2691 90.2072 89.2554 90.2302 89.2466C90.2532 89.2378 90.2778 89.2341 90.3024 89.2357C90.3555 89.231 90.4086 89.2458 90.4516 89.2773C90.4947 89.3088 90.5248 89.3548 90.5365 89.4069L93.8801 112.756C93.8821 112.781 93.8789 112.805 93.8705 112.828C93.8622 112.852 93.8489 112.873 93.8317 112.89C93.8144 112.908 93.7936 112.921 93.7706 112.93C93.7476 112.939 93.723 112.943 93.6984 112.941Z" fill="black"/>
<path opacity="0.17" d="M86.7701 116.938C86.7178 116.943 86.6657 116.929 86.6233 116.898C86.5809 116.867 86.5511 116.822 86.5395 116.771L83.1959 93.4217C83.1939 93.397 83.1971 93.3721 83.2055 93.3488C83.2138 93.3255 83.227 93.3042 83.2442 93.2863C83.2614 93.2685 83.2821 93.2545 83.3051 93.2453C83.3281 93.2361 83.3528 93.2319 83.3776 93.233C83.4301 93.2292 83.4823 93.2444 83.5246 93.2758C83.5669 93.3072 83.5966 93.3528 83.6082 93.4042L86.9447 116.753C86.9473 116.777 86.9446 116.802 86.9369 116.825C86.9291 116.847 86.9165 116.868 86.9 116.886C86.8834 116.904 86.8632 116.917 86.8407 116.926C86.8183 116.936 86.7942 116.94 86.7701 116.938Z" fill="black"/>
<path opacity="0.17" d="M79.8453 120.938C79.7926 120.943 79.74 120.928 79.6975 120.896C79.6551 120.865 79.6256 120.819 79.6147 120.767L76.2711 97.418C76.269 97.3934 76.2723 97.3687 76.2807 97.3456C76.289 97.3224 76.3023 97.3013 76.3195 97.2837C76.3368 97.2662 76.3576 97.2525 76.3806 97.2437C76.4036 97.2349 76.4282 97.2312 76.4528 97.2328C76.5049 97.2289 76.5567 97.2436 76.5989 97.2743C76.6412 97.305 76.6711 97.3497 76.6834 97.4005L80.027 120.746C80.0301 120.771 80.0277 120.797 80.0198 120.821C80.012 120.845 79.9989 120.867 79.9815 120.885C79.9641 120.903 79.9429 120.918 79.9194 120.927C79.8958 120.936 79.8705 120.94 79.8453 120.938Z" fill="black"/>
<path opacity="0.17" d="M72.922 124.94C72.8693 124.945 72.8167 124.93 72.7737 124.899C72.7307 124.869 72.7003 124.823 72.6879 124.772L69.3443 101.423C69.3423 101.398 69.3456 101.373 69.3539 101.35C69.3622 101.327 69.3754 101.305 69.3926 101.288C69.4098 101.27 69.4306 101.256 69.4536 101.247C69.4766 101.237 69.5013 101.233 69.526 101.234C69.579 101.23 69.6317 101.245 69.6746 101.277C69.7175 101.308 69.7478 101.354 69.7601 101.405L73.1037 124.755C73.1057 124.779 73.1025 124.804 73.0941 124.827C73.0858 124.85 73.0725 124.871 73.0553 124.889C73.038 124.906 73.0172 124.92 72.9942 124.929C72.9712 124.938 72.9466 124.941 72.922 124.94Z" fill="black"/>
<path opacity="0.17" d="M65.9816 128.936C65.9286 128.94 65.8759 128.925 65.833 128.893C65.7901 128.862 65.7598 128.816 65.7475 128.765L62.4039 105.416C62.4019 105.391 62.4051 105.366 62.4135 105.343C62.4218 105.32 62.4351 105.299 62.4523 105.281C62.4696 105.264 62.4904 105.25 62.5134 105.241C62.5364 105.233 62.561 105.229 62.5856 105.23C62.6384 105.225 62.6914 105.239 62.7345 105.27C62.7777 105.301 62.808 105.346 62.8197 105.398L66.1633 128.747C66.1653 128.772 66.162 128.797 66.1537 128.82C66.1453 128.843 66.1322 128.865 66.115 128.883C66.0978 128.9 66.077 128.914 66.054 128.924C66.031 128.933 66.0063 128.937 65.9816 128.936Z" fill="black"/>
<path opacity="0.17" d="M59.0713 132.933C59.0186 132.938 58.966 132.924 58.923 132.893C58.88 132.862 58.8496 132.817 58.8372 132.765L55.5006 109.413C55.4985 109.388 55.5018 109.364 55.5101 109.34C55.5185 109.317 55.5317 109.296 55.549 109.279C55.5662 109.261 55.5871 109.247 55.6101 109.239C55.6331 109.23 55.6577 109.226 55.6823 109.228C55.7354 109.223 55.7884 109.238 55.8315 109.269C55.8746 109.301 55.9047 109.347 55.9164 109.399L59.2599 132.748C59.2621 132.773 59.2587 132.799 59.25 132.822C59.2412 132.846 59.2273 132.867 59.2093 132.885C59.1913 132.903 59.1695 132.916 59.1457 132.925C59.1218 132.933 59.0964 132.936 59.0713 132.933Z" fill="black"/>
<path opacity="0.17" d="M52.1466 136.933C52.0936 136.937 52.041 136.922 51.9981 136.89C51.9552 136.859 51.9248 136.813 51.9125 136.762L48.569 113.409C48.5669 113.384 48.5702 113.36 48.5785 113.337C48.5869 113.313 48.6001 113.292 48.6174 113.275C48.6346 113.257 48.6554 113.244 48.6784 113.235C48.7014 113.226 48.7261 113.222 48.7506 113.224C48.8034 113.218 48.8564 113.232 48.8996 113.263C48.9427 113.294 48.973 113.34 48.9847 113.392L52.3283 136.741C52.3303 136.766 52.327 136.791 52.3187 136.814C52.3104 136.838 52.2973 136.859 52.2801 136.877C52.263 136.895 52.2423 136.91 52.2193 136.919C52.1963 136.929 52.1715 136.933 52.1466 136.933Z" fill="black"/>
<path opacity="0.17" d="M45.2183 140.93C45.1662 140.934 45.1144 140.92 45.0722 140.889C45.03 140.858 45 140.814 44.9877 140.763L41.6442 117.41C41.6421 117.386 41.6454 117.361 41.6537 117.338C41.6621 117.315 41.6753 117.294 41.6926 117.276C41.7098 117.258 41.7306 117.245 41.7536 117.236C41.7766 117.227 41.8013 117.223 41.8258 117.225C41.8781 117.22 41.9302 117.235 41.9726 117.266C42.015 117.296 42.0448 117.342 42.0564 117.393L45.4035 140.745C45.405 140.77 45.4013 140.795 45.3925 140.818C45.3838 140.841 45.3702 140.862 45.3527 140.88C45.3352 140.897 45.3141 140.911 45.291 140.92C45.2678 140.928 45.243 140.932 45.2183 140.93Z" fill="black"/>
<path opacity="0.17" d="M42.7129 123.419C42.6767 123.42 42.6407 123.413 42.6075 123.398C42.5743 123.384 42.5447 123.362 42.5208 123.335C42.5045 123.318 42.4924 123.297 42.4854 123.274C42.4784 123.251 42.4767 123.227 42.4804 123.204C42.4841 123.18 42.4931 123.158 42.5068 123.138C42.5204 123.118 42.5384 123.102 42.5592 123.091L91.0393 95.1017C91.0865 95.0765 91.1408 95.068 91.1934 95.0775C91.246 95.087 91.2939 95.114 91.3293 95.1541C91.3461 95.1718 91.3586 95.1932 91.3657 95.2165C91.3728 95.2399 91.3744 95.2646 91.3703 95.2886C91.3663 95.3127 91.3567 95.3355 91.3422 95.3552C91.3278 95.3749 91.309 95.391 91.2873 95.4022L42.8107 123.391C42.7807 123.408 42.7472 123.417 42.7129 123.419Z" fill="black"/>
<path opacity="0.17" d="M43.548 129.252C43.5119 129.255 43.4758 129.249 43.4424 129.235C43.4091 129.221 43.3795 129.199 43.3558 129.172C43.339 129.155 43.3265 129.134 43.3194 129.11C43.3122 129.087 43.3106 129.063 43.3147 129.039C43.3188 129.015 43.3284 128.993 43.3429 128.973C43.3573 128.954 43.3761 128.938 43.3977 128.927L91.8743 100.939C91.9212 100.912 91.9758 100.903 92.0288 100.912C92.0817 100.922 92.1297 100.95 92.1643 100.991C92.1806 101.008 92.1927 101.029 92.1996 101.052C92.2066 101.075 92.2083 101.099 92.2046 101.123C92.2009 101.146 92.1919 101.169 92.1783 101.188C92.1646 101.208 92.1467 101.224 92.1259 101.236L43.6458 129.224C43.6164 129.243 43.5825 129.252 43.548 129.252Z" fill="black"/>
<path opacity="0.17" d="M44.3829 135.092C44.3469 135.094 44.3108 135.088 44.2775 135.074C44.2442 135.06 44.2145 135.039 44.1907 135.011C44.1739 134.994 44.1614 134.972 44.1543 134.949C44.1472 134.926 44.1456 134.901 44.1497 134.877C44.1537 134.853 44.1633 134.83 44.1777 134.81C44.1922 134.791 44.2109 134.775 44.2326 134.763L92.7092 106.771C92.7568 106.745 92.8118 106.736 92.8652 106.745C92.9186 106.755 92.9671 106.782 93.0027 106.823C93.0189 106.841 93.0307 106.862 93.0375 106.885C93.0442 106.908 93.0456 106.932 93.0415 106.956C93.0375 106.979 93.0281 107.002 93.0141 107.021C93.0001 107.041 92.9819 107.057 92.9608 107.068L44.4842 135.071C44.4527 135.086 44.4179 135.093 44.3829 135.092Z" fill="black"/>
<path opacity="0.17" d="M45.2182 140.93C45.1821 140.932 45.1462 140.925 45.1134 140.909C45.0815 140.898 45.0532 140.878 45.0311 140.853C45.0091 140.827 44.9941 140.796 44.9876 140.763L41.6441 117.41C41.6397 117.379 41.645 117.347 41.6594 117.319C41.6738 117.291 41.6965 117.268 41.7244 117.253L90.201 89.264C90.2335 89.2474 90.2694 89.2388 90.3058 89.2388C90.3423 89.2388 90.3782 89.2474 90.4106 89.264C90.4426 89.2763 90.4709 89.2966 90.4929 89.3229C90.5149 89.3491 90.5299 89.3806 90.5364 89.4142L93.88 112.763C93.8831 112.795 93.8768 112.827 93.8619 112.855C93.8469 112.883 93.8241 112.906 93.7962 112.921L45.3196 140.902C45.289 140.921 45.2539 140.931 45.2182 140.93ZM42.0738 117.497L45.3685 140.438L93.4607 112.669L90.1766 89.7321L42.0738 117.497Z" fill="black"/>
</g>
<path d="M50.8807 120.011C52.4948 120.336 54.1195 120.609 55.7406 120.888L56.3415 120.993C56.6245 121.042 56.7363 120.643 56.4358 120.591C54.9009 120.326 53.3648 120.069 51.8275 119.822L50.9576 119.697C50.7165 119.665 50.6082 119.966 50.8772 120.018L50.8807 120.011Z" fill="#455A64"/>
<path d="M55.5003 117.145C55.2983 117.36 55.118 117.594 54.9622 117.844L54.0294 119.262C53.3306 120.308 52.647 121.356 51.9785 122.407C51.7689 122.732 51.5278 123.05 51.3426 123.389C51.3226 123.42 51.3151 123.458 51.3216 123.495C51.3281 123.532 51.348 123.565 51.3776 123.588L51.4265 123.619L51.3776 123.458C51.3147 123.556 51.4964 123.727 51.5697 123.616C51.5697 123.633 51.678 123.574 51.699 123.546L51.7409 123.483L51.8562 123.305L52.2056 122.788L53.1874 121.271C53.8861 120.192 54.5849 119.109 55.2837 118.029C55.4519 117.791 55.5915 117.534 55.6994 117.264C55.7309 117.173 55.6051 117.044 55.5282 117.124L55.5003 117.145Z" fill="#455A64"/>
<path d="M57.667 115.853C59.2776 116.178 60.9022 116.45 62.5234 116.73L63.1243 116.835C63.4073 116.884 63.5191 116.485 63.2186 116.433C61.6837 116.167 60.1487 115.911 58.6138 115.664L57.7438 115.532C57.5027 115.5 57.4154 115.801 57.667 115.853Z" fill="#455A64"/>
<path d="M62.2822 112.98C62.0813 113.194 61.9022 113.428 61.7476 113.678L60.8113 115.093C60.1125 116.142 59.4452 117.19 58.7639 118.238C58.5508 118.559 58.3132 118.881 58.1245 119.22C58.1064 119.252 58.1003 119.29 58.1073 119.326C58.1144 119.363 58.1341 119.395 58.163 119.419L58.2084 119.45L58.163 119.289C58.0966 119.387 58.2818 119.558 58.3551 119.447C58.3551 119.447 58.4599 119.405 58.4809 119.377C58.4969 119.357 58.5109 119.336 58.5228 119.314L58.6381 119.136L58.9875 118.619L59.9693 117.102C60.668 116.024 61.3668 114.943 62.0655 113.86C62.2336 113.622 62.3742 113.365 62.4848 113.095C62.5163 113.004 62.3905 112.875 62.3101 112.955L62.2822 112.98Z" fill="#455A64"/>
<path d="M64.6787 111.854C66.2928 112.178 67.9139 112.451 69.5351 112.73L70.1395 112.835C70.419 112.881 70.5343 112.486 70.2338 112.433C68.7012 112.168 67.1651 111.912 65.6255 111.665C65.3355 111.616 65.049 111.574 64.7555 111.532C64.5145 111.501 64.4271 111.801 64.6787 111.854Z" fill="#455A64"/>
<path d="M69.2939 108.985C69.0936 109.2 68.9146 109.434 68.7593 109.684L67.8265 111.102C67.1277 112.151 66.4441 113.199 65.7756 114.247C65.566 114.572 65.3249 114.893 65.1363 115.232C65.1181 115.264 65.112 115.302 65.1191 115.339C65.1261 115.375 65.1458 115.408 65.1747 115.431L65.2201 115.463L65.1747 115.302C65.1118 115.403 65.2935 115.571 65.3668 115.459C65.3668 115.48 65.4717 115.417 65.4926 115.393C65.5078 115.373 65.5218 115.352 65.5345 115.33L65.6324 115.155L65.9818 114.635L66.9635 113.122C67.6623 112.042 68.361 110.959 69.0598 109.88C69.2275 109.64 69.367 109.382 69.4756 109.111C69.507 109.024 69.3812 108.891 69.3009 108.975L69.2939 108.985Z" fill="#455A64"/>
<path d="M71.6533 107.818C73.2639 108.143 74.8885 108.415 76.5097 108.695L77.1141 108.8C77.3936 108.845 77.5089 108.45 77.2084 108.398C75.6712 108.132 74.135 107.876 72.6001 107.629C72.3101 107.58 72.0201 107.538 71.7301 107.497C71.4401 107.455 71.4017 107.766 71.6533 107.818Z" fill="#455A64"/>
<path d="M76.2675 104.936C76.0673 105.151 75.8883 105.385 75.733 105.635L74.8001 107.053C74.1014 108.101 73.4177 109.149 72.7492 110.198C72.5361 110.523 72.2985 110.844 72.1099 111.183C72.0917 111.215 72.0857 111.253 72.0927 111.289C72.0997 111.326 72.1194 111.359 72.1483 111.382L72.1937 111.413L72.1483 111.253C72.0819 111.354 72.2671 111.522 72.3405 111.41C72.3405 111.431 72.4453 111.368 72.4663 111.344C72.4814 111.323 72.4954 111.302 72.5082 111.281L72.6235 111.099L72.9729 110.582L73.9581 109.066C74.6569 107.99 75.3556 106.906 76.0544 105.827C76.2208 105.587 76.3602 105.329 76.4702 105.058C76.5016 104.971 76.3758 104.838 76.2955 104.922L76.2675 104.936Z" fill="#455A64"/>
<path d="M78.5781 103.807C80.1887 104.131 81.8133 104.404 83.4345 104.683L84.0354 104.788C84.3184 104.837 84.4302 104.439 84.1297 104.386C82.5971 104.121 81.0622 103.865 79.5249 103.618C79.2349 103.569 78.9449 103.527 78.6549 103.485C78.365 103.443 78.3265 103.754 78.5781 103.807Z" fill="#455A64"/>
<path d="M83.1923 100.939C82.991 101.153 82.8119 101.387 82.6578 101.638C82.3468 102.113 82.0324 102.584 81.7214 103.056C81.0227 104.104 80.3554 105.152 79.6741 106.201C79.4609 106.525 79.2234 106.847 79.0347 107.186C79.0166 107.218 79.0105 107.256 79.0175 107.292C79.0245 107.329 79.0442 107.362 79.0731 107.385L79.1185 107.416C79.1185 107.364 79.0871 107.312 79.0731 107.256C79.0067 107.357 79.1919 107.528 79.2618 107.413C79.2618 107.434 79.3701 107.374 79.3911 107.347C79.407 107.327 79.4211 107.306 79.433 107.284L79.5483 107.105L79.8977 106.585L80.8794 105.072C81.5782 103.991 82.2769 102.911 82.9757 101.83C83.1437 101.591 83.2844 101.335 83.395 101.065C83.4264 100.974 83.3006 100.845 83.2203 100.925L83.1923 100.939Z" fill="#455A64"/>
<path d="M51.7978 125.396C53.4084 125.724 55.0331 125.997 56.6542 126.276L57.2551 126.378C57.5381 126.427 57.6499 126.028 57.3495 125.98C55.8168 125.714 54.2819 125.458 52.7446 125.211C52.4546 125.162 52.1647 125.12 51.8747 125.078C51.5847 125.036 51.5462 125.347 51.7978 125.396Z" fill="#455A64"/>
<path d="M56.4127 122.528C56.2115 122.743 56.0313 122.977 55.8746 123.226C55.5672 123.701 55.2527 124.173 54.9418 124.645C54.243 125.693 53.5757 126.741 52.8909 127.789C52.6813 128.114 52.4437 128.436 52.255 128.775C52.2371 128.806 52.2312 128.844 52.2382 128.879C52.2453 128.915 52.2649 128.947 52.2935 128.97L52.3389 129.005L52.29 128.844C52.2236 128.946 52.4088 129.113 52.4786 129.002C52.4786 129.023 52.587 128.96 52.6079 128.935C52.6289 128.911 52.6359 128.89 52.6498 128.872L52.7651 128.691L53.1145 128.174L54.0963 126.657C54.795 125.581 55.4938 124.5 56.1926 123.415C56.3622 123.178 56.5019 122.921 56.6083 122.65C56.6398 122.559 56.5175 122.43 56.4371 122.51L56.4127 122.528Z" fill="#455A64"/>
<path d="M72.8646 115.449C72.4593 115.096 71.9557 114.877 71.4217 114.82C70.9008 114.739 70.3682 114.779 69.8652 114.937C69.3623 115.095 68.9026 115.367 68.5218 115.732C68.424 115.83 68.6162 116.015 68.721 115.927C69.0638 115.632 69.4623 115.407 69.8932 115.268C70.3241 115.129 70.7784 115.078 71.2295 115.117C71.6759 115.146 72.1043 115.304 72.4628 115.571C72.6284 115.715 72.7567 115.897 72.837 116.102C72.9173 116.306 72.9471 116.527 72.924 116.745C72.833 117.562 72.54 118.344 72.0715 119.019C71.6279 119.708 71.0702 120.317 70.4225 120.819C69.778 121.32 69.0589 121.718 68.2912 121.996C67.5051 122.279 66.5443 122.517 65.7442 122.188C65.3739 122.014 65.0613 121.736 64.8434 121.39C64.6254 121.043 64.5113 120.641 64.5144 120.232C64.5194 119.252 64.8056 118.294 65.339 117.472C65.9218 116.567 66.6811 115.79 67.5715 115.187C68.0087 114.859 68.4768 114.575 68.969 114.338C69.4955 114.106 70.0431 113.926 70.6041 113.8C70.8522 113.733 70.5482 113.559 70.3037 113.597C69.8274 113.653 69.3636 113.786 68.9306 113.992C68.3508 114.241 67.7972 114.548 67.278 114.907C66.3577 115.518 65.5679 116.305 64.9546 117.224C64.3798 118.104 64.0705 119.131 64.0637 120.183C64.0577 120.623 64.1639 121.057 64.3724 121.445C64.5808 121.832 64.8846 122.16 65.2551 122.398C66.1076 122.901 67.1907 122.768 68.0921 122.485C68.9688 122.216 69.7951 121.804 70.5377 121.266C71.2575 120.749 71.8817 120.11 72.3825 119.379C72.9221 118.638 73.2636 117.771 73.3747 116.86C73.3999 116.602 73.3672 116.341 73.279 116.097C73.1907 115.853 73.0492 115.631 72.8646 115.449Z" fill="#BA68C8"/>
<path d="M159.699 57.7708L161.105 55.1304L159.974 51.8622V49.8669L163.436 51.8622V53.8618L161.948 56.442C161.924 56.4807 161.888 56.5108 161.845 56.528L159.699 57.7708Z" fill="#0079B3"/>
<path opacity="0.3" d="M159.699 57.7708L161.105 55.1304L159.974 51.8622V49.8669L163.436 51.8622V53.8618L161.948 56.442C161.924 56.4807 161.888 56.5108 161.845 56.528L159.699 57.7708Z" fill="black"/>
<path d="M153.477 37.0522C153.496 36.6917 153.6 36.3409 153.781 36.0285C153.962 35.7161 154.214 35.4509 154.517 35.2547L155.377 34.7688C155.699 34.6056 156.055 34.5205 156.416 34.5205C156.777 34.5205 157.132 34.6056 157.454 34.7688L167.981 40.8321C168.283 41.0293 168.534 41.2948 168.714 41.6071C168.894 41.9194 168.998 42.2696 169.018 42.6296V55.0185C168.998 55.3784 168.894 55.7287 168.714 56.041C168.534 56.3533 168.283 56.6188 167.981 56.816L167.121 57.3062C166.799 57.4674 166.445 57.5513 166.085 57.5513C165.725 57.5513 165.37 57.4674 165.048 57.3062L161.256 55.1217L159.772 57.7018C159.751 57.7391 159.72 57.7694 159.682 57.7892C159.645 57.809 159.602 57.8173 159.559 57.8132C159.517 57.8091 159.477 57.7927 159.443 57.7661C159.41 57.7394 159.385 57.7037 159.372 57.6631L157.807 53.1092L154.526 51.2214C154.223 51.0252 153.971 50.76 153.79 50.4476C153.609 50.1352 153.505 49.7844 153.485 49.4239L153.477 37.0522Z" fill="#0079B3"/>
<path opacity="0.3" d="M169.01 55.0164C168.99 55.3763 168.886 55.7266 168.706 56.0389C168.526 56.3511 168.275 56.6166 167.973 56.8139L167.113 57.3041C166.821 57.4503 166.5 57.5331 166.174 57.5472C165.847 57.5613 165.521 57.5063 165.217 57.3858C165.707 57.5707 166.077 57.2955 166.077 56.7021V44.3131C166.064 43.9515 165.959 43.5991 165.772 43.2897L168.696 41.604C168.88 41.9145 168.984 42.2664 168.997 42.6275L169.01 55.0164Z" fill="black"/>
<path opacity="0.3" d="M153.52 36.7691C153.64 36.3391 154.044 36.1886 154.521 36.4638L165.053 42.5314C165.359 42.7235 165.611 42.9916 165.784 43.3098L168.704 41.6241C168.531 41.3072 168.279 41.0405 167.973 40.85L157.446 34.7824C157.124 34.6192 156.768 34.5342 156.407 34.5342C156.046 34.5342 155.69 34.6192 155.369 34.7824L154.509 35.2684C154.252 35.4401 154.033 35.6613 153.863 35.919C153.693 36.1767 153.576 36.4657 153.52 36.7691Z" fill="white"/>
<path d="M155.859 45.2971L156.805 45.9637C156.87 46.0153 156.917 46.086 156.938 46.1658C156.999 46.4374 157.078 46.7046 157.175 46.9656C157.188 47.0013 157.189 47.0399 157.18 47.0766C157.171 47.1132 157.151 47.1464 157.123 47.172L156.59 47.6322C156.564 47.656 156.546 47.6883 156.541 47.7236C156.535 47.7588 156.542 47.7949 156.56 47.8257L157.321 49.1458C157.34 49.1759 157.369 49.1989 157.402 49.2113C157.435 49.2237 157.472 49.2249 157.506 49.2146L158.168 48.9824C158.205 48.971 158.243 48.9702 158.28 48.9801C158.316 48.99 158.349 49.0102 158.375 49.0383C158.552 49.254 158.743 49.458 158.947 49.649C159.007 49.7054 159.045 49.7817 159.054 49.864L159.162 51.0164C159.167 51.0553 159.181 51.0925 159.202 51.1258C159.222 51.1591 159.25 51.1878 159.282 51.21L160.318 51.8077C160.33 51.8167 160.344 51.8222 160.359 51.8236C160.374 51.8249 160.388 51.822 160.401 51.8152C160.415 51.8084 160.425 51.7981 160.433 51.7853C160.44 51.7725 160.444 51.7579 160.443 51.7432L160.546 50.7369C160.547 50.7206 160.551 50.7046 160.559 50.6903C160.567 50.6759 160.578 50.6634 160.591 50.6539C160.604 50.6444 160.62 50.638 160.636 50.6352C160.652 50.6325 160.668 50.6334 160.684 50.638C160.848 50.6758 161.015 50.6931 161.183 50.6896C161.221 50.6901 161.259 50.6993 161.293 50.7164C161.327 50.7335 161.357 50.7582 161.381 50.7885L162.146 51.941C162.166 51.9697 162.196 51.99 162.23 51.998C162.264 52.0059 162.3 52.0009 162.331 51.984L162.998 51.597C163.027 51.579 163.049 51.5504 163.059 51.5168C163.069 51.4833 163.065 51.4474 163.049 51.4164L162.438 50.1779C162.421 50.1433 162.412 50.105 162.412 50.0661C162.412 50.0272 162.421 49.9889 162.438 49.9543C162.525 49.811 162.594 49.658 162.645 49.4985C162.648 49.4828 162.655 49.468 162.665 49.4555C162.675 49.443 162.688 49.433 162.703 49.4263C162.718 49.4196 162.733 49.4164 162.75 49.417C162.766 49.4176 162.781 49.4219 162.795 49.4297L163.72 49.8597C163.732 49.8668 163.746 49.8704 163.76 49.8702C163.774 49.8699 163.788 49.8658 163.8 49.8583C163.812 49.8508 163.822 49.8401 163.828 49.8275C163.834 49.8148 163.837 49.8007 163.836 49.7866V48.5911C163.834 48.551 163.823 48.5118 163.805 48.4762C163.786 48.4406 163.76 48.4094 163.729 48.3847L162.783 47.7225C162.719 47.6703 162.674 47.5996 162.653 47.5204C162.591 47.2473 162.511 46.9787 162.413 46.7162C162.401 46.6812 162.399 46.6433 162.408 46.6074C162.417 46.5715 162.437 46.539 162.464 46.5141L162.998 46.054C163.024 46.0295 163.042 45.9968 163.049 45.961C163.055 45.9252 163.049 45.8883 163.032 45.8562L162.284 44.5102C162.265 44.4787 162.236 44.4546 162.201 44.4421C162.167 44.4295 162.129 44.4293 162.094 44.4414L161.432 44.6736C161.396 44.6837 161.358 44.6833 161.322 44.6727C161.287 44.662 161.255 44.6415 161.23 44.6134C161.051 44.399 160.859 44.1965 160.654 44.0071C160.597 43.9483 160.559 43.8732 160.546 43.7921L160.443 42.6396C160.437 42.6005 160.422 42.5631 160.401 42.5299C160.38 42.4966 160.351 42.468 160.318 42.4461L159.282 41.8484C159.27 41.8393 159.256 41.8338 159.242 41.8325C159.227 41.8312 159.212 41.8341 159.199 41.8408C159.186 41.8476 159.175 41.858 159.168 41.8708C159.16 41.8835 159.157 41.8981 159.157 41.9129L159.059 42.9191C159.057 42.9351 159.052 42.9505 159.044 42.9644C159.036 42.9783 159.025 42.9901 159.012 42.9992C158.999 43.0083 158.984 43.0143 158.968 43.0168C158.952 43.0193 158.936 43.0183 158.921 43.0137C158.757 42.9762 158.59 42.9589 158.422 42.9621C158.383 42.963 158.344 42.9544 158.309 42.9372C158.274 42.92 158.243 42.8946 158.22 42.8632L157.455 41.7151C157.436 41.6858 157.407 41.665 157.373 41.6569C157.339 41.6489 157.304 41.6543 157.274 41.6721L156.607 42.0548C156.577 42.072 156.554 42.1004 156.544 42.134C156.533 42.1675 156.536 42.2038 156.551 42.2354L157.166 43.4738C157.183 43.5087 157.192 43.5469 157.192 43.5857C157.192 43.6244 157.183 43.6626 157.166 43.6975C157.08 43.8404 157.012 43.9935 156.964 44.1533C156.96 44.1691 156.953 44.1837 156.942 44.1963C156.932 44.2088 156.919 44.2189 156.904 44.2259C156.889 44.2329 156.873 44.2365 156.857 44.2366C156.84 44.2367 156.824 44.2332 156.809 44.2264L155.889 43.7964C155.877 43.7876 155.862 43.7828 155.846 43.7825C155.831 43.7822 155.816 43.7865 155.803 43.7948C155.79 43.803 155.78 43.815 155.774 43.8291C155.768 43.8431 155.766 43.8587 155.769 43.8738V45.0692C155.766 45.1116 155.772 45.1541 155.788 45.1936C155.803 45.2331 155.828 45.2685 155.859 45.2971ZM158.052 45.8218C158.052 44.708 158.835 44.2565 159.802 44.8155C160.308 45.1461 160.73 45.5906 161.033 46.1133C161.336 46.636 161.513 47.2225 161.548 47.8257C161.548 48.9394 160.766 49.391 159.802 48.8362C159.295 48.5057 158.873 48.0607 158.569 47.5372C158.265 47.0136 158.088 46.4261 158.052 45.8218Z" fill="#FAFAFA"/>
<path d="M175.722 77.2403C181.557 80.6116 190.003 88.58 190.003 102.956C190.003 117.331 183.208 128.022 170.196 132.799C163.234 135.353 152.079 135.487 144.91 132.928C137.6 129.187 132.676 125.343 129.997 118.359C127.236 110.257 132.177 101.777 138.894 96.9267C145.611 92.076 144.812 86.5545 149.563 80.818C152.118 77.7305 155.876 75.0944 160.469 74.5827C165.474 74.0237 171.279 74.6773 175.722 77.2403Z" fill="#0079B3"/>
<path opacity="0.6" d="M175.722 77.2403C181.557 80.6116 190.003 88.58 190.003 102.956C190.003 117.331 183.208 128.022 170.196 132.799C163.234 135.353 152.079 135.487 144.91 132.928C137.6 129.187 132.676 125.343 129.997 118.359C127.236 110.257 132.177 101.777 138.894 96.9267C145.611 92.076 144.812 86.5545 149.563 80.818C152.118 77.7305 155.876 75.0944 160.469 74.5827C165.474 74.0237 171.279 74.6773 175.722 77.2403Z" fill="white"/>
<path opacity="0.3" d="M142.98 101.27C147.306 98.8749 148.14 96.256 151.907 86.4945C155.674 76.733 162.516 77.4641 162.516 77.4641C162.516 77.4641 172.578 77.8081 174.986 84.9765C176.646 89.9261 176.612 99.6919 175.047 104.951C174.118 108.125 172.828 109.617 172.828 109.617C177.773 108.645 181.716 111.982 181.716 111.982C181.716 111.982 177.541 110 170.69 112.747C166.631 114.377 162.021 116.618 157.867 118.316C154.89 119.455 152.25 121.331 150.196 123.769C148.097 126.173 144.915 132.331 144.674 132.799C140.314 130.55 136.818 128.25 134.147 125.244C134.065 124.268 134.147 123.27 134.1 122.294C134.005 118.703 133.958 115.1 134.151 111.513C134.581 103.265 138.649 103.674 142.98 101.27Z" fill="#0079B3"/>
<path opacity="0.3" d="M148.032 133.823C156.421 134.803 164.884 132.773 171.916 128.095C182.387 120.969 186.919 109.677 184.679 96.299C182.718 84.4992 176.788 77.9715 170.854 75.2795C172.171 75.6216 173.452 76.0941 174.676 76.69C179.48 80.1947 183.754 86.4257 185.388 96.1786C187.68 109.853 183.036 121.399 172.32 128.693C167.012 132.247 160.854 134.325 154.478 134.713C152.309 134.591 150.153 134.293 148.032 133.823Z" fill="#0079B3"/>
<path d="M146.802 114.239C147.542 114.811 148.479 114.239 149.262 114.828C149.808 115.248 150.166 115.866 150.259 116.548C150.28 116.898 150.352 117.243 150.475 117.572C150.681 117.942 150.905 118.32 151.085 118.699C151.411 119.296 151.777 119.871 152.182 120.419C153.145 121.773 153.158 123.618 152.724 125.17C152.496 125.987 152.083 126.168 151.567 126.839C151.214 127.295 150.608 127.811 149.993 127.677C149.702 127.578 149.438 127.414 149.219 127.198C149 126.982 148.832 126.72 148.729 126.43C148.432 125.781 148.557 125.51 148.423 124.818C148.29 124.125 148.096 123.136 147.606 122.633C147.209 122.198 146.836 121.741 146.488 121.266C145.822 120.406 145.168 119.546 144.519 118.686C144.454 118.595 144.39 118.509 144.321 118.423C143.676 117.623 140.584 115.263 140.584 115.263L144.024 110.317L146.802 114.239Z" fill="#FFBDA7"/>
<path d="M149.543 114.703C149.948 114.713 150.336 114.865 150.639 115.133C150.933 115.778 151.094 116.476 151.112 117.184C151.168 118.165 151.203 118.56 151.702 119.124C152.405 119.818 152.942 120.664 153.271 121.596C153.535 122.317 153.636 123.088 153.568 123.853C153.5 124.618 153.263 125.358 152.876 126.021C151.93 127.741 151.237 128.016 150.725 128.132C150.278 128.174 149.828 128.117 149.405 127.965L149.543 114.703Z" fill="#263238"/>
<path d="M146.541 113.863L146.803 114.237C146.96 114.429 147.104 114.632 147.233 114.843C147.749 115.751 147.272 117.424 147.125 117.854C146.987 117.8 146.839 117.776 146.69 117.785C146.542 117.793 146.397 117.832 146.265 117.901C145.638 118.163 144.597 118.718 144.606 119.036C144.614 119.354 146.373 120.933 147.134 122.33C147.895 123.728 147.887 124.403 147.973 125.676C148.033 126.583 148.467 128.161 149.8 127.989C150.497 127.908 152.342 126.931 152.931 124.119C153.455 121.629 151.937 120.124 151.172 119.251C150.407 118.378 150.441 117.643 150.213 116.267C150.11 115.665 150.075 115.196 149.538 114.693C148.772 114.263 147.908 114.315 147.323 114.117C146.85 113.966 146.738 113.639 146.541 113.863Z" fill="#0F2759"/>
<path d="M147.138 117.852C147.075 117.972 147.059 118.112 147.095 118.243C147.143 118.37 147.211 118.487 147.297 118.591C147.461 118.794 147.611 118.996 147.766 119.206C148.08 119.636 148.381 120.032 148.669 120.453C148.956 120.878 149.22 121.317 149.46 121.769C149.705 122.224 149.898 122.704 150.037 123.201C149.989 122.679 149.854 122.169 149.637 121.692C149.429 121.212 149.178 120.753 148.884 120.32C148.592 119.889 148.276 119.474 147.938 119.077C147.77 118.884 147.59 118.69 147.409 118.505C147.319 118.42 147.239 118.323 147.173 118.217C147.125 118.102 147.113 117.974 147.138 117.852Z" fill="#263238"/>
<path d="M150.157 122.719C149.481 122.719 147.886 123.313 147.77 123.936L147.813 124.117C147.688 123.974 147.616 123.791 147.611 123.601C147.585 123.253 148.51 122.474 150.019 122.35C150.217 122.423 150.354 122.702 150.157 122.719Z" fill="#FAFAFA"/>
<path d="M149.581 121.517C148.906 121.482 147.431 121.981 147.276 122.601L147.341 122.734C147.265 122.686 147.204 122.619 147.164 122.54C147.124 122.46 147.106 122.371 147.113 122.282C147.113 121.934 147.951 121.177 149.465 121.138C149.658 121.224 149.783 121.508 149.581 121.517Z" fill="#FAFAFA"/>
<path d="M148.885 120.353C148.218 120.374 146.735 120.937 146.649 121.57L146.752 121.716C146.677 121.675 146.612 121.62 146.56 121.552C146.508 121.485 146.471 121.407 146.451 121.324C146.382 120.972 147.251 120.146 148.743 119.979C148.941 120.047 149.083 120.327 148.885 120.353Z" fill="#FAFAFA"/>
<path d="M148.242 119.381C147.572 119.402 145.993 119.987 145.899 120.624L146.011 120.77C145.853 120.673 145.739 120.519 145.692 120.34C145.628 119.983 146.604 119.157 148.096 118.994C148.29 119.08 148.44 119.355 148.242 119.381Z" fill="#FAFAFA"/>
<path d="M151.757 95.9238C151.615 96.8097 145.891 97.6439 141.797 98.3664C137.101 99.2264 134.818 99.9617 132.943 101.398C132.392 101.778 131.948 102.295 131.657 102.898C131.365 103.501 131.235 104.17 131.279 104.838C131.343 105.961 132.079 107.848 133.992 109.775C137.613 113.417 139.471 114.389 142.077 116.552C142.077 116.552 145.216 115.038 145.947 112.91L142.459 108.046L154.5 106.145L151.757 95.9238Z" fill="#455A64"/>
<path d="M140.499 112.453C140.323 113.27 140.146 114.147 139.987 114.951C140.658 115.458 141.333 115.974 142.069 116.581C142.069 116.581 145.208 115.067 145.939 112.939L142.886 108.677C141.54 109.679 141.006 110.13 140.499 112.453Z" fill="#0F2759"/>
<path d="M154.479 106.162L154.208 105.375C154.208 105.375 147.298 106.071 144.898 106.299C142.864 106.497 142.464 106.51 141.57 105.512C140.327 104.132 139.381 103.822 138.379 103.917C139.837 104.287 141.2 106.119 142.451 108.062L154.479 106.162Z" fill="#0F2759"/>
<path d="M151.938 102.632L144.077 107.792L154.479 106.149L152.518 97.9401L151.732 97.7336C151.522 99.3662 151.592 101.022 151.938 102.632Z" fill="#0F2759"/>
<path d="M142.193 133.745C142.335 134.554 142.86 135.706 142.567 136.721C142.371 137.42 141.908 138.015 141.277 138.376C140.941 138.533 140.63 138.74 140.357 138.991C140.069 139.335 139.777 139.688 139.497 140.032C139.045 140.478 138.628 140.958 138.25 141.468C137.295 142.948 135.485 143.683 133.786 143.868C132.942 143.981 132.083 143.923 131.262 143.696C130.677 143.528 129.929 143.133 129.817 142.475C129.705 141.817 130.123 141.185 130.548 140.755C131.073 140.204 131.813 139.894 132.445 139.507C133.133 139.046 133.748 138.485 134.272 137.843C134.827 137.147 136.474 135.693 137.158 133.061C137.472 131.862 138.448 126.611 138.448 126.611L144.593 127.303C144.593 127.303 142.056 132.932 142.193 133.745Z" fill="#FFBDA7"/>
<path d="M142.8 136.964C142.945 137.37 142.945 137.813 142.8 138.219C142.28 138.767 141.655 139.206 140.964 139.509C140.018 139.939 139.643 140.141 139.287 140.855C138.935 141.765 138.363 142.574 137.622 143.208C136.564 144.098 134.874 144.657 132.488 144.455C130.424 144.278 129.783 143.474 129.624 143.259C129.403 142.892 129.279 142.475 129.263 142.046L142.8 136.964Z" fill="#263238"/>
<path d="M142.266 133.202C142.214 133.425 142.174 133.65 142.146 133.877C142.095 134.185 141.944 134.468 141.716 134.681C140.994 135.387 139.712 135.593 139.222 135.623C139.126 135.306 138.912 135.038 138.624 134.875C137.708 134.286 136.642 133.976 136.328 134.109C136.014 134.243 135.425 135.95 134.345 137.249C133.266 138.547 132.303 139.072 130.953 139.863C130.118 140.349 128.704 141.153 129.396 142.409C129.748 143.063 131.709 144.073 134.698 143.553C135.62 143.421 136.493 143.057 137.235 142.495C137.977 141.933 138.565 141.192 138.942 140.341C139.501 139.244 140.232 138.99 141.523 138.225C142.073 137.889 142.52 137.67 142.813 136.935C142.92 136.019 142.559 134.862 142.524 134.204C142.481 133.684 142.563 133.31 142.266 133.202Z" fill="#0F2759"/>
<path d="M139.231 135.623C139.089 135.617 138.948 135.655 138.829 135.732C138.71 135.809 138.617 135.921 138.564 136.053C138.394 136.369 138.204 136.673 137.996 136.965C137.034 138.259 135.908 139.422 134.646 140.426C136.139 139.661 137.158 138.457 138.087 137.124C138.314 136.808 138.515 136.475 138.689 136.126C138.788 135.873 138.93 135.675 139.231 135.623Z" fill="#263238"/>
<path d="M135.218 140.203C134.689 139.167 133.412 138.625 132.75 138.754L132.591 138.866C132.683 138.686 132.835 138.545 133.021 138.466C133.356 138.303 134.818 138.487 135.532 139.924C135.532 140.147 135.313 140.405 135.218 140.203Z" fill="#FAFAFA"/>
<path d="M136.508 139.281C136.078 138.284 134.56 137.669 133.894 137.759L133.773 137.884C133.793 137.789 133.838 137.701 133.903 137.63C133.968 137.558 134.051 137.505 134.143 137.475C134.483 137.333 136.259 137.729 136.835 139.019C136.827 139.238 136.594 139.475 136.508 139.281Z" fill="#FAFAFA"/>
<path d="M137.476 138.172C137.166 137.312 135.438 136.52 134.775 136.675L134.659 136.847C134.689 136.663 134.789 136.498 134.939 136.387C135.261 136.181 137.149 136.705 137.785 137.888C137.794 138.107 137.566 138.357 137.476 138.172Z" fill="#FAFAFA"/>
<path d="M138.134 137.144C137.893 136.22 136.07 135.536 135.412 135.691L135.266 135.91C135.274 135.825 135.301 135.742 135.344 135.668C135.387 135.594 135.445 135.53 135.515 135.48C135.838 135.274 137.695 135.48 138.443 136.869C138.452 137.075 138.237 137.329 138.134 137.144Z" fill="#FAFAFA"/>
<path d="M151.758 95.9238L167.407 99.1232C167.437 101.338 167.23 104.473 166.4 106.253C165.639 107.883 164.181 109.74 160.625 111.228C156.402 112.991 151.298 114.432 150.305 114.901C148.855 115.576 148.499 115.271 148.03 118.496C147.729 120.56 147.419 121.029 145.252 126.236C144.465 128.132 143.618 130.334 143.618 130.334C142.822 131.216 138.849 130.648 137.855 129.212C137.855 129.212 140.259 115.597 140.973 113.022C141.373 111.585 141.751 110.295 143.635 108.781C145.243 107.491 153.044 102.942 153.044 102.942C153.044 102.942 151.474 100.413 151.758 95.9238Z" fill="#455A64"/>
<path d="M165.31 99.9169C165.216 103.572 165.16 105.778 159.987 107.932C158.43 108.582 156.818 109.184 155.257 109.773C150.629 111.493 146.974 112.882 146.609 114.503C146.467 115.131 146.355 115.884 146.226 116.752C145.913 119.293 145.344 121.796 144.527 124.222C143.667 126.643 142.726 129.133 142.106 130.754C142.266 130.754 142.416 130.754 142.558 130.724C143.177 129.102 144.08 126.699 144.914 124.359C145.74 121.908 146.316 119.379 146.635 116.812C146.764 115.952 146.875 115.208 147.009 114.594C147.327 113.174 151.249 111.699 155.403 110.138C156.964 109.554 158.581 108.947 160.133 108.294C165.551 106.04 165.616 103.602 165.723 99.9082C165.723 99.5599 165.723 99.1944 165.758 98.8203L165.349 98.7085C165.336 99.1213 165.323 99.5513 165.31 99.9169Z" fill="#0F2759"/>
<path d="M161.6 107.559C161.539 107.508 160.159 106.291 161.045 103.689C161.796 101.718 162.126 99.6116 162.012 97.5054H162.442C162.549 99.658 162.212 101.81 161.453 103.827C160.658 106.162 161.883 107.232 161.883 107.245L161.6 107.559Z" fill="#0F2759"/>
<path d="M138.082 127.612C138.581 128.674 142.06 129.878 144.141 129.125L143.436 131.004C141.836 131.834 139.007 131.31 137.751 129.68L138.082 127.612Z" fill="#0F2759"/>
<path opacity="0.15" d="M145.707 96.5857C144.266 96.9899 142.761 97.4027 141.587 97.7984C137.059 99.3206 134.81 99.9485 132.935 101.398C132.918 101.409 132.902 101.422 132.888 101.436L143.071 107.964L145.354 107.603C144.795 107.96 144.318 108.282 143.965 108.536L150.661 112.836L161.734 107.108C161.754 107.096 161.771 107.079 161.783 107.058C161.795 107.037 161.801 107.014 161.801 106.99C161.801 106.966 161.795 106.943 161.783 106.922C161.771 106.901 161.754 106.884 161.734 106.872L145.707 96.5857Z" fill="black"/>
<path d="M146.295 78.828C146.285 78.2451 146.326 77.6624 146.415 77.0864C146.72 75.4093 146.376 74.3385 145.826 72.7646C145.731 72.4937 145.632 72.2271 145.534 71.9562C145.481 71.8287 145.436 71.698 145.4 71.5649C145.374 71.4359 145.344 71.3284 145.177 71.3198C145.059 71.3202 144.945 71.3647 144.858 71.4445C144.719 71.5772 144.609 71.7375 144.535 71.9152C144.461 72.0929 144.424 72.2841 144.428 72.4765C144.431 72.8647 144.469 73.2518 144.54 73.6333C144.579 73.9257 144.282 73.7623 144.153 73.6634C143.525 73.1775 143.082 71.9992 142.799 71.2725C142.657 70.7809 142.479 70.3008 142.265 69.8362C142.116 69.5538 141.883 69.3242 141.599 69.1783C141.405 69.0837 141.195 69.0665 141.104 69.3202C141.066 69.4842 141.066 69.655 141.104 69.819C141.148 69.9776 141.157 70.1437 141.131 70.3062C141.105 70.4686 141.045 70.6236 140.954 70.7607C140.796 70.9269 140.658 71.1117 140.545 71.3112C140.479 71.5946 140.43 71.8818 140.399 72.1712C140.289 72.3947 140.165 72.6115 140.029 72.8205C139.967 73.1169 139.967 73.423 140.029 73.7193C140.198 75.2003 140.786 76.6025 141.724 77.7615C142.037 78.17 142.485 78.5785 142.558 79.0946C142.618 79.584 142.627 80.0783 142.584 80.5695C142.549 81.2275 142.498 82.2896 142.403 83.2357C141.973 87.6735 142.231 90.1849 143.5 92.2103C144.145 93.238 145.177 93.5003 147.765 91.8791C150.659 90.0558 156.495 84.7709 156.495 84.7709L157.346 77.6196C156.744 77.6626 154.547 77.6196 153.252 78.9957C151.356 81.0039 147.189 85.446 147.189 85.446C147.189 85.446 146.333 79.3139 146.295 78.828Z" fill="#FFBDA7"/>
<path d="M147.19 85.4444C147.47 86.2055 148.132 88.6523 147.474 89.9381C148.906 88.4158 147.831 84.7778 147.831 84.7778L147.19 85.4444Z" fill="#F0997A"/>
<path d="M144.227 74.9099C143.891 75.813 143.797 77.06 144.132 77.7524C144.132 77.7524 143.547 77.3782 143.599 76.2688C143.592 76.0092 143.645 75.7515 143.754 75.5158C143.863 75.2801 144.025 75.0728 144.227 74.9099Z" fill="#F0997A"/>
<path d="M152.524 88.9794C152.55 91.6326 152.705 94.9997 150.396 96.6768C153.603 101.407 158.136 101.811 167.506 100.818C167.695 97.0165 168.005 91.2499 168.229 88.5192C168.229 88.5192 172.563 82.5376 168.121 79.8629C166.971 79.1825 165.77 78.5903 164.53 78.0912C161.163 76.8871 158.016 77.6053 157.34 77.6268C153.191 80.0435 149.316 84.4125 152.524 88.9794Z" fill="#0079B3"/>
<path d="M168.367 76.5632C169.722 75.0538 168.075 73.4455 168.5 71.4029C169.016 68.9217 169.597 65.2837 166.539 64.4967C166.436 60.5749 162.007 60.0116 158.7 60.7383C157.178 61.0695 155.539 61.2759 154.305 62.3165C153.346 62.9788 152.396 64.286 153.11 65.4299C152.095 65.3611 151.153 66.4662 151.686 67.4166C151.936 67.8466 152.435 68.0831 152.761 68.4616C153.269 68.9905 152.761 69.6785 152.177 69.0894C152.091 69.7258 153.011 70.0569 153.535 70.0139C153.829 69.9904 154.11 69.8829 154.344 69.7043C154.533 69.5581 154.606 69.3345 154.864 69.3431C155.617 69.3732 155.724 70.3149 155.268 70.7923C154.039 71.8157 152.073 72.8005 152.865 74.7571C152.865 74.0389 153.626 73.6992 154.219 73.5401C153.639 74.2023 153.583 75.2602 154.649 76.2493C155.423 76.9292 156.433 77.2782 157.462 77.2211C158.786 77.2469 159.504 77.3458 160.575 77.3845C163.465 77.4877 165.942 77.4275 166.561 75.0882C166.655 75.7762 166.561 76.7782 165.563 77.1437C166.38 77.4447 167.765 77.234 168.367 76.5632Z" fill="#263238"/>
<path d="M166.81 70.7413C166.81 70.6725 166.78 70.6123 166.763 70.5478C166.702 70.3357 166.583 70.1452 166.419 69.9983C166.254 69.8514 166.051 69.7541 165.834 69.7178C165.605 69.6928 165.373 69.7248 165.159 69.8111C164.945 69.8974 164.756 70.0352 164.608 70.2124C164.393 70.436 164.135 70.823 163.774 70.7671C163.413 70.7112 163.439 70.479 163.465 70.1737C163.524 69.81 163.484 69.437 163.348 69.0943C163.202 68.8105 162.957 68.5912 162.811 68.3074C162.677 68.0152 162.593 67.7027 162.561 67.3828C162.467 66.755 162.415 66.0928 161.959 65.5982C161.267 64.8586 159.341 64.7726 158.317 65.8777C157.646 64.8543 156.563 64.7769 155.974 65.1854C155.384 65.5939 154.709 66.183 154.645 70.036C154.585 73.6998 155.393 75.2909 156.408 75.8242C157.148 76.2374 157.998 76.413 158.842 76.3273L158.872 77.97C155.432 81.4832 160.592 82.8894 164.355 78.1549C164.355 76.6885 164.355 73.1451 164.355 73.1451C164.451 73.2912 164.583 73.411 164.737 73.4934C165.012 73.6321 165.33 73.6583 165.623 73.5665C165.862 73.4891 166.081 73.3583 166.262 73.184C166.443 73.0096 166.582 72.7963 166.668 72.5603C166.896 71.9817 166.946 71.3482 166.81 70.7413Z" fill="#FFBDA7"/>
<path d="M159.5 69.4027C159.478 69.5429 159.51 69.6863 159.59 69.8037C159.67 69.9211 159.791 70.0037 159.93 70.0348C159.999 70.0484 160.07 70.048 160.139 70.0336C160.208 70.0192 160.273 69.9911 160.331 69.951C160.388 69.9109 160.438 69.8596 160.475 69.8001C160.513 69.7406 160.538 69.6742 160.549 69.6048C160.57 69.4619 160.535 69.3164 160.451 69.1992C160.367 69.082 160.24 69.0022 160.098 68.9769C159.962 68.9545 159.823 68.9867 159.711 69.0665C159.599 69.1463 159.523 69.2671 159.5 69.4027Z" fill="#263238"/>
<path d="M155.479 68.1921L156.67 67.6933C156.641 67.6144 156.597 67.542 156.54 67.4807C156.483 67.4194 156.413 67.3703 156.337 67.3366C156.26 67.3028 156.177 67.285 156.093 67.2842C156.009 67.2834 155.926 67.2997 155.848 67.3321C155.688 67.4007 155.561 67.5282 155.492 67.6883C155.423 67.8483 155.418 68.0287 155.479 68.1921Z" fill="#263238"/>
<path d="M159.796 67.7293L161.086 68.3657C161.132 68.2833 161.16 68.1924 161.169 68.0986C161.178 68.0049 161.168 67.9102 161.14 67.8204C161.111 67.7307 161.065 67.6477 161.003 67.5765C160.941 67.5054 160.866 67.4476 160.781 67.4067C160.606 67.3252 160.407 67.3131 160.224 67.373C160.041 67.433 159.888 67.5603 159.796 67.7293Z" fill="#263238"/>
<path d="M159.827 72.6111L158.231 73.3206C158.28 73.4337 158.352 73.5352 158.442 73.6181C158.533 73.7011 158.641 73.7636 158.757 73.8015C158.874 73.8394 158.998 73.8518 159.12 73.8378C159.242 73.8239 159.36 73.7839 159.466 73.7205C159.563 73.6722 159.65 73.605 159.721 73.5228C159.792 73.4405 159.846 73.345 159.879 73.2417C159.913 73.1384 159.926 73.0294 159.917 72.9211C159.908 72.8128 159.877 72.7074 159.827 72.6111Z" fill="#9E6767"/>
<path d="M158.997 73.8322C158.996 73.6048 159.079 73.3851 159.231 73.2158C159.383 73.0465 159.592 72.9397 159.818 72.9163H159.904C159.929 73.0799 159.901 73.2471 159.823 73.3934C159.746 73.5397 159.624 73.6573 159.474 73.729C159.326 73.8028 159.162 73.8382 158.997 73.8322Z" fill="#F28F8F"/>
<path d="M155.811 69.3853C155.79 69.5228 155.823 69.6629 155.904 69.7765C155.984 69.8902 156.104 69.9687 156.241 69.9959C156.308 70.0088 156.378 70.0078 156.445 69.9929C156.512 69.978 156.576 69.9496 156.632 69.9093C156.688 69.8691 156.735 69.8179 156.77 69.7589C156.806 69.6998 156.829 69.6341 156.838 69.5659C156.859 69.4284 156.825 69.2883 156.745 69.1746C156.665 69.061 156.545 68.9824 156.408 68.9552C156.341 68.9424 156.271 68.9434 156.204 68.9583C156.136 68.9731 156.073 69.0016 156.017 69.0418C155.961 69.082 155.914 69.1332 155.878 69.1923C155.843 69.2513 155.82 69.317 155.811 69.3853Z" fill="#263238"/>
<path d="M158.847 76.3071C160.941 76.1394 163.052 75.5674 163.659 73.6882C163.623 74.1315 163.485 74.5604 163.254 74.9405C163.023 75.3206 162.707 75.6413 162.33 75.877C161.091 76.707 158.86 77.008 158.86 77.008L158.847 76.3071Z" fill="#F0997A"/>
<path d="M158.347 69.0723L158.097 72.3404L156.33 71.8588C156.681 70.7353 157.389 69.7569 158.347 69.0723Z" fill="#F0997A"/>
<path d="M133.738 100.154V100.386C133.73 100.551 133.766 100.716 133.841 100.863C133.917 101.01 134.029 101.135 134.169 101.225L150.251 111.545C150.39 111.636 150.55 111.688 150.716 111.696C150.883 111.703 151.049 111.666 151.197 111.588L160.443 106.823C160.59 106.747 160.714 106.633 160.804 106.494C160.894 106.354 160.946 106.194 160.955 106.028V105.71C160.954 105.731 160.948 105.751 160.936 105.768C160.925 105.786 160.909 105.8 160.89 105.809L150.737 111.063L133.738 100.154Z" fill="#263238"/>
<path d="M150.738 111.05L150.708 111.678C150.542 111.67 150.382 111.618 150.243 111.528L134.16 101.207C134.022 101.117 133.91 100.992 133.834 100.845C133.759 100.698 133.723 100.534 133.73 100.368V100.136L150.738 111.05Z" fill="#263238"/>
<path d="M133.739 100.155L143.797 94.9515C143.886 94.9065 143.984 94.8857 144.083 94.8909C144.182 94.8962 144.278 94.9275 144.361 94.9816L160.904 105.573C160.922 105.584 160.938 105.6 160.949 105.619C160.96 105.637 160.965 105.659 160.965 105.681C160.965 105.702 160.96 105.724 160.949 105.742C160.938 105.761 160.922 105.777 160.904 105.788L150.751 111.043L133.739 100.155Z" fill="#0F2759"/>
<path d="M150.866 110.22L156.293 107.416L141.255 97.7791L135.803 100.566L150.866 110.22Z" fill="#455A64"/>
<path d="M135.803 100.566L136.001 100.69L141.243 98.0113L156.083 107.523L156.293 107.42L141.255 97.7791L135.803 100.566Z" fill="#263238"/>
<path d="M153.855 101.866L153.756 101.917L151.098 103.289L146.613 100.416L146.519 100.361L149.279 98.9329L153.855 101.866Z" fill="#263238"/>
<path d="M153.757 101.918L151.099 103.289L146.614 100.417L149.276 99.0452L153.757 101.918Z" fill="#455A64"/>
<path d="M148.747 103.483C149.521 102.782 150.644 101.815 151.56 101.557C151.771 101.486 151.986 101.43 152.205 101.389C151.894 101.332 151.586 101.256 151.285 101.161C150.982 101.053 150.717 100.858 150.523 100.602C150.45 100.499 150.403 100.335 150.523 100.258C150.561 100.231 150.606 100.217 150.652 100.219C151.371 100.219 151.942 100.138 152.596 100.129C153.186 100.062 153.782 100.062 154.372 100.129C155.052 100.233 155.725 100.377 156.389 100.559C157.163 100.752 157.679 100.916 158.487 100.529L160.977 99.3506C160.977 99.3506 161.321 99.4753 162.151 101.041C162.981 102.606 162.418 103.423 162.418 103.423L159.154 104.382H159.107C158.606 104.619 158.089 104.819 157.559 104.98C156.544 105.238 155.279 104.816 154.411 104.73C153.327 104.72 152.249 104.902 151.229 105.268C150.407 105.556 149.509 104.27 149.078 104.408C148.648 104.545 147.982 104.184 148.747 103.483Z" fill="#FFBDA7"/>
<path d="M152.618 100.928C153.038 100.927 153.454 101.013 153.839 101.182C153.294 101.185 152.751 101.254 152.222 101.388C151.911 101.332 151.603 101.256 151.302 101.16C151.036 101.063 150.798 100.902 150.609 100.692C151.078 101.044 152.028 100.958 152.618 100.928Z" fill="#F0997A"/>
<path d="M168.12 79.8606C170.928 81.1894 171.109 81.9806 171.603 84.0447C172.098 86.1088 172.24 92.0001 172.347 94.6147C172.541 99.4008 171.982 100.097 169.965 100.785C166.817 101.861 162.414 103.417 162.414 103.417L158.72 100.536L166.808 96.3004L165.948 85.954C165.948 85.954 165.398 82.3117 168.12 79.8606Z" fill="#FFBDA7"/>
<path d="M150.467 111.165C150.308 111.219 150.138 111.236 149.971 111.216C149.805 111.195 149.645 111.136 149.504 111.044L133.494 100.784C133.355 100.696 133.237 100.578 133.149 100.439C133.062 100.3 133.006 100.143 132.987 99.9799L131.696 89.1563C131.692 89.0947 131.692 89.0329 131.696 88.9714C131.712 88.6719 131.845 88.3905 132.066 88.1887L148.704 98.8533C148.806 98.9195 148.893 99.0074 148.957 99.1107C149.022 99.2139 149.063 99.3301 149.078 99.451L150.467 111.165Z" fill="#0F2759"/>
<path d="M150.738 111.052L150.622 111.107C150.572 111.134 150.52 111.157 150.467 111.176L149.057 99.4624C149.042 99.3415 149 99.2253 148.936 99.1221C148.871 99.0188 148.785 98.9309 148.682 98.8647L132.045 88.2001C132.117 88.1374 132.196 88.0839 132.281 88.041L148.953 98.7228C149.056 98.789 149.142 98.8769 149.207 98.9802C149.271 99.0834 149.313 99.1996 149.328 99.3205L150.738 111.052Z" fill="#455A64"/>
<path d="M148.914 99.0965L149.185 98.9546C149.262 99.0627 149.311 99.1883 149.327 99.3201L150.737 111.051L150.621 111.107C150.571 111.134 150.52 111.157 150.466 111.176L149.056 99.462C149.04 99.3303 148.991 99.2046 148.914 99.0965Z" fill="#263238"/>
<path d="M141.66 100.843C141.445 99.9319 140.885 99.1399 140.099 98.6322C139.325 98.1334 138.77 98.3226 138.856 99.0622C139.072 99.9728 139.631 100.765 140.417 101.273C141.191 101.741 141.746 101.556 141.66 100.843Z" fill="#E0E0E0"/>
<g clip-path="url(#clip0_1877_2883)">
<g filter="url(#filter0_f_1877_2883)">
<path d="M120.069 86.7911L100.035 69.4134L100.15 63.6104C109.553 58.9302 116.863 53.5606 118.563 42.3092L98.5291 53.7431L101.772 45.601L117.753 36.64C115.318 32.2023 108.621 35.3485 98.1816 41.8047L101.772 33.5948L135.703 13.9459L132.345 21.9458L122.965 27.3613C124.679 28.4613 125.934 30.1413 125.975 32.1589L135.703 26.4093L132.345 34.3506L125.86 38.2281C124.847 47.7664 117.723 57.1808 108.72 63.5964L128.889 81.6908L120.069 86.7883L120.069 86.7884L120.069 86.7911Z" fill="#6A1370"/>
</g>
<g filter="url(#filter1_i_1877_2883)">
<path d="M119.477 85.5938L99.4429 68.2162L99.5586 62.4131C108.961 57.733 116.271 52.3633 117.971 41.1119L98.1819 53.5539L97.9373 52.5458L101.18 44.4037L117.161 35.4427C114.758 31.0645 108.208 35.3934 98.0072 41.6749C97.8687 41.7602 97.7296 40.5209 97.5898 40.6074L101.18 32.3975L135.111 12.7487L135.566 13.7244L131.753 20.7485L122.373 26.1641C124.087 27.264 125.342 28.9441 125.384 30.9616L135.111 25.212L135.566 26.3022L131.753 33.1533L125.268 37.0309C124.255 46.5691 117.131 55.9835 108.129 62.3991L128.297 80.4936L128.578 81.5043L119.477 85.591L119.477 85.5938Z" fill="#6A1370"/>
</g>
<g filter="url(#filter2_i_1877_2883)">
<path d="M119.477 86.2932L99.4434 68.9156L99.5591 63.1125C108.962 58.4324 116.271 53.0628 117.972 41.8113L98.1824 53.0303L101.18 45.1032L117.161 36.1421C114.726 31.7045 108.272 34.6951 97.833 41.1513L101.18 33.0969L135.112 13.4481L131.753 21.4479L122.373 26.8635C124.088 27.9634 125.342 29.6435 125.384 31.661L135.112 25.9114L131.753 33.8528L125.268 37.7303C124.256 47.2685 117.132 56.683 108.129 63.0985L128.297 81.193L119.478 86.2905L119.477 86.2932Z" fill="#6A1370"/>
</g>
<path d="M119.825 86.6434L99.7915 69.2657L99.9072 63.4627C109.31 58.7825 116.619 53.4129 118.32 42.1615L98.1811 53.5546L101.528 45.4533L117.509 36.4923C115.074 32.0546 108.378 35.2007 97.9385 41.6569L101.528 33.4471L135.46 13.7982L132.101 21.798L122.721 27.2136C124.436 28.3135 125.69 29.9936 125.732 32.0111L135.46 26.2616L132.101 34.2029L125.616 38.0804C124.604 47.6187 117.48 57.0331 108.477 63.4487L128.645 81.5431L119.826 86.6406L119.825 86.6434Z" fill="#6A1370"/>
</g>
<path d="M111.887 115.636L105.237 119.476L111.889 123.315L118.54 119.476L111.887 115.636Z" fill="#BA68C8"/>
<path opacity="0.3" d="M111.887 115.636L105.237 119.476L111.889 123.315L118.54 119.476L111.887 115.636Z" fill="black"/>
<path d="M118.54 119.464V141.666L111.889 145.505V123.318L118.54 119.464Z" fill="#BA68C8"/>
<path opacity="0.4" d="M118.54 119.464V141.666L111.889 145.505V123.318L118.54 119.464Z" fill="black"/>
<path d="M111.889 123.317V145.504L105.237 141.663V119.476L111.889 123.317Z" fill="#BA68C8"/>
<path opacity="0.55" d="M111.889 123.317V145.504L105.237 141.663V119.476L111.889 123.317Z" fill="black"/>
<path d="M99.3253 134.836L92.6758 138.675L99.3272 142.515L105.977 138.677L99.3253 134.836Z" fill="#023E84"/>
<path d="M105.979 138.676V148.916L99.3271 152.757V142.515L105.979 138.676Z" fill="#0F2759"/>
<path d="M99.3272 142.515V152.757L92.6758 148.916V138.674L99.3272 142.515Z" fill="#001746"/>
<path d="M86.7627 129.291L80.1113 133.131L86.7627 136.97L93.4122 133.129L86.7627 129.291Z" fill="#BA68C8"/>
<path opacity="0.7" d="M86.7627 129.291L80.1113 133.131L86.7627 136.97L93.4122 133.129L86.7627 129.291Z" fill="white"/>
<path d="M93.4141 133.131V156.179L86.7627 160.012V136.969L93.4141 133.131Z" fill="#BA68C8"/>
<path opacity="0.6" d="M93.4141 133.131V156.179L86.7627 160.012V136.969L93.4141 133.131Z" fill="white"/>
<path d="M86.7627 136.969V160.012L80.1113 156.172V133.131L86.7627 136.969Z" fill="#BA68C8"/>
<path opacity="0.4" d="M86.7627 136.969V160.012L80.1113 156.172V133.131L86.7627 136.969Z" fill="white"/>
<path d="M74.1993 141.664L67.5498 145.506L74.2012 149.347L80.8507 145.508L74.1993 141.664Z" fill="#023E84"/>
<path d="M80.8524 145.49V163.422L74.2011 167.262L74.1992 149.345L80.8524 145.49Z" fill="#0F2759"/>
<path d="M74.1993 149.345L74.2012 167.262L67.5498 163.422V145.49L74.1993 149.345Z" fill="#001746"/>
<path d="M112.628 111.798V113.503L110.306 112.16C110.191 112.086 110.095 111.985 110.026 111.866C109.958 111.747 109.918 111.614 109.911 111.477V110.12L112.628 111.798Z" fill="#045379"/>
<path d="M117.745 114.409V116.002C117.745 116.254 117.569 116.355 117.35 116.23L114.847 114.785V113.078L117.745 114.409Z" fill="#045379"/>
<path d="M114.847 113.078V114.783L101.039 137.861C101.013 137.911 100.975 137.954 100.93 137.986C100.884 138.019 100.831 138.04 100.775 138.048C100.72 138.056 100.663 138.05 100.61 138.032C100.557 138.014 100.509 137.983 100.47 137.943L88.5712 127.038C88.5312 126.998 88.4824 126.967 88.4287 126.948C88.3749 126.93 88.3176 126.924 88.2612 126.931C88.2048 126.938 88.1508 126.958 88.1034 126.99C88.056 127.021 88.0165 127.063 87.9879 127.112L77.1516 143.67L75.9221 145.548C75.8636 145.636 75.7767 145.701 75.6758 145.733V144.028L75.9258 143.842L77.1535 141.965L87.9916 125.403C88.0203 125.354 88.06 125.312 88.1075 125.281C88.155 125.25 88.209 125.23 88.2654 125.223C88.3218 125.216 88.379 125.222 88.4327 125.241C88.4864 125.259 88.535 125.29 88.5749 125.331L100.468 136.235C100.508 136.276 100.556 136.306 100.608 136.324C100.661 136.342 100.718 136.347 100.773 136.339C100.829 136.331 100.882 136.31 100.927 136.278C100.973 136.246 101.011 136.203 101.037 136.154L114.847 113.078Z" fill="#045379"/>
<path d="M75.6774 144.035V145.74C75.6132 145.762 75.5448 145.771 75.4771 145.764C75.4094 145.758 75.3438 145.737 75.2848 145.703L74.0312 144.981H74.0201C73.9088 144.905 73.8164 144.805 73.7503 144.688C73.6841 144.57 73.6459 144.439 73.6387 144.305V142.851L75.6774 144.035Z" fill="#045379"/>
<path d="M87.9326 127.2L88.24 126.729L100.461 137.941L101.03 137.86L101.021 137.875C100.961 137.975 100.866 138.047 100.753 138.078C100.641 138.108 100.522 138.093 100.421 138.036L98.8022 137.11C98.6569 137.025 98.521 136.925 98.3967 136.812L87.9326 127.2Z" fill="#0079B3"/>
<path d="M112.628 111.798L114.846 113.078L100.805 136.545L98.8789 134.778L112.628 111.798Z" fill="#0079B3"/>
<path d="M75.9221 143.888L87.9879 125.448C88.0412 125.367 88.1233 125.309 88.2178 125.285C88.3122 125.262 88.412 125.275 88.4971 125.323L86.4065 124.026C86.3029 123.962 86.1784 123.941 86.0595 123.968C85.9406 123.994 85.8366 124.065 85.7695 124.167L73.7056 142.608C73.673 142.657 73.6509 142.712 73.6405 142.77C73.6301 142.827 73.6318 142.886 73.6453 142.943C73.6589 143 73.6841 143.054 73.7193 143.101C73.7545 143.148 73.799 143.187 73.85 143.216L75.2795 144.042C75.3864 144.101 75.5118 144.119 75.6309 144.09C75.7499 144.062 75.8539 143.99 75.9221 143.888Z" fill="#0079B3"/>
<path d="M110.067 110.318L117.407 114.557C117.625 114.682 117.777 114.582 117.738 114.333L116.835 107.813C116.831 107.757 116.813 107.703 116.784 107.656C116.754 107.609 116.714 107.569 116.666 107.541C116.618 107.513 116.563 107.496 116.508 107.494C116.452 107.491 116.396 107.502 116.346 107.526L110.094 109.933C109.865 110.018 109.848 110.192 110.067 110.318Z" fill="#0079B3"/>
<defs>
<filter id="filter0_f_1877_2883" x="95.6277" y="11.3918" width="42.6294" height="77.9532" filterUnits="userSpaceOnUse" color-interpolation-filters="sRGB">
<feFlood flood-opacity="0" result="BackgroundImageFix"/>
<feBlend mode="normal" in="SourceGraphic" in2="BackgroundImageFix" result="shape"/>
<feGaussianBlur stdDeviation="1.27699" result="effect1_foregroundBlur_1877_2883"/>
</filter>
<filter id="filter1_i_1877_2883" x="97.5898" y="12.7485" width="38.6743" height="73.544" filterUnits="userSpaceOnUse" color-interpolation-filters="sRGB">
<feFlood flood-opacity="0" result="BackgroundImageFix"/>
<feBlend mode="normal" in="SourceGraphic" in2="BackgroundImageFix" result="shape"/>
<feColorMatrix in="SourceAlpha" type="matrix" values="0 0 0 0 0 0 0 0 0 0 0 0 0 0 0 0 0 0 127 0" result="hardAlpha"/>
<feOffset dx="0.698762" dy="0.698762"/>
<feGaussianBlur stdDeviation="1.66009"/>
<feComposite in2="hardAlpha" operator="arithmetic" k2="-1" k3="1"/>
<feColorMatrix type="matrix" values="0 0 0 0 1 0 0 0 0 1 0 0 0 0 1 0 0 0 0.45 0"/>
<feBlend mode="normal" in2="shape" result="effect1_innerShadow_1877_2883"/>
</filter>
<filter id="filter2_i_1877_2883" x="97.833" y="13.448" width="37.9771" height="73.544" filterUnits="userSpaceOnUse" color-interpolation-filters="sRGB">
<feFlood flood-opacity="0" result="BackgroundImageFix"/>
<feBlend mode="normal" in="SourceGraphic" in2="BackgroundImageFix" result="shape"/>
<feColorMatrix in="SourceAlpha" type="matrix" values="0 0 0 0 0 0 0 0 0 0 0 0 0 0 0 0 0 0 127 0" result="hardAlpha"/>
<feOffset dx="0.698762" dy="0.698762"/>
<feGaussianBlur stdDeviation="1.66009"/>
<feComposite in2="hardAlpha" operator="arithmetic" k2="-1" k3="1"/>
<feColorMatrix type="matrix" values="0 0 0 0 1 0 0 0 0 1 0 0 0 0 1 0 0 0 0.45 0"/>
<feBlend mode="normal" in2="shape" result="effect1_innerShadow_1877_2883"/>
</filter>
<clipPath id="clip0_1877_2883">
<rect width="50.8322" height="73.2256" fill="white" transform="matrix(0.866025 -0.5 2.20305e-08 1 95.0371 32.8513)"/>
</clipPath>
</defs>
</svg>
